<?xml version="1.0" encoding="utf-8"?>
<!-- Generator: Adobe Illustrator 24.0.1, SVG Export Plug-In . SVG Version: 6.00 Build 0)  -->
<svg version="1.1" id="PICTOS_vectos" xmlns="http://www.w3.org/2000/svg" xmlns:xlink="http://www.w3.org/1999/xlink" x="0px"
	 y="0px" viewBox="0 0 46 46" style="enable-background:new 0 0 46 46;" xml:space="preserve">
<style type="text/css">
	.st0{fill:#25465F;}
</style>
<path class="st0" d="M22.9,38.4c-2.6,0-4.6,1-4.6,2.2s2.1,2.2,4.6,2.3s4.6-1,4.7-2.2S25.5,38.5,22.9,38.4z"/>
<path class="st0" d="M38.2,33l-2.1-2.6v-8.2c0-5.4-3.3-10.2-8.3-12.2c-0.7-2.6-3.3-4.2-6-3.5c-1.7,0.4-3.1,1.8-3.5,3.5
	c-5,1.9-8.3,6.8-8.3,12.2v8.3L7.8,33c-0.7,0.9-0.6,2.3,0.3,3c0.4,0.3,0.9,0.5,1.4,0.5h27.1c1.2,0,2.1-0.9,2.1-2.1
	C38.7,33.9,38.5,33.4,38.2,33z M11.3,33.5l1.3-1.6c0.2-0.3,0.3-0.6,0.3-1v-8.8c0-4.4,2.9-8.3,7.1-9.6c0.6-0.2,1-0.7,1-1.4
	c0.1-1,1-1.8,2-1.7c0.9,0.1,1.7,0.8,1.7,1.7c0,0.6,0.4,1.2,1.1,1.4c4.2,1.3,7.1,5.2,7.1,9.6v8.8c0,0.3,0.1,0.7,0.3,1l1.3,1.6
	L11.3,33.5z"/>
</svg>
