<?xml version="1.0" encoding="utf-8"?>
<!-- Generator: Adobe Illustrator 24.0.1, SVG Export Plug-In . SVG Version: 6.00 Build 0)  -->
<svg version="1.1" id="PICTOS_vectos" xmlns="http://www.w3.org/2000/svg" xmlns:xlink="http://www.w3.org/1999/xlink" x="0px"
	 y="0px" viewBox="0 0 46 46" style="enable-background:new 0 0 46 46;" xml:space="preserve">
<style type="text/css">
	.st0{fill:#25465F;}
</style>
<path class="st0" d="M23,1C10.8,1,1,10.8,1,23s9.8,22,22,22s22-9.8,22-22S35.2,1,23,1z M23,42C12.5,42,4,33.5,4,23S12.5,4,23,4
	s19,8.5,19,19S33.5,42,23,42z"/>
<path class="st0" d="M32.7,14.6L19.1,28.2l-5.8-5.8c-0.6-0.6-1.5-0.6-2.1,0c0,0,0,0,0,0c-0.6,0.6-0.6,1.5,0,2.1l6.9,6.9
	c0.3,0.3,0.7,0.4,1.1,0.4c0.4,0,0.8-0.2,1.1-0.4l14.6-14.6c0.6-0.6,0.6-1.5,0-2.1C34.2,14.1,33.3,14.1,32.7,14.6L32.7,14.6z"/>
</svg>
