<?xml version="1.0" encoding="utf-8"?>
<!-- Generator: Adobe Illustrator 24.0.1, SVG Export Plug-In . SVG Version: 6.00 Build 0)  -->
<svg version="1.1" id="PICTOS_vectos" xmlns="http://www.w3.org/2000/svg" xmlns:xlink="http://www.w3.org/1999/xlink" x="0px"
	 y="0px" viewBox="0 0 46.1 46.1" style="enable-background:new 0 0 46.1 46.1;" xml:space="preserve">
<style type="text/css">
	.st0{fill:#25465F;}
</style>
<path class="st0" d="M22.1,34.3c0.3,0.3,0.7,0.4,1.1,0.4c0.4,0,0.8-0.2,1.1-0.4l10-10c0.6-0.6,0.6-1.5,0-2.1c-0.6-0.6-1.5-0.6-2.1,0
	c0,0,0,0,0,0l-7.4,7.4V12.7c0-0.8-0.7-1.5-1.5-1.5s-1.5,0.7-1.5,1.5v16.9l-7.4-7.4c-0.6-0.6-1.6-0.5-2.1,0.1c-0.5,0.6-0.5,1.5,0,2
	L22.1,34.3z"/>
<path class="st0" d="M23.1,9.4c2.5,0,4.7-1,4.7-2.2S25.7,5,23.2,5s-4.6,1-4.6,2.2S20.6,9.4,23.1,9.4z"/>
<path class="st0" d="M39.7,32.4c-0.8,0-1.5,0.7-1.5,1.5v3.4h-30v-3.4c0-0.8-0.7-1.5-1.5-1.5s-1.5,0.7-1.5,1.5v4.9
	c0,0.8,0.7,1.5,1.5,1.5h33c0.8,0,1.5-0.7,1.5-1.5v-4.9C41.2,33.1,40.5,32.4,39.7,32.4z"/>
</svg>
