<?xml version="1.0" encoding="utf-8"?>
<!-- Generator: Adobe Illustrator 24.0.1, SVG Export Plug-In . SVG Version: 6.00 Build 0)  -->
<svg version="1.1" id="PICTOS_vectos" xmlns="http://www.w3.org/2000/svg" xmlns:xlink="http://www.w3.org/1999/xlink" x="0px"
	 y="0px" viewBox="0 0 46 46" style="enable-background:new 0 0 46 46;" xml:space="preserve">
<style type="text/css">
	.st0{fill:#25465F;}
</style>
<path class="st0" d="M23,0.9c-12.2,0-22,9.8-22,22s9.8,22,22,22s22-9.8,22-22S35.2,0.9,23,0.9z M23,41.9c-10.5,0-19-8.5-19-19
	s8.5-19,19-19s19,8.5,19,19S33.5,41.9,23,41.9z"/>
<rect x="21.2" y="10.2" class="st0" width="3.7" height="14.9"/>
<path class="st0" d="M21.1,30.3c-1.5,2.1-1.8,4.3-0.8,5s3-0.4,4.5-2.5s1.8-4.4,0.8-5.1S22.6,28.2,21.1,30.3z"/>
</svg>
