<?xml version="1.0" encoding="utf-8"?>
<!-- Generator: Adobe Illustrator 23.0.2, SVG Export Plug-In . SVG Version: 6.00 Build 0)  -->
<svg version="1.1" id="Calque_1" xmlns="http://www.w3.org/2000/svg" xmlns:xlink="http://www.w3.org/1999/xlink" x="0px" y="0px"
	 viewBox="0 0 200 200" style="enable-background:new 0 0 200 200;" xml:space="preserve">
<style type="text/css">
	.st0{fill-rule:evenodd;clip-rule:evenodd;fill:#F28A05;}
</style>
<path class="st0" d="M100,120c-5,0-9.1-3.9-9.4-8.9l-3-47.9c0-0.3,0-0.5,0-0.8c0-6.9,5.6-12.5,12.5-12.5c0.3,0,0.5,0,0.8,0
	c6.9,0.4,12.1,6.4,11.7,13.3l-3,47.9C109.1,116.1,105,120,100,120z M100,150c-5.5,0-10-4.5-10-10s4.5-10,10-10c5.5,0,10,4.5,10,10
	S105.5,150,100,150z"/>
</svg>
