<?xml version="1.0" encoding="utf-8"?>
<!-- Generator: Adobe Illustrator 24.0.1, SVG Export Plug-In . SVG Version: 6.00 Build 0)  -->
<svg version="1.1" id="PICTOS_vectos" xmlns="http://www.w3.org/2000/svg" xmlns:xlink="http://www.w3.org/1999/xlink" x="0px"
	 y="0px" viewBox="0 0 46 46" style="enable-background:new 0 0 46 46;" xml:space="preserve">
<style type="text/css">
	.st0{fill:#25465F;}
</style>
<path class="st0" d="M44.6,21.7C41.8,17.2,34.1,9.7,23,9.7c-3.2,0-6.3,0.6-9.2,1.8L7.1,4.9C6.5,4.4,5.6,4.3,5,4.9S4.4,6.5,5,7.1
	l5.9,5.9c-3.8,2.1-7.1,5.1-9.5,8.7c-0.5,0.8-0.5,1.9,0,2.8C4.2,28.9,11.9,36.4,23,36.4c3.2,0,6.4-0.6,9.4-1.9l6.6,6.6
	c0.6,0.6,1.5,0.6,2.1,0c0.6-0.6,0.6-1.5,0-2.1c0,0,0,0,0,0l-5.9-5.9c3.7-2.1,6.9-5.1,9.3-8.6C45.1,23.6,45.1,22.5,44.6,21.7z
	 M23,33.4C13.4,33.4,6.7,27,4.1,23c2.3-3.3,5.4-6.1,9-7.9l2.3,2.3l-0.1,0.2c-3,4.3-2,10.2,2.3,13.2c3.3,2.3,7.8,2.3,11.1-0.1
	l1.5,1.5C27.8,33,25.4,33.4,23,33.4z M28.6,26.4l-0.9-0.9c0,0,0.1,0,0.1-0.1c1-0.7,0.6-3-0.9-5.1s-3.4-3.2-4.4-2.5
	c-0.6,0.5-0.8,1.3-0.5,2l-2.3-2.3c0.7-0.4,1.4-0.7,2.2-0.8c0.4-0.1,0.8-0.1,1.1-0.1c3.6,0,6.5,2.9,6.5,6.5
	C29.5,24.2,29.2,25.4,28.6,26.4L28.6,26.4z M26.5,28.5c-2.2,1.4-5.1,1.3-7.2-0.2c-2.8-2-3.6-5.9-1.8-8.8L26.5,28.5z M33,30.8
	l-2.3-2.3c0,0,0,0,0,0c2.9-4.3,1.8-10.2-2.5-13.2c-3.2-2.2-7.5-2.2-10.7,0l-1.4-1.4c2.2-0.8,4.6-1.2,6.9-1.2
	c9.6,0,16.3,6.4,18.9,10.3C39.6,26.3,36.6,29,33,30.8L33,30.8z"/>
</svg>
