<?xml version="1.0" encoding="utf-8"?>
<!-- Generator: Adobe Illustrator 23.0.2, SVG Export Plug-In . SVG Version: 6.00 Build 0)  -->
<svg version="1.1" id="Calque_1" xmlns="http://www.w3.org/2000/svg" xmlns:xlink="http://www.w3.org/1999/xlink" x="0px" y="0px"
	 viewBox="0 0 200 200" style="enable-background:new 0 0 200 200;" xml:space="preserve">
<style type="text/css">
	.st0{fill-rule:evenodd;clip-rule:evenodd;fill:#7D7D7D;}
</style>
<path class="st0" d="M82.6,46.1c5.6-1,11.4-1.5,17.4-1.5c35.9,0,65.2,18.3,87.7,54.8c2,3.2,2,7.3,0,10.5l0,0
	c-12.4,20-26.7,34.6-43.1,43.6l6.3,10.9c2.8,4.8,1.1,10.9-3.7,13.7c-4.8,2.8-10.9,1.1-13.7-3.7l-80-138.6
	c-2.8-4.8-1.1-10.9,3.7-13.7s10.9-1.1,13.7,3.7L82.6,46.1z M133.3,133.9c6.8-7.9,10.9-18.1,10.9-29.4c0-24.8-20.1-45-45-45
	c-2.9,0-5.7,0.3-8.4,0.8L102,79.7c12.5,1.4,22.2,12,22.2,24.8c0,3.5-0.7,6.9-2.1,10L133.3,133.9z M54.6,56.2l10.8,18.7
	c-7,7.9-11.2,18.3-11.2,29.7c0,24.9,20.2,45,45,45c3,0,5.9-0.3,8.8-0.9l8.4,14.5c-5.3,0.9-10.7,1.3-16.4,1.3
	c-35.9,0-65.2-18.2-87.7-54.7c-2-3.2-2-7.3,0-10.5l0,0C24.5,79.6,38.5,65.3,54.6,56.2z M96.9,129.5c-12.7-1.2-22.7-11.9-22.7-24.9
	c0-3.7,0.8-7.3,2.3-10.4L96.9,129.5z"/>
</svg>
