<?xml version="1.0" encoding="utf-8"?>
<!-- Generator: Adobe Illustrator 23.0.2, SVG Export Plug-In . SVG Version: 6.00 Build 0)  -->
<svg version="1.1" id="Calque_1" xmlns="http://www.w3.org/2000/svg" xmlns:xlink="http://www.w3.org/1999/xlink" x="0px" y="0px"
	 viewBox="0 0 200 200" style="enable-background:new 0 0 200 200;" xml:space="preserve">
<style type="text/css">
	.st0{fill-rule:evenodd;clip-rule:evenodd;fill:#7D7D7D;}
</style>
<path class="st0" d="M12.3,105.3c-2-3.2-2-7.3,0-10.5l0,0C34.8,58.3,64.1,40,100,40c35.9,0,65.2,18.3,87.7,54.8c2,3.2,2,7.3,0,10.5
	l0,0C165.2,141.8,135.9,160,100,160C64.1,160,34.8,141.8,12.3,105.3z M99.2,145c24.9,0,45-20.1,45-45c0-24.8-20.1-45-45-45
	c-24.8,0-45,20.2-45,45C54.2,124.9,74.4,145,99.2,145z M99.2,75c-13.8,0-25,11.2-25,25s11.2,25,25,25c13.8,0,25-11.2,25-25
	S113,75,99.2,75"/>
</svg>
