<?xml version="1.0" encoding="utf-8"?>
<!-- Generator: Adobe Illustrator 24.0.1, SVG Export Plug-In . SVG Version: 6.00 Build 0)  -->
<svg version="1.1" id="PICTOS_vectos" xmlns="http://www.w3.org/2000/svg" xmlns:xlink="http://www.w3.org/1999/xlink" x="0px"
	 y="0px" viewBox="0 0 46.1 46.1" style="enable-background:new 0 0 46.1 46.1;" xml:space="preserve">
<style type="text/css">
	.st0{fill:#25465F;}
</style>
<path class="st0" d="M44.6,21.7C41.8,17.2,34.1,9.7,23,9.7S4.2,17.2,1.4,21.7c-0.5,0.8-0.5,1.9,0,2.8C4.2,28.9,11.9,36.4,23,36.4
	s18.8-7.5,21.6-11.9C45.1,23.6,45.1,22.5,44.6,21.7z M23,33.4c-9.6,0-16.3-6.4-18.9-10.3c2.6-3.9,9.3-10.3,18.9-10.3
	s16.3,6.4,18.9,10.3C39.3,27,32.6,33.4,23,33.4z"/>
<path class="st0" d="M28.4,15.3c-4.3-3-10.2-2-13.2,2.3s-2,10.2,2.3,13.2c4.3,3,10.2,2,13.2-2.3C33.8,24.2,32.7,18.3,28.4,15.3z
	 M28.3,26.8c-2.1,2.9-6.1,3.6-9,1.6s-3.6-6.1-1.6-9c1.2-1.7,3.2-2.8,5.3-2.8c3.6,0,6.5,2.9,6.5,6.5C29.5,24.4,29.1,25.7,28.3,26.8z"
	/>
<path class="st0" d="M22.5,17.8c-1,0.7-0.6,3,0.8,5.1s3.5,3.2,4.5,2.5s0.6-3-0.9-5.1S23.5,17.1,22.5,17.8z"/>
</svg>
