<?xml version="1.0" encoding="utf-8"?>
<!-- Generator: Adobe Illustrator 24.0.1, SVG Export Plug-In . SVG Version: 6.00 Build 0)  -->
<svg version="1.1" id="PICTOS_vectos" xmlns="http://www.w3.org/2000/svg" xmlns:xlink="http://www.w3.org/1999/xlink" x="0px"
	 y="0px" viewBox="0 0 47 47" style="enable-background:new 0 0 47 47;" xml:space="preserve">
<style type="text/css">
	.st0{fill:#25465F;}
</style>
<path class="st0" d="M23.5,29.5c-1.2,0-2.2,2.1-2.2,4.6s1,4.7,2.2,4.7s2.2-2.1,2.2-4.7S24.8,29.5,23.5,29.5z"/>
<path class="st0" d="M44.5,11.9L25.3,1.7c-1.1-0.6-2.5-0.6-3.6,0L2.5,11.9c-1.9,1-2.6,3.3-1.6,5.2c0.7,1.2,2,2,3.4,2h0.6v23
	c0,1.6,1.2,2.9,2.8,2.9h31.6c1.6,0,2.8-1.3,2.8-2.9v-23h0.6c2.1,0,3.8-1.7,3.8-3.9C46.6,13.9,45.8,12.6,44.5,11.9z M43.5,15.5
	c-0.1,0.4-0.4,0.7-0.8,0.6h-2.1c-0.8,0-1.5,0.7-1.5,1.5v24.4H7.9V17.6c0-0.8-0.7-1.5-1.5-1.5H4.3c-0.5,0-0.8-0.4-0.8-0.8
	c0-0.3,0.2-0.6,0.4-0.7L23.1,4.4c0.2-0.1,0.5-0.1,0.8,0l19.2,10.2C43.5,14.7,43.7,15.1,43.5,15.5L43.5,15.5z"/>
</svg>
