<?xml version="1.0" encoding="utf-8"?>
<!-- Generator: Adobe Illustrator 23.0.2, SVG Export Plug-In . SVG Version: 6.00 Build 0)  -->
<svg version="1.1" id="Calque_1" xmlns="http://www.w3.org/2000/svg" xmlns:xlink="http://www.w3.org/1999/xlink" x="0px" y="0px"
	 viewBox="0 0 200 200" style="enable-background:new 0 0 200 200;" xml:space="preserve">
<style type="text/css">
	.st0{fill-rule:evenodd;clip-rule:evenodd;fill:#7D7D7D;}
</style>
<path class="st0" d="M106.6,140H88.4V81.3h18.2V140z M97.5,55.8c5.9,0,9.6,4,9.7,9.2c0,5-3.8,9.1-9.8,9.1c-5.8,0-9.6-4.1-9.5-9.1
	C87.8,59.7,91.6,55.8,97.5,55.8z M100,160c33.1,0,60-26.9,60-60s-26.9-60-60-60s-60,26.9-60,60S66.9,160,100,160z M100,180
	c-44.2,0-80-35.8-80-80s35.8-80,80-80s80,35.8,80,80S144.2,180,100,180z"/>
</svg>
