<svg xmlns="http://www.w3.org/2000/svg" width="16" height="14" viewBox="0 0 16 14">
  <path d="M17.4190525,22.1776288 C16.2814913,21.4210875 16.7439646,18.8945252 18.3830507,16.6092345 C20.0221368,14.3232475 22.2166248,13.1506608 23.3549092,13.907202 C24.4924704,14.6633951 24.0860435,17.1269413 22.4469574,19.4125802 C20.8082329,21.698219 18.5566138,22.93417 17.4190525,22.1776288 Z M14.5808626,22.1776288 C13.4433014,22.93417 11.1916823,21.698219 9.55295775,19.4125802 C7.91387161,17.1269413 7.50744478,14.6633951 8.64536758,13.907202 C9.78329039,13.1506608 11.9777783,14.3232475 13.6168645,16.6092345 C15.2559506,18.8945252 15.7184238,21.4210875 14.5808626,22.1776288 Z M21.2272069,12.0074932 C21.2272069,13.3367497 18.8862751,14.4149864 15.9989813,14.4149864 C13.1116875,14.4149864 10.7707557,13.3367497 10.7707557,12.0074932 C10.7707557,10.6778885 13.1116875,9.6 15.9989813,9.6 C18.8862751,9.6 21.2272069,10.6778885 21.2272069,12.0074932 Z" transform="translate(-8 -9)"/>
</svg>
