<?xml version="1.0" encoding="utf-8"?>
<!-- Generator: Adobe Illustrator 23.0.2, SVG Export Plug-In . SVG Version: 6.00 Build 0)  -->
<svg version="1.1" id="Calque_1" xmlns="http://www.w3.org/2000/svg" xmlns:xlink="http://www.w3.org/1999/xlink" x="0px" y="0px"
	 viewBox="0 0 200 200" style="enable-background:new 0 0 200 200;" xml:space="preserve">
<style type="text/css">
	.st0{fill-rule:evenodd;clip-rule:evenodd;fill:#7D7D7D;}
</style>
<path class="st0" d="M50,30h30c5.5,0,10,4.5,10,10v120c0,5.5-4.5,10-10,10H50c-5.5,0-10-4.5-10-10V40C40,34.5,44.5,30,50,30z
	 M120,30h30c5.5,0,10,4.5,10,10v120c0,5.5-4.5,10-10,10h-30c-5.5,0-10-4.5-10-10V40C110,34.5,114.5,30,120,30z"/>
</svg>
