<?xml version="1.0" encoding="utf-8"?>
<!-- Generator: Adobe Illustrator 23.0.2, SVG Export Plug-In . SVG Version: 6.00 Build 0)  -->
<svg version="1.1" id="Calque_1" xmlns="http://www.w3.org/2000/svg" xmlns:xlink="http://www.w3.org/1999/xlink" x="0px" y="0px"
	 viewBox="0 0 200 200" style="enable-background:new 0 0 200 200;" xml:space="preserve">
<style type="text/css">
	.st0{fill-rule:evenodd;clip-rule:evenodd;fill:#7D7D7D;}
</style>
<path class="st0" d="M155.9,79.4l-89.7,89.7c-1.3,1.3-3,2.2-4.8,2.7l-35.3,8.1c-0.7,0.2-1.5,0.2-2.2,0c-2.7-0.6-4.4-3.3-3.7-6
	l8.1-35.3c0.4-1.8,1.3-3.5,2.7-4.8l89.7-89.7L155.9,79.4z M163,72.3L127.7,37l14.1-14.1c3.9-3.9,10.2-3.9,14.1,0l21.2,21.2
	c3.9,3.9,3.9,10.2,0,14.1L163,72.3z"/>
</svg>
