<?xml version="1.0" encoding="utf-8"?>
<!-- Generator: Adobe Illustrator 24.0.1, SVG Export Plug-In . SVG Version: 6.00 Build 0)  -->
<svg version="1.1" id="PICTOS_vectos" xmlns="http://www.w3.org/2000/svg" xmlns:xlink="http://www.w3.org/1999/xlink" x="0px"
	 y="0px" viewBox="0 0 46 46" style="enable-background:new 0 0 46 46;" xml:space="preserve">
<style type="text/css">
	.st0{fill:#25465F;}
</style>
<path class="st0" d="M31.4,14.6c-0.9-0.9-3.1-0.1-4.9,1.7s-2.5,3.9-1.7,4.8s3,0.1,4.9-1.7S32.3,15.5,31.4,14.6z"/>
<path class="st0" d="M4.3,43.4L14.8,42c0.1,0,0.2,0,0.3-0.1h0.1c0.2-0.1,0.3-0.2,0.4-0.3l0,0L43,14.2c0.6-0.6,0.6-1.5,0-2.1L33.9,3
	c-0.6-0.6-1.5-0.6-2.1,0L4.4,30.4l-0.1,0.1l-0.1,0.1c-0.1,0.1-0.1,0.2-0.2,0.3v0C4.1,31,4,31.1,4,31.2l0,0L2.6,41.7
	c0,0.1,0,0.1,0,0.2c0,0.8,0.7,1.5,1.5,1.5C4.2,43.4,4.3,43.4,4.3,43.4L4.3,43.4z M7.6,31.5l22-22l7,7l-22,22L7.6,31.5z M39.8,13.2
	l-2.1,2.1l-7-7l2.1-2.1L39.8,13.2z M6.6,34.7l4.8,4.8l-5.5,0.7L6.6,34.7z"/>
</svg>
