<?xml version="1.0" encoding="utf-8"?>
<!-- Generator: Adobe Illustrator 23.0.2, SVG Export Plug-In . SVG Version: 6.00 Build 0)  -->
<svg version="1.1" id="Calque_1" xmlns="http://www.w3.org/2000/svg" xmlns:xlink="http://www.w3.org/1999/xlink" x="0px" y="0px"
	 viewBox="0 0 200 200" style="enable-background:new 0 0 200 200;" xml:space="preserve">
<style type="text/css">
	.st0{fill-rule:evenodd;clip-rule:evenodd;fill:#009DCC;}
</style>
<path class="st0" d="M110,90h40c5.5,0,10,4.5,10,10c0,5.5-4.5,10-10,10h-40v40c0,5.5-4.5,10-10,10c-5.5,0-10-4.5-10-10v-40H50
	c-5.5,0-10-4.5-10-10c0-5.5,4.5-10,10-10h40V50c0-5.5,4.5-10,10-10c5.5,0,10,4.5,10,10V90z"/>
</svg>
