<?xml version="1.0" encoding="utf-8"?>
<!-- Generator: Adobe Illustrator 23.0.2, SVG Export Plug-In . SVG Version: 6.00 Build 0)  -->
<svg version="1.1" id="Calque_1" xmlns="http://www.w3.org/2000/svg" xmlns:xlink="http://www.w3.org/1999/xlink" x="0px" y="0px"
	 viewBox="0 0 200 200" style="enable-background:new 0 0 200 200;" xml:space="preserve">
<style type="text/css">
	.st0{fill-rule:evenodd;clip-rule:evenodd;fill:#009DCC;}
	.st1{fill-rule:evenodd;clip-rule:evenodd;fill:#FFFFFF;}
</style>
<g>
	<circle class="st0" cx="100" cy="100" r="80"/>
	<path class="st1" d="M110,90h30c5.5,0,10,4.5,10,10c0,5.5-4.5,10-10,10h-30v30c0,5.5-4.5,10-10,10c-5.5,0-10-4.5-10-10v-30H60
		c-5.5,0-10-4.5-10-10c0-5.5,4.5-10,10-10h30V60c0-5.5,4.5-10,10-10c5.5,0,10,4.5,10,10V90z"/>
</g>
</svg>
