<?xml version="1.0" encoding="utf-8"?>
<!-- Generator: Adobe Illustrator 23.0.2, SVG Export Plug-In . SVG Version: 6.00 Build 0)  -->
<svg version="1.1" id="Calque_1" xmlns="http://www.w3.org/2000/svg" xmlns:xlink="http://www.w3.org/1999/xlink" x="0px" y="0px"
	 viewBox="0 0 200 200" style="enable-background:new 0 0 200 200;" xml:space="preserve">
<style type="text/css">
	.st0{fill-rule:evenodd;clip-rule:evenodd;fill:#C8007B;}
</style>
<path class="st0" d="M100,160c33.1,0,60-26.9,60-60s-26.9-60-60-60s-60,26.9-60,60S66.9,160,100,160z M100,180
	c-44.2,0-80-35.8-80-80s35.8-80,80-80s80,35.8,80,80S144.2,180,100,180z M110,90h20c5.5,0,10,4.5,10,10c0,5.5-4.5,10-10,10h-20v20
	c0,5.5-4.5,10-10,10c-5.5,0-10-4.5-10-10v-20H70c-5.5,0-10-4.5-10-10c0-5.5,4.5-10,10-10h20V70c0-5.5,4.5-10,10-10
	c5.5,0,10,4.5,10,10V90z"/>
</svg>
