<?xml version="1.0" encoding="utf-8"?>
<!-- Generator: Adobe Illustrator 24.0.1, SVG Export Plug-In . SVG Version: 6.00 Build 0)  -->
<svg version="1.1" id="PICTOS_vectos" xmlns="http://www.w3.org/2000/svg" xmlns:xlink="http://www.w3.org/1999/xlink" x="0px"
	 y="0px" viewBox="0 0 46 46" style="enable-background:new 0 0 46 46;" xml:space="preserve">
<style type="text/css">
	.st0{fill:#25465F;}
</style>
<path class="st0" d="M23,17.7c0.8,0,1.5-0.7,1.5-1.5V2.5C24.5,1.7,23.8,1,23,1s-1.5,0.7-1.5,1.5v13.7C21.5,17,22.2,17.7,23,17.7z"/>
<path class="st0" d="M30.1,5.7c-0.8-0.3-1.6,0.1-1.9,0.9c-0.3,0.8,0.1,1.6,0.9,1.9c8.9,3.4,13.4,13.3,10.1,22.3
	c-3.4,8.9-13.3,13.4-22.3,10.1S3.5,27.6,6.8,18.6c1.8-4.7,5.4-8.3,10.1-10.1c0.7-0.4,1.1-1.3,0.7-2c-0.3-0.6-1-1-1.7-0.8
	C5.4,9.7,0.1,21.4,4.1,31.9s15.6,15.8,26.1,11.8S46,28.1,42,17.6C40,12.1,35.7,7.8,30.1,5.7L30.1,5.7z"/>
</svg>
