<?xml version="1.0" encoding="utf-8"?>
<!-- Generator: Adobe Illustrator 23.0.2, SVG Export Plug-In . SVG Version: 6.00 Build 0)  -->
<svg version="1.1" id="Calque_1" xmlns="http://www.w3.org/2000/svg" xmlns:xlink="http://www.w3.org/1999/xlink" x="0px" y="0px"
	 viewBox="0 0 200 200" style="enable-background:new 0 0 200 200;" xml:space="preserve">
<style type="text/css">
	.st0{fill-rule:evenodd;clip-rule:evenodd;fill:#7D7D7D;}
</style>
<path class="st0" d="M105.8,113.8h-16l-0.1-3.1c-0.4-6.1,1.7-12.4,7.1-18.8c3.8-4.6,7-8.4,7-12.5c0-4.2-2.8-7-8.8-7.2
	c-4,0-8.8,1.4-11.9,3.6l-4.1-13.1c4.3-2.5,11.5-4.9,20-4.9c15.8,0,23,8.8,23,18.7c0,9.1-5.6,15.1-10.2,20.2c-4.4,4.9-6.2,9.6-6.1,15
	V113.8z M97.4,141.3c-6.4,0-10.7-4.7-10.7-10.9c0-6.4,4.4-10.9,10.7-10.9c6.5,0,10.7,4.6,10.8,10.9
	C108.2,136.6,103.9,141.3,97.4,141.3z M100,160c33.1,0,60-26.9,60-60s-26.9-60-60-60s-60,26.9-60,60S66.9,160,100,160z M100,180
	c-44.2,0-80-35.8-80-80s35.8-80,80-80s80,35.8,80,80S144.2,180,100,180z"/>
</svg>
