<?xml version="1.0" encoding="utf-8"?>
<!-- Generator: Adobe Illustrator 23.0.2, SVG Export Plug-In . SVG Version: 6.00 Build 0)  -->
<svg version="1.1" id="Calque_1" xmlns="http://www.w3.org/2000/svg" xmlns:xlink="http://www.w3.org/1999/xlink" x="0px" y="0px"
	 viewBox="0 0 200 200" style="enable-background:new 0 0 200 200;" xml:space="preserve">
<style type="text/css">
	.st0{fill-rule:evenodd;clip-rule:evenodd;fill:#7D7D7D;}
</style>
<path class="st0" d="M87.5,132.5c24.9,0,45-20.1,45-45s-20.1-45-45-45s-45,20.1-45,45S62.6,132.5,87.5,132.5z M140,125.8l34.6,34.6
	c3.9,3.9,3.9,10.2,0,14.1c-3.9,3.9-10.2,3.9-14.1,0L125.8,140c-10.7,7.9-24,12.5-38.3,12.5c-35.9,0-65-29.1-65-65s29.1-65,65-65
	s65,29.1,65,65C152.5,101.8,147.9,115.1,140,125.8z"/>
</svg>
