<?xml version="1.0" encoding="utf-8"?>
<!-- Generator: Adobe Illustrator 24.0.1, SVG Export Plug-In . SVG Version: 6.00 Build 0)  -->
<svg version="1.1" id="PICTOS_vectos" xmlns="http://www.w3.org/2000/svg" xmlns:xlink="http://www.w3.org/1999/xlink" x="0px"
	 y="0px" viewBox="0 0 46.1 46.1" style="enable-background:new 0 0 46.1 46.1;" xml:space="preserve">
<style type="text/css">
	.st0{fill:#25465F;}
</style>
<path class="st0" d="M44.2,12.8c-0.9-1.2-2.3-1.9-3.7-1.9H10.3L9.1,5.7C8.8,4.4,7.6,3.4,6.3,3.4H2.5C1.7,3.4,1,4.1,1,4.9
	s0.7,1.5,1.5,1.5h3.7l1.4,6.4l0,0L11.4,30c0.3,1.3,1.5,2.3,2.9,2.3h24.1c1.3,0,2.5-0.9,2.8-2.1l3.8-13.3
	C45.3,15.4,45,13.9,44.2,12.8z M42,16l-3.7,13.3l-24,0l-2.2-10l0,0L11,13.9h29.5c0.5,0,1,0.2,1.3,0.7C42.1,15,42.2,15.5,42,16z"/>
<path class="st0" d="M11.8,37.5c-1.5,2.1-1.8,4.3-0.8,5s3-0.5,4.5-2.6s1.8-4.4,0.8-5.1S13.3,35.4,11.8,37.5z"/>
<path class="st0" d="M33.5,37.5c-1.5,2.1-1.8,4.3-0.8,5s3-0.5,4.5-2.6s1.8-4.4,0.8-5.1S34.9,35.4,33.5,37.5z"/>
</svg>
