<?xml version="1.0" encoding="utf-8"?>
<!-- Generator: Adobe Illustrator 24.0.1, SVG Export Plug-In . SVG Version: 6.00 Build 0)  -->
<svg version="1.1" id="PICTOS_vectos" xmlns="http://www.w3.org/2000/svg" xmlns:xlink="http://www.w3.org/1999/xlink" x="0px"
	 y="0px" viewBox="0 0 46 46" style="enable-background:new 0 0 46 46;" xml:space="preserve">
<style type="text/css">
	.st0{fill:#25465F;}
</style>
<path class="st0" d="M40,43.3l-4-30c-0.1-0.7-0.7-1.3-1.5-1.3h-5V7.5C29.5,3.9,26.6,1,23,1s-6.5,2.9-6.5,6.5V12h-5
	c-0.7,0-1.4,0.5-1.5,1.3l-4,30c-0.1,0.8,0.4,1.6,1.3,1.7c0.1,0,0.2,0,0.2,0h31c0.4,0,0.8-0.2,1.1-0.5C39.9,44.2,40,43.7,40,43.3z
	 M19.5,7.5C19.5,5.6,21.1,4,23,4s3.5,1.6,3.5,3.5V12h-7V7.5z M9.2,42l3.6-27h3.7v3c0,0.8,0.7,1.5,1.5,1.5s1.5-0.7,1.5-1.5v-3h7v3
	c0,0.8,0.7,1.5,1.5,1.5s1.5-0.7,1.5-1.5v-3h3.7l3.6,27H9.2z"/>
<path class="st0" d="M23,27.6c-2.6,0-4.6,1-4.7,2.2s2.1,2.2,4.7,2.2s4.6-1,4.6-2.2S25.6,27.6,23,27.6z"/>
</svg>
