<svg id="PICTOS_vectos" xmlns="http://www.w3.org/2000/svg" viewBox="0 0 46 46"><defs><style>.cls-1{fill:#25465f;}</style></defs><path class="cls-1" d="M30.64,12H43.5a1.5,1.5,0,0,0,0-3H30.64a1.5,1.5,0,0,0,0,3Z"/><path class="cls-1" d="M43.5,21.5H21.39a1.5,1.5,0,0,0,0,3H43.5a1.5,1.5,0,0,0,0-3Z"/><path class="cls-1" d="M43.5,34H42a1.5,1.5,0,1,0,0,3H43.5a1.5,1.5,0,0,0,0-3Z"/><path class="cls-1" d="M34.41,33.28c-2.57,0-4.65,1-4.66,2.19s2.14,2.24,4.71,2.25,4.57-1,4.58-2.19S37,33.29,34.41,33.28Z"/><path class="cls-1" d="M9.1,23c0,1.23,2.14,2.24,4.71,2.25s4.57-1,4.58-2.19-2.07-2.24-4.63-2.25S9.11,21.75,9.1,23Z"/><path class="cls-1" d="M23.06,12.72c2.57,0,4.58-1,4.58-2.19S25.58,8.29,23,8.28s-4.65,1-4.65,2.19S20.49,12.71,23.06,12.72Z"/><path class="cls-1" d="M26.75,34H2.5a1.5,1.5,0,0,0,0,3H26.75a1.5,1.5,0,0,0,0-3Z"/><path class="cls-1" d="M2.5,24.5H6.1a1.5,1.5,0,1,0,0-3H2.5a1.5,1.5,0,0,0,0,3Z"/><path class="cls-1" d="M2.5,12H15.39a1.5,1.5,0,0,0,0-3H2.5a1.5,1.5,0,0,0,0,3Z"/></svg>