<svg id="PICTOS_vectos" xmlns="http://www.w3.org/2000/svg" viewBox="0 0 46 46"><defs><style>.cls-1{fill:#25465f;}</style></defs><path class="cls-1" d="M44.93,17.93a1.51,1.51,0,0,0-1.21-1L30.33,15l-6-12.13v0a2.11,2.11,0,0,0-.21-.31l-.05,0a1.37,1.37,0,0,0-.23-.19l-.1-.06-.08,0-.2-.08-.06,0A1.57,1.57,0,0,0,23,2H23a1.55,1.55,0,0,0-.31,0l-.08,0a1.66,1.66,0,0,0-.33.15l-.06,0a2.12,2.12,0,0,0-.24.2l-.06.07a1.13,1.13,0,0,0-.21.31L15.67,15,2.28,16.91a1.5,1.5,0,0,0-.83,2.56l9.69,9.44L8.85,42.24a1.5,1.5,0,0,0,.6,1.47,1.25,1.25,0,0,0,.4.2l.14,0a1,1,0,0,0,.29.05h.05a1.38,1.38,0,0,0,.2,0h.13a1.4,1.4,0,0,0,.37-.14l12-6.29,12,6.29a1.46,1.46,0,0,0,.7.18,1.51,1.51,0,0,0,1.48-1.76L34.86,28.91l9.69-9.44A1.51,1.51,0,0,0,44.93,17.93ZM32.2,27.31a1.53,1.53,0,0,0-.43,1.33l1.91,11.11-10-5.24h0a1.36,1.36,0,0,0-.28-.11l-.1,0-.23,0H23V6.89L28,17a1.48,1.48,0,0,0,1.13.82l11.16,1.62Z"/></svg>