<svg id="PICTOS_vectos" xmlns="http://www.w3.org/2000/svg" viewBox="0 0 46 46"><defs><style>.cls-1{fill:#25465f;}</style></defs><path class="cls-1" d="M44.93,17.93a1.51,1.51,0,0,0-1.21-1L30.33,15l-6-12.13a1.49,1.49,0,0,0-2.68,0L15.67,15,2.28,16.91a1.5,1.5,0,0,0-.83,2.56l9.69,9.44L8.85,42.24a1.5,1.5,0,0,0,.6,1.47,1.48,1.48,0,0,0,1.58.11l12-6.29,12,6.29a1.46,1.46,0,0,0,.7.18,1.51,1.51,0,0,0,1.48-1.76L34.86,28.91l9.69-9.44A1.51,1.51,0,0,0,44.93,17.93ZM32.2,27.31a1.53,1.53,0,0,0-.43,1.33l1.91,11.11-10-5.24a1.53,1.53,0,0,0-1.4,0l-10,5.24,1.91-11.11a1.53,1.53,0,0,0-.43-1.33L5.72,19.44l11.16-1.62A1.48,1.48,0,0,0,18,17L23,6.89,28,17a1.48,1.48,0,0,0,1.13.82l11.16,1.62Z"/></svg>