<?xml version="1.0" encoding="utf-8"?>
<!-- Generator: Adobe Illustrator 23.0.2, SVG Export Plug-In . SVG Version: 6.00 Build 0)  -->
<svg version="1.1" id="Calque_1" xmlns="http://www.w3.org/2000/svg" xmlns:xlink="http://www.w3.org/1999/xlink" x="0px" y="0px"
	 viewBox="0 0 200 200" style="enable-background:new 0 0 200 200;" xml:space="preserve">
<style type="text/css">
	.st0{fill-rule:evenodd;clip-rule:evenodd;fill:#C8007B;}
</style>
<path class="st0" d="M100,160c33.1,0,60-26.9,60-60s-26.9-60-60-60s-60,26.9-60,60S66.9,160,100,160z M100,180
	c-44.2,0-80-35.8-80-80s35.8-80,80-80s80,35.8,80,80S144.2,180,100,180z M114.1,100l14.1,14.1c3.9,3.9,3.9,10.2,0,14.1
	s-10.2,3.9-14.1,0L100,114.1l-14.1,14.1c-3.9,3.9-10.2,3.9-14.1,0s-3.9-10.2,0-14.1L85.9,100L71.7,85.9c-3.9-3.9-3.9-10.2,0-14.1
	s10.2-3.9,14.1,0L100,85.9l14.1-14.1c3.9-3.9,10.2-3.9,14.1,0s3.9,10.2,0,14.1L114.1,100z"/>
</svg>
