<?xml version="1.0" encoding="utf-8"?>
<!-- Generator: Adobe Illustrator 23.0.2, SVG Export Plug-In . SVG Version: 6.00 Build 0)  -->
<svg version="1.1" id="Calque_1" xmlns="http://www.w3.org/2000/svg" xmlns:xlink="http://www.w3.org/1999/xlink" x="0px" y="0px"
	 viewBox="0 0 200 200" style="enable-background:new 0 0 200 200;" xml:space="preserve">
<style type="text/css">
	.st0{fill-rule:evenodd;clip-rule:evenodd;fill:#E33535;}
</style>
<path class="st0" d="M115.6,100l31.2,31.2c4.3,4.3,4.3,11.3,0,15.6c-4.3,4.3-11.3,4.3-15.6,0L100,115.6l-31.2,31.2
	c-4.3,4.3-11.3,4.3-15.6,0c-4.3-4.3-4.3-11.3,0-15.6L84.4,100L53.2,68.8c-4.3-4.3-4.3-11.3,0-15.6s11.3-4.3,15.6,0L100,84.4
	l31.2-31.2c4.3-4.3,11.3-4.3,15.6,0c4.3,4.3,4.3,11.3,0,15.6L115.6,100z"/>
</svg>
