<?xml version="1.0" encoding="utf-8"?>
<!-- Generator: Adobe Illustrator 23.0.2, SVG Export Plug-In . SVG Version: 6.00 Build 0)  -->
<svg version="1.1" id="Calque_1" xmlns="http://www.w3.org/2000/svg" xmlns:xlink="http://www.w3.org/1999/xlink" x="0px" y="0px"
	 viewBox="0 0 200 200" style="enable-background:new 0 0 200 200;" xml:space="preserve">
<style type="text/css">
	.st0{fill-rule:evenodd;clip-rule:evenodd;fill:#7D7D7D;}
</style>
<path class="st0" d="M64,50l4.4-21.9c0.9-4.7,5-8.1,9.8-8.1h43.6c4.8,0,8.9,3.4,9.8,8.1L136,50h24c5.5,0,10,4.5,10,10s-4.5,10-10,10
	H40c-5.5,0-10-4.5-10-10s4.5-10,10-10H64z M115.6,50l-2-10H86.4l-2,10H115.6z M110,160h10v-60h-10V160z M80,160h10v-60H80V160z
	 M40,80h120l-9.3,91.5c-0.4,4.8-4.8,8.5-10,8.5H59.2c-5.2,0-9.5-3.7-9.9-8.5L40,80z"/>
</svg>
