<?xml version="1.0" encoding="utf-8"?>
<!-- Generator: Adobe Illustrator 24.0.1, SVG Export Plug-In . SVG Version: 6.00 Build 0)  -->
<svg version="1.1" id="PICTOS_vectos" xmlns="http://www.w3.org/2000/svg" xmlns:xlink="http://www.w3.org/1999/xlink" x="0px"
	 y="0px" viewBox="0 0 46.1 46.1" style="enable-background:new 0 0 46.1 46.1;" xml:space="preserve">
<style type="text/css">
	.st0{fill:#25465F;}
</style>
<path class="st0" d="M39.2,6.6H9c-1.1,0-2,0.9-2,2v3.8c0,1,0.7,1.9,1.8,2V41c0,2.2,1.8,4,4,4h22.7c2.2,0,4-1.8,4-4c0,0,0,0,0,0V14.3
	c1-0.1,1.8-1,1.8-2V8.6C41.2,7.5,40.3,6.6,39.2,6.6z M38.2,9.6v1.7H38c-0.1,0-0.2,0-0.3,0h-27c-0.1,0-0.2,0-0.3,0H10V9.6H38.2z
	 M35.4,42H12.8c-0.6,0-1-0.4-1-1V14.3h5.7v22.4c0,0.8,0.7,1.5,1.5,1.5c0.8,0,1.5-0.7,1.5-1.5V14.3h7.2v22.4c0,0.8,0.7,1.5,1.5,1.5
	s1.5-0.7,1.5-1.5V14.3h5.8V41C36.4,41.5,36,42,35.4,42z"/>
<path class="st0" d="M24.2,5.4c2.6,0,4.6-1,4.6-2.2S26.7,1,24.1,1s-4.6,1-4.7,2.2S21.6,5.4,24.2,5.4z"/>
</svg>
