<?xml version="1.0" encoding="utf-8"?>
<!-- Generator: Adobe Illustrator 24.0.1, SVG Export Plug-In . SVG Version: 6.00 Build 0)  -->
<svg version="1.1" id="PICTOS_vectos" xmlns="http://www.w3.org/2000/svg" xmlns:xlink="http://www.w3.org/1999/xlink" x="0px"
	 y="0px" viewBox="0 0 46 46" style="enable-background:new 0 0 46 46;" xml:space="preserve">
<style type="text/css">
	.st0{fill:#25465F;}
</style>
<path class="st0" d="M14,17.9l7.4-7.5v16.9c0,0.8,0.7,1.5,1.5,1.5s1.5-0.7,1.5-1.5V10.5l7.5,7.5c0.3,0.3,0.7,0.4,1.1,0.4
	c0.8,0,1.5-0.7,1.5-1.5c0-0.4-0.2-0.7-0.4-1l-10-10c-0.6-0.6-1.5-0.6-2.1,0c0,0,0,0,0,0l-10,10c-0.6,0.6-0.5,1.6,0.1,2.1
	C12.5,18.5,13.4,18.5,14,17.9L14,17.9z"/>
<path class="st0" d="M18.3,32.8c0,1.2,2.1,2.2,4.6,2.2c2.6,0,4.6-1,4.6-2.2s-2-2.2-4.6-2.2S18.3,31.6,18.3,32.8z"/>
<path class="st0" d="M39.4,33.3c-0.8,0-1.5,0.7-1.5,1.5v3.4h-30v-3.4c0-0.8-0.7-1.5-1.5-1.5S4.9,34,4.9,34.8v4.9
	c0,0.8,0.7,1.5,1.5,1.5h33c0.8,0,1.5-0.7,1.5-1.5v-4.9C40.9,34,40.2,33.3,39.4,33.3z"/>
</svg>
