<?xml version="1.0" encoding="utf-8"?>
<!-- Generator: Adobe Illustrator 24.0.1, SVG Export Plug-In . SVG Version: 6.00 Build 0)  -->
<svg version="1.1" id="PICTOS_vectos" xmlns="http://www.w3.org/2000/svg" xmlns:xlink="http://www.w3.org/1999/xlink" x="0px"
	 y="0px" viewBox="0 0 46.2 46.2" style="enable-background:new 0 0 46.2 46.2;" xml:space="preserve">
<style type="text/css">
	.st0{fill:#25465F;}
</style>
<path class="st0" d="M43.4,37.7c-3-8-6.9-13.9-11.6-17.3c4.3-4.8,3.9-12.2-1-16.5S18.7,0,14.4,4.9c-4,4.4-4,11.1,0,15.6
	c-4.6,3.4-8.5,9.3-11.6,17.3c-0.2,0.4-0.1,0.9,0.1,1.3c0.3,0.6,3.7,6,20.2,6s19.9-5.4,20.2-6C43.5,38.6,43.6,38.2,43.4,37.7z
	 M23.1,4c4.8,0,8.7,3.9,8.7,8.7c0,4.8-3.9,8.7-8.7,8.7s-8.7-3.9-8.7-8.7c0,0,0,0,0,0C14.4,7.9,18.3,4,23.1,4z M23.1,42
	c-11.9,0-16-2.9-17.2-4c2.9-7.3,6.7-12.7,10.8-15.5c3.9,2.6,8.9,2.6,12.8,0c4.2,2.8,8,8.2,10.8,15.5C39.1,39.1,35,42,23.1,42
	L23.1,42z"/>
<path class="st0" d="M23.1,29.9c-2.6,0-4.6,1-4.7,2.2s2.1,2.2,4.7,2.2s4.6-1,4.6-2.2C27.7,31,25.7,29.9,23.1,29.9z"/>
</svg>
