<?xml version="1.0" encoding="utf-8"?>
<!-- Generator: Adobe Illustrator 24.0.1, SVG Export Plug-In . SVG Version: 6.00 Build 0)  -->
<svg version="1.1" id="PICTOS_vectos" xmlns="http://www.w3.org/2000/svg" xmlns:xlink="http://www.w3.org/1999/xlink" x="0px"
	 y="0px" viewBox="0 0 47.8 47.8" style="enable-background:new 0 0 47.8 47.8;" xml:space="preserve">
<style type="text/css">
	.st0{fill:#25465F;}
</style>
<path class="st0" d="M23.6,20.4c-1.4,0-2.4-0.6-2.3-2.1L18,18.9c0,2.6,1.8,4.1,5,4.1c3.8,0,6.3-2,6.9-5.4s-1.2-5.2-4.3-5.2
	c-1.1,0-2.1,0.3-3,0.9l0.9-3.1h6.9l0.5-2.9h-9.4L19,16l2.8,0.5c0.6-1,1.7-1.5,2.8-1.5c1.6,0,2.5,1,2.1,2.7
	C26.5,19.3,25.1,20.5,23.6,20.4z"/>
<path class="st0" d="M37.5,23c4.2,0,7-2,7.7-6.1l0.5-2.6h-6.9l-0.5,2.7h3.6c0.2,0,0.2,0.1,0.2,0.2v0.1c-0.3,1.8-1.7,2.8-3.9,2.8
	c-2.6,0-3.7-1.8-3.1-5.2s2.3-5.2,4.7-5.2c1.3-0.2,2.6,0.7,2.8,2.1c0,0.1,0,0.2,0,0.3l3.3-0.7c-0.2-3-2.3-4.5-5.6-4.5
	c-4.6,0-7.7,3.1-8.6,8C30.8,20.2,33,23,37.5,23z"/>
<path class="st0" d="M25.7,25.1h-4L12.9,35l-0.4,2.5h7.8l-0.5,3.1H23l0.5-3.1h1.9l0.5-2.6H24L25.7,25.1z M20.7,34.9h-4.6l5.8-6.5
	L20.7,34.9z"/>
<path class="st0" d="M35.1,27.7c1.3-0.2,2.6,0.7,2.8,2c0,0.1,0,0.2,0,0.4l3.3-0.7c-0.2-3-2.3-4.5-5.6-4.5c-4.6,0-7.7,3.1-8.6,8
	c-0.9,5.2,1.3,8,5.8,8c4.1,0,7-2,7.7-6.1l0.5-2.5h-6.9L33.6,35h3.6c0.2,0,0.2,0.1,0.2,0.2v0.1c-0.3,1.8-1.7,2.8-3.9,2.8
	c-2.6,0-3.7-1.8-3.1-5.2C31,29.4,32.6,27.7,35.1,27.7z"/>
<path class="st0" d="M6.7,20.2h8.4l0.7-2.5h-8c0,0-0.3,0-0.8,0.4c-0.4,0.4-0.7,0.9-0.7,1.5C6.3,20,6.4,20.2,6.7,20.2z"/>
<path class="st0" d="M14.4,22.7H3.5c0,0-0.4,0-0.8,0.5C2.3,23.6,2.1,24,2,24.6c0,0.3,0.1,0.6,0.4,0.6h11.3L14.4,22.7z"/>
<path class="st0" d="M7.2,27.6c0,0-0.3,0-0.8,0.4c-0.4,0.4-0.6,0.8-0.7,1.3c0,0.3,0,0.7,0.3,0.7h6.1l0.7-2.5H7.2z"/>
</svg>
