<?xml version="1.0" encoding="utf-8"?>
<!-- Generator: Adobe Illustrator 24.0.1, SVG Export Plug-In . SVG Version: 6.00 Build 0)  -->
<svg version="1.1" id="PICTOS_vectos" xmlns="http://www.w3.org/2000/svg" xmlns:xlink="http://www.w3.org/1999/xlink" x="0px"
	 y="0px" viewBox="0 0 54.1 54.1" style="enable-background:new 0 0 54.1 54.1;" xml:space="preserve">
<style type="text/css">
	.st0{fill:#25465F;}
</style>
<polygon class="st0" points="52.2,21.7 49.7,21.7 50.1,19.2 47.7,19.2 47.2,21.7 44.7,21.7 44.3,24.2 46.8,24.2 46.4,26.4 
	48.8,26.4 49.2,24.2 51.7,24.2 52.2,21.7 52.2,21.7 "/>
<path class="st0" d="M27.1,19.2h-4l-8.8,10l-0.4,2.5h7.9L21.1,35h3.2l0.5-3.1h1.9l0.5-2.7h-1.9L27.1,19.2z M22.1,29.1h-4.7l5.8-6.6
	L22.1,29.1z"/>
<path class="st0" d="M36.7,21.8c1.3-0.2,2.6,0.7,2.8,2.1c0,0.1,0,0.2,0,0.4l3.3-0.7c-0.2-3.1-2.3-4.6-5.6-4.6
	c-4.7,0-7.8,3.2-8.7,8.1c-0.9,5.3,1.3,8.1,5.9,8.1c4.2,0,7.1-2,7.8-6.2l0.5-2.6h-7l-0.5,2.8h3.6c0.2,0,0.2,0.1,0.2,0.2v0.1
	c-0.3,1.8-1.7,2.8-4,2.8c-2.7,0-3.7-1.8-3.1-5.3C32.5,23.5,34.2,21.8,36.7,21.8z"/>
<path class="st0" d="M3.5,24.3c0,0-0.5,0-1,0.7c-0.4,0.4-0.6,0.9-0.5,1.5c0,0.1,0.1,0.3,0.3,0.3h10.8l2.2-2.5H3.5z"/>
<path class="st0" d="M9.7,21.8h7.9l2.2-2.5h-8.9c0,0-0.4,0-1,0.7c-0.4,0.4-0.6,1-0.5,1.6C9.4,21.7,9.5,21.8,9.7,21.8z"/>
<path class="st0" d="M5.3,29.6c-0.4,0.4-0.7,1-0.8,1.6c0,0.5,0.3,0.6,0.3,0.6h6.5l0.4-2.5H6C5.7,29.3,5.5,29.4,5.3,29.6z"/>
</svg>
