<?xml version="1.0" encoding="utf-8"?>
<!-- Generator: Adobe Illustrator 24.0.1, SVG Export Plug-In . SVG Version: 6.00 Build 0)  -->
<svg version="1.1" id="PICTOS_vectos" xmlns="http://www.w3.org/2000/svg" xmlns:xlink="http://www.w3.org/1999/xlink" x="0px"
	 y="0px" viewBox="0 0 46.1 46.1" style="enable-background:new 0 0 46.1 46.1;" xml:space="preserve">
<style type="text/css">
	.st0{fill:#25465F;}
</style>
<path class="st0" d="M27.8,15.2h-4.1l-8.9,10.1l-0.4,2.5h7.9l-0.6,3.2h3.3l0.5-3.1h1.9l0.5-2.7h-1.9L27.8,15.2z M22.8,25.1h-4.7
	l5.9-6.6L22.8,25.1z"/>
<path class="st0" d="M35.9,25.2h3.6c0.2,0,0.2,0.1,0.2,0.2v0.1c-0.3,1.8-1.8,2.9-4,2.9c-2.7,0-3.8-1.8-3.1-5.3
	c0.6-3.6,2.3-5.2,4.8-5.2c1.3-0.2,2.6,0.7,2.8,2.1c0,0.1,0,0.3,0,0.4l3.3-0.7c-0.1-3.1-2.3-4.6-5.7-4.6c-4.7,0-7.8,3.2-8.7,8.1
	c-0.9,5.3,1.3,8.2,5.9,8.2c4.2,0,7.1-2.1,7.8-6.2l0.5-2.6h-7L35.9,25.2z"/>
<path class="st0" d="M4.1,20.2c0,0-0.5,0-1.1,0.8c-0.4,0.4-0.6,1-0.5,1.5c0,0.2,0.2,0.3,0.3,0.3h10.9l2.2-2.5H4.1z"/>
<path class="st0" d="M10.3,17.7h7.9l2.2-2.5h-9c0,0-0.4,0-1,0.7c-0.4,0.4-0.6,1-0.5,1.6C10,17.6,10.1,17.7,10.3,17.7z"/>
<path class="st0" d="M5.8,25.6c-0.4,0.4-0.7,1-0.8,1.6c0,0.5,0.3,0.6,0.3,0.6h6.5l0.4-2.5H6.6C6.3,25.3,6,25.4,5.8,25.6z"/>
</svg>
