<?xml version="1.0" encoding="utf-8"?>
<!-- Generator: Adobe Illustrator 24.0.1, SVG Export Plug-In . SVG Version: 6.00 Build 0)  -->
<svg version="1.1" id="PICTOS_vectos" xmlns="http://www.w3.org/2000/svg" xmlns:xlink="http://www.w3.org/1999/xlink" x="0px"
	 y="0px" viewBox="0 0 52.6 52.6" style="enable-background:new 0 0 52.6 52.6;" xml:space="preserve">
<style type="text/css">
	.st0{fill:#25465F;}
</style>
<polygon class="st0" points="50.6,29.9 48.1,29.9 48.6,27.4 46.2,27.4 45.7,29.9 43.2,29.9 42.8,32.4 45.3,32.4 44.9,34.5 
	47.3,34.5 47.7,32.4 50.2,32.4 50.6,29.9 50.6,29.9 "/>
<path class="st0" d="M25.7,27.4h-4L13,37.3l-0.4,2.5h7.8l-0.5,3.1H23l0.5-3.1h1.9l0.5-2.7H24L25.7,27.4z M20.8,37.2h-4.6l5.8-6.5
	L20.8,37.2z"/>
<path class="st0" d="M35.1,30c1.3-0.2,2.6,0.7,2.8,2c0,0.1,0,0.2,0,0.4l3.3-0.7c-0.2-3-2.3-4.6-5.6-4.6c-4.6,0-7.7,3.1-8.6,8
	c-0.9,5.2,1.3,8.1,5.8,8.1c4.2,0,7-2,7.7-6.1l0.4-2.6h-6.9l-0.4,2.7h3.6c0.2,0,0.2,0.1,0.2,0.2v0.1c-0.3,1.8-1.7,2.8-3.9,2.8
	c-2.6,0-3.7-1.8-3.1-5.2S32.7,30,35.1,30z"/>
<path class="st0" d="M6.7,22.5h8.4l0.7-2.5h-8c0,0-0.3,0-0.8,0.4c-0.4,0.4-0.6,0.9-0.7,1.5C6.3,22.3,6.4,22.5,6.7,22.5z"/>
<path class="st0" d="M14.4,25H3.5c0,0-0.4,0-0.9,0.5c-0.4,0.4-0.6,0.9-0.7,1.4c0,0.3,0.1,0.6,0.4,0.6h11.3L14.4,25z"/>
<path class="st0" d="M7.2,29.9c0,0-0.3,0-0.8,0.4c-0.4,0.4-0.6,0.8-0.8,1.3c0,0.3,0,0.7,0.3,0.7h6.1l0.7-2.5H7.2z"/>
<path class="st0" d="M30.9,9.5h-4l-8.8,9.9l-0.4,2.5h7.8L25,25h3.2l0.5-3.1h1.9l0.5-2.6h-1.9L30.9,9.5z M26,19.3h-4.6l5.8-6.5
	L26,19.3z"/>
<path class="st0" d="M40.3,12.1c1.3-0.2,2.6,0.7,2.8,2.1c0,0.1,0,0.2,0,0.3l3.3-0.7c-0.2-3-2.2-4.5-5.6-4.5c-4.6,0-7.7,3.1-8.6,8
	c-0.9,5.2,1.3,8.1,5.8,8.1c4.2,0,7-2,7.7-6.1l0.5-2.6h-6.9l-0.5,2.7h3.6c0.2,0,0.2,0.1,0.2,0.2v0.1c-0.3,1.8-1.7,2.8-3.9,2.8
	c-2.6,0-3.7-1.8-3.1-5.2S37.9,12.1,40.3,12.1z"/>
</svg>
