<?xml version="1.0" encoding="utf-8"?>
<!-- Generator: Adobe Illustrator 24.0.1, SVG Export Plug-In . SVG Version: 6.00 Build 0)  -->
<svg version="1.1" id="PICTOS_vectos" xmlns="http://www.w3.org/2000/svg" xmlns:xlink="http://www.w3.org/1999/xlink" x="0px"
	 y="0px" viewBox="0 0 46.1 46.1" style="enable-background:new 0 0 46.1 46.1;" xml:space="preserve">
<style type="text/css">
	.st0{fill:#25465F;}
</style>
<path class="st0" d="M16.5,24.4l2.8,0.5c0.6-1,1.7-1.6,2.8-1.5c1.6,0,2.5,1,2.1,2.8c-0.1,1.6-1.5,2.8-3.2,2.7
	c-1.4,0-2.4-0.6-2.3-2.1l-3.2,0.6c0,2.6,1.8,4.1,5.1,4.1c3.8,0,6.4-2.1,7-5.4s-1.2-5.3-4.4-5.3c-1.1,0-2.2,0.3-3.1,0.9l1-3.1h6.9
	l0.4-2.9H19L16.5,24.4z"/>
<path class="st0" d="M35.9,25.6h3.6c0.2,0,0.2,0.1,0.2,0.2v0.1c-0.3,1.8-1.7,2.8-3.9,2.8c-2.7,0-3.7-1.8-3.1-5.3s2.3-5.2,4.7-5.2
	c1.3-0.2,2.6,0.7,2.8,2.1c0,0.1,0,0.2,0,0.4l3.3-0.7c-0.2-3-2.3-4.6-5.6-4.6c-4.6,0-7.8,3.2-8.6,8.1c-0.9,5.2,1.3,8.1,5.8,8.1
	c4.2,0,7-2,7.8-6.1l0.5-2.6h-6.9L35.9,25.6z"/>
<path class="st0" d="M7.3,18.2h8.5l0.7-2.5H8.4c0,0-0.3,0-0.8,0.4C7.2,16.5,7,17,6.9,17.6C6.9,17.9,7,18.2,7.3,18.2z"/>
<path class="st0" d="M3.2,21.2c-0.4,0.4-0.6,0.9-0.7,1.4c0,0.3,0.1,0.6,0.4,0.6h11.4l0.7-2.5H4.1C4.1,20.7,3.7,20.6,3.2,21.2z"/>
<path class="st0" d="M7,26c-0.4,0.4-0.6,0.8-0.8,1.3c0,0.3,0,0.7,0.3,0.7h6.2l0.8-2.5H7.8C7.8,25.6,7.5,25.6,7,26z"/>
</svg>
