<svg id="PICTOS_vectos" xmlns="http://www.w3.org/2000/svg" viewBox="0 0 46 46"><defs><style>.cls-1{fill:#25465f;}</style></defs><path class="cls-1" d="M44.88,16.66l-21-15.14a1.5,1.5,0,0,0-1.76,0l-21,15.14a1.5,1.5,0,1,0,1.76,2.43L23,4.58,43.12,19.09a1.53,1.53,0,0,0,.88.28,1.5,1.5,0,0,0,.88-2.71Z"/><path class="cls-1" d="M14.35,35.65c1-.7.6-3-.86-5.14s-3.41-3.2-4.43-2.5-.64,3,.81,5.09S13.33,36.35,14.35,35.65Z"/><path class="cls-1" d="M40.12,32.68a1.5,1.5,0,0,0-1.5,1.5v2.73a4,4,0,0,0-.5,0H7.88a4,4,0,0,0-.5,0V26.26a1.5,1.5,0,0,0-3,0v13a1.55,1.55,0,0,0,.07.43,3,3,0,0,0-.07.67v2.9a1.5,1.5,0,0,0,3,0v-2.9a.51.51,0,0,1,.5-.5H38.12a.51.51,0,0,1,.5.5v2.9a1.5,1.5,0,0,0,3,0V34.18A1.5,1.5,0,0,0,40.12,32.68Z"/></svg>