<?xml version="1.0" encoding="utf-8"?>
<!-- Generator: Adobe Illustrator 24.0.1, SVG Export Plug-In . SVG Version: 6.00 Build 0)  -->
<svg version="1.1" id="PICTOS_vectos" xmlns="http://www.w3.org/2000/svg" xmlns:xlink="http://www.w3.org/1999/xlink" x="0px"
	 y="0px" viewBox="0 0 46.2 46.2" style="enable-background:new 0 0 46.2 46.2;" xml:space="preserve">
<style type="text/css">
	.st0{fill:#25465F;}
</style>
<path class="st0" d="M43.5,37.8c-3-8-6.9-13.9-11.6-17.3c4.3-4.8,3.9-12.2-1-16.5s-12.2-3.9-16.5,1c-4,4.4-4,11.1,0,15.6
	c-4.6,3.4-8.5,9.3-11.6,17.3c-0.1,0.4-0.1,0.8,0.1,1.2c0.3,0.6,3.7,6,20.2,6s19.9-5.4,20.2-6C43.6,38.6,43.6,38.2,43.5,37.8z
	 M23.2,4.1c4.8,0,8.7,3.9,8.7,8.7c0,4.8-3.9,8.7-8.7,8.7s-8.7-3.9-8.7-8.7c0,0,0,0,0,0C14.5,8,18.4,4.1,23.2,4.1z M23.2,42.1
	c-11.9,0-16-2.9-17.2-4c2.9-7.3,6.7-12.7,10.8-15.5c3.9,2.6,8.9,2.6,12.8,0c4.2,2.8,8,8.2,10.8,15.5C39.2,39.2,35,42.1,23.2,42.1
	L23.2,42.1z"/>
<path class="st0" d="M27.8,28.5c0-1.2-2.1-2.2-4.6-2.3s-4.6,1-4.7,2.2s2.1,2.2,4.7,2.2S27.8,29.7,27.8,28.5z"/>
<path class="st0" d="M25.2,32.8c-1.5,2.1-1.8,4.3-0.8,5s3-0.4,4.5-2.5s1.8-4.4,0.8-5.1S26.7,30.7,25.2,32.8z"/>
<path class="st0" d="M16.6,30.2c-1,0.7-0.6,3,0.8,5.1s3.5,3.2,4.5,2.5s0.6-3-0.9-5.1S17.6,29.5,16.6,30.2z"/>
</svg>
