<?xml version="1.0" encoding="utf-8"?>
<!-- Generator: Adobe Illustrator 24.0.1, SVG Export Plug-In . SVG Version: 6.00 Build 0)  -->
<svg version="1.1" id="PICTOS_vectos" xmlns="http://www.w3.org/2000/svg" xmlns:xlink="http://www.w3.org/1999/xlink" x="0px"
	 y="0px" viewBox="0 0 46 46" style="enable-background:new 0 0 46 46;" xml:space="preserve">
<style type="text/css">
	.st0{fill:#25465F;}
</style>
<path class="st0" d="M37.3,26.9c0.5-0.9,1.1-1.7,1.8-2.4c0.3-0.3,0.7-0.7,1-1.1l1.8-1.7l0.6-0.6c1-0.8,1.5-2.2,1.3-3.5
	c-0.3-1-1-1.8-2-2.2c-0.4-0.2-0.9-0.3-1.4-0.3h-1.6l-2.8-7.8c-0.6-1.5-2-2.6-3.6-2.7c-0.5-0.1-1.1-0.2-1.7-0.3l-0.8-0.2
	c-1.3-0.3-2.6-0.5-3.9-0.6c-0.5,0-1,0-1.4,0.1l-0.7,0.2c-0.6,0.1-1.2,0.2-1.9,0.2c0,0-0.2,0-0.7-0.7c-0.3-0.7-0.8-1.3-1.3-1.8
	c-1.3-1.3-2.5-1-5.3-0.3L14,1.5c-0.6,0.2-1.2,0.3-1.9,0.3c-3.1,0-6.3,2.1-6.3,5.2c0,0,0,0.1-0.2,0.4S4,8.8,3.4,9.4l-0.9,0.8
	c-0.9,1-1.4,2.3-1.4,3.7c0.2,3,1.4,5.9,3.6,8c2.2,2.2,5.2,2.7,8.3,1.4c1.3-0.5,1.3-0.6,2,0.1c0.3,0.3,0.5,0.7,0.7,1.1
	c0.3,0.7,0.4,0.8,0.5,1.1c0.4,0.7,0.8,1.3,1.4,1.9c0,0,0.4,0.6,0.3,3.3c0,0.5,0,1-0.1,1.8c-0.1,1.5-0.1,1.8-0.1,2.3
	c0,2.9,2,6.2,4,8.2c0.6,0.7,1.5,1.3,2.5,1.5c0.2,0,0.4,0.1,0.6,0.1c0.6,0,1.1-0.1,1.6-0.4l0.9-0.4l0.8-0.4c1.8-0.8,2.8-2.2,4.6-5.2
	l0.2-0.4c0.6-1,1.2-1.9,2-2.8c1.1-1.2,1.9-2.6,2.1-4.2c0.2-1.2,0.3-2.3,0.2-3.5C37.3,27.2,37.3,27,37.3,26.9z M36.9,22.5
	c-2.3,2.5-2.6,3.7-2.6,4.4c0,0.2,0,0.3,0,0.8c0.1,1,0,1.9-0.1,2.9c-0.2,1-0.6,1.9-1.3,2.6c-0.9,1-1.7,2.1-2.4,3.3l-0.2,0.4
	c-1.7,2.8-2.4,3.6-3.3,4L26,41.2l-0.8,0.3c-0.4,0.2-0.5,0.2-0.5,0.1c-0.3-0.2-0.7-0.4-0.9-0.7c-1.8-1.8-3.1-4.4-3.1-6.1
	c0-0.5,0-0.7,0.1-2.1c0-0.8,0.1-1.4,0.1-1.9c0.1-2.9-0.3-4.6-1.1-5.4c-0.4-0.4-0.7-0.8-0.9-1.2c-0.1-0.3-0.2-0.3-0.4-0.9
	c-0.3-0.7-0.7-1.4-1.3-2c-0.7-0.8-1.7-1.4-2.8-1.4c-0.8,0-1.7,0.3-2.4,0.6c-2,0.9-3.7,0.6-5.1-0.7c-1.6-1.6-2.5-3.7-2.7-5.9
	c0-0.6,0.1-1.1,0.5-1.6l0.8-0.7c1.5-1.4,2.2-2.1,2.5-2.5c0.5-0.6,0.9-1.4,0.9-2.2c0-1.1,1.7-2.1,3.3-2.1c0.9,0,1.7-0.2,2.6-0.4
	l0.5-0.1C16,4,16.8,3.9,17.7,3.8c0.2,0.2,0.8,1,0.9,1.3c0,0,0,0.1,0,0.1c0.7,1.1,1.9,1.9,3.2,2c0.8,0,1.6-0.1,2.4-0.2l0.6-0.1
	c0.3-0.1,0.7-0.1,1-0.1l0,0C26.9,6.8,28,7,29.1,7.2L30,7.4c0.8,0.1,1.4,0.2,1.9,0.3c0.5,0,0.9,0.3,1.1,0.7l3,8.2
	c0.3,0.9,1.2,1.5,2.2,1.4h1.9c0.2,0,0.3,0.1,0.5,0.1l0.2,0.1c-0.1,0.2-0.3,0.4-0.5,0.6l-0.6,0.6c-0.6,0.6-1.5,1.4-1.8,1.8
	S37.2,22,36.9,22.5L36.9,22.5z"/>
<path class="st0" d="M42.5,29.1c-1.2-0.4-2.7,1.4-3.5,3.8c-0.7,2.5-0.4,4.7,0.8,5.1s2.7-1.4,3.5-3.9S43.7,29.4,42.5,29.1z"/>
</svg>
