<svg id="PICTOS_vectos" xmlns="http://www.w3.org/2000/svg" viewBox="0 0 46 46"><defs><style>.cls-1{fill:#25465f;}</style></defs><path class="cls-1" d="M42.66,3A5.45,5.45,0,0,0,38.6,1.24c-3.25.07-6.1,3.15-8.39,5.62-.47.52-.92,1-1.34,1.42l-.78.79-2.24,2.47-21.69-2a2.32,2.32,0,0,0-2.47,1.55,2.6,2.6,0,0,0,1.1,3l4.58,3c-1.35,1.77-1.78,3.57-1,4.41s3.25.23,5.29-1.61l4.15,2.68L7.11,32.18l-2.2-.72a2.3,2.3,0,0,0-2.78.91,2.72,2.72,0,0,0,.57,3.3L10,43a2.72,2.72,0,0,0,3.3.57,2.32,2.32,0,0,0,.91-2.77l-.72-2.2,9.77-8.89,3.15,4.87c-1.89,2-2.62,4.28-1.66,5.25s2.65.4,4.45-.92l3,4.6a2.65,2.65,0,0,0,2.21,1.24,2.56,2.56,0,0,0,.81-.14,2.33,2.33,0,0,0,1.56-2.46L34.67,19.37l2-1.82.73-.73c.42-.42.91-.87,1.42-1.35,2.48-2.29,5.56-5.13,5.62-8.38A5.5,5.5,0,0,0,42.66,3ZM36.79,13.27c-.55.5-1.07,1-1.51,1.42l-3.18,3a1.51,1.51,0,0,0-.48,1.25l2,21.22L24.86,26.6a1.51,1.51,0,0,0-1.07-.67H23.6a1.47,1.47,0,0,0-1,.39L10.8,37a1.51,1.51,0,0,0-.42,1.58l.24.72L6.38,35.1l.73.23a1.5,1.5,0,0,0,1.57-.42L19.27,23.25A1.49,1.49,0,0,0,19.65,22,1.52,1.52,0,0,0,19,21L6.19,12.73l20.12,1.86a1.46,1.46,0,0,0,1.25-.48l2.7-3L31,10.4c.44-.44.92-1,1.43-1.5,1.8-1.95,4.26-4.62,6.24-4.66a2.61,2.61,0,0,1,1.88.9A2.47,2.47,0,0,1,41.44,7C41.4,9,38.74,11.47,36.79,13.27Z"/></svg>