<svg id="PICTOS_vectos" xmlns="http://www.w3.org/2000/svg" viewBox="0 0 46 46"><defs><style>.cls-1{fill:#25465f;}</style></defs><path class="cls-1" d="M23,30.28c-2.56,0-4.65,1-4.65,2.2s2.13,2.23,4.7,2.25,4.58-1,4.58-2.19S25.58,30.3,23,30.28Z"/><path class="cls-1" d="M45,19.14A.76.76,0,0,0,45,19a.94.94,0,0,0,0-.16s0,0,0-.07l-5-15.23a1.52,1.52,0,0,0-1.43-1H7.5a1.5,1.5,0,0,0-1.42,1l-5,15.23s0,0,0,.07A.94.94,0,0,0,1,19c0,.05,0,.1,0,.15s0,.06,0,.08V39a4.51,4.51,0,0,0,4.5,4.5h35A4.51,4.51,0,0,0,45,39V19.22S45,19.17,45,19.14ZM8.59,5.5H37.41l4,12.22H34.74A4.47,4.47,0,0,0,31.56,19l-2.24,2.25a1.51,1.51,0,0,1-1.06.43H17.74a1.47,1.47,0,0,1-1.06-.44L14.44,19a4.47,4.47,0,0,0-3.18-1.32H4.57ZM42,39a1.5,1.5,0,0,1-1.5,1.5H5.5A1.5,1.5,0,0,1,4,39V20.72h7.26a1.52,1.52,0,0,1,1.06.44l2.24,2.24a4.43,4.43,0,0,0,3.18,1.32H28.26a4.46,4.46,0,0,0,3.18-1.31l2.24-2.25a1.52,1.52,0,0,1,1.06-.44H42Z"/><path class="cls-1" d="M9.74,15.89H36.26a1.5,1.5,0,0,0,0-3H9.74a1.5,1.5,0,0,0,0,3Z"/><path class="cls-1" d="M11.74,10.89H34.26a1.5,1.5,0,0,0,0-3H11.74a1.5,1.5,0,0,0,0,3Z"/></svg>