<?xml version="1.0" encoding="utf-8"?>
<!-- Generator: Adobe Illustrator 24.0.1, SVG Export Plug-In . SVG Version: 6.00 Build 0)  -->
<svg version="1.1" id="PICTOS_vectos" xmlns="http://www.w3.org/2000/svg" xmlns:xlink="http://www.w3.org/1999/xlink" x="0px"
	 y="0px" viewBox="0 0 46 46" style="enable-background:new 0 0 46 46;" xml:space="preserve">
<style type="text/css">
	.st0{fill:#25465F;}
</style>
<path class="st0" d="M40.5,23.4L40.5,23.4v-4.3c1.1-0.7,1.7-1.8,1.7-3.1V7.9c0-1.3-0.7-2.5-1.8-3.1V2.5C40.5,1.7,39.9,1,39,1
	s-1.5,0.7-1.5,1.5v1.7h-29V2.5C8.5,1.7,7.9,1,7,1S5.5,1.7,5.5,2.5v2.3C4.5,5.5,3.8,6.6,3.8,7.9V16c0,1.2,0.6,2.4,1.7,3.1v4.4H5.4
	c-2,0-3.7,1.6-3.7,3.7v1c0,2,1.7,3.7,3.7,3.7h0h1.4L19,36.9L6.5,42.1c-0.8,0.3-1.2,1.1-0.9,1.9c0.2,0.6,0.8,1,1.5,1
	c0.2,0,0.4,0,0.6-0.1L23,38.5l15.4,6.3c0.2,0.1,0.4,0.1,0.6,0.1c0.8,0,1.5-0.7,1.5-1.5c0-0.6-0.4-1.2-0.9-1.4l-12.6-5.2l12.3-5h1.3
	c2,0,3.7-1.7,3.7-3.7c0,0,0,0,0,0v-1C44.2,25.1,42.6,23.4,40.5,23.4z M7.5,16.7L7.5,16.7H7.3C7,16.5,6.8,16.3,6.8,16V7.9
	c0-0.3,0.2-0.5,0.5-0.7l0,0c0.1,0,0.1,0,0.2,0h31.1l0.3,0.1c0.3,0.1,0.4,0.4,0.4,0.6v8c0,0.3-0.2,0.5-0.4,0.6c-0.1,0-0.2,0-0.3,0.1
	L7.5,16.7z M8.5,19.7h29v3.8h-29V19.7z M23,35.3l-8.3-3.4h16.6L23,35.3z M41.2,28.2c0,0.4-0.3,0.7-0.7,0.7l0,0H5.4
	c-0.4,0-0.7-0.3-0.7-0.7l0,0v-1c0-0.4,0.3-0.7,0.7-0.7c0,0,0,0,0,0h1.2c0.1,0,0.2,0,0.3,0c0.1,0,0.2,0,0.3,0h31.4
	c0.2,0.1,0.4,0.1,0.7,0h1.1c0.4,0,0.7,0.3,0.7,0.7c0,0,0,0,0,0V28.2z"/>
<path class="st0" d="M23,9.6c-2.6,0-4.6,1-4.6,2.2S20.5,14,23,14s4.6-1,4.6-2.2S25.6,9.6,23,9.6z"/>
</svg>
