<?xml version="1.0" encoding="utf-8"?>
<!-- Generator: Adobe Illustrator 24.0.1, SVG Export Plug-In . SVG Version: 6.00 Build 0)  -->
<svg version="1.1" id="PICTOS_vectos" xmlns="http://www.w3.org/2000/svg" xmlns:xlink="http://www.w3.org/1999/xlink" x="0px"
	 y="0px" viewBox="0 0 46.1 46.1" style="enable-background:new 0 0 46.1 46.1;" xml:space="preserve">
<style type="text/css">
	.st0{fill:#25465F;}
</style>
<path class="st0" d="M4.4,32.3c-0.9,0.9-0.1,3.1,1.7,4.9s3.9,2.6,4.8,1.7s0.1-3-1.7-4.9S5.3,31.5,4.4,32.3z"/>
<path class="st0" d="M43.5,28.4l-3.7-8C39.7,9.3,31.5,1,20.7,1C10.6,1,4,5.5,2.1,13.7C1.9,14.5,2,15.3,2.5,16c1,1.4,3.2,1.5,6.3,1.6
	c3.9,0.1,9,0.3,11.8,3.2L10.1,31.2c-0.6,0.6-0.6,1.5,0,2.1c0,0,0,0,0,0c0.6,0.6,1.5,0.6,2.1,0L23.6,22l0,0c0.1-0.1,0.2-0.3,0.3-0.5
	l0,0C24,21.3,24,21.2,24,21l0,0c0-0.2,0-0.4-0.1-0.5l0,0c0-0.1-0.1-0.2-0.1-0.2c-3.4-5.2-10.3-5.4-14.9-5.6c-1.3,0-2.5-0.1-3.8-0.3
	C7.2,5.8,14.7,4,20.7,4c9.2,0,16.2,7.2,16.2,16.8l0,0c0,0.1,0,0.1,0,0.2s0,0.1,0,0.1c0,0,0,0.1,0,0.1c0,0.1,0,0.1,0,0.2l0,0L40,28
	l-2.3,0.5c-0.7,0.2-1.2,0.8-1.2,1.5c0,0.1,0,0.2,0,0.3v9.5c0.1,0.6-0.1,1.1-0.4,1.6C35.6,42,34,42,32.3,42h-4.6
	c-0.8,0-1.5,0.7-1.5,1.5s0.7,1.5,1.5,1.5h5.2c2.1,0,4-0.1,5.3-1.4c0.9-1,1.4-2.4,1.3-3.7v-8.7l3-0.6c0.8-0.2,1.3-0.9,1.2-1.7
	C43.7,28.7,43.6,28.6,43.5,28.4L43.5,28.4z"/>
<path class="st0" d="M7.6,27.4c0.2-0.2,0.4-0.4,0.5-0.7h3.5c0.4,0,0.8-0.2,1.1-0.4l3.4-3.5c0.5-0.7,0.4-1.6-0.3-2.1
	c-0.5-0.4-1.2-0.4-1.8,0l-3,3H8.1c-0.1-0.2-0.3-0.5-0.5-0.7c-1.2-1.2-3.2-1.2-4.4,0s-1.2,3.2,0,4.4S6.4,28.6,7.6,27.4
	C7.6,27.4,7.6,27.4,7.6,27.4L7.6,27.4z"/>
<path class="st0" d="M20,35.5c-0.1-0.1-0.3-0.3-0.5-0.4v-4.2c0-0.8-0.7-1.5-1.5-1.5s-1.5,0.7-1.5,1.5v3.9c-0.3,0.1-0.6,0.4-0.9,0.6
	c-1.2,1.2-1.3,3.1-0.1,4.4c1.2,1.2,3.1,1.3,4.4,0.1c0,0,0.1-0.1,0.1-0.1c1.2-1,1.4-2.7,0.4-3.9C20.3,35.8,20.2,35.6,20,35.5z"/>
</svg>
