<?xml version="1.0" encoding="utf-8"?>
<!-- Generator: Adobe Illustrator 24.0.1, SVG Export Plug-In . SVG Version: 6.00 Build 0)  -->
<svg version="1.1" id="PICTOS_vectos" xmlns="http://www.w3.org/2000/svg" xmlns:xlink="http://www.w3.org/1999/xlink" x="0px"
	 y="0px" viewBox="0 0 46.1 46.1" style="enable-background:new 0 0 46.1 46.1;" xml:space="preserve">
<style type="text/css">
	.st0{fill:#25465F;}
</style>
<path class="st0" d="M43.1,5.9C39.5,0.7,32.4-0.6,27.3,3c-3.1,2.2-4.9,5.8-4.9,9.5c-1.5-0.4-3.1-0.5-4.7-0.5C7.6,12,1,18.7,1,28.7
	C1,39.1,7.6,45,17.6,45c3.1,0,6.2-0.7,9-2.2l-1.3-3c-2.4,1.1-5,1.7-7.6,1.8c-8.1,0-13-4.8-13-12.9c0-8.4,4.9-13.4,13.1-13.4
	c1.8,0,3.6,0.3,5.3,0.9c1.1,3,3.4,5.5,6.4,6.7c0.5,1.5,0.7,3,0.7,4.5c0,4.2-1.4,6.7-3.8,6.7c-0.7,0.1-1.4-0.4-1.5-1.1
	c0-0.1,0-0.2,0-0.3V20.1h-4.6v1.9c-0.9-1.5-2.5-2.4-4.3-2.3c-4.4,0-6.9,3.3-6.9,8.9s2.6,9.2,6.8,9.2c2,0.1,3.8-1.1,4.7-2.8
	c0.6,1.9,2.3,2.8,5,2.8c4.9,0,8.1-3.9,8.1-10.4c0-1.1-0.1-2.3-0.3-3.4h0.4c5.5,0,10.2-4,11.2-9.4C45.5,11.4,44.9,8.3,43.1,5.9z
	 M20.4,29.5c0,2.9-1.2,4.6-3.3,4.6c-2.3,0-3.3-2.1-3.3-5.8c0-3.2,1-5.1,3.3-5.1c2.1,0,3.3,1.6,3.3,4.3V29.5z M42.1,13.9
	c-0.8,4.6-5.2,7.6-9.7,6.8s-7.6-5.2-6.8-9.7c0.7-4,4.2-7,8.3-7c0.5,0,1,0,1.5,0.1C39.8,4.9,42.9,9.3,42.1,13.9
	C42.1,13.9,42.1,13.9,42.1,13.9z"/>
<path class="st0" d="M39.6,10.9h-1.1c-0.1-0.3-0.2-0.5-0.3-0.7L39,9.4c0.6-0.6,0.6-1.5,0.1-2.1c-0.6-0.6-1.5-0.6-2.1-0.1
	c0,0-0.1,0-0.1,0.1L36,8.1c-0.2-0.1-0.4-0.2-0.7-0.3V6.6c0-0.8-0.7-1.5-1.5-1.5s-1.5,0.7-1.5,1.5v1.3c-0.2,0.1-0.4,0.2-0.6,0.3
	l-0.9-0.9c-0.6-0.6-1.5-0.6-2.1-0.1c-0.6,0.6-0.6,1.5-0.1,2.1c0,0,0,0.1,0.1,0.1l0.9,0.9c-0.1,0.2-0.2,0.4-0.3,0.7H28
	c-0.8,0-1.5,0.7-1.5,1.5s0.7,1.5,1.5,1.5h1.1c0.1,0.3,0.2,0.5,0.3,0.8l-0.8,0.8c-0.6,0.6-0.6,1.5,0,2.1c0.3,0.3,0.6,0.4,1,0.4
	c0.4,0,0.8-0.2,1.1-0.4l0.7-0.7c0.3,0.1,0.5,0.3,0.8,0.4v1c0,0.8,0.7,1.5,1.5,1.5s1.5-0.7,1.5-1.5v-1c0.3-0.1,0.6-0.2,0.9-0.4
	l0.7,0.7c0.3,0.3,0.7,0.5,1.1,0.5c0.4,0,0.8-0.1,1.1-0.4c0.6-0.6,0.6-1.5,0-2.1c0,0,0,0,0,0l-0.7-0.7c0.1-0.3,0.2-0.5,0.3-0.8h1
	c0.8,0,1.5-0.7,1.5-1.5S40.4,10.9,39.6,10.9z M35,14.1c-0.4,0.3-0.9,0.4-1.4,0.3c-1-0.2-1.7-1.2-1.6-2.2c0,0,0,0,0,0
	c0.2-1.1,1.2-1.8,2.2-1.6c1.1,0.2,1.8,1.2,1.6,2.2C35.7,13.4,35.4,13.8,35,14.1L35,14.1z"/>
</svg>
