<?xml version="1.0" encoding="utf-8"?>
<!-- Generator: Adobe Illustrator 24.0.1, SVG Export Plug-In . SVG Version: 6.00 Build 0)  -->
<svg version="1.1" id="PICTOS_vectos" xmlns="http://www.w3.org/2000/svg" xmlns:xlink="http://www.w3.org/1999/xlink" x="0px"
	 y="0px" viewBox="0 0 46.1 46.1" style="enable-background:new 0 0 46.1 46.1;" xml:space="preserve">
<style type="text/css">
	.st0{fill:#25465F;}
</style>
<path class="st0" d="M45.2,12.4C45,6.1,39.8,1.1,33.5,1.3c-6,0.2-10.9,5-11.1,11.1c0,0.1,0,0.1,0,0.2c-1.5-0.4-3.1-0.5-4.7-0.5
	C7.7,12,1,18.7,1,28.7C1,39.1,7.6,45,17.6,45c3.1,0,6.2-0.7,9-2.2l-1.3-3c-2.4,1.2-5,1.8-7.6,1.8c-8.1,0-13-4.8-13-12.9
	c0-8.4,4.9-13.4,13.1-13.4c1.8,0,3.6,0.3,5.3,0.9c1.1,3,3.4,5.5,6.4,6.7c0.5,1.5,0.7,3,0.7,4.5c0,4.2-1.4,6.8-3.8,6.8
	c-0.7,0.1-1.4-0.4-1.5-1.1c0-0.1,0-0.2,0-0.3V20.1h-4.6V22c-0.9-1.5-2.5-2.4-4.3-2.3c-4.4,0-6.9,3.3-6.9,8.9s2.6,9.2,6.8,9.2
	c2,0.1,3.8-1.1,4.7-2.8c0.6,1.9,2.3,2.8,5,2.8c4.9,0,8.1-3.9,8.1-10.4c0-1.1-0.1-2.3-0.3-3.4h0.3C40.1,23.8,45.2,18.7,45.2,12.4z
	 M20.4,29.5c0,2.9-1.2,4.6-3.3,4.6c-2.3,0-3.3-2.1-3.3-5.8c0-3.2,1-5.1,3.3-5.1c2.1,0,3.3,1.6,3.3,4.3V29.5z M25.4,12.4
	c0-4.6,3.8-8.4,8.4-8.4s8.4,3.8,8.4,8.4s-3.8,8.4-8.4,8.4l0,0C29.2,20.8,25.4,17.1,25.4,12.4L25.4,12.4L25.4,12.4z"/>
<path class="st0" d="M40,7.8c-0.6-0.6-1.5-0.6-2.1,0l0,0l-6,6l-2.3-2.3c-0.6-0.6-1.5-0.6-2.1,0s-0.6,1.5,0,2.1l0,0l3.4,3.3
	c0.3,0.3,0.7,0.4,1.1,0.4c0.4,0,0.8-0.2,1.1-0.4l7-7C40.6,9.4,40.6,8.5,40,7.8C40.1,7.9,40,7.8,40,7.8z"/>
</svg>
