<?xml version="1.0" encoding="utf-8"?>
<!-- Generator: Adobe Illustrator 24.0.1, SVG Export Plug-In . SVG Version: 6.00 Build 0)  -->
<svg version="1.1" id="PICTOS_vectos" xmlns="http://www.w3.org/2000/svg" xmlns:xlink="http://www.w3.org/1999/xlink" x="0px"
	 y="0px" viewBox="0 0 46.1 46.1" style="enable-background:new 0 0 46.1 46.1;" xml:space="preserve">
<style type="text/css">
	.st0{fill:#25465F;}
</style>
<path class="st0" d="M44.9,13c0-1.4-0.2-2.7-0.7-4c0-0.1-0.1-0.3-0.2-0.4C42.3,4.2,38,1.2,33.2,1c-0.2-0.1-0.4-0.1-0.7,0
	c-4.8,0.1-9.1,3.1-10.8,7.6c-0.1,0.1-0.1,0.2-0.1,0.3c-0.4,1.1-0.6,2.3-0.7,3.4c-1.1-0.2-2.1-0.2-3.2-0.2C7.7,12.1,1,18.7,1,28.8
	c0,10.4,6.6,16.3,16.6,16.3c3.1,0,6.2-0.7,8.9-2.2l-1.3-3c-2.4,1.2-5,1.8-7.6,1.8c-8.1,0-13-4.8-13-12.9c0-8.4,4.9-13.4,13.1-13.4
	c7.8,0,12.4,4.5,12.4,12.1c0,4.2-1.4,6.7-3.8,6.7c-0.7,0.1-1.4-0.4-1.5-1.1c0-0.1,0-0.2,0-0.3V20.1h-4.5V22
	c-0.9-1.5-2.5-2.4-4.3-2.3c-4.4,0-6.9,3.3-6.9,8.9c0,5.7,2.6,9.2,6.8,9.2c2,0.1,3.8-1.1,4.7-2.8c0.6,1.9,2.3,2.8,5,2.8
	c4.9,0,8.1-3.9,8.1-10.4c0-0.8-0.1-1.5-0.1-2.3C40,24.6,44.9,19.3,44.9,13z M20.4,29.6c0,2.9-1.2,4.6-3.3,4.6
	c-2.3,0-3.4-2.2-3.4-5.8c0-3.2,1-5.1,3.4-5.1c2.1,0,3.3,1.6,3.3,4.3V29.6z M29.3,12.9c0-0.7,0-1.4,0.1-2h2v4.9h-1.8
	C29.4,14.8,29.3,13.8,29.3,12.9z M34.4,5.1c0.6,0.8,1,1.7,1.3,2.7h-1.3L34.4,5.1z M31.4,7.8H30c0.3-1,0.7-2,1.4-2.8L31.4,7.8z
	 M34.4,21v-2.3h1.2c-0.1,0.3-0.2,0.7-0.4,1C34.9,20.2,34.7,20.6,34.4,21L34.4,21z M34.4,15.7v-4.9h2c0.1,0.7,0.1,1.5,0.1,2.2
	c0,0.9-0.1,1.8-0.2,2.8L34.4,15.7z M39.4,10.8h2.2c0.4,1.6,0.4,3.3-0.1,4.9h-2.2c0.1-0.9,0.2-1.8,0.2-2.7
	C39.5,12.2,39.4,11.5,39.4,10.8L39.4,10.8z M40.2,7.8h-1.4c-0.2-0.7-0.4-1.4-0.7-2.1C38.9,6.3,39.6,7,40.2,7.8L40.2,7.8z M27.5,5.8
	c-0.3,0.7-0.5,1.3-0.6,2h-1.4C26.1,7,26.7,6.4,27.5,5.8L27.5,5.8z M23.9,12.7c0-0.6,0.1-1.3,0.3-1.9h2.2c-0.1,0.7-0.1,1.4-0.1,2.1
	c0,0.4,0,0.8,0,1.2c-0.8-0.4-1.6-0.8-2.4-1.1C23.9,12.9,23.9,12.8,23.9,12.7z M38.2,20.2c0.2-0.5,0.3-1,0.5-1.5h1.1
	C39.3,19.3,38.8,19.8,38.2,20.2z"/>
</svg>
