<?xml version="1.0" encoding="utf-8"?>
<!-- Generator: Adobe Illustrator 24.0.1, SVG Export Plug-In . SVG Version: 6.00 Build 0)  -->
<svg version="1.1" id="PICTOS_vectos" xmlns="http://www.w3.org/2000/svg" xmlns:xlink="http://www.w3.org/1999/xlink" x="0px"
	 y="0px" viewBox="0 0 49.5 49.5" style="enable-background:new 0 0 49.5 49.5;" xml:space="preserve">
<style type="text/css">
	.st0{fill:#25465F;}
</style>
<path class="st0" d="M42.1,7c-1,0-2,0.2-2.9,0.7c-0.8,0.3-1.1,1.2-0.8,2c0.3,0.8,1.2,1.1,2,0.8c0,0,0.1,0,0.1-0.1
	c0.5-0.2,1-0.4,1.6-0.4c1.9,0,3.4,1.5,3.4,3.4c-0.1,1.9-1.7,3.3-3.5,3.2c-1.3-0.1-2.5-0.9-3-2.1c-0.2-0.5-0.3-0.9-0.4-1.4l-0.1-0.5
	c-0.1-0.6-0.3-1.1-0.5-1.7c-1-2.9-4-4.5-7-3.9c-3,0.4-5.3,3-5.3,6.1l0,0c-1.5-0.7-3.2-1.2-4.9-1.4h0c-0.5-0.1-1-0.1-1.4-0.2
	s-0.8,0-1.3-0.1h-0.4C7.7,11.5,1,18.2,1,28.2c0,10.4,6.6,16.3,16.6,16.3l0,0c3.1,0,6.2-0.7,8.9-2.2l-1.2-3l0,0
	c-2.4,1.1-4.9,1.7-7.6,1.8c-8.1,0-13-4.8-13-12.9c0-8.4,4.9-13.4,13.1-13.4c0.6,0,1.2,0.1,1.8,0.2h0.3c1.7,0.2,3.4,0.7,4.9,1.6l0,0
	c1.6,0.9,2.9,2.3,3.8,3.9l0,0c1,2,1.5,4.2,1.4,6.5c0,4.2-1.4,6.7-3.8,6.7c-0.7,0.1-1.4-0.4-1.5-1.1c0-0.1,0-0.2,0-0.3V19.6h-4.5v1.8
	c-0.9-1.5-2.5-2.3-4.2-2.3l0,0c-4.4,0-6.9,3.3-6.9,8.9s2.6,9.2,6.8,9.2l0,0c2,0.1,3.8-1,4.6-2.8c0.6,1.9,2.3,2.8,5,2.8l0,0
	c4.9,0,8.1-3.9,8.1-10.4c0-2.5-0.5-4.9-1.6-7.1c1,0,1.9-0.2,2.8-0.6c0.7-0.4,1.1-1.3,0.7-2s-1.3-1.1-2-0.7c-0.5,0.2-1,0.4-1.6,0.4
	c-1.9,0-3.4-1.5-3.4-3.4c0-1.6,1.2-2.9,2.8-3.1c1.5-0.4,3.1,0.5,3.7,1.9c0.2,0.5,0.3,0.9,0.4,1.4l0.1,0.5c0.1,0.6,0.3,1.1,0.5,1.7
	c0.9,2.4,3.2,4.1,5.8,4c0.4,0,0.8,0,1.2-0.1c3-0.4,5.3-3,5.2-6.1C48.5,9.9,45.7,7,42.1,7C42.1,7,42.1,7,42.1,7z M13.9,27.8
	c0-3.2,1-5.1,3.3-5.1c2.1,0,3.2,1.6,3.2,4.3V29c0,2.9-1.2,4.6-3.2,4.6C14.9,33.6,13.9,31.4,13.9,27.8z"/>
</svg>
