<?xml version="1.0" encoding="utf-8"?>
<!-- Generator: Adobe Illustrator 24.0.1, SVG Export Plug-In . SVG Version: 6.00 Build 0)  -->
<svg version="1.1" id="PICTOS_vectos" xmlns="http://www.w3.org/2000/svg" xmlns:xlink="http://www.w3.org/1999/xlink" x="0px"
	 y="0px" viewBox="0 0 46.1 46.1" style="enable-background:new 0 0 46.1 46.1;" xml:space="preserve">
<style type="text/css">
	.st0{fill:#25465F;}
</style>
<path class="st0" d="M44.9,12.4C44.7,6.1,39.4,1.1,33.1,1.3c-6,0.2-10.9,5-11.1,11.1c-1.4-0.3-2.9-0.5-4.3-0.5
	C7.6,11.9,1,18.6,1,28.6C1,39,7.6,44.9,17.6,44.9c3.1,0,6.2-0.7,9-2.2l-1.3-3c-2.4,1.1-5,1.7-7.6,1.8c-8.1,0-13-4.8-13-12.9
	c0-8.4,4.9-13.4,13.1-13.4c1.7,0,3.3,0.2,4.9,0.8c1.1,3.3,3.6,5.9,6.9,7.1c0.4,1.4,0.6,2.8,0.6,4.2c0,4.2-1.4,6.7-3.8,6.7
	c-0.7,0.1-1.4-0.4-1.5-1.1c0-0.1,0-0.2,0-0.3V19.9h-4.6v1.9c-0.9-1.5-2.5-2.4-4.3-2.3c-4.4,0-6.9,3.3-6.9,8.9s2.6,9.2,6.8,9.2
	c2,0.1,3.8-1.1,4.7-2.8c0.6,1.9,2.3,2.8,5,2.8c4.9,0,8.1-3.9,8.1-10.4c0-1.1-0.1-2.2-0.3-3.3l0,0C39.8,23.8,44.9,18.7,44.9,12.4
	C44.9,12.4,44.9,12.4,44.9,12.4z M20.4,29.4c0,2.9-1.2,4.6-3.3,4.6c-2.3,0-3.3-2.1-3.3-5.8c0-3.2,1-5.1,3.3-5.1
	c2.1,0,3.3,1.6,3.3,4.3V29.4z M25.1,12.4c0-4.6,3.8-8.4,8.4-8.4c4.6,0,8.4,3.8,8.4,8.4s-3.8,8.4-8.4,8.4l0,0
	C28.8,20.8,25.1,17,25.1,12.4z"/>
<circle class="st0" cx="33.7" cy="8.1" r="1.6"/>
<rect x="32.4" y="10.6" class="st0" width="2.5" height="7.7"/>
</svg>
