<?xml version="1.0" encoding="utf-8"?>
<!-- Generator: Adobe Illustrator 24.0.1, SVG Export Plug-In . SVG Version: 6.00 Build 0)  -->
<svg version="1.1" id="PICTOS_vectos" xmlns="http://www.w3.org/2000/svg" xmlns:xlink="http://www.w3.org/1999/xlink" x="0px"
	 y="0px" viewBox="0 0 46.1 46.1" style="enable-background:new 0 0 46.1 46.1;" xml:space="preserve">
<style type="text/css">
	.st0{fill:#25465F;}
</style>
<path class="st0" d="M33.8,1c-6.3,0-11.4,5.1-11.4,11.4c0,0.1,0,0.1,0,0.2c-1.5-0.4-3.1-0.5-4.7-0.5C7.7,12,1,18.7,1,28.7
	C1,39.1,7.6,45,17.6,45c3.1,0,6.2-0.7,8.9-2.2l-1.3-3c-2.4,1.2-5,1.8-7.6,1.8c-8.1,0-13-4.8-13-12.9c0-8.4,4.9-13.4,13.1-13.4
	c1.8,0,3.6,0.3,5.3,0.9c1.1,3,3.4,5.5,6.4,6.7c0.5,1.5,0.7,3,0.7,4.5c0,4.2-1.4,6.8-3.8,6.8c-0.7,0.1-1.4-0.4-1.5-1.1
	c0-0.1,0-0.2,0-0.3V20.1h-4.5v1.9c-0.9-1.5-2.5-2.4-4.3-2.3c-4.4,0-6.9,3.3-6.9,8.9s2.6,9.2,6.8,9.2c2,0.1,3.8-1.1,4.7-2.8
	c0.6,1.9,2.3,2.8,5,2.8c4.9,0,8.1-3.9,8.1-10.4c0-1.1-0.1-2.3-0.3-3.4h0.3c6.3-0.3,11.1-5.7,10.8-12C44.3,6,39.6,1.3,33.8,1z
	 M20.4,29.5c0,2.9-1.2,4.6-3.3,4.6c-2.3,0-3.3-2.1-3.3-5.8c0-3.2,1-5.1,3.3-5.1c2.1,0,3.3,1.6,3.3,4.3V29.5z M33.8,20.8
	c-4.6,0-8.4-3.8-8.4-8.4S29.1,4,33.8,4c4.6,0,8.4,3.8,8.4,8.4c0,0,0,0,0,0C42.2,17,38.4,20.8,33.8,20.8z"/>
<path class="st0" d="M39.8,10.9h-4.5V6.4c0-0.8-0.7-1.5-1.5-1.5s-1.5,0.7-1.5,1.5v4.5h-4.5c-0.8,0-1.5,0.7-1.5,1.5s0.7,1.5,1.5,1.5
	h4.5v4.5c0,0.8,0.7,1.5,1.5,1.5s1.5-0.7,1.5-1.5v-4.5h4.5c0.8,0,1.5-0.7,1.5-1.5S40.6,10.9,39.8,10.9z"/>
</svg>
