<?xml version="1.0" encoding="utf-8"?>
<!-- Generator: Adobe Illustrator 24.0.1, SVG Export Plug-In . SVG Version: 6.00 Build 0)  -->
<svg version="1.1" id="PICTOS_vectos" xmlns="http://www.w3.org/2000/svg" xmlns:xlink="http://www.w3.org/1999/xlink" x="0px"
	 y="0px" viewBox="0 0 46.1 46.1" style="enable-background:new 0 0 46.1 46.1;" xml:space="preserve">
<style type="text/css">
	.st0{fill:#25465F;}
</style>
<path class="st0" d="M26.8,12.4v2.3c-1.1-1.8-3.1-2.9-5.3-2.9c-5.4,0-8.7,4.1-8.7,11.1c0,7.2,3.2,11.5,8.5,11.5
	c2.5,0.1,4.8-1.3,5.8-3.5c0.7,2.4,2.9,3.5,6.2,3.5c6.1,0,10.1-4.8,10.1-13c0-11.5-8-19-20.1-19c-12.6,0-20.9,8.3-20.9,20.9
	c0,13,8.3,20.3,20.8,20.3c3.9,0,7.7-0.9,11.2-2.7l-1.6-3.7c-3,1.4-6.2,2.2-9.5,2.2c-10.2,0-16.3-6-16.3-16.1
	c0-10.5,6.1-16.8,16.4-16.8c9.7,0,15.5,5.7,15.5,15.1c0,5.3-1.8,8.5-4.7,8.5c-0.9,0.1-1.7-0.5-1.8-1.4c0-0.1,0-0.2,0-0.3v-16H26.8z
	 M26.8,24.2c0,3.6-1.5,5.8-4.1,5.8c-2.9,0-4.2-2.7-4.2-7.3c0-4,1.3-6.4,4.2-6.4c2.6,0,4.1,2,4.1,5.4V24.2z"/>
</svg>
