<?xml version="1.0" encoding="utf-8"?>
<!-- Generator: Adobe Illustrator 24.0.1, SVG Export Plug-In . SVG Version: 6.00 Build 0)  -->
<svg version="1.1" id="PICTOS_vectos" xmlns="http://www.w3.org/2000/svg" xmlns:xlink="http://www.w3.org/1999/xlink" x="0px"
	 y="0px" viewBox="0 0 46 46" style="enable-background:new 0 0 46 46;" xml:space="preserve">
<style type="text/css">
	.st0{fill:#25465F;}
</style>
<path class="st0" d="M41.3,5.2H4.7C2.6,5.2,1,6.9,1,8.9V33c0,2,1.7,3.7,3.7,3.7h0h0.8c0.3,0.1,0.6,0.1,0.9,0h13
	c0.1,0,0.3,0.1,0.5,0.1c0.1,0,0.3,0,0.4-0.1h5.6c0.3,0.1,0.6,0.1,0.9,0h13c0.1,0,0.3,0.1,0.5,0.1c0.1,0,0.3,0,0.4-0.1h0.7
	c2,0,3.7-1.7,3.6-3.7V8.9C45,6.9,43.4,5.2,41.3,5.2z M42,8.9v20.8c-0.6-2.7-2.3-4.9-4.6-6.3c2.7-2.3,3-6.4,0.7-9.1s-6.4-3-9.1-0.7
	s-3,6.4-0.7,9.1c0.2,0.2,0.4,0.5,0.7,0.7c-3,1.7-4.8,4.8-4.8,8.2c0,0.7,0.1,1.4,0.2,2.1h-0.6V8.2h17.6C41.7,8.2,42,8.5,42,8.9
	L42,8.9z M27.4,33.7c-0.2-0.7-0.2-1.4-0.2-2.1c0.1-3.4,2.7-6.1,6-6.5c1.7,0,6,1.9,6,6.5c0,0.7,0,1.4-0.2,2.1H27.4z M33.2,22
	c-1.9,0-3.4-1.5-3.4-3.5s1.5-3.5,3.4-3.4c1.9,0,3.5,1.5,3.5,3.4C36.6,20.5,35.1,22,33.2,22z M4.7,8.2h17.6v25.5h-0.6
	c0.1-0.7,0.2-1.4,0.2-2.1c0-3.4-1.9-6.5-4.9-8.2c2.7-2.3,3-6.4,0.7-9.1s-6.4-3-9.1-0.7s-3,6.4-0.7,9.1c0.2,0.2,0.4,0.5,0.7,0.7
	c-2.4,1.4-4,3.7-4.6,6.5v-21C4,8.5,4.3,8.2,4.7,8.2z M7,33.7c-0.2-0.7-0.2-1.4-0.2-2.1c0.1-3.4,2.7-6.1,6-6.5c3.3,0.3,5.9,3.1,6,6.5
	c0,0.7-0.1,1.4-0.2,2.1H7z M12.8,22c-1.9,0-3.4-1.5-3.4-3.5c0-1.9,1.5-3.5,3.5-3.4c1.9,0,3.4,1.5,3.4,3.4C16.3,20.5,14.7,22,12.8,22
	z"/>
<path class="st0" d="M34.1,37.8H11.9c-0.8,0-1.5,0.7-1.5,1.5s0.7,1.5,1.5,1.5h22.2c0.8,0,1.5-0.7,1.5-1.5S34.9,37.8,34.1,37.8z"/>
<path class="st0" d="M12.8,28.5c-2.5,0-4.5,0.9-4.5,2.1s2.1,2.2,4.6,2.2s4.4-0.9,4.4-2.1S15.3,28.5,12.8,28.5z"/>
</svg>
