<svg id="PICTOS_vectos" xmlns="http://www.w3.org/2000/svg" viewBox="0 0 46 46"><defs><style>.cls-1{fill:#25465f;}</style></defs><path class="cls-1" d="M29.59,25.5A2,2,0,0,1,27.9,25L21,18.1a2,2,0,0,1-.55-1.69,4.55,4.55,0,0,0-5-5.05.5.5,0,0,0-.28.85l1.47,1.48a1.21,1.21,0,0,1,0,1.71l-1.23,1.23a1.23,1.23,0,0,1-1.72,0l-1.49-1.49a.5.5,0,0,0-.85.27,4.56,4.56,0,0,0,5.06,5.06,2.35,2.35,0,0,1,1.71.56L25,27.87a2.31,2.31,0,0,1,.56,1.71,4.57,4.57,0,0,0,5.06,5.05.5.5,0,0,0,.28-.85l-1.49-1.49a1.2,1.2,0,0,1,0-1.71l1.23-1.23a1.2,1.2,0,0,1,1.71,0l1.47,1.47a.5.5,0,0,0,.85-.28,4.55,4.55,0,0,0-5-5Z"/><path class="cls-1" d="M45,23h0v0A22,22,0,1,0,23,45,22,22,0,0,0,45,23ZM25.09,41.88a9.25,9.25,0,0,0,.14-1.53c0-2.58-1-4.67-2.2-4.68s-2.25,2.15-2.26,4.72a8.85,8.85,0,0,0,.11,1.49A19,19,0,0,1,4.12,25.09a9.25,9.25,0,0,0,1.53.14c2.58,0,4.67-1,4.68-2.2s-2.15-2.25-4.72-2.26a8.85,8.85,0,0,0-1.49.11A19,19,0,0,1,20.92,4.12a9.17,9.17,0,0,0-.15,1.61c0,2.58,1,4.59,2.2,4.6s2.25-2.07,2.26-4.65a8.66,8.66,0,0,0-.12-1.56,19,19,0,0,1,16.77,16.8,9.26,9.26,0,0,0-1.61-.15c-2.58,0-4.59,1-4.6,2.2s2.07,2.24,4.65,2.26a8.55,8.55,0,0,0,1.55-.12A19,19,0,0,1,25.09,41.88Z"/></svg>