<?xml version="1.0" encoding="utf-8"?>
<!-- Generator: Adobe Illustrator 24.0.1, SVG Export Plug-In . SVG Version: 6.00 Build 0)  -->
<svg version="1.1" id="PICTOS_vectos" xmlns="http://www.w3.org/2000/svg" xmlns:xlink="http://www.w3.org/1999/xlink" x="0px"
	 y="0px" viewBox="0 0 46 46" style="enable-background:new 0 0 46 46;" xml:space="preserve">
<style type="text/css">
	.st0{fill:#25465F;}
</style>
<path class="st0" d="M35.7,30.1c0-0.6,0.1-1.3,0.1-1.9c0-11.9-5.6-21.3-12.8-21.3c-1.8,0-3.6,0.6-5.1,1.7V2.5c0-0.8-0.7-1.5-1.5-1.5
	c-0.8,0-1.5,0.7-1.5,1.5v9c-2.9,3.9-4.7,9.9-4.7,16.7c0,0.7,0,1.3,0.1,2c0,0,0,0,0,0c0,0,0,0.1,0,0.1c0.3,5.5,1.9,10.5,4.4,14.1
	c0.3,0.4,0.7,0.6,1.2,0.6h14.3c0.5,0,0.9-0.2,1.2-0.6c2.5-3.6,4.1-8.6,4.4-14.1C35.7,30.3,35.7,30.2,35.7,30.1
	C35.7,30.1,35.7,30.1,35.7,30.1z M23,9.9c5.3,0,9.8,8.4,9.8,18.3c0,0.2,0,0.3,0,0.5H13.2c0-0.2,0-0.3,0-0.5
	C13.2,18.2,17.7,9.9,23,9.9z M29.3,42H16.7c-1.8-3.2-3-6.7-3.3-10.3h19.2C32.3,35.3,31.2,38.8,29.3,42z"/>
<path class="st0" d="M23.1,23c2.6,0,4.6-1,4.6-2.2s-2.1-2.2-4.6-2.3s-4.6,1-4.6,2.2S20.5,23,23.1,23z"/>
<path class="st0" d="M27.6,34.5h-9.3c-0.4,0-0.8,0.3-0.8,0.8s0.3,0.8,0.8,0.8h9.3c0.4,0,0.8-0.3,0.8-0.8S28.1,34.5,27.6,34.5z"/>
<path class="st0" d="M27.6,37.5h-9.3c-0.4,0-0.8,0.3-0.8,0.8s0.3,0.8,0.8,0.8h9.3c0.4,0,0.8-0.3,0.8-0.8S28.1,37.5,27.6,37.5z"/>
</svg>
