<?xml version="1.0" encoding="utf-8"?>
<!-- Generator: Adobe Illustrator 24.0.1, SVG Export Plug-In . SVG Version: 6.00 Build 0)  -->
<svg version="1.1" id="Calque_1" xmlns="http://www.w3.org/2000/svg" xmlns:xlink="http://www.w3.org/1999/xlink" x="0px" y="0px"
	 viewBox="0 0 46 46" style="enable-background:new 0 0 46 46;" xml:space="preserve">
<style type="text/css">
	.st0{fill:#25465F;}
</style>
<path class="st0" d="M44.7,19.5c-0.9-5.8-4.1-10.9-8.8-14.3c-4.8-3.4-10.6-4.8-16.4-3.9s-10.9,4-14.3,8.8S0.4,20.7,1.3,26.5
	s4.1,10.9,8.8,14.3C13.9,43.6,18.4,45,23,45c1.2,0,2.3-0.1,3.5-0.3c5.8-0.9,10.9-4.1,14.3-8.8S45.7,25.3,44.7,19.5z M26,41.8
	c-0.9,0.1-1.8,0.2-2.7,0.2l-5.6-1.4c0.1-0.1,0.2-0.2,0.3-0.3c0.1-0.2,0.1-0.3,0.1-0.5l6.4-3.2l7.7,1.2c-0.1,0.4,0,0.8,0.2,1.1
	l-4.9,2.7C27,41.6,26.5,41.7,26,41.8z M6.2,16.1l5.7-2.9l5,4.8c-0.1,0.1-0.1,0.3-0.1,0.4l-0.9,5.7c0,0.1,0,0.1,0,0.2l-6,3.2
	l-4.7-4.8c0.6-0.8,1-1.9,1.3-3.3C6.6,18.2,6.5,17,6.2,16.1z M19.6,6.3c1.3-0.2,2.4-0.6,3.1-1.2l4.6,4.5L24.1,16c-0.1,0-0.1,0-0.2,0
	l-5.7,0.9c-0.1,0-0.2,0.1-0.3,0.1l-5-4.9l3.1-6C17,6.4,18.2,6.5,19.6,6.3z M38.2,17.5l-2.8,5.7l-6.8-1l0,0L25.9,17
	c-0.1-0.2-0.2-0.3-0.4-0.5l3-6.2l6.6,1.1c0,1,0.3,2.2,0.9,3.4C36.7,16,37.5,16.9,38.2,17.5z M36.3,32.7c-0.7,0.4-1.5,0.9-2.1,1.6
	c-0.7,0.6-1.2,1.3-1.5,2L25,35.1l-1.1-6.5c0.1-0.1,0.2-0.1,0.2-0.2l4.1-4.1c0.2-0.2,0.3-0.4,0.4-0.6l6.5,0.9L36.3,32.7z M16.3,25.8
	c0.1,0.1,0.3,0.2,0.4,0.3l5.2,2.6c0.1,0.1,0.3,0.1,0.5,0.1l1.1,6.4l-6,3c-0.6-0.8-1.5-1.6-2.7-2.2c-1.2-0.6-2.3-0.9-3.2-0.9
	l-1.1-6.3L16.3,25.8z M38.8,32.3c-0.3-0.1-0.6-0.1-1-0.1l-1.2-8.1l3-6.1c0.2,0,0.4,0,0.6-0.1c0.1-0.1,0.3-0.2,0.4-0.3l1.4,5.5
	c0,1.3-0.1,2.6-0.4,3.9L38.8,32.3z M34.1,7.6c0.8,0.6,1.5,1.2,2.2,1.9c-0.1,0-0.2,0-0.4,0.1s-0.3,0.2-0.4,0.4l-7.1-1.2L23.7,4
	C27.4,4.1,31,5.4,34.1,7.6z M14.4,6.1l-2.9,5.6L6,14.5c0.5-0.9,1-1.8,1.6-2.7C9.4,9.4,11.7,7.4,14.4,6.1z M4.2,26
	C4.1,25.3,4,24.6,4,23.8l4.9,5l1.1,6.7c-0.2,0.1-0.3,0.2-0.4,0.4c-0.1,0.1-0.1,0.3-0.1,0.4C6.8,33.6,4.9,30,4.2,26z"/>
</svg>
