<svg id="PICTOS_vectos" xmlns="http://www.w3.org/2000/svg" viewBox="0 0 46 46"><defs><style>.cls-1{fill:#25465f;}</style></defs><path class="cls-1" d="M43.5,42H2.5a1.5,1.5,0,0,0,0,3h41a1.5,1.5,0,0,0,0-3Z"/><path class="cls-1" d="M4,39.5A1.5,1.5,0,0,0,5.5,41h35a1.5,1.5,0,0,0,0-3H5.5A1.5,1.5,0,0,0,4,39.5Z"/><path class="cls-1" d="M2.5,16.35h41a1.5,1.5,0,0,0,.77-2.79L23.77,1.22a1.47,1.47,0,0,0-1.54,0L1.73,13.56a1.5,1.5,0,0,0,.77,2.79ZM23,4.25l15.1,9.1H7.9Z"/><path class="cls-1" d="M10.5,35.5V22.85a1.5,1.5,0,0,0-3,0V35.5a1.5,1.5,0,0,0,3,0Z"/><path class="cls-1" d="M39,35.5V22.85a1.5,1.5,0,0,0-3,0V35.5a1.5,1.5,0,0,0,3,0Z"/><path class="cls-1" d="M40.5,17.35H5.5a1.5,1.5,0,0,0,0,3h35a1.5,1.5,0,0,0,0-3Z"/><path class="cls-1" d="M17.48,31h1.35a4.58,4.58,0,0,0,4.88,4.08c2.66,0,4.25-1.18,4.81-3.54L25.89,31a1.88,1.88,0,0,1-2.07,1.71A2,2,0,0,1,21.65,31h2.78V29.62H21.48a3.17,3.17,0,0,1,0-.44,3.24,3.24,0,0,1,0-.45h2.95V27.37H21.65a2,2,0,0,1,2.09-1.69,1.88,1.88,0,0,1,2,1.71l2.61-.56a4.25,4.25,0,0,0-4.53-3.54,4.82,4.82,0,0,0-4.94,4.08H17.48v1.36h1.21a3.24,3.24,0,0,0,0,.45,3.17,3.17,0,0,0,0,.44H17.48Z"/><path class="cls-1" d="M22.94,7.32c-2.57,0-4.58,1-4.58,2.19s2.06,2.24,4.63,2.26,4.65-1,4.65-2.2S25.51,7.34,22.94,7.32Z"/></svg>