<?xml version="1.0" encoding="utf-8"?>
<!-- Generator: Adobe Illustrator 24.0.1, SVG Export Plug-In . SVG Version: 6.00 Build 0)  -->
<svg version="1.1" id="PICTOS_vectos" xmlns="http://www.w3.org/2000/svg" xmlns:xlink="http://www.w3.org/1999/xlink" x="0px"
	 y="0px" viewBox="0 0 46.1 46.1" style="enable-background:new 0 0 46.1 46.1;" xml:space="preserve">
<style type="text/css">
	.st0{fill:#25465F;}
</style>
<path class="st0" d="M39.6,24.2c0.4,0,0.8-0.3,0.8-0.8V1.8c0-0.4-0.3-0.8-0.8-0.8s-0.8,0.3-0.8,0.8v21.7
	C38.9,23.9,39.2,24.2,39.6,24.2C39.6,24.3,39.6,24.3,39.6,24.2z"/>
<path class="st0" d="M37,24.2c0.4,0,0.8-0.3,0.8-0.8V1.8c0-0.4-0.3-0.8-0.8-0.8s-0.8,0.3-0.8,0.8v21.7C36.2,23.9,36.6,24.2,37,24.2
	C37,24.3,37,24.3,37,24.2z"/>
<path class="st0" d="M2.5,1C1.7,1,1,1.7,1,2.5v21C1,24.3,1.7,25,2.5,25S4,24.3,4,23.5v-21C4,1.7,3.3,1,2.5,1z"/>
<path class="st0" d="M43.5,1C42.7,1,42,1.7,42,2.5v21c0,0.8,0.7,1.5,1.5,1.5s1.5-0.7,1.5-1.5v-21C45,1.7,44.3,1,43.5,1z"/>
<path class="st0" d="M31.5,31c4.3-5.1,4.6-12.4,0.8-17.9c-0.3-0.4-0.6-0.9-1-1.3V2.5c0-0.8-0.7-1.5-1.5-1.5s-1.5,0.7-1.5,1.5v6.7
	c-0.4-0.2-0.8-0.5-1.2-0.7V1.8c0-0.4-0.3-0.8-0.8-0.8s-0.8,0.3-0.8,0.8v6c-0.4-0.2-0.8-0.3-1.2-0.4V1.8c0-0.4-0.3-0.8-0.8-0.8
	s-0.8,0.3-0.8,0.8v5.3h-0.1C22.5,7,22.2,7,21.9,7V1.8c0-0.4-0.3-0.8-0.8-0.8s-0.8,0.3-0.8,0.8v5.1c-0.3,0-0.6,0-1,0V2.5
	c0-0.8-0.7-1.5-1.5-1.5s-1.5,0.7-1.5,1.5v4.9c-0.4,0.1-0.9,0.2-1.3,0.4V2.5c0-0.8-0.7-1.5-1.5-1.5s-1.5,0.7-1.5,1.5v6.8l-0.3,0.2
	c-0.4,0.3-0.7,0.5-1,0.8V1.8c0-0.4-0.3-0.8-0.8-0.8S9.3,1.4,9.3,1.8v10c-0.5,0.6-1,1.3-1.5,2v-12c0-0.4-0.3-0.8-0.8-0.8
	S6.3,1.4,6.3,1.8V17C3.8,24.7,8,33,15.7,35.5c4.4,1.4,9.2,0.7,13-1.9c0.2-0.2,0.4-0.3,0.6-0.5l13.1,11.5c0.6,0.6,1.6,0.5,2.1-0.1
	c0.6-0.6,0.5-1.6-0.1-2.1L31.5,31z M10.6,28.3C6.9,23,8.2,15.7,13.5,11.9s12.6-2.4,16.3,2.9s2.4,12.6-2.9,16.3c0,0,0,0,0,0
	C21.6,34.8,14.4,33.5,10.6,28.3z"/>
<path class="st0" d="M12.7,16.3c-1.5,2.1-1.8,4.3-0.8,5s3-0.4,4.5-2.5s1.8-4.4,0.8-5.1S14.2,14.2,12.7,16.3z"/>
</svg>
