<?xml version="1.0" encoding="utf-8"?>
<!-- Generator: Adobe Illustrator 24.0.1, SVG Export Plug-In . SVG Version: 6.00 Build 0)  -->
<svg version="1.1" id="PICTOS_vectos" xmlns="http://www.w3.org/2000/svg" xmlns:xlink="http://www.w3.org/1999/xlink" x="0px"
	 y="0px" viewBox="0 0 46 46" style="enable-background:new 0 0 46 46;" xml:space="preserve">
<style type="text/css">
	.st0{fill:#25465F;}
</style>
<path class="st0" d="M7.8,18.4c-1.2,0-2.2,2.1-2.2,4.7s1,4.6,2.2,4.6S10,25.6,10,23S9,18.4,7.8,18.4z"/>
<path class="st0" d="M41.5,16H40c-0.3-1.7-1.7-3-3.5-3h-32C2.6,13,1,14.5,1,16.5v13.1C1,31.5,2.6,33,4.5,33h32c1.8,0,3.2-1.3,3.5-3
	h1.5c1.9,0,3.5-1.6,3.5-3.5v-7C45,17.5,43.4,16,41.5,16z M4,29.5V16.5C4,16.2,4.2,16,4.5,16h16.1l-6.4,7.7c-0.2,0.2-0.2,0.5-0.1,0.8
	c0.1,0.3,0.4,0.4,0.7,0.4h4.3L18.3,30H4.5C4.2,30,4,29.8,4,29.5z M37,29.5c0,0.3-0.2,0.5-0.5,0.5H21l6.4-7.7c0.3-0.3,0.2-0.8-0.1-1
	c-0.1-0.1-0.3-0.2-0.5-0.2h-4.3l0.8-5.1h13.1c0.3,0,0.5,0.2,0.5,0.5V29.5z M42,26.5c0,0.3-0.2,0.5-0.5,0.5H40v-8h1.5
	c0.3,0,0.5,0.2,0.5,0.5V26.5z"/>
</svg>
