<?xml version="1.0" encoding="utf-8"?>
<!-- Generator: Adobe Illustrator 24.0.1, SVG Export Plug-In . SVG Version: 6.00 Build 0)  -->
<svg version="1.1" id="PICTOS_vectos" xmlns="http://www.w3.org/2000/svg" xmlns:xlink="http://www.w3.org/1999/xlink" x="0px"
	 y="0px" viewBox="0 0 46 46" style="enable-background:new 0 0 46 46;" xml:space="preserve">
<style type="text/css">
	.st0{fill:#25465F;}
</style>
<path class="st0" d="M40.7,18.7C40.7,8.9,32.8,1,23,1S5.3,8.9,5.3,18.7c0,9.2,7.1,16.9,16.2,17.7V42H17c-0.8,0-1.5,0.7-1.5,1.5
	S16.2,45,17,45h12c0.8,0,1.5-0.7,1.5-1.5S29.8,42,29,42h-4.5v-5.6C33.7,35.6,40.7,27.9,40.7,18.7z M8.3,18.7C8.3,10.6,14.9,4,23,4
	s14.7,6.6,14.7,14.7c0,8.1-6.5,14.7-14.6,14.7h-0.2C14.8,33.4,8.3,26.8,8.3,18.7z"/>
<path class="st0" d="M22.6,13.6c0.6-0.6,0.6-1.5,0-2.1c0,0,0,0,0,0c-0.6-0.6-1.5-0.6-2.1,0l-5.1,5.1c-0.6,0.6-0.6,1.5,0,2.1
	c0,0,0,0,0,0c0.6,0.6,1.5,0.6,2.1,0L22.6,13.6z"/>
<path class="st0" d="M28.6,15.6c0.6-0.6,0.6-1.5,0-2.1c0,0,0,0,0,0c-0.6-0.6-1.5-0.6-2.1,0l-9.1,9.1c-0.6,0.6-0.6,1.5,0,2.1
	c0,0,0,0,0,0c0.6,0.6,1.5,0.6,2.1,0L28.6,15.6z"/>
<path class="st0" d="M24,26.5c0.9,0.9,3.1,0.1,4.9-1.7s2.6-3.9,1.7-4.8s-3-0.1-4.9,1.7S23.2,25.7,24,26.5z"/>
</svg>
