<?xml version="1.0" encoding="utf-8"?>
<!-- Generator: Adobe Illustrator 24.0.1, SVG Export Plug-In . SVG Version: 6.00 Build 0)  -->
<svg version="1.1" id="PICTOS_vectos" xmlns="http://www.w3.org/2000/svg" xmlns:xlink="http://www.w3.org/1999/xlink" x="0px"
	 y="0px" viewBox="0 0 46 46" style="enable-background:new 0 0 46 46;" xml:space="preserve">
<style type="text/css">
	.st0{fill:#25465F;}
</style>
<path class="st0" d="M25.2,23l9.7-9.2c0.6-0.6,0.6-1.5,0-2.1c0,0,0,0,0,0L24,1.4c-0.6-0.6-1.6-0.5-2.1,0.1c-0.2,0.3-0.4,0.6-0.4,1
	v17l-8.2-7.8c-0.6-0.6-1.6-0.5-2.1,0.1c-0.6,0.6-0.5,1.6,0.1,2.1l9.7,9.2l-9.7,9.2c-0.6,0.6-0.6,1.5-0.1,2.1
	c0.6,0.6,1.5,0.6,2.1,0.1l8.2-7.8v17c0,0.8,0.7,1.5,1.5,1.5c0,0,0,0,0,0c0.4,0,0.7-0.2,1-0.4l10.8-10.2c0.6-0.6,0.6-1.5,0-2.1
	c0,0,0,0,0,0L25.2,23z M24.5,6l7.1,6.8l-7.1,6.8L24.5,6z M24.5,40V26.5l7.1,6.8L24.5,40z"/>
</svg>
