<?xml version="1.0" encoding="utf-8"?>
<!-- Generator: Adobe Illustrator 24.0.1, SVG Export Plug-In . SVG Version: 6.00 Build 0)  -->
<svg version="1.1" id="PICTOS_vectos" xmlns="http://www.w3.org/2000/svg" xmlns:xlink="http://www.w3.org/1999/xlink" x="0px"
	 y="0px" viewBox="0 0 46.1 46.1" style="enable-background:new 0 0 46.1 46.1;" xml:space="preserve">
<style type="text/css">
	.st0{fill:#25465F;}
</style>
<path class="st0" d="M23.1,34.4c-2.6,0-4.6,1-4.6,2.2s2.1,2.2,4.7,2.2s4.6-1,4.6-2.2S25.6,34.4,23.1,34.4z"/>
<path class="st0" d="M38.2,42.1H34V5.4C34,3,32.1,1,29.6,1H16.4c-2.4,0-4.4,2-4.4,4.4v36.7H7.9c-0.8,0-1.5,0.7-1.5,1.5
	s0.7,1.5,1.5,1.5h24.5h0.2h0.2h5.6c0.8,0,1.5-0.7,1.5-1.5S39.1,42.1,38.2,42.1L38.2,42.1z M15.1,5.4c0-0.8,0.6-1.4,1.4-1.4h13.2
	C30.4,4,31,4.6,31,5.4v36.7H15.1V5.4z"/>
<path class="st0" d="M22.4,31.6h1.4c0.8,0,1.5-0.7,1.5-1.5s-0.7-1.5-1.5-1.5h-1.4c-0.8,0-1.5,0.7-1.5,1.5S21.5,31.6,22.4,31.6z"/>
<path class="st0" d="M22.4,26.4h1.4c0.8,0,1.5-0.7,1.5-1.5s-0.7-1.5-1.5-1.5h-1.4c-0.8,0-1.5,0.7-1.5,1.5S21.5,26.4,22.4,26.4z"/>
<path class="st0" d="M22.4,21.2h1.4c0.8,0,1.5-0.7,1.5-1.5s-0.7-1.5-1.5-1.5h-1.4c-0.8,0-1.5,0.7-1.5,1.5S21.5,21.2,22.4,21.2z"/>
</svg>
