<?xml version="1.0" encoding="utf-8"?>
<!-- Generator: Adobe Illustrator 24.0.1, SVG Export Plug-In . SVG Version: 6.00 Build 0)  -->
<svg version="1.1" id="PICTOS_vectos" xmlns="http://www.w3.org/2000/svg" xmlns:xlink="http://www.w3.org/1999/xlink" x="0px"
	 y="0px" viewBox="0 0 58.1 58.1" style="enable-background:new 0 0 58.1 58.1;" xml:space="preserve">
<style type="text/css">
	.st0{fill:#25465F;}
</style>
<path class="st0" d="M12.2,32.5c-2.6,0-4.7,1-4.7,2.2s2.1,2.2,4.7,2.2s4.6-1,4.6-2.2C16.9,33.6,14.8,32.5,12.2,32.5z"/>
<path class="st0" d="M52.8,26.3h-2.2c1.1-1.8,1.6-3.8,1.6-5.9C52.3,14.1,47.2,9,40.9,9S29.5,14,29.5,20.3c0,2.1,0.6,4.2,1.7,6H5.3
	c-2.4,0-4.3,1.9-4.3,4.3v8.3c0,2.4,1.9,4.3,4.3,4.3h0.6v2c0,1.3,1.1,2.4,2.4,2.4h7.8c1.3,0,2.4-1.1,2.4-2.4v-2h6.2v1.7
	c0,1.5,1.2,2.7,2.7,2.7l0,0h3.3c1.5,0,2.7-1.2,2.7-2.7c0,0,0,0,0,0v-1.7h6.2v2c0,1.3,1.1,2.4,2.4,2.4h7.8c1.3,0,2.4-1.1,2.4-2.4v-2
	h0.6c2.4,0,4.3-1.9,4.3-4.3v-8.3C57.1,28.2,55.2,26.3,52.8,26.3z M40.9,12c4.6,0,8.4,3.8,8.4,8.4c0,4.6-3.8,8.4-8.4,8.4
	s-8.4-3.8-8.4-8.4c0,0,0,0,0,0C32.5,15.8,36.2,12,40.9,12z M15.6,44.6H8.9v-1.4h6.7V44.6z M30.4,44.6h-2.7V37h2.7V44.6z M49.3,44.6
	h-6.7v-1.4h6.7V44.6z M54.1,38.9c0,0.7-0.6,1.3-1.3,1.3c0,0,0,0,0,0H33.4v-3.4c0-1.5-1.2-2.7-2.7-2.7h-3.3c-1.5,0-2.7,1.2-2.7,2.7
	v3.4H5.3c-0.7,0-1.3-0.6-1.3-1.3c0,0,0,0,0,0v-8.3c0-0.7,0.6-1.3,1.3-1.3h0h28.4c4.2,3.4,10.1,3.4,14.3,0h4.8c0.7,0,1.3,0.6,1.3,1.3
	L54.1,38.9z"/>
<path class="st0" d="M39.4,26.4c0,0.8,0.7,1.5,1.5,1.5s1.5-0.7,1.5-1.5v-4.5h4.5c0.8,0,1.5-0.7,1.5-1.5c0-0.8-0.7-1.5-1.5-1.5h-4.5
	v-4.5c0-0.8-0.7-1.5-1.5-1.5s-1.5,0.7-1.5,1.5v4.5h-4.5c-0.8,0-1.5,0.7-1.5,1.5c0,0.8,0.7,1.5,1.5,1.5h4.5L39.4,26.4z"/>
</svg>
