<?xml version="1.0" encoding="utf-8"?>
<!-- Generator: Adobe Illustrator 24.0.1, SVG Export Plug-In . SVG Version: 6.00 Build 0)  -->
<svg version="1.1" id="PICTOS_vectos" xmlns="http://www.w3.org/2000/svg" xmlns:xlink="http://www.w3.org/1999/xlink" x="0px"
	 y="0px" viewBox="0 0 46.1 46.1" style="enable-background:new 0 0 46.1 46.1;" xml:space="preserve">
<style type="text/css">
	.st0{fill:#25465F;}
</style>
<path class="st0" d="M38.9,42h-4.1L32.6,5.4c0-2.4-2-4.4-4.4-4.4h-9.2c-2.4,0-4.3,1.9-4.4,4.3L12.6,42H8.5C7.7,42,7,42.7,7,43.5
	S7.7,45,8.5,45h5.1c0.1,0,0.3,0,0.4,0l0,0c0.1,0,0.3,0,0.4-0.1h24.5c0.8,0,1.5-0.7,1.5-1.5S39.7,41.9,38.9,42L38.9,42z M17.7,5.4
	c0-0.8,0.6-1.4,1.4-1.4h9.2c0.8,0,1.4,0.7,1.4,1.4c0,0,0,0,0,0L31.8,42H15.6L17.7,5.4z"/>
<path class="st0" d="M23.7,28c-2.6,0-4.7,1-4.7,2.2s2.1,2.2,4.7,2.2s4.6-1,4.6-2.2S26.3,28,23.7,28z"/>
<path class="st0" d="M23.7,34.3c-2.6,0-4.6,1-4.6,2.2s2.1,2.2,4.7,2.2s4.6-1,4.6-2.2S26.3,34.3,23.7,34.3z"/>
</svg>
