<?xml version="1.0" encoding="utf-8"?>
<!-- Generator: Adobe Illustrator 24.0.1, SVG Export Plug-In . SVG Version: 6.00 Build 0)  -->
<svg version="1.1" id="PICTOS_vectos" xmlns="http://www.w3.org/2000/svg" xmlns:xlink="http://www.w3.org/1999/xlink" x="0px"
	 y="0px" viewBox="0 0 58.1 58.1" style="enable-background:new 0 0 58.1 58.1;" xml:space="preserve">
<style type="text/css">
	.st0{fill:#25465F;}
</style>
<path class="st0" d="M12.2,30.4c-2.6,0-4.7,1-4.7,2.2c0,1.2,2.1,2.2,4.7,2.2c2.6,0,4.6-1,4.6-2.2C16.9,31.4,14.8,30.4,12.2,30.4z"/>
<path class="st0" d="M52.8,24.1h-2.1c3.2-5.4,1.4-12.4-4.1-15.6S34.2,7.2,31,12.6c-2.1,3.6-2.1,8,0,11.6H5.3c-2.4,0-4.3,1.9-4.3,4.3
	v8.3C1,39.1,2.9,41,5.3,41h0.6v2c0,1.3,1.1,2.4,2.4,2.4h7.8c1.3,0,2.4-1.1,2.4-2.4v-2h6.2v1.7c0,1.5,1.2,2.7,2.7,2.7l0,0h3.3
	c1.5,0,2.7-1.2,2.7-2.7c0,0,0,0,0,0V41h6.2v2c0,1.3,1.1,2.4,2.4,2.4h7.8c1.3,0,2.4-1.1,2.4-2.4v-2h0.6c2.4,0,4.3-1.9,4.3-4.3v-8.3
	C57.1,26.1,55.2,24.1,52.8,24.1z M40.9,10c4.6,0,8.4,3.8,8.4,8.4c0,2.2-0.9,4.3-2.4,5.9c-0.3,0.1-0.5,0.3-0.7,0.6
	c-3.1,2.6-7.6,2.6-10.7,0c-0.1-0.3-0.4-0.5-0.7-0.6c-3.3-3.3-3.2-8.6,0.1-11.9C36.6,10.9,38.7,10,40.9,10z M15.6,42.4H8.9V41h6.7
	V42.4z M30.4,42.4h-2.7v-7.6h2.7V42.4z M49.3,42.4h-6.7V41h6.7V42.4z M54.1,36.7c0,0.7-0.6,1.3-1.3,1.3H33.4v-3.4
	c0-1.5-1.2-2.7-2.7-2.7c0,0,0,0,0,0h-3.3c-1.5,0-2.7,1.2-2.7,2.7V38H5.3C4.6,38,4,37.4,4,36.7v-8.3c0-0.7,0.6-1.3,1.3-1.3
	c0,0,0,0,0,0h28.3c4.2,3.5,10.4,3.5,14.6,0h4.7c0.7,0,1.3,0.6,1.3,1.3c0,0,0,0,0,0L54.1,36.7z"/>
<rect x="39.8" y="16.6" class="st0" width="2.5" height="7.7"/>
<circle class="st0" cx="41.1" cy="14.1" r="1.6"/>
</svg>
