<?xml version="1.0" encoding="utf-8"?>
<!-- Generator: Adobe Illustrator 24.0.1, SVG Export Plug-In . SVG Version: 6.00 Build 0)  -->
<svg version="1.1" id="PICTOS_vectos" xmlns="http://www.w3.org/2000/svg" xmlns:xlink="http://www.w3.org/1999/xlink" x="0px"
	 y="0px" viewBox="0 0 58.1 58.1" style="enable-background:new 0 0 58.1 58.1;" xml:space="preserve">
<style type="text/css">
	.st0{fill:#25465F;}
</style>
<path class="st0" d="M32.8,15.3c1.2,0,2.2-2.1,2.3-4.6S34.1,6,32.9,6s-2.2,2.1-2.2,4.7S31.6,15.3,32.8,15.3z"/>
<path class="st0" d="M42.1,15.3c1.2,0,2.2-2.1,2.3-4.6S43.4,6,42.2,6s-2.2,2.1-2.2,4.7S40.9,15.3,42.1,15.3z"/>
<path class="st0" d="M52.9,28.8h-4.7c1.6-2.2,2.5-4.9,2.5-7.6v-8.5c0-2.1-1.7-3.8-3.8-3.8c-0.8,0-1.5,0.7-1.5,1.5s0.7,1.5,1.5,1.5
	c0.5,0,0.8,0.4,0.8,0.8v8.5c0,5.6-4.5,10.1-10.1,10.1c-5.6,0-10.1-4.5-10.1-10.1v-8.5c0-0.5,0.4-0.8,0.8-0.8c0.8,0,1.5-0.7,1.5-1.5
	S29,8.9,28.2,8.9l0,0c-2.1,0-3.8,1.7-3.8,3.8v8.5c0,2.7,0.9,5.4,2.5,7.6H5.3c-2.4,0-4.3,1.9-4.3,4.3v8.3c0,2.4,1.9,4.3,4.3,4.3h0.6
	v2c0,1.3,1.1,2.4,2.4,2.4h7.8c1.3,0,2.4-1.1,2.4-2.4v-2h21v2c0,1.3,1.1,2.4,2.4,2.4h7.8c1.3,0,2.4-1.1,2.4-2.4v-2h0.6
	c2.4,0,4.3-1.9,4.3-4.3v-8.3C57.1,30.8,55.2,28.9,52.9,28.8z M15.6,47.1H8.9v-1.4h6.7V47.1z M49.3,47.1h-6.7v-1.4h6.7L49.3,47.1z
	 M54.1,41.4c0,0.7-0.6,1.3-1.3,1.3l0,0H5.3c-0.7,0-1.3-0.6-1.3-1.3l0,0v-8.3c0-0.7,0.6-1.3,1.3-1.3h0h24.6c1.9,1.3,4,2.2,6.3,2.4
	v0.8c0,0.4-0.3,0.7-0.8,0.8H16.6c-0.8-2.5-3.5-3.8-6-3c-2.5,0.8-3.8,3.5-3,6s3.5,3.8,6,3c1.4-0.5,2.5-1.6,3-3h18.8
	c2.1,0,3.7-1.7,3.8-3.8v-0.8c2.2-0.3,4.2-1.1,6-2.4h7.7c0.7,0,1.3,0.6,1.3,1.3c0,0,0,0,0,0L54.1,41.4z M13.8,37.3
	c0,1-0.8,1.7-1.8,1.7s-1.7-0.8-1.7-1.8c0-1,0.8-1.7,1.8-1.7c0.9,0,1.7,0.8,1.7,1.7C13.8,37.2,13.8,37.2,13.8,37.3
	C13.8,37.4,13.8,37.3,13.8,37.3z"/>
</svg>
