<?xml version="1.0" encoding="utf-8"?>
<!-- Generator: Adobe Illustrator 24.0.1, SVG Export Plug-In . SVG Version: 6.00 Build 0)  -->
<svg version="1.1" id="PICTOS_vectos" xmlns="http://www.w3.org/2000/svg" xmlns:xlink="http://www.w3.org/1999/xlink" x="0px"
	 y="0px" viewBox="0 0 58.1 58.1" style="enable-background:new 0 0 58.1 58.1;" xml:space="preserve">
<style type="text/css">
	.st0{fill:#25465F;}
</style>
<path class="st0" d="M44,17.5h5.1c0.4,0,0.8-0.3,0.8-0.8S49.5,16,49.1,16H44c-0.4,0-0.8,0.3-0.8,0.8S43.6,17.5,44,17.5z"/>
<path class="st0" d="M46.5,35.2c-2.6,0-4.7,1-4.7,2.2s2.1,2.2,4.7,2.2s4.6-1,4.6-2.2C51.2,36.2,49.1,35.2,46.5,35.2z"/>
<path class="st0" d="M12.2,30.3c-2.6,0-4.7,1-4.7,2.2c0,1.2,2.1,2.2,4.7,2.2s4.6-1,4.6-2.2C16.9,31.4,14.8,30.3,12.2,30.3z"/>
<path class="st0" d="M53.3,11H39.8c-2.1,0-3.8,1.7-3.8,3.8v9.2H5.3C2.9,24.1,1,26,1,28.3v8.3c0,2.4,1.9,4.3,4.3,4.3h0.6v2
	c0,1.3,1.1,2.4,2.4,2.4h7.8c1.3,0,2.4-1.1,2.4-2.4v-2h6.2v1.7c0,1.5,1.2,2.7,2.7,2.7l0,0h3.3c1.5,0,2.7-1.2,2.7-2.7c0,0,0,0,0,0
	v-1.7h2.5v0.6c0,2.1,1.7,3.8,3.8,3.8h13.6c2.1,0,3.8-1.7,3.8-3.8l0,0V14.8C57.2,12.7,55.4,11,53.3,11L53.3,11z M15.6,42.3H8.9v-1.4
	h6.7V42.3z M30.4,42.3h-2.7v-7.6h2.7V42.3z M33.4,37.9v-3.4c0-1.5-1.2-2.7-2.7-2.7h-3.3c-1.5,0-2.7,1.2-2.7,2.7v3.4H5.3
	c-0.7,0-1.3-0.6-1.3-1.3c0,0,0,0,0,0v-8.3c0-0.7,0.6-1.3,1.3-1.3c0,0,0,0,0,0h30.6v10.9H33.4z M54.1,41.5c0,0.5-0.4,0.8-0.8,0.8l0,0
	H39.8c-0.5,0-0.8-0.4-0.8-0.8c0,0,0,0,0,0V14.8c0-0.5,0.4-0.8,0.8-0.8c0,0,0,0,0,0h13.6c0.5,0,0.8,0.4,0.8,0.8l0,0L54.1,41.5z"/>
</svg>
