<?xml version="1.0" encoding="utf-8"?>
<!-- Generator: Adobe Illustrator 24.0.1, SVG Export Plug-In . SVG Version: 6.00 Build 0)  -->
<svg version="1.1" id="PICTOS_vectos" xmlns="http://www.w3.org/2000/svg" xmlns:xlink="http://www.w3.org/1999/xlink" x="0px"
	 y="0px" viewBox="0 0 58.1 58.1" style="enable-background:new 0 0 58.1 58.1;" xml:space="preserve">
<style type="text/css">
	.st0{fill:#25465F;}
</style>
<path class="st0" d="M12.2,32c-2.6,0-4.7,1-4.7,2.2s2.1,2.2,4.7,2.2c2.6,0,4.6-1,4.6-2.2C16.9,33,14.8,32,12.2,32z"/>
<path class="st0" d="M52.8,25.7h-2.1c3.2-5.4,1.4-12.4-4.1-15.6S34.2,8.8,31,14.2c-2.1,3.6-2.1,8,0,11.6H5.3C2.9,25.7,1,27.7,1,30
	v8.3c0,2.4,1.9,4.3,4.3,4.3h0.6v2c0,1.3,1.1,2.4,2.4,2.4h7.8c1.3,0,2.4-1.1,2.4-2.4v-2h6.2v1.7c0,1.5,1.2,2.7,2.7,2.7l0,0h3.3
	c1.5,0,2.7-1.2,2.7-2.7c0,0,0,0,0,0v-1.7h6.2v2c0,1.3,1.1,2.4,2.4,2.4h7.8c1.3,0,2.4-1.1,2.4-2.4v-2h0.6c2.4,0,4.3-1.9,4.3-4.3V30
	C57.1,27.7,55.2,25.7,52.8,25.7z M40.9,11.6c4.6,0,8.4,3.8,8.4,8.4c0,2.2-0.9,4.3-2.4,5.9c-0.3,0.1-0.5,0.3-0.7,0.6
	c-3.1,2.6-7.6,2.6-10.7,0c-0.1-0.3-0.4-0.5-0.7-0.6c-3.3-3.3-3.2-8.6,0.1-11.9C36.6,12.5,38.7,11.6,40.9,11.6z M15.6,44H8.9v-1.4
	h6.7V44z M30.4,44h-2.7v-7.6h2.7V44z M49.3,44h-6.7v-1.4h6.7V44z M54.1,38.3c0,0.7-0.6,1.3-1.3,1.3H33.4v-3.4c0-1.5-1.2-2.7-2.7-2.7
	c0,0,0,0,0,0h-3.3c-1.5,0-2.7,1.2-2.7,2.7v3.4H5.3C4.6,39.6,4,39,4,38.3V30c0-0.7,0.6-1.3,1.3-1.3c0,0,0,0,0,0h28.3
	c4.2,3.5,10.4,3.5,14.6,0h4.7c0.7,0,1.3,0.6,1.3,1.3c0,0,0,0,0,0L54.1,38.3z"/>
<circle class="st0" cx="41.1" cy="24.3" r="1.6"/>
<rect x="39.8" y="14.1" class="st0" width="2.5" height="7.7"/>
</svg>
