<?xml version="1.0" encoding="utf-8"?>
<!-- Generator: Adobe Illustrator 24.0.1, SVG Export Plug-In . SVG Version: 6.00 Build 0)  -->
<svg version="1.1" id="PICTOS_vectos" xmlns="http://www.w3.org/2000/svg" xmlns:xlink="http://www.w3.org/1999/xlink" x="0px"
	 y="0px" viewBox="0 0 46.1 46.1" style="enable-background:new 0 0 46.1 46.1;" xml:space="preserve">
<style type="text/css">
	.st0{fill:#25465F;}
</style>
<path class="st0" d="M18.3,20.8c-2.6,0-4.6,1-4.7,2.2s2.1,2.2,4.7,2.2s4.6-1,4.6-2.2S20.9,20.8,18.3,20.8z"/>
<path class="st0" d="M43.4,29.1C46,22.3,45,14.8,40.9,8.8c-0.4-0.6-0.9-1.2-1.4-1.7C39,6.5,38,6.4,37.4,7c-0.6,0.6-0.7,1.5-0.1,2.1
	l0,0c1.7,1.9,2.9,4.2,3.7,6.6H12.5c-2.1,0-3.8,1.7-3.8,3.9v7c0,2.1,1.7,3.8,3.8,3.9h0.2v1.3c0,1.3,1.1,2.4,2.4,2.4h0h6.3
	c1.4,0,2.5-1.1,2.5-2.4c0,0,0,0,0-0.1v-1.3h4.7v1c0,1.5,1.2,2.7,2.7,2.7h2.4c1.5,0,2.7-1.2,2.7-2.7l0,0v-1h3.1
	c-4.9,9.2-16.3,12.7-25.6,7.9c-2.6-1.4-4.9-3.4-6.6-5.9C2,24.6,3.1,14.1,9.9,7.7v2.5c0,0.8,0.7,1.5,1.5,1.5s1.5-0.7,1.5-1.5V4.5
	c0-0.8-0.7-1.5-1.5-1.5H5.8C4.9,3,4.3,3.7,4.3,4.5S4.9,6,5.8,6h1.5c-8.5,8.6-8.4,22.5,0.3,31c7.5,7.4,19.3,8.4,27.9,2.4
	c3.5-2.4,6.1-5.8,7.7-9.7C43.3,29.5,43.4,29.3,43.4,29.1z M21,31h-5.2v-0.7H21V31z M33.5,31h-1.8v-5.9h1.8L33.5,31z M36.5,27.3v-2.5
	c0-1.5-1.2-2.7-2.7-2.7l0,0h-2.4c-1.5,0-2.7,1.2-2.7,2.7v2.5H12.5c-0.5,0-0.8-0.4-0.8-0.9v-7c0-0.5,0.4-0.8,0.8-0.9h29.1
	c0.4,2.9,0.2,5.9-0.8,8.7L36.5,27.3z"/>
</svg>
