<?xml version="1.0" encoding="utf-8"?>
<!-- Generator: Adobe Illustrator 23.0.2, SVG Export Plug-In . SVG Version: 6.00 Build 0)  -->
<svg version="1.1" id="Calque_1" xmlns="http://www.w3.org/2000/svg" xmlns:xlink="http://www.w3.org/1999/xlink" x="0px" y="0px"
	 viewBox="0 0 660 660" style="enable-background:new 0 0 660 660;" xml:space="preserve">
<style type="text/css">
	.st0{fill-rule:evenodd;clip-rule:evenodd;fill:#009DCC;}
</style>
<path class="st0" d="M356.3,310c-4.1-12.6-6.3-26-6.3-40c0-71.8,58.2-130,130-130s130,58.2,130,130c0,36.9-15.3,70.2-40,93.8V460
	c0,16.6-13.4,30-30,30h-20v30h-70v-30H340v10c0,5.5-4.5,10-10,10h-40c-5.5,0-10-4.5-10-10v-10H180v30h-70v-30H80
	c-16.6,0-30-13.4-30-30V340c0-16.6,13.4-30,30-30H356.3z M540,385.4c-17.9,9.4-38.4,14.6-60,14.6c-46,0-86.5-23.9-109.6-60H80v120
	h200v-30c0-5.5,4.5-10,10-10h40c5.5,0,10,4.5,10,10v30h200V385.4z M140,375c0,8.3-6.7,15-15,15s-15-6.7-15-15s6.7-15,15-15
	S140,366.7,140,375z M190,375c0,8.3-6.7,15-15,15s-15-6.7-15-15s6.7-15,15-15S190,366.7,190,375z M240,375c0,8.3-6.7,15-15,15
	s-15-6.7-15-15s6.7-15,15-15S240,366.7,240,375z M480,170c-55.1,0-100,44.9-100,100s44.9,100,100,100s100-44.9,100-100
	S535.1,170,480,170z M480.2,250c8.3,0,15,6.7,15,15v60c0,8.3-6.7,15-15,15c-8.3,0-15-6.7-15-15v-60C465.2,256.7,471.9,250,480.2,250
	z M480.2,200c8.3,0,15,6.7,15,15c0,8.3-6.7,15-15,15c-8.3,0-15-6.7-15-15C465.2,206.7,471.9,200,480.2,200z"/>
</svg>
