<?xml version="1.0" encoding="utf-8"?>
<!-- Generator: Adobe Illustrator 24.0.1, SVG Export Plug-In . SVG Version: 6.00 Build 0)  -->
<svg version="1.1" id="PICTOS_vectos" xmlns="http://www.w3.org/2000/svg" xmlns:xlink="http://www.w3.org/1999/xlink" x="0px"
	 y="0px" viewBox="0 0 58.1 58.1" style="enable-background:new 0 0 58.1 58.1;" xml:space="preserve">
<style type="text/css">
	.st0{fill:#25465F;}
</style>
<path class="st0" d="M12.2,31.3c-2.6,0-4.7,1-4.7,2.2s2.1,2.2,4.7,2.2s4.6-1,4.6-2.2C16.9,32.4,14.8,31.4,12.2,31.3z"/>
<path class="st0" d="M35.1,20.8h1.1c0.1,0.3,0.2,0.5,0.3,0.8l-0.8,0.8c-0.6,0.6-0.6,1.5,0,2.1c0.3,0.3,0.7,0.4,1.1,0.4
	c0.4,0,0.8-0.2,1.1-0.4l0.7-0.7c0.3,0.1,0.5,0.3,0.8,0.4v1c0,0.8,0.7,1.5,1.5,1.5s1.5-0.7,1.5-1.5v-1c0.3-0.1,0.6-0.2,0.8-0.4
	l0.7,0.7c0.3,0.3,0.7,0.5,1.1,0.5c0.8,0,1.5-0.7,1.4-1.6c0-0.4-0.2-0.7-0.4-1l-0.7-0.7c0.1-0.3,0.2-0.5,0.3-0.8h1
	c0.8,0,1.5-0.7,1.5-1.5c0-0.8-0.7-1.5-1.5-1.5h-1c-0.1-0.3-0.2-0.5-0.3-0.7l0.8-0.8c0.6-0.6,0.6-1.5,0-2.1s-1.5-0.6-2.1,0l0,0L43,15
	c-0.2-0.1-0.4-0.2-0.7-0.3v-1.2c0-0.8-0.7-1.5-1.5-1.5s-1.5,0.7-1.5,1.5v1.3c-0.2,0.1-0.4,0.2-0.6,0.3l-0.9-0.9
	c-0.6-0.6-1.5-0.6-2.1,0s-0.6,1.5,0,2.1l0.9,0.9c-0.1,0.2-0.2,0.4-0.3,0.7h-1.2c-0.8,0-1.5,0.7-1.5,1.5
	C33.6,20.1,34.2,20.8,35.1,20.8z M39.8,17.8c0.3-0.2,0.7-0.4,1.1-0.4c1.1,0,2,0.8,2,1.9c0,0.7-0.3,1.3-0.9,1.7
	c-0.9,0.6-2.1,0.4-2.7-0.5c0,0,0,0,0,0C39,20.1,38.9,19.5,39,19c0.1-0.5,0.4-0.9,0.8-1.2V17.8z"/>
<path class="st0" d="M52.9,25.1h-2.2c0.7-1.2,1.2-2.5,1.5-3.9c1.1-6.2-3-12.1-9.2-13.2c-3-0.5-6.1,0.2-8.5,1.9
	C29.4,13.4,28,20,31.1,25.1H5.3C2.9,25.1,1,27,1,29.4v8.3C1,40.1,2.9,42,5.3,42h0.6v2c0,1.3,1.1,2.4,2.4,2.4h7.8
	c1.3,0,2.4-1.1,2.4-2.4v-2h6.2v1.7c0,1.5,1.2,2.7,2.7,2.7l0,0h3.3c1.5,0,2.7-1.2,2.7-2.7c0,0,0,0,0,0V42h6.2v2
	c0,1.3,1.1,2.4,2.4,2.4h7.8c1.3,0,2.4-1.1,2.4-2.4v-2h0.6c2.4,0,4.3-1.9,4.3-4.3v-8.3C57.1,27,55.2,25.1,52.9,25.1z M36.1,12.4
	c1.4-1,3.1-1.5,4.8-1.5c2.7,0,5.3,1.3,6.9,3.6c2.7,3.8,1.7,9-2.1,11.7c-3.8,2.7-9,1.7-11.7-2.1C31.3,20.3,32.3,15,36.1,12.4z
	 M15.6,43.4H8.9V42h6.7L15.6,43.4z M30.4,43.4h-2.7v-7.5h2.7L30.4,43.4z M49.3,43.4h-6.7V42h6.7L49.3,43.4z M54.1,37.7
	c0,0.7-0.6,1.3-1.3,1.3l0,0H33.4v-3.4c0-1.5-1.2-2.7-2.7-2.7h-3.3c-1.5,0-2.7,1.2-2.7,2.7c0,0,0,0,0,0V39H5.3C4.6,39,4,38.4,4,37.7
	c0,0,0,0,0,0v-8.3c0-0.7,0.6-1.3,1.3-1.3h0h28.4c4,3.2,9.5,3.4,13.7,0.5c0.2-0.1,0.4-0.3,0.6-0.5h4.8c0.7,0,1.3,0.6,1.3,1.3
	c0,0,0,0,0,0V37.7z"/>
</svg>
