<?xml version="1.0" encoding="utf-8"?>
<!-- Generator: Adobe Illustrator 24.0.1, SVG Export Plug-In . SVG Version: 6.00 Build 0)  -->
<svg version="1.1" id="PICTOS_vectos" xmlns="http://www.w3.org/2000/svg" xmlns:xlink="http://www.w3.org/1999/xlink" x="0px"
	 y="0px" viewBox="0 0 65.4 65.4" style="enable-background:new 0 0 65.4 65.4;" xml:space="preserve">
<style type="text/css">
	.st0{fill:#25465F;}
</style>
<path class="st0" d="M39.6,36.7c-2.6,0-4.6,1-4.6,2.2s2.1,2.2,4.7,2.2s4.6-1,4.6-2.2C44.3,37.8,42.2,36.7,39.6,36.7z"/>
<path class="st0" d="M60.7,15.7H24c-2,0-3.6,1.6-3.7,3.6l-2.7,24.1c0,0.1,0,0.1,0,0.2c0,2,1.7,3.7,3.7,3.7c0,0,0,0,0,0h8.6
	c-1.3,0.8-2.5,1.9-3.5,3.1C25.9,51,26,52,26.6,52.5s1.6,0.4,2.1-0.2c2.7-3.1,6.7-4.9,10.9-4.8c4.2-0.1,8.3,1.7,11,4.9
	c0.3,0.4,0.7,0.6,1.2,0.6c0.3,0,0.7-0.1,0.9-0.3c0.6-0.5,0.8-1.4,0.3-2.1c-1-1.3-2.2-2.4-3.6-3.2H58c2,0,3.6-1.6,3.7-3.6l2.7-24.1
	c0-0.1,0-0.1,0-0.2C64.4,17.4,62.7,15.7,60.7,15.7z M58.7,43.4c0,0,0,0.1,0,0.2c0,0.4-0.3,0.7-0.7,0.7l0,0H21.3
	c-0.4,0-0.7-0.3-0.7-0.6l2.7-24.1c0-0.1,0-0.1,0-0.2c0-0.4,0.3-0.7,0.7-0.7h36.7c0.4,0,0.7,0.3,0.7,0.6L58.7,43.4z"/>
<path class="st0" d="M35.3,25.6c0-1-0.8-1.9-1.9-1.9c-0.1,0-0.2,0-0.3,0h-3.6l-1.7,8H32c1.4,0.2,2.6-0.8,2.8-2.2c0-0.1,0-0.2,0-0.2
	c0.1-0.7-0.4-1.4-1-1.6C34.7,27.4,35.3,26.6,35.3,25.6z M31.8,30.1h-1.7l0.4-1.7h1.7c0.4,0,0.7,0.3,0.7,0.7c0,0,0,0.1,0,0.1
	C32.8,29.7,32.4,30.2,31.8,30.1C31.8,30.1,31.8,30.1,31.8,30.1z M32.4,26.8h-1.7l0.3-1.6h1.7c0.3,0,0.6,0.2,0.7,0.5c0,0,0,0.1,0,0.1
	c0,0.5-0.4,0.9-0.9,0.9C32.5,26.9,32.5,26.9,32.4,26.8z"/>
<path class="st0" d="M35.9,31.4c0.7,0.3,1.4,0.5,2.2,0.5c2.1,0,3.9-1.6,3.9-3.7c0-0.1,0-0.2,0-0.3c0.2-1.2-0.7-2.3-1.9-2.5
	c-0.1,0-0.3,0-0.4,0c-0.4,0-0.9,0.1-1.2,0.4l0.6-2.4h-1.9l-1.6,7.4C35.5,31.1,35.6,31.3,35.9,31.4z M37.5,29.9l0.5-2.1
	c0.1-0.6,0.6-1,1.2-1c0.7,0,1,0.4,1,1.1c0,1.2-0.7,2.4-1.8,2.4c-0.2,0-0.5,0-0.7-0.1C37.5,30.1,37.5,30.1,37.5,29.9z"/>
<path class="st0" d="M46.2,25.3c-2.1,0.1-3.8,1.9-3.6,4.1c-0.1,1.3,0.9,2.5,2.2,2.6c0.2,0,0.3,0,0.5,0c2.2,0,3.6-2.1,3.6-4.1
	c0.1-1.3-0.9-2.5-2.2-2.6C46.5,25.2,46.4,25.2,46.2,25.3z M45.4,30.3c-0.7,0-1-0.4-1-1.1c0-1,0.6-2.3,1.7-2.3c0.7,0,1,0.4,1,1.1
	C47.1,28.9,46.4,30.3,45.4,30.3L45.4,30.3z"/>
<path class="st0" d="M53.6,25.4l-1.2,1.8c-0.1,0.1-0.1,0.1-0.1,0.1s-0.1,0-0.1-0.1l-0.6-1.8h-1.9l1.1,3l-2.4,3.3h2l1.3-1.9
	c0.1-0.1,0.1-0.1,0.2-0.1s0.1,0,0.1,0.1l0.5,1.9h1.9l-1.1-3.2l2.3-3.1L53.6,25.4z"/>
<path class="st0" d="M16.3,23.8H7.5c-0.8,0-1.5,0.7-1.5,1.5c0,0.8,0.7,1.5,1.5,1.5h8.8c0.8,0,1.5-0.7,1.5-1.5
	C17.8,24.5,17.2,23.8,16.3,23.8z"/>
<path class="st0" d="M15.3,29.8H2.5c-0.8,0-1.5,0.7-1.5,1.5c0,0.8,0.7,1.5,1.5,1.5h12.8c0.8,0,1.5-0.7,1.5-1.5
	C16.8,30.5,16.2,29.8,15.3,29.8z"/>
<path class="st0" d="M14.3,35.8h-3.8c-0.8,0-1.5,0.7-1.5,1.5s0.7,1.5,1.5,1.5h3.8c0.8,0,1.5-0.7,1.5-1.5S15.2,35.8,14.3,35.8z"/>
</svg>
