<?xml version="1.0" encoding="utf-8"?>
<!-- Generator: Adobe Illustrator 24.0.1, SVG Export Plug-In . SVG Version: 6.00 Build 0)  -->
<svg version="1.1" id="PICTOS_vectos" xmlns="http://www.w3.org/2000/svg" xmlns:xlink="http://www.w3.org/1999/xlink" x="0px"
	 y="0px" viewBox="0 0 58.1 58.1" style="enable-background:new 0 0 58.1 58.1;" xml:space="preserve">
<style type="text/css">
	.st0{fill:#25465F;}
</style>
<path class="st0" d="M12.2,31.5c-2.6,0-4.7,1-4.7,2.2s2.1,2.2,4.7,2.2s4.6-1,4.6-2.2C16.9,32.5,14.8,31.5,12.2,31.5z"/>
<path class="st0" d="M52.9,25.3h-2.2c1.1-1.8,1.6-3.8,1.6-5.9c0-6.3-5.1-11.4-11.4-11.5S29.5,13,29.5,19.3c0,2.1,0.6,4.2,1.7,6H5.3
	c-2.4,0-4.3,1.9-4.3,4.3v8.3c0,2.4,1.9,4.3,4.3,4.3l0,0h0.6v2c0,1.3,1.1,2.4,2.4,2.4h7.8c1.3,0,2.4-1.1,2.4-2.4v-2h6.2v1.7
	c0,1.5,1.2,2.7,2.7,2.7l0,0h3.3c1.5,0,2.7-1.2,2.7-2.7c0,0,0,0,0,0v-1.7h6.2v2c0,1.3,1.1,2.4,2.4,2.4h7.8c1.3,0,2.4-1.1,2.4-2.4v-2
	h0.6c2.4,0,4.3-1.9,4.3-4.3l0,0v-8.3C57.1,27.2,55.2,25.3,52.9,25.3z M40.9,11c4.6,0,8.4,3.8,8.4,8.4c0,4.6-3.8,8.4-8.4,8.4
	s-8.4-3.8-8.4-8.4c0,0,0,0,0,0C32.5,14.8,36.2,11,40.9,11z M15.6,43.5H8.9v-1.4h6.7V43.5z M30.4,43.5h-2.7V36h2.7V43.5z M49.3,43.5
	h-6.7v-1.4h6.7V43.5z M54.1,37.9c0,0.7-0.6,1.3-1.3,1.3l0,0H33.4v-3.4c0-1.5-1.2-2.7-2.7-2.7h-3.3c-1.5,0-2.7,1.2-2.7,2.7v3.4H5.3
	c-0.7,0-1.3-0.6-1.3-1.3c0,0,0,0,0,0v-8.3c0-0.7,0.6-1.3,1.3-1.3c0,0,0,0,0,0h28.5c4.2,3.4,10.1,3.4,14.3,0h4.8
	c0.7,0,1.3,0.6,1.3,1.3c0,0,0,0,0,0L54.1,37.9z"/>
<path class="st0" d="M39,24.4c0.4,0,0.8-0.2,1.1-0.4l7-7c0.6-0.6,0.6-1.5,0-2.1c-0.6-0.6-1.5-0.6-2.1,0c0,0,0,0,0,0l-6,6l-2.3-2.3
	c-0.6-0.6-1.5-0.6-2.1-0.1S34,20,34.5,20.7c0,0,0,0.1,0.1,0.1L38,24C38.3,24.3,38.6,24.4,39,24.4z"/>
</svg>
