<?xml version="1.0" encoding="utf-8"?>
<!-- Generator: Adobe Illustrator 24.0.1, SVG Export Plug-In . SVG Version: 6.00 Build 0)  -->
<svg version="1.1" id="PICTOS_vectos" xmlns="http://www.w3.org/2000/svg" xmlns:xlink="http://www.w3.org/1999/xlink" x="0px"
	 y="0px" viewBox="0 0 58.1 58.1" style="enable-background:new 0 0 58.1 58.1;" xml:space="preserve">
<style type="text/css">
	.st0{fill:#25465F;}
</style>
<path class="st0" d="M52.9,18.4H5.3c-2.4,0-4.3,1.9-4.3,4.3V31c0,2.4,1.9,4.3,4.3,4.3h0.6v2c0,1.3,1.1,2.4,2.4,2.4l0,0h7.8
	c1.3,0,2.4-1.1,2.4-2.4l0,0v-2h6.2V37c0,1.5,1.2,2.7,2.7,2.7h3.3c1.5,0,2.7-1.2,2.7-2.7c0,0,0,0,0,0v-1.7h6.2v2
	c0,1.3,1.1,2.4,2.4,2.4h7.8c1.3,0,2.4-1.1,2.4-2.4v-2h0.6c2.4,0,4.3-1.9,4.3-4.3v-8.3C57.1,20.3,55.2,18.4,52.9,18.4z M15.6,36.7
	H8.9v-1.4h6.7V36.7z M30.4,36.7h-2.7v-7.6h2.7V36.7z M49.3,36.7h-6.7v-1.4h6.7V36.7z M54.1,31c0,0.7-0.6,1.3-1.3,1.3l0,0H33.4v-3.4
	c0-1.5-1.2-2.7-2.7-2.7h-3.3c-1.5,0-2.7,1.2-2.7,2.7v3.4H5.3C4.6,32.3,4,31.7,4,31c0,0,0,0,0,0v-8.3c0-0.7,0.6-1.3,1.3-1.3
	c0,0,0,0,0,0h47.6c0.7,0,1.3,0.6,1.3,1.3c0,0,0,0,0,0L54.1,31z"/>
<path class="st0" d="M12.2,24.6c-2.6,0-4.7,1-4.7,2.2c0,1.2,2.1,2.2,4.7,2.2s4.6-1,4.6-2.2S14.8,24.6,12.2,24.6z"/>
</svg>
