<?xml version="1.0" encoding="utf-8"?>
<!-- Generator: Adobe Illustrator 24.0.1, SVG Export Plug-In . SVG Version: 6.00 Build 0)  -->
<svg version="1.1" id="PICTOS_vectos" xmlns="http://www.w3.org/2000/svg" xmlns:xlink="http://www.w3.org/1999/xlink" x="0px"
	 y="0px" viewBox="0 0 46.2 46.2" style="enable-background:new 0 0 46.2 46.2;" xml:space="preserve">
<style type="text/css">
	.st0{fill:#25465F;}
</style>
<path class="st0" d="M15.1,17.9c0.9-0.3,1.5-1.3,1.4-2.2c0-1.6-1.1-2.6-2.9-2.6H8.5v10.3h5.2c2,0,3.2-1.1,3.2-2.9
	C17,19.2,16.2,18.2,15.1,17.9z M10.9,15h2.3c0.5-0.1,0.9,0.3,1,0.7c0,0.1,0,0.2,0,0.3c0.1,0.5-0.3,0.9-0.7,1c-0.1,0-0.2,0-0.3,0
	h-2.3V15z M13.3,21.3h-2.4v-2.2h2.4c0.6,0,1,0.4,1.1,0.9c0,0.1,0,0.1,0,0.2c0,0.6-0.4,1-0.9,1.1C13.4,21.3,13.4,21.3,13.3,21.3z"/>
<path class="st0" d="M29.6,23.3v-2h-1c-0.3,0-0.6-0.2-0.7-0.5c0-0.1,0-0.1,0-0.2v-3.4h1.7v-2h-1.7v-1.9h-1.8l-0.4,1.5
	c-0.1,0.4-0.2,0.4-0.6,0.5l-0.8,0.1v1.8h1.3v3.9c-0.1,1.1,0.6,2,1.7,2.2c0.2,0,0.3,0,0.5,0L29.6,23.3z"/>
<path class="st0" d="M34.3,21c0,0.1,0,0.2-0.2,0.2l0,0c-0.1,0-0.1,0-0.2-0.2l-1.3-5.8h-2.5l1.8,7.1c0.1,0.6,0.6,1.1,1.2,1
	c0,0,0.1,0,0.1,0h1.6c0.6,0.1,1.2-0.3,1.3-0.9c0,0,0-0.1,0-0.1l1.8-7.1h-2.4L34.3,21z"/>
<path class="st0" d="M22,20.1c1.1-1.6,1.4-3.4,0.6-4s-2.4,0.4-3.5,2s-1.4,3.4-0.6,3.9S20.9,21.8,22,20.1z"/>
<path class="st0" d="M41.2,7.7H5.1c-1.9,0-3.5,1.6-3.5,3.5v23.9c0,1.9,1.6,3.5,3.5,3.5h36.1c1.9,0,3.5-1.6,3.5-3.5V11.2
	C44.7,9.2,43.1,7.7,41.2,7.7z M41.7,35.1c0,0.3-0.2,0.5-0.5,0.5H5.1c-0.3,0-0.5-0.2-0.5-0.5V11.2c0-0.3,0.2-0.5,0.5-0.5h36.1
	c0.3,0,0.5,0.2,0.5,0.5V35.1z"/>
<rect x="8.6" y="27.8" class="st0" width="1.4" height="5.1"/>
<path class="st0" d="M9.4,25.8c-0.5,0-0.8,0.4-0.8,0.8c0,0.5,0.4,0.8,0.8,0.8c0.5,0,0.8-0.4,0.8-0.8C10.2,26.2,9.8,25.8,9.4,25.8
	C9.4,25.8,9.4,25.8,9.4,25.8z"/>
<path class="st0" d="M12.6,31.2V26h-1.5v5.5c-0.1,0.7,0.4,1.3,1.1,1.4c0.1,0,0.2,0,0.3,0h0.7v-1.3h-0.3
	C12.7,31.6,12.6,31.4,12.6,31.2z"/>
<path class="st0" d="M15.2,31.2V26h-1.4v5.5c-0.1,0.7,0.4,1.3,1.1,1.4c0.1,0,0.2,0,0.3,0h0.7v-1.3h-0.3
	C15.4,31.6,15.2,31.4,15.2,31.2z"/>
<path class="st0" d="M17.3,25.8c-0.5,0-0.8,0.4-0.8,0.8s0.4,0.8,0.8,0.8s0.8-0.4,0.8-0.8S17.8,25.8,17.3,25.8z"/>
<rect x="16.6" y="27.8" class="st0" width="1.5" height="5.1"/>
<path class="st0" d="M24.1,27.6c-0.5,0-1,0.2-1.4,0.5c-0.4-0.3-1-0.5-1.5-0.5c-1.2,0-2.1,0.7-2.1,1.8v3.4h1.5v-3.3
	c0-0.3,0.2-0.6,0.5-0.6c0,0,0.1,0,0.1,0c0.3,0,0.6,0.2,0.6,0.4c0,0.1,0,0.1,0,0.2v3.3h1.4v-3.3c0-0.3,0.2-0.6,0.5-0.6
	c0,0,0.1,0,0.1,0c0.3,0,0.6,0.2,0.6,0.4c0,0.1,0,0.1,0,0.2v3.3H26v-3.4c0-1-0.7-1.8-1.7-1.8C24.2,27.6,24.2,27.6,24.1,27.6z"/>
<path class="st0" d="M27.8,25.8c-0.5,0-0.8,0.4-0.8,0.8s0.4,0.8,0.8,0.8s0.8-0.4,0.8-0.8S28.3,25.8,27.8,25.8z"/>
<rect x="27.1" y="27.8" class="st0" width="1.5" height="5.1"/>
<path class="st0" d="M31.4,26.6h-1.1l-0.2,0.9c-0.1,0.2-0.1,0.3-0.4,0.3l-0.5,0.1V29H30v2.4c-0.1,0.7,0.4,1.3,1.1,1.4
	c0.1,0,0.2,0,0.3,0h1.1v-1.3h-0.6c-0.2,0-0.4-0.1-0.4-0.3c0,0,0-0.1,0-0.1V29h1v-1.3h-1L31.4,26.6z"/>
<polygon class="st0" points="36.8,26 35.2,26 34.5,27.3 35.7,27.3 "/>
<path class="st0" d="M37.8,30c0.1-1.2-0.8-2.3-2.1-2.4c-0.1,0-0.2,0-0.3,0c-1.3-0.1-2.4,1-2.5,2.3c0,0.1,0,0.2,0,0.4
	c0,1.7,0.9,2.7,2.5,2.7c1.1,0.1,2.1-0.5,2.3-1.6l-1.3-0.3c0,0.4-0.4,0.6-0.9,0.6s-1-0.2-1.1-1h3.1C37.7,30.7,37.8,30.5,37.8,30z
	 M34.4,29.7c0-0.5,0.4-0.9,0.9-0.9c0,0,0,0,0.1,0c0.5,0,0.8,0.3,0.9,0.9H34.4z"/>
</svg>
