<?xml version="1.0" encoding="utf-8"?>
<!-- Generator: Adobe Illustrator 24.0.1, SVG Export Plug-In . SVG Version: 6.00 Build 0)  -->
<svg version="1.1" id="PICTOS_vectos" xmlns="http://www.w3.org/2000/svg" xmlns:xlink="http://www.w3.org/1999/xlink" x="0px"
	 y="0px" viewBox="0 0 46.2 46.2" style="enable-background:new 0 0 46.2 46.2;" xml:space="preserve">
<style type="text/css">
	.st0{fill:#25465F;}
</style>
<path class="st0" d="M15.1,22.9c0.9-0.3,1.5-1.3,1.4-2.2c0-1.6-1.1-2.6-2.9-2.6H8.5v10.3h5.2c2,0,3.2-1.1,3.2-2.9
	C17,24.2,16.2,23.2,15.1,22.9z M10.9,20h2.3c0.5-0.1,0.9,0.3,1,0.8c0,0.1,0,0.2,0,0.2c0.1,0.5-0.3,0.9-0.8,1c-0.1,0-0.2,0-0.2,0
	h-2.3L10.9,20z M13.3,26.3h-2.4v-2.2h2.4c0.6,0,1,0.4,1.1,0.9c0,0.1,0,0.1,0,0.2c0,0.6-0.4,1-0.9,1.1C13.4,26.3,13.4,26.3,13.3,26.3
	z"/>
<path class="st0" d="M27.9,18.3h-1.8l-0.4,1.5c-0.1,0.4-0.2,0.4-0.6,0.5l-0.8,0.1v1.8h1.3v3.9c-0.1,1.1,0.7,2.1,1.8,2.2
	c0.1,0,0.2,0,0.4,0h1.8v-2h-1c-0.3,0-0.6-0.2-0.7-0.5c0-0.1,0-0.1,0-0.2v-3.4h1.7v-2h-1.7V18.3z"/>
<path class="st0" d="M34.3,26c0,0.1,0,0.2-0.2,0.2l0,0c-0.1,0-0.1,0-0.2-0.2l-1.3-5.8h-2.5l1.8,7.1c0.1,0.6,0.6,1.1,1.2,1
	c0,0,0.1,0,0.1,0h1.6c0.8,0,1.1-0.2,1.3-1l1.8-7.1h-2.4L34.3,26z"/>
<path class="st0" d="M19.2,23.2c-1.1,1.6-1.4,3.4-0.6,3.9s2.3-0.3,3.5-2s1.4-3.4,0.6-4S20.3,21.6,19.2,23.2z"/>
<path class="st0" d="M41.2,7.7H5.1c-1.9,0-3.5,1.6-3.5,3.5v23.9c0,1.9,1.6,3.5,3.5,3.5h36.1c1.9,0,3.5-1.6,3.5-3.5V11.2
	C44.7,9.2,43.1,7.7,41.2,7.7z M41.7,35.1c0,0.3-0.2,0.5-0.5,0.5H5.1c-0.3,0-0.5-0.2-0.5-0.5V11.2c0-0.3,0.2-0.5,0.5-0.5h36.1
	c0.3,0,0.5,0.2,0.5,0.5V35.1z"/>
</svg>
