<?xml version="1.0" encoding="utf-8"?>
<!-- Generator: Adobe Illustrator 24.0.1, SVG Export Plug-In . SVG Version: 6.00 Build 0)  -->
<svg version="1.1" id="PICTOS_vectos" xmlns="http://www.w3.org/2000/svg" xmlns:xlink="http://www.w3.org/1999/xlink" x="0px"
	 y="0px" viewBox="0 0 46.2 46.2" style="enable-background:new 0 0 46.2 46.2;" xml:space="preserve">
<style type="text/css">
	.st0{fill:#25465F;}
</style>
<path class="st0" d="M15.9,20.9c0-1.6-1.1-2.6-2.9-2.6H7.9v10.3h5.2c2,0,3.2-1.1,3.2-2.9c0.1-1.2-0.7-2.2-1.8-2.5
	C15.4,22.8,16,21.9,15.9,20.9z M10.3,20.3h2.3c0.5-0.1,0.9,0.3,1,0.7c0,0.1,0,0.2,0,0.3c0.1,0.5-0.3,0.9-0.7,1c-0.1,0-0.2,0-0.3,0
	h-2.3L10.3,20.3z M12.8,26.6h-2.4v-2.2h2.4c0.6,0,1,0.4,1.1,0.9c0,0.1,0,0.1,0,0.2c0.1,0.5-0.3,1-0.9,1.1
	C12.9,26.6,12.8,26.6,12.8,26.6z"/>
<path class="st0" d="M29,22.5v-2h-1.7v-1.9h-1.8l-0.4,1.5c-0.1,0.4-0.2,0.4-0.7,0.5l-0.8,0.1v1.8H25v3.9c-0.1,1.1,0.7,2.1,1.8,2.2
	c0.1,0,0.2,0,0.4,0H29v-2h-1c-0.3,0-0.6-0.2-0.7-0.5c0-0.1,0-0.1,0-0.2v-3.4H29z"/>
<path class="st0" d="M31.4,27.6c0.2,0.7,0.5,1,1.3,1h1.6c0.8,0,1.1-0.2,1.3-1l1.8-7.1H35l-1.3,5.8c0,0.1,0,0.2-0.2,0.2l0,0
	c-0.1,0-0.1,0-0.2-0.2l-1.3-5.8h-2.4L31.4,27.6z"/>
<path class="st0" d="M18.6,23.5c-1.1,1.6-1.4,3.4-0.6,3.9s2.3-0.3,3.5-2s1.4-3.4,0.6-4S19.7,21.9,18.6,23.5z"/>
<path class="st0" d="M42.6,20.1c-0.8,0-1.5,0.7-1.5,1.5l0,0v13.6c0,0.4-0.3,0.7-0.7,0.7l0,0H4.6c-0.4,0-0.7-0.3-0.7-0.7V11.6
	C4,11.3,4.3,11,4.6,11c0,0,0,0,0,0h25.8c0.8,0,1.5-0.7,1.5-1.5S31.2,8,30.4,8H4.6C2.6,8,1,9.6,1,11.6c0,0,0,0,0,0v23.6
	c0,2,1.6,3.6,3.7,3.6h35.8c2,0,3.7-1.6,3.7-3.6c0,0,0,0,0,0V21.6C44.1,20.8,43.4,20.1,42.6,20.1L42.6,20.1z"/>
<path class="st0" d="M43.7,11h-2.7V8.3c0-0.8-0.7-1.5-1.5-1.5s-1.5,0.7-1.5,1.5V11h-2.7c-0.8,0-1.5,0.7-1.5,1.5s0.7,1.5,1.5,1.5h2.7
	v2.7c0,0.8,0.7,1.5,1.5,1.5s1.5-0.7,1.5-1.5V14h2.7c0.8,0,1.5-0.7,1.5-1.5S44.6,11,43.7,11z"/>
</svg>
