<svg id="PICTOS_vectos" xmlns="http://www.w3.org/2000/svg" viewBox="0 0 46 46"><defs><style>.cls-1{fill:#25465f;}</style></defs><path class="cls-1" d="M26.72,23.51a10.23,10.23,0,1,0-15.61,0c-3.86,2.91-7.21,8-9.78,14.73a1.49,1.49,0,0,0,.08,1.22c.28.54,3.18,5.29,17.51,5.29S36.13,40,36.41,39.47a1.5,1.5,0,0,0,.07-1.21C34,31.48,30.62,26.43,26.72,23.51ZM18.91,9.7a7.23,7.23,0,1,1-7.23,7.22A7.23,7.23,0,0,1,18.91,9.7Zm0,32.07c-9.8,0-13.39-2.31-14.47-3.27,2.42-6.06,5.57-10.6,9-12.95A10.19,10.19,0,0,0,17.18,27a1.5,1.5,0,0,0,0,.22v.49a1.5,1.5,0,0,0,1.5,1.5h.49a1.5,1.5,0,0,0,1.5-1.5v-.49a1.5,1.5,0,0,0,0-.22,10.18,10.18,0,0,0,3.76-1.46c3.46,2.35,6.61,6.89,9,13C32.27,39.48,28.69,41.77,18.92,41.77Z"/><path class="cls-1" d="M18.93,30.05c-1.23,0-2.23,2.14-2.25,4.71s1,4.58,2.19,4.58,2.24-2.06,2.26-4.63S20.16,30.06,18.93,30.05Z"/><path class="cls-1" d="M43.54,2.46A1.66,1.66,0,0,0,42.39,2c-1.09,0-2.09,1.09-3,2L39,4.46l-.6.65L30.75,4.4a1,1,0,0,0-1.08.68,1.12,1.12,0,0,0,.46,1.29l4.4,2.84-2.68,2.87L31.42,12a1,1,0,0,0-1.11.55,1,1,0,0,0,.18,1.23l1.73,1.73a1.08,1.08,0,0,0,.75.31,1.06,1.06,0,0,0,1-1.24l-.07-.42,2.87-2.68,2.83,4.39a1.12,1.12,0,0,0,.94.52,1.07,1.07,0,0,0,.35-.06,1,1,0,0,0,.68-1.08l-.71-7.6.41-.38L41.54,7,42,6.59c.94-.88,2-1.89,2-3A1.6,1.6,0,0,0,43.54,2.46Z"/></svg>