<?xml version="1.0" encoding="utf-8"?>
<!-- Generator: Adobe Illustrator 24.0.1, SVG Export Plug-In . SVG Version: 6.00 Build 0)  -->
<svg version="1.1" id="PICTOS_vectos" xmlns="http://www.w3.org/2000/svg" xmlns:xlink="http://www.w3.org/1999/xlink" x="0px"
	 y="0px" viewBox="0 0 46.1 46.1" style="enable-background:new 0 0 46.1 46.1;" xml:space="preserve">
<style type="text/css">
	.st0{fill:#25465F;}
</style>
<path class="st0" d="M9.7,10.3c1.2,0,2.2-2.1,2.2-4.7S11,1,9.7,1S7.5,3.1,7.5,5.6S8.4,10.3,9.7,10.3z"/>
<path class="st0" d="M26.5,10.3c1.2,0,2.2-2.1,2.2-4.7S27.8,1,26.5,1s-2.2,2.1-2.2,4.6S25.3,10.3,26.5,10.3z"/>
<path class="st0" d="M14.6,7.2h7.1c0.8,0,1.5-0.7,1.5-1.5s-0.7-1.5-1.5-1.5h-7.1c-0.8,0-1.5,0.7-1.5,1.5S13.8,7.2,14.6,7.2z"/>
<path class="st0" d="M38.1,32.1h-2.9v-4.2c0-0.8-0.7-1.5-1.5-1.5s-1.5,0.7-1.5,1.5l0,0v5.7c0,0.8,0.7,1.5,1.5,1.5h4.4
	c0.8,0,1.5-0.7,1.5-1.5S38.9,32.1,38.1,32.1z"/>
<path class="st0" d="M43,27c-1.7-2.5-4.4-4.2-7.4-4.7c-0.1,0-0.3,0-0.4,0V8c0-2.1-1.7-3.8-3.9-3.8c-0.8,0-1.5,0.7-1.5,1.5
	s0.7,1.5,1.5,1.5c0.5,0,0.8,0.4,0.9,0.8v5.3H4V8c0-0.5,0.4-0.8,0.8-0.8c0.8,0,1.5-0.7,1.5-1.5S5.7,4.2,4.8,4.2C2.7,4.2,1,5.9,1,8
	l0,0v26.8c0,2.1,1.7,3.8,3.8,3.8l0,0h18.6c0.3,0.5,0.5,1,0.9,1.5c3.6,5.2,10.7,6.4,15.9,2.8S46.6,32.2,43,27L43,27z M4.8,35.6
	c-0.5,0-0.8-0.4-0.8-0.8l0,0V16.3h28.2v5.9C26,23,21.6,28.7,22.3,35c0,0.2,0.1,0.4,0.1,0.6H4.8z M41.9,35c-0.4,2.2-1.6,4.2-3.5,5.4
	c-3.8,2.7-9,1.7-11.7-2.1c-2.7-3.8-1.7-9,2.1-11.7c1.4-1,3.1-1.5,4.8-1.5h0.1c0.4,0,0.9,0,1.3,0.1C39.7,26.1,42.7,30.4,41.9,35
	C41.9,35,41.9,35,41.9,35z"/>
</svg>
