<?xml version="1.0" encoding="utf-8"?>
<!-- Generator: Adobe Illustrator 24.0.1, SVG Export Plug-In . SVG Version: 6.00 Build 0)  -->
<svg version="1.1" id="PICTOS_vectos" xmlns="http://www.w3.org/2000/svg" xmlns:xlink="http://www.w3.org/1999/xlink" x="0px"
	 y="0px" viewBox="0 0 46.1 46.1" style="enable-background:new 0 0 46.1 46.1;" xml:space="preserve">
<style type="text/css">
	.st0{fill:#25465F;}
</style>
<path class="st0" d="M9.7,10.3c1.2,0,2.2-2.1,2.2-4.7S11,1,9.7,1S7.5,3.1,7.5,5.6S8.4,10.3,9.7,10.3z"/>
<path class="st0" d="M26.5,10.3c1.2,0,2.2-2.1,2.2-4.7S27.8,1,26.5,1s-2.2,2.1-2.2,4.6S25.3,10.3,26.5,10.3z"/>
<path class="st0" d="M14.6,7.2h7.1c0.8,0,1.5-0.7,1.5-1.5s-0.7-1.5-1.5-1.5h-7.1c-0.8,0-1.5,0.7-1.5,1.5S13.8,7.2,14.6,7.2z"/>
<path class="st0" d="M35.2,22.3V8c0-2.1-1.7-3.8-3.8-3.8c-0.8,0-1.5,0.7-1.5,1.5s0.7,1.5,1.5,1.5l0,0c0.5,0,0.8,0.4,0.8,0.8
	c0,0,0,0,0,0v5.3H4V8c0-0.5,0.4-0.8,0.8-0.8c0.8,0,1.5-0.7,1.5-1.5S5.7,4.1,4.8,4.1C2.7,4.2,1,5.9,1,8v26.8c0,2.1,1.7,3.8,3.8,3.8
	l0,0h18.5c2.7,5.7,9.6,8,15.2,5.3c5.7-2.7,8-9.6,5.3-15.2C42.2,25.2,39,22.9,35.2,22.3z M4.8,35.6c-0.5,0-0.8-0.4-0.8-0.8V16.3h28.2
	v6c-5.7,0.7-10,5.6-10,11.3c0,0.7,0.1,1.3,0.2,2L4.8,35.6z M33.6,42c-3.3,0-6.4-1.9-7.7-5c0-0.3-0.1-0.5-0.3-0.7
	c-0.3-0.8-0.4-1.7-0.4-2.6c0-4.6,3.7-8.4,8.3-8.5c4.6,0,8.4,3.7,8.5,8.3S38.3,42,33.6,42C33.7,42,33.6,42,33.6,42z"/>
<rect x="32.5" y="31.9" class="st0" width="2.5" height="7.7"/>
<circle class="st0" cx="33.8" cy="29.3" r="1.6"/>
</svg>
