<?xml version="1.0" encoding="utf-8"?>
<!-- Generator: Adobe Illustrator 24.0.1, SVG Export Plug-In . SVG Version: 6.00 Build 0)  -->
<svg version="1.1" id="PICTOS_vectos" xmlns="http://www.w3.org/2000/svg" xmlns:xlink="http://www.w3.org/1999/xlink" x="0px"
	 y="0px" viewBox="0 0 46.1 46.1" style="enable-background:new 0 0 46.1 46.1;" xml:space="preserve">
<style type="text/css">
	.st0{fill:#25465F;}
</style>
<path class="st0" d="M9.7,10.3c1.2,0,2.2-2.1,2.2-4.7S11,1,9.7,1S7.5,3.1,7.5,5.6S8.4,10.3,9.7,10.3z"/>
<path class="st0" d="M26.5,10.3c1.2,0,2.2-2.1,2.2-4.7S27.8,1,26.5,1s-2.2,2.1-2.2,4.6S25.3,10.3,26.5,10.3z"/>
<path class="st0" d="M14.6,7.2h7.1c0.8,0,1.5-0.7,1.5-1.5s-0.7-1.5-1.5-1.5h-7.1c-0.8,0-1.5,0.7-1.5,1.5S13.8,7.2,14.6,7.2z"/>
<path class="st0" d="M35.2,22.3V8c0-2.1-1.7-3.8-3.9-3.8c-0.8,0-1.5,0.7-1.5,1.5s0.7,1.5,1.5,1.5c0.5,0,0.8,0.4,0.8,0.8c0,0,0,0,0,0
	v5.3H4V8c0-0.5,0.4-0.8,0.8-0.8c0,0,0,0,0,0c0.8,0,1.5-0.7,1.5-1.5S5.7,4.2,4.8,4.2C2.7,4.2,1,5.9,1,8l0,0v26.8
	c0,2.1,1.7,3.8,3.8,3.8l0,0h18.7c2.8,5.6,9.6,8,15.3,5.2c5.6-2.8,8-9.6,5.2-15.3C42.3,25.1,39,22.8,35.2,22.3z M4.8,35.6
	c-0.5,0-0.8-0.4-0.8-0.8V16.3h28.2v6C26,23.1,21.6,28.8,22.4,35c0,0.2,0.1,0.4,0.1,0.6H4.8z M33.7,42c-4.6,0-8.4-3.8-8.4-8.4
	c0-4.6,3.8-8.4,8.4-8.4c4.6,0,8.4,3.8,8.4,8.4c0,0,0,0,0,0C42.1,38.2,38.4,42,33.7,42z"/>
<path class="st0" d="M39,28.2c-0.6-0.6-1.5-0.6-2.1,0c0,0,0,0,0,0l-3.2,3.2l-3.2-3.2c-0.6-0.6-1.6-0.5-2.1,0.1c-0.5,0.6-0.5,1.5,0,2
	l3.2,3.2l-3.2,3.2c-0.6,0.6-0.6,1.5,0,2.1c0.3,0.3,0.7,0.4,1.1,0.4c0.4,0,0.8-0.2,1.1-0.4l3.2-3.2l3.2,3.2c0.6,0.6,1.5,0.6,2.1,0
	c0.6-0.6,0.6-1.5,0-2.1l-3.2-3.2l3.2-3.2C39.6,29.8,39.6,28.8,39,28.2z"/>
</svg>
