<?xml version="1.0" encoding="utf-8"?>
<!-- Generator: Adobe Illustrator 24.0.1, SVG Export Plug-In . SVG Version: 6.00 Build 0)  -->
<svg version="1.1" id="PICTOS_vectos" xmlns="http://www.w3.org/2000/svg" xmlns:xlink="http://www.w3.org/1999/xlink" x="0px"
	 y="0px" viewBox="0 0 46.1 46.1" style="enable-background:new 0 0 46.1 46.1;" xml:space="preserve">
<style type="text/css">
	.st0{fill:#25465F;}
</style>
<path class="st0" d="M9.6,10.3c1.2,0,2.2-2.1,2.2-4.7s-1-4.6-2.2-4.6S7.5,3.1,7.4,5.7S8.4,10.3,9.6,10.3z"/>
<path class="st0" d="M26.5,10.3c1.2,0,2.2-2.1,2.2-4.7s-1-4.6-2.2-4.6s-2.2,2.1-2.3,4.6S25.2,10.3,26.5,10.3z"/>
<path class="st0" d="M14.6,7.2h7.1c0.8,0,1.5-0.7,1.5-1.5s-0.7-1.5-1.5-1.5h-7.1c-0.8,0-1.5,0.7-1.5,1.5S13.8,7.2,14.6,7.2z"/>
<path class="st0" d="M42.9,27L42.9,27c-1.7-2.5-4.4-4.2-7.4-4.7c-0.1,0-0.3,0-0.4,0V8.1c0-2.1-1.7-3.8-3.8-3.8
	c-0.8,0-1.5,0.7-1.5,1.5s0.7,1.5,1.5,1.5c0.5,0,0.8,0.4,0.8,0.8v5.3H4V8.1c0-0.5,0.4-0.8,0.8-0.8c0,0,0,0,0,0c0.8,0,1.5-0.7,1.5-1.5
	S5.7,4.2,4.8,4.2C2.7,4.2,1,6,1,8.1v26.8c0,2.1,1.7,3.8,3.8,3.8h18.6c0.2,0.5,0.5,1,0.8,1.4c3.6,5.2,10.7,6.4,15.9,2.8
	C45.3,39.3,46.6,32.2,42.9,27L42.9,27z M4.8,35.7c-0.5,0-0.8-0.4-0.8-0.8V16.3h28.2v5.9c-6.2,0.8-10.7,6.5-9.9,12.7
	c0,0.2,0.1,0.5,0.1,0.7H4.8z M38.4,40.4c-3.8,2.7-9,1.7-11.7-2.1c-0.4-0.5-0.7-1.1-0.9-1.7l-0.1-0.2c-1.7-4.3,0.5-9.2,4.8-10.8
	c0.9-0.3,1.8-0.5,2.8-0.6c0.1,0,0.2,0,0.3,0c0.1,0,0.2,0,0.3,0c0.3,0,0.7,0.1,1,0.1c2.2,0.4,4.2,1.6,5.4,3.5l0,0
	C43.1,32.5,42.2,37.8,38.4,40.4z"/>
<path class="st0" d="M39.4,32.1h-1.1c-0.1-0.3-0.2-0.5-0.3-0.7l0.8-0.8c0.6-0.6,0.6-1.5,0-2.1c0,0,0,0,0,0c-0.6-0.6-1.5-0.6-2.1,0
	l-0.9,0.9c-0.2-0.1-0.4-0.2-0.7-0.3v-1.3c0-0.8-0.7-1.5-1.5-1.5s-1.5,0.7-1.5,1.5V29c-0.2,0.1-0.4,0.2-0.6,0.3l-0.9-0.9
	c-0.6-0.6-1.5-0.6-2.1,0c-0.6,0.6-0.6,1.5,0,2.1c0,0,0,0,0,0l0.9,0.9c-0.1,0.2-0.2,0.4-0.3,0.7h-1.2c-0.8,0-1.5,0.7-1.5,1.5
	S27,35,27.8,35h1.1c0.1,0.3,0.2,0.5,0.3,0.8l-0.8,0.8c-0.6,0.6-0.6,1.5,0,2.1c0,0,0,0,0,0c0.6,0.6,1.5,0.6,2.1,0l0.7-0.7
	c0.3,0.1,0.5,0.3,0.8,0.3v1c0,0.8,0.7,1.5,1.5,1.5s1.5-0.7,1.5-1.5v-1c0.3-0.1,0.6-0.2,0.9-0.3l0.7,0.7c0.6,0.6,1.5,0.6,2.1,0
	c0.6-0.6,0.6-1.5,0-2.1c0,0,0,0,0,0L38,35.9c0.1-0.3,0.2-0.5,0.3-0.8h1c0.8,0,1.5-0.7,1.5-1.5S40.1,32.1,39.4,32.1L39.4,32.1z
	 M34.8,35.3c-0.9,0.6-2.1,0.4-2.7-0.5s-0.4-2.1,0.5-2.7l0,0c0.3-0.2,0.7-0.4,1.1-0.3c0.6,0,1.2,0.3,1.6,0.8
	C35.8,33.5,35.6,34.7,34.8,35.3C34.8,35.3,34.8,35.3,34.8,35.3z"/>
</svg>
