<?xml version="1.0" encoding="utf-8"?>
<!-- Generator: Adobe Illustrator 24.0.1, SVG Export Plug-In . SVG Version: 6.00 Build 0)  -->
<svg version="1.1" id="PICTOS_vectos" xmlns="http://www.w3.org/2000/svg" xmlns:xlink="http://www.w3.org/1999/xlink" x="0px"
	 y="0px" viewBox="0 0 46 46" style="enable-background:new 0 0 46 46;" xml:space="preserve">
<style type="text/css">
	.st0{fill:#25465F;}
</style>
<path class="st0" d="M41.3,10.3h-7.2l-4.3-6.1C29.3,3.5,28.4,3,27.4,3h-8.8c-0.9,0-1.8,0.5-2.4,1.2l-4.3,6.1H4.7C2.7,10.3,1,12,1,14
	v24.9c0,2,1.7,3.7,3.7,3.7h0h36.6c2,0,3.7-1.7,3.7-3.7l0,0V14C45,12,43.3,10.3,41.3,10.3z M18.6,6h8.7l3.1,4.4H15.6L18.6,6z
	 M42,38.9c0,0.4-0.3,0.7-0.7,0.7l0,0H4.7c-0.4,0-0.7-0.3-0.7-0.7l0,0V14c0-0.4,0.3-0.7,0.7-0.7h36.6c0.4,0,0.7,0.3,0.7,0.7
	c0,0,0,0,0,0V38.9z"/>
<path class="st0" d="M25,15.2c-6.2-1.1-12.1,3-13.2,9.2s3,12.1,9.2,13.2c6.2,1.1,12.1-3,13.2-9.2c0.5-3-0.2-6-1.9-8.5
	C30.6,17.5,28,15.8,25,15.2z M27.8,33.4c-3.8,2.7-9,1.7-11.7-2.1s-1.7-9,2.1-11.7c1.4-1,3.1-1.5,4.8-1.5c0.5,0,1,0,1.5,0.1
	c4.6,0.8,7.6,5.2,6.8,9.8C30.9,30.1,29.7,32.1,27.8,33.4z"/>
<path class="st0" d="M17.6,22.8c-1.5,2.1-1.8,4.3-0.8,5s3-0.4,4.5-2.5s1.8-4.4,0.8-5.1S19.1,20.7,17.6,22.8z"/>
</svg>
