<?xml version="1.0" encoding="utf-8"?>
<!-- Generator: Adobe Illustrator 24.0.1, SVG Export Plug-In . SVG Version: 6.00 Build 0)  -->
<svg version="1.1" id="PICTOS_vectos" xmlns="http://www.w3.org/2000/svg" xmlns:xlink="http://www.w3.org/1999/xlink" x="0px"
	 y="0px" viewBox="0 0 46 46" style="enable-background:new 0 0 46 46;" xml:space="preserve">
<style type="text/css">
	.st0{fill:#25465F;}
</style>
<path class="st0" d="M28.9,34.4h-1.3c-0.8,0-1.5,0.7-1.5,1.5s0.7,1.5,1.5,1.5h1.3c0.8,0,1.5-0.7,1.5-1.5S29.7,34.4,28.9,34.4
	L28.9,34.4z"/>
<path class="st0" d="M19.7,34.7c-1.5,2.1-1.8,4.3-0.8,5s3-0.4,4.5-2.5s1.8-4.4,0.8-5.1C23.2,31.4,21.2,32.6,19.7,34.7z"/>
<path class="st0" d="M32.7,34.7c-1.5,2.1-1.8,4.3-0.8,5c1,0.7,3-0.4,4.5-2.5s1.8-4.4,0.8-5.1C36.2,31.4,34.1,32.6,32.7,34.7z"/>
<path class="st0" d="M40.5,23.1h-0.9l-3-6.6c0-0.1-0.1-0.2-0.1-0.2c-0.7-1.1-2-1.7-3.3-1.7H21c-2.2,0-4,1.8-4,4v4.6h-1.6
	c-2.5,0-4.4,2-4.4,4.5V33c0,2.5,2,4.5,4.5,4.5H16c0.8,0,1.5-0.7,1.5-1.5s-0.7-1.5-1.5-1.5h-0.5c-0.8,0-1.5-0.7-1.5-1.5v-5.4
	c0-0.8,0.7-1.5,1.5-1.5h3.1c0.8,0,1.4-0.7,1.4-1.5v-6.1c0-0.6,0.4-1,1-1h12.2c0.3,0,0.6,0.1,0.8,0.3l3.3,7.4
	c0.2,0.5,0.8,0.9,1.4,0.9h1.8c0.8,0,1.5,0.7,1.5,1.5V33c0,0.8-0.7,1.5-1.5,1.5H40c-0.8,0-1.5,0.7-1.5,1.5s0.7,1.5,1.5,1.5h0.6
	c2.5,0,4.5-2,4.5-4.5v-5.4C45.1,25.1,43.1,23.1,40.5,23.1C40.6,23.1,40.6,23.1,40.5,23.1z"/>
<path class="st0" d="M15,19.6v-6.1c0-0.6,0.4-1,1-1h11.1c0.8,0,1.5-0.7,1.5-1.5S28,9.5,27.1,9.5H16c-2.2,0-4,1.8-4,4v4.6h-1.6
	c-2.5,0-4.4,2-4.4,4.5v5.5c0,0.8,0.7,1.5,1.5,1.5S9,28.9,9,28.1v-5.5c0-0.8,0.7-1.5,1.5-1.5h3.1C14.4,21.1,15,20.4,15,19.6z"/>
<path class="st0" d="M10,14.6V8.5c0-0.6,0.4-1,1-1h11.1c0.8,0,1.5-0.7,1.5-1.5S23,4.5,22.1,4.5H11c-2.2,0-4,1.8-4,4v4.6H5.4
	c-2.5,0-4.4,2-4.4,4.5v5.5c0,0.8,0.7,1.5,1.5,1.5S4,23.9,4,23.1v-5.5c0-0.8,0.7-1.5,1.5-1.5h3C9.3,16.1,10,15.4,10,14.6z"/>
</svg>
