<?xml version="1.0" encoding="utf-8"?>
<!-- Generator: Adobe Illustrator 24.0.1, SVG Export Plug-In . SVG Version: 6.00 Build 0)  -->
<svg version="1.1" id="PICTOS_vectos" xmlns="http://www.w3.org/2000/svg" xmlns:xlink="http://www.w3.org/1999/xlink" x="0px"
	 y="0px" viewBox="0 0 46 46" style="enable-background:new 0 0 46 46;" xml:space="preserve">
<style type="text/css">
	.st0{fill:#25465F;}
</style>
<path class="st0" d="M36.8,28.9c0-0.1-0.1-0.2-0.1-0.3l-4.9-8c-0.5-1.4-3-1.5-3-1.5H17.3c0,0-2.5,0.1-3,1.5l-4.9,8
	c-0.1,0.1-0.1,0.2-0.1,0.3c-0.7,0.2-1.1,0.8-1.1,1.5v8.9c0,0.5,0.2,1,0.7,1.2v0.9c-0.1,1.8,1.3,3.3,3.1,3.4h2.5
	c1.8-0.1,3.2-1.6,3.1-3.4v-0.7h11v0.7c-0.1,1.8,1.3,3.3,3.1,3.4h2.4c1.8-0.1,3.2-1.6,3.2-3.4v-0.9c0.4-0.3,0.7-0.7,0.7-1.2v-8.9
	C37.9,29.6,37.4,29,36.8,28.9z M30,37.7H11.1v-5.9h23.8v5.9H30z M16.8,22.1c0.2,0,0.3-0.1,0.5-0.1h11.4c0.2,0,0.3,0.1,0.5,0.1
	l3.9,6.3H12.9L16.8,22.1z M14.5,41.4c0,0.1-0.1,0.3-0.1,0.4h-2.5c-0.1-0.1-0.2-0.2-0.2-0.4v-0.7h2.8V41.4z M34.1,41.7h-2.4
	c-0.1-0.1-0.2-0.2-0.2-0.4v-0.7h2.8v0.7C34.3,41.5,34.2,41.7,34.1,41.7z"/>
<path class="st0" d="M15.9,33.3h-2.4c-0.8,0-1.5,0.7-1.5,1.5s0.7,1.5,1.5,1.5h2.4c0.8,0,1.5-0.7,1.5-1.5S16.7,33.3,15.9,33.3z"/>
<path class="st0" d="M32.1,33.3h-2.4c-0.8,0-1.5,0.7-1.5,1.5s0.7,1.5,1.5,1.5h2.4c0.8,0,1.5-0.7,1.5-1.5S32.9,33.3,32.1,33.3z"/>
<path class="st0" d="M17.7,17.2c2.7,0,5.3-1.4,6.8-3.7l1.5,1c0.5,0.3,1.1,0.3,1.6,0l1.4-1l1.4,0.9c0.5,0.3,1.1,0.3,1.6,0l2.4-1.5
	c2.1-0.8,3.1-3.1,2.4-5.1c-0.6-1.6-2.1-2.6-3.8-2.6h-8.4c-2.2-3.8-7.1-5.1-10.9-2.9s-5.1,7.1-2.9,10.9
	C12.2,15.7,14.8,17.2,17.7,17.2L17.7,17.2z M17.7,4.2c2,0,3.8,1.2,4.6,3.1c0.2,0.6,0.8,0.9,1.4,0.9H33c0.6,0,1,0.4,1,1
	c0,0.4-0.3,0.8-0.7,0.9c-0.1,0-0.2,0.1-0.3,0.2l-1.7,1.1l-1.5-0.9c-0.5-0.3-1.1-0.3-1.6,0l-1.5,0.9l-1.5-1c-0.2-0.2-0.5-0.2-0.8-0.2
	h-0.8c-0.6,0-1.1,0.4-1.4,0.9c-1.1,2.5-4,3.8-6.5,2.7s-3.8-4-2.7-6.5C13.8,5.4,15.7,4.2,17.7,4.2L17.7,4.2z"/>
<path class="st0" d="M15.4,10.7c0.2,0,0.4,0,0.6-0.1c0.2-0.1,0.3-0.2,0.5-0.3c0.1-0.1,0.3-0.3,0.3-0.5c0.1-0.2,0.1-0.4,0.1-0.6
	c0-0.4-0.2-0.8-0.5-1.1c-0.1-0.1-0.1-0.1-0.2-0.2c-0.1-0.1-0.2-0.1-0.3-0.1c-0.1,0-0.2-0.1-0.3-0.1c-0.2,0-0.4,0-0.6,0
	c-0.1,0-0.2,0.1-0.3,0.1c-0.1,0-0.2,0.1-0.3,0.1c-0.1,0-0.2,0.1-0.2,0.2c-0.3,0.3-0.4,0.7-0.4,1.1c0,0.2,0.1,0.4,0.1,0.6
	c0.1,0.2,0.2,0.3,0.3,0.5C14.6,10.6,15,10.8,15.4,10.7z"/>
</svg>
