<?xml version="1.0" encoding="utf-8"?>
<!-- Generator: Adobe Illustrator 24.0.1, SVG Export Plug-In . SVG Version: 6.00 Build 0)  -->
<svg version="1.1" id="PICTOS_vectos" xmlns="http://www.w3.org/2000/svg" xmlns:xlink="http://www.w3.org/1999/xlink" x="0px"
	 y="0px" viewBox="0 0 46 46" style="enable-background:new 0 0 46 46;" xml:space="preserve">
<style type="text/css">
	.st0{fill:#25465F;}
</style>
<path class="st0" d="M9.8,26.9C8.3,29,8,31.2,9,31.9c1,0.7,3-0.4,4.5-2.6s1.8-4.4,0.8-5.1S11.3,24.8,9.8,26.9z"/>
<path class="st0" d="M32.5,26.9c-1.5,2.1-1.8,4.3-0.8,5c1,0.7,3-0.4,4.5-2.6S38,25,37,24.3S33.9,24.8,32.5,26.9z"/>
<path class="st0" d="M43.6,20.5L37.8,5.4c-0.2-1-1.1-1.8-2.1-1.8H10.3c-1,0-1.9,0.7-2.1,1.8L2.4,20.5c-0.7,0.1-1.3,0.7-1.3,1.5v12.9
	c0,0.8,0.7,1.5,1.5,1.5h2.2V39c-0.1,1.8,1.4,3.3,3.2,3.4h2.5c1.8-0.1,3.2-1.6,3.1-3.4v-2.7h19V39c-0.1,1.8,1.3,3.3,3.2,3.4h2.4
	c1.8-0.1,3.2-1.6,3.2-3.4v-2.7h2.2c0.8,0,1.5-0.7,1.5-1.5l0,0V21.9C44.9,21.2,44.4,20.6,43.6,20.5z M10.9,6.6h11.3v0.3
	c0,0.4,0.3,0.8,0.8,0.8s0.8-0.3,0.8-0.8V6.6h11.3l5.3,13.8h-4.2c-0.6-0.6-1.3-1.1-2-1.6c2.7-2.3,3-6.4,0.7-9.1s-6.4-3-9.1-0.7
	s-3,6.4-0.7,9.1c0.2,0.2,0.4,0.5,0.7,0.7c-0.7,0.4-1.4,1-2,1.6h-1.6c-0.6-0.6-1.3-1.1-2-1.6c2.7-2.3,3-6.4,0.7-9.1s-6.4-3-9.1-0.7
	s-3,6.4-0.7,9.1c0.2,0.2,0.4,0.5,0.7,0.7c-0.7,0.4-1.4,1-2,1.6H5.6L10.9,6.6z M30,17.4c-1.9,0-3.4-1.5-3.4-3.5s1.5-3.4,3.5-3.4
	c1.9,0,3.4,1.5,3.4,3.4S31.9,17.4,30,17.4L30,17.4z M16,17.4c-1.9,0-3.4-1.5-3.4-3.5c0-1.9,1.5-3.4,3.5-3.4c1.9,0,3.4,1.5,3.4,3.4
	S17.9,17.4,16,17.4L16,17.4z M10.5,39c0,0.1-0.1,0.3-0.1,0.4H7.9c-0.1-0.1-0.2-0.2-0.2-0.4v-2.7h2.8V39z M38.2,39
	c0,0.1,0,0.3-0.2,0.4h-2.4c-0.1-0.1-0.2-0.2-0.2-0.4v-2.7h2.8V39z M41.9,33.3H4.1v-9.9h37.8V33.3z"/>
</svg>
