<?xml version="1.0" encoding="utf-8"?>
<!-- Generator: Adobe Illustrator 24.0.1, SVG Export Plug-In . SVG Version: 6.00 Build 0)  -->
<svg version="1.1" id="PICTOS_vectos" xmlns="http://www.w3.org/2000/svg" xmlns:xlink="http://www.w3.org/1999/xlink" x="0px"
	 y="0px" viewBox="0 0 46 46" style="enable-background:new 0 0 46 46;" xml:space="preserve">
<style type="text/css">
	.st0{fill:#25465F;}
</style>
<path class="st0" d="M11.7,17V6.7c0-0.8-0.7-1.5-1.5-1.5S8.7,5.8,8.7,6.7v8.9H7.9V6.7c0-0.8-0.7-1.5-1.5-1.5S4.9,5.8,4.9,6.7v8.9H4
	l0.1-8.9c0-0.8-0.7-1.5-1.5-1.5S1.1,5.8,1.1,6.7l0,0L1,17l0,0c0,0.1,0,0.2,0,0.2c0,0,0,0,0,0c0.1,1.8,1.7,3.2,3.5,3.2h0.3v18.9
	c0,0.8,0.7,1.5,1.5,1.5s1.5-0.7,1.5-1.5V20.6h0.3c1.8,0,3.3-1.4,3.5-3.2C11.6,17.3,11.7,17.2,11.7,17z"/>
<path class="st0" d="M44.6,5.5c-0.3-0.3-0.7-0.4-1.1-0.4c-2.2,0-4,1.8-4,4V23c0,0.8,0.7,1.5,1.5,1.5h1v14.9c0,0.8,0.7,1.5,1.5,1.5
	s1.5-0.7,1.5-1.5V6.6C45,6.2,44.8,5.8,44.6,5.5z"/>
<path class="st0" d="M24.9,10.8c-7.7,0-14,6.3-14,14s6.3,14,14,14s14-6.3,14-14c0,0,0,0,0,0C38.9,17.1,32.7,10.8,24.9,10.8z
	 M24.9,35.9c-6.1,0-11-4.9-11-11s4.9-11,11-11s11,4.9,11,11v0C35.9,31,31,35.9,24.9,35.9z"/>
<path class="st0" d="M33,24.9c0,4.5-3.6,8.1-8.1,8.1s-8.1-3.6-8.1-8.1s3.6-8.1,8.1-8.1c0.4,0,0.8-0.3,0.8-0.8s-0.3-0.8-0.8-0.8
	c-5.3,0-9.6,4.3-9.6,9.6s4.3,9.6,9.6,9.6s9.6-4.3,9.6-9.6c0-0.4-0.3-0.8-0.8-0.8S33,24.5,33,24.9z"/>
<path class="st0" d="M26.9,16.1C26,17,26.8,19.2,28.6,21s3.9,2.5,4.8,1.7s0.1-3-1.7-4.9S27.8,15.3,26.9,16.1z"/>
</svg>
