<?xml version="1.0" encoding="utf-8"?>
<!-- Generator: Adobe Illustrator 24.0.1, SVG Export Plug-In . SVG Version: 6.00 Build 0)  -->
<svg version="1.1" id="PICTOS_vectos" xmlns="http://www.w3.org/2000/svg" xmlns:xlink="http://www.w3.org/1999/xlink" x="0px"
	 y="0px" viewBox="0 0 46 46" style="enable-background:new 0 0 46 46;" xml:space="preserve">
<style type="text/css">
	.st0{fill:#25465F;}
</style>
<path class="st0" d="M40.2,27.7c2.7-2.3,3-6.4,0.7-9.1c-2.3-2.7-6.4-3-9.1-0.7c-1.4,1.2-2.2,3-2.2,4.9c0,0.3,0,0.6,0.1,0.9
	c-0.9-1.1-2-2.1-3.1-2.9c3.7-4.3,3.1-10.8-1.2-14.4S14.5,3.3,10.9,7.6c-3.2,3.8-3.2,9.4,0,13.2c-3.8,2.9-7.2,8-9.8,14.7
	c-0.2,0.4-0.1,0.8,0.1,1.2C1.5,37.3,4.4,42,18.7,42c3.4,0.1,6.7-0.3,10-1c2.3,0.7,4.7,1,7.1,1c2.5,0,5.1-0.3,7.5-1
	c0.5-0.1,0.9-0.5,1-1l0.1-0.2c0.4-1.3,0.6-2.6,0.6-4C45,32.4,43.1,29.3,40.2,27.7z M36,19.3c1.9,0,3.5,1.5,3.5,3.5
	c0,1.9-1.5,3.4-3.5,3.4c-1.9,0-3.5-1.5-3.5-3.4C32.6,20.9,34.1,19.3,36,19.3z M18.7,7c4,0,7.2,3.2,7.2,7.2s-3.2,7.2-7.2,7.2
	c-4,0-7.2-3.2-7.2-7.2c0,0,0,0,0,0C11.4,10.2,14.7,7,18.7,7z M4.2,35.8c2.4-6.1,5.6-10.6,9-13c3.3,2.2,7.7,2.2,11,0
	c2.3,1.7,4.3,3.8,5.7,6.3C28,30.8,27,33.3,27,35.8c0,0.8,0.1,1.6,0.2,2.4c-2.8,0.5-5.6,0.8-8.5,0.8C8.9,39,5.3,36.7,4.2,35.8z
	 M41.7,38.3c-3.8,0.9-7.7,0.9-11.4,0c-0.2-0.8-0.3-1.7-0.3-2.5c0.1-3.4,2.7-6.1,6-6.5c3.3,0.3,5.9,3.1,6,6.5
	C42,36.7,41.9,37.5,41.7,38.3z"/>
<path class="st0" d="M18.7,29.8c-2.6,0-4.6,1-4.7,2.2c0,1.2,2.1,2.2,4.7,2.2s4.6-1,4.6-2.2C23.3,30.9,21.2,29.8,18.7,29.8z"/>
</svg>
