<?xml version="1.0" encoding="utf-8"?>
<!-- Generator: Adobe Illustrator 24.0.1, SVG Export Plug-In . SVG Version: 6.00 Build 0)  -->
<svg version="1.1" id="PICTOS_vectos" xmlns="http://www.w3.org/2000/svg" xmlns:xlink="http://www.w3.org/1999/xlink" x="0px"
	 y="0px" viewBox="0 0 46 46" style="enable-background:new 0 0 46 46;" xml:space="preserve">
<style type="text/css">
	.st0{fill:#25465F;}
</style>
<path class="st0" d="M23.3,20.8c-2.6,0-4.6,1-4.7,2.2s2.1,2.2,4.7,2.2s4.6-1,4.6-2.2S25.9,20.8,23.3,20.8z"/>
<path class="st0" d="M32.7,10.2H13.3c-1.7,0-3.1,1.4-3.1,3.1v19.4c0,1.7,1.4,3.1,3.1,3.1h19.4c1.7,0,3.1-1.4,3.1-3.1V13.3
	C35.8,11.6,34.4,10.2,32.7,10.2z M32.8,32.7c0,0.1-0.1,0.1-0.1,0.1H13.3c-0.1,0-0.1-0.1-0.1-0.1V13.3c0-0.1,0.1-0.1,0.1-0.1h19.4
	c0.1,0,0.1,0.1,0.1,0.1V32.7z"/>
<path class="st0" d="M14.5,7.9c0.8,0,1.5-0.7,1.5-1.5c0,0,0,0,0,0V2.5C16,1.7,15.4,1,14.5,1S13,1.7,13,2.5v3.9
	C13,7.3,13.7,7.9,14.5,7.9z"/>
<path class="st0" d="M20.2,7.9c0.8,0,1.5-0.7,1.5-1.5V2.5C21.7,1.7,21,1,20.2,1s-1.5,0.7-1.5,1.5v3.9C18.7,7.3,19.3,7.9,20.2,7.9z"
	/>
<path class="st0" d="M25.8,7.9c0.8,0,1.5-0.7,1.5-1.5V2.5c0-0.8-0.7-1.5-1.5-1.5s-1.5,0.7-1.5,1.5v3.9C24.3,7.3,25,7.9,25.8,7.9z"/>
<path class="st0" d="M31.5,7.9c0.8,0,1.5-0.7,1.5-1.5c0,0,0,0,0,0V2.5C33,1.7,32.3,1,31.5,1C30.6,1,30,1.7,30,2.5v3.9
	C30,7.3,30.6,7.9,31.5,7.9z"/>
<path class="st0" d="M14.5,38.1c-0.8,0-1.5,0.7-1.5,1.5v3.9c0,0.8,0.7,1.5,1.5,1.5c0.8,0,1.5-0.7,1.5-1.5v-3.9
	C16,38.7,15.4,38.1,14.5,38.1L14.5,38.1z"/>
<path class="st0" d="M20.2,38.1c-0.8,0-1.5,0.7-1.5,1.5v3.9c0,0.8,0.7,1.5,1.5,1.5s1.5-0.7,1.5-1.5v-3.9
	C21.7,38.7,21,38.1,20.2,38.1z"/>
<path class="st0" d="M25.8,38.1c-0.8,0-1.5,0.7-1.5,1.5v3.9c0,0.8,0.7,1.5,1.5,1.5s1.5-0.7,1.5-1.5v-3.9
	C27.3,38.7,26.7,38.1,25.8,38.1z"/>
<path class="st0" d="M31.5,38.1c-0.8,0-1.5,0.7-1.5,1.5v3.9c0,0.8,0.7,1.5,1.5,1.5c0.8,0,1.5-0.7,1.5-1.5v-3.9
	C33,38.7,32.3,38.1,31.5,38.1z"/>
<path class="st0" d="M39.6,16h3.9c0.8,0,1.5-0.7,1.5-1.5S44.3,13,43.5,13h-3.9c-0.8,0-1.5,0.7-1.5,1.5S38.7,16,39.6,16z"/>
<path class="st0" d="M43.5,18.7h-3.9c-0.8,0-1.5,0.7-1.5,1.5s0.7,1.5,1.5,1.5h3.9c0.8,0,1.5-0.7,1.5-1.5S44.3,18.7,43.5,18.7z"/>
<path class="st0" d="M43.5,24.3h-3.9c-0.8,0-1.5,0.7-1.5,1.5s0.7,1.5,1.5,1.5h3.9c0.8,0,1.5-0.7,1.5-1.5S44.3,24.3,43.5,24.3z"/>
<path class="st0" d="M43.5,30h-3.9c-0.8,0-1.5,0.7-1.5,1.5c0,0.8,0.7,1.5,1.5,1.5h3.9c0.8,0,1.5-0.7,1.5-1.5
	C45,30.7,44.3,30,43.5,30z"/>
<path class="st0" d="M6.4,13H2.5C1.7,13,1,13.7,1,14.5S1.7,16,2.5,16h3.9c0.8,0,1.5-0.7,1.5-1.5S7.3,13,6.4,13z"/>
<path class="st0" d="M6.4,18.7H2.5c-0.8,0-1.5,0.7-1.5,1.5s0.7,1.5,1.5,1.5h3.9c0.8,0,1.5-0.7,1.5-1.5S7.3,18.7,6.4,18.7z"/>
<path class="st0" d="M6.4,24.3H2.5C1.7,24.3,1,25,1,25.8s0.7,1.5,1.5,1.5h3.9c0.8,0,1.5-0.7,1.5-1.5S7.3,24.3,6.4,24.3z"/>
<path class="st0" d="M6.4,30H2.5C1.7,30,1,30.7,1,31.5C1,32.3,1.7,33,2.5,33h3.9c0.8,0,1.5-0.7,1.5-1.5C7.9,30.7,7.3,30,6.4,30z"/>
</svg>
