<?xml version="1.0" encoding="utf-8"?>
<!-- Generator: Adobe Illustrator 24.0.1, SVG Export Plug-In . SVG Version: 6.00 Build 0)  -->
<svg version="1.1" id="PICTOS_vectos" xmlns="http://www.w3.org/2000/svg" xmlns:xlink="http://www.w3.org/1999/xlink" x="0px"
	 y="0px" viewBox="0 0 46 46" style="enable-background:new 0 0 46 46;" xml:space="preserve">
<style type="text/css">
	.st0{fill:#25465F;}
</style>
<path class="st0" d="M11.9,29.3c-2.6,0-4.7,1-4.7,2.2s2.1,2.2,4.7,2.2s4.6-1,4.6-2.2S14.4,29.3,11.9,29.3z"/>
<path class="st0" d="M45,24.9c0-0.1,0-0.2,0-0.2v-5.4c0-0.8-0.7-1.5-1.5-1.5h-29l21.9-5.6h0.1l6.1-1.5c0.8-0.2,1.3-1,1.1-1.8
	c0,0,0,0,0,0l-0.7-2.9c-0.6-2.3-2.9-3.7-5.3-3.2c0,0,0,0,0,0L4.2,11.2c-3.2,1-3.2,4-3.2,5.5V39c0,2.4,2,4.4,4.4,4.4h35.2
	c2.4,0,4.4-1.9,4.4-4.4c0,0,0,0,0,0V25.1C45,25.1,45,25,45,24.9z M42,23.4h-7.9l3.1-2.6H42V23.4z M23.6,23.4l3.1-2.6h5.8l-3.1,2.6
	H23.6z M13.2,23.4l3.1-2.6h5.8l-3.2,2.6H13.2z M4,23.4v-2.6h7.6l-3.1,2.6H4z M17.5,11l3.4,2.1l-7.3,1.9l-3.4-2.1L17.5,11z M28.8,8.1
	l3.4,2.1L25,12l-3.4-2.1L28.8,8.1z M38.4,5.6c0.1,0,0.2,0,0.3,0c0.2,0,0.5,0.1,0.7,0.2C39.7,6,39.9,6.3,40,6.6l0.4,1.5l-4.1,1
	L32.9,7L38.4,5.6z M4,16.7c0-2.1,0.4-2.4,1-2.6l1.1-0.3L9.5,16L4,17.4V16.7z M40.6,40.4H5.4C4.6,40.4,4,39.8,4,39V26.4h4.9H9h0.1
	h10.2h0.1h0.1h10.2h0.1H30h12V39C42,39.8,41.4,40.4,40.6,40.4C40.6,40.4,40.6,40.4,40.6,40.4z"/>
</svg>
