<?xml version="1.0" encoding="utf-8"?>
<!-- Generator: Adobe Illustrator 24.0.1, SVG Export Plug-In . SVG Version: 6.00 Build 0)  -->
<svg version="1.1" id="PICTOS_vectos" xmlns="http://www.w3.org/2000/svg" xmlns:xlink="http://www.w3.org/1999/xlink" x="0px"
	 y="0px" viewBox="0 0 46.1 46.1" style="enable-background:new 0 0 46.1 46.1;" xml:space="preserve">
<style type="text/css">
	.st0{fill:#25465F;}
</style>
<path class="st0" d="M37.7,2H15.9c-0.4,0-0.7,0.1-1,0.4l-7.5,8.2c-0.4,0.4-0.5,1-0.3,1.5l1.6,4c0.2,0.5,0.7,0.9,1.2,0.9h3.8
	c0,0.2,0,0.4-0.1,0.6c-0.4,4.3-0.9,8.5-1.8,12.7c-0.3,1.4-1.6,8.4-1.8,11.2c0,0.4,0.1,0.8,0.4,1.1c0.3,0.3,0.7,0.5,1.1,0.5h21.1
	c0.8,0,1.5-0.7,1.5-1.5c0-11.9-0.7-12.4-1.4-12.9c-0.6-0.3-1.3-0.6-2-0.6c-2.8-0.6-8.6-2-8.6-5.8v-5.2h1.3c0.5,0,1-0.3,1.2-0.8
	c1.1-2.9,3.6-5,6.6-5.4h6.4c0.8,0,1.4-0.7,1.3-1.4c0,0,0,0,0,0v-6C39.1,2.7,38.6,2,37.7,2C37.8,2,37.8,2,37.7,2z M13.2,40.2
	c0.3-2.5,1-6.2,1.5-8.6h16.2c0.2,1.6,0.3,5.2,0.4,8.6H13.2z M23.2,28.5h-8c0.7-4,1.1-8.3,1.3-10.5c0-0.4,0.1-0.7,0.1-0.9h2.5v5.2
	C19.2,25.3,21,27.2,23.2,28.5L23.2,28.5z M31.9,8h-0.6c-3.7,0.5-7,2.8-8.6,6.2H10.8L9.9,12l6.6-7.2h15.4L31.9,8z M36.4,8h-1.9V4.8
	h1.9L36.4,8z"/>
<path class="st0" d="M28.2,14c-1,0.7-0.6,2.9,0.8,4.9s3.3,3.1,4.3,2.5s0.6-2.9-0.8-5S29.2,13.3,28.2,14z"/>
</svg>
