<?xml version="1.0" encoding="utf-8"?>
<!-- Generator: Adobe Illustrator 24.0.1, SVG Export Plug-In . SVG Version: 6.00 Build 0)  -->
<svg version="1.1" id="PICTOS_vectos" xmlns="http://www.w3.org/2000/svg" xmlns:xlink="http://www.w3.org/1999/xlink" x="0px"
	 y="0px" viewBox="0 0 46.1 46.1" style="enable-background:new 0 0 46.1 46.1;" xml:space="preserve">
<style type="text/css">
	.st0{fill:#25465F;}
</style>
<path class="st0" d="M27.7,13.1c0-1.2-2.1-2.2-4.6-2.3s-4.6,1-4.7,2.2s2.1,2.2,4.7,2.2S27.7,14.4,27.7,13.1z"/>
<path class="st0" d="M18,20.5l-2.1,2.2l-1.2-1.1c-0.6-0.6-1.5-0.5-2.1,0.1c0,0,0,0,0,0c-0.6,0.6-0.5,1.6,0.1,2.1l2.3,2.1
	c0.3,0.3,0.6,0.4,1,0.4c0.4,0,0.8-0.2,1.1-0.5l3.1-3.3c0.6-0.6,0.6-1.5,0-2.1C19.6,19.9,18.6,19.9,18,20.5C18,20.5,18,20.5,18,20.5
	L18,20.5z"/>
<path class="st0" d="M32,20.2h-6.4c-0.8,0-1.5,0.7-1.5,1.5s0.7,1.5,1.5,1.5H32c0.8,0,1.5-0.7,1.5-1.5S32.8,20.2,32,20.2z"/>
<path class="st0" d="M32,24.4h-6.4c-0.8,0-1.5,0.7-1.5,1.5s0.7,1.5,1.5,1.5H32c0.8,0,1.5-0.7,1.5-1.5S32.8,24.4,32,24.4z"/>
<path class="st0" d="M18,31.8L15.9,34l-1.2-1.1c-0.6-0.6-1.5-0.5-2.1,0.1c0,0,0,0,0,0c-0.6,0.6-0.5,1.6,0.1,2.1c0,0,0,0,0,0l2.3,2.1
	c0.6,0.6,1.5,0.6,2.1,0l3.2-3.3c0.6-0.6,0.6-1.6,0-2.1C19.5,31.3,18.6,31.3,18,31.8L18,31.8z"/>
<path class="st0" d="M32,31.5h-6.4c-0.8,0-1.5,0.7-1.5,1.5c0,0.8,0.7,1.5,1.5,1.5H32c0.8,0,1.5-0.7,1.5-1.5S32.8,31.5,32,31.5z"/>
<path class="st0" d="M32,35.7h-6.4c-0.8,0-1.5,0.7-1.5,1.5s0.7,1.5,1.5,1.5H32c0.8,0,1.5-0.7,1.5-1.5S32.8,35.7,32,35.7z"/>
<path class="st0" d="M34.9,5.5h-4.6V2.6c0-0.8-0.7-1.5-1.5-1.5H17.3c-0.8,0-1.5,0.7-1.5,1.5v2.9h-4.6c-2,0-3.6,1.6-3.7,3.6v32.4
	c0,2,1.7,3.6,3.7,3.6h23.8c2,0,3.7-1.6,3.7-3.7V9.1C38.6,7.1,37,5.5,34.9,5.5z M18.8,4.1h8.6v1.4h-8.6V4.1z M35.6,41.5
	c0,0.4-0.3,0.7-0.7,0.7H11.2c-0.4,0-0.7-0.3-0.7-0.7V9.1c0-0.4,0.3-0.7,0.7-0.7l0,0h23.8c0.4,0,0.7,0.3,0.7,0.7l0,0V41.5z"/>
</svg>
