<?xml version="1.0" encoding="utf-8"?>
<!-- Generator: Adobe Illustrator 24.0.1, SVG Export Plug-In . SVG Version: 6.00 Build 0)  -->
<svg version="1.1" id="PICTOS_vectos" xmlns="http://www.w3.org/2000/svg" xmlns:xlink="http://www.w3.org/1999/xlink" x="0px"
	 y="0px" viewBox="0 0 45.9 45.9" style="enable-background:new 0 0 45.9 45.9;" xml:space="preserve">
<style type="text/css">
	.st0{fill:#25465F;}
</style>
<path class="st0" d="M23,7.4c2.6,0,4.6-1,4.6-2.2S25.5,3,23,3s-4.6,1-4.6,2.2S20.5,7.4,23,7.4z"/>
<path class="st0" d="M40.9,18.5h-1.5l-9.3-9.4c-0.5-0.6-1.5-0.7-2.1-0.2c-0.6,0.5-0.7,1.5-0.2,2.1c0.1,0.1,0.1,0.1,0.2,0.2l7.2,7.3
	H10.5l6.8-7.5c0.6-0.6,0.5-1.6-0.1-2.1C16.5,8.3,15.6,8.4,15,9l-8.5,9.5H5c-2.2,0-4,1.9-4,4.1v15.3C1,40.1,2.8,42,5,42h35.9
	c2.2,0,4-1.9,4-4.1V22.6C45,20.4,43.2,18.5,40.9,18.5z M41.9,37.9c0,0.6-0.4,1.1-1,1.1H5c-0.6,0-1-0.5-1-1.1V22.6
	c0-0.6,0.4-1.1,1-1.1c0,0,0,0,0,0h2h0.2h0.3h31.3h0.2H39h1.9c0.6,0,1,0.5,1,1.1c0,0,0,0,0,0L41.9,37.9z"/>
<polygon class="st0" points="7.5,33.5 9,33.5 9,30.9 11.7,30.9 11.7,29.5 9,29.5 9,28.3 11.9,28.3 11.9,26.9 7.5,26.9 "/>
<polygon class="st0" points="14.6,30.8 17.3,30.8 17.3,29.4 14.6,29.4 14.6,28.3 17.6,28.3 17.6,26.9 13,26.9 13,33.5 17.7,33.5 
	17.7,32.1 14.6,32.1 "/>
<path class="st0" d="M24.2,28.9c0.1-1-0.7-1.9-1.8-2c-0.1,0-0.2,0-0.4,0h-3.2v6.6h1.5V31h1c0.2,0,0.3,0.1,0.4,0.3l0.9,2.2h1.6
	l-1.2-2.9C23.8,30.4,24.2,29.7,24.2,28.9z M22,29.7h-1.6v-1.4H22c0.4,0,0.7,0.3,0.7,0.6c0,0,0,0.1,0,0.1c0,0.3-0.2,0.7-0.5,0.7
	C22.1,29.7,22,29.7,22,29.7z"/>
<path class="st0" d="M31.9,26.9h-1.5c-0.2,0-0.4,0.1-0.5,0.4L29,30.1c0,0.1-0.1,0.1-0.1,0.1c0,0-0.1,0-0.1-0.1l-1-2.8
	c0-0.2-0.2-0.4-0.5-0.4h-1.6c-0.2,0-0.3,0.1-0.3,0.3c0,0,0,0,0,0.1v6.3l1.5,0.1V29c0,0,0-0.1,0.1-0.1c0,0,0,0,0,0c0,0,0.1,0,0.1,0.1
	l0.9,2.4c0.1,0.3,0.2,0.4,0.5,0.4h0.8c0.2,0,0.4-0.1,0.5-0.4l0.9-2.5c0,0,0-0.1,0.1-0.1c0.1,0,0.1,0,0.1,0.1v4.6h1.5v-6.3
	C32.3,27.1,32.2,26.9,31.9,26.9C32,26.9,31.9,26.9,31.9,26.9z"/>
<polygon class="st0" points="35.3,30.8 38.1,30.8 38.1,29.4 35.3,29.4 35.3,28.3 38.4,28.3 38.4,26.9 33.8,26.9 33.8,33.5 
	38.5,33.5 38.5,32.1 35.3,32.1 "/>
<polygon class="st0" points="37.7,25.1 36,25.1 35.3,26.5 36.5,26.5 "/>
</svg>
