<?xml version="1.0" encoding="utf-8"?>
<!-- Generator: Adobe Illustrator 23.0.2, SVG Export Plug-In . SVG Version: 6.00 Build 0)  -->
<svg version="1.1" id="Calque_1" xmlns="http://www.w3.org/2000/svg" xmlns:xlink="http://www.w3.org/1999/xlink" x="0px" y="0px"
	 viewBox="0 0 660 660" style="enable-background:new 0 0 660 660;" xml:space="preserve">
<style type="text/css">
	.st0{fill-rule:evenodd;clip-rule:evenodd;fill:#009DCC;}
	.st1{fill-rule:evenodd;clip-rule:evenodd;fill:#00C099;}
	.st2{fill-rule:evenodd;clip-rule:evenodd;fill:#FFFFFF;}
</style>
<g>
	<path class="st0" d="M554.4,348.7C621.2,403.9,590,527,493.8,527H166.2c-105.5,0-132.9-148.2-38.4-192.3
		c0-92.7,66.9-147.7,135.6-147.7c23.9,0,48,6.7,69.6,20.7c-2,9.4-3.1,19.3-3.1,29.3c0,2.1,0,4.2,0.1,6.2
		c-18.8-17.1-41.8-26.2-66.7-26.2c-26.7,0-53.1,11-72.3,30.3c-21.8,21.8-33.3,52-33.3,87.4c0,11.6-6.7,22.2-17.3,27.2
		c-35.6,16.6-45,53.2-38.6,82c5.7,25.7,25.6,53.1,64.3,53.1h327.5c38.7,0,58.6-27.4,64.3-53.1c6-27-1.9-60.7-32-78.5
		C536.2,360.9,545.7,355.3,554.4,348.7z"/>
	<g transform="translate(34 8)">
		<circle class="st1" cx="436" cy="229" r="104"/>
		<path class="st2" d="M476.8,181.7c4.8-5.5,13.5-6.3,19.3-1.7c5.8,4.6,6.6,12.8,1.8,18.3l-68.4,78c-5.5,6.2-15.6,6.2-21,0
			l-34.2-38.9c-4.8-5.5-4-13.7,1.8-18.3c5.8-4.6,14.4-3.8,19.3,1.7l23.7,26.9L476.8,181.7z"/>
	</g>
</g>
</svg>
