<?xml version="1.0" encoding="utf-8"?>
<!-- Generator: Adobe Illustrator 24.0.1, SVG Export Plug-In . SVG Version: 6.00 Build 0)  -->
<svg version="1.1" id="PICTOS_vectos" xmlns="http://www.w3.org/2000/svg" xmlns:xlink="http://www.w3.org/1999/xlink" x="0px"
	 y="0px" viewBox="0 0 59.3 59.3" style="enable-background:new 0 0 59.3 59.3;" xml:space="preserve">
<style type="text/css">
	.st0{fill:#25465F;}
</style>
<path class="st0" d="M39.5,42.1c0.9-0.8,0.2-3-1.6-4.9s-3.9-2.6-4.8-1.8c-0.9,0.8-0.1,3.1,1.7,4.9S38.6,43,39.5,42.1z"/>
<path class="st0" d="M49,9.9c-1.9,0-3.7,0.6-5.2,1.6C43.1,12,43,13,43.4,13.6c0.5,0.7,1.4,0.8,2.1,0.4c1-0.7,2.2-1.1,3.5-1.1
	c3.2,0,5.9,2.6,5.9,5.9c0,2.8-2.1,5.1-4.8,5.4c-2.7,0.6-5.4-0.8-6.4-3.4c-0.3-0.7-0.5-1.4-0.6-2.2l-0.2-0.8
	c-0.2-0.8-0.4-1.7-0.7-2.5c-1.5-3.9-5.6-6.2-9.7-5.3c-4.2,0.6-7.3,4.2-7.3,8.4c0,1.2,0.3,2.4,0.8,3.5c-2.2,0.6-4.1,2-5.4,3.8
	c-0.8-0.2-1.6-0.3-2.4-0.3c-3.8,0-7.2,2.3-8.6,5.9c-5.1,0.2-9.1,4.6-8.9,9.7s4.6,9.1,9.7,8.9l0,0h24.4C40.4,50,45,45.4,45,39.7
	c0,0,0,0,0,0l0,0c0-4-2.4-7.6-6-9.3c-0.2-1.4-0.7-2.7-1.4-3.8c0.6-0.2,1.1-0.5,1.7-0.9c0.7-0.5,0.9-1.4,0.4-2.1
	c-0.5-0.7-1.4-0.9-2.1-0.4c0,0,0,0-0.1,0c-0.6,0.4-1.3,0.7-2,0.9c-0.5-0.5-1.1-0.9-1.8-1.2c-1.4-0.8-3-1.2-4.7-1.3
	c-0.6-0.9-1-2-1-3.2c0-2.8,2.1-5.2,4.9-5.5c2.7-0.6,5.4,0.8,6.4,3.4c0.2,0.7,0.5,1.5,0.6,2.2l0.2,0.8c0.2,0.8,0.4,1.7,0.7,2.5
	c1.2,3.4,4.4,5.6,8,5.5c0.6,0,1.1,0,1.7-0.1c4.2-0.6,7.3-4.2,7.3-8.4C57.9,13.9,53.9,9.9,49,9.9z M36,31.5c0,0.6,0.4,1.1,1,1.3
	c3.8,1.3,5.8,5.4,4.6,9.2c-1,3-3.8,5-6.9,4.9H10.3C6.8,47,4,44.2,4,40.7c0-3.5,2.8-6.3,6.3-6.3h0.2c0.7,0,1.3-0.5,1.5-1.2
	c0.7-2.8,3.2-4.7,6.1-4.7c0.8,0,1.7,0.2,2.5,0.5c0.7,0.3,1.5,0,1.9-0.6c1.9-3.5,6.4-4.8,9.9-2.9C34.5,26.7,35.9,29,36,31.5L36,31.5z
	"/>
</svg>
