<?xml version="1.0" encoding="utf-8"?>
<!-- Generator: Adobe Illustrator 24.0.1, SVG Export Plug-In . SVG Version: 6.00 Build 0)  -->
<svg version="1.1" id="PICTOS_vectos" xmlns="http://www.w3.org/2000/svg" xmlns:xlink="http://www.w3.org/1999/xlink" x="0px"
	 y="0px" viewBox="0 0 46.1 46.1" style="enable-background:new 0 0 46.1 46.1;" xml:space="preserve">
<style type="text/css">
	.st0{fill:#25465F;}
</style>
<path class="st0" d="M33,30.5c-0.9,0.9-0.1,3.1,1.7,4.9s3.9,2.6,4.8,1.7s0.2-3-1.6-4.9C36,30.4,33.9,29.6,33,30.5z"/>
<path class="st0" d="M39,25.4c-0.1-0.6-0.2-1.2-0.5-1.8c5.3-2.8,7.7-9,5.7-14.6c0-0.1-0.1-0.3-0.1-0.4c-1.8-4.5-6-7.5-10.8-7.6
	c-0.2-0.1-0.4-0.1-0.7,0c-4.8,0.1-9.1,3.1-10.8,7.6c-0.1,0.1-0.1,0.2-0.1,0.4c-0.5,1.3-0.7,2.6-0.7,4c0,2,0.5,4.1,1.5,5.8
	c-0.8,0.6-1.4,1.3-2,2.1c-0.8-0.2-1.6-0.3-2.4-0.3c-3.8,0-7.2,2.3-8.6,5.9C4.4,27,0.7,31.6,1.3,36.7c0.5,4.6,4.4,8.2,9,8.3h24.4
	C40.4,45,45,40.4,45,34.7l0,0C45,30.7,42.6,27.1,39,25.4z M42,13c0,0.9-0.1,1.8-0.4,2.7h-2.2c0.1-0.9,0.2-1.8,0.2-2.7
	c0-0.7,0-1.5-0.1-2.2h2.2C41.9,11.5,42,12.3,42,13z M36.6,13c0,0.9-0.1,1.8-0.2,2.8h-1.9v-4.9h2C36.6,11.5,36.6,12.3,36.6,13
	L36.6,13z M34.5,7.8V5.1c0.6,0.8,1,1.7,1.3,2.7H34.5z M31.5,7.8h-1.4c0.3-1,0.8-2,1.4-2.8V7.8z M31.5,10.8v4.9h-1.9
	c-0.1-1-0.2-1.9-0.2-2.9c0-0.7,0-1.3,0.1-2L31.5,10.8z M26.6,15.7h-2.2c-0.5-1.6-0.6-3.3-0.1-4.9h2.2c-0.1,0.7-0.1,1.4-0.1,2.1
	C26.4,13.8,26.5,14.8,26.6,15.7z M35,18.7h0.7c0,0.1-0.1,0.3-0.2,0.4C35.3,19,35.2,18.9,35,18.7L35,18.7z M38.3,20.2
	c0.2-0.5,0.4-1,0.5-1.5h1C39.4,19.3,38.9,19.8,38.3,20.2z M40.3,7.8h-1.4c-0.2-0.7-0.4-1.4-0.7-2.1C39,6.3,39.7,7,40.3,7.8L40.3,7.8
	z M27.6,5.8c-0.3,0.7-0.5,1.3-0.6,2h-1.3C26.2,7.1,26.9,6.4,27.6,5.8L27.6,5.8z M34.7,42H10.3C6.8,42,4,39.2,4,35.7
	c0-3.5,2.8-6.3,6.3-6.3h0.2c0.7,0,1.3-0.4,1.5-1.1c0.7-2.8,3.2-4.7,6.1-4.7c0.8,0,1.7,0.2,2.5,0.5c0.7,0.3,1.5,0,1.9-0.6
	c1.9-3.5,6.4-4.8,9.9-2.9c0.9,0.5,1.6,1.1,2.2,1.9c0,0.1,0.1,0.2,0.2,0.2c0.8,1.1,1.3,2.5,1.4,3.9c0,0.6,0.4,1.1,1,1.3
	c3.8,1.4,5.7,5.5,4.3,9.3C40.4,40.1,37.7,42,34.7,42z"/>
</svg>
