<?xml version="1.0" encoding="utf-8"?>
<!-- Generator: Adobe Illustrator 24.0.1, SVG Export Plug-In . SVG Version: 6.00 Build 0)  -->
<svg version="1.1" id="PICTOS_vectos" xmlns="http://www.w3.org/2000/svg" xmlns:xlink="http://www.w3.org/1999/xlink" x="0px"
	 y="0px" viewBox="0 0 51 51" style="enable-background:new 0 0 51 51;" xml:space="preserve">
<style type="text/css">
	.st0{fill:#25465F;}
</style>
<path class="st0" d="M38.1,21.7c-0.9,0.9-0.1,3.1,1.7,4.9s3.9,2.6,4.8,1.7s0.2-3-1.6-4.9S39,20.9,38.1,21.7z"/>
<path class="st0" d="M44.1,16.7c-0.8-5.6-6-9.5-11.7-8.7c-2.7,0.4-5.2,1.9-6.8,4.1c-0.8-0.2-1.6-0.3-2.4-0.3c-3.8,0-7.2,2.3-8.6,5.9
	c-3.4,0.3-6.4,2.5-7.7,5.6H2.5C1.7,23.4,1,24,1,24.9v16.8c0,0.8,0.7,1.5,1.5,1.5h20.2c0.8,0,1.5-0.7,1.5-1.5v-5.4h15.6
	c5.7,0,10.3-4.6,10.3-10.2C50,22,47.7,18.4,44.1,16.7z M21.2,32.5H19v-2.3h2.1L21.2,32.5z M19,34h2.1v2.4H19V34z M21.1,28.7H19v-2.3
	h2.1V28.7z M17.5,40.2H7.8V26.4h9.8V40.2z M6.3,32.5H4v-2.3h2.3V32.5z M4,34h2.3v2.4H4V34z M6.3,26.4v2.3H4v-2.3H6.3z M4,37.9h2.3
	v2.3H4V37.9z M19,40.2v-2.3h2.1v2.3H19z M39.7,33.3H24.2v-8.4c0-0.8-0.7-1.5-1.5-1.5H10.2c1.2-1.7,3.1-2.7,5.2-2.7h0.2
	c0.7,0,1.3-0.4,1.5-1.1c0.7-2.8,3.2-4.7,6.1-4.7c0.8,0,1.7,0.2,2.5,0.5c0.7,0.3,1.5,0,1.9-0.6c1.9-3.5,6.4-4.8,9.9-2.9
	c2.2,1.2,3.6,3.5,3.8,6c0,0.6,0.4,1.1,1,1.3c3.8,1.3,5.8,5.5,4.4,9.3C45.6,31.4,42.8,33.3,39.7,33.3L39.7,33.3z"/>
<path class="st0" d="M10.6,36.5c0.2,0.1,0.5,0.2,0.7,0.2c0.3,0,0.5-0.1,0.8-0.2l3.3-2c0.7-0.4,0.9-1.4,0.5-2.1
	c-0.1-0.2-0.3-0.4-0.5-0.5l-3.3-2c-0.7-0.4-1.6-0.2-2.1,0.5c-0.1,0.2-0.2,0.5-0.2,0.8v4C9.8,35.7,10.1,36.2,10.6,36.5z"/>
</svg>
