<?xml version="1.0" encoding="utf-8"?>
<!-- Generator: Adobe Illustrator 24.0.1, SVG Export Plug-In . SVG Version: 6.00 Build 0)  -->
<svg version="1.1" id="PICTOS_vectos" xmlns="http://www.w3.org/2000/svg" xmlns:xlink="http://www.w3.org/1999/xlink" x="0px"
	 y="0px" viewBox="0 0 46.1 46.1" style="enable-background:new 0 0 46.1 46.1;" xml:space="preserve">
<style type="text/css">
	.st0{fill:#25465F;}
</style>
<path class="st0" d="M33,21.8c-0.9,0.9-0.1,3.1,1.7,4.9s3.9,2.6,4.8,1.7s0.2-3-1.6-4.9S33.9,21,33,21.8z"/>
<path class="st0" d="M39,16.8c-0.8-5.6-6-9.5-11.6-8.7c-2.7,0.4-5.2,1.9-6.8,4.1c-0.8-0.2-1.6-0.3-2.4-0.3c-3.8,0-7.2,2.3-8.6,5.9
	c-5.1,0.4-8.9,4.9-8.5,10c0.4,4.9,4.5,8.6,9.3,8.6h24.4c5.7,0,10.3-4.6,10.3-10.3l0,0C45,22.1,42.6,18.4,39,16.8z M34.7,33.3H10.3
	C6.8,33.3,4,30.5,4,27c0-3.5,2.8-6.3,6.3-6.3h0.2c0.7,0,1.3-0.4,1.5-1.1c0.7-2.8,3.2-4.7,6.1-4.7c0.8,0,1.7,0.2,2.5,0.5
	c0.7,0.3,1.5,0,1.9-0.7c1.9-3.5,6.4-4.8,9.9-2.9c2.2,1.2,3.6,3.5,3.8,6c0,0.6,0.4,1.1,1,1.3c3.8,1.3,5.8,5.5,4.4,9.3
	C40.5,31.4,37.8,33.4,34.7,33.3z"/>
</svg>
