<?xml version="1.0" encoding="utf-8"?>
<!-- Generator: Adobe Illustrator 24.0.1, SVG Export Plug-In . SVG Version: 6.00 Build 0)  -->
<svg version="1.1" id="PICTOS_vectos" xmlns="http://www.w3.org/2000/svg" xmlns:xlink="http://www.w3.org/1999/xlink" x="0px"
	 y="0px" viewBox="0 0 46.1 46.1" style="enable-background:new 0 0 46.1 46.1;" xml:space="preserve">
<style type="text/css">
	.st0{fill:#25465F;}
</style>
<path class="st0" d="M33,30.4c-0.9,0.9-0.1,3.1,1.7,4.9s3.9,2.6,4.8,1.7s0.2-3-1.6-4.9C36,30.3,33.9,29.6,33,30.4z"/>
<path class="st0" d="M39,25.4c-0.1-0.9-0.4-1.8-0.8-2.6c0.7-0.3,1.3-0.6,1.9-1.1c5.2-3.6,6.4-10.7,2.8-15.9c0,0,0,0,0,0
	C39.3,0.7,32.2-0.6,27,3c0,0,0,0,0,0c-4.8,3.4-6.3,9.9-3.4,15c-1.2,0.7-2.3,1.7-3.1,2.8c-0.8-0.2-1.6-0.3-2.4-0.3
	c-3.8,0-7.2,2.3-8.6,5.8c-5.1,0.2-9.1,4.6-8.9,9.7s4.6,9.1,9.7,8.9h24.4C40.3,45.1,45,40.5,45,34.8C45.1,30.8,42.7,27.1,39,25.4z
	 M28.8,5.5c1.4-1,3.1-1.5,4.8-1.5c0.5,0,1,0,1.5,0.1c4.6,0.8,7.6,5.2,6.8,9.7s-5.2,7.6-9.7,6.8s-7.6-5.2-6.8-9.7
	C25.7,8.7,26.9,6.8,28.8,5.5L28.8,5.5z M34.7,42H10.3C6.8,42,4,39.2,4,35.7c0-3.5,2.8-6.3,6.3-6.3h0.2c0.7,0,1.3-0.5,1.5-1.1
	c0.7-2.8,3.2-4.7,6.1-4.7c0.8,0,1.7,0.2,2.5,0.5c0.7,0.3,1.5,0,1.9-0.7c0.7-1.3,1.7-2.3,3-2.9c1.6,1.7,3.8,2.8,6.1,3.2
	c1.2,0.2,2.5,0.2,3.8,0c0.4,0.9,0.7,1.9,0.7,2.8c0,0.6,0.4,1.1,1,1.3c3.8,1.2,5.9,5.3,4.7,9.1C40.8,40,37.9,42.1,34.7,42z"/>
<path class="st0" d="M27.8,13.9h1.1c0.1,0.3,0.2,0.5,0.3,0.8l-0.8,0.8c-0.6,0.6-0.6,1.5,0,2.1c0,0,0,0,0,0c0.3,0.3,0.7,0.4,1.1,0.4
	c0.4,0,0.8-0.2,1.1-0.4l0.7-0.7c0.3,0.1,0.5,0.3,0.8,0.4v1c0,0.8,0.7,1.5,1.5,1.5s1.5-0.7,1.5-1.5v-1c0.3-0.1,0.6-0.2,0.8-0.4
	l0.7,0.7c0.3,0.3,0.7,0.4,1.1,0.4c0.4,0,0.8-0.2,1.1-0.4c0.6-0.6,0.6-1.5,0-2.1L38,14.7c0.1-0.3,0.2-0.5,0.3-0.8h1
	c0.8,0,1.5-0.7,1.5-1.5s-0.7-1.5-1.5-1.5h-1.1c-0.1-0.3-0.2-0.5-0.3-0.7l0.8-0.8c0.6-0.6,0.5-1.6-0.1-2.1c-0.6-0.5-1.5-0.5-2,0
	l-0.9,0.9c-0.2-0.1-0.4-0.2-0.7-0.3V6.6c0-0.8-0.7-1.5-1.5-1.5s-1.5,0.7-1.5,1.5v1.3C31.9,8,31.6,8,31.4,8.1l-0.9-0.9
	c-0.6-0.6-1.5-0.6-2.1,0c-0.6,0.6-0.6,1.5,0,2.1c0,0,0,0,0,0l0.9,0.9c-0.1,0.2-0.2,0.4-0.3,0.7h-1.2c-0.8,0-1.5,0.7-1.5,1.5
	S26.9,13.9,27.8,13.9z M32.5,11c0.3-0.2,0.7-0.4,1.1-0.4c1.1,0,1.9,0.9,1.9,1.9c0,1.1-0.9,1.9-1.9,1.9s-1.9-0.9-1.9-1.9
	c0-0.1,0-0.2,0-0.3C31.8,11.7,32.1,11.3,32.5,11z"/>
</svg>
