<?xml version="1.0" encoding="utf-8"?>
<!-- Generator: Adobe Illustrator 24.0.1, SVG Export Plug-In . SVG Version: 6.00 Build 0)  -->
<svg version="1.1" id="PICTOS_vectos" xmlns="http://www.w3.org/2000/svg" xmlns:xlink="http://www.w3.org/1999/xlink" x="0px"
	 y="0px" viewBox="0 0 46.1 46.1" style="enable-background:new 0 0 46.1 46.1;" xml:space="preserve">
<style type="text/css">
	.st0{fill:#25465F;}
</style>
<path class="st0" d="M9.1,36.2c-0.6,0-1.1,0.1-1.6,0.4l0.2-1.5h4v-2H5.9l-0.6,5.2l1.9,0.3c0.2-0.6,0.8-0.9,1.4-0.8
	c0.8,0,1.5,0.6,1.5,1.5s-0.6,1.5-1.5,1.5c-0.7,0.1-1.3-0.4-1.4-1.1c0,0,0,0,0,0L5.1,40c0.3,1.6,1.5,2.5,3.5,2.5
	c2.3,0,3.6-1.2,3.6-3.2c0.1-1.6-1.1-3-2.7-3.1C9.4,36.2,9.2,36.2,9.1,36.2z"/>
<path class="st0" d="M17,32.9c-2.4,0-3.8,1.7-3.8,4.8s1.4,4.8,3.8,4.8s3.8-1.7,3.8-4.8S19.4,32.9,17,32.9z M17,40.6
	c-1,0-1.6-0.6-1.6-2.9s0.6-2.9,1.6-2.9s1.6,0.6,1.6,2.9S18,40.6,17,40.6z"/>
<path class="st0" d="M28.7,39h2c0.1,0,0.1,0,0.1,0.1l0,0c0,0.9-0.7,1.4-1.8,1.4c-1.5,0-2.2-1-2.2-2.9s0.7-2.9,2.1-2.9
	c0.8-0.1,1.6,0.5,1.8,1.3l2.1-0.5c-0.4-1.8-1.9-2.7-3.9-2.7c-2.8,0-4.3,1.9-4.3,4.8c0,3.1,1.6,4.8,4.4,4.8c2.5,0,4-1.2,4-3.6v-1.7
	h-4.2V39z"/>
<path class="st0" d="M37.4,34.9c-2.2,0-3.5,1.4-3.5,3.8s1.3,3.8,3.5,3.8s3.6-1.4,3.6-3.8S39.6,34.9,37.4,34.9z M37.4,40.7
	c-1,0-1.4-0.6-1.4-2s0.5-2,1.4-2s1.5,0.6,1.5,2S38.4,40.7,37.4,40.7z"/>
<path class="st0" d="M33,14.8c-0.9,0.9-0.1,3.1,1.7,4.9s3.9,2.6,4.8,1.7s0.2-3-1.6-4.9S33.9,14,33,14.8z"/>
<path class="st0" d="M39,9.8c-0.8-5.6-6-9.5-11.6-8.7c-2.7,0.4-5.2,1.9-6.8,4.1c-0.8-0.2-1.6-0.3-2.4-0.3c-3.8,0-7.2,2.3-8.6,5.9
	c-5.1,0.4-8.9,4.9-8.5,10c0.4,4.9,4.5,8.6,9.3,8.6h24.4c5.7,0,10.3-4.6,10.3-10.3c0,0,0,0,0,0l0,0C45,15.1,42.6,11.4,39,9.8z
	 M34.7,26.3H10.3C6.8,26.3,4,23.5,4,20c0-3.5,2.8-6.3,6.3-6.3h0.2c0.7,0,1.3-0.4,1.5-1.1c0.7-2.8,3.2-4.7,6.1-4.7
	c0.8,0,1.7,0.2,2.5,0.5c0.7,0.3,1.5,0,1.9-0.7c1.9-3.5,6.4-4.8,9.9-2.9c2.2,1.2,3.6,3.5,3.8,6c0,0.6,0.4,1.1,1,1.3
	c3.8,1.3,5.8,5.5,4.4,9.3C40.5,24.4,37.8,26.4,34.7,26.3z"/>
</svg>
