<?xml version="1.0" encoding="utf-8"?>
<!-- Generator: Adobe Illustrator 24.0.1, SVG Export Plug-In . SVG Version: 6.00 Build 0)  -->
<svg version="1.1" id="PICTOS_vectos" xmlns="http://www.w3.org/2000/svg" xmlns:xlink="http://www.w3.org/1999/xlink" x="0px"
	 y="0px" viewBox="0 0 46 46" style="enable-background:new 0 0 46 46;" xml:space="preserve">
<style type="text/css">
	.st0{fill:#25465F;}
</style>
<path class="st0" d="M10.5,38.8c0.9-0.3,1.5-1.1,1.4-2c0-1.6-1.3-2.6-3.3-2.6s-3.3,1-3.6,2.7l2.1,0.4c0.1-0.7,0.7-1.3,1.4-1.3
	c0,0,0,0,0.1,0c0.8,0,1.2,0.4,1.2,1s-0.4,1-1.2,1H7.7v1.8h1c0.8,0,1.2,0.4,1.2,1.1s-0.5,1-1.5,1C7.8,42,7.1,41.5,7,40.8
	c0-0.1,0-0.1,0-0.2L4.8,41c0.3,1.9,1.5,2.8,3.7,2.8s3.6-0.9,3.6-2.8C12.2,39.9,11.5,39,10.5,38.8z"/>
<path class="st0" d="M17.1,34.2c-2.4,0-3.8,1.7-3.8,4.8s1.4,4.8,3.8,4.8S21,42,21,39S19.5,34.2,17.1,34.2z M17.1,41.9
	c-1,0-1.6-0.6-1.6-2.9s0.6-2.9,1.6-2.9s1.6,0.6,1.6,2.9S18.1,41.9,17.1,41.9z"/>
<path class="st0" d="M28.8,40.3h2c0.1,0,0.1,0,0.1,0.1l0,0c0,0.9-0.7,1.4-1.8,1.4c-1.5,0-2.2-1-2.2-2.9s0.7-2.9,2.1-2.9
	c0.8-0.1,1.6,0.5,1.7,1.3l2.1-0.5c-0.4-1.8-1.9-2.7-3.9-2.7c-2.8,0-4.3,1.9-4.3,4.8c0,3.1,1.6,4.8,4.4,4.8c2.5,0,4-1.2,4-3.6v-1.7
	h-4.1V40.3z"/>
<path class="st0" d="M37.5,36.1c-2.2,0-3.6,1.4-3.6,3.8s1.3,3.8,3.6,3.8c2.2,0,3.5-1.4,3.5-3.8S39.8,36.1,37.5,36.1z M37.5,41.9
	c-1,0-1.4-0.6-1.4-2s0.5-2,1.4-2s1.4,0.6,1.4,2S38.5,41.9,37.5,41.9z"/>
<path class="st0" d="M33,16c-0.9,0.9-0.1,3.1,1.7,4.9c1.8,1.9,3.9,2.6,4.8,1.7s0.2-3-1.6-4.9C36.1,15.9,33.9,15.2,33,16z"/>
<path class="st0" d="M39,11c-0.8-5.6-6-9.5-11.6-8.7c-2.7,0.4-5.2,1.9-6.8,4.1c-0.8-0.2-1.6-0.3-2.4-0.3c-3.8,0-7.2,2.3-8.6,5.9
	C4.4,12.4,0.6,16.9,1,22c0.4,4.9,4.5,8.6,9.3,8.6h24.4C40.4,30.6,45,26,45,20.3c0,0,0,0,0,0l0,0C45,16.3,42.7,12.7,39,11z
	 M34.7,27.6H10.3c-3.5,0-6.3-2.8-6.3-6.3c0-3.5,2.8-6.3,6.3-6.3h0.2c0.7,0,1.3-0.4,1.5-1.1c0.7-2.8,3.2-4.7,6.1-4.7
	c0.8,0,1.7,0.2,2.5,0.5c0.7,0.3,1.5,0,1.9-0.6c1.9-3.5,6.4-4.8,9.9-2.9c2.2,1.2,3.6,3.5,3.8,6c0,0.6,0.4,1.1,1,1.3
	c3.8,1.3,5.8,5.5,4.4,9.3C40.5,25.6,37.8,27.6,34.7,27.6z"/>
</svg>
