<?xml version="1.0" encoding="utf-8"?>
<!-- Generator: Adobe Illustrator 24.0.1, SVG Export Plug-In . SVG Version: 6.00 Build 0)  -->
<svg version="1.1" id="PICTOS_vectos" xmlns="http://www.w3.org/2000/svg" xmlns:xlink="http://www.w3.org/1999/xlink" x="0px"
	 y="0px" viewBox="0 0 46.1 46.1" style="enable-background:new 0 0 46.1 46.1;" xml:space="preserve">
<style type="text/css">
	.st0{fill:#25465F;}
</style>
<path class="st0" d="M33,30.4c-0.9,0.9-0.1,3.1,1.7,4.9s3.9,2.6,4.8,1.7s0.2-3-1.6-4.9C36,30.3,33.9,29.6,33,30.4z"/>
<path class="st0" d="M39,25.4c-0.1-0.9-0.4-1.8-0.8-2.6c5.8-2.6,8.3-9.3,5.8-15.1c-2.6-5.8-9.3-8.3-15.1-5.8s-8.3,9.3-5.8,15.1
	c0.1,0.3,0.3,0.7,0.5,1c-1.2,0.7-2.3,1.7-3.1,2.8c-0.8-0.2-1.6-0.3-2.4-0.3c-3.8,0-7.2,2.4-8.6,5.9c-5.1,0.2-9.1,4.6-8.9,9.7
	s4.6,9.1,9.7,8.9h24.4C40.3,45.1,45,40.5,45,34.8C45.1,30.8,42.7,27.1,39,25.4z M33.5,4c4.6,0,8.4,3.8,8.4,8.4
	c0,4.6-3.8,8.4-8.4,8.4s-8.4-3.8-8.4-8.4c0,0,0,0,0,0C25.1,7.8,28.9,4,33.5,4z M34.7,42H10.3C6.8,42,4,39.2,4,35.7
	c0-3.5,2.8-6.3,6.3-6.3h0.2c0.7,0,1.3-0.5,1.5-1.2c0.7-2.8,3.2-4.7,6.1-4.7c0.8,0,1.7,0.2,2.5,0.5c0.7,0.3,1.5,0,1.9-0.6
	c0.7-1.2,1.7-2.3,3-2.9c2.1,2.2,5,3.4,8.1,3.4c0.6,0,1.2-0.1,1.8-0.2c0.4,0.9,0.7,1.9,0.8,2.9c0,0.6,0.4,1.1,1,1.3
	c3.8,1.3,5.9,5.4,4.6,9.2C40.6,40,37.8,42,34.7,42z"/>
<path class="st0" d="M32,18.4c0,0.8,0.7,1.5,1.5,1.5s1.5-0.7,1.5-1.5v-4.5h4.5c0.8,0,1.5-0.7,1.5-1.5s-0.7-1.5-1.5-1.5H35V6.4
	c0-0.8-0.7-1.5-1.5-1.5S32,5.6,32,6.4v4.5h-4.5c-0.8,0-1.5,0.7-1.5,1.5s0.7,1.5,1.5,1.5h4.5L32,18.4z"/>
</svg>
