<?xml version="1.0" encoding="utf-8"?>
<!-- Generator: Adobe Illustrator 24.0.1, SVG Export Plug-In . SVG Version: 6.00 Build 0)  -->
<svg version="1.1" id="PICTOS_vectos" xmlns="http://www.w3.org/2000/svg" xmlns:xlink="http://www.w3.org/1999/xlink" x="0px"
	 y="0px" viewBox="0 0 46 46" style="enable-background:new 0 0 46 46;" xml:space="preserve">
<style type="text/css">
	.st0{fill:#25465F;}
</style>
<path class="st0" d="M18.4,32.3c-1.4,0-2.1-0.9-2.1-3.2S17,26,18.4,26c1-0.1,1.8,0.7,1.8,1.6c0,0,0,0,0,0l2.4-0.5
	c-0.3-2.1-2.2-3.5-4.3-3.4c-2.8,0-4.6,2-4.6,5.3s1.6,5.3,4.6,5.3c2.5,0,3.9-1.1,4.4-3.3l-2.4-0.5C20.3,31.6,19.4,32.4,18.4,32.3
	C18.4,32.3,18.4,32.3,18.4,32.3z"/>
<path class="st0" d="M28,23.8c-3,0-4.8,1.9-4.8,5.3s1.8,5.3,4.8,5.3s4.8-1.9,4.8-5.3S31,23.8,28,23.8z M28,32.3
	c-1.5,0-2.3-0.9-2.3-3.2S26.4,26,28,26s2.3,0.9,2.3,3.2S29.5,32.3,28,32.3z"/>
<path class="st0" d="M36.3,32.1c0.9-0.3,1.5-1.1,1.5-2c0-1.2-0.8-1.9-2.2-1.9c-1.2-0.1-2.2,0.7-2.3,1.9c0,0,0,0,0,0l1.4,0.2
	c0-0.6,0.4-0.9,0.9-0.9c0.4-0.1,0.7,0.2,0.8,0.6c0,0.1,0,0.1,0,0.2c0,0.7-0.6,0.9-1.5,1.3c-0.9,0.3-1.5,1.2-1.5,2.1v0.8h4.4V33h-2.8
	C35,32.6,35.6,32.4,36.3,32.1z"/>
<path class="st0" d="M39,21.5c-0.8-5.6-6-9.5-11.7-8.7c-2.7,0.4-5.2,1.9-6.8,4.1c-0.8-0.2-1.6-0.3-2.4-0.3c-3.8,0-7.2,2.4-8.6,5.9
	c-5.1,0.6-8.7,5.3-8.1,10.4c0.6,4.5,4.3,8,8.9,8.1h24.4c5.7-0.1,10.2-4.7,10.2-10.4C44.8,26.7,42.5,23.2,39,21.5z M34.7,38H10.3
	C6.8,38,4,35.2,4,31.7c0-3.5,2.8-6.3,6.3-6.3h0.2c0.7,0,1.3-0.4,1.5-1.1c0.8-3.3,4.2-5.4,7.5-4.6c0.3,0.1,0.7,0.2,1,0.3
	c0.7,0.3,1.5,0,1.9-0.6c1.9-3.5,6.4-4.8,9.9-2.9c2.2,1.2,3.6,3.5,3.8,6c0,0.6,0.4,1.1,1,1.4c3.8,1.3,5.8,5.4,4.5,9.2
	C40.6,36.1,37.8,38,34.7,38z"/>
<path class="st0" d="M9.7,9.7c0.2,0.1,0.4,0.1,0.6,0.1c0.4,0,0.8-0.2,1.1-0.4c0.1-0.1,0.2-0.3,0.3-0.5c0.1-0.2,0.1-0.4,0.1-0.6
	c0-0.2,0-0.4-0.1-0.6c0-0.1-0.1-0.2-0.1-0.3c-0.1-0.1-0.1-0.2-0.2-0.2C11.2,7.2,11,7.1,10.8,7c-0.1,0-0.2-0.1-0.3-0.1
	c-0.2,0-0.4,0-0.6,0C9.9,6.9,9.8,7,9.7,7C9.6,7,9.5,7.1,9.4,7.1C9.3,7.2,9.3,7.3,9.2,7.3C9.1,7.4,9.1,7.5,9,7.5
	C9,7.6,8.9,7.7,8.9,7.8S8.8,8,8.8,8.1c0,0.1,0,0.2,0,0.3c0,0.4,0.1,0.8,0.4,1C9.3,9.6,9.5,9.7,9.7,9.7z"/>
<path class="st0" d="M5.3,18.3c0.2,0.1,0.4,0.1,0.6,0.1c0.2,0,0.4,0,0.6-0.1c0.2-0.1,0.3-0.2,0.5-0.3c0.3-0.3,0.4-0.7,0.4-1.1
	c0-0.4-0.2-0.8-0.4-1.1c-0.4-0.4-0.9-0.5-1.3-0.4c-0.1,0-0.2,0-0.3,0.1c-0.1,0-0.2,0.1-0.3,0.1c-0.1,0.1-0.2,0.1-0.2,0.2
	c-0.1,0.1-0.1,0.1-0.2,0.2c-0.1,0.1-0.1,0.2-0.1,0.3c-0.2,0.6-0.1,1.2,0.3,1.6C4.9,18.1,5.1,18.2,5.3,18.3z"/>
<path class="st0" d="M22.3,11c2.1-1.5,3.2-3.5,2.5-4.5s-3-0.5-5.1,0.9s-3.1,3.5-2.4,4.5S20.2,12.5,22.3,11z"/>
<path class="st0" d="M32.7,7.8C32.8,7.9,33,8,33.2,8c0.4,0,0.8-0.2,1.1-0.5c0.3-0.3,0.4-0.6,0.4-1c0-0.4-0.2-0.8-0.4-1.1
	c-0.3-0.4-0.9-0.5-1.4-0.4l-0.3,0.1c-0.1,0-0.2,0.1-0.3,0.2c-0.2,0.1-0.3,0.2-0.4,0.4c-0.1,0.1-0.1,0.2-0.1,0.3
	c0,0.1-0.1,0.2-0.1,0.3c0,0.1,0,0.2,0,0.3c0,0.4,0.2,0.7,0.4,1C32.3,7.6,32.5,7.7,32.7,7.8z"/>
<path class="st0" d="M39.5,14c0.3,0.3,0.7,0.4,1.1,0.4c0.2,0,0.4,0,0.6-0.1c0.2-0.1,0.3-0.2,0.5-0.3c0.1-0.1,0.3-0.3,0.3-0.5
	c0.1-0.2,0.1-0.4,0.1-0.6c0-0.4-0.2-0.8-0.5-1.1c-0.6-0.6-1.5-0.6-2.1,0C38.9,12.4,38.9,13.4,39.5,14L39.5,14z"/>
</svg>
