<?xml version="1.0" encoding="utf-8"?>
<!-- Generator: Adobe Illustrator 24.0.1, SVG Export Plug-In . SVG Version: 6.00 Build 0)  -->
<svg version="1.1" id="PICTOS_vectos" xmlns="http://www.w3.org/2000/svg" xmlns:xlink="http://www.w3.org/1999/xlink" x="0px"
	 y="0px" viewBox="0 0 46 46.1" style="enable-background:new 0 0 46 46.1;" xml:space="preserve">
<style type="text/css">
	.st0{fill:#25465F;}
</style>
<path class="st0" d="M43.3,18.3h-0.1l-3.5-0.5c-0.3-0.9-0.7-1.8-1.1-2.7l2.1-2.8l0.1-0.1c0.5-0.9,0.5-2-0.2-2.9
	c0-0.1-0.1-0.1-0.1-0.2L37,5.7c-0.8-0.8-2.1-0.9-3-0.2l-3,2.1c-0.9-0.4-1.8-0.8-2.7-1.1l-0.6-3.6C27.6,1.8,26.6,1,25.4,1h-4.8
	c-1.1,0-2,0.8-2.3,1.8v0.1l-0.5,3.5c-0.9,0.3-1.8,0.7-2.7,1.1l-2.9-2.1c-0.9-0.6-2.1-0.6-2.9,0.1L9.1,5.7L5.7,9.1
	c-0.8,0.8-0.9,2.1-0.2,3L7.5,15c-0.5,0.9-0.8,1.7-1.1,2.7l-3.5,0.5C1.8,18.5,1,19.5,1,20.6v4.8c0,1.1,0.8,2,1.8,2.3H3l3.3,0.5
	c0.3,1,0.7,1.9,1.1,2.8l-2,2.7c-0.6,0.9-0.6,2.1,0.1,2.9c0,0.1,0.1,0.1,0.1,0.2l3.4,3.4c0.8,0.8,2.1,0.9,3.1,0.2l2.8-2
	c0.9,0.5,1.9,0.9,2.8,1.2l0.5,3.3c0.2,1.1,1.2,1.9,2.3,1.9h4.8c1.1,0,2-0.8,2.3-1.8c0,0,0-0.1,0-0.1l0.5-3.2c1-0.3,2-0.7,2.9-1.2
	l2.7,2c0.9,0.6,2.1,0.6,2.9-0.1c0.1,0,0.1-0.1,0.2-0.1l3.4-3.4c0.8-0.8,0.9-2.1,0.2-3.1l-2-2.7c0.5-0.9,0.9-1.9,1.2-2.8l3.4-0.5
	c1.1-0.2,1.9-1.2,1.9-2.3v-4.7C45.1,19.6,44.4,18.6,43.3,18.3z M42,24.9l-3.7,0.6c-0.6,0.1-1.1,0.5-1.2,1.1
	c-0.3,1.4-0.8,2.7-1.6,3.9c-0.3,0.5-0.3,1.1,0.1,1.6l2.2,3.1l-2.7,2.6l-3-2.2c-0.5-0.4-1.1-0.4-1.6-0.1c-1.2,0.7-2.5,1.3-3.9,1.6
	c-0.6,0.1-1.1,0.6-1.1,1.2L24.9,42h-3.8l-0.6-3.6c-0.1-0.6-0.5-1.1-1.1-1.2c-1.4-0.4-2.7-0.9-3.9-1.6c-0.5-0.3-1.1-0.3-1.6,0.1
	l-3.1,2.2l-2.7-2.7l2.2-3.1c0.3-0.5,0.4-1.1,0.1-1.6c-0.7-1.2-1.2-2.5-1.6-3.9c-0.1-0.6-0.6-1-1.2-1.1L4,24.9v-3.7l3.8-0.6
	C8.4,20.5,8.9,20,9,19.4c0.3-1.3,0.8-2.5,1.5-3.7c0.3-0.5,0.3-1.2-0.1-1.6l-2.3-3.2l2.7-2.7l3.2,2.3c0.5,0.4,1.1,0.4,1.6,0.1
	c1.1-0.7,2.4-1.2,3.7-1.5C20,9,20.5,8.5,20.5,7.9L21.1,4h3.7l0.6,3.9c0.1,0.6,0.5,1.1,1.1,1.2c1.3,0.4,2.6,0.9,3.8,1.6
	c0.5,0.3,1.2,0.3,1.7-0.1l3.3-2.3l2.7,2.7l-2.4,3.2c-0.4,0.5-0.4,1.1-0.1,1.7c0.7,1.1,1.2,2.4,1.5,3.7c0.1,0.6,0.6,1,1.2,1.1
	l3.8,0.6L42,24.9z"/>
<path class="st0" d="M23.1,12.1c-6,0-10.9,4.9-10.9,10.9S17,33.9,23.1,33.9C29.1,33.9,34,29,34,23C34,17,29.1,12.1,23.1,12.1z
	 M23.1,30.9c-4.4,0-7.9-3.5-7.9-7.9c0-4.4,3.5-7.9,7.9-7.9S31,18.6,31,23c0,0,0,0,0,0C31,27.4,27.4,30.9,23.1,30.9z"/>
<path class="st0" d="M23.6,23.5c-1.5,2.1-1.8,4.3-0.8,5s3-0.4,4.5-2.5s1.8-4.4,0.8-5S25,21.4,23.6,23.5z"/>
</svg>
