<?xml version="1.0" encoding="utf-8"?>
<!-- Generator: Adobe Illustrator 24.0.1, SVG Export Plug-In . SVG Version: 6.00 Build 0)  -->
<svg version="1.1" id="PICTOS_vectos" xmlns="http://www.w3.org/2000/svg" xmlns:xlink="http://www.w3.org/1999/xlink" x="0px"
	 y="0px" viewBox="0 0 46 46" style="enable-background:new 0 0 46 46;" xml:space="preserve">
<style type="text/css">
	.st0{fill:#25465F;}
</style>
<path class="st0" d="M7.8,22.1c-1.2,0-2.2,2.1-2.2,4.7s1,4.6,2.2,4.6s2.3-2.1,2.3-4.6S9,22.1,7.8,22.1z"/>
<path class="st0" d="M18.9,22.1c-1.2,0-2.2,2.1-2.2,4.7s1,4.6,2.2,4.6s2.2-2.1,2.3-4.6S20.1,22.1,18.9,22.1z"/>
<path class="st0" d="M45.2,38.2L36.5,4.3c-0.2-0.8-1-1.3-1.8-1.1c0,0,0,0,0,0l-9,2.3c-0.3-0.5-0.8-0.7-1.3-0.7H2.3
	c-0.8,0-1.5,0.7-1.5,1.5v35c0,0.8,0.7,1.5,1.5,1.5h22.1c0.8,0,1.5-0.7,1.5-1.5v-22l5.8,22.4c0.2,0.7,0.8,1.1,1.5,1.1
	c0.1,0,0.2,0,0.4,0L44.1,40C44.9,39.8,45.4,39,45.2,38.2C45.2,38.2,45.2,38.2,45.2,38.2L45.2,38.2z M27.5,13.6l7.7-2l5.4,20.8
	l-7.7,2L27.5,13.6z M33.9,6.5l0.9,3.6l-7.7,2l-0.9-3.6L33.9,6.5z M22.9,7.8v3.8h-8V7.8H22.9z M3.8,13.1h8v21.5h-8L3.8,13.1z
	 M14.9,13.1h8v21.5h-8L14.9,13.1z M11.8,7.8v3.8h-8V7.8H11.8z M3.8,39.8v-3.8h8v3.8L3.8,39.8z M14.9,39.8v-3.8h8v3.8L14.9,39.8z
	 M34.2,39.5l-0.9-3.6l7.7-2l0.9,3.6L34.2,39.5z"/>
<path class="st0" d="M36.9,25.3c-0.6-2.5-2.1-4.3-3.3-4s-1.6,2.7-1,5.2s2.1,4.2,3.3,3.9S37.5,27.8,36.9,25.3z"/>
</svg>
