<?xml version="1.0" encoding="utf-8"?>
<!-- Generator: Adobe Illustrator 24.0.1, SVG Export Plug-In . SVG Version: 6.00 Build 0)  -->
<svg version="1.1" id="PICTOS_vectos" xmlns="http://www.w3.org/2000/svg" xmlns:xlink="http://www.w3.org/1999/xlink" x="0px"
	 y="0px" viewBox="0 0 46 46" style="enable-background:new 0 0 46 46;" xml:space="preserve">
<style type="text/css">
	.st0{fill:#25465F;}
</style>
<path class="st0" d="M43.5,15.5c-0.8,0-1.5,0.7-1.5,1.5c0,0,0,0,0,0v12.8c0,0.9-0.7,1.6-1.6,1.6c0,0,0,0,0,0H22.9
	c-0.4,0-0.7,0.1-1,0.4l-7.7,7v-5.9c0-0.8-0.7-1.5-1.5-1.5H5.6c-0.9,0-1.6-0.7-1.6-1.6v-19C4,10,4.7,9.3,5.6,9.2c0,0,0,0,0,0h5.1
	c0.8,0,1.5-0.7,1.5-1.5s-0.7-1.5-1.5-1.5H5.6C3.1,6.2,1,8.3,1,10.8c0,0,0,0,0,0v19c0,2.5,2.1,4.6,4.6,4.6c0,0,0,0,0,0h5.7v7.8
	c0,0.6,0.4,1.1,0.9,1.4c0.2,0.1,0.4,0.1,0.6,0.1c0.4,0,0.7-0.1,1-0.4l9.8-8.9h16.9c2.5,0,4.6-2,4.6-4.6V17
	C45,16.2,44.4,15.5,43.5,15.5C43.5,15.5,43.5,15.5,43.5,15.5z"/>
<path class="st0" d="M17.6,13.2c1.1,0.8,2.5,1.2,3.8,1.2h17.2c0.1,0,0.3,0,0.4-0.1c0.1,0,0.3,0,0.4,0c1.8-0.3,3.3-1.3,4.3-2.8
	c2.1-3,1.4-7.2-1.7-9.3c-3-2.1-7.2-1.4-9.3,1.7c-1,1.4-1.4,3.2-1.1,5c0.2,0.9,0.5,1.8,1,2.5H27c2.1-3.1,1.2-7.3-1.9-9.3
	S17.9,0.9,15.8,4C13.8,7,14.6,11.1,17.6,13.2L17.6,13.2z M36.2,10.8c-1.7-1.2-2.1-3.5-0.9-5.2c1.2-1.7,3.5-2.1,5.2-1
	c0.8,0.6,1.4,1.5,1.6,2.5c0.2,1-0.1,2-0.6,2.8c-0.6,0.8-1.4,1.4-2.4,1.5c-0.2,0-0.4,0-0.6,0h-0.2C37.5,11.4,36.8,11.2,36.2,10.8z
	 M18.4,5.6c1.2-1.7,3.5-2.1,5.2-0.9c0.8,0.6,1.4,1.4,1.5,2.4c0.2,1-0.1,2-0.6,2.8c-0.6,0.8-1.4,1.4-2.4,1.5c-0.2,0-0.4,0-0.6,0h-0.2
	c-0.7,0-1.4-0.3-2-0.7c-0.8-0.6-1.4-1.4-1.5-2.4C17.6,7.4,17.8,6.4,18.4,5.6z"/>
<path class="st0" d="M10.9,21.3c-1.5,2.1-1.8,4.3-0.8,5s3-0.4,4.5-2.5s1.8-4.4,0.8-5.1S12.3,19.2,10.9,21.3z"/>
<path class="st0" d="M21.1,21.3c-1.5,2.1-1.8,4.3-0.8,5s3-0.4,4.5-2.5s1.8-4.4,0.8-5.1S22.6,19.2,21.1,21.3z"/>
<path class="st0" d="M31.4,21.3c-1.5,2.1-1.8,4.3-0.8,5s3-0.4,4.5-2.5s1.8-4.4,0.8-5.1S32.8,19.2,31.4,21.3z"/>
</svg>
