<?xml version="1.0" encoding="utf-8"?>
<!-- Generator: Adobe Illustrator 24.0.1, SVG Export Plug-In . SVG Version: 6.00 Build 0)  -->
<svg version="1.1" id="PICTOS_vectos" xmlns="http://www.w3.org/2000/svg" xmlns:xlink="http://www.w3.org/1999/xlink" x="0px"
	 y="0px" viewBox="0 0 46 46" style="enable-background:new 0 0 46 46;" xml:space="preserve">
<style type="text/css">
	.st0{fill:#25465F;}
</style>
<path class="st0" d="M30.4,19c5.7-0.1,11-3.1,14.2-7.8c0.4-0.7,0.4-1.6,0-2.3C41.5,4.1,36.2,1.1,30.4,1c-5.7,0.1-11,3.1-14.2,7.8
	c-0.4,0.7-0.4,1.6,0,2.3C19.4,15.9,24.7,18.9,30.4,19z M30.4,4c4.5,0.1,8.7,2.3,11.4,6c-2.6,3.7-6.8,5.9-11.4,6
	c-4.5-0.1-8.7-2.3-11.4-6C21.7,6.3,25.9,4.1,30.4,4z"/>
<path class="st0" d="M27.4,14.3c0.9,0.6,1.9,1,3,1c2.9,0,5.3-2.4,5.3-5.3c0-1.7-0.9-3.3-2.3-4.3C31,4,27.7,4.6,26,7
	c-0.8,1.2-1.1,2.6-0.9,4C25.4,12.3,26.2,13.6,27.4,14.3z M28.6,8.7L28.6,8.7c0.3-0.5,0.9-0.8,1.4-0.9c0.1,0,0.3,0,0.4,0
	c1.3,0,2.3,1,2.3,2.3s-1,2.3-2.3,2.3c-0.5,0-0.9-0.1-1.3-0.4c-0.5-0.4-0.8-0.9-0.9-1.5C28,9.8,28.2,9.2,28.6,8.7z"/>
<path class="st0" d="M43.5,16.7c-0.8,0-1.5,0.7-1.5,1.5v12.9c0,0.9-0.7,1.6-1.6,1.6H22.9c-0.4,0-0.7,0.1-1,0.4l-7.7,7v-5.9
	c0-0.8-0.7-1.5-1.5-1.5H5.6c-0.9,0-1.6-0.7-1.6-1.6v-19c0-0.9,0.7-1.6,1.6-1.6h6.1c0.8,0,1.5-0.7,1.5-1.5s-0.7-1.5-1.5-1.5H5.6
	C3.1,7.5,1,9.5,1,12v19c0,2.5,2,4.6,4.6,4.6h5.7v7.8c0,0.6,0.3,1.1,0.9,1.4c0.2,0.1,0.4,0.1,0.6,0.1c0.4,0,0.7-0.1,1-0.4l9.8-8.9
	h16.9c2.5,0,4.5-2,4.6-4.5V18.2C45,17.4,44.3,16.7,43.5,16.7z"/>
<path class="st0" d="M10.9,22.5c-1.5,2.1-1.8,4.3-0.8,5s3-0.4,4.5-2.5s1.8-4.4,0.8-5.1S12.3,20.4,10.9,22.5z"/>
<path class="st0" d="M21.1,22.5c-1.5,2.1-1.8,4.3-0.8,5s3-0.4,4.5-2.5s1.8-4.4,0.8-5.1S22.6,20.4,21.1,22.5z"/>
<path class="st0" d="M31.4,22.5c-1.5,2.1-1.8,4.3-0.8,5s3-0.4,4.5-2.5s1.8-4.4,0.8-5.1S32.8,20.4,31.4,22.5z"/>
</svg>
