<?xml version="1.0" encoding="utf-8"?>
<!-- Generator: Adobe Illustrator 24.0.1, SVG Export Plug-In . SVG Version: 6.00 Build 0)  -->
<svg version="1.1" id="PICTOS_vectos" xmlns="http://www.w3.org/2000/svg" xmlns:xlink="http://www.w3.org/1999/xlink" x="0px"
	 y="0px" viewBox="0 0 46 46" style="enable-background:new 0 0 46 46;" xml:space="preserve">
<style type="text/css">
	.st0{fill:#25465F;}
</style>
<path class="st0" d="M40.4,4.3H5.6C3,4.3,1,6.3,1,8.8v19c0,2.5,2,4.6,4.6,4.6h5.7v7.8c0,0.6,0.3,1.1,0.9,1.4
	c0.2,0.1,0.4,0.1,0.6,0.1c0.4,0,0.7-0.1,1-0.4l9.8-8.9h16.9c2.5,0,4.6-2.1,4.6-4.6c0,0,0,0,0,0v-19C45,6.3,43,4.3,40.4,4.3
	C40.4,4.3,40.4,4.3,40.4,4.3z M42,27.9c0,0.9-0.7,1.6-1.6,1.6H22.9c-0.4,0-0.7,0.1-1,0.4l-7.7,7v-5.9c0-0.8-0.7-1.5-1.5-1.5H5.6
	c-0.9,0-1.6-0.7-1.6-1.6v-19C4,8,4.7,7.3,5.6,7.3c0,0,0,0,0,0h34.9C41.3,7.3,42,8,42,8.8V27.9z"/>
<path class="st0" d="M10.9,17.3c-1.5,2.1-1.8,4.3-0.8,5s3-0.4,4.5-2.5s1.8-4.4,0.8-5.1S12.3,15.2,10.9,17.3z"/>
<path class="st0" d="M21.1,17.3c-1.5,2.1-1.8,4.3-0.8,5s3-0.4,4.5-2.5s1.8-4.4,0.8-5.1S22.6,15.2,21.1,17.3z"/>
<path class="st0" d="M31.4,17.3c-1.5,2.1-1.8,4.3-0.8,5s3-0.4,4.5-2.5s1.8-4.4,0.8-5.1S32.8,15.2,31.4,17.3z"/>
</svg>
