<?xml version="1.0" encoding="utf-8"?>
<!-- Generator: Adobe Illustrator 24.0.1, SVG Export Plug-In . SVG Version: 6.00 Build 0)  -->
<svg version="1.1" id="PICTOS_vectos" xmlns="http://www.w3.org/2000/svg" xmlns:xlink="http://www.w3.org/1999/xlink" x="0px"
	 y="0px" viewBox="0 0 40.5 40.5" style="enable-background:new 0 0 40.5 40.5;" xml:space="preserve">
<style type="text/css">
	.st0{fill:#25465F;}
</style>
<path class="st0" d="M36.7,17.3c0-8.8-7.1-16-16-16c-0.1,0-0.1,0-0.1,0h-0.2c-8.9,0-16.2,7.3-16.2,16.2v0.1c0,2.5,0.6,4.9,1.7,7.1
	l-1.6,6.2c-0.3,1.3,0.5,2.6,1.7,2.9c0.2,0,0.4,0.1,0.5,0.1c0.3,0,0.5,0,0.8-0.1l5.4-1.8c7.9,4.3,17.7,1.4,22-6.5c1.3-2.4,2-5,2-7.7
	V17.3z M9.6,25h3.3c0.4,1.5,1,2.9,1.7,4.3c-0.3-0.1-0.6-0.3-0.8-0.5l-0.6-0.4h-0.1C11.8,27.6,10.6,26.4,9.6,25z M8.1,22
	c-0.5-1.4-0.8-2.9-0.8-4.5c0-1.2,0.2-2.5,0.5-3.6h4.2c-0.1,1.2-0.2,2.3-0.2,3.5c0,1.5,0.1,3.1,0.4,4.6H8.1z M26.1,17.5
	c0,1.5-0.1,3-0.3,4.5H22v-8.1h3.9C26.1,15.1,26.2,16.3,26.1,17.5L26.1,17.5z M22,30.2V25h3.1c-0.2,0.8-0.5,1.6-0.8,2.3
	C23.8,28.5,23,29.5,22,30.2z M22,10.9V5c1.3,1,2.5,3,3.3,5.9H22z M19,4.9v6h-3.4c0.3-1.1,0.6-2.1,1.1-3.1C17.3,6.6,18,5.6,19,4.9z
	 M26.5,5.8c2.2,1.1,4.1,2.9,5.4,5.1h-3.5C28,9.1,27.4,7.4,26.5,5.8z M14.3,5.9c-0.1,0.2-0.2,0.4-0.3,0.6c-0.7,1.4-1.2,2.9-1.5,4.4
	H9.2C10.4,8.8,12.2,7.1,14.3,5.9z M14.9,17.4c0-1.2,0.1-2.3,0.2-3.5h4V22h-3.7C15.1,20.5,14.9,18.9,14.9,17.4L14.9,17.4z M19,25v5.1
	c-1.5-1.4-2.5-3.2-3-5.1H19z M27,28.6c0.5-1.1,1-2.3,1.3-3.5h3.1c-1.2,1.8-2.8,3.2-4.7,4.2C26.8,29,26.9,28.8,27,28.6L27,28.6z
	 M28.9,22c0.2-1.5,0.3-3,0.3-4.5c0-1.2-0.1-2.4-0.2-3.6h4.3c0.3,1.2,0.5,2.4,0.5,3.7c0,1.5-0.3,3-0.8,4.5H28.9z M7.6,30.4l0.6-2.3
	c0.5,0.6,1,1.1,1.6,1.6L7.6,30.4z"/>
<path class="st0" d="M20.5,35.3c-2.6,0-4.6,1-4.6,2.2s2.1,2.2,4.6,2.3s4.6-1,4.6-2.2S23,35.4,20.5,35.3z"/>
</svg>
