<svg id="PICTOS_vectos" xmlns="http://www.w3.org/2000/svg" viewBox="0 0 46 46"><defs><style>.cls-1{fill:#25465f;}</style></defs><path class="cls-1" d="M23,29.9c-2.56,0-4.65,1-4.65,2.2s2.13,2.24,4.7,2.25,4.58-1,4.58-2.19S25.58,29.92,23,29.9Z"/><path class="cls-1" d="M40.18,15.49a6.44,6.44,0,0,0-8-10.06,11.66,11.66,0,0,0-18.3,0,6.44,6.44,0,0,0-8,10.06A9.5,9.5,0,0,0,1,23.68a15.12,15.12,0,0,0,.59,3.94l.06.2a1.51,1.51,0,0,0,.92,1,19.76,19.76,0,0,0,3.91.86,56.25,56.25,0,0,0-3.79,8.08A1.51,1.51,0,0,0,2.77,39c.32.62,3.64,6,20.25,6s19.9-5.43,20.22-6a1.5,1.5,0,0,0,.07-1.21,53.08,53.08,0,0,0-3.76-8.14,28.66,28.66,0,0,0,3.77-.78,1.47,1.47,0,0,0,1-1l.06-.18a15,15,0,0,0,.6-4A9.5,9.5,0,0,0,40.18,15.49ZM36,7.16a3.45,3.45,0,1,1,0,6.9,3.5,3.5,0,0,1-1.32-.27c0-.36.06-.72.06-1.09a11.55,11.55,0,0,0-1-4.7A3.51,3.51,0,0,1,36,7.16ZM23,4a8.71,8.71,0,1,1-8.71,8.7A8.71,8.71,0,0,1,23,4ZM10,7.16A3.49,3.49,0,0,1,12.29,8a11.55,11.55,0,0,0-1,4.7c0,.37,0,.73.06,1.09a3.5,3.5,0,0,1-1.32.27,3.45,3.45,0,1,1,0-6.9Zm-5.71,19A11.32,11.32,0,0,1,4,23.68a6.64,6.64,0,0,1,6-6.46,5.75,5.75,0,0,1,2.55.78,11.58,11.58,0,0,0,1.68,2.47,26.71,26.71,0,0,0-6,6.34A21.72,21.72,0,0,1,4.32,26.19ZM23,42C11.14,42,7,39.11,5.81,38c2.88-7.3,6.67-12.74,10.78-15.51a11.67,11.67,0,0,0,12.84,0c4.17,2.77,8,8.21,10.77,15.5C39,39.12,34.87,42,23,42ZM41.69,26.15a24.81,24.81,0,0,1-3.92.63,26.18,26.18,0,0,0-6-6.33A11.41,11.41,0,0,0,33.42,18,5.75,5.75,0,0,1,36,17.22a6.65,6.65,0,0,1,6,6.47A11,11,0,0,1,41.69,26.15Z"/></svg>