<?xml version="1.0" encoding="utf-8"?>
<!-- Generator: Adobe Illustrator 24.0.1, SVG Export Plug-In . SVG Version: 6.00 Build 0)  -->
<svg version="1.1" id="PICTOS_vectos" xmlns="http://www.w3.org/2000/svg" xmlns:xlink="http://www.w3.org/1999/xlink" x="0px"
	 y="0px" viewBox="0 0 46.1 46.1" style="enable-background:new 0 0 46.1 46.1;" xml:space="preserve">
<style type="text/css">
	.st0{fill:#25465F;}
</style>
<path class="st0" d="M40.4,7.6h-3.8c-0.8,0-1.5,0.7-1.5,1.5s0.7,1.5,1.5,1.5h3.8c0.9,0,1.6,0.7,1.6,1.6v19c0,0.9-0.7,1.6-1.6,1.6
	H22.9c-0.4,0-0.7,0.1-1,0.4l-7.7,7v-5.9c0-0.8-0.7-1.5-1.5-1.5H5.6C4.7,32.7,4,32,4,31.2v-19c0-0.9,0.7-1.6,1.6-1.6h3.7
	c0.8,0,1.5-0.7,1.5-1.5s-0.7-1.5-1.5-1.5H5.6c-2.5,0-4.6,2-4.6,4.6v19c0,2.5,2,4.6,4.6,4.6h5.7v7.8c0,0.6,0.3,1.1,0.9,1.4
	c0.2,0.1,0.4,0.1,0.6,0.1c0.4,0,0.7-0.1,1-0.4l9.8-8.9h16.9c2.5,0,4.6-2,4.6-4.6v-19C45,9.7,43,7.6,40.4,7.6
	C40.4,7.6,40.4,7.6,40.4,7.6z"/>
<path class="st0" d="M20.7,25.3c-1.5,2.1-1.8,4.3-0.8,5s3-0.4,4.5-2.6s1.8-4.4,0.8-5.1S22.2,23.2,20.7,25.3z"/>
<path class="st0" d="M19.7,5.6c1.2-0.8,2.6-1.2,4-1.2c1.3-0.1,2.6,0.3,3.6,1c0.9,0.7,1.3,1.7,1.3,2.8c0,0.7-0.3,1.4-0.7,2
	c-0.9,0.9-1.9,1.6-3,2.2c-1.3,0.7-2.4,1.6-3.3,2.8c-0.6,1-0.9,2.2-0.9,3.4V20h3.8v-1.3c0-0.5,0.1-1,0.3-1.4c0.2-0.5,0.5-0.9,0.9-1.2
	c0.1-0.1,0.4-0.3,0.9-0.6s1-0.6,1.7-1c1.3-0.7,2.5-1.7,3.4-2.9c0.7-1,1-2.2,1-3.4c0.1-2-0.8-4-2.4-5.3c-1.9-1.4-4.2-2.1-6.6-2
	c-2.4-0.1-4.7,0.6-6.7,1.9c-1.7,1.3-2.7,3.4-2.9,5.5L18.1,9C18.2,7.7,18.7,6.4,19.7,5.6z"/>
</svg>
