<?xml version="1.0" encoding="utf-8"?>
<!-- Generator: Adobe Illustrator 23.0.2, SVG Export Plug-In . SVG Version: 6.00 Build 0)  -->
<svg version="1.1" id="Calque_1" xmlns="http://www.w3.org/2000/svg" xmlns:xlink="http://www.w3.org/1999/xlink" x="0px" y="0px"
	 viewBox="0 0 660 660" style="enable-background:new 0 0 660 660;" xml:space="preserve">
<style type="text/css">
	.st0{fill-rule:evenodd;clip-rule:evenodd;fill:#009DCC;}
</style>
<path class="st0" d="M522.5,427.5c8.3,0,15-6.7,15-15c0-8.3-6.7-15-15-15c-8.3,0-15,6.7-15,15C507.5,420.8,514.2,427.5,522.5,427.5z
	 M462.5,427.5c8.3,0,15-6.7,15-15c0-8.3-6.7-15-15-15c-8.3,0-15,6.7-15,15C447.5,420.8,454.2,427.5,462.5,427.5z M402.5,427.5
	c8.3,0,15-6.7,15-15c0-8.3-6.7-15-15-15c-8.3,0-15,6.7-15,15C387.5,420.8,394.2,427.5,402.5,427.5z M587.5,414.3
	c0,17.8-7,34.5-19,48.6l16.3,59.6l-65-26.7c-17.2,6.5-36.6,10.3-57.3,10.3c-69,0-125-41.1-125-91.8c0-50.7,56-91.8,125-91.8
	S587.5,363.6,587.5,414.3z M278.2,321h-22.4v-10.2c0-8.2,1.3-15.1,3.9-20.6c2.6-5.5,7.2-11.1,14.1-16.9
	c10.3-8.7,14.1-13.2,15.4-15.4c1.8-2.9,2.7-6.5,2.7-10.8c0-5-1.5-8.7-4.5-11.3c-3.2-2.7-8.2-4.1-14.8-4.1c-4.6,0-9.2,0.5-13.6,1.6
	c-4.4,1.1-9.6,3.2-15.4,6.1l-4.7,2.4l-9.6-22l4.1-2.2c12.8-6.7,26.3-10.1,40.2-10.1c13.4,0,24.1,3.5,31.8,10.3
	c7.9,7,11.9,16.8,11.9,29.1c0,5.2-0.7,9.9-2.2,14c-1.4,4-3.5,7.9-6.2,11.5c-2.7,3.5-8,8.7-16.4,16c-7.5,6.4-10.5,10.3-11.7,12.4
	c-1.6,2.8-2.5,6.9-2.5,12.1V321z M279.5,358.5c0,7.8-6.3,14-14,14c-7.8,0-14.1-6.3-14.1-14c0-7.7,6.3-14,14.1-14
	C273.2,344.4,279.5,350.7,279.5,358.5z M300.3,407.5c0.6,10.2,2.9,20,6.8,29.3c-11.3,1.5-22.8,2.4-34.6,2.4
	c-29.3,0-57.7-4.8-84.5-14.2l-90.8,37.3c-1.8,0.8-3.8,1.1-5.7,1.1c-3.6,0-7.1-1.3-9.9-3.8c-4.3-3.8-6.1-9.7-4.5-15.2l22.1-80.8
	c-17.5-22.9-26.7-48.8-26.7-75.3c0-83.2,89.7-150.9,200-150.9c110.3,0,200,67.7,200,150.9c0,2.1-0.2,3.9-0.2,3.9h-30.1
	c0,0,0.3-2.5,0.3-3.9c0-66.6-76.3-120.9-170-120.9s-170,54.2-170,120.9c0,21.8,8.5,43.3,24.6,62.2c3.2,3.8,4.4,8.9,3.1,13.7L114,423
	l68-27.9c3.5-1.5,7.5-1.5,11-0.2c25,9.5,51.7,14.3,79.4,14.3C282,409.2,291.2,408.5,300.3,407.5z"/>
</svg>
