<?xml version="1.0" encoding="utf-8"?>
<!-- Generator: Adobe Illustrator 24.0.1, SVG Export Plug-In . SVG Version: 6.00 Build 0)  -->
<svg version="1.1" id="PICTOS_vectos" xmlns="http://www.w3.org/2000/svg" xmlns:xlink="http://www.w3.org/1999/xlink" x="0px"
	 y="0px" viewBox="0 0 46 46" style="enable-background:new 0 0 46 46;" xml:space="preserve">
<style type="text/css">
	.st0{fill:#25465F;}
</style>
<path class="st0" d="M43.5,37.2h-41c-0.8,0-1.5,0.7-1.5,1.5s0.7,1.5,1.5,1.5h41c0.8,0,1.5-0.7,1.5-1.5S44.3,37.2,43.5,37.2z"/>
<path class="st0" d="M5.5,33.2c-0.8,0-1.5,0.7-1.5,1.5s0.7,1.5,1.5,1.5h35c0.8,0,1.5-0.7,1.5-1.5s-0.7-1.5-1.5-1.5H24.9v-1.9h15.6
	c0.8,0,1.5-0.7,1.5-1.5c0-9.9-7.6-18.1-17.5-18.9V9.3c0.1-0.1,0.2-0.1,0.3-0.2c0.5-0.5,0.7-1.1,0.7-1.8c0-0.2,0-0.3,0-0.5
	c0-0.2-0.1-0.3-0.1-0.5c-0.1-0.1-0.1-0.3-0.2-0.4c-0.1-0.1-0.2-0.3-0.3-0.4c-0.6-0.6-1.4-0.8-2.3-0.7c-0.2,0-0.3,0.1-0.5,0.1
	c-0.2,0.1-0.3,0.1-0.4,0.2c-0.1,0.1-0.3,0.2-0.4,0.3c-1,1-1,2.6,0,3.5c0.1,0.1,0.2,0.2,0.3,0.2v1.6C11.6,11.7,4,19.9,4,29.8
	c0,0.8,0.7,1.5,1.5,1.5h16.4v1.9H5.5z M23,13.8c8.3,0,15.2,6.3,15.9,14.5H7.1C7.8,20.1,14.7,13.8,23,13.8z"/>
<path class="st0" d="M13.2,19.5c-1.8,1.8-2.6,3.9-1.7,4.8s3,0.1,4.9-1.7s2.6-4,1.7-4.9S15,17.7,13.2,19.5z"/>
</svg>
