<?xml version="1.0" encoding="utf-8"?>
<!-- Generator: Adobe Illustrator 24.0.1, SVG Export Plug-In . SVG Version: 6.00 Build 0)  -->
<svg version="1.1" id="PICTOS_vectos" xmlns="http://www.w3.org/2000/svg" xmlns:xlink="http://www.w3.org/1999/xlink" x="0px"
	 y="0px" viewBox="0 0 54 54" style="enable-background:new 0 0 54 54;" xml:space="preserve">
<style type="text/css">
	.st0{fill:#25465F;}
</style>
<path class="st0" d="M10.2,35.5c-2.6,0-4.7,1-4.7,2.2S7.7,40,10.2,40s4.6-1,4.6-2.2S12.7,35.5,10.2,35.5z"/>
<path class="st0" d="M31.4,23.7H4.7c-2,0-3.7,1.7-3.7,3.7l0,0v14.9c0,2,1.6,3.7,3.7,3.7c0,0,0,0,0,0h26.7c2,0,3.7-1.7,3.7-3.7V27.4
	C35.1,25.3,33.4,23.7,31.4,23.7z M4.7,26.7h26.6c0.4,0,0.7,0.3,0.7,0.7V30H4v-2.6C4,27,4.3,26.7,4.7,26.7
	C4.7,26.7,4.7,26.7,4.7,26.7z M31.4,43H4.7C4.3,43,4,42.7,4,42.3l0,0V33h28v9.3C32,42.7,31.7,43,31.4,43z"/>
<path class="st0" d="M31.1,16.2c-0.8,0-1.5,0.6-1.5,1.4c0,0.8,0.6,1.5,1.5,1.5l0,0c4.8,0,8.8,3.9,8.8,8.8l0,0c0,0.8,0.6,1.5,1.5,1.5
	s1.5-0.6,1.5-1.5C42.8,21.4,37.5,16.2,31.1,16.2z"/>
<path class="st0" d="M31.1,11.1c-0.8,0-1.4,0.6-1.4,1.5c0,0.8,0.6,1.4,1.4,1.4C38.8,14,45,20.2,45,27.9c0,0.8,0.6,1.5,1.5,1.5
	s1.5-0.6,1.5-1.5C47.9,18.6,40.4,11.1,31.1,11.1z"/>
<path class="st0" d="M31.1,6c-0.8,0-1.4,0.6-1.4,1.5c0,0.8,0.6,1.4,1.4,1.4c10.5,0,19,8.5,19,19c0,0.8,0.6,1.5,1.5,1.5
	s1.5-0.6,1.5-1.5l0,0C53,15.8,43.2,6,31.1,6z"/>
</svg>
