<svg id="PICTOS_vectos" xmlns="http://www.w3.org/2000/svg" viewBox="0 0 46 46"><defs><style>.cls-1{fill:#25465f;}</style></defs><path class="cls-1" d="M25,21a1.5,1.5,0,0,0,0-3A2.05,2.05,0,0,1,23,16V6.06a1,1,0,0,1,0-.17l8.64,5.86a1.49,1.49,0,0,0,1.68,0L42,5.89a1,1,0,0,1,0,.17V13a1.5,1.5,0,0,0,3,0V6.06a5,5,0,0,0-1.17-3.2l0,0a1.21,1.21,0,0,0-.21-.24A5,5,0,0,0,39.93,1H25a5,5,0,0,0-3.65,1.58,1.64,1.64,0,0,0-.21.24l0,0A5,5,0,0,0,20,6.06V16A5.06,5.06,0,0,0,25,21ZM32.48,8.7,25.57,4H39.39Z"/><path class="cls-1" d="M37.69,17.27v1A2.68,2.68,0,0,0,35.34,17c-2.39,0-3.81,1.81-3.81,4.89s1.4,5,3.73,5a2.75,2.75,0,0,0,2.56-1.55c.34,1.06,1.29,1.55,2.76,1.55,2.69,0,4.44-2.13,4.44-5.73,0-5-3.51-8.32-8.81-8.32C30.67,12.88,27,16.52,27,22c0,5.7,3.63,8.93,9.11,8.93A10.76,10.76,0,0,0,41,29.79l-.69-1.63a9.61,9.61,0,0,1-4.16,1C31.71,29.12,29,26.48,29,22s2.68-7.35,7.18-7.35c4.26,0,6.8,2.48,6.8,6.64,0,2.33-.77,3.71-2.07,3.71a.71.71,0,0,1-.81-.77v-7Zm0,5.19C37.69,24,37,25,35.89,25s-1.83-1.18-1.83-3.19c0-1.78.55-2.82,1.83-2.82s1.8.87,1.8,2.34Z"/><path class="cls-1" d="M19,28.07h0a5.44,5.44,0,0,0-1.26,1.18,13.08,13.08,0,0,1-2.09-2.41A12.87,12.87,0,0,1,14.17,24a5.76,5.76,0,0,0,1.57-.73,5.93,5.93,0,0,0,2.54-5,10.85,10.85,0,0,0-2-6C13.4,8,9,6.44,5.82,8.59L4.09,9.75C1.55,11.47.51,14.93,1.18,19.5A33.37,33.37,0,0,0,6.74,32.84C11.82,40.37,18.45,45,23.47,45a6.43,6.43,0,0,0,3.68-1.06l1.73-1.17a5.91,5.91,0,0,0,2.55-5,10.76,10.76,0,0,0-2-6C26.55,27.45,22.15,25.92,19,28.07ZM27.2,40.28l-1.73,1.16c-3,2-10.44-1.68-16.24-10.28A30.39,30.39,0,0,1,4.14,19.07c-.48-3.32.12-5.81,1.63-6.83L7.5,11.07A2.68,2.68,0,0,1,9,10.62c1.55,0,3.37,1.2,4.78,3.28a7.87,7.87,0,0,1,1.49,4.33,3,3,0,0,1-1.22,2.56,2.68,2.68,0,0,1-1.67.44,1.51,1.51,0,0,0-1.19.48,1.55,1.55,0,0,0-.38,1.23,13.93,13.93,0,0,0,2.32,5.58,13.79,13.79,0,0,0,4.3,4.23,1.48,1.48,0,0,0,1.28.11,1.54,1.54,0,0,0,.9-.92,2.57,2.57,0,0,1,1-1.38c1.74-1.18,4.39,0,6.28,2.83a7.75,7.75,0,0,1,1.5,4.32A3,3,0,0,1,27.2,40.28Z"/><path class="cls-1" d="M13.46,19.8c1-.71.6-3.07-.87-5.2s-3.45-3.23-4.47-2.52-.66,3,.82,5.14S12.43,20.5,13.46,19.8Z"/><path class="cls-1" d="M21.27,31.56c-1,.71-.66,3,.81,5.14s3.5,3.29,4.52,2.58.61-3.07-.86-5.2S22.29,30.85,21.27,31.56Z"/></svg>