<?xml version="1.0" encoding="utf-8"?>
<!-- Generator: Adobe Illustrator 24.0.1, SVG Export Plug-In . SVG Version: 6.00 Build 0)  -->
<svg version="1.1" id="PICTOS_vectos" xmlns="http://www.w3.org/2000/svg" xmlns:xlink="http://www.w3.org/1999/xlink" x="0px"
	 y="0px" viewBox="0 0 46 46" style="enable-background:new 0 0 46 46;" xml:space="preserve">
<style type="text/css">
	.st0{fill:#25465F;}
</style>
<path class="st0" d="M41.3,7.2H4.7c-2,0-3.7,1.7-3.7,3.7v24.1c0,2,1.7,3.7,3.7,3.7h36.6c2,0,3.7-1.7,3.7-3.7V10.9
	C45,8.9,43.3,7.2,41.3,7.2z M42,35.1c0,0.4-0.3,0.7-0.7,0.7c0,0,0,0,0,0H4.7c-0.4,0-0.7-0.3-0.7-0.7V10.9c0-0.4,0.3-0.7,0.7-0.7
	c0,0,0,0,0,0h36.6c0.4,0,0.7,0.3,0.7,0.7c0,0,0,0,0,0L42,35.1z"/>
<path class="st0" d="M19,19.3c0-1.2-2.1-2.2-4.6-2.2s-4.7,1-4.7,2.2s2.1,2.2,4.7,2.2S19,20.6,19,19.3z"/>
<path class="st0" d="M16.4,23.7c-1.5,2.1-1.8,4.3-0.8,5s3-0.4,4.5-2.5s1.8-4.4,0.8-5.1S17.8,21.6,16.4,23.7z"/>
<path class="st0" d="M7.8,21c-1,0.7-0.7,3,0.8,5.1s3.5,3.2,4.5,2.5s0.6-3-0.9-5.1S8.8,20.3,7.8,21z"/>
<path class="st0" d="M37.4,21.5h-8.8c-0.8,0-1.5,0.7-1.5,1.5s0.7,1.5,1.5,1.5h8.8c0.8,0,1.5-0.7,1.5-1.5S38.2,21.5,37.4,21.5z"/>
<path class="st0" d="M37.4,27h-8.8c-0.8,0-1.5,0.7-1.5,1.5s0.7,1.5,1.5,1.5h8.8c0.8,0,1.5-0.7,1.5-1.5S38.2,27,37.4,27z"/>
<path class="st0" d="M37.4,16h-8.8c-0.8,0-1.5,0.7-1.5,1.5c0,0.8,0.7,1.5,1.5,1.5h8.8c0.8,0,1.5-0.7,1.5-1.5
	C38.9,16.7,38.2,16,37.4,16z"/>
</svg>
