<?xml version="1.0" encoding="utf-8"?>
<!-- Generator: Adobe Illustrator 24.0.1, SVG Export Plug-In . SVG Version: 6.00 Build 0)  -->
<svg version="1.1" id="PICTOS_vectos" xmlns="http://www.w3.org/2000/svg" xmlns:xlink="http://www.w3.org/1999/xlink" x="0px"
	 y="0px" viewBox="0 0 54 54" style="enable-background:new 0 0 54 54;" xml:space="preserve">
<style type="text/css">
	.st0{fill:#25465F;}
</style>
<path class="st0" d="M7.5,25.2c0-0.8-0.7-1.5-1.5-1.5c0,0,0,0,0,0H4.5c-0.8,0-1.5,0.7-1.5,1.5c0,0.8,0.7,1.5,1.5,1.5H6
	C6.8,26.7,7.5,26,7.5,25.2C7.5,25.2,7.5,25.2,7.5,25.2z"/>
<path class="st0" d="M10.5,30.7c0-0.8-0.7-1.5-1.5-1.5c0,0,0,0,0,0H6.5c-0.8,0-1.5,0.7-1.5,1.5s0.7,1.5,1.5,1.5H9
	C9.8,32.3,10.5,31.6,10.5,30.7C10.5,30.8,10.5,30.8,10.5,30.7z"/>
<path class="st0" d="M10.4,35.8c0-0.1-0.1-0.2-0.1-0.3c-0.1-0.1-0.1-0.2-0.2-0.2c-0.6-0.6-1.5-0.6-2.1,0c-0.1,0.1-0.1,0.1-0.2,0.2
	c-0.1,0.1-0.1,0.2-0.1,0.3S7.6,36,7.6,36c0,0.1,0,0.2,0,0.3c0,0.4,0.1,0.8,0.4,1.1c0.1,0.1,0.3,0.2,0.5,0.3c0.2,0.1,0.4,0.1,0.6,0.1
	c0.2,0,0.4,0,0.6-0.1c0.2-0.1,0.4-0.2,0.5-0.3C10.6,37,10.7,36.3,10.4,35.8L10.4,35.8z"/>
<path class="st0" d="M18.1,17.3c-2.6,0-4.6,1-4.7,2.2c0,1.2,2.1,2.2,4.7,2.2c2.6,0,4.6-1,4.6-2.2C22.8,18.3,20.7,17.3,18.1,17.3z"/>
<path class="st0" d="M50.7,30.6l0.8-0.8c0.6-0.6,0.6-1.5,0-2.1c-2.1-2-5-3-7.8-2.6l-1.1-4.6c0.4,0.1,0.7,0.2,1.1,0.2
	c0.8,0,1.5-0.7,1.5-1.5v-4c0-0.8-0.7-1.5-1.5-1.5c-1,0-1.9,0.4-2.5,1.1l0,0c-0.7-3-3.7-4.8-6.6-4.1c0,0,0,0,0,0
	c-0.8,0.2-1.4,0.9-1.2,1.7c0.2,0.8,0.9,1.4,1.7,1.2c0.1,0,0.1,0,0.2,0c1.3-0.3,2.7,0.5,3,1.8L40.8,26c-3.3,1.7-5.2,5.3-4.8,8.9h-2.8
	c-0.8,0-1.5-0.7-1.5-1.5v-8.4c0-0.8-0.7-1.5-1.5-1.5h-2.7c0.2-0.5,0.2-0.9,0.2-1.4v-5c0-2.5-2-4.5-4.5-4.5h-9.9
	c-2.5,0-4.5,2-4.5,4.5v5c0,2.5,2,4.5,4.5,4.5H16c-2.7,2.4-4.3,5.8-4.3,9.4v0.4c0,0.8,0.7,1.5,1.5,1.5c0.1,0,0.2,0,0.3,0
	c0.5,3.5,3.8,6,7.4,5.5c2.8-0.4,5.1-2.6,5.5-5.5h10.5c0.4,1,1.1,1.8,1.8,2.6c0.3,0.3,0.7,0.4,1.1,0.4c0.4,0,0.8-0.2,1.1-0.4l0.3-0.3
	c2.5,2.8,6.9,3,9.7,0.5c2.8-2.5,3-6.9,0.5-9.7C51.1,30.9,50.9,30.7,50.7,30.6z M13.3,23.7c-0.8,0-1.5-0.7-1.5-1.5v-5
	c0-0.8,0.7-1.5,1.5-1.5h9.9c0.8,0,1.5,0.7,1.5,1.5v5c0,0.7-0.5,1.3-1.1,1.4c-0.3,0-0.5,0-0.8,0.1H13.3z M23,26.7h0.2
	c0.2,0,0.4,0,0.6-0.1h0.4h4.5v6.9c0,0.5,0.1,1,0.3,1.5H14.7C15.2,30.7,18.7,27.2,23,26.7L23,26.7z M19.9,40.5c-1.5,0-2.9-1-3.3-2.5
	h6.7C22.7,39.5,21.4,40.5,19.9,40.5z M40.7,29.8c2-2,5-2.4,7.5-0.9l-8.4,8.4C38.4,34.8,38.8,31.8,40.7,29.8z M46.1,39.5
	c-1.1,0-2.2-0.5-2.9-1.3l5.5-5.4c1.6,1.4,1.8,3.8,0.4,5.4C48.3,39,47.2,39.5,46.1,39.5z"/>
<path class="st0" d="M7.5,19.7c0-0.8-0.7-1.5-1.5-1.5c0,0,0,0,0,0H2.5c-0.8,0-1.5,0.7-1.5,1.5c0,0.8,0.7,1.5,1.5,1.5H6
	C6.8,21.2,7.5,20.5,7.5,19.7C7.5,19.7,7.5,19.7,7.5,19.7z"/>
</svg>
