<?xml version="1.0" encoding="utf-8"?>
<!-- Generator: Adobe Illustrator 24.0.1, SVG Export Plug-In . SVG Version: 6.00 Build 0)  -->
<svg version="1.1" id="PICTOS_vectos" xmlns="http://www.w3.org/2000/svg" xmlns:xlink="http://www.w3.org/1999/xlink" x="0px"
	 y="0px" viewBox="0 0 46.1 46.1" style="enable-background:new 0 0 46.1 46.1;" xml:space="preserve">
<style type="text/css">
	.st0{fill:#25465F;}
</style>
<path class="st0" d="M10.4,30.9c-2.6,0-4.7,1-4.7,2.2c0,1.2,2.1,2.2,4.7,2.2s4.6-1,4.6-2.2C15,32,13,30.9,10.4,30.9z"/>
<path class="st0" d="M34.8,17.9c-2.6,0-4.6,1-4.7,2.2s2.1,2.2,4.7,2.2s4.6-1,4.6-2.2S37.3,17.9,34.8,17.9z"/>
<path class="st0" d="M41.5,12.3V7.5c0-3-2.5-5.5-5.5-5.5h-2.6c-3,0-5.5,2.5-5.5,5.5v4.8c-1.9,0.1-3.4,1.7-3.5,3.7v2.1H4.7
	c-2,0-3.7,1.7-3.7,3.7c0,0,0,0,0,0V38c0,2,1.7,3.7,3.7,3.7h0h28.9c2,0,3.7-1.7,3.7-3.7l0,0V27.8h4c2,0,3.7-1.7,3.7-3.7c0,0,0,0,0,0
	V16C45,14.1,43.5,12.5,41.5,12.3z M33.4,5H36c1.4,0,2.5,1.1,2.5,2.5v4.8h-7.6V7.5C30.9,6.1,32,5,33.4,5z M4.7,21.1h19.8v3
	c0,0.2,0,0.5,0.1,0.7H4v-3C4,21.4,4.3,21.1,4.7,21.1L4.7,21.1z M33.6,38.7H4.7C4.3,38.7,4,38.4,4,38l0,0V27.8h30.3V38
	C34.3,38.4,34,38.7,33.6,38.7L33.6,38.7z M42,24.1c0,0.4-0.3,0.7-0.7,0.7l0,0H28.2c-0.4,0-0.7-0.3-0.7-0.7V16c0-0.4,0.3-0.7,0.7-0.7
	l0,0h13.1c0.4,0,0.7,0.3,0.7,0.7c0,0,0,0,0,0V24.1z"/>
</svg>
