<?xml version="1.0" encoding="utf-8"?>
<!-- Generator: Adobe Illustrator 24.0.1, SVG Export Plug-In . SVG Version: 6.00 Build 0)  -->
<svg version="1.1" id="PICTOS_vectos" xmlns="http://www.w3.org/2000/svg" xmlns:xlink="http://www.w3.org/1999/xlink" x="0px"
	 y="0px" viewBox="0 0 46.1 46.1" style="enable-background:new 0 0 46.1 46.1;" xml:space="preserve">
<style type="text/css">
	.st0{fill:#25465F;}
</style>
<path class="st0" d="M18.1,35.7v0.8h1v3.2h1.1v-4.9h-1C19.1,35.3,18.6,35.7,18.1,35.7z"/>
<path class="st0" d="M23.6,37.8c0.7-0.2,1.2-0.9,1.2-1.6c0-1-0.7-1.6-1.8-1.6c-1-0.1-1.8,0.6-1.9,1.6c0,0,0,0,0,0l1.1,0.2
	c0-0.5,0.3-0.8,0.8-0.8c0.3,0,0.6,0.2,0.7,0.5c0,0,0,0.1,0,0.1c0,0.6-0.5,0.7-1.2,1c-0.7,0.3-1.2,1-1.2,1.8v0.6h3.6v-1h-2.3
	C22.5,38.2,23,38.1,23.6,37.8z"/>
<path class="st0" d="M30,34.7h-1.3L28,36.3c0,0.1,0,0.1-0.1,0.1s-0.1,0-0.1-0.1L27,34.7h-1.3l1.3,2.4l-1.3,2.5H27l0.8-1.7
	c0-0.1,0-0.1,0.1-0.1s0.1,0,0.1,0.1l0.9,1.7h1.3l-1.3-2.5L30,34.7z"/>
<path class="st0" d="M10.2,34.6c-2.6,0-4.7,1-4.7,2.2S7.7,39,10.2,39s4.6-1,4.6-2.2S12.7,34.6,10.2,34.6z"/>
<path class="st0" d="M41.3,1H14.6c-2,0-3.7,1.7-3.7,3.7v7.2H9.7c-2,0-3.7,1.7-3.7,3.7v7.2H4.7c-2,0-3.7,1.7-3.7,3.7l0,0v14.9
	c0,2,1.7,3.7,3.7,3.7h0h26.7c2,0,3.7-1.7,3.7-3.7l0,0v-7.1h1.3c2,0,3.7-1.7,3.7-3.7c0,0,0,0,0,0v-7.2h1.3c2,0,3.7-1.7,3.7-3.7
	c0,0,0,0,0,0V4.7C45,2.7,43.3,1,41.3,1L41.3,1z M14.6,4h26.7C41.7,4,42,4.3,42,4.7v0v2.6H13.9V4.7C13.9,4.3,14.3,4,14.6,4
	C14.6,4,14.6,4,14.6,4z M9.6,14.8h26.7c0.4,0,0.7,0.3,0.7,0.7v2.6H9v-2.6C9,15.2,9.3,14.9,9.6,14.8L9.6,14.8z M4.6,25.7h26.7
	c0.4,0,0.7,0.3,0.7,0.7v0V29H4v-2.6C4,26,4.3,25.7,4.6,25.7L4.6,25.7L4.6,25.7z M32.1,41.3c0,0.4-0.3,0.7-0.7,0.7h0H4.7
	C4.3,42,4,41.7,4,41.3l0,0V32h28.1V41.3z M37.1,30.4c0,0.4-0.3,0.7-0.7,0.7h-1.3v-4.7c0-2-1.7-3.7-3.7-3.7c0,0,0,0,0,0H9v-1.6h28
	L37.1,30.4z M41.3,20.3H40v-4.7c0-2-1.7-3.7-3.7-3.7l0,0H13.9v-1.6H42v9.3C42,20,41.7,20.3,41.3,20.3L41.3,20.3z"/>
</svg>
