<?xml version="1.0" encoding="utf-8"?>
<!-- Generator: Adobe Illustrator 24.0.1, SVG Export Plug-In . SVG Version: 6.00 Build 0)  -->
<svg version="1.1" id="PICTOS_vectos" xmlns="http://www.w3.org/2000/svg" xmlns:xlink="http://www.w3.org/1999/xlink" x="0px"
	 y="0px" viewBox="0 0 46.1 46.1" style="enable-background:new 0 0 46.1 46.1;" xml:space="preserve">
<style type="text/css">
	.st0{fill:#25465F;}
</style>
<path class="st0" d="M41.3,7.3H4.7C2.7,7.3,1,8.9,1,11c0,0,0,0,0,0v5.8c0,0.1,0,0.2,0,0.2c0,0.1,0,0.1,0,0.2V32c0,2,1.7,3.7,3.7,3.7
	h0h36.6c2,0,3.7-1.7,3.7-3.7c0,0,0,0,0,0V11C45,9,43.3,7.3,41.3,7.3L41.3,7.3z M4.7,10.3h36.5c0.4,0,0.7,0.3,0.7,0.7v0v4.6H4V11
	C4,10.6,4.3,10.3,4.7,10.3C4.7,10.3,4.7,10.3,4.7,10.3z M41.3,32.7H4.7C4.3,32.7,4,32.4,4,32l0,0V18.6h38V32
	C42,32.4,41.7,32.7,41.3,32.7C41.3,32.7,41.3,32.7,41.3,32.7z"/>
<path class="st0" d="M15.1,24.1c0-1.2-2.1-2.2-4.6-2.3s-4.7,1-4.7,2.2s2.1,2.3,4.7,2.3S15.1,25.3,15.1,24.1z"/>
<path class="st0" d="M10.6,28.2H7.4c-0.4,0-0.8,0.3-0.8,0.8s0.3,0.8,0.8,0.8h3.2c0.4,0,0.8-0.3,0.8-0.8S11,28.2,10.6,28.2z"/>
<path class="st0" d="M16.1,28.2h-3.2c-0.4,0-0.8,0.3-0.8,0.8s0.3,0.8,0.8,0.8h3.2c0.4,0,0.8-0.3,0.8-0.8S16.5,28.2,16.1,28.2z"/>
<path class="st0" d="M21.6,28.2h-3.2c-0.4,0-0.8,0.3-0.8,0.8s0.3,0.8,0.8,0.8h3.2c0.4,0,0.8-0.3,0.8-0.8S22,28.2,21.6,28.2z"/>
<path class="st0" d="M27.1,28.2h-3.2c-0.4,0-0.8,0.3-0.8,0.8s0.3,0.8,0.8,0.8h3.2c0.4,0,0.8-0.3,0.8-0.8S27.5,28.2,27.1,28.2z"/>
<path class="st0" d="M32.6,28.2h-3.2c-0.4,0-0.8,0.3-0.8,0.8s0.3,0.8,0.8,0.8h3.2c0.4,0,0.8-0.3,0.8-0.8S33,28.2,32.6,28.2z"/>
<path class="st0" d="M38.1,28.2h-3.2c-0.4,0-0.8,0.3-0.8,0.8s0.3,0.8,0.8,0.8h3.2c0.4,0,0.8-0.3,0.8-0.8S38.5,28.2,38.1,28.2z"/>
</svg>
