<?xml version="1.0" encoding="utf-8"?>
<!-- Generator: Adobe Illustrator 24.0.1, SVG Export Plug-In . SVG Version: 6.00 Build 0)  -->
<svg version="1.1" id="PICTOS_vectos" xmlns="http://www.w3.org/2000/svg" xmlns:xlink="http://www.w3.org/1999/xlink" x="0px"
	 y="0px" viewBox="0 0 46.1 46.1" style="enable-background:new 0 0 46.1 46.1;" xml:space="preserve">
<style type="text/css">
	.st0{fill:#25465F;}
</style>
<path class="st0" d="M10.4,28.9c-2.6,0-4.7,1-4.7,2.2s2.1,2.2,4.7,2.2s4.6-1,4.6-2.2S13,28.9,10.4,28.9z"/>
<path class="st0" d="M42.9,7.9C39.3,2.7,32.2,1.4,27.1,5c-3.6,2.5-5.4,6.8-4.8,11.1H4.7c-2,0-3.7,1.7-3.7,3.7l0,0V36
	c0,2,1.7,3.7,3.7,3.7h0h28.9c2,0,3.7-1.7,3.7-3.7l0,0V25.2c1-0.3,2-0.8,2.9-1.5C45.3,20.1,46.6,13,42.9,7.9
	C42.9,7.9,42.9,7.9,42.9,7.9z M4.7,19.1h18.5c0.3,0.7,0.6,1.3,1,1.9c0.5,0.7,1,1.3,1.7,1.9H4v-3C4,19.4,4.3,19.1,4.7,19.1
	C4.7,19.1,4.7,19.1,4.7,19.1z M33.6,36.7H4.7C4.3,36.7,4,36.4,4,36c0,0,0,0,0,0V25.8h30.3V36C34.3,36.4,34,36.7,33.6,36.7
	C33.6,36.7,33.6,36.7,33.6,36.7z M41.9,15.9c-0.8,4.6-5.2,7.6-9.8,6.8c-2.2-0.4-4.1-1.6-5.4-3.4c-2.7-3.8-1.7-9,2.1-11.7
	s9-1.7,11.7,2.1l0,0C41.8,11.4,42.3,13.7,41.9,15.9z"/>
<path class="st0" d="M37.4,10.3l-5.3,6l-2.6-2.4c-0.6-0.6-1.5-0.6-2.1,0c-0.6,0.6-0.6,1.5,0,2.1c0,0,0,0,0,0l3.7,3.5
	c0.3,0.3,0.6,0.4,1,0.4h0.1c0.4,0,0.7-0.2,1-0.5l6.3-7.2c0.6-0.6,0.5-1.6-0.1-2.1C38.9,9.6,37.9,9.6,37.4,10.3L37.4,10.3L37.4,10.3z
	"/>
</svg>
