<?xml version="1.0" encoding="utf-8"?>
<!-- Generator: Adobe Illustrator 24.0.1, SVG Export Plug-In . SVG Version: 6.00 Build 0)  -->
<svg version="1.1" id="PICTOS_vectos" xmlns="http://www.w3.org/2000/svg" xmlns:xlink="http://www.w3.org/1999/xlink" x="0px"
	 y="0px" viewBox="0 0 46 46" style="enable-background:new 0 0 46 46;" xml:space="preserve">
<style type="text/css">
	.st0{fill:#25465F;}
</style>
<path class="st0" d="M27.7,22.1v-7c0-0.5-0.3-1-0.8-1.3c-0.5-0.3-1.1-0.3-1.5,0l-9.1,5.8c-2.5,1.6-4,4.4-4,7.3v16.6
	c0,0.8,0.7,1.5,1.5,1.5s1.5-0.7,1.5-1.5V26.9c0-1.9,1-3.8,2.6-4.8l6.8-4.3v4.9c0,0.4,0.2,0.8,0.4,1.1l3.7,3.7
	c0.6,0.6,1.6,0.5,2.1-0.1c0.5-0.6,0.5-1.5,0-2L27.7,22.1z"/>
<path class="st0" d="M14.9,12.2c0.2,0,0.5-0.1,0.6-0.2l1.7-1.6l2,4.8c0.1,0.3,0.4,0.5,0.7,0.5c0.1,0,0.1,0,0.2,0
	c0.4-0.1,0.6-0.4,0.6-0.8l-0.9-9.3c0-0.2-0.2-0.5-0.4-0.6c-0.2-0.1-0.5-0.1-0.7,0l-2.8,1.4l-1-4.1c-0.1-0.2-0.2-0.4-0.4-0.5
	c-0.2-0.1-0.4-0.1-0.6,0L9.9,3.7C9.7,3.8,9.6,4,9.5,4.2c-0.1,0.2,0,0.4,0.1,0.6l4.7,7.1C14.5,12.1,14.7,12.2,14.9,12.2z"/>
<path class="st0" d="M35.2,6.8c-1-0.7-3,0.5-4.5,2.6s-1.8,4.3-0.8,5s3-0.4,4.5-2.6S36.2,7.5,35.2,6.8z"/>
</svg>
