<?xml version="1.0" encoding="utf-8"?>
<!-- Generator: Adobe Illustrator 24.0.1, SVG Export Plug-In . SVG Version: 6.00 Build 0)  -->
<svg version="1.1" id="PICTOS_vectos" xmlns="http://www.w3.org/2000/svg" xmlns:xlink="http://www.w3.org/1999/xlink" x="0px"
	 y="0px" viewBox="0 0 46 46" style="enable-background:new 0 0 46 46;" xml:space="preserve">
<style type="text/css">
	.st0{fill:#25465F;}
</style>
<path class="st0" d="M12.5,18.4c-1.2,0-2.2,2.1-2.2,4.7s1,4.6,2.2,4.6s2.2-2.1,2.2-4.6S13.7,18.4,12.5,18.4z"/>
<path class="st0" d="M43.5,21.2c0.8,0,1.5-0.7,1.5-1.5v-5c0-1.9-1.6-3.5-3.5-3.5h-37c-1.9,0-3.5,1.6-3.5,3.5c0,0,0,0,0,0v5
	c0,0.8,0.7,1.5,1.5,1.5c1.4,0,2.5,1.1,2.5,2.5c0,1.4-1.1,2.5-2.5,2.5c-0.8,0-1.5,0.6-1.5,1.5v3.6c0,1.9,1.6,3.5,3.5,3.5h37
	c1.9,0,3.5-1.6,3.5-3.5v-3.6c0-0.8-0.7-1.5-1.5-1.5c-1.4,0-2.5-1.1-2.5-2.5C41,22.3,42.1,21.2,43.5,21.2z M4,31.3V29
	c2.9-0.8,4.7-3.8,3.9-6.7c-0.5-1.9-2-3.4-3.9-3.9v-3.7c0-0.3,0.2-0.5,0.5-0.5h26v17.6h-26C4.2,31.8,4,31.6,4,31.3z M42,29v2.3
	c0,0.3-0.2,0.5-0.5,0.5H32V14.2h9.5c0.3,0,0.5,0.2,0.5,0.5v3.7c-2.9,0.8-4.7,3.8-3.9,6.7C38.6,27,40.1,28.5,42,29z"/>
</svg>
