<?xml version="1.0" encoding="utf-8"?>
<!-- Generator: Adobe Illustrator 24.0.1, SVG Export Plug-In . SVG Version: 6.00 Build 0)  -->
<svg version="1.1" id="PICTOS_vectos" xmlns="http://www.w3.org/2000/svg" xmlns:xlink="http://www.w3.org/1999/xlink" x="0px"
	 y="0px" viewBox="0 0 46.1 46.1" style="enable-background:new 0 0 46.1 46.1;" xml:space="preserve">
<style type="text/css">
	.st0{fill:#25465F;}
</style>
<path class="st0" d="M23,26c-2.6,0-4.6,1-4.7,2.2s2.1,2.2,4.7,2.2s4.6-1,4.6-2.2S25.6,26.1,23,26z"/>
<path class="st0" d="M41.3,5H4.7C2.7,5,1,6.7,1,8.7v24.1c0,2,1.7,3.7,3.7,3.7h36.6c2,0,3.7-1.7,3.7-3.7c0,0,0,0,0,0V8.7
	C45,6.7,43.4,5,41.3,5L41.3,5z M42,32.8c0,0.4-0.3,0.7-0.7,0.7l0,0H4.7c-0.4,0-0.7-0.3-0.7-0.7l0,0V8.7C4,8.3,4.3,8,4.7,8h36.6
	C41.7,8,42,8.3,42,8.7v0V32.8z"/>
<path class="st0" d="M34.1,37.6H11.9c-0.8,0-1.5,0.7-1.5,1.5s0.7,1.5,1.5,1.5h22.2c0.8,0,1.5-0.7,1.5-1.5S34.9,37.6,34.1,37.6z"/>
</svg>
