<?xml version="1.0" encoding="utf-8"?>
<!-- Generator: Adobe Illustrator 24.0.1, SVG Export Plug-In . SVG Version: 6.00 Build 0)  -->
<svg version="1.1" id="PICTOS_vectos" xmlns="http://www.w3.org/2000/svg" xmlns:xlink="http://www.w3.org/1999/xlink" x="0px"
	 y="0px" viewBox="0 0 46.1 46.1" style="enable-background:new 0 0 46.1 46.1;" xml:space="preserve">
<style type="text/css">
	.st0{fill:#25465F;}
</style>
<path class="st0" d="M44.9,15.3c0-3.3-2.6-6-5.9-6.1c-3.3,0-6,2.6-6.1,5.9c0,2.8,1.8,5.2,4.5,5.9v16.6c0,0.6-0.5,1.2-1.2,1.2
	c0,0,0,0,0,0H18.4c-0.6,0-1.2-0.5-1.2-1.1c0,0,0,0,0,0v-1.8c7.6-0.8,13.3-7.2,13.3-14.8v-9.7c0-2.3-1.9-4.2-4.2-4.2
	c-0.8,0-1.5,0.7-1.5,1.5s0.7,1.5,1.5,1.5c0.6,0,1.2,0.5,1.2,1.2l0,0v9.7c0,6.5-5.3,11.8-11.8,11.8c-6.5,0-11.8-5.3-11.8-11.8
	c0,0,0,0,0,0v-9.7c0-0.6,0.5-1.2,1.2-1.2l0,0c0.8,0,1.5-0.7,1.5-1.5S5.9,7.2,5.1,7.2c-2.3,0-4.2,1.9-4.2,4.2l0,0v9.7
	c0,7.6,5.8,14,13.3,14.8v1.9c0,2.3,1.9,4.1,4.2,4.1h17.8c2.3,0,4.2-1.9,4.2-4.2V21.1C43,20.4,44.9,18,44.9,15.3z M38.9,18.3
	c-1.6,0-2.9-1.3-2.9-3c0-1.6,1.3-2.9,3-2.9c1.6,0,2.9,1.3,2.9,2.9C41.9,16.9,40.5,18.3,38.9,18.3L38.9,18.3L38.9,18.3z"/>
<path class="st0" d="M10.1,13.6c1.2,0,2.2-2.1,2.2-4.6s-1-4.6-2.2-4.7S7.9,6.4,7.9,9S8.8,13.5,10.1,13.6z"/>
<path class="st0" d="M21.4,13.6c1.2,0,2.2-2.1,2.3-4.6s-1-4.6-2.2-4.7S19.2,6.4,19.2,9S20.1,13.5,21.4,13.6z"/>
</svg>
