<?xml version="1.0" encoding="utf-8"?>
<!-- Generator: Adobe Illustrator 24.0.1, SVG Export Plug-In . SVG Version: 6.00 Build 0)  -->
<svg version="1.1" id="PICTOS_vectos" xmlns="http://www.w3.org/2000/svg" xmlns:xlink="http://www.w3.org/1999/xlink" x="0px"
	 y="0px" viewBox="0 0 58.3 58.3" style="enable-background:new 0 0 58.3 58.3;" xml:space="preserve">
<style type="text/css">
	.st0{fill:#25465F;}
</style>
<path class="st0" d="M14.2,31.1c2.7-2.3,3-6.4,0.7-9.1s-6.4-3-9.1-0.7s-3,6.4-0.7,9.1c0.2,0.2,0.4,0.5,0.7,0.7
	c-3,1.7-4.8,4.8-4.8,8.2c0,1.3,0.2,2.7,0.6,3.9l0.1,0.2c0.1,0.5,0.5,0.8,0.9,1c2.4,0.8,4.8,1.1,7.3,1.1c2.5,0,5.1-0.3,7.5-1
	c0.5-0.1,0.9-0.5,1-1l0.1-0.2c0.4-1.3,0.6-2.6,0.6-4C19,35.9,17.1,32.7,14.2,31.1z M9.9,22.8c1.9,0,3.5,1.5,3.5,3.4
	c0,1.9-1.5,3.5-3.4,3.5c-1.9,0-3.5-1.5-3.5-3.4c0,0,0-0.1,0-0.1C6.5,24.3,8.1,22.8,9.9,22.8z M15.7,41.8c-3.7,0.9-7.7,0.9-11.4,0
	C4,41,3.9,40.1,3.9,39.2c0.1-3.4,2.6-6.1,6-6.5c3.3,0.3,5.9,3.1,6,6.5C15.9,40.1,15.9,40.9,15.7,41.8L15.7,41.8z"/>
<path class="st0" d="M52.4,31.1c2.7-2.3,3-6.4,0.7-9.1c-2.3-2.7-6.4-3-9.1-0.7s-3,6.4-0.7,9.1c0.2,0.2,0.4,0.5,0.7,0.7
	c-3,1.7-4.8,4.8-4.8,8.2c0,1.3,0.2,2.7,0.6,3.9l0.1,0.2c0.1,0.5,0.5,0.8,0.9,1c2.3,0.7,4.8,1.1,7.2,1c2.5,0,5.1-0.3,7.5-1
	c0.5-0.1,0.9-0.5,1-1l0.1-0.2c0.4-1.3,0.6-2.6,0.6-4C57.1,35.9,55.3,32.7,52.4,31.1z M48.1,22.8c1.9,0,3.5,1.5,3.5,3.5
	s-1.5,3.4-3.5,3.4c-1.9,0-3.5-1.5-3.5-3.4S46.2,22.8,48.1,22.8L48.1,22.8z M53.9,41.8c-3.8,0.9-7.7,0.9-11.4,0
	c-0.2-0.8-0.3-1.7-0.3-2.5c0-4.5,4.3-6.5,6-6.5c3.3,0.3,5.9,3.1,6,6.5C54.1,40.1,54,40.9,53.9,41.8L53.9,41.8z"/>
<path class="st0" d="M35.5,25.5c-0.6-0.6-1.6-0.5-2.1,0.1c-0.5,0.6-0.5,1.5,0,2l0.5,0.4h-9.8l0.5-0.4c0.6-0.6,0.6-1.5,0-2.1
	c-0.6-0.6-1.5-0.6-2.1,0l0,0l-3,3c-0.6,0.6-0.6,1.5,0,2.1l3,3c0.6,0.6,1.5,0.6,2.1,0c0.6-0.6,0.6-1.5,0-2.1l-0.5-0.5h9.8l-0.5,0.5
	c-0.6,0.6-0.6,1.5,0,2.1c0,0,0,0,0,0c0.6,0.6,1.5,0.6,2.1,0l3-3c0.6-0.6,0.6-1.5,0-2.1L35.5,25.5z"/>
<path class="st0" d="M22.3,22.8h2.3v-10h-1.9c-0.2,1.2-1.3,2-2.5,1.9v1.6h2.1V22.8z"/>
<path class="st0" d="M28.8,17.7c0-0.5,0.3-0.9,0.8-0.9c0.1,0,0.1,0,0.2,0c0.5-0.1,0.9,0.2,0.9,0.7c0,0.1,0,0.2,0,0.2v5H33v-5
	c0-0.6,0.4-0.9,1-0.9c0.5-0.1,0.9,0.2,1,0.7c0,0.1,0,0.2,0,0.3v5h2.2v-5.2c0-1.5-1.1-2.7-2.6-2.8c-0.1,0-0.2,0-0.3,0
	c-0.8,0-1.6,0.2-2.2,0.8c-0.7-0.5-1.5-0.8-2.3-0.8c-1.9,0-3.2,1.1-3.2,2.7v5.3h2.2L28.8,17.7z"/>
<path class="st0" d="M43.6,38.1c0,1.2,2.1,2.2,4.6,2.2s4.4-0.9,4.5-2.1s-2-2.2-4.5-2.2S43.6,36.9,43.6,38.1z"/>
</svg>
