<?xml version="1.0" encoding="utf-8"?>
<!-- Generator: Adobe Illustrator 24.0.1, SVG Export Plug-In . SVG Version: 6.00 Build 0)  -->
<svg version="1.1" id="PICTOS_vectos" xmlns="http://www.w3.org/2000/svg" xmlns:xlink="http://www.w3.org/1999/xlink" x="0px"
	 y="0px" viewBox="0 0 44.8 44.8" style="enable-background:new 0 0 44.8 44.8;" xml:space="preserve">
<style type="text/css">
	.st0{fill:#25465F;}
</style>
<path class="st0" d="M43.7,14.2c-0.4-1.8-2.1-2.9-3.8-2.6l-13.1,3l0.8-0.4c0.8-0.4,1.3-1.1,1.6-1.9c0.3-0.9,0.2-1.8-0.2-2.6
	c-0.4-0.9-1.1-1.5-2-1.9C26,7.5,25,7.7,24.3,8.1l-6.6,3.5c-1.3,0.5-2.5,1.2-3.7,2.1L5.5,5.2C4.9,4.6,4,4.6,3.4,5.1c0,0,0,0,0,0
	c-0.6,0.6-0.6,1.5,0,2.1l8.6,8.7c-0.5,0.8-0.9,1.7-1.2,2.6C10,18,9,17.8,8,18.1l-4.7,1.4c-1.7,0.5-2.7,2.4-2.2,4.1c0,0,0,0,0,0.1
	l4,11.9c0.4,1.4,1.7,2.3,3.1,2.3c0.3,0,0.7-0.1,1-0.2l4.5-1.3c1.4-0.4,2.3-1.7,2.3-3.1l0.1,0.1c1.6,0.9,3.3,1.3,5.1,1.2
	c0.8,0,1.7-0.1,2.5-0.2c1.8-0.3,3.6-0.6,5.6-1.1l8,8c0.3,0.3,0.7,0.4,1.1,0.4c0.8,0,1.5-0.7,1.5-1.5c0-0.4-0.2-0.8-0.4-1.1l-6.7-6.7
	c0.8-0.3,1.5-0.8,1.8-1.6c0.3-0.8,0.4-1.6,0.2-2.5c-0.1-0.2-0.2-0.5-0.3-0.7c0.9-0.9,1.3-2.3,0.9-3.5c-0.1-0.2-0.1-0.3-0.2-0.5
	c1.1-0.9,1.5-2.3,1.1-3.7c0-0.2-0.1-0.3-0.2-0.4l5.4-1.2c0.9-0.2,1.6-0.9,1.9-1.7C43.9,15.9,43.9,15,43.7,14.2z M12.9,33.5l-4.5,1.3
	l0,0c-0.1,0-0.2,0-0.2,0C8.1,34.8,8,34.7,8,34.6L4,22.8c0-0.2,0-0.3,0.2-0.4L8.9,21H9c0.1,0,0.3,0.1,0.3,0.2l3.8,12
	C13.1,33.4,13,33.5,12.9,33.5z M23.4,31.5c-1.9,0.4-4,0.2-5.7-0.7c-1.8-1-3.1-2.7-3.5-4.7c-0.8-3.2-1.1-5.8,0-7.9l12.7,12.7
	C25.7,31.1,24.5,31.3,23.4,31.5z M29.5,29.2l1.3-0.3l0.8-0.2c0.1,0.1,0.2,0.2,0.3,0.4c0,0.1,0,0.3,0,0.5L30.3,30L29.5,29.2z
	 M40.8,15.4L27,18.5c-0.1,0-0.2,0.1-0.3,0.1l-0.4,0.1c-0.8,0.2-1.3,1-1.2,1.8c0.2,0.8,1,1.3,1.8,1.2l6.2-1.3
	c0.2,0.1,0.3,0.2,0.3,0.4c0.1,0.2,0.1,0.3,0,0.5l-2.6,0.6l-3.6,0.7c-0.8,0.1-1.4,0.9-1.2,1.7c0.1,0.8,0.9,1.4,1.7,1.2
	c0,0,0.1,0,0.1,0l0,0H28c0.1,0,0.2,0,0.3,0l3.5-0.8l0.4-0.1c0.1,0.1,0.2,0.2,0.3,0.4c0.1,0.1,0.1,0.3,0,0.5L30.1,26l-1.5,0.3
	c-0.2,0-0.4,0.1-0.6,0.2l0,0c-0.3,0.1-0.5,0.2-0.7,0.4L16.2,15.8c0.5-0.4,1-0.7,1.5-0.9c0.2,0,0.3-0.1,0.4-0.1l0.9-0.5l0.1-0.1
	c0.1,0,0.2-0.1,0.3-0.2l6.2-3.3c0.1,0,0.2-0.1,0.3-0.1c0.1,0.1,0.2,0.2,0.2,0.3c0,0.1,0,0.2,0,0.4c0,0.1-0.1,0.1-0.1,0.2l-6.3,3.3
	c-0.7,0.4-1,1.3-0.6,2c0.3,0.5,0.8,0.8,1.3,0.8c0.2,0,0.5-0.1,0.7-0.2l3.8-2c-0.2,0.3-0.2,0.7-0.1,1c0.2,0.8,1,1.3,1.8,1.1
	c0,0,0,0,0,0l13.9-3.1c0.2,0.1,0.3,0.2,0.3,0.4C40.9,15.1,40.8,15.3,40.8,15.4z"/>
<path class="st0" d="M6.8,22.2c-1.1,0.3-1.4,2.3-0.7,4.6s2.1,3.9,3.2,3.5s1.4-2.4,0.7-4.6S7.9,21.8,6.8,22.2z"/>
</svg>
