<?xml version="1.0" encoding="utf-8"?>
<!-- Generator: Adobe Illustrator 24.0.1, SVG Export Plug-In . SVG Version: 6.00 Build 0)  -->
<svg version="1.1" id="Calque_1" xmlns="http://www.w3.org/2000/svg" xmlns:xlink="http://www.w3.org/1999/xlink" x="0px" y="0px"
	 viewBox="0 0 46 46" style="enable-background:new 0 0 46 46;" xml:space="preserve">
<style type="text/css">
	.st0{fill:#25465F;}
</style>
<g>
	<path class="st0" d="M16.7,34c-2.6,0-4.7,1-4.7,2.2s2.1,2.2,4.7,2.2s4.6-1,4.6-2.2C21.4,35.1,19.3,34.1,16.7,34z"/>
	<path class="st0" d="M42.1,1H23.3c-0.9,0-1.7,0.4-2.3,1.1L18.8,5h-8.4C9.5,5,8.7,5.4,8.2,6l-6.6,7.2C1.2,13.7,1,14.4,1,15v27
		c0,1.7,1.3,3,2.9,3h25.6c1.6,0,2.9-1.3,2.9-2.9V41H42c1.6,0,2.9-1.3,2.9-2.9V3.9C45,2.3,43.7,1,42.1,1z M9.1,9.5v4.3H5.2L9.1,9.5z
		 M42,38h-9.5v-8c0-0.8-0.7-1.5-1.5-1.5s-1.5,0.7-1.5,1.5v12H4V16.7h6.6c0.8,0,1.5-0.7,1.5-1.5V8h17.4v12c0,0.8,0.7,1.5,1.5,1.5
		s1.5-0.7,1.5-1.5V7.9c0-1.6-1.3-2.9-2.9-2.9H25V4h17V38z"/>
	<path class="st0" d="M34.8,23.5h-8.5c-0.8,0-1.5,0.7-1.5,1.5s0.7,1.5,1.5,1.5h8.5L34,27.4c-0.6,0.6-0.6,1.5,0,2.1
		c0.3,0.3,0.7,0.4,1.1,0.4s0.8-0.1,1.1-0.4l3.4-3.4c0.1-0.1,0.2-0.3,0.3-0.5l0,0c0.1-0.2,0.1-0.4,0.1-0.5s0-0.4-0.1-0.5l0,0
		c-0.1-0.2-0.2-0.4-0.3-0.5l-3.4-3.4c-0.6-0.6-1.5-0.6-2.1,0s-0.6,1.5,0,2.1L34.8,23.5z"/>
</g>
</svg>
