<?xml version="1.0" encoding="utf-8"?>
<!-- Generator: Adobe Illustrator 24.0.1, SVG Export Plug-In . SVG Version: 6.00 Build 0)  -->
<svg version="1.1" id="PICTOS_vectos" xmlns="http://www.w3.org/2000/svg" xmlns:xlink="http://www.w3.org/1999/xlink" x="0px"
	 y="0px" viewBox="0 0 46.1 46.1" style="enable-background:new 0 0 46.1 46.1;" xml:space="preserve">
<style type="text/css">
	.st0{fill:#25465F;}
</style>
<path class="st0" d="M23.1,29.1c-1.5,2.1-1.8,4.3-0.8,5s3-0.4,4.5-2.5s1.9-4.4,0.9-5.1S24.5,27,23.1,29.1z"/>
<path class="st0" d="M30.7,2.3C25.3,0.1,17.8,0.4,13,6c-6.8,8.1-1.7,17.1-1.7,17.2c0.4,0.7,1.3,1,2.1,0.6c0.7-0.4,1-1.3,0.6-2.1l0,0
	c-0.2-0.3-4.1-7.3,1.4-13.7C19,3.4,25.2,3.3,29.5,5c3.9,1.6,7.9,5.4,7.5,11.2c-0.2,2.7-1,5.3-2.3,7.6c-0.3,0.5-0.7,1-1.1,1.5
	c-0.5,0.6-1,1.3-1.5,2c-0.8,1.4-1.3,3-1.6,4.6c-1.3,5.8-2.6,10.3-7.4,10.3h-0.2c-3.3-0.1-5.5-1.2-6.6-3.4c-0.3-0.7-0.6-1.5-0.7-2.2
	c-0.1-0.8-0.9-1.4-1.7-1.3c-0.8,0.1-1.4,0.9-1.3,1.7c0.2,1.1,0.5,2.1,1,3.1c1.6,3.2,4.8,4.9,9.2,5h0.3c7.6,0,9.2-7.6,10.3-12.6
	c0.2-1.3,0.7-2.5,1.3-3.7c0.3-0.5,0.7-1.1,1.2-1.5c0.5-0.6,1-1.2,1.4-1.9c1.6-2.7,2.5-5.8,2.7-8.9C40.5,10.3,37,4.8,30.7,2.3z"/>
<path class="st0" d="M31,19.6c0.8,0.1,1.6-0.5,1.6-1.4c0.2-2.4-0.5-4.8-2.1-6.6C29.1,10,27.1,9.1,25,9.1c-2.4,0-4.7,1.1-6.3,3
	c-1.5,1.7-2.1,4-1.7,6.3c0.4,1.4,1,2.8,1.9,3.9c0.5,0.7,1,1.5,1.3,2.4c0.2,0.6,0.3,1.2-1,2.9c-0.5,0.7-0.3,1.6,0.3,2.1c0,0,0,0,0,0
	c0.3,0.2,0.6,0.3,0.9,0.3c0.5,0,0.9-0.2,1.2-0.6c1.4-1.8,2.1-3.5,1.4-5.6c-0.4-1.1-1-2.1-1.7-3.1c-0.7-0.8-1.1-1.8-1.4-2.8
	C19.7,16.4,20.1,15,21,14c1-1.2,2.4-1.9,3.9-1.9l0,0c1.3,0,2.5,0.6,3.4,1.5c1,1.2,1.5,2.7,1.4,4.3C29.6,18.7,30.2,19.5,31,19.6
	C31,19.6,31,19.6,31,19.6z"/>
<path class="st0" d="M16.6,29.3c-0.6-0.6-1.5-0.6-2.1,0l-13,13c-0.6,0.6-0.6,1.5,0,2.1s1.5,0.6,2.1,0l13-13
	C17.2,30.9,17.2,29.9,16.6,29.3C16.6,29.3,16.6,29.3,16.6,29.3z"/>
<path class="st0" d="M44.4,1.5c-0.6-0.6-1.5-0.6-2.1,0l-3.2,3.2c-0.6,0.6-0.6,1.5,0,2.1c0,0,0,0,0,0c0.6,0.6,1.5,0.6,2.1,0l3.2-3.2
	C45,3,45,2.1,44.4,1.5C44.4,1.5,44.4,1.5,44.4,1.5z"/>
</svg>
