<?xml version="1.0" encoding="utf-8"?>
<!-- Generator: Adobe Illustrator 24.0.1, SVG Export Plug-In . SVG Version: 6.00 Build 0)  -->
<svg version="1.1" id="PICTOS_vectos" xmlns="http://www.w3.org/2000/svg" xmlns:xlink="http://www.w3.org/1999/xlink" x="0px"
	 y="0px" viewBox="0 0 46.1 46.1" style="enable-background:new 0 0 46.1 46.1;" xml:space="preserve">
<style type="text/css">
	.st0{fill:#25465F;}
</style>
<path class="st0" d="M26,40.6c-2.6,0-4.6,1-4.6,2.2s2.1,2.2,4.6,2.3s4.6-1,4.6-2.2S28.6,40.6,26,40.6z"/>
<path class="st0" d="M11.1,11.3C11,11.5,11,11.6,11,11.8c-0.6,1.7-1,3.6-1,5.5c0,8.9,7.3,16.2,16.2,16.2s16.2-7.3,16.2-16.2
	c0-1.9-0.4-3.7-1-5.5c0-0.2-0.1-0.3-0.2-0.4C38.8,5.3,33.1,1.2,26.6,1C26.3,1,26.1,1,25.8,1C19.3,1.2,13.5,5.3,11.1,11.3z
	 M39.4,17.2c0,1.5-0.3,3-0.8,4.4h-4.1c0.2-1.5,0.3-3,0.3-4.5c0-1.2-0.1-2.4-0.2-3.6h4.3C39.2,14.7,39.4,16,39.4,17.2z M31.8,17.2
	c0,1.5-0.1,3-0.3,4.5h-3.8v-8.1h3.9C31.7,14.8,31.8,16,31.8,17.2L31.8,17.2z M24.7,29.8c-1.5-1.4-2.5-3.2-3-5.1h3V29.8z M27.7,29.9
	v-5.2h3.1c-0.2,0.8-0.5,1.5-0.8,2.3C29.5,28.1,28.7,29.1,27.7,29.9z M27.7,10.5V4.7c1.3,1,2.5,3,3.3,5.9L27.7,10.5z M24.7,4.5v6
	h-3.4c0.3-1.1,0.6-2.1,1.1-3.1C22.9,6.3,23.7,5.3,24.7,4.5z M24.7,13.5v8.1H21c-0.3-1.5-0.4-3.1-0.4-4.7c0-1.2,0.1-2.3,0.2-3.5
	L24.7,13.5z M17.9,21.6h-4.2c-0.5-1.4-0.8-2.9-0.8-4.4c0-1.2,0.2-2.5,0.5-3.7h4.2C17.5,16.2,17.5,19,17.9,21.6z M15.3,24.6h3.3
	c0.4,1.5,1,3,1.8,4.4C18.3,28,16.6,26.5,15.3,24.6z M32.3,28.9c0.1-0.2,0.3-0.5,0.4-0.7c0.5-1.1,1-2.3,1.3-3.6h3.2
	C35.9,26.5,34.2,27.9,32.3,28.9L32.3,28.9z M37.6,10.5h-3.5c-0.4-1.8-1-3.5-1.9-5.1C34.4,6.6,36.3,8.4,37.6,10.5L37.6,10.5z M20,5.6
	c-0.1,0.2-0.2,0.3-0.3,0.6C19,7.5,18.5,9,18.2,10.5h-3.4C16,8.4,17.8,6.7,20,5.6z"/>
<path class="st0" d="M36.7,32.2c-8.2,5.8-19.6,3.8-25.4-4.5c-4.9-7-4.3-16.5,1.5-22.8c0.6-0.5,0.7-1.5,0.1-2.1
	c-0.5-0.6-1.5-0.7-2.1-0.1c-0.1,0.1-0.2,0.2-0.2,0.3C2.7,11.6,3.3,25,12,32.9c7.3,6.7,18.3,7.4,26.5,1.7c0.7-0.5,0.8-1.4,0.4-2.1
	C38.3,31.8,37.4,31.7,36.7,32.2z"/>
</svg>
