<?xml version="1.0" encoding="utf-8"?>
<!-- Generator: Adobe Illustrator 24.0.1, SVG Export Plug-In . SVG Version: 6.00 Build 0)  -->
<svg version="1.1" id="PICTOS_vectos" xmlns="http://www.w3.org/2000/svg" xmlns:xlink="http://www.w3.org/1999/xlink" x="0px"
	 y="0px" viewBox="0 0 46 46" style="enable-background:new 0 0 46 46;" xml:space="preserve">
<style type="text/css">
	.st0{fill:#25465F;}
</style>
<path class="st0" d="M26.7,32c1.2,0,2.1-0.9,2.1-2c0,0,0-0.1,0-0.1v-0.5c0-1.9,0.7-3.6,1.9-5.1c1.5-1.8,2.3-4,2.3-6.2
	c0-2.7-1.1-5.4-3.1-7.2c-2-1.9-4.6-2.9-7.4-2.7c-5.2,0.2-9.3,4.4-9.6,9.5c-0.1,2.5,0.8,5,2.4,6.9c1.1,1.4,1.7,3.1,1.6,4.9v0.4
	c0,1.2,0.9,2.1,2.1,2.1c0,0,0.1,0,0.1,0h2.3v11.5c0,0.8,0.7,1.5,1.5,1.5s1.5-0.7,1.5-1.5V32H26.7z M17.6,22.6
	c-1.2-1.3-1.8-3.1-1.7-4.8c0.2-3.6,3.1-6.4,6.7-6.7c3.8-0.2,7.1,2.7,7.3,6.5c0.1,1.7-0.5,3.5-1.6,4.8c-1.5,1.8-2.4,4.1-2.6,6.5H20
	C19.9,26.6,19.1,24.4,17.6,22.6z"/>
<path class="st0" d="M23,7.2c0.8,0,1.5-0.7,1.5-1.5V2.5C24.5,1.7,23.8,1,23,1s-1.5,0.7-1.5,1.5v3.2C21.5,6.5,22.2,7.2,23,7.2z"/>
<path class="st0" d="M11.8,16.3c0-0.8-0.7-1.5-1.5-1.5H7.1c-0.8,0-1.5,0.7-1.5,1.5c0,0.8,0.7,1.5,1.5,1.5h3.2
	C11.1,17.8,11.8,17.1,11.8,16.3z"/>
<path class="st0" d="M38.9,14.8h-3.2c-0.8,0-1.5,0.7-1.5,1.5c0,0.8,0.7,1.5,1.5,1.5h3.2c0.8,0,1.5-0.7,1.5-1.5
	C40.4,15.4,39.7,14.8,38.9,14.8z"/>
<path class="st0" d="M32.3,10c0.4,0,0.8-0.2,1.1-0.4l2.3-2.3c0.6-0.6,0.6-1.5,0-2.1s-1.5-0.6-2.1,0l-2.3,2.2c-0.6,0.6-0.6,1.5,0,2.1
	C31.5,9.8,31.9,10,32.3,10z"/>
<path class="st0" d="M12.4,9.5C12.6,9.8,13,10,13.4,10c0.4,0,0.8-0.2,1.1-0.4c0.6-0.6,0.6-1.5,0-2.1c0,0,0,0,0,0l-2.3-2.3
	c-0.6-0.6-1.5-0.6-2.1,0c-0.6,0.6-0.6,1.5,0,2.1c0,0,0,0,0,0L12.4,9.5z"/>
<path class="st0" d="M12.7,23c-0.6-0.6-1.5-0.6-2.1,0c0,0,0,0,0,0l-2.3,2.3c-0.6,0.6-0.6,1.5,0,2.1c0.3,0.3,0.7,0.4,1.1,0.4
	c0.4,0,0.8-0.2,1.1-0.4l2.3-2.3C13.3,24.6,13.3,23.6,12.7,23C12.7,23,12.7,23,12.7,23z"/>
<path class="st0" d="M35.1,23c-0.6-0.6-1.5-0.6-2.1,0c0,0,0,0,0,0c-0.6,0.6-0.6,1.5,0,2.1l2.3,2.3c0.3,0.3,0.7,0.4,1.1,0.4
	c0.4,0,0.8-0.2,1.1-0.4c0.6-0.6,0.6-1.5,0-2.1L35.1,23z"/>
<path class="st0" d="M28,34.8c-1.8,1.8-2.5,3.9-1.7,4.8s3,0.1,4.9-1.7c1.8-1.8,2.6-4,1.7-4.8C32,32.3,29.8,33,28,34.8z"/>
<path class="st0" d="M13.4,36.1c-0.9,0.9-0.1,3,1.7,4.9s4,2.6,4.9,1.7s0.1-3.1-1.7-4.9S14.2,35.2,13.4,36.1z"/>
</svg>
