<?xml version="1.0" encoding="utf-8"?>
<!-- Generator: Adobe Illustrator 24.0.1, SVG Export Plug-In . SVG Version: 6.00 Build 0)  -->
<svg version="1.1" id="PICTOS_vectos" xmlns="http://www.w3.org/2000/svg" xmlns:xlink="http://www.w3.org/1999/xlink" x="0px"
	 y="0px" viewBox="0 0 46 46" style="enable-background:new 0 0 46 46;" xml:space="preserve">
<style type="text/css">
	.st0{fill:#25465F;}
</style>
<rect x="13" y="34.6" transform="matrix(0.9616 -0.2745 0.2745 0.9616 -9.12 5.2413)" class="st0" width="2.3" height="1.1"/>
<path class="st0" d="M16.5,31.5c0.1,0.7-0.4,1.3-1,1.4l0.2,0.9l1.1-0.3l1,3.5l1.3-0.4l-1.5-5.4L16.5,31.5z"/>
<path class="st0" d="M20.8,30.2c-1.4,0.4-2,1.7-1.5,3.5c0.5,1.8,1.6,2.6,3,2.2s2-1.7,1.5-3.5C23.2,30.5,22.2,29.8,20.8,30.2z
	 M22.1,34.7c-0.6,0.2-1.1-0.1-1.5-1.4c-0.4-1.4-0.1-1.8,0.5-2s1.1,0.1,1.4,1.4S22.7,34.5,22.1,34.7z"/>
<path class="st0" d="M26,28.7c-1.4,0.4-2,1.7-1.5,3.5c0.5,1.8,1.6,2.6,3,2.2s2-1.7,1.5-3.5C28.5,29.1,27.4,28.3,26,28.7z M27.3,33.2
	c-0.6,0.2-1.1-0.1-1.4-1.4c-0.4-1.4-0.1-1.8,0.5-2s1.1,0.1,1.4,1.4C28.1,32.6,27.9,33.1,27.3,33.2z"/>
<path class="st0" d="M33,31.6c-0.5,0.2-1.1-0.1-1.3-0.6l1.4-0.3L32.9,30l-1.4,0.4c0-0.1,0-0.1-0.1-0.2c0-0.1,0-0.1,0-0.2l1.4-0.4
	l-0.2-0.6l-1.3,0.4c-0.1-0.5,0.3-1,0.8-1.1c0.5-0.2,1,0.1,1.2,0.5l1.2-0.6c-0.5-1-1.6-1.5-2.7-1.1c-1.2,0.3-2,1.4-1.8,2.6l-0.7,0.2
	l0.2,0.6l0.6-0.2c0,0.1,0,0.1,0,0.2c0,0.1,0,0.1,0.1,0.2l-0.6,0.2l0.2,0.6l0.6-0.2c0.5,1.1,1.7,1.7,2.9,1.3c1.1-0.2,2-1.2,1.9-2.3
	l-1.3,0.1C33.9,31,33.5,31.5,33,31.6C33,31.6,33,31.6,33,31.6z"/>
<path class="st0" d="M22,26.6c2.5-0.7,4.2-2.1,3.8-3.3s-2.6-1.6-5.1-1s-4.2,2.2-3.9,3.4S19.5,27.2,22,26.6z"/>
<path class="st0" d="M42.8,32.6l-4.3-15.8c-0.5-2-2.6-3.1-4.5-2.6l-11,3C24,14.7,24.4,12,24,9.4c-0.4-2.9-1.9-5.6-4.3-7.3
	c-1.5-1-3.3-1.3-5-0.8c-1.7,0.4-3.1,1.6-3.8,3.2C9.7,6.7,9.8,9.9,11.1,13c1.1,2.4,2.8,4.5,5.1,6L5.8,21.9c-2,0.5-3.1,2.6-2.6,4.5
	l4.3,15.8c0.3,0.9,0.9,1.7,1.7,2.2c0.9,0.5,1.9,0.6,2.8,0.4l28.1-7.7l0,0C42.1,36.6,43.3,34.6,42.8,32.6
	C42.8,32.6,42.8,32.6,42.8,32.6z M13.8,11.9c-0.9-2.3-1.1-4.6-0.3-6.2c0.4-0.8,1.1-1.4,1.9-1.6c0.9-0.3,1.8-0.1,2.6,0.4
	c1.7,1.3,2.8,3.2,3,5.3c0.3,2.7-0.3,5.4-1.7,7.6C16.9,16.3,15,14.4,13.8,11.9z M39.4,34.3L11.3,42c-0.2,0-0.4,0-0.5-0.1
	c-0.2-0.1-0.3-0.2-0.3-0.4L6.1,25.6c-0.1-0.2,0-0.4,0.1-0.5c0.1-0.2,0.2-0.3,0.4-0.3l28.1-7.7c0.1,0,0.1,0,0.2,0
	c0.3,0,0.6,0.2,0.7,0.5l4.4,15.8C40,33.8,39.8,34.2,39.4,34.3z"/>
</svg>
