<?xml version="1.0" encoding="utf-8"?>
<!-- Generator: Adobe Illustrator 23.0.2, SVG Export Plug-In . SVG Version: 6.00 Build 0)  -->
<svg version="1.1" id="Calque_1" xmlns="http://www.w3.org/2000/svg" xmlns:xlink="http://www.w3.org/1999/xlink" x="0px" y="0px"
	 viewBox="0 0 660 660" style="enable-background:new 0 0 660 660;" xml:space="preserve">
<style type="text/css">
	.st0{fill-rule:evenodd;clip-rule:evenodd;fill:#009DCC;}
</style>
<path class="st0" d="M176.5,179.5l-64,11.3c-8.2,1.4-15.9-4-17.4-12.2c-1.4-8.2,4-15.9,12.2-17.4l64-11.3l-11.3-64
	c-1.4-8.2,4-15.9,12.2-17.4s15.9,4,17.4,12.2l55.6,315.1c1.4,8.2-4,15.9-12.2,17.4c-8.2,1.4-15.9-4-17.4-12.2L176.5,179.5z M259,561
	c24.5-4.3,40.8-27.7,36.5-52.1s-27.7-40.8-52.1-36.5s-40.8,27.7-36.5,52.1C211.2,548.9,234.6,565.3,259,561z M264.2,590.5
	c-40.8,7.2-79.7-20-86.9-60.8s20-79.7,60.8-86.9s79.7,20,86.9,60.8C332.3,544.4,305,583.3,264.2,590.5z M253.8,531.4
	c-8.2,1.4-15.9-4-17.4-12.2c-1.4-8.2,4-15.9,12.2-17.4c8.2-1.4,15.9,4,17.4,12.2C267.4,522.2,262,530,253.8,531.4z M366.8,481
	l157.6-27.8c8.2-1.4,15.9,4,17.4,12.2c1.4,8.2-4,15.9-12.2,17.4L372,510.6c-8.2,1.4-15.9-4-17.4-12.2
	C353.2,490.3,358.6,482.5,366.8,481z M291.8,199.8l206.8-36.5c16.3-2.9,31.9,8,34.8,24.3l31.3,177.3c2.9,16.3-8,31.9-24.3,34.8
	l-206.8,36.5c-16.3,2.9-31.9-8-34.8-24.3l-31.3-177.3C264.6,218.2,275.5,202.7,291.8,199.8z M425.4,266.6c5.5,1.1,11.5-1,14.9-6
	c4.6-6.6,3-15.8-3.6-20.4l-20.5-14.3c-0.8-1-1.8-1.8-2.8-2.6c-3.4-2.4-7.5-3.1-11.3-2.4c-3.8,0.6-7.4,2.7-9.8,6.1
	c-0.8,1.1-1.3,2.2-1.8,3.4l-14.3,20.5c-4.6,6.6-3,15.8,3.6,20.4c4.9,3.4,11.2,3.4,16,0.5l6.3,35.5c1.4,8.2,9.2,13.6,17.4,12.2
	s13.6-9.2,12.2-17.4L425.4,266.6z M365.6,359.4c-8.2,1.4-13.6,9.2-12.2,17.4s9.2,13.6,17.4,12.2L489,368.1
	c8.2-1.4,13.6-9.2,12.2-17.4s-9.2-13.6-17.4-12.2L365.6,359.4z"/>
</svg>
