<?xml version="1.0" encoding="utf-8"?>
<!-- Generator: Adobe Illustrator 24.0.1, SVG Export Plug-In . SVG Version: 6.00 Build 0)  -->
<svg version="1.1" id="PICTOS_vectos" xmlns="http://www.w3.org/2000/svg" xmlns:xlink="http://www.w3.org/1999/xlink" x="0px"
	 y="0px" viewBox="0 0 56 56" style="enable-background:new 0 0 56 56;" xml:space="preserve">
<style type="text/css">
	.st0{fill:#25465F;}
</style>
<path class="st0" d="M43.8,30.7c-0.8,0-1.5,0.7-1.5,1.5v8.5c0,0.4-0.3,0.7-0.7,0.7l0,0H4.9c-0.4,0-0.7-0.3-0.7-0.7l0,0V16.5
	c0-0.4,0.3-0.7,0.7-0.7h17.7c0.8,0,1.5-0.7,1.5-1.5s-0.7-1.5-1.5-1.5H4.9c-2,0-3.7,1.7-3.7,3.7v24.1c0,2,1.7,3.7,3.7,3.7h0h36.7
	c2,0,3.7-1.7,3.7-3.7l0,0v-8.5C45.3,31.3,44.6,30.7,43.8,30.7L43.8,30.7z"/>
<path class="st0" d="M34.3,45.4H12.2c-0.8,0-1.5,0.7-1.5,1.5s0.7,1.5,1.5,1.5h22.2c0.8,0,1.5-0.7,1.5-1.5S35.2,45.4,34.3,45.4z"/>
<path class="st0" d="M45.8,26.1c1.5-1.6,2.4-3.8,2.5-6c-0.1-2.3-1.1-4.5-2.8-6c-4.8-4.7-16.8-8.2-19.4-5.6s0.9,14.6,5.7,19.4
	c1.5,1.7,3.7,2.7,6,2.8h0.1c2.2-0.1,4.3-1,5.9-2.5l3.1,3.1c0.6,0.6,1.5,0.6,2.1,0c0.6-0.6,0.6-1.5,0-2.1c0,0,0,0,0,0L45.8,26.1z
	 M35,26.7c-5.1-3.6-7.2-14.1-6.7-16c2-0.5,12.4,1.6,16,6.7c1.5,2.1,1.3,4.2-0.6,6.6L42,22.3v-4.7c0-0.8-0.7-1.5-1.5-1.5
	S39,16.8,39,17.7v1.7l-2.1-2.1v-1.8c0-0.8-0.7-1.5-1.5-1.5c-0.5,0-0.9,0.2-1.2,0.6l-2.3-2.4c-0.6-0.6-1.5-0.6-2.1-0.1
	c-0.6,0.6-0.6,1.5-0.1,2.1c0,0,0,0.1,0.1,0.1l2.4,2.4c-0.7,0.5-0.8,1.4-0.3,2.1c0.3,0.4,0.7,0.6,1.2,0.6h1.8l2.1,2.1h-1.7
	c-0.8,0-1.5,0.7-1.5,1.5s0.7,1.5,1.5,1.5h4.7l1.7,1.6C39.2,28,37.1,28.2,35,26.7z"/>
<path class="st0" d="M54.2,19c-1-0.7-3,0.5-4.5,2.6s-1.8,4.3-0.8,5s3-0.4,4.5-2.5S55.2,19.7,54.2,19z"/>
</svg>
