<svg id="PICTOS_vectos" xmlns="http://www.w3.org/2000/svg" viewBox="0 0 46 46"><defs><style>.cls-1{fill:#25465f;}</style></defs><path class="cls-1" d="M43.56,36.69a1.5,1.5,0,0,0-1.5,1.5,3.8,3.8,0,0,1-7.57.51,9.32,9.32,0,0,0,7.76-9.17V24.37a1.5,1.5,0,0,0-1.5-1.5H38.2V19.21a1.5,1.5,0,0,0-3,0v3.66H31V19.21a1.5,1.5,0,0,0-3,0v3.66H25.12a1.5,1.5,0,0,0-1.5,1.5v3.89H4.32a.39.39,0,0,1-.38-.39V4.38A.39.39,0,0,1,4.32,4H27.81a.39.39,0,0,1,.38.38V14.69a1.5,1.5,0,0,0,3,0V4.38A3.38,3.38,0,0,0,27.81,1H4.32A3.38,3.38,0,0,0,.94,4.38V27.87a3.38,3.38,0,0,0,3.38,3.39H23.79a9.32,9.32,0,0,0,7.67,7.45,6.81,6.81,0,0,0,13.6-.52A1.5,1.5,0,0,0,43.56,36.69Zm-10.62-.85a6.32,6.32,0,0,1-6.32-6.31V25.87H39.25v3.66A6.32,6.32,0,0,1,32.94,35.84Z"/><path class="cls-1" d="M6.59,16.13a9.48,9.48,0,1,0,9.47-9.48A9.49,9.49,0,0,0,6.59,16.13Zm16,0a6.48,6.48,0,1,1-6.48-6.48A6.48,6.48,0,0,1,22.54,16.13Z"/><path class="cls-1" d="M14.4,14.89a1.3,1.3,0,0,0-.26-.14,1.52,1.52,0,0,0-.28-.09,1.94,1.94,0,0,0-.59,0,1.52,1.52,0,0,0-.28.09,1.3,1.3,0,0,0-.26.14,1,1,0,0,0-.22.18,1,1,0,0,0-.19.23,1.61,1.61,0,0,0-.23.54c0,.1,0,.2,0,.29a1.43,1.43,0,0,0,.12.58,1.29,1.29,0,0,0,.33.48,1,1,0,0,0,.22.19,1.3,1.3,0,0,0,.26.14.9.9,0,0,0,.28.08l.29,0a1.43,1.43,0,0,0,.58-.11,1.76,1.76,0,0,0,.49-.33,1.49,1.49,0,0,0,.43-1.06,1.55,1.55,0,0,0-.43-1.06A1.3,1.3,0,0,0,14.4,14.89Z"/><path class="cls-1" d="M17.5,17.19a1.63,1.63,0,0,0,.49.33,1.56,1.56,0,0,0,.57.11,1.46,1.46,0,0,0,1.06-.44,1.29,1.29,0,0,0,.33-.48,1.46,1.46,0,0,0,.11-.58,1.52,1.52,0,0,0-.44-1.06,1,1,0,0,0-.22-.18.94.94,0,0,0-.26-.14,1.52,1.52,0,0,0-.28-.09,1.57,1.57,0,0,0-1.36.41,1.52,1.52,0,0,0-.44,1.06,1.47,1.47,0,0,0,.12.58A1.39,1.39,0,0,0,17.5,17.19Z"/><path class="cls-1" d="M33,29.15c-2.57,0-4.65,1-4.66,2.2S30.43,33.58,33,33.6s4.57-1,4.58-2.19S35.51,29.17,33,29.15Z"/></svg>