<svg id="PICTOS_vectos" xmlns="http://www.w3.org/2000/svg" viewBox="0 0 46 46"><defs><style>.cls-1{fill:#25465f;}</style></defs><path class="cls-1" d="M27.39,38H26.08a1.5,1.5,0,0,0,0,3h1.31a1.5,1.5,0,0,0,0-3Z"/><path class="cls-1" d="M18.21,38.27c-1.46,2.11-1.78,4.32-.77,5s3-.44,4.47-2.55,1.83-4.38.81-5.08S19.67,36.16,18.21,38.27Z"/><path class="cls-1" d="M31.17,38.27c-1.46,2.11-1.78,4.32-.77,5s3-.44,4.47-2.55,1.83-4.38.81-5.08S32.63,36.16,31.17,38.27Z"/><path class="cls-1" d="M39.05,26.62h-.88l-3-6.64c0-.08-.09-.16-.14-.24A4,4,0,0,0,31.75,18H19.52a4,4,0,0,0-4,4v4.58H14a4.54,4.54,0,0,0-4.13,2.72A10.8,10.8,0,0,1,15.3,9.91a7.37,7.37,0,0,0,7.19,5.81h3.88a1.5,1.5,0,0,0,1.5-1.5V12.69h2.36a1.5,1.5,0,0,0,0-3H27.87V7.26h2.36a1.5,1.5,0,0,0,0-3H27.87V2.5A1.5,1.5,0,0,0,26.37,1H22.49a7.36,7.36,0,0,0-7.21,5.91A13.8,13.8,0,0,0,9.45,32.68v3.8A4.51,4.51,0,0,0,14,41h.47a1.5,1.5,0,1,0,0-3H14a1.51,1.51,0,0,1-1.5-1.5V33.94a13.78,13.78,0,0,0,3.82.55,1.5,1.5,0,0,0,0-3,10.79,10.79,0,0,1-3.78-.69A1.51,1.51,0,0,1,14,29.62H17a1.5,1.5,0,0,0,1.5-1.5V22a1,1,0,0,1,1-1H31.75a1,1,0,0,1,.75.34l3.34,7.37a1.5,1.5,0,0,0,1.37.87h1.84a1.51,1.51,0,0,1,1.5,1.5v5.36a1.51,1.51,0,0,1-1.5,1.5h-.6a1.5,1.5,0,0,0,0,3h.6a4.51,4.51,0,0,0,4.5-4.5V31.12A4.51,4.51,0,0,0,39.05,26.62ZM22.49,4h2.38v8.72H22.49a4.36,4.36,0,1,1,0-8.72Z"/></svg>