<svg id="PICTOS_vectos" xmlns="http://www.w3.org/2000/svg" viewBox="0 0 46 46"><defs><style>.cls-1{fill:#25465f;}</style></defs><path class="cls-1" d="M32.46,11.81c-.87-.88-3.05-.13-4.87,1.67s-2.61,4-1.74,4.85,3.09.07,4.92-1.74S33.32,12.68,32.46,11.81Z"/><path class="cls-1" d="M42,10.94a3.72,3.72,0,0,1,0-5.28,3.59,3.59,0,0,1,1.14-.79,1.5,1.5,0,1,0-1.2-2.74,6.46,6.46,0,0,0-2.06,1.41,6.7,6.7,0,0,0-.16,9.35l0,0a3.73,3.73,0,0,1,0,5.29,3.83,3.83,0,0,1-4.15.75A9.34,9.34,0,0,0,34.43,7.17L30.78,3.52a1.51,1.51,0,0,0-2.12,0l-1.8,1.8L25.27,3.74a1.49,1.49,0,0,0-2.12,0,1.51,1.51,0,0,0,0,2.12l1.59,1.58-3,3L20.15,8.86a1.51,1.51,0,0,0-2.12,0A1.49,1.49,0,0,0,18,11l1.59,1.59-2,2a1.49,1.49,0,0,0,0,2.12l3.65,3.65a9.31,9.31,0,0,0,12.13.88A6.73,6.73,0,0,0,42,11ZM23.38,18.23l-2.59-2.59,8.93-8.93,2.59,2.58a6.34,6.34,0,0,1,0,8.94h0A6.31,6.31,0,0,1,23.38,18.23Z"/><path class="cls-1" d="M28.39,29.3l-3.65-3.65a9.32,9.32,0,0,0-12.13-.88,6.75,6.75,0,0,0-8.44.88A6.72,6.72,0,0,0,4,35l0,.05a3.72,3.72,0,0,1,0,5.28,3.59,3.59,0,0,1-1.14.79A1.5,1.5,0,0,0,3.5,44a1.41,1.41,0,0,0,.6-.13,6.46,6.46,0,0,0,2.06-1.41,6.65,6.65,0,0,0,2-4.76,6.68,6.68,0,0,0-1.82-4.59l0,0A3.73,3.73,0,0,1,10.45,27a9.31,9.31,0,0,0,1.12,11.82l3.65,3.65a1.5,1.5,0,0,0,2.12,0l1.8-1.8,1.59,1.58a1.49,1.49,0,0,0,1.06.44,1.53,1.53,0,0,0,1.06-.44,1.51,1.51,0,0,0,0-2.12l-1.59-1.58,3-3,1.59,1.59a1.49,1.49,0,0,0,1.06.44A1.51,1.51,0,0,0,28,37.14,1.49,1.49,0,0,0,28,35l-1.59-1.59,2-2A1.49,1.49,0,0,0,28.39,29.3Zm-12.11,10-2.59-2.59a6.32,6.32,0,0,1,8.93-8.94l2.59,2.59-2,2h0Z"/><path class="cls-1" d="M15.23,29.41c-1.82,1.8-2.55,3.91-1.69,4.78s3.05.13,4.87-1.67,2.61-4,1.74-4.85S17.06,27.6,15.23,29.41Z"/></svg>