<svg id="PICTOS_vectos" xmlns="http://www.w3.org/2000/svg" viewBox="0 0 46 46"><defs><style>.cls-1{fill:#25465f;}</style></defs><path class="cls-1" d="M31.83,19.79H26l1.43-9a1.5,1.5,0,0,0-2.63-1.19L13,23.75a1.5,1.5,0,0,0,1.15,2.46H20l-1.43,9a1.5,1.5,0,0,0,2.63,1.19L33,22.25a1.5,1.5,0,0,0-1.15-2.46ZM22.4,30.26,23.25,25a1.5,1.5,0,0,0-1.48-1.74H17.38l6.22-7.47-.86,5.31a1.54,1.54,0,0,0,.34,1.21,1.51,1.51,0,0,0,1.15.53h4.39Z"/><path class="cls-1" d="M23,6.31a1.5,1.5,0,0,0,1.5-1.5V2.5a1.5,1.5,0,0,0-3,0V4.81A1.5,1.5,0,0,0,23,6.31Z"/><path class="cls-1" d="M6.5,30.79,4.5,32A1.5,1.5,0,0,0,6,34.55l2-1.16a1.5,1.5,0,0,0-1.5-2.6Z"/><path class="cls-1" d="M23,39.69a1.5,1.5,0,0,0-1.5,1.5V43.5a1.5,1.5,0,0,0,3,0V41.19A1.5,1.5,0,0,0,23,39.69Z"/><path class="cls-1" d="M38.75,15.41a1.59,1.59,0,0,0,.75-.2l2-1.16a1.5,1.5,0,0,0-1.5-2.6l-2,1.16a1.5,1.5,0,0,0,.75,2.8Z"/><path class="cls-1" d="M40.67,30.65c-2.33-1.07-4.64-1-5.15.1s1,2.91,3.38,4,4.57,1,5.08-.13S43,31.71,40.67,30.65Z"/><path class="cls-1" d="M7.17,11.3c-2.33-1.06-4.64-1-5.15.11s1,2.91,3.38,4,4.56,1,5.07-.12S9.5,12.37,7.17,11.3Z"/></svg>