<?xml version="1.0" encoding="utf-8"?>
<!-- Generator: Adobe Illustrator 24.0.1, SVG Export Plug-In . SVG Version: 6.00 Build 0)  -->
<svg version="1.1" id="PICTOS_vectos" xmlns="http://www.w3.org/2000/svg" xmlns:xlink="http://www.w3.org/1999/xlink" x="0px"
	 y="0px" viewBox="0 0 46 46" style="enable-background:new 0 0 46 46;" xml:space="preserve">
<style type="text/css">
	.st0{fill:#25465F;}
</style>
<path class="st0" d="M14.6,21.1c-0.4,0.4-0.5,1.1-0.2,1.6c0.2,0.5,0.8,0.9,1.4,0.9h4.5l-1.1,7.1c-0.1,0.8,0.4,1.6,1.2,1.7
	c0.5,0.1,1.1-0.1,1.4-0.5l9.7-11.6c0.4-0.4,0.5-1.1,0.2-1.6c-0.2-0.5-0.8-0.9-1.4-0.9h-4.5l1.1-7.1C27,10,26.6,9.4,26,9.1
	c-0.6-0.3-1.3-0.1-1.8,0.4L14.6,21.1z M27.1,20.8l-4.1,5l0.5-3.4c0.1-0.8-0.4-1.6-1.2-1.7c-0.1,0-0.2,0-0.3,0h-3.1l4.1-5L22.5,19
	c-0.1,0.8,0.4,1.6,1.2,1.7c0.1,0,0.2,0,0.3,0H27.1z"/>
<path class="st0" d="M18.6,35.2c0,1.2,2.1,2.2,4.6,2.3s4.6-1,4.6-2.2s-2.1-2.2-4.7-2.2S18.6,34,18.6,35.2z"/>
<path class="st0" d="M35.1,4.7L37.8,4c0.8-0.2,1.3-1.1,1-1.9s-1.1-1.3-1.9-1l0,0l-6.1,1.6h-0.1h-0.1c-0.1,0-0.2,0.1-0.2,0.1h0
	c-0.1,0-0.1,0.1-0.2,0.1h-0.1c-0.1,0-0.1,0.1-0.1,0.1c0,0,0,0-0.1,0.1l-0.1,0.2c0,0,0,0.1-0.1,0.1l0,0.1c0,0,0,0,0,0.1
	c0,0,0,0.1,0,0.2c0,0,0,0.1,0,0.1c0,0.1,0,0.1,0,0.2c0,0,0,0.1,0,0.1c0,0.1,0,0.1,0,0.2c0,0,0,0.1,0,0.1c0,0,0,0,0,0.1l1.7,6.2
	c0.1,0.7,0.7,1.2,1.4,1.3c0.1,0,0.3,0,0.4,0c0.8-0.2,1.3-1,1.1-1.8c0,0,0,0,0,0l-0.8-2.8c8.7,5.9,10.9,17.7,5,26.4
	s-17.7,10.9-26.4,5s-10.9-17.7-5-26.4C10.7,7,16.7,3.9,23,4c0.8,0,1.5-0.7,1.5-1.5S23.8,1,23,1c-12.2,0-22,9.8-22.1,21.9
	c0,12.2,9.8,22,21.9,22.1c12.2,0,22-9.8,22.1-21.9C45,15.7,41.3,8.8,35.1,4.7z"/>
</svg>
