<?xml version="1.0" encoding="utf-8"?>
<!-- Generator: Adobe Illustrator 24.0.1, SVG Export Plug-In . SVG Version: 6.00 Build 0)  -->
<svg version="1.1" id="PICTOS_vectos" xmlns="http://www.w3.org/2000/svg" xmlns:xlink="http://www.w3.org/1999/xlink" x="0px"
	 y="0px" viewBox="0 0 46 46" style="enable-background:new 0 0 46 46;" xml:space="preserve">
<style type="text/css">
	.st0{fill:#25465F;}
</style>
<path class="st0" d="M41.2,6.9H4.6c-1,0-1.9,0.4-2.6,1H2c0,0-0.1,0.1-0.1,0.1c-0.7,0.7-1,1.6-1,2.6v24.9c0,1,0.4,1.9,1.1,2.6
	c0,0,0,0.1,0.1,0.1c0.2,0.2,0.4,0.3,0.6,0.4c0.6,0.3,1.2,0.5,1.9,0.5h36.6c0.6,0,1.1-0.1,1.6-0.4c0.3-0.1,0.6-0.2,0.8-0.5
	c0-0.1,0.1-0.1,0.1-0.2c0.7-0.7,1.1-1.6,1.1-2.6V10.6C44.9,8.5,43.3,6.9,41.2,6.9L41.2,6.9z M3.9,12.1l11.4,12L3.9,34.5V12.1z
	 M23,27.9l-4.2-4.5c0-0.1-0.1-0.1-0.1-0.2c-0.1-0.1-0.2-0.1-0.2-0.2L5.9,9.9H40L23,27.9z M17.4,26.4l4.5,4.7
	c0.3,0.3,0.7,0.5,1.1,0.5l0,0c0.4,0,0.8-0.2,1.1-0.5l4.3-4.5L39,36.2H6.6L17.4,26.4z M30.4,24.4l11.5-12.1v22.5L30.4,24.4z"/>
<path class="st0" d="M22.9,17.4c-2.6,0-4.6,1-4.6,2.2c0,1.2,2.1,2.3,4.7,2.3s4.6-1,4.6-2.2S25.5,17.4,22.9,17.4z"/>
</svg>
