<?xml version="1.0" encoding="utf-8"?>
<!-- Generator: Adobe Illustrator 24.0.1, SVG Export Plug-In . SVG Version: 6.00 Build 0)  -->
<svg version="1.1" id="PICTOS_vectos" xmlns="http://www.w3.org/2000/svg" xmlns:xlink="http://www.w3.org/1999/xlink" x="0px"
	 y="0px" viewBox="0 0 46 46" style="enable-background:new 0 0 46 46;" xml:space="preserve">
<style type="text/css">
	.st0{fill:#25465F;}
</style>
<path class="st0" d="M23.1,27.6c2.6,0,4.6-1,4.6-2.2s-2.1-2.2-4.6-2.3s-4.6,1-4.6,2.2S20.5,27.6,23.1,27.6z"/>
<path class="st0" d="M29.4,13.9h2.7v2.7c0,0.8,0.7,1.5,1.5,1.5s1.5-0.7,1.5-1.5v-2.7h2.7c0.8,0,1.5-0.7,1.5-1.5s-0.7-1.5-1.5-1.5
	h-2.7V8.2c0-0.8-0.7-1.5-1.5-1.5s-1.5,0.7-1.5,1.5v2.7h-2.7c-0.8,0-1.5,0.7-1.5,1.5S28.6,13.9,29.4,13.9z"/>
<path class="st0" d="M44.7,14.9l0.1-0.5c1.1-6.2-3.1-12.1-9.3-13.2s-12.1,3.1-13.2,9.3c-0.1,0.7-0.2,1.4-0.2,2.2H4.7
	c-1,0-1.9,0.4-2.6,1H2.1c0,0-0.1,0.1-0.1,0.1c-0.6,0.7-1,1.6-1,2.5v24.9c0,1,0.4,1.9,1.1,2.6c0,0,0,0.1,0.1,0.1
	c0.2,0.2,0.4,0.3,0.6,0.4C3.4,44.7,4,45,4.7,45h36.6c0.6,0,1.1-0.1,1.6-0.4c0.3-0.1,0.6-0.2,0.8-0.5c0-0.1,0.1-0.1,0.1-0.2
	c0.7-0.7,1.1-1.7,1.1-2.7V16.3C45,15.9,44.9,15.4,44.7,14.9z M42,40.5L30.5,30.2l6.5-6.9c1.1-0.4,2.1-0.9,3-1.5
	c0.7-0.5,1.3-1,1.9-1.6V40.5z M4,17.9L15.4,30L4,40.3V17.9z M17.5,32.1l4.5,4.7c0.3,0.3,0.7,0.5,1.1,0.5l0,0c0.4,0,0.8-0.2,1.1-0.5
	l4.3-4.5L39.2,42H6.7L17.5,32.1z M28.8,5.5c3.8-2.7,9.1-1.7,11.7,2.1c1.3,1.8,1.8,4.1,1.4,6.3c-0.8,4.6-5.2,7.6-9.7,6.8
	c-2.2-0.4-4.2-1.6-5.4-3.5C24,13.4,25,8.2,28.8,5.5z M24.2,18.9c1.7,2.5,4.4,4.2,7.4,4.7c0.3,0,0.6,0.1,0.9,0.1l-9.4,9.9l-4.2-4.5
	c0-0.1-0.1-0.1-0.1-0.2c-0.1-0.1-0.2-0.1-0.2-0.2L6,15.6h16.7C23,16.8,23.5,17.9,24.2,18.9z"/>
</svg>
