<svg id="PICTOS_vectos" xmlns="http://www.w3.org/2000/svg" viewBox="0 0 44 44"><defs><style>.cls-1{fill:#25465f;}</style></defs><path class="cls-1" d="M41.29,25.49c-1-.7-3,.51-4.51,2.62s-1.78,4.32-.77,5,3-.44,4.48-2.56S42.31,26.19,41.29,25.49Z"/><path class="cls-1" d="M31.89,31.92c7.26-8.14,3.2-14.59,0-17.77C24.4,6.64,6.71,2,3.28,5.44S4.48,26.55,12,34.06c1.87,1.87,4.87,4,8.68,4,2.67,0,5.74-1.07,9.1-4.07L35,39.27a1.51,1.51,0,0,0,2.13,0,1.51,1.51,0,0,0,0-2.12ZM15,32.74c-7.81-6.67-11-23.15-9.6-25.16a3.7,3.7,0,0,1,2-.35c5.05,0,17.63,3.33,23.25,9.91,3.42,4,3.14,8.17-.86,12.69a1.08,1.08,0,0,0-.11-.18l-.19-.18V18.92a1.5,1.5,0,0,0-3,0v7.55l-3.2-3.21V16.43a1.5,1.5,0,0,0-3,0v3.83L17,17.05V14a1.5,1.5,0,0,0-3,0v.1l-3-3a1.5,1.5,0,0,0-2.12,2.12l3,3h-.11a1.5,1.5,0,0,0,0,3H14.9l3.21,3.21H14.28a1.5,1.5,0,1,0,0,3h6.83l3.2,3.21H16.76a1.5,1.5,0,0,0,0,3H27.31l.18.18a1.4,1.4,0,0,0,.18.12C23.15,35.89,19,36.17,15,32.74Z"/></svg>