<?xml version="1.0" encoding="utf-8"?>
<!-- Generator: Adobe Illustrator 24.0.1, SVG Export Plug-In . SVG Version: 6.00 Build 0)  -->
<svg version="1.1" id="PICTOS_vectos" xmlns="http://www.w3.org/2000/svg" xmlns:xlink="http://www.w3.org/1999/xlink" x="0px"
	 y="0px" viewBox="0 0 46.1 46.1" style="enable-background:new 0 0 46.1 46.1;" xml:space="preserve">
<style type="text/css">
	.st0{fill:#25465F;}
</style>
<path class="st0" d="M17.4,10.9c0.8,0,1.5-0.7,1.5-1.5V8.5c0-0.8-0.7-1.5-1.5-1.5c-0.8,0-1.5,0.7-1.5,1.5v0.9
	C15.9,10.3,16.6,10.9,17.4,10.9z"/>
<path class="st0" d="M23,10.9c0.8,0,1.5-0.7,1.5-1.5V5.5C24.5,4.7,23.9,4,23,4s-1.5,0.7-1.5,1.5v3.9C21.5,10.3,22.2,10.9,23,10.9z"
	/>
<path class="st0" d="M28.7,10.9c0.8,0,1.5-0.7,1.5-1.5V8.5c0-0.8-0.7-1.5-1.5-1.5s-1.5,0.7-1.5,1.5v0.9
	C27.2,10.3,27.9,10.9,28.7,10.9z"/>
<path class="st0" d="M31.4,12H14.6c-0.8,0-1.5,0.7-1.5,1.5v19c0,0.8,0.7,1.5,1.5,1.5h16.7c0.8,0,1.5-0.7,1.5-1.5v-19
	C32.9,12.7,32.2,12,31.4,12z M29.9,31h-2.6v-2.5c0-0.8-0.7-1.5-1.5-1.5s-1.5,0.7-1.5,1.5V31h-2.6v-2.5c0-0.8-0.7-1.5-1.5-1.5
	s-1.5,0.7-1.5,1.5V31h-2.6V15h2.6v2.5c0,0.8,0.7,1.5,1.5,1.5s1.5-0.7,1.5-1.5V15h2.6v2.5c0,0.8,0.7,1.5,1.5,1.5s1.5-0.7,1.5-1.5V15
	h2.6V31z"/>
<path class="st0" d="M23,20.8c-2.6,0-4.6,1-4.7,2.2s2.1,2.2,4.7,2.2s4.6-1,4.6-2.2S25.6,20.8,23,20.8z"/>
<path class="st0" d="M28.7,35.1c-0.8,0-1.5,0.7-1.5,1.5v0.9c0,0.8,0.7,1.5,1.5,1.5s1.5-0.7,1.5-1.5v-0.9
	C30.2,35.7,29.5,35.1,28.7,35.1z"/>
<path class="st0" d="M23,35.1c-0.8,0-1.5,0.7-1.5,1.5v3.9c0,0.8,0.7,1.5,1.5,1.5s1.5-0.7,1.5-1.5v-3.9C24.5,35.7,23.9,35.1,23,35.1z
	"/>
<path class="st0" d="M17.4,35.1c-0.8,0-1.5,0.7-1.5,1.5v0.9c0,0.8,0.7,1.5,1.5,1.5c0.8,0,1.5-0.7,1.5-1.5v-0.9
	C18.9,35.7,18.2,35.1,17.4,35.1z"/>
<path class="st0" d="M35.6,18.9h0.9c0.8,0,1.5-0.7,1.5-1.5c0-0.8-0.7-1.5-1.5-1.5h-0.9c-0.8,0-1.5,0.7-1.5,1.5
	C34.1,18.2,34.8,18.9,35.6,18.9z"/>
<path class="st0" d="M39.5,21.5h-3.9c-0.8,0-1.5,0.7-1.5,1.5s0.7,1.5,1.5,1.5h3.9c0.8,0,1.5-0.7,1.5-1.5S40.4,21.5,39.5,21.5z"/>
<path class="st0" d="M36.5,27.1h-0.9c-0.8,0-1.5,0.7-1.5,1.5s0.7,1.5,1.5,1.5h0.9c0.8,0,1.5-0.7,1.5-1.5S37.4,27.1,36.5,27.1z"/>
<path class="st0" d="M10.5,27.1H9.5c-0.8,0-1.5,0.7-1.5,1.5s0.7,1.5,1.5,1.5h0.9c0.8,0,1.5-0.7,1.5-1.5S11.3,27.1,10.5,27.1z"/>
<path class="st0" d="M10.5,21.5H6.5C5.7,21.5,5,22.2,5,23s0.7,1.5,1.5,1.5h3.9c0.8,0,1.5-0.7,1.5-1.5S11.3,21.5,10.5,21.5z"/>
<path class="st0" d="M10.5,15.8H9.5c-0.8,0-1.5,0.7-1.5,1.5c0,0.8,0.7,1.5,1.5,1.5h0.9c0.8,0,1.5-0.7,1.5-1.5
	C12,16.5,11.3,15.8,10.5,15.8z"/>
</svg>
