<?xml version="1.0" encoding="utf-8"?>
<!-- Generator: Adobe Illustrator 24.0.1, SVG Export Plug-In . SVG Version: 6.00 Build 0)  -->
<svg version="1.1" id="PICTOS_vectos" xmlns="http://www.w3.org/2000/svg" xmlns:xlink="http://www.w3.org/1999/xlink" x="0px"
	 y="0px" viewBox="0 0 46 46" style="enable-background:new 0 0 46 46;" xml:space="preserve">
<style type="text/css">
	.st0{fill:#25465F;}
</style>
<path class="st0" d="M23.1,6.8c2.6,0,4.6-1,4.6-2.2S25.6,2.4,23,2.3s-4.6,1-4.7,2.2S20.5,6.8,23.1,6.8z"/>
<path class="st0" d="M45,28.2C45,28.2,45,28.1,45,28.2c0-0.1,0-0.1,0-0.2s0-0.1,0-0.2v-0.1c0,0,0,0,0-0.1L39,9.8l0,0
	c0-0.1-0.1-0.3-0.2-0.4l0,0c-0.1-0.1-0.2-0.2-0.3-0.3l0,0c-0.1-0.1-0.3-0.2-0.5-0.3H38c-0.1,0-0.3-0.1-0.4-0.1H8.5
	c-0.1,0-0.3,0-0.4,0H8C7.8,8.9,7.7,9,7.6,9l0,0C7.5,9.1,7.4,9.2,7.3,9.3l0,0C7.2,9.4,7.1,9.6,7.1,9.8l0,0l-6,17.9c0,0,0,0,0,0.1v0.1
	c0,0.1,0,0.1,0,0.2v0.2c0.2,4.1,3.6,7.3,7.7,7.2c3.9-0.1,7-3.3,7.2-7.2v-0.1c0,0,0-0.1,0-0.1c0-0.1,0-0.1,0-0.2c0,0,0-0.1,0-0.1
	c0,0,0,0,0-0.1l-5.3-15.9h11v28.9h-13c-0.8,0-1.5,0.7-1.5,1.5s0.7,1.5,1.5,1.5h28.9c0.8,0,1.5-0.7,1.5-1.5s-0.7-1.5-1.5-1.5h-13
	V11.8h11l-5.4,15.9c0,0,0,0.1,0,0.1c0,0,0,0.1,0,0.1c0,0.1-0.1,0.1-0.1,0.2c0,0,0,0.1,0,0.1v0.1l0,0c0,4.1,3.3,7.5,7.5,7.5
	S45,32.3,45,28.2L45,28.2z M41.4,26.6h-7.7L37.5,15L41.4,26.6z M8.5,15l3.9,11.6H4.6L8.5,15z M8.5,32.6c-1.9,0-3.6-1.2-4.2-3h8.4
	C12,31.4,10.3,32.6,8.5,32.6L8.5,32.6z M37.5,32.6c-1.9,0-3.6-1.2-4.2-3h8.4C41.1,31.4,39.4,32.6,37.5,32.6L37.5,32.6z"/>
</svg>
