<?xml version="1.0" encoding="utf-8"?>
<!-- Generator: Adobe Illustrator 24.0.1, SVG Export Plug-In . SVG Version: 6.00 Build 0)  -->
<svg version="1.1" id="PICTOS_vectos" xmlns="http://www.w3.org/2000/svg" xmlns:xlink="http://www.w3.org/1999/xlink" x="0px"
	 y="0px" viewBox="0 0 42.9 42.9" style="enable-background:new 0 0 42.9 42.9;" xml:space="preserve">
<style type="text/css">
	.st0{fill:#25465F;}
</style>
<path class="st0" d="M8.8,29c-2.6,0-4.6,1-4.6,2.2c0,1.2,2.1,2.2,4.6,2.3s4.6-1,4.7-2.2C13.5,30.1,11.4,29,8.8,29z"/>
<path class="st0" d="M10,22.8c-1.5,0.1-2.7-0.9-3-2.4h4v-2H6.7c0-0.2,0-0.4,0-0.6c0-0.2,0-0.4,0-0.6h4.2v-1.9H7
	c0.2-1.5,1.5-2.5,3-2.4c1.4-0.1,2.7,1,2.8,2.4l3.7-0.8c-0.7-3.3-3.1-5-6.4-5C6.6,9.3,3.5,11.8,3,15.2H1v1.9h1.7c0,0.2,0,0.4,0,0.6
	c0,0.2,0,0.4,0,0.6H1v2h1.9c0.7,3.8,3.2,5.8,7,5.8s6.1-1.7,6.9-5L13,20.3c-0.1,1.5-1.4,2.6-2.9,2.4C10.1,22.8,10,22.8,10,22.8z"/>
<path class="st0" d="M26.2,21.5c-1.1,0.1-2.1-0.7-2.2-1.8h2.9v-1.4h-3.1c0-0.2,0-0.3,0-0.5c0-0.2,0-0.3,0-0.5h3.1v-1.4H24
	c0.1-1.1,1.1-1.9,2.2-1.8c1.1,0,2,0.7,2.1,1.8l2.7-0.6c-0.4-2.3-2.5-3.9-4.8-3.7c-2.6-0.1-4.8,1.7-5.2,4.3h-1.4v1.4h1.3
	c0,0.2,0,0.3,0,0.5c0,0.2,0,0.3,0,0.5h-1.3v1.4H21c0.3,2.6,2.5,4.5,5.1,4.3c2.8,0,4.5-1.2,5.1-3.7l-2.8-0.6
	C28.3,20.8,27.3,21.6,26.2,21.5z"/>
<path class="st0" d="M40,19.1c-0.1,0.7-0.7,1.3-1.5,1.2c0,0,0,0,0,0c-0.8,0.1-1.4-0.5-1.6-1.2h2v-1h-2.1c0-0.1,0-0.2,0-0.3
	c0-0.1,0-0.2,0-0.3H39v-1h-2c0.1-0.7,0.8-1.2,1.5-1.2c0.7,0,1.4,0.5,1.4,1.2l1.9-0.4c-0.2-1.6-1.7-2.7-3.2-2.5
	c-1.8-0.1-3.3,1.2-3.5,2.9h-1v1h0.9c0,0.1,0,0.2,0,0.3s0,0.2,0,0.3H34v1h1c0.2,1.8,1.7,3,3.5,2.9c1.6,0.2,3.2-0.9,3.5-2.5L40,19.1z"
	/>
</svg>
