<?xml version="1.0" encoding="utf-8"?>
<!-- Generator: Adobe Illustrator 24.0.1, SVG Export Plug-In . SVG Version: 6.00 Build 0)  -->
<svg version="1.1" id="PICTOS_vectos" xmlns="http://www.w3.org/2000/svg" xmlns:xlink="http://www.w3.org/1999/xlink" x="0px"
	 y="0px" viewBox="0 0 46.1 46.1" style="enable-background:new 0 0 46.1 46.1;" xml:space="preserve">
<style type="text/css">
	.st0{fill:#25465F;}
</style>
<path class="st0" d="M5.6,40.7c-2.6,0-4.6,1-4.6,2.2s2.1,2.2,4.6,2.3s4.7-1,4.7-2.2S8.1,40.7,5.6,40.7z"/>
<path class="st0" d="M22.9,11.5c0,0.1,0,0.1,0.1,0.2H23c0,0,0.1,0,0.1,0l1.2-0.7l1.2,0.6c0.1,0,0.2,0,0.3-0.1c0,0,0-0.1,0-0.1
	L25.6,10l0.9-1c0-0.1,0-0.1,0-0.2c0-0.1-0.1-0.1-0.2-0.1L25,8.5l-0.7-1.2c0-0.1-0.1-0.1-0.2-0.1c-0.1,0-0.1,0.1-0.2,0.1l-0.5,1.3
	l-1.4,0.3C22,8.9,22,8.9,22,9c0,0.1,0,0.1,0.1,0.2l1,0.9L22.9,11.5z"/>
<path class="st0" d="M17.9,14l1.2-0.7l1.3,0.6c0.1,0,0.1,0,0.2,0l0,0c0,0,0-0.1,0-0.1l-0.3-1.4l0.9-1c0-0.1,0-0.1,0-0.2
	c0-0.1-0.1-0.1-0.1-0.1l-1.4-0.1L19,9.6c0-0.1-0.1-0.1-0.2-0.1c-0.1,0-0.1,0.1-0.2,0.1L18.2,11l-1.4,0.3c-0.1,0-0.1,0.1-0.1,0.1
	c0,0.1,0,0.1,0.1,0.2l1,0.9l-0.1,1.4c0,0.1,0,0.1,0.1,0.2C17.8,14.1,17.9,14.1,17.9,14z"/>
<path class="st0" d="M18.3,19.1c0.1,0,0.1,0,0.2,0l0,0c0,0,0-0.1,0-0.1l-0.4-1.3l0.9-1.1c0-0.1,0-0.1,0-0.2c0-0.1-0.1-0.1-0.2-0.1
	l-1.4,0L16.8,15c0-0.1-0.1-0.1-0.2-0.1c-0.1,0-0.1,0.1-0.2,0.1l-0.5,1.3l-1.3,0.4c-0.1,0-0.1,0.1-0.1,0.1c0,0.1,0,0.1,0.1,0.2
	l1.1,0.9l-0.1,1.4c0,0.1,0,0.1,0.1,0.2c0.1,0,0.1,0,0.2,0l1.2-0.8L18.3,19.1z"/>
<path class="st0" d="M21.3,21.7l-1.4-0.2l-0.6-1.2c0-0.1-0.1-0.1-0.2-0.1c-0.1,0-0.1,0-0.2,0.1l-0.6,1.2L17,21.7
	c-0.1,0-0.1,0.1-0.2,0.1c0,0.1,0,0.1,0,0.2l1,1l-0.2,1.4c0,0.1,0,0.1,0.1,0.2c0.1,0,0.1,0,0.2,0l1.2-0.6l1.2,0.7c0.1,0,0.1,0,0.2,0
	c0.1,0,0.1-0.1,0.1-0.2L20.4,23l1-1c0.1,0,0.1-0.1,0-0.2c0,0,0,0,0,0C21.4,21.7,21.3,21.7,21.3,21.7z"/>
<path class="st0" d="M23.3,25.6l-0.1,1.4c0,0.1,0,0.1,0.1,0.2h0c0,0,0.1,0,0.1,0l1.2-0.7l1.2,0.6c0.1,0,0.1,0,0.2,0
	c0.1,0,0.1-0.1,0.1-0.2l-0.3-1.3l0.9-1c0-0.1,0-0.1,0-0.2c0-0.1-0.1-0.1-0.2-0.1L25.3,24l-0.7-1.2c0-0.1-0.1-0.1-0.2-0.1
	c-0.1,0-0.1,0.1-0.2,0.1l-0.5,1.3l-1.4,0.3c-0.1,0-0.1,0.1-0.1,0.1c0,0.1,0,0.1,0.1,0.2L23.3,25.6z"/>
<path class="st0" d="M31.9,21.5l-1.4-0.1l-0.7-1.2c0-0.1-0.1-0.1-0.2-0.1h-0.1c0,0-0.1,0.1-0.1,0.1L29,21.4l-1.4,0.2
	c-0.1,0-0.1,0.1-0.1,0.1c0,0.1,0,0.1,0.1,0.2l1,0.9l-0.2,1.4c0,0.1,0,0.1,0.1,0.2c0.1,0,0.1,0,0.2,0l1.2-0.7l1.2,0.6
	c0.1,0,0.1,0,0.2,0c0.1,0,0.1-0.1,0.1-0.2l-0.3-1.4l0.9-1c0-0.1,0-0.1,0-0.2C32,21.6,32,21.5,31.9,21.5z"/>
<path class="st0" d="M34.1,16.2L32.7,16l-0.6-1.2c0-0.1-0.2-0.1-0.3-0.1c0,0-0.1,0-0.1,0.1L31.2,16l-1.4,0.2c-0.1,0-0.1,0.1-0.2,0.1
	c0,0,0,0,0,0.1c0,0,0,0.1,0.1,0.1l1,1l-0.2,1.4c0,0.1,0,0.1,0.1,0.2c0.1,0,0.1,0,0.2,0l1.2-0.6l1.2,0.6c0.1,0,0.1,0,0.2,0
	c0.1,0,0.1-0.1,0.1-0.2l-0.2-1.4l1-1c0-0.1,0.1-0.1,0-0.2C34.3,16.3,34.2,16.2,34.1,16.2z"/>
<path class="st0" d="M28.5,12.3l-0.2,1.4c0,0.1,0,0.1,0.1,0.2c0.1,0,0.1,0,0.2,0l1.2-0.7l1.3,0.6c0.1,0,0.1,0,0.2,0
	c0.1,0,0.1-0.1,0.1-0.2L31,12.2l1-1c0-0.1,0-0.1,0-0.2c0-0.1-0.1-0.1-0.2-0.1l-1.4-0.1l-0.7-1.2c0-0.1-0.1-0.1-0.2-0.1
	c-0.1,0-0.1,0-0.2,0.1l-0.6,1.3L27.5,11c-0.1,0-0.1,0.1-0.1,0.1c0,0,0,0,0,0.1c0,0.1,0,0.1,0.1,0.1L28.5,12.3z"/>
<path class="st0" d="M44.2,3.4c-0.4-0.3-1-0.3-1.5-0.1C36,6.7,30.5,5,24.8,3.2c-6-1.9-12.3-3.9-20.1,0.1C4.2,3.6,3.9,4.1,3.9,4.6
	v32.3c0,0.8,0.7,1.5,1.5,1.5s1.5-0.7,1.5-1.5v-6.3c6.4-2.9,11.6-1.2,17,0.5c3.5,1.1,7,2.2,10.9,2.2c3.3,0,6.5-0.8,9.3-2.3
	c0.5-0.3,0.8-0.8,0.8-1.3v-25C44.9,4.1,44.7,3.6,44.2,3.4z M41.9,28.7c-6.4,2.9-11.6,1.2-17.1-0.5c-3.5-1.1-7-2.2-10.9-2.2
	c-2.4,0-4.8,0.5-7.1,1.3V5.6c6.4-2.9,11.6-1.2,17,0.5s11.2,3.5,18,0.9L41.9,28.7z"/>
</svg>
