<?xml version="1.0" encoding="utf-8"?>
<!-- Generator: Adobe Illustrator 24.0.1, SVG Export Plug-In . SVG Version: 6.00 Build 0)  -->
<svg version="1.1" id="PICTOS_vectos" xmlns="http://www.w3.org/2000/svg" xmlns:xlink="http://www.w3.org/1999/xlink" x="0px"
	 y="0px" viewBox="0 0 45.8 45.8" style="enable-background:new 0 0 45.8 45.8;" xml:space="preserve">
<style type="text/css">
	.st0{fill:#25465F;}
</style>
<rect x="20.9" y="9" class="st0" width="3.7" height="14.9"/>
<path class="st0" d="M24.6,31.6c1.5-2.1,1.8-4.4,0.8-5.1s-3,0.5-4.5,2.6s-1.8,4.3-0.8,5S23.1,33.7,24.6,31.6z"/>
<path class="st0" d="M40.9,8.8c-0.4-0.6-0.9-1.2-1.4-1.7C39,6.5,38,6.4,37.4,7c-0.6,0.6-0.7,1.5-0.1,2.1l0,0c0.4,0.5,0.8,1,1.2,1.5
	c6.2,8.4,4.3,20.3-4.1,26.5S14,41.4,7.9,33c-0.2-0.2-0.3-0.4-0.5-0.6C2,24.6,3.1,14.1,9.9,7.7v2.5c0,0.8,0.7,1.5,1.5,1.5
	s1.5-0.7,1.5-1.5V4.5c0-0.8-0.7-1.5-1.5-1.5H5.8C4.9,3,4.3,3.7,4.3,4.5S4.9,6,5.8,6h1.5c-7.4,7.6-8.4,19.3-2.4,28
	c6.9,9.9,20.6,12.3,30.5,5.4c0,0,0,0,0,0C45.4,32.4,47.8,18.8,40.9,8.8z"/>
</svg>
