<?xml version="1.0" encoding="utf-8"?>
<!-- Generator: Adobe Illustrator 24.0.1, SVG Export Plug-In . SVG Version: 6.00 Build 0)  -->
<svg version="1.1" id="PICTOS_vectos" xmlns="http://www.w3.org/2000/svg" xmlns:xlink="http://www.w3.org/1999/xlink" x="0px"
	 y="0px" viewBox="0 0 46.1 46.1" style="enable-background:new 0 0 46.1 46.1;" xml:space="preserve">
<style type="text/css">
	.st0{fill:#25465F;}
</style>
<path class="st0" d="M44.2,34.6l-16.7-29l0,0C26.5,4,24.8,3,22.9,3c-1.9,0-3.6,1-4.5,2.6L1.7,34.7c-0.9,1.6-0.9,3.5,0,5.1
	c0,0,0,0.1,0,0.1c1,1.6,2.7,2.5,4.5,2.5h33.5c2.8,0,5.2-2.3,5.2-5.1C44.9,36.3,44.7,35.4,44.2,34.6z M41.6,38.4
	c-0.4,0.7-1.1,1-1.8,1H6.2c-0.8,0-1.5-0.4-1.9-1c-0.4-0.7-0.4-1.5,0-2.2l16.8-29C21.4,6.4,22.2,6,22.9,6c0.8,0,1.5,0.4,1.9,1.1
	l16.7,29C42.1,36.8,42,37.7,41.6,38.4z"/>
<rect x="21.1" y="11.6" class="st0" width="3.7" height="14.9"/>
<path class="st0" d="M21.1,31.7c-1.5,2.1-1.8,4.3-0.8,5s3-0.4,4.5-2.5s1.8-4.4,0.8-5.1S22.6,29.6,21.1,31.7z"/>
</svg>
