<?xml version="1.0" encoding="utf-8"?>
<!-- Generator: Adobe Illustrator 24.0.1, SVG Export Plug-In . SVG Version: 6.00 Build 0)  -->
<svg version="1.1" id="PICTOS_vectos" xmlns="http://www.w3.org/2000/svg" xmlns:xlink="http://www.w3.org/1999/xlink" x="0px"
	 y="0px" viewBox="0 0 46.1 46.1" style="enable-background:new 0 0 46.1 46.1;" xml:space="preserve">
<style type="text/css">
	.st0{fill:#25465F;}
</style>
<path class="st0" d="M22.5,15.6c-2.6,0-4.6,1-4.6,2.2c0,1.2,2,2.2,4.6,2.2s4.7-1,4.7-2.2S25,15.5,22.5,15.6z"/>
<path class="st0" d="M44.1,15c-0.1-0.8-0.8-1.4-1.7-1.3c0,0,0,0,0,0c-2.6,0.4-5.1,1.2-7.5,2.4c-2.4-2.3-8-6.2-12.4-6.2
	s-10,3.9-12.4,6.2c-2.4-1.2-4.9-2-7.5-2.4C1.8,13.6,1,14.2,0.9,15c-0.1,0.8,0.5,1.6,1.3,1.7c2.3,0.4,4.6,1.1,6.7,2.2l0.9,6.2l-4,0.4
	c-0.8,0-1.5,0.7-1.4,1.6c0,0.8,0.7,1.5,1.6,1.4l0,0h0.1l4.7-0.4l0.2,0.3c1.5,2.3,4.6,7,11.4,7s9.9-4.7,11.4-7L34,28
	c0.1,0,0.2,0.1,0.3,0.1l4.7,0.4h0.1c0.8,0,1.5-0.6,1.6-1.4c0-0.8-0.6-1.5-1.4-1.6l-4.3-0.4l1.1-6.2c2.1-1.1,4.4-1.8,6.8-2.2
	C43.6,16.6,44.2,15.8,44.1,15C44.1,15,44.1,15,44.1,15z M31.2,26.6c-1.5,2.2-3.7,5.7-8.9,5.7s-7.4-3.4-8.9-5.7
	c-0.2-0.2-0.3-0.5-0.4-0.7l-1-7.2l0,0c0.1-0.1,0.1-0.3,0.1-0.4c1.9-1.9,7-5.4,10.4-5.4s8.4,3.6,10.4,5.4c0,0.1,0.1,0.3,0.1,0.4
	l-1.4,7.3C31.5,26.1,31.4,26.4,31.2,26.6z"/>
</svg>
