<?xml version="1.0" encoding="utf-8"?>
<!-- Generator: Adobe Illustrator 24.0.1, SVG Export Plug-In . SVG Version: 6.00 Build 0)  -->
<svg version="1.1" id="PICTOS_vectos" xmlns="http://www.w3.org/2000/svg" xmlns:xlink="http://www.w3.org/1999/xlink" x="0px"
	 y="0px" viewBox="0 0 46.1 46.1" style="enable-background:new 0 0 46.1 46.1;" xml:space="preserve">
<style type="text/css">
	.st0{fill:#25465F;}
</style>
<path class="st0" d="M43.3,37.7c-3-8-6.9-13.9-11.6-17.3c1.9-2.1,3-4.9,3-7.8c0-0.2,0-0.4,0-0.6c0.1-0.2,0.1-0.4,0-0.6
	C34.1,5,28.3,0.4,21.9,1.1C16.4,1.6,12,6,11.4,11.5c-0.1,0.2-0.1,0.4,0,0.6c0,0.2,0,0.4,0,0.6c0,2.9,1.1,5.6,3,7.8
	c-4.7,3.3-8.7,9.3-11.7,17.3c-0.2,0.4-0.1,0.9,0.1,1.3c0.3,0.6,3.7,6,20.2,6s19.9-5.4,20.2-6C43.5,38.6,43.5,38.2,43.3,37.7z
	 M28.8,19.2l0.5-3.4l2.3-1.5C31.3,16.2,30.3,17.9,28.8,19.2z M27.7,15.6c0,0.1,0,0.1,0.1,0.2l-0.6,4.7c-2.6,1.4-5.8,1.4-8.4-0.1
	l-0.5-4.5c0-0.1,0.1-0.1,0.1-0.2C19,14.8,20.8,13,23,13S27.1,14.8,27.7,15.6z M16.7,15.8l0.4,3.3c-1.4-1.3-2.3-2.9-2.6-4.8
	L16.7,15.8z M23,4c4.7,0,8.5,3.7,8.7,8.4l-3,2c-0.9-1-3-2.8-5.6-2.8s-4.7,1.9-5.6,2.8l-3-2C14.5,7.7,18.4,4,23,4z M23,42
	c-11.9,0-16-2.9-17.2-4c2.9-7.3,6.7-12.7,10.8-15.5c3.9,2.6,8.9,2.6,12.8,0c4.2,2.8,8,8.2,10.8,15.5C39,39.1,34.9,42,23,42L23,42z"
	/>
<path class="st0" d="M23,29.9c-2.6,0-4.6,1-4.7,2.2s2.1,2.2,4.7,2.2s4.6-1,4.6-2.2C27.7,31,25.6,29.9,23,29.9z"/>
</svg>
