<?xml version="1.0" encoding="utf-8"?>
<!-- Generator: Adobe Illustrator 24.0.1, SVG Export Plug-In . SVG Version: 6.00 Build 0)  -->
<svg version="1.1" id="PICTOS_vectos" xmlns="http://www.w3.org/2000/svg" xmlns:xlink="http://www.w3.org/1999/xlink" x="0px"
	 y="0px" viewBox="0 0 46.1 46.1" style="enable-background:new 0 0 46.1 46.1;" xml:space="preserve">
<style type="text/css">
	.st0{fill:#25465F;}
</style>
<path class="st0" d="M37.1,1H15.9c-0.9,0-1.8,0.4-2.3,1.1L6.3,10c-0.5,0.6-0.7,1.3-0.7,2v30c0,1.7,1.4,3,3.1,3h28.4
	c1.7,0,3.1-1.4,3.1-3.1v0V4.1C40.2,2.4,38.8,1,37.1,1L37.1,1z M14.6,5.5v5.3H9.8L14.6,5.5z M37.2,42C37.2,42,37.1,42,37.2,42
	L37.2,42L8.7,42c0,0-0.1,0-0.1-0.1l0,0V13.7h7.4c0.8,0,1.5-0.7,1.5-1.5V4h19.5c0,0,0.1,0,0.1,0.1c0,0,0,0,0,0V42z"/>
<path class="st0" d="M22.9,33.7c-2.6,0-4.6,1-4.6,2.2s2.1,2.2,4.7,2.2s4.6-1,4.6-2.2S25.5,33.7,22.9,33.7z"/>
<path class="st0" d="M15.6,19.6h-3.7V28h1.8v-3h1.9c1.4,0.2,2.7-0.9,2.8-2.3c0-0.2,0-0.3,0-0.5c0.1-1.4-1-2.6-2.5-2.7
	C15.9,19.6,15.8,19.6,15.6,19.6z M15.6,23.6h-1.9v-2.5h1.9c0.7,0,1.1,0.5,1.1,1.2S16.3,23.6,15.6,23.6L15.6,23.6z"/>
<path class="st0" d="M26.8,23.9c0-2.9-1.4-4.2-3.8-4.2h-3.3V28H23C25.4,28,26.8,26.7,26.8,23.9z M21.5,26.5v-5.3H23
	c1.3,0,2,0.8,2,2.6s-0.7,2.6-2,2.6H21.5z"/>
<polygon class="st0" points="28.3,28.1 30.1,28.1 30.1,24.6 33.7,24.6 33.7,23.1 30.1,23.1 30.1,21.2 33.9,21.2 33.9,19.6 
	28.3,19.6 "/>
</svg>
