<?xml version="1.0" encoding="utf-8"?>
<!-- Generator: Adobe Illustrator 23.0.2, SVG Export Plug-In . SVG Version: 6.00 Build 0)  -->
<svg version="1.1" id="Calque_1" xmlns="http://www.w3.org/2000/svg" xmlns:xlink="http://www.w3.org/1999/xlink" x="0px" y="0px"
	 viewBox="0 0 660 660" style="enable-background:new 0 0 660 660;" xml:space="preserve">
<style type="text/css">
	.st0{fill-rule:evenodd;clip-rule:evenodd;fill:#009DCC;}
	.st1{fill-rule:evenodd;clip-rule:evenodd;fill:#00C099;}
	.st2{fill-rule:evenodd;clip-rule:evenodd;fill:#FFFFFF;}
</style>
<g>
	<path class="st0" d="M331.8,513c3.4,10.7,8.2,20.7,14.2,30H130.5c-16.6,0-30-13.4-30-30V191.9c0-8.1,3.2-15.8,9-21.4l80.4-78.9
		c5.6-5.5,13.1-8.6,21-8.6h219.6c16.6,0,30,13.4,30,30v230.1c-1.7-0.1-3.3-0.1-5-0.1c-8.6,0-16.9,0.8-25,2.4V113h-210v65
		c0,13.8-11.2,25-25,25h-65v310H331.8z M356.4,388.9c-11,12.9-19.4,27.9-24.7,44.4c-10,3.1-20.4,4.7-31.2,4.7
		c-43.7,0-81.3-26.9-97.1-65h-32.9v-30H196c-0.3-3.3-0.5-6.6-0.5-10s0.2-6.7,0.5-10h-25.5v-30h32.9c15.8-38.1,53.3-65,97.1-65
		c28,0,54.4,10.9,74.2,30.8L353.5,280c-14.2-14.2-33-22-53-22c-26.7,0-50.1,14-63.4,35h73.4v30h-84.3c-0.4,3.3-0.7,6.6-0.7,10
		s0.2,6.7,0.7,10h84.3v30h-73.4c13.3,21,36.8,35,63.4,35c20,0,38.9-7.8,53-22L356.4,388.9z M149.8,173h40.7v-40L149.8,173z"/>
	<g transform="translate(37.5 36)">
		<circle class="st1" cx="418" cy="437" r="104"/>
		<path class="st2" d="M458.8,389.7c4.8-5.5,13.5-6.3,19.3-1.7s6.6,12.8,1.8,18.3l-68.4,78c-5.5,6.2-15.6,6.2-21,0l-34.2-38.9
			c-4.8-5.5-4-13.7,1.8-18.3s14.4-3.8,19.3,1.7l23.7,26.9L458.8,389.7z"/>
	</g>
</g>
</svg>
