<?xml version="1.0" encoding="utf-8"?>
<!-- Generator: Adobe Illustrator 24.0.1, SVG Export Plug-In . SVG Version: 6.00 Build 0)  -->
<svg version="1.1" id="PICTOS_vectos" xmlns="http://www.w3.org/2000/svg" xmlns:xlink="http://www.w3.org/1999/xlink" x="0px"
	 y="0px" viewBox="0 0 46.1 46.1" style="enable-background:new 0 0 46.1 46.1;" xml:space="preserve">
<style type="text/css">
	.st0{fill:#25465F;}
</style>
<path class="st0" d="M15.3,12.5c2.6,0,4.6-1,4.6-2.2c0-1.2-2.1-2.2-4.6-2.2s-4.7,1-4.7,2.2C10.6,11.5,12.7,12.5,15.3,12.5z"/>
<path class="st0" d="M35.8,1H8.7C6.6,1,5,2.6,5,4.6v36.7c0,2,1.6,3.6,3.7,3.6h27.2c2,0,3.6-1.6,3.7-3.7V4.6C39.5,2.6,37.8,1,35.8,1z
	 M36.5,41.4c0,0.4-0.3,0.7-0.6,0.7c0,0,0,0,0,0H8.7C8.3,42,8,41.7,8,41.4l0,0V4.6C8,4.3,8.3,4,8.7,4c0,0,0,0,0,0h27.2
	c0.4,0,0.7,0.3,0.7,0.6c0,0,0,0,0,0V41.4z"/>
<path class="st0" d="M15.1,17.1h-2.9c-0.8,0-1.5,0.7-1.5,1.5s0.7,1.5,1.5,1.5h2.9c0.8,0,1.5-0.7,1.5-1.5S15.9,17.1,15.1,17.1z"/>
<path class="st0" d="M32.2,17.1H20.3c-0.8,0-1.5,0.7-1.5,1.5s0.7,1.5,1.5,1.5h11.8c0.8,0,1.5-0.7,1.5-1.5S33,17.1,32.2,17.1z"/>
<path class="st0" d="M15.1,22.5h-2.9c-0.8,0-1.5,0.7-1.5,1.5s0.7,1.5,1.5,1.5h2.9c0.8,0,1.5-0.7,1.5-1.5S15.9,22.5,15.1,22.5z"/>
<path class="st0" d="M32.2,22.5H20.3c-0.8,0-1.5,0.7-1.5,1.5s0.7,1.5,1.5,1.5h11.8c0.8,0,1.5-0.7,1.5-1.5S33,22.5,32.2,22.5z"/>
<path class="st0" d="M15.1,28.2h-2.9c-0.8,0-1.5,0.7-1.5,1.5s0.7,1.5,1.5,1.5h2.9c0.8,0,1.5-0.7,1.5-1.5S15.9,28.2,15.1,28.2z"/>
<path class="st0" d="M32.2,28.2H20.3c-0.8,0-1.5,0.7-1.5,1.5s0.7,1.5,1.5,1.5h11.8c0.8,0,1.5-0.7,1.5-1.5S33,28.2,32.2,28.2z"/>
<path class="st0" d="M15.1,33.6h-2.9c-0.8,0-1.5,0.7-1.5,1.5s0.7,1.5,1.5,1.5h2.9c0.8,0,1.5-0.7,1.5-1.5S15.9,33.6,15.1,33.6z"/>
<path class="st0" d="M32.2,33.6H20.3c-0.8,0-1.5,0.7-1.5,1.5s0.7,1.5,1.5,1.5h11.8c0.8,0,1.5-0.7,1.5-1.5S33,33.6,32.2,33.6z"/>
</svg>
