<?xml version="1.0" encoding="utf-8"?>
<!-- Generator: Adobe Illustrator 24.0.1, SVG Export Plug-In . SVG Version: 6.00 Build 0)  -->
<svg version="1.1" id="PICTOS_vectos" xmlns="http://www.w3.org/2000/svg" xmlns:xlink="http://www.w3.org/1999/xlink" x="0px"
	 y="0px" viewBox="0 0 46.1 46.1" style="enable-background:new 0 0 46.1 46.1;" xml:space="preserve">
<style type="text/css">
	.st0{fill:#25465F;}
</style>
<path class="st0" d="M37.2,1H16c-0.9,0-1.8,0.4-2.3,1.1L6.4,10c-0.4,0.6-0.7,1.3-0.7,2v30c0,1.7,1.4,3,3.1,3h28.4
	c1.7,0,3.1-1.4,3.1-3.1v0V4.1C40.3,2.4,38.9,1,37.2,1L37.2,1z M14.8,5.5v5.3H9.9L14.8,5.5z M37.3,42C37.3,42,37.3,42,37.3,42
	L37.3,42L8.9,42c0,0-0.1,0-0.1-0.1l0,0V13.7h7.4c0.8,0,1.5-0.7,1.5-1.5V4h19.5c0,0,0.1,0,0.1,0.1c0,0,0,0,0,0V42z"/>
<path class="st0" d="M23.1,33.7c-2.6,0-4.6,1-4.6,2.2s2.1,2.2,4.7,2.2s4.6-1,4.6-2.2S25.6,33.7,23.1,33.7z"/>
<path class="st0" d="M23.2,25.6c-1.2,0.1-2.2-0.7-2.4-1.9h3.1v-1.5h-3.3c0-0.2,0-0.3,0-0.5c0-0.2,0-0.3,0-0.5h3.3v-1.5h-3.1
	c0.2-1.1,1.2-2,2.3-1.9c1.1-0.1,2.1,0.8,2.2,1.9l2.9-0.6c-0.4-2.4-2.6-4.1-5-3.9c-2.7-0.1-5.1,1.8-5.5,4.5h-1.5v1.5h1.3
	c0,0.2,0,0.3,0,0.5c0,0.2,0,0.3,0,0.5h-1.3v1.5h1.5c0.3,2.7,2.7,4.7,5.4,4.5c3,0,4.7-1.3,5.3-3.9l-2.9-0.6c-0.1,1.1-1.1,2-2.2,1.9
	C23.3,25.7,23.3,25.7,23.2,25.6z"/>
</svg>
