<?xml version="1.0" encoding="utf-8"?>
<!-- Generator: Adobe Illustrator 24.0.1, SVG Export Plug-In . SVG Version: 6.00 Build 0)  -->
<svg version="1.1" id="PICTOS_vectos" xmlns="http://www.w3.org/2000/svg" xmlns:xlink="http://www.w3.org/1999/xlink" x="0px"
	 y="0px" viewBox="0 0 46.1 46.1" style="enable-background:new 0 0 46.1 46.1;" xml:space="preserve">
<style type="text/css">
	.st0{fill:#25465F;}
</style>
<path class="st0" d="M34.8,16.9c-2.6,0-4.6,1-4.7,2.2s2.1,2.2,4.7,2.2s4.6-1,4.6-2.2S37.3,16.9,34.8,16.9z"/>
<path class="st0" d="M16.8,34.6c-2.6,0-4.6,1-4.7,2.2s2.1,2.2,4.7,2.2s4.6-1,4.6-2.2S19.3,34.6,16.8,34.6z"/>
<path class="st0" d="M17,27.5c-1.1,0.1-2-0.6-2.2-1.7h2.8v-1.4h-2.9c0-0.1,0-0.3,0-0.4c0-0.1,0-0.3,0-0.5h2.9v-1.3h-2.8
	c0.1-1,1.1-1.8,2.1-1.7c1-0.1,1.9,0.7,2,1.7l2.6-0.5c-0.4-2.2-2.4-3.8-4.6-3.5c-2.4-0.1-4.6,1.7-4.9,4.1h-1.3v1.4h1.2
	c0,0.1,0,0.3,0,0.5c0,0.1,0,0.3,0,0.4h-1.2v1.4h1.4c0.3,2.5,2.4,4.3,4.9,4.1c2.7,0,4.2-1.2,4.8-3.5l-2.6-0.6
	C19,26.8,18.1,27.6,17,27.5C17.1,27.5,17.1,27.5,17,27.5z"/>
<path class="st0" d="M41.5,11.3V6.5c0-3-2.5-5.5-5.5-5.5h-2.6c-2.5,0-4.7,1.7-5.3,4.1H10.4c-0.9,0-1.7,0.4-2.2,1l-6.6,7.2
	C1.2,13.8,1,14.5,1,15.1v0.2c0,0.1,0,0.1,0,0.2c0,0.1,0,0.1,0,0.2v26.5c0,1.6,1.3,2.9,2.9,2.9c0,0,0,0,0,0h25.6
	c1.6,0,2.9-1.3,2.9-2.9V26.8h8.8c2,0,3.7-1.7,3.7-3.7c0,0,0,0,0,0V15C45,13.1,43.5,11.5,41.5,11.3z M33.4,4H36
	c1.4,0,2.5,1.1,2.5,2.5v4.8h-7.6V6.5C30.9,5.1,32,4,33.4,4z M9,9.6V14H5.1L9,9.6z M29.5,42.1H4V17h6.5c0.8,0,1.5-0.7,1.5-1.5V8.1
	h15.9v3.2c-1.9,0.1-3.4,1.7-3.4,3.7v8.1c0,2,1.7,3.7,3.7,3.7c0,0,0,0,0,0h1.3V42.1z M42,23.1c0,0.4-0.3,0.7-0.7,0.7l0,0H28.2
	c-0.4,0-0.7-0.3-0.7-0.7V15c0-0.4,0.3-0.7,0.7-0.7l0,0h13.1c0.4,0,0.7,0.3,0.7,0.7c0,0,0,0,0,0V23.1z"/>
</svg>
