<?xml version="1.0" encoding="utf-8"?>
<!-- Generator: Adobe Illustrator 24.0.1, SVG Export Plug-In . SVG Version: 6.00 Build 0)  -->
<svg version="1.1" id="PICTOS_vectos" xmlns="http://www.w3.org/2000/svg" xmlns:xlink="http://www.w3.org/1999/xlink" x="0px"
	 y="0px" viewBox="0 0 46.1 46.1" style="enable-background:new 0 0 46.1 46.1;" xml:space="preserve">
<style type="text/css">
	.st0{fill:#25465F;}
</style>
<path class="st0" d="M16.8,34.5c-2.6,0-4.6,1-4.7,2.2s2.1,2.3,4.7,2.3s4.6-1,4.6-2.2S19.3,34.6,16.8,34.5z"/>
<path class="st0" d="M17,27.4c-1.1,0.1-2-0.6-2.2-1.7h2.8v-1.4h-2.9c0-0.1,0-0.3,0-0.4c0-0.1,0-0.3,0-0.5h2.9v-1.4h-2.8
	c0.1-1,1.1-1.8,2.1-1.7c1-0.1,1.9,0.7,2,1.7l2.6-0.6c-0.4-2.2-2.4-3.8-4.6-3.5c-2.4-0.1-4.6,1.7-4.9,4.1h-1.3v1.4h1.2
	c0,0.1,0,0.3,0,0.5c0,0.1,0,0.3,0,0.4h-1.2v1.4h1.4c0.3,2.5,2.4,4.3,4.9,4.1c2.7,0,4.2-1.2,4.8-3.5l-2.6-0.6
	C19,26.7,18.1,27.5,17,27.4C17.1,27.4,17.1,27.4,17,27.4z"/>
<path class="st0" d="M33.6,1c-3.3,0-6.5,1.5-8.7,4H10.4C9.6,5,8.8,5.4,8.2,6l-6.6,7.2C1.2,13.8,1,14.4,1,15.1v0.2c0,0.1,0,0.2,0,0.4
	v26.5C1,43.7,2.3,45,3.9,45h25.6c1.6,0,2.9-1.3,2.9-2.9V23.8c0.4,0,0.7,0,1.1,0c6.3,0,11.5-5.1,11.5-11.4S39.9,0.9,33.6,1z M9,9.6
	v4.4H5.1L9,9.6z M29.5,42H4V16.9h6.5c0.8,0,1.5-0.7,1.5-1.5V8h11c-0.6,1.4-0.9,2.9-0.9,4.4c0,4.7,2.9,8.9,7.4,10.6V42z M33.6,20.8
	c-4.6,0-8.4-3.8-8.4-8.4s3.8-8.4,8.4-8.4c4.6,0,8.4,3.8,8.4,8.4c0,0,0,0,0,0C42,17.1,38.2,20.8,33.6,20.8L33.6,20.8z"/>
<path class="st0" d="M33.6,6.4c-2.6,0-4.2,1.2-4.5,3.4l2.6,0.4c0.1-1,0.7-1.5,1.8-1.5s1.5,0.4,1.5,1.2s-0.8,1-1.6,1.4
	c-1,0.4-1.7,1.3-1.7,2.4v0.7h2.5v-0.5c0-0.7,0.8-1,1.7-1.4c1.1-0.4,1.8-1.5,1.8-2.6C37.9,7.7,36.3,6.4,33.6,6.4z"/>
<path class="st0" d="M33.3,15.3c-0.9,0-1.6,0.7-1.6,1.6c0,0.9,0.7,1.6,1.6,1.6c0.9,0,1.6-0.7,1.6-1.6l0,0c0-0.9-0.6-1.6-1.5-1.6
	C33.3,15.3,33.3,15.3,33.3,15.3z"/>
</svg>
