<?xml version="1.0" encoding="utf-8"?>
<!-- Generator: Adobe Illustrator 24.0.1, SVG Export Plug-In . SVG Version: 6.00 Build 0)  -->
<svg version="1.1" id="PICTOS_vectos" xmlns="http://www.w3.org/2000/svg" xmlns:xlink="http://www.w3.org/1999/xlink" x="0px"
	 y="0px" viewBox="0 0 46.1 46.1" style="enable-background:new 0 0 46.1 46.1;" xml:space="preserve">
<style type="text/css">
	.st0{fill:#25465F;}
</style>
<path class="st0" d="M16.8,34.6c-2.6,0-4.6,1-4.7,2.2s2.1,2.2,4.7,2.2s4.6-1,4.6-2.2S19.3,34.6,16.8,34.6z"/>
<path class="st0" d="M17,27.5c-1.1,0.1-2-0.6-2.2-1.7h2.8v-1.3h-2.9c0-0.3,0-0.6,0-0.9h2.9v-1.4h-2.8c0.2-1,1.1-1.8,2.1-1.7
	c1-0.1,1.9,0.7,2,1.7l2.6-0.6c-0.4-2.2-2.4-3.8-4.6-3.5c-2.4-0.1-4.6,1.7-4.9,4.1h-1.3v1.4h1.2c0,0.3,0,0.6,0,0.9h-1.2v1.4h1.4
	c0.3,2.5,2.4,4.3,4.9,4.1c2.7,0,4.3-1.2,4.8-3.5l-2.6-0.5C19,26.8,18.1,27.6,17,27.5C17.1,27.5,17.1,27.5,17,27.5z"/>
<path class="st0" d="M42.9,5.9L42.9,5.9c-3.6-5.2-10.7-6.4-15.9-2.8c-0.8,0.6-1.6,1.2-2.2,2H10.4c-0.9,0-1.7,0.4-2.2,1l-6.6,7.2
	C1.2,13.8,1,14.5,1,15.1v0.2c0,0.1,0,0.1,0,0.2c0,0.1,0,0.1,0,0.2v26.5c0,1.6,1.3,2.9,2.9,2.9h25.6c1.6,0,2.9-1.3,2.9-2.9V23.7
	c0.4,0,0.8,0.1,1.1,0.1c6.3,0,11.4-5.1,11.4-11.4C45,10,44.3,7.8,42.9,5.9z M9,9.6V14H5.1L9,9.6z M4,42.1V17h6.5
	c0.8,0,1.5-0.7,1.5-1.5V8.1h11c-2.4,5.8,0.4,12.5,6.2,14.9c0.1,0,0.2,0.1,0.3,0.1v19H4z M38.4,19.3c-3.8,2.7-9,1.7-11.7-2.1
	c-2.7-3.8-1.7-9,2.1-11.7s9-1.7,11.7,2.1C43.1,11.4,42.2,16.6,38.4,19.3z"/>
<path class="st0" d="M39.4,10.9h-1.1c-0.1-0.3-0.2-0.5-0.3-0.7l0.8-0.8c0.6-0.6,0.6-1.5,0-2.1c0,0,0,0,0,0c-0.6-0.6-1.5-0.6-2.1,0
	l-0.9,0.9c-0.2-0.1-0.4-0.2-0.7-0.3V6.6c0-0.8-0.7-1.5-1.5-1.5s-1.5,0.7-1.5,1.5v1.3c-0.2,0.1-0.4,0.2-0.6,0.3l-0.9-0.9
	c-0.6-0.6-1.6-0.5-2.1,0.1c-0.5,0.6-0.5,1.5,0,2l0.9,0.9c-0.1,0.2-0.2,0.4-0.3,0.7h-1.2c-0.8,0-1.5,0.7-1.5,1.5s0.7,1.5,1.5,1.5h1.1
	c0.1,0.3,0.2,0.5,0.3,0.8l-0.8,0.8c-0.6,0.6-0.6,1.5,0,2.1c0.3,0.3,0.7,0.4,1.1,0.4c0.4,0,0.8-0.2,1.1-0.4l0.7-0.7
	c0.3,0.1,0.5,0.3,0.8,0.4v1c0,0.8,0.7,1.5,1.5,1.5s1.5-0.7,1.5-1.5v-1c0.3-0.1,0.6-0.2,0.8-0.4l0.7,0.7c0.3,0.3,0.7,0.5,1.1,0.5
	c0.4,0,0.8-0.2,1.1-0.4c0.6-0.6,0.6-1.5,0-2.1c0,0,0,0,0,0L38,14.7c0.1-0.3,0.2-0.5,0.3-0.8h1c0.8,0,1.5-0.7,1.5-1.5
	S40.1,10.9,39.4,10.9L39.4,10.9z M34.8,14.1c-0.9,0.6-2.1,0.4-2.7-0.5c0,0,0,0,0,0c-0.6-0.9-0.4-2,0.5-2.6c0.3-0.2,0.7-0.3,1.1-0.4
	c0.1,0,0.2,0,0.3,0c0.5,0.1,1,0.4,1.2,0.8C35.8,12.3,35.6,13.5,34.8,14.1z"/>
</svg>
