<?xml version="1.0" encoding="utf-8"?>
<!-- Generator: Adobe Illustrator 24.0.1, SVG Export Plug-In . SVG Version: 6.00 Build 0)  -->
<svg version="1.1" id="PICTOS_vectos" xmlns="http://www.w3.org/2000/svg" xmlns:xlink="http://www.w3.org/1999/xlink" x="0px"
	 y="0px" viewBox="0 0 46 46" style="enable-background:new 0 0 46 46;" xml:space="preserve">
<style type="text/css">
	.st0{fill:#25465F;}
</style>
<path class="st0" d="M6.9,17.2c1.2,0,2.2-2.1,2.3-4.7S8.2,7.9,7,7.9S4.7,10,4.7,12.5S5.7,17.2,6.9,17.2z"/>
<path class="st0" d="M7,18.5c-1.2,0-2.2,2.1-2.3,4.6s1,4.6,2.2,4.7s2.2-2.1,2.2-4.7S8.2,18.6,7,18.5z"/>
<path class="st0" d="M7,29.2c-1.2,0-2.2,2.1-2.3,4.6s1,4.7,2.2,4.7s2.2-2.1,2.2-4.7S8.2,29.2,7,29.2z"/>
<path class="st0" d="M39.1,17.2c1.2,0,2.2-2.1,2.2-4.7s-1-4.6-2.2-4.6S37,10,37,12.5S37.9,17.2,39.1,17.2z"/>
<path class="st0" d="M39.1,27.8c1.2,0,2.2-2.1,2.2-4.7s-1-4.6-2.2-4.6S37,20.6,37,23.2S37.9,27.8,39.1,27.8z"/>
<path class="st0" d="M39.2,29.2c-1.2,0-2.2,2.1-2.2,4.6s1,4.7,2.2,4.7s2.2-2.1,2.2-4.7S40.4,29.2,39.2,29.2z"/>
<path class="st0" d="M19.2,29.3c0.2,0.1,0.5,0.2,0.7,0.2c0.3,0,0.5-0.1,0.8-0.2l8.4-5.1c0.7-0.4,0.9-1.3,0.5-2.1
	c-0.1-0.2-0.3-0.4-0.5-0.5l-8.4-5.1c-0.7-0.4-1.6-0.2-2.1,0.5c-0.1,0.2-0.2,0.5-0.2,0.8V28C18.4,28.5,18.7,29,19.2,29.3z M21.4,20.5
	l4,2.4l-4,2.4V20.5z"/>
<path class="st0" d="M43.5,4.2h-41C1.6,4.2,1,4.9,1,5.7v34.8C1,41.4,1.6,42,2.5,42h8.8h0.2h0.2h23h0.2H35h8.5c0.8,0,1.5-0.7,1.5-1.5
	V5.7C45,4.9,44.3,4.2,43.5,4.2C43.5,4.2,43.5,4.2,43.5,4.2z M33.2,7.2V39H13V7.2H33.2z M4,7.2h6V39H4V7.2z M42,39h-5.7V7.2H42V39z"
	/>
</svg>
