<?xml version="1.0" encoding="utf-8"?>
<!-- Generator: Adobe Illustrator 24.0.1, SVG Export Plug-In . SVG Version: 6.00 Build 0)  -->
<svg version="1.1" id="PICTOS_vectos" xmlns="http://www.w3.org/2000/svg" xmlns:xlink="http://www.w3.org/1999/xlink" x="0px"
	 y="0px" viewBox="0 0 46.1 46.1" style="enable-background:new 0 0 46.1 46.1;" xml:space="preserve">
<style type="text/css">
	.st0{fill:#25465F;}
</style>
<path class="st0" d="M23.4,30c1.2-0.3,1.6-2.6,1-5.1S22.2,20.7,21,21s-1.6,2.6-0.9,5.1S22.2,30.3,23.4,30z"/>
<path class="st0" d="M41.4,19.1c-1.5-5.1-3.5-10.9-9.8-15C27,1.2,21.5,0.3,16.2,1.5C5.9,3.9-0.7,14,1.4,24.4
	c0.3,1.2,0.6,2.5,1.1,3.6c0.4,1.1,0.8,2.3,1,3.5c0.3,1.1,0.3,2.3,0.1,3.5c-0.3,0.8,0.1,1.6,0.8,1.9c0.2,0.1,0.4,0.1,0.6,0.1
	c0.6,0,1.2-0.4,1.4-0.9c0.1-0.3,0.6-1.7,0-5.1c-0.3-1.4-0.6-2.7-1.1-4c-0.4-1.1-0.7-2.2-0.9-3.3C2.6,15,8.2,6.4,16.9,4.4
	c4.5-1.1,9.2-0.3,13.1,2.2c4.8,3.2,6.8,7.5,8.5,13.4c1.1,4,1.6,8.1,1.5,12.2c0,0.8,0.6,1.5,1.4,1.6s1.5-0.6,1.6-1.4
	C43.1,27.9,42.6,23.4,41.4,19.1z"/>
<path class="st0" d="M36.6,25.1c-0.5-3.9-1.8-7.6-3.9-10.9c-3.7-5.7-11-7.9-17.3-5.2c-6.6,2.9-9.7,10.2-7.6,18.3
	c0.1,0.5,0.2,0.9,0.4,1.4c0.5,1.5,0.7,2.9,0.9,4.5c0.1,1.7-0.2,3.4-0.9,5c-0.4,0.7,0,1.6,0.7,2c0.2,0.1,0.4,0.1,0.7,0.2
	c0.6,0,1.1-0.3,1.4-0.8c0.9-2,1.3-4.2,1.2-6.5c-0.1-1.7-0.5-3.5-1-5.1c-0.1-0.4-0.2-0.9-0.4-1.3C9.1,20,11.4,14,16.6,11.8
	c4.9-2.2,10.7-0.4,13.6,4.1c1.8,2.9,3,6.3,3.4,9.7v0.1c0.5,3.3,1.1,7.1,0.3,10.3c-0.1,0.5-0.3,0.9-0.5,1.3c-0.4,0.7-0.2,1.6,0.5,2.1
	c0.7,0.4,1.6,0.2,2.1-0.5c0-0.1,0.1-0.1,0.1-0.2c0.3-0.6,0.6-1.3,0.8-1.9c0.9-3.7,0.3-7.8-0.3-11.4L36.6,25.1z"/>
<path class="st0" d="M25.4,15.3c-3.2-1.8-7.3-1.2-9.8,1.5c-3,3.3-2.4,7.9-1.9,10.3c0.7,2.4,1.1,5,1,7.5c0,0,0,0.1,0,0.1
	c-0.2,2.3-0.8,4.4-1.9,6.4c-0.4,0.7-0.2,1.6,0.5,2c0,0,0,0,0,0c0.7,0.4,1.6,0.1,2-0.5c1.4-2.4,2.2-5.1,2.3-7.8
	c0.1-2.8-0.3-5.7-1.1-8.4c-0.5-1.9-0.9-5.4,1.2-7.6c1.5-1.7,4-2.1,6-1c1.4,0.9,2.4,2.5,3.2,5.2c1.2,4.2,2.4,14.6-0.4,19.8
	c-0.4,0.7-0.1,1.6,0.6,2c0.7,0.4,1.6,0.1,2-0.6c3.4-6.4,1.9-17.8,0.7-22C29,18.8,27.5,16.6,25.4,15.3z"/>
<path class="st0" d="M23.1,32c-0.8,0.1-1.4,0.8-1.4,1.6c0,0,0,0,0,0c0.3,2.9-0.3,5.9-1.9,8.4c-0.5,0.7-0.3,1.6,0.4,2.1
	c0.2,0.2,0.5,0.3,0.8,0.2c0.5,0,1-0.2,1.2-0.7c1.9-3.1,2.7-6.7,2.4-10.3C24.7,32.6,24,31.9,23.1,32C23.1,32,23.1,32,23.1,32z"/>
</svg>
