<?xml version="1.0" encoding="utf-8"?>
<!-- Generator: Adobe Illustrator 24.0.1, SVG Export Plug-In . SVG Version: 6.00 Build 0)  -->
<svg version="1.1" id="PICTOS_vectos" xmlns="http://www.w3.org/2000/svg" xmlns:xlink="http://www.w3.org/1999/xlink" x="0px"
	 y="0px" viewBox="0 0 58.9 58.9" style="enable-background:new 0 0 58.9 58.9;" xml:space="preserve">
<style type="text/css">
	.st0{fill:#25465F;}
</style>
<path class="st0" d="M8.7,50.2c0.1-0.9-0.6-1.7-1.5-1.8c-0.1,0-0.2,0-0.2,0c-1,0-1.8,0.7-1.9,1.7c0,0.1,0,0.2,0,0.3
	c0,1.3,0.7,2,1.9,2c0.8,0.1,1.5-0.4,1.8-1.1L7.8,51c-0.1,0.3-0.3,0.5-0.8,0.5s-0.9-0.2-0.9-0.9h2.4C8.7,50.6,8.7,50.5,8.7,50.2z
	 M6.1,50c0-0.4,0.4-0.8,0.8-0.8c0,0,0,0,0.1,0c0.5,0,0.7,0.2,0.8,0.8H6.1z"/>
<path class="st0" d="M10.8,48.4c-1,0-1.7,0.5-1.7,1.4v2.6h1v-2.5c0-0.4,0.3-0.7,0.7-0.7s0.7,0.2,0.7,0.7v2.5h1v-2.6
	C12.5,48.9,11.8,48.4,10.8,48.4z"/>
<path class="st0" d="M15.1,51.4C15.1,51.4,15.1,51.4,15.1,51.4l1.9-2.1c0,0,0-0.1,0-0.1v-0.6c0-0.1,0-0.1-0.1-0.1H14v0.9h1.8
	 M15.8,49.4C15.8,49.4,15.8,49.4,15.8,49.4l-1.9,2.1c0,0-0.1,0.1-0.1,0.1v0.6c0,0.1,0,0.1,0.1,0.1c0,0,0,0,0,0h3.1v-0.9h-1.9
	c-0.1,0-0.1,0-0.1,0L15.8,49.4z"/>
<path class="st0" d="M19,48.4c-1,0-1.8,0.7-1.9,1.7c0,0.1,0,0.2,0,0.3c-0.1,1,0.7,1.9,1.7,2c1,0.1,1.9-0.7,2-1.7c0-0.1,0-0.2,0-0.3
	c0.1-1-0.6-1.9-1.6-2C19.2,48.4,19.1,48.3,19,48.4z M19,51.5c-0.6,0-0.9-0.3-0.9-1.2s0.3-1.2,0.9-1.2s0.9,0.3,0.9,1.2
	S19.6,51.5,19,51.5z"/>
<path class="st0" d="M23,48.4c-1,0-1.7,0.5-1.7,1.4v2.6h1v-2.5c0-0.4,0.3-0.7,0.7-0.7s0.7,0.2,0.7,0.7v2.5h1v-2.6
	C24.7,48.9,24,48.4,23,48.4z"/>
<path class="st0" d="M28.7,50.2c0.1-0.9-0.6-1.7-1.6-1.8c-0.1,0-0.2,0-0.2,0c-1,0-1.8,0.7-1.9,1.7c0,0.1,0,0.2,0,0.3
	c0,1.3,0.7,2,1.9,2c0.8,0.1,1.6-0.4,1.8-1.1l-1-0.2c0,0.3-0.3,0.5-0.8,0.5s-0.9-0.2-0.9-0.9h2.4C28.7,50.6,28.7,50.5,28.7,50.2z
	 M26.1,50c0-0.4,0.4-0.8,0.8-0.8c0,0,0,0,0,0c0.5,0,0.7,0.2,0.8,0.8H26.1z"/>
<path class="st0" d="M31,50l-0.5-0.1c-0.4-0.1-0.6-0.2-0.6-0.4s0.2-0.4,0.6-0.4s0.6,0.1,0.7,0.5l1-0.2c-0.1-0.7-0.7-1.1-1.6-1.1
	s-1.6,0.5-1.6,1.2s0.4,1,1.1,1.1l0.6,0.1c0.4,0.1,0.6,0.2,0.6,0.4s-0.2,0.4-0.6,0.4c-0.4,0.1-0.7-0.2-0.8-0.6c0,0,0,0,0,0l-1,0.2
	c0.1,0.8,0.8,1.2,1.8,1.2s1.6-0.5,1.6-1.3C32.1,50.5,31.7,50.2,31,50z"/>
<path class="st0" d="M34.7,49.8v2.5h1v-2.5c0-0.2,0.1-0.5,0.4-0.5c0,0,0.1,0,0.1,0h0.7v-0.9h-0.8c-0.7-0.1-1.3,0.3-1.4,1
	C34.7,49.6,34.7,49.7,34.7,49.8z"/>
<path class="st0" d="M39.4,50.9c0,0.4-0.2,0.6-0.7,0.6c-0.3,0-0.6-0.2-0.6-0.5c0,0,0-0.1,0-0.1v-2.5h-1v2.6c0,0.9,0.7,1.4,1.6,1.4
	s1.7-0.5,1.7-1.4v-2.6h-1L39.4,50.9z"/>
<path class="st0" d="M40.9,49.8v2.5h1v-2.5c0-0.2,0.1-0.5,0.4-0.5c0,0,0.1,0,0.1,0h0.7v-0.9h-0.8c-0.7-0.1-1.3,0.3-1.4,1
	C40.9,49.6,40.9,49.7,40.9,49.8z"/>
<path class="st0" d="M44.9,48.4c-0.8-0.1-1.5,0.4-1.6,1.2l0.9,0.2c0-0.3,0.4-0.6,0.7-0.5c0.4,0,0.6,0.2,0.6,0.6v0.1l-1,0.2
	c-1,0.2-1.4,0.6-1.4,1.2s0.6,1.2,1.6,1.2c0.5,0,1-0.1,1.5-0.2c0.2,0,0.3-0.3,0.3-0.5v-2C46.5,48.8,45.9,48.4,44.9,48.4z M45.6,51.4
	c0,0.1,0,0.2-0.2,0.2c-0.2,0.1-0.4,0.1-0.6,0.1c-0.5,0-0.7-0.1-0.7-0.4s0.2-0.4,0.5-0.5l0.8-0.2L45.6,51.4z"/>
<path class="st0" d="M48,51.2v-4.1h-1v4.3c-0.1,0.5,0.3,0.9,0.7,1c0.1,0,0.2,0,0.3,0h0.5v-0.9h-0.2C48.1,51.5,48,51.4,48,51.2z"/>
<path class="st0" d="M52.2,50.2c0.1-0.9-0.6-1.7-1.5-1.8c-0.1,0-0.2,0-0.2,0c-1,0-1.8,0.7-1.9,1.7c0,0.1,0,0.2,0,0.3
	c0,1.3,0.7,2,1.9,2c0.8,0.1,1.6-0.4,1.8-1.2L51.3,51c0,0.3-0.3,0.5-0.8,0.5s-0.9-0.2-0.9-0.9H52C52.2,50.6,52.2,50.5,52.2,50.2z
	 M49.6,50c0-0.4,0.4-0.8,0.8-0.8c0,0,0,0,0.1,0c0.5,0,0.7,0.2,0.8,0.8H49.6z"/>
<path class="st0" d="M54.5,50L54,49.9c-0.4-0.1-0.6-0.2-0.6-0.4s0.2-0.4,0.6-0.4s0.6,0.1,0.7,0.5l1-0.2c-0.1-0.7-0.7-1.1-1.6-1.1
	s-1.6,0.5-1.6,1.2s0.4,1,1.1,1.1l0.6,0.1c0.4,0.1,0.6,0.2,0.6,0.4s-0.2,0.4-0.6,0.4c-0.4,0.1-0.7-0.2-0.8-0.6c0,0,0,0,0,0l-1,0.2
	c0.1,0.8,0.8,1.2,1.8,1.2s1.6-0.5,1.6-1.3C55.7,50.5,55.3,50.2,54.5,50z"/>
<polygon class="st0" points="57.6,48 57.4,47.5 56.8,47.8 56.9,47.1 56.4,47.1 56.4,47.8 55.8,47.5 55.7,48 56.3,48.2 55.9,48.6 
	56.3,49 56.6,48.4 57,49 57.4,48.6 56.9,48.2 "/>
<path class="st0" d="M20.4,28.6C20.4,28.7,20.4,28.7,20.4,28.6c-0.1,0.1-0.1,0.1-0.2,0l-2.2-4.8c-0.1-0.2-0.3-0.4-0.6-0.3h-1.3
	c-0.2,0-0.3,0.1-0.3,0.3c0,0,0,0,0,0v6.8h1.4v-5.1c0-0.1,0-0.1,0.1-0.1s0.1,0,0.1,0.1l2.2,4.8c0.1,0.2,0.3,0.4,0.6,0.3h1.3
	c0.2,0,0.3-0.1,0.3-0.3c0,0,0,0,0,0v-6.8h-1.4V28.6z"/>
<path class="st0" d="M24.7,23.4c-0.9-0.1-1.8,0.6-1.8,1.6s0.6,1.8,1.6,1.8c0.1,0,0.2,0,0.3,0c0.9,0.1,1.8-0.6,1.8-1.6
	s-0.6-1.8-1.6-1.8C24.9,23.4,24.8,23.4,24.7,23.4z M24.7,26c-0.4,0-0.8-0.3-0.8-0.7c0,0,0-0.1,0-0.1c0-0.4,0.3-0.8,0.7-0.8
	c0,0,0.1,0,0.1,0c0.5-0.1,0.9,0.3,0.9,0.8s-0.3,0.9-0.8,0.9C24.8,26,24.8,26,24.7,26z"/>
<path class="st0" d="M29.2,30.6h2.2V20h-1.8c-0.2,1.2-1.3,2.1-2.5,2v1.5h2.2V30.6z"/>
<path class="st0" d="M42.7,16.2h5.1c0.4,0,0.8-0.3,0.8-0.8s-0.3-0.8-0.8-0.8h-5.1c-0.4,0-0.8,0.3-0.8,0.8S42.3,16.2,42.7,16.2z"/>
<path class="st0" d="M45.3,38.4c2.6,0,4.6-1,4.6-2.2c0-1.2-2.1-2.2-4.6-2.2c-2.6,0-4.7,1-4.7,2.2C40.6,37.3,42.7,38.4,45.3,38.4z"/>
<path class="st0" d="M26.9,43.4l1.5-3.4l6.5,1.8c0.6,1.4,2,2.3,3.5,2.3H52c2.1,0,3.8-1.7,3.8-3.8V13.6c0-2.1-1.7-3.8-3.8-3.8l0,0
	H38.4c-1.6,0-3,1-3.6,2.5l-5.2-1.8l-5.3-4.6c-0.9-0.8-2.3-0.7-3.1,0.2C21.1,6.1,21,6.2,21,6.3L19.7,8l0,0l-3.5,4l-3.3-1.4
	c-1.1-0.5-2.4,0-2.9,1.1c0,0,0,0.1-0.1,0.1c-0.1,0.3-0.2,0.6-0.1,0.9l0.1,2.3l-5.3-0.5c-1-0.1-2,0.5-2.3,1.4l-0.6,1.8
	c-0.4,1,0,2.2,1,2.8l6.2,3.2l1.7,9.8L9,37.7c-0.2,0.6-0.2,1.2,0.1,1.8c0.3,0.5,0.7,1,1.3,1.1c0.1,0,0.1,0,0.2,0l13.7,4
	c0.2,0.1,0.5,0.1,0.7,0.1C25.7,44.7,26.5,44.2,26.9,43.4z M38.4,12.8H52c0.5,0,0.8,0.4,0.8,0.8v26.7c0,0.5-0.4,0.8-0.8,0.8H38.4
	c-0.5,0-0.8-0.4-0.8-0.8v0V14.5c0-0.2,0-0.3,0-0.5v-0.4C37.6,13.1,38,12.8,38.4,12.8z M25.9,38.2l-1.5,3.4L12.1,38l1.4-3.6
	c0.1-0.4,0.2-0.8,0.1-1.2l-1.8-10.3c-0.1-0.7-0.5-1.2-1.1-1.5h-0.1l-5.8-3.1l0.2-0.6l5.7,0.5H11c0.6-0.1,1.1-0.3,1.5-0.8
	c0.4-0.4,0.5-1,0.5-1.5l-0.1-1.9l2.6,1.2c0.9,0.3,1.9,0.1,2.5-0.6l3.9-4.4C22,10.1,22,10,22.1,9.9l0.9-1.2l4.7,4.1
	c0.2,0.2,0.4,0.3,0.7,0.4l0.2,0.1l6.1,2v23.3l-6.1-1.7C27.4,36.7,26.3,37.2,25.9,38.2z"/>
</svg>
