<?xml version="1.0" encoding="utf-8"?>
<!-- Generator: Adobe Illustrator 24.0.1, SVG Export Plug-In . SVG Version: 6.00 Build 0)  -->
<svg version="1.1" id="PICTOS_vectos" xmlns="http://www.w3.org/2000/svg" xmlns:xlink="http://www.w3.org/1999/xlink" x="0px"
	 y="0px" viewBox="0 0 36.7 36.7" style="enable-background:new 0 0 36.7 36.7;" xml:space="preserve">
<style type="text/css">
	.st0{fill:#25465F;}
</style>
<path class="st0" d="M28.5,12.6c-0.2-0.5-0.8-0.9-1.4-0.9h-5.8l1.4-9c0.1-0.8-0.4-1.6-1.2-1.7c-0.5-0.1-1.1,0.1-1.4,0.5L8.4,15.7
	c-0.4,0.4-0.5,1.1-0.2,1.6c0.3,0.5,0.8,0.9,1.4,0.9h5.8l-1.4,9c-0.1,0.7,0.2,1.3,0.9,1.6c0.2,0.1,0.4,0.1,0.6,0.1
	c0.4,0,0.9-0.2,1.1-0.5l11.8-14.2C28.7,13.7,28.8,13.1,28.5,12.6z M17.8,22.2l0.9-5.3c0.1-0.4-0.1-0.9-0.3-1.2
	c-0.3-0.3-0.7-0.5-1.1-0.5h-4.4l6.2-7.5L18.1,13c-0.1,0.4,0.1,0.9,0.3,1.2c0.3,0.3,0.7,0.5,1.1,0.5H24L17.8,22.2z"/>
<path class="st0" d="M18.5,31.3c-2.6,0-4.6,1-4.6,2.2c0,1.2,2.1,2.2,4.6,2.3s4.7-1,4.7-2.2S21.1,31.3,18.5,31.3z"/>
</svg>
