<svg id="PICTOS_vectos" xmlns="http://www.w3.org/2000/svg" viewBox="0 0 46 46"><defs><style>.cls-1{fill:#25465f;}</style></defs><path class="cls-1" d="M7.71,32.11c-1.46,2.11-1.79,4.32-.78,5s3-.44,4.48-2.55,1.82-4.38.81-5.09S9.17,30,7.71,32.11Z"/><path class="cls-1" d="M34.57,32.11c-1.46,2.11-1.79,4.32-.78,5s3-.44,4.48-2.55,1.82-4.38.81-5.09S36,30,34.57,32.11Z"/><path class="cls-1" d="M28.39,25.15c-.6-1.53-2.05-2.51-4.33-2.91l4.63-6.66,3.27,6a1.5,1.5,0,0,0,2.63-1.45L30.15,12a1.48,1.48,0,0,0-1.23-.77,1.52,1.52,0,0,0-1.31.64l-7.5,10.79A1.49,1.49,0,0,0,21.34,25c2.37,0,4,.46,4.26,1.23.69,1.75-2.87,6.34-5.7,9a1.49,1.49,0,0,0-.08,2.12,1.47,1.47,0,0,0,1.1.48,1.54,1.54,0,0,0,1-.4C23.31,36.14,30.11,29.54,28.39,25.15Z"/><path class="cls-1" d="M16.18,23.78c-1.57-1.08-3.75-.91-6.15.49a19.13,19.13,0,0,0-5.74,5.58C.59,35.2,0,40.79,3,42.84a4.11,4.11,0,0,0,2.39.72,7.62,7.62,0,0,0,3.7-1.13,18.45,18.45,0,0,0,5.72-5.51,18.5,18.5,0,0,0,3.14-7.29C18.37,26.94,17.74,24.86,16.18,23.78ZM15,29.16a15.59,15.59,0,0,1-2.65,6.05,15.47,15.47,0,0,1-4.74,4.61c-1.24.71-2.36.93-2.89.55-1.14-.79-.91-4.52,2.06-8.81a16.34,16.34,0,0,1,4.79-4.7,4.93,4.93,0,0,1,2.27-.78,1.09,1.09,0,0,1,.65.17h0C15,26.62,15.2,27.73,15,29.16Z"/><path class="cls-1" d="M43,23.78c-1.56-1.08-3.74-.91-6.14.49a19,19,0,0,0-5.74,5.58c-3.71,5.35-4.27,10.94-1.3,13a4.11,4.11,0,0,0,2.39.72,7.65,7.65,0,0,0,3.7-1.13,18.66,18.66,0,0,0,5.72-5.51,18.64,18.64,0,0,0,3.14-7.29C45.23,26.94,44.6,24.86,43,23.78Zm-1.2,5.38a15.55,15.55,0,0,1-2.64,6.05,15.58,15.58,0,0,1-4.74,4.61c-1.25.72-2.36.92-2.9.55-1.14-.79-.9-4.52,2.07-8.81a16.1,16.1,0,0,1,4.79-4.7,4.89,4.89,0,0,1,2.27-.78,1.11,1.11,0,0,1,.65.17h0C41.87,26.62,42.06,27.73,41.83,29.16Z"/><path class="cls-1" d="M32.43,11.45A4.5,4.5,0,1,0,27.93,7,4.51,4.51,0,0,0,32.43,11.45Zm0-6A1.5,1.5,0,1,1,30.93,7,1.5,1.5,0,0,1,32.43,5.45Z"/></svg>