<svg id="PICTOS_vectos" xmlns="http://www.w3.org/2000/svg" viewBox="0 0 46 46"><defs><style>.cls-1{fill:#25465f;}</style></defs><path class="cls-1" d="M34.35,16.18c-1.23,0-2.24,2.06-2.26,4.63s1,4.65,2.2,4.66,2.23-2.14,2.25-4.71S35.58,16.19,34.35,16.18Z"/><path class="cls-1" d="M41.55,15.4c-2.22-1.3-4.44-1.46-5.07-.4s.67,3,2.88,4.27,4.52,1.49,5.14.43S43.76,16.7,41.55,15.4Z"/><path class="cls-1" d="M36.53,12.57c.61,1.07,2.91.91,5.14-.36S45.21,9,44.61,8s-3-.87-5.2.4S35.92,11.5,36.53,12.57Z"/><path class="cls-1" d="M34.45,11.31c1.23,0,2.24-2.07,2.26-4.63S35.74,2,34.51,2s-2.24,2.14-2.25,4.71S33.22,11.3,34.45,11.31Z"/><path class="cls-1" d="M27.25,12.09c2.22,1.3,4.44,1.46,5.06.39s-.66-3-2.88-4.27-4.51-1.48-5.13-.42S25,10.79,27.25,12.09Z"/><path class="cls-1" d="M32.27,14.92c-.61-1.07-2.91-.91-5.14.36s-3.55,3.16-2.94,4.23,3,.87,5.2-.4S32.87,16,32.27,14.92Z"/><path class="cls-1" d="M35.64,12.91a1.3,1.3,0,0,0-.18-.23,1.56,1.56,0,0,0-2.13,0,2,2,0,0,0-.18.23,2.15,2.15,0,0,0-.14.26,1.47,1.47,0,0,0-.08.28,1.5,1.5,0,0,0,0,.29,1.47,1.47,0,0,0,.43,1.06,1.5,1.5,0,0,0,1.07.44,1.5,1.5,0,0,0,1.5-1.5,1.41,1.41,0,0,0-.12-.57A1.3,1.3,0,0,0,35.64,12.91Z"/><path class="cls-1" d="M11.71,27.54c-1.06-.63-3,.67-4.27,2.88S6,34.93,7,35.55s3-.73,4.3-2.95S12.77,28.16,11.71,27.54Z"/><path class="cls-1" d="M14.14,27.59c-1.07.6-.9,2.9.36,5.13s3.17,3.55,4.24,2.94.86-3-.41-5.2S15.21,27,14.14,27.59Z"/><path class="cls-1" d="M24.69,25.56c0-1.23-2.14-2.23-4.7-2.25s-4.58,1-4.59,2.19,2.07,2.24,4.63,2.26S24.68,26.79,24.69,25.56Z"/><path class="cls-1" d="M14.23,23.37c1.06.62,3-.67,4.27-2.88S20,16,18.92,15.35s-3,.74-4.3,3S13.17,22.75,14.23,23.37Z"/><path class="cls-1" d="M11.79,23.32c1.07-.61.91-2.91-.36-5.14S8.27,14.64,7.2,15.25s-.86,3,.41,5.2S10.72,23.93,11.79,23.32Z"/><path class="cls-1" d="M10.53,25.4c0-1.23-2.06-2.24-4.63-2.25s-4.65,1-4.65,2.2S3.38,27.58,6,27.59,10.53,26.63,10.53,25.4Z"/><path class="cls-1" d="M14.47,25.45a1.43,1.43,0,0,0,0-.29,1.69,1.69,0,0,0-.41-.77,1.47,1.47,0,0,0-1.64-.32,1.26,1.26,0,0,0-.26.13l-.22.19a1.37,1.37,0,0,0-.19.23,1.61,1.61,0,0,0-.23.54,2.85,2.85,0,0,0,0,.29A1.52,1.52,0,0,0,13,27a1.5,1.5,0,0,0,1.5-1.5Z"/><path class="cls-1" d="M30,20.94a1.51,1.51,0,0,0-1.89,1,108.4,108.4,0,0,0-2.91,11.67,10.39,10.39,0,0,0-2.08-3.3,1.5,1.5,0,0,0-2.07,2.17s3,3.11,3,11.53a1.5,1.5,0,1,0,3,0c0-9,3.85-21,3.89-21.15A1.51,1.51,0,0,0,30,20.94Z"/></svg>