<?xml version="1.0" encoding="utf-8"?>
<!-- Generator: Adobe Illustrator 24.0.1, SVG Export Plug-In . SVG Version: 6.00 Build 0)  -->
<svg version="1.1" id="PICTOS_vectos" xmlns="http://www.w3.org/2000/svg" xmlns:xlink="http://www.w3.org/1999/xlink" x="0px"
	 y="0px" viewBox="0 0 46.1 46.1" style="enable-background:new 0 0 46.1 46.1;" xml:space="preserve">
<style type="text/css">
	.st0{fill:#25465F;}
</style>
<path class="st0" d="M31.5,22.1c0,1.2,2.1,2.2,4.7,2.2s4.6-1,4.6-2.2s-2.1-2.2-4.6-2.3S31.5,20.9,31.5,22.1z"/>
<path class="st0" d="M36.2,40.6c-2.6,0-4.6,1-4.6,2.2s2.1,2.2,4.7,2.2s4.6-1,4.6-2.2S38.8,40.7,36.2,40.6z"/>
<path class="st0" d="M35,39.1c0.4,0.2,0.8,0.3,1.2,0.3c0.4,0,0.8-0.1,1.2-0.3c3.8-2.5,7.7-8.6,7.7-16.8c0.1-2.7-0.9-5.2-2.8-7.1
	c-0.8-0.8-1.7-1.4-2.8-1.8l0.3-1.8c0.1-1.1-0.5-2.1-1.5-2.4l-9.1-3l-5.4-4.7c-0.9-0.8-2.3-0.7-3.1,0.2c0,0.1-0.1,0.1-0.1,0.2
	l-1.3,1.8l0,0l-3.5,4l-3.2-1.4c-1.1-0.5-2.4,0-2.9,1.1c0,0,0,0.1-0.1,0.1C9.4,7.8,9.3,8.1,9.3,8.4l0.1,2.3l-5.3-0.5
	c-1-0.1-2,0.5-2.3,1.4l-0.6,1.8c-0.4,1,0,2.2,1,2.8l6.2,3.2l1.7,9.8l-1.6,4.1c-0.2,0.6-0.2,1.2,0.1,1.8c0.3,0.5,0.7,1,1.3,1.1h0.2
	l13.7,4c0.2,0.1,0.5,0.1,0.7,0.1c0.9,0,1.7-0.5,2.1-1.4l1.5-3.4l4.6,1.4C33.2,37.8,34.1,38.5,35,39.1z M42.1,22.3
	c0,6.7-3,11.8-5.9,14c-2.9-2.2-5.9-7.3-5.9-14c-0.1-1.9,0.6-3.7,1.9-5c1-1,2.5-1.6,3.9-1.6h0.2c1.4,0,2.8,0.6,3.9,1.6
	C41.5,18.7,42.1,20.5,42.1,22.3L42.1,22.3z M28,32.6c-1.1-0.2-2.1,0.3-2.6,1.3L24,37.3l-12.4-3.6L13,30c0.1-0.4,0.2-0.8,0.1-1.2
	l-1.8-10.3c-0.1-0.6-0.6-1.2-1.1-1.5h-0.1l-5.9-3l0.2-0.6l5.7,0.5h0.4c0.6-0.1,1.2-0.4,1.6-0.9c0.4-0.4,0.5-1,0.5-1.5l-0.1-1.9
	l2.6,1.2c0.9,0.4,1.9,0.1,2.5-0.6l3.9-4.4c0.1-0.1,0.1-0.1,0.1-0.2l0.9-1.2l4.7,4.1c0.2,0.2,0.4,0.4,0.6,0.5L28,9l8.7,2.9l-0.2,0.9
	h-0.3c-2.3,0-4.5,0.9-6.1,2.4c-1.9,1.9-2.9,4.5-2.8,7.1c0,3.7,0.8,7.4,2.5,10.7L28,32.6z"/>
</svg>
