<?xml version="1.0" encoding="utf-8"?>
<!-- Generator: Adobe Illustrator 24.0.1, SVG Export Plug-In . SVG Version: 6.00 Build 0)  -->
<svg version="1.1" id="PICTOS_vectos" xmlns="http://www.w3.org/2000/svg" xmlns:xlink="http://www.w3.org/1999/xlink" x="0px"
	 y="0px" viewBox="0 0 46.1 46.1" style="enable-background:new 0 0 46.1 46.1;" xml:space="preserve">
<style type="text/css">
	.st0{fill:#25465F;}
</style>
<path class="st0" d="M39.6,30.8l-3.1-8.6l2.7-7.2c0-0.1,0.1-0.2,0.1-0.3l0.5-3.1c0.1-1.1-0.5-2.1-1.5-2.5l-9.1-3l-5.3-4.6
	c-0.4-0.4-1-0.6-1.6-0.6c-0.6,0-1.1,0.3-1.5,0.7c-0.1,0.1-0.1,0.1-0.1,0.2l-1.3,1.8l0,0l-3.6,4l-3.2-1.4c-1.1-0.5-2.4,0-2.9,1.1
	c0,0,0,0.1-0.1,0.1C9.4,7.8,9.4,8.1,9.3,8.4l0.1,2.3l-5.3-0.5c-1-0.1-2,0.5-2.3,1.4l-0.6,1.8c-0.4,1,0,2.2,1,2.8l6.2,3.2l1.7,9.8
	l-1.6,4.1c-0.2,0.6-0.2,1.2,0.1,1.8c0.3,0.5,0.7,1,1.3,1.1H10l13.7,4c0.2,0.1,0.5,0.1,0.7,0.1c0.9,0,1.7-0.5,2-1.4l1.5-3.4l5,1.5
	c0.5,0.1,1,0,1.4-0.3l4.9-4.3C39.6,32,39.8,31.4,39.6,30.8z M22.9,3.8L22.9,3.8z M32.9,34L28,32.6c-1.1-0.2-2.1,0.3-2.6,1.3L24,37.3
	l-12.4-3.6L13,30c0.1-0.4,0.2-0.8,0.1-1.2l-1.8-10.3c-0.1-0.7-0.5-1.2-1.1-1.6h-0.1l-5.9-3l0.2-0.6l5.7,0.5h0.3
	c0.6-0.1,1.2-0.4,1.6-0.9c0.4-0.4,0.5-1,0.5-1.5l-0.1-1.9l2.6,1.1h0.1c0.9,0.3,1.9,0.1,2.5-0.6l3.9-4.4c0.1-0.1,0.1-0.1,0.1-0.2
	l0.9-1.2l4.7,4.1c0.2,0.2,0.4,0.3,0.6,0.4L28,9l8.7,2.9L36.3,14l-2.8,7.7c-0.1,0.3-0.1,0.7,0,1l2.9,8.2L32.9,34z"/>
<path class="st0" d="M41.2,34.6c-1.2,0-2.2,2.1-2.2,4.7s1,4.6,2.2,4.6s2.2-2.1,2.2-4.6S42.5,34.6,41.2,34.6z"/>
</svg>
