<?xml version="1.0" encoding="utf-8"?>
<!-- Generator: Adobe Illustrator 24.0.1, SVG Export Plug-In . SVG Version: 6.00 Build 0)  -->
<svg version="1.1" id="PICTOS_vectos" xmlns="http://www.w3.org/2000/svg" xmlns:xlink="http://www.w3.org/1999/xlink" x="0px"
	 y="0px" viewBox="0 0 45.9 45.9" style="enable-background:new 0 0 45.9 45.9;" xml:space="preserve">
<style type="text/css">
	.st0{fill:#25465F;}
</style>
<path class="st0" d="M23,18.1c-2.6,0-4.6,1-4.7,2.2c0,1.2,2.1,2.2,4.7,2.2c2.6,0,4.6-1,4.6-2.2C27.7,19.1,25.6,18.1,23,18.1z"/>
<path class="st0" d="M42.8,18.1c-0.6-4.2-4.3-7.4-8.5-7.3c-2.1,0-4,0.7-5.6,2.1H17.3c-1.5-1.3-3.5-2.1-5.6-2.1
	c-4.2,0-7.8,3.1-8.5,7.3C3.1,18.8,1,31.9,1,32.8c0,3.1,2.4,5.6,5.5,5.7c2,0,3.8-1,4.8-2.7c0.6-0.8,1.9-2.9,3.2-4.9
	c0.6-1,1.3-2.1,1.8-2.7c2.4,0,10.8,0,13.1,0c0.5,0.8,1.6,2.4,2.4,3.7c1,1.6,2,3.2,2.6,3.9c1.6,2.6,5,3.5,7.7,1.9
	c1.7-1,2.7-2.9,2.7-4.9C44.9,31.9,42.9,18.8,42.8,18.1z M39.4,35.4c-0.9,0-1.8-0.5-2.2-1.3L37,34c-0.5-0.6-1.5-2.3-2.5-3.8
	c-3.1-4.8-3.1-4.8-3.9-5c-0.1,0-5.7-0.1-10.2-0.1c-1.8-0.1-3.5,0-5.3,0.2c-0.6,0.2-0.6,0.2-3,4C11,31,9.5,33.3,9,34
	C9,34,9,34.1,9,34.1c-0.5,0.8-1.3,1.3-2.3,1.3c-1.4,0-2.6-1.1-2.7-2.5c0,0,0,0,0,0C4,32,5.9,20,6.2,18.6c0.4-2.7,2.8-4.8,5.6-4.8
	c1.5,0,2.9,0.6,3.9,1.6c0.3,0.3,0.7,0.5,1.1,0.4h12.5c0.4,0,0.8-0.2,1.1-0.4c1-1,2.5-1.6,3.9-1.6c2.8,0,5.2,2.1,5.6,4.9
	c0.2,1.2,2.1,13.3,2.1,14.1C42,34.2,40.8,35.4,39.4,35.4C39.4,35.4,39.4,35.4,39.4,35.4z"/>
<path class="st0" d="M13.9,18.4h-0.5v-0.5c0-0.8-0.7-1.5-1.5-1.5s-1.5,0.7-1.5,1.5v0.5H9.8c-0.8,0-1.5,0.7-1.5,1.5
	c0,0.8,0.7,1.5,1.5,1.5h0.5v0.5c0,0.8,0.7,1.5,1.5,1.5s1.5-0.7,1.5-1.5v-0.5h0.5c0.8,0,1.5-0.7,1.5-1.5
	C15.4,19.1,14.7,18.4,13.9,18.4z"/>
<path class="st0" d="M33,20.1c0-0.8-0.7-1.5-1.5-1.5h-0.2c-0.8,0-1.5,0.7-1.5,1.5c0,0.8,0.7,1.5,1.5,1.5h0.2
	C32.4,21.6,33,20.9,33,20.1z"/>
<path class="st0" d="M36.7,18.6h-0.2c-0.8,0-1.5,0.7-1.5,1.5c0,0.8,0.7,1.5,1.5,1.5h0.2c0.8,0,1.5-0.7,1.5-1.5
	C38.2,19.2,37.5,18.6,36.7,18.6z"/>
<path class="st0" d="M34,21.1c-0.8,0-1.5,0.7-1.5,1.5v0.2c0,0.8,0.7,1.5,1.5,1.5s1.5-0.7,1.5-1.5v-0.2C35.5,21.8,34.9,21.1,34,21.1z
	"/>
<path class="st0" d="M34,19.2c0.8,0,1.5-0.7,1.5-1.5v-0.2c0-0.8-0.7-1.5-1.5-1.5s-1.5,0.7-1.5,1.5v0.2C32.5,18.6,33.2,19.2,34,19.2z
	"/>
</svg>
