<?xml version="1.0" encoding="utf-8"?>
<!-- Generator: Adobe Illustrator 24.0.1, SVG Export Plug-In . SVG Version: 6.00 Build 0)  -->
<svg version="1.1" id="PICTOS_vectos" xmlns="http://www.w3.org/2000/svg" xmlns:xlink="http://www.w3.org/1999/xlink" x="0px"
	 y="0px" viewBox="0 0 46 46" style="enable-background:new 0 0 46 46;" xml:space="preserve">
<style type="text/css">
	.st0{fill:#25465F;}
</style>
<path class="st0" d="M23,20.1c2.6,0,4.6-1,4.6-2.2s-2.1-2.2-4.6-2.3c-2.6,0-4.6,1-4.7,2.2S20.5,20.1,23,20.1z"/>
<path class="st0" d="M11,24.8h-0.5v-0.5c0-0.8-0.7-1.5-1.5-1.5s-1.5,0.7-1.5,1.5v0.5H6.9c-0.8,0-1.5,0.7-1.5,1.5
	c0,0.8,0.7,1.5,1.5,1.5h0.5v0.5c0,0.8,0.7,1.5,1.5,1.5s1.5-0.7,1.5-1.5v-0.5H11c0.8,0,1.5-0.7,1.5-1.5C12.5,25.5,11.8,24.8,11,24.8z
	"/>
<path class="st0" d="M35.7,26.5c0-0.8-0.7-1.5-1.5-1.5h-0.2c-0.8,0-1.5,0.7-1.5,1.5c0,0.8,0.7,1.5,1.5,1.5h0.2
	C35.1,28,35.7,27.3,35.7,26.5z"/>
<path class="st0" d="M39.2,25c-0.8,0-1.5,0.7-1.5,1.5c0,0.8,0.7,1.5,1.5,1.5h0.2c0.8,0,1.5-0.7,1.5-1.5c0-0.8-0.7-1.5-1.5-1.5H39.2z
	"/>
<path class="st0" d="M36.7,27.6c-0.8,0-1.5,0.7-1.5,1.5v0.2c0,0.8,0.7,1.5,1.5,1.5s1.5-0.7,1.5-1.5v-0.2
	C38.2,28.2,37.5,27.6,36.7,27.6z"/>
<path class="st0" d="M36.7,25.7c0.8,0,1.5-0.7,1.5-1.5l0,0V24c0-0.8-0.7-1.5-1.5-1.5s-1.5,0.7-1.5,1.5v0.2
	C35.2,25,35.8,25.7,36.7,25.7L36.7,25.7z"/>
<path class="st0" d="M30.1,21.2H15.9c-0.8,0-1.5,0.7-1.5,1.5v7.8c0,0.8,0.7,1.5,1.5,1.5h14.2c0.8,0,1.5-0.7,1.5-1.5v-7.8
	C31.6,21.9,30.9,21.2,30.1,21.2z M28.6,29H17.4v-4.8h11.2V29z"/>
<path class="st0" d="M34.5,11.5h-23C5.7,11.5,1,16.2,1,22v4.6c0,5.8,4.7,10.5,10.5,10.5h23c5.8,0,10.5-4.7,10.5-10.5V22
	C45,16.2,40.3,11.5,34.5,11.5C34.5,11.5,34.5,11.5,34.5,11.5z M42,26.6c0,4.1-3.4,7.5-7.5,7.5h-23c-4.1,0-7.5-3.4-7.5-7.5V22
	c0-4.1,3.4-7.5,7.5-7.5h23c4.1,0,7.5,3.4,7.5,7.5V26.6z"/>
</svg>
