<?xml version="1.0" encoding="utf-8"?>
<!-- Generator: Adobe Illustrator 24.0.1, SVG Export Plug-In . SVG Version: 6.00 Build 0)  -->
<svg version="1.1" id="PICTOS_vectos" xmlns="http://www.w3.org/2000/svg" xmlns:xlink="http://www.w3.org/1999/xlink" x="0px"
	 y="0px" viewBox="0 0 46.1 46.1" style="enable-background:new 0 0 46.1 46.1;" xml:space="preserve">
<style type="text/css">
	.st0{fill:#25465F;}
</style>
<path class="st0" d="M23,11.4c-12.1,0-21.9,9.7-22,21.8c0,0.8,0.7,1.5,1.5,1.5h41c0.8,0,1.5-0.7,1.5-1.5
	C44.9,21.1,35.1,11.4,23,11.4z M21.8,30.7c0-1,0.8-1.8,1.8-1.8s1.8,0.8,1.8,1.8c0,0.3-0.1,0.7-0.3,0.9h-3
	C21.9,31.4,21.8,31.1,21.8,30.7z M26.7,31.7c0.1-0.3,0.2-0.7,0.2-1c0-0.2,0-0.5-0.1-0.7c1.5,0.1,3.1-0.4,4.3-1.3
	c2.1-1.4,3.2-3.4,2.5-4.4c-0.7-1-3-0.7-5.1,0.8c-1.2,0.7-2.2,1.9-2.7,3.2c-0.6-0.6-1.4-0.9-2.2-0.9c-1.8,0-3.3,1.5-3.3,3.3l0,0
	c0,0.3,0.1,0.7,0.2,1H4.1c0.1-1,0.3-2,0.5-3l2.9,0.8c0.1,0,0.3,0.1,0.4,0.1c0.7,0,1.3-0.5,1.4-1.2c0.2-0.8-0.2-1.6-1-1.8
	c0,0,0,0,0,0l-2.7-0.7c1-2.4,2.5-4.6,4.5-6.4l3,2.7c0.3,0.2,0.6,0.4,1,0.4c0.4,0,0.8-0.2,1.1-0.5c0.6-0.6,0.5-1.5-0.1-2.1
	c0,0,0,0,0,0l-2.6-2.4c2.7-1.8,5.7-2.9,8.9-3.1v3.3c0,0.8,0.7,1.5,1.5,1.5s1.5-0.7,1.5-1.5v-3.3c3.4,0.2,6.7,1.4,9.5,3.4l-2.3,2.4
	c-0.6,0.6-0.6,1.5,0,2.1c0,0,0,0,0,0c0.6,0.6,1.5,0.6,2.1,0l2.6-2.6c1.8,1.7,3.3,3.8,4.2,6.1l-2.7,0.7c-0.8,0.2-1.3,1-1.1,1.8
	c0.2,0.7,0.8,1.1,1.5,1.1c0.1,0,0.3,0,0.4-0.1l2.9-0.8c0.3,1,0.4,2,0.5,3L26.7,31.7z"/>
</svg>
