<?xml version="1.0" encoding="utf-8"?>
<!-- Generator: Adobe Illustrator 24.0.1, SVG Export Plug-In . SVG Version: 6.00 Build 0)  -->
<svg version="1.1" id="PICTOS_vectos" xmlns="http://www.w3.org/2000/svg" xmlns:xlink="http://www.w3.org/1999/xlink" x="0px"
	 y="0px" viewBox="0 0 46.2 46.2" style="enable-background:new 0 0 46.2 46.2;" xml:space="preserve">
<style type="text/css">
	.st0{fill:#25465F;}
</style>
<path class="st0" d="M38.7,24.6c5.6-2.8,8-9.6,5.2-15.3s-9.6-8-15.3-5.2C23.4,6.7,21,12.6,22.8,18C10.8,18.1,1.1,27.9,1,39.9
	c0,0.8,0.6,1.5,1.5,1.5c0,0,0,0,0,0h41c0.8,0,1.5-0.7,1.5-1.5c0,0,0,0,0,0C45,34.1,42.7,28.7,38.7,24.6z M33.6,6
	c4.6,0,8.4,3.8,8.4,8.4s-3.8,8.4-8.4,8.4s-8.4-3.8-8.4-8.4S29,6,33.6,6L33.6,6z M21.8,37.3c0-1,0.8-1.8,1.8-1.8c1,0,1.8,0.8,1.8,1.8
	c0,0.4-0.1,0.7-0.3,1h-2.9C21.9,38,21.8,37.7,21.8,37.3z M26.7,38.3c0.1-0.3,0.2-0.7,0.2-1c0-0.2,0-0.5-0.1-0.7
	c1.5,0.1,3.1-0.4,4.3-1.3c2.1-1.4,3.2-3.4,2.5-4.4s-3-0.7-5.1,0.8c-1.2,0.7-2.2,1.9-2.7,3.3c-0.6-0.6-1.4-0.9-2.2-0.9
	c-1.8,0-3.3,1.5-3.3,3.3c0,0.3,0.1,0.7,0.2,1H4.1c0.1-1,0.3-2.1,0.5-3.1L7.5,36c0.1,0,0.3,0.1,0.4,0.1c0.7,0,1.3-0.5,1.4-1.1
	c0.2-0.8-0.3-1.6-1-1.8c0,0,0,0,0,0l-2.7-0.7c1-2.4,2.6-4.5,4.5-6.3l2.9,2.7c0.3,0.2,0.6,0.4,1,0.4c0.8,0,1.5-0.7,1.5-1.5
	c0-0.4-0.2-0.8-0.5-1.1l-2.6-2.4c2.6-1.8,5.7-2.9,8.9-3.2v3.3c0,0.8,0.7,1.5,1.5,1.5s1.5-0.7,1.5-1.5v-3.3h0
	c1.9,2.7,4.9,4.4,8.2,4.7l-1,1c-0.6,0.6-0.6,1.5,0,2.1c0.3,0.3,0.7,0.4,1.1,0.4c0.4,0,0.8-0.2,1.1-0.4l2.5-2.5
	c1.8,1.7,3.2,3.8,4.2,6.1l-2.7,0.7c-0.8,0.2-1.3,1-1.1,1.8c0,0,0,0,0,0c0.2,0.7,0.8,1.1,1.5,1.1c0.1,0,0.3,0,0.4-0.1l2.9-0.8
	c0.3,1,0.5,2,0.5,3.1L26.7,38.3z"/>
<path class="st0" d="M32.1,20.4c0,0.8,0.7,1.5,1.5,1.5s1.5-0.7,1.5-1.5v-4.5h4.5c0.8,0,1.5-0.7,1.5-1.5s-0.7-1.5-1.5-1.5h-4.5V8.4
	c0-0.8-0.7-1.5-1.5-1.5s-1.5,0.7-1.5,1.5v4.5h-4.5c-0.8,0-1.5,0.7-1.5,1.5s0.7,1.5,1.5,1.5l0,0h4.5V20.4z"/>
</svg>
