<?xml version="1.0" encoding="utf-8"?>
<!-- Generator: Adobe Illustrator 24.0.1, SVG Export Plug-In . SVG Version: 6.00 Build 0)  -->
<svg version="1.1" id="PICTOS_vectos" xmlns="http://www.w3.org/2000/svg" xmlns:xlink="http://www.w3.org/1999/xlink" x="0px"
	 y="0px" viewBox="0 0 46.2 46.2" style="enable-background:new 0 0 46.2 46.2;" xml:space="preserve">
<style type="text/css">
	.st0{fill:#25465F;}
</style>
<path class="st0" d="M38.8,24.7c0.5-0.3,1.1-0.6,1.6-0.9c5.2-3.6,6.4-10.7,2.8-15.9c-3.6-5.2-10.7-6.4-15.9-2.8
	C23.1,8,21.4,13.2,23,18C10.9,18,1.1,27.8,1,39.9c0,0.4,0.2,0.8,0.4,1.1c0.3,0.3,0.7,0.4,1.1,0.4h41c0.8,0,1.5-0.7,1.5-1.5
	c0,0,0,0,0,0C45,34.2,42.7,28.7,38.8,24.7z M29,7.5c1.4-1,3.1-1.5,4.8-1.5c0.5,0,1,0,1.5,0.1c2.2,0.4,4.2,1.6,5.4,3.5
	c2.7,3.8,1.7,9-2,11.7c-3.8,2.7-9,1.7-11.7-2S25.2,10.2,29,7.5C29,7.5,29,7.5,29,7.5z M21.8,37.3c0-1,0.8-1.8,1.8-1.8
	c1,0,1.8,0.8,1.8,1.8c0,0.4-0.1,0.7-0.3,1h-2.9C21.9,38,21.8,37.7,21.8,37.3z M26.7,38.3c0.1-0.3,0.2-0.7,0.2-1c0-0.2,0-0.5-0.1-0.7
	c1.5,0.1,3.1-0.4,4.3-1.3c2.1-1.4,3.2-3.4,2.5-4.4s-3-0.7-5.1,0.8c-1.2,0.7-2.2,1.9-2.7,3.3c-1.3-1.2-3.4-1.1-4.6,0.2
	c-0.6,0.6-0.9,1.4-0.9,2.2c0,0.3,0.1,0.7,0.2,1H4.1c0.1-1,0.3-2.1,0.6-3.1L7.5,36c0.1,0,0.3,0.1,0.4,0.1c0.8,0.1,1.6-0.5,1.7-1.3
	c0.1-0.8-0.5-1.6-1.3-1.7l-2.7-0.6c1-2.4,2.6-4.5,4.5-6.3l2.9,2.7c0.3,0.2,0.6,0.4,1,0.4c0.4,0,0.8-0.2,1.1-0.5
	c0.6-0.6,0.5-1.6-0.1-2.1c0,0,0,0,0,0l-2.6-2.4c2.6-1.8,5.7-2.9,8.9-3.2v3.3c0,0.8,0.7,1.5,1.5,1.5s1.5-0.7,1.5-1.5v-3.3h0.2
	c1.9,2.6,4.8,4.3,8,4.6l-1,1c-0.6,0.6-0.6,1.5,0,2.1c0,0,0,0,0,0c0.6,0.6,1.5,0.6,2.1,0l2.5-2.5c1.8,1.7,3.2,3.8,4.2,6.1l-2.7,0.7
	c-0.8,0.1-1.4,0.9-1.3,1.7s0.9,1.4,1.7,1.3c0.1,0,0.3,0,0.4-0.1l2.9-0.8c0.3,1,0.4,2,0.5,3.1L26.7,38.3z"/>
<path class="st0" d="M28,15.9h1c0.1,0.3,0.2,0.6,0.3,0.8l-0.7,0.7c-0.6,0.6-0.6,1.5,0,2.1c0.3,0.3,0.7,0.4,1.1,0.4
	c0.4,0,0.8-0.2,1.1-0.4l0.7-0.7c0.3,0.1,0.5,0.3,0.8,0.4v1c0,0.8,0.7,1.5,1.5,1.5s1.5-0.7,1.5-1.5v-1c0.3-0.1,0.6-0.2,0.8-0.4
	l0.7,0.7c0.3,0.3,0.7,0.4,1.1,0.4c0.4,0,0.8-0.1,1.1-0.4c0.6-0.6,0.6-1.5,0-2.1c0,0,0,0,0,0l-0.7-0.7c0.1-0.3,0.3-0.5,0.3-0.8h1
	c0.8,0,1.5-0.7,1.5-1.5s-0.7-1.5-1.5-1.5h-1c-0.1-0.3-0.2-0.6-0.3-0.8l0.7-0.7c0.6-0.6,0.5-1.6-0.1-2.1c-0.6-0.5-1.5-0.5-2,0
	L36.1,10c-0.3-0.1-0.5-0.3-0.8-0.3v-1c0-0.8-0.7-1.5-1.5-1.5s-1.5,0.7-1.5,1.5v1C32,9.7,31.7,9.9,31.5,10l-0.7-0.7
	c-0.6-0.6-1.5-0.6-2.1,0c0,0,0,0,0,0c-0.6,0.6-0.6,1.5,0,2.1l0.7,0.7c-0.1,0.3-0.2,0.6-0.3,0.8h-1c-0.8,0-1.5,0.7-1.5,1.5
	S27.2,16,28,15.9L28,15.9z M31.8,14c0.1-0.5,0.4-1,0.8-1.3c0.9-0.6,2.2-0.4,2.9,0.5l0,0c0.7,0.9,0.4,2.2-0.5,2.9c0,0,0,0,0,0
	c-0.4,0.3-1,0.4-1.5,0.3c-0.5-0.1-1-0.4-1.3-0.8C31.8,15.1,31.7,14.6,31.8,14L31.8,14z"/>
</svg>
