<?xml version="1.0" encoding="utf-8"?>
<!-- Generator: Adobe Illustrator 24.0.1, SVG Export Plug-In . SVG Version: 6.00 Build 0)  -->
<svg version="1.1" id="PICTOS_vectos" xmlns="http://www.w3.org/2000/svg" xmlns:xlink="http://www.w3.org/1999/xlink" x="0px"
	 y="0px" viewBox="0 0 46.1 46.1" style="enable-background:new 0 0 46.1 46.1;" xml:space="preserve">
<style type="text/css">
	.st0{fill:#25465F;}
</style>
<path class="st0" d="M41.5,10h-37C3.7,10,3,10.7,3,11.5c0,0,0,0,0,0V21c0,0.8,0.7,1.5,1.5,1.5h1v20.9c0,0.8,0.6,1.5,1.5,1.5
	c0,0,0,0,0,0h32.3c0.8,0,1.5-0.7,1.5-1.5V22.5h0.8c0.8,0,1.5-0.7,1.5-1.5c0,0,0,0,0,0v-9.5C43,10.7,42.4,10,41.5,10z M40,19.5h-0.6
	h-0.2H39H24.6V13H40V19.5z M6,13h15.6v6.5H7.2H7H6.8H6V13z M37.8,41.9H8.5V22.5h13.1V37c0,0.8,0.7,1.5,1.5,1.5s1.5-0.7,1.5-1.5V22.5
	h13.2V41.9z"/>
<path class="st0" d="M28.7,6.3c1.5-2.1,1.8-4.4,0.8-5.1s-3,0.5-4.5,2.6s-1.8,4.3-0.8,5S27.3,8.4,28.7,6.3z"/>
<path class="st0" d="M21.8,8.8c1-0.7,0.6-3-0.9-5.1s-3.4-3.2-4.4-2.5s-0.7,3,0.8,5.1S20.8,9.5,21.8,8.8z"/>
</svg>
