<?xml version="1.0" encoding="utf-8"?>
<!-- Generator: Adobe Illustrator 24.0.1, SVG Export Plug-In . SVG Version: 6.00 Build 0)  -->
<svg version="1.1" id="PICTOS_vectos" xmlns="http://www.w3.org/2000/svg" xmlns:xlink="http://www.w3.org/1999/xlink" x="0px"
	 y="0px" viewBox="0 0 46 46" style="enable-background:new 0 0 46 46;" xml:space="preserve">
<style type="text/css">
	.st0{fill:#25465F;}
</style>
<path class="st0" d="M18.4,10.1l-2.1,2.2l-1.2-1.1c-0.5-0.7-1.5-0.8-2.1-0.3c-0.7,0.5-0.8,1.5-0.3,2.1c0.1,0.1,0.2,0.2,0.4,0.3
	l2.3,2.2c0.3,0.3,0.6,0.4,1,0.4c0.4,0,0.8-0.2,1.1-0.5l3.1-3.3c0.6-0.6,0.5-1.6-0.1-2.1C19.9,9.6,19,9.6,18.4,10.1L18.4,10.1z"/>
<path class="st0" d="M32,11.8h-6.4c-0.8,0-1.5,0.7-1.5,1.5s0.7,1.5,1.5,1.5H32c0.8,0,1.5-0.7,1.5-1.5S32.8,11.8,32,11.8z"/>
<path class="st0" d="M28.8,30.4c-2.6,0-4.6,1-4.6,2.2s2,2.2,4.6,2.2s4.7-1,4.7-2.2C33.4,31.4,31.3,30.4,28.8,30.4z"/>
<path class="st0" d="M18.4,29.4l-2.1,2.2l-1.2-1.1c-0.5-0.6-1.5-0.7-2.1-0.2c-0.6,0.5-0.7,1.5-0.2,2.1c0.1,0.1,0.2,0.2,0.3,0.3
	l2.3,2.1c0.6,0.6,1.5,0.5,2.1,0l3.1-3.3c0.6-0.6,0.6-1.6,0-2.1C20,28.8,19,28.8,18.4,29.4z"/>
<path class="st0" d="M18.4,20l-2.1,2.2l-1.2-1.1c-0.6-0.5-1.6-0.5-2.1,0.1c-0.6,0.6-0.5,1.5,0.1,2.1c0,0,0,0,0,0l2.3,2.1
	c0.6,0.6,1.5,0.5,2.1-0.1l3.1-3.3c0.6-0.6,0.6-1.6,0-2.1C20,19.4,19,19.4,18.4,20z"/>
<path class="st0" d="M32,21.4h-6.4c-0.8,0-1.5,0.7-1.5,1.5s0.7,1.5,1.5,1.5H32c0.8,0,1.5-0.7,1.5-1.5S32.8,21.4,32,21.4z"/>
<path class="st0" d="M36.6,1H9.4c-2,0-3.6,1.6-3.6,3.6v36.7c0,2,1.6,3.6,3.6,3.6h27.2c2,0,3.6-1.6,3.6-3.6V4.6
	C40.2,2.6,38.6,1,36.6,1z M37.2,41.4c0,0.4-0.3,0.6-0.6,0.6H9.4c-0.4,0-0.6-0.3-0.6-0.6V4.6C8.8,4.3,9.1,4,9.4,4h27.2
	c0.4,0,0.6,0.3,0.6,0.6V41.4z"/>
</svg>
