<?xml version="1.0" encoding="utf-8"?>
<!-- Generator: Adobe Illustrator 24.0.1, SVG Export Plug-In . SVG Version: 6.00 Build 0)  -->
<svg version="1.1" id="PICTOS_vectos" xmlns="http://www.w3.org/2000/svg" xmlns:xlink="http://www.w3.org/1999/xlink" x="0px"
	 y="0px" viewBox="0 0 46.1 46.1" style="enable-background:new 0 0 46.1 46.1;" xml:space="preserve">
<style type="text/css">
	.st0{fill:#25465F;}
</style>
<path class="st0" d="M42.9,31.7l-4.7-4.6c1.2-1.4,1.1-3.5-0.2-4.8c-0.1-0.1-0.3-0.2-0.4-0.3l1.3-1.3c1.4-1.4,1.4-3.6,0-5
	c0,0,0,0,0,0c-0.2-0.2-0.4-0.4-0.7-0.5c0.2-0.4,0.2-0.8,0.2-1.3c0-1.9-1.6-3.5-3.5-3.5l0,0c-0.3,0-0.7,0-1,0.1
	c-0.2-0.3-0.4-0.5-0.6-0.8c-0.7-0.6-1.6-1-2.5-1l0,0c-0.9,0-1.8,0.4-2.5,1l-3.8,3.8l-2.9-2.9C22.6,8,22,5.2,20.1,3.2
	C18,1,14.7,0.4,11.9,1.5c-0.8,0.3-1.2,1.2-0.9,1.9c0.1,0.2,0.2,0.4,0.4,0.5l3.2,3.4l-1.4,1.3L10,5.3C9.7,5,9.2,4.8,8.7,4.9
	C8.2,5,7.8,5.3,7.5,5.7c-1.3,2.8-0.8,6,1.3,8.3c1,1.1,2.4,1.8,3.8,2.1c-2.4,2.6-3.7,6.1-3.5,9.7c-1.1-0.1-2.1,0.2-2.9,1L3,30
	c-1.4,1.3-1.4,3.6-0.1,4.9C3,35,3,35,3,35l9,9c1.3,1.4,3.6,1.4,4.9,0.1c0,0,0,0,0.1-0.1l3.2-3.2c0.8-0.8,1.1-1.8,1-2.9
	c0.3,0,0.6,0,0.8,0c3.4,0,6.7-1.4,9.2-3.8l1.6-1.6l4.5,4.5c0.7,0.7,1.7,1.2,2.7,1.2h0.1c1,0,1.9-0.3,2.7-1
	C44.4,35.7,44.4,33.3,42.9,31.7z M9.9,9.6l2.1,2.3c0.3,0.3,0.6,0.4,1,0.5c0.4,0,0.8-0.1,1.1-0.4l3.6-3.4C18.3,8,18.4,7,17.8,6.4
	c0,0,0,0,0,0l-2.2-2.3c0.9,0.1,1.8,0.6,2.4,1.3c1.2,1.4,1.5,3.3,0.7,5c-0.3,0.6-0.1,1.2,0.3,1.7l3.6,3.6l-0.3,0.3
	c-0.5,0.6-1.4,0.6-2,0c0,0,0,0,0,0l-2.5-2.5c-0.4-0.6-1.2-0.8-1.8-0.6c-1.7,0.8-3.7,0.4-5-0.9C10.4,11.3,10,10.5,9.9,9.6z
	 M18.1,38.7l-3.2,3.2c-0.2,0.2-0.5,0.2-0.7,0c0,0,0,0,0,0l-9-9c-0.2-0.2-0.2-0.5,0-0.7c0,0,0,0,0,0l3.2-3.3c0.1-0.1,0.2-0.1,0.4-0.1
	c0.1,0,0.3,0,0.4,0.1l9,9C18.3,38.1,18.4,38.4,18.1,38.7C18.2,38.6,18.2,38.6,18.1,38.7z M29.1,32c-2.7,2.7-6.8,3.6-10.4,2.3l-6-6
	c-1.3-3.6-0.4-7.7,2.3-10.4l1.6-1.5l1.6,1.6c1.7,1.7,4.5,1.7,6.2,0l6.2-6.2c0.2-0.2,0.5-0.2,0.7,0c0.2,0.2,0.2,0.5,0.1,0.7
	c-4,4-6.1,6.1-7.2,7.3l-0.8,0.8l0,0C23,21,23,21.2,23,21.5c0,0.8,0.7,1.5,1.5,1.5c0.4,0,0.8-0.2,1.1-0.4l7.9-8l0.2-0.2l1-1
	c0.2-0.2,0.5-0.2,0.7,0s0.2,0.5,0,0.7l-9,9.2l0,0c-0.6,0.8-0.8,1.4,0,2.1c0.3,0.3,0.7,0.5,1.1,0.5l0,0c0.4,0,0.8-0.2,1.1-0.4l0,0
	l7.7-7.6c0.2-0.2,0.5-0.2,0.7,0c0.2,0.2,0.2,0.5,0,0.7l0,0l-3.8,3.8l0,0l-3.8,3.8c-0.6,0.6-0.6,1.5,0,2.1c0.6,0.6,1.5,0.6,2.1,0
	l3.8-3.9c0.1-0.1,0.2-0.2,0.4-0.1c0.1,0,0.3,0.1,0.4,0.1c0.2,0.2,0.2,0.5,0,0.7L32,29.1c-0.1,0.1-0.2,0.1-0.3,0.2
	c-0.1,0.1-0.1,0.2-0.2,0.3L29.1,32z M40.8,35c-0.2,0.1-0.4,0.2-0.6,0.2c-0.2,0-0.5-0.1-0.6-0.3L35,30.4l1.2-1.2l4.6,4.6
	C41.1,34.1,41.1,34.7,40.8,35L40.8,35z"/>
<path class="st0" d="M7.1,31c-0.9,0.9-0.1,3,1.7,4.9s4,2.6,4.8,1.7s0.1-3.1-1.7-4.9C10.1,30.9,8,30.1,7.1,31z"/>
</svg>
