<?xml version="1.0" encoding="utf-8"?>
<!-- Generator: Adobe Illustrator 24.0.1, SVG Export Plug-In . SVG Version: 6.00 Build 0)  -->
<svg version="1.1" id="PICTOS_vectos" xmlns="http://www.w3.org/2000/svg" xmlns:xlink="http://www.w3.org/1999/xlink" x="0px"
	 y="0px" viewBox="0 0 46.1 46.1" style="enable-background:new 0 0 46.1 46.1;" xml:space="preserve">
<style type="text/css">
	.st0{fill:#25465F;}
</style>
<path class="st0" d="M19,7.5h5.1c0.4,0,0.8-0.3,0.8-0.8S24.5,6,24.1,6H19c-0.4,0-0.8,0.3-0.8,0.8S18.6,7.5,19,7.5z"/>
<path class="st0" d="M21.6,29.6c2.6,0,4.6-1,4.6-2.2s-2.1-2.2-4.6-2.3s-4.6,1-4.7,2.2S19,29.6,21.6,29.6z"/>
<path class="st0" d="M38.3,29.5H36c-0.9,0-1.8,0.4-2.5,1c-0.4-0.1-0.9-0.2-1.3-0.2V4.8c0-2.1-1.7-3.8-3.8-3.8c0,0,0,0,0,0H14.7
	c-2.1,0-3.8,1.7-3.8,3.8v24.7L10,29.1c-1-0.5-2.1-0.6-3.2-0.3c-0.9,0.3-1.6,0.8-2.1,1.5C4.1,31.1,3.9,32.1,4,33
	c0.1,1.1,0.7,2,1.6,2.6l1.9,1.3c1.7,1.2,3.8,2.6,5.9,4c1.8,1.1,3.2,2,4.4,2.6c1.2,0.8,2.6,1.2,4,1.3l0,0c1.8,0,3.6-0.2,5.4-0.5
	c2-0.4,4.1-0.5,6.2-0.4C34,44.6,35,45,36,45h2.4c1.9,0,3.5-1.6,3.5-3.5V33C41.9,31.1,40.3,29.5,38.3,29.5
	C38.4,29.5,38.4,29.5,38.3,29.5z M13.9,4.8c0-0.5,0.4-0.8,0.8-0.8h13.6c0.5,0,0.8,0.4,0.8,0.8v25.4c-1,0.1-2.1,0.3-3,0.6l-0.2,0
	c-0.7,0.3-1.5,0.4-2.2,0.5l-3.6-0.1c-1.3-0.1-2.5,0.4-3.4,1.3l-2.8-1.4V4.8z M26.8,41.3c-1.6,0.3-3.3,0.5-4.9,0.5l0,0
	c-0.9-0.2-1.8-0.5-2.6-1c-1.1-0.6-2.5-1.4-4.2-2.5c-2-1.3-4.2-2.8-5.8-3.9c-0.8-0.5-1.4-1-1.9-1.3C7.1,33,7,32.8,7,32.6
	c0-0.2,0-0.5,0.2-0.6c0.1-0.2,0.3-0.3,0.5-0.4c0.3-0.1,0.7-0.1,1,0.1l7.2,3.8c0.2,1.6,1.5,2.9,3.1,3.2h0.1l5.1,0.4h0.1
	c0.8,0,1.5-0.6,1.6-1.4s-0.6-1.5-1.4-1.6l-5-0.4c-0.4-0.1-0.7-0.4-0.6-0.8c0.1-0.5,0.6-0.7,1.1-0.6l3.7,0.1c1.1,0,2.1-0.2,3.1-0.6
	l0.2,0c1.1-0.4,2.3-0.6,3.5-0.6h0.2c0.6,0,1.2,0.1,1.9,0.2v7.5C30.6,40.8,28.7,41,26.8,41.3z M38.8,41.5c0,0.3-0.2,0.5-0.5,0.5H36
	c-0.3,0-0.5-0.2-0.5-0.5V33c0-0.3,0.2-0.5,0.5-0.5h2.4c0.3,0,0.5,0.2,0.5,0.5L38.8,41.5z"/>
</svg>
