<?xml version="1.0" encoding="utf-8"?>
<!-- Generator: Adobe Illustrator 24.0.1, SVG Export Plug-In . SVG Version: 6.00 Build 0)  -->
<svg version="1.1" id="PICTOS_vectos" xmlns="http://www.w3.org/2000/svg" xmlns:xlink="http://www.w3.org/1999/xlink" x="0px"
	 y="0px" viewBox="0 0 50.6 50.6" style="enable-background:new 0 0 50.6 50.6;" xml:space="preserve">
<style type="text/css">
	.st0{fill:#25465F;}
</style>
<path class="st0" d="M48.6,16.3l-9-9c-1.4-1.4-3.6-1.4-5,0l-3.2,3.2c-0.7,0.7-1,1.6-1,2.5c0,0.1,0,0.3,0,0.4
	c-1.7-0.1-3.4,0.1-5.1,0.7c-1.6-0.6-3.4-0.8-5.1-0.7c0-0.1,0-0.3,0-0.4c0-0.9-0.3-1.8-1-2.5L16,7.3c-1.4-1.3-3.6-1.3-5,0l-9,9
	c-1.4,1.4-1.4,3.6,0,5c0,0,0,0,0,0l0,0l3.2,3.3c0.7,0.6,1.6,1,2.5,1c0.1,0,0.3,0,0.4,0c-0.2,3.7,1.1,7.4,3.8,10l2.3,2.3
	c0,0,0.1,0,0.1,0.1c0.2,0.2,0.4,0.4,0.7,0.5c-0.1,0.3-0.1,0.7-0.1,1c0,1.9,1.6,3.5,3.5,3.5c0,0,0,0,0,0l0,0c0.4,0,0.9-0.1,1.3-0.2
	c0.1,0.2,0.3,0.5,0.5,0.7c1.4,1.4,3.6,1.4,5,0l1.3-1.3c0.1,0.1,0.2,0.3,0.4,0.4c1.4,1.4,3.6,1.4,5,0c0,0,0,0,0,0l6.8-6.8
	c2.6-2.6,4-6.3,3.8-10c0.1,0,0.3,0,0.4,0c0.9,0,1.8-0.4,2.5-1l3.2-3.3l0,0C50,19.9,50,17.7,48.6,16.3C48.6,16.3,48.6,16.3,48.6,16.3
	z M7.4,22.4l-3.2-3.2C4,19,4,18.9,4,18.8c0-0.1,0-0.3,0.1-0.4l9.1-9c0.2-0.2,0.5-0.2,0.7,0c0,0,0,0,0,0l3.3,3.2
	c0.2,0.2,0.2,0.5,0,0.7l-9,9C8,22.6,7.7,22.6,7.4,22.4C7.4,22.4,7.4,22.4,7.4,22.4z M11.7,23l6-6c3.6-1.3,7.7-0.4,10.4,2.3l4.6,4.6
	c0.3,0.3,0.5,0.7,0.5,1.1c0,0.3,0,0.6-0.2,0.9c-0.6,0.4-1.5,0.4-2.1-0.2l-3.1-3c-0.6-0.6-1.5-0.6-2.1,0c-1.9,1.9-4.9,1.9-6.8,0
	c-0.6-0.6-1.5-0.6-2.1,0c0,0,0,0,0,0c-0.6,0.6-0.6,1.5,0,2.1c1,1,2.1,1.6,3.4,2l-6,6c-0.1,0.1-0.2,0.3-0.4,0.4
	C11.3,30.5,10.5,26.5,11.7,23z M36.6,33.4l-6.8,6.9c-0.2,0.2-0.5,0.2-0.7,0c-0.2-0.2-0.2-0.5,0-0.7l3.8-3.8c0.6-0.6,0.5-1.6-0.1-2.1
	c-0.6-0.5-1.5-0.5-2,0l-7.6,7.6c-0.2,0.2-0.5,0.2-0.7,0c-0.2-0.2-0.2-0.5,0-0.7c0,0,0,0,0,0l7.7-7.7l0,0c0.6-0.6,0.6-1.5,0-2.1
	c-0.7-0.7-1.3-0.6-2.1,0l0,0l-9.1,9.1c-0.1,0.1-0.2,0.2-0.4,0.2l0,0c-0.1,0-0.3-0.1-0.4-0.2c-0.2-0.2-0.2-0.5,0-0.7c0,0,0,0,0,0l1-1
	l0.2-0.2l8-7.9c0.6-0.5,0.7-1.5,0.1-2.1c-0.3-0.4-0.8-0.5-1.3-0.5c-0.3,0-0.4,0-1,0.5l0,0l-0.8,0.8c-1.2,1.1-3.3,3.2-7.3,7.2
	c-0.1,0.1-0.2,0.1-0.3,0.1c-0.1,0-0.3-0.1-0.4-0.2c-0.1-0.1-0.2-0.2-0.1-0.4c0-0.1,0.1-0.3,0.1-0.4l6.2-6.2c0.5-0.5,0.9-1.1,1.1-1.8
	c1.1-0.2,2.1-0.6,3-1.2l2.1,2.1c0.9,0.9,2.1,1.4,3.3,1.4c1.1,0,2.2-0.4,3-1.2c0.8-0.9,1.2-2.1,1.1-3.2c-0.1-1.1-0.6-2.2-1.4-3
	l-4.6-4.6c-0.3-0.3-0.6-0.5-0.9-0.8c1.2,0,2.4,0.2,3.5,0.6l6,6C40.2,26.6,39.3,30.6,36.6,33.4z M46.5,19.1l-3.2,3.2
	c-0.2,0.2-0.5,0.2-0.7,0c0,0,0,0,0,0l-9-9c-0.2-0.2-0.2-0.5,0-0.7l3.3-3.2c0.2-0.2,0.5-0.2,0.7,0c0,0,0,0,0,0l9,9
	c0.1,0.1,0.1,0.2,0.1,0.4C46.6,18.9,46.6,19,46.5,19.1z"/>
<path class="st0" d="M35.7,11.5c-0.9,0.9-0.1,3.1,1.7,4.9s3.9,2.6,4.8,1.7c0.9-0.9,0.1-3-1.7-4.9S36.6,10.7,35.7,11.5z"/>
<path class="st0" d="M10.1,13.3c-1.8,1.8-2.6,3.9-1.7,4.8c0.9,0.9,3,0.1,4.9-1.7c1.9-1.8,2.6-4,1.7-4.9
	C14.1,10.7,11.9,11.5,10.1,13.3z"/>
</svg>
