<?xml version="1.0" encoding="utf-8"?>
<!-- Generator: Adobe Illustrator 24.0.1, SVG Export Plug-In . SVG Version: 6.00 Build 0)  -->
<svg version="1.1" id="PICTOS_vectos" xmlns="http://www.w3.org/2000/svg" xmlns:xlink="http://www.w3.org/1999/xlink" x="0px"
	 y="0px" viewBox="0 0 46.1 46.1" style="enable-background:new 0 0 46.1 46.1;" xml:space="preserve">
<style type="text/css">
	.st0{fill:#25465F;}
</style>
<path class="st0" d="M10.8,1L10.8,1C9.1,1,7.6,2.2,6.6,4.3c-0.9,2-1.3,4.2-1.3,6.5c0,4.4,1.5,8.1,3.8,9.3l0.2,0.1h0.1
	c0.4,0.2,0.8,0.2,1.3,0.2H11c0.5,0,1-0.1,1.5-0.1v12.3c0,0.1,0,0.1,0,0.2c0.1,1.1,1.1,2,2.5,2.3v8.5c0,0.8,0.7,1.5,1.5,1.5
	c0.8,0,1.5-0.7,1.5-1.5V35c1.5-0.4,2.5-1.3,2.5-2.5l0,0V10.7C20.4,5.4,16.1,1.1,10.8,1z M13.3,16.9c-0.8,0.3-1.7,0.5-2.6,0.5l0,0
	h-0.1l0,0h-0.1c-1-0.5-2.3-2.9-2.3-6.7c0-1.8,0.3-3.5,1-5.2c0.5-1,1-1.6,1.4-1.6h0.1c3.7,0,6.6,3,6.6,6.7v21.3
	c-0.3,0.1-0.7,0.2-1,0.1c-0.4,0-0.7-0.1-1-0.2V18.3c0-0.5-0.2-1-0.7-1.3C14.3,16.8,13.8,16.7,13.3,16.9z"/>
<path class="st0" d="M39.5,4.3C38.5,2.2,37,1,35.3,1l0,0c-5.4,0-9.7,4.3-9.7,9.7v21.8l0,0l0,0c0,1.2,1,2.1,2.5,2.5v8.5
	c0,0.8,0.7,1.5,1.5,1.5s1.5-0.7,1.5-1.5V35c1.5-0.4,2.4-1.2,2.5-2.3c0-0.1,0-0.1,0-0.2V20.3c0.5,0.1,1,0.1,1.5,0.1h0.2
	c0.4,0,0.8-0.1,1.2-0.2l0.1-0.1l0.2-0.1l0,0c2.3-1.2,3.8-4.8,3.8-9.3C40.8,8.6,40.4,6.4,39.5,4.3z M35.5,17.3L35.5,17.3L35.5,17.3
	h-0.2h-0.1c-0.9,0-1.7-0.2-2.5-0.5c-0.5-0.2-1-0.1-1.4,0.2c-0.4,0.3-0.7,0.7-0.7,1.2V32c-0.3,0.1-0.7,0.2-1.1,0.2l0,0
	c-0.3,0-0.6,0-1-0.1V10.7c0-3.7,3-6.7,6.6-6.7h0.1c0.3,0,0.9,0.5,1.4,1.6c0.7,1.6,1,3.4,1,5.2C37.7,14.6,36.4,16.9,35.5,17.3
	L35.5,17.3z"/>
<path class="st0" d="M11.4,6.2c-1.2,0-2.2,2.1-2.3,4.6s1,4.6,2.2,4.7s2.2-2.1,2.2-4.7S12.7,6.2,11.4,6.2z"/>
<path class="st0" d="M34.8,6.2c-1.2,0-2.2,2.1-2.2,4.6c0,2.6,1,4.6,2.2,4.7s2.2-2.1,2.2-4.7S36,6.2,34.8,6.2z"/>
</svg>
