<?xml version="1.0" encoding="utf-8"?>
<!-- Generator: Adobe Illustrator 24.0.1, SVG Export Plug-In . SVG Version: 6.00 Build 0)  -->
<svg version="1.1" id="PICTOS_vectos" xmlns="http://www.w3.org/2000/svg" xmlns:xlink="http://www.w3.org/1999/xlink" x="0px"
	 y="0px" viewBox="0 0 35.7 35.7" style="enable-background:new 0 0 35.7 35.7;" xml:space="preserve">
<style type="text/css">
	.st0{fill:#25465F;}
</style>
<path class="st0" d="M9.1,25.4c-1.2,0-2.2,2.1-2.3,4.6s1,4.6,2.2,4.7s2.2-2.1,2.2-4.7S10.3,25.4,9.1,25.4z"/>
<path class="st0" d="M27,25.4c-1.2,0-2.2,2.1-2.3,4.6s1,4.6,2.2,4.7s2.2-2.1,2.2-4.7S28.2,25.4,27,25.4z"/>
<path class="st0" d="M18.7,1h-1.5C8.8,1.1,2,7.9,2,16.4v13.1c0,0.8,0.7,1.5,1.5,1.5S5,30.3,5,29.4V16.4C5,9.6,10.4,4.1,17.2,4h1.5
	c6.8,0.1,12.2,5.6,12.2,12.4v13.1c0,0.8,0.7,1.5,1.5,1.5s1.5-0.7,1.5-1.5V16.4C33.9,7.9,27.1,1.1,18.7,1z"/>
</svg>
