<?xml version="1.0" encoding="utf-8"?>
<!-- Generator: Adobe Illustrator 24.0.1, SVG Export Plug-In . SVG Version: 6.00 Build 0)  -->
<svg version="1.1" id="PICTOS_vectos" xmlns="http://www.w3.org/2000/svg" xmlns:xlink="http://www.w3.org/1999/xlink" x="0px"
	 y="0px" viewBox="0 0 46 46" style="enable-background:new 0 0 46 46;" xml:space="preserve">
<style type="text/css">
	.st0{fill:#25465F;}
</style>
<path class="st0" d="M9.3,12.8c-1.5,2.1-1.8,4.3-0.8,5s3-0.4,4.5-2.6s1.8-4.4,0.8-5.1S10.8,10.6,9.3,12.8z"/>
<path class="st0" d="M43.6,10.8C40.1,3.1,33.4,3,33.1,3l0,0C29.2,3,25.6,4.7,23,7.6C20.4,4.7,16.8,3,12.9,3l0,0
	c-0.3,0-6.9,0.1-10.4,7.8S2,27.2,11.3,36c2.6,2.5,5.4,5,8.8,6.3c0.7,0.4,1.5,0.6,2.2,0.7c0.1,0,0.3,0,0.4,0h0.5c0.1,0,0.3,0,0.4,0
	c0.8-0.1,1.5-0.3,2.2-0.7c3.4-1.4,6.2-3.9,8.8-6.3C44,27.2,47.1,18.5,43.6,10.8z M32.6,33.8c-2.4,2.3-5,4.6-8,5.8l-0.2,0.1
	C24,39.9,23.5,40,23,40c-0.5,0-1-0.2-1.5-0.4l-0.2-0.1c-3-1.2-5.5-3.5-8-5.8C5,25.8,2.2,18.5,5.2,12.1C7.8,6.1,12.7,6,12.9,6
	c3.6,0,6.9,1.8,8.8,4.8c0.3,0.5,0.8,0.7,1.3,0.8l0,0c0.5,0,1-0.3,1.3-0.7c1.9-3,5.3-4.8,8.8-4.8c0,0,5,0.1,7.7,6.1
	C43.8,18.5,41,25.8,32.6,33.8L32.6,33.8z"/>
</svg>
