<?xml version="1.0" encoding="utf-8"?>
<!-- Generator: Adobe Illustrator 24.0.1, SVG Export Plug-In . SVG Version: 6.00 Build 0)  -->
<svg version="1.1" id="PICTOS_vectos" xmlns="http://www.w3.org/2000/svg" xmlns:xlink="http://www.w3.org/1999/xlink" x="0px"
	 y="0px" viewBox="0 0 56.2 56.2" style="enable-background:new 0 0 56.2 56.2;" xml:space="preserve">
<style type="text/css">
	.st0{fill:#25465F;}
</style>
<path class="st0" d="M54.5,9.6L53,8.1c-0.5-0.5-1.2-0.6-1.8-0.3l-3.4,1.8c-0.2,0.1-0.4,0.3-0.5,0.5l-0.9,1.4l-6.5,5
	c0.9-2.7,0.2-5.7-1.7-7.9c-2.3-2.5-5.9-3.3-9.1-2.1c-0.8,0.3-1.2,1.2-0.9,1.9c0.1,0.2,0.2,0.3,0.3,0.4l3.7,4.1l-1.9,1.7l-3.7-4.1
	c-0.3-0.4-0.8-0.6-1.3-0.5c-0.5,0.1-0.9,0.4-1.1,0.8C23,13.3,23,16,24,18.3l-3.3-1.8c-1-0.5-2.1-0.5-3.1,0L3,24.3
	c-1.6,0.8-2.2,2.8-1.4,4.4c0.6,1.1,1.7,1.7,2.9,1.7h0.1v17.2c0,1.4,1.1,2.5,2.5,2.6h24.1c1.4,0,2.5-1.2,2.5-2.5c0,0,0,0,0,0V34.4
	c0.5-0.5,1.1-0.9,1.6-1.5l0.1-0.1l3.8-4.2l6,6.5c0.7,0.8,1.8,1.3,2.9,1.4h0.2c1,0,2-0.4,2.8-1.1c1.7-1.6,1.8-4.2,0.3-5.9l-6.3-6.9
	l6-6.4l1.4-1c0.2-0.1,0.4-0.3,0.5-0.6l1.8-3.4C55.1,10.8,55,10.1,54.5,9.6z M29,17.9c0.6,0.6,1.5,0.7,2.1,0.1l4.2-3.8
	c0.3-0.3,0.5-0.6,0.5-1c0-0.4-0.1-0.8-0.4-1.1L32.6,9c1.3,0.1,2.5,0.7,3.4,1.6c1.4,1.6,1.7,4,0.7,5.9c-0.3,0.6-0.2,1.2,0.2,1.7
	l0.7,0.8l-2,1.4L35.2,20c-0.4-0.5-1.1-0.8-1.8-0.5c-2,0.9-4.4,0.4-5.9-1.2c-0.8-0.9-1.3-2.1-1.3-3.4L29,17.9z M7.6,47.2V29
	c0-0.8-0.7-1.5-1.5-1.5H4.5c-0.1,0-0.3-0.1-0.3-0.2c0,0,0,0,0,0c0-0.1,0-0.3,0.1-0.3L19,19.2c0.1,0,0.2,0,0.3,0l10.2,5.4l-0.9,0.6
	l-0.2,0.1c-1.3,1.1-2.5,2.4-3.4,3.9c-0.9,1.8-0.5,4,1,5.3c0.9,1.1,2.1,1.7,3.5,1.7c0.4,0,0.7-0.1,1.1-0.2v11L7.6,47.2z M33.2,30.8
	c-0.6,0.6-1.2,1.1-1.7,1.5c-1.8,1.4-2.4,1.1-3.2,0.2c-0.9-0.9-0.7-1.4-0.5-1.9c0.7-1.1,1.6-2.1,2.6-3l9.2-6.4l1.1,1.2L33.2,30.8z
	 M49,33.3c-0.2,0.2-0.5,0.3-0.8,0.3c-0.3,0-0.6-0.2-0.8-0.4l-6.2-6.7l1.6-1.8l6.3,6.9C49.5,32.1,49.5,32.9,49,33.3z M43,20.5
	L41.6,19l5.7-4.4l0.6,0.6L43,20.5z M50.5,13.1l-0.3,0.2l-0.9-0.8l0.2-0.3l2-1.1L50.5,13.1z"/>
<path class="st0" d="M19.2,36.6c-1.2,0-2.2,2.1-2.2,4.6s1,4.7,2.2,4.7s2.2-2.1,2.2-4.7S20.4,36.6,19.2,36.6z"/>
</svg>
