<?xml version="1.0" encoding="utf-8"?>
<!-- Generator: Adobe Illustrator 24.0.1, SVG Export Plug-In . SVG Version: 6.00 Build 0)  -->
<svg version="1.1" id="PICTOS_vectos" xmlns="http://www.w3.org/2000/svg" xmlns:xlink="http://www.w3.org/1999/xlink" x="0px"
	 y="0px" viewBox="0 0 46.1 46.1" style="enable-background:new 0 0 46.1 46.1;" xml:space="preserve">
<style type="text/css">
	.st0{fill:#25465F;}
</style>
<path class="st0" d="M15.9,24.9c-0.8,0.9,0,3,1.9,4.8s4.1,2.4,4.9,1.5s0-3.1-1.9-4.8S16.8,24,15.9,24.9z"/>
<path class="st0" d="M23.3,20.7h-17c-2,0-3.7,1.7-3.7,3.7v13.9c0,2,1.6,3.7,3.7,3.7c0,0,0,0,0,0h17c2,0,3.7-1.6,3.7-3.7V24.4
	C27.1,22.3,25.4,20.7,23.3,20.7C23.3,20.7,23.3,20.7,23.3,20.7z M24,38.2c0,0.4-0.3,0.7-0.7,0.7h-17c-0.4,0-0.7-0.3-0.7-0.7V24.4
	c0-0.4,0.3-0.7,0.7-0.7h17c0.4,0,0.7,0.3,0.7,0.7c0,0,0,0,0,0L24,38.2z"/>
<path class="st0" d="M23.1,4.1c-0.8-0.1-1.5,0.6-1.6,1.4s0.6,1.5,1.4,1.6c9.9,0.7,17.6,8.6,18.2,18.5c0,0.8,0.7,1.4,1.5,1.4h0.1
	c0.8,0,1.5-0.7,1.4-1.6c0,0,0,0,0,0C43.4,14.1,34.4,5,23.1,4.1z"/>
<path class="st0" d="M23.1,9.4c-0.8-0.1-1.6,0.5-1.6,1.4c-0.1,0.8,0.5,1.6,1.4,1.6c7,0.6,12.5,6.2,13,13.2c0.1,0.8,0.7,1.4,1.5,1.4
	h0.1c0.8-0.1,1.4-0.8,1.4-1.6C38.2,17,31.6,10.2,23.1,9.4z"/>
<path class="st0" d="M23.2,14.8c-0.8-0.1-1.6,0.4-1.7,1.3c0,0,0,0,0,0c-0.1,0.8,0.4,1.6,1.3,1.7c0,0,0,0,0,0c4.1,0.6,7.3,3.9,7.7,8
	c0.1,0.8,0.7,1.3,1.5,1.3h0.2c0.8-0.1,1.4-0.8,1.3-1.7C32.9,19.9,28.6,15.5,23.2,14.8z"/>
</svg>
