<?xml version="1.0" encoding="utf-8"?>
<!-- Generator: Adobe Illustrator 24.0.1, SVG Export Plug-In . SVG Version: 6.00 Build 0)  -->
<svg version="1.1" id="PICTOS_vectos" xmlns="http://www.w3.org/2000/svg" xmlns:xlink="http://www.w3.org/1999/xlink" x="0px"
	 y="0px" viewBox="0 0 46.1 46.1" style="enable-background:new 0 0 46.1 46.1;" xml:space="preserve">
<style type="text/css">
	.st0{fill:#25465F;}
</style>
<path class="st0" d="M23.2,35.4c1.2,0,2.2-2.1,2.3-4.6s-1-4.6-2.2-4.7S21,28.3,21,30.8S22,35.4,23.2,35.4z"/>
<path class="st0" d="M37.3,42.1h-1.8v-8.5c0-4.5-2.4-8.6-6.3-10.7c3.9-2.1,6.3-6.2,6.3-10.7V4.1h1.8c0.8,0,1.5-0.7,1.5-1.5
	s-0.7-1.5-1.5-1.5l0,0H8.8C8,1.1,7.3,1.7,7.3,2.6S8,4.1,8.8,4.1h2.2v8.1c0,4.5,2.4,8.6,6.4,10.7c-3.9,2.1-6.3,6.2-6.4,10.7v6.6l0,0
	v1.9H8.8c-0.8,0-1.5,0.7-1.5,1.5s0.7,1.5,1.5,1.5h28.4c0.8,0,1.5-0.7,1.5-1.5S38.1,42.1,37.3,42.1L37.3,42.1L37.3,42.1z M32.5,4.1
	v8.1c0,1.5-0.4,3-1.1,4.3c-2.6-0.9-5.4-1.4-8.1-1.3c-2.8,0-5.5,0.4-8.1,1.3c-0.7-1.3-1.1-2.8-1.1-4.3V4.1L32.5,4.1z M17.1,19
	c4-1.1,8.3-1.1,12.3,0C25.9,22.1,20.6,22.1,17.1,19z M23.3,24.4c5.1,0,9.2,4.1,9.2,9.2v4.9l-8.9-1.8c-0.2,0-0.4,0-0.6,0l-8.9,1.7
	v-4.8C14.1,28.5,18.2,24.3,23.3,24.4L23.3,24.4z M14.1,41.4l9.2-1.8l9.2,1.9v0.6H14.1V41.4z"/>
</svg>
