<?xml version="1.0" encoding="utf-8"?>
<!-- Generator: Adobe Illustrator 24.0.1, SVG Export Plug-In . SVG Version: 6.00 Build 0)  -->
<svg version="1.1" id="PICTOS_vectos" xmlns="http://www.w3.org/2000/svg" xmlns:xlink="http://www.w3.org/1999/xlink" x="0px"
	 y="0px" viewBox="0 0 46.1 46.1" style="enable-background:new 0 0 46.1 46.1;" xml:space="preserve">
<style type="text/css">
	.st0{fill:#25465F;}
</style>
<path class="st0" d="M30.2,14.2c0.8-2-0.2-4.3-2.2-5.1c-0.1,0-0.2-0.1-0.4-0.1C27.9,8.5,28,8,28,7.5V5.4c0-0.5-0.1-0.9-0.3-1.4h4.7
	c0.7,0,1.3,0.6,1.3,1.3v0c0,0.8,0.7,1.5,1.5,1.5s1.5-0.7,1.5-1.5c0-2.4-1.9-4.3-4.3-4.3H19c-0.8,0-1.5,0.7-1.5,1.5S18.2,4,19,4h0.5
	c-0.2,0.4-0.2,0.9-0.2,1.4v2.1c0,0.5,0.1,1,0.2,1.5c-2.1,0.6-3.3,2.8-2.6,4.9c0,0.1,0.1,0.2,0.1,0.4c-4.6,0.9-8,5-8,9.8v16.4
	c0,2.5,2,4.5,4.5,4.5h20.2c2.5,0,4.5-2,4.5-4.5V24C38.2,19.3,34.8,15.2,30.2,14.2z M26.5,11.8c0.5,0.2,0.8,0.7,0.7,1.3
	c-0.1,0.3-0.3,0.6-0.7,0.7h-5.8c-0.5-0.2-0.8-0.7-0.7-1.3c0.1-0.3,0.3-0.6,0.7-0.7H26.5z M25,5.4v2.1c0,0.8-0.6,1.4-1.4,1.4
	c-0.8,0-1.4-0.6-1.4-1.4c0,0,0,0,0,0V5.4c0-0.8,0.6-1.4,1.4-1.4C24.4,4,25,4.6,25,5.4z M19,17h9.2c3.9,0,7,3.1,7,7v2.2H12V24
	C12,20.1,15.1,17,19,17z M33.7,41.9H13.5c-0.8,0-1.5-0.7-1.5-1.5V27.7h23.2v12.7C35.2,41.2,34.5,41.9,33.7,41.9z"/>
<path class="st0" d="M23.6,32.6c-2.6,0-4.6,1-4.6,2.2s2,2.2,4.6,2.2s4.7-1,4.7-2.2S26.1,32.6,23.6,32.6z"/>
</svg>
