<?xml version="1.0" encoding="utf-8"?>
<!-- Generator: Adobe Illustrator 24.0.1, SVG Export Plug-In . SVG Version: 6.00 Build 0)  -->
<svg version="1.1" id="PICTOS_vectos" xmlns="http://www.w3.org/2000/svg" xmlns:xlink="http://www.w3.org/1999/xlink" x="0px"
	 y="0px" viewBox="0 0 46 46" style="enable-background:new 0 0 46 46;" xml:space="preserve">
<style type="text/css">
	.st0{fill:#25465F;}
</style>
<path class="st0" d="M19.1,13.3H9.9c-2,0-3.7,1.7-3.7,3.7v13.1c0,2,1.7,3.7,3.7,3.7l0,0h9.2c2,0,3.7-1.7,3.7-3.7c0,0,0,0,0,0V17
	C22.8,15,21.1,13.3,19.1,13.3L19.1,13.3z M19.8,30.1c0,0.4-0.3,0.7-0.7,0.7H9.9c-0.4,0-0.7-0.3-0.7-0.7l0,0V17
	c0-0.4,0.3-0.7,0.7-0.7h9.2c0.4,0,0.7,0.3,0.7,0.7V30.1z"/>
<path class="st0" d="M37.4,23.8h-8.8c-0.8,0-1.5,0.7-1.5,1.5s0.7,1.5,1.5,1.5h8.8c0.8,0,1.5-0.7,1.5-1.5S38.3,23.8,37.4,23.8z"/>
<path class="st0" d="M37.4,29.1h-8.8c-0.8,0-1.5,0.7-1.5,1.5s0.7,1.5,1.5,1.5h8.8c0.8,0,1.5-0.7,1.5-1.5S38.3,29.1,37.4,29.1z"/>
<path class="st0" d="M33.1,21.1c2.6,0,4.6-1,4.6-2.2c0-1.2-2.1-2.2-4.7-2.2s-4.6,1-4.7,2.2S30.5,21.1,33.1,21.1z"/>
<path class="st0" d="M41.3,7.2H4.7c-2,0-3.7,1.7-3.7,3.7l0,0v24.1c0,2,1.7,3.7,3.7,3.7c0,0,0,0,0,0h36.6c2,0,3.7-1.7,3.7-3.7V10.9
	C45,8.9,43.4,7.3,41.3,7.2z M42,35.1c0,0.4-0.3,0.7-0.7,0.7H4.7c-0.4,0-0.7-0.3-0.7-0.7V10.9c0-0.4,0.3-0.7,0.7-0.7l0,0h36.6
	c0.4,0,0.7,0.3,0.7,0.7L42,35.1z"/>
</svg>
