<?xml version="1.0" encoding="utf-8"?>
<!-- Generator: Adobe Illustrator 24.0.1, SVG Export Plug-In . SVG Version: 6.00 Build 0)  -->
<svg version="1.1" id="PICTOS_vectos" xmlns="http://www.w3.org/2000/svg" xmlns:xlink="http://www.w3.org/1999/xlink" x="0px"
	 y="0px" viewBox="0 0 46 46" style="enable-background:new 0 0 46 46;" xml:space="preserve">
<style type="text/css">
	.st0{fill:#25465F;}
</style>
<path class="st0" d="M19.9,11h6.1c0.4,0,0.8-0.3,0.8-0.8s-0.3-0.8-0.8-0.8h-6.1c-0.4,0-0.8,0.3-0.8,0.8S19.5,11,19.9,11z"/>
<path class="st0" d="M43.3,37.7c-3-8-6.9-13.9-11.5-17.3c0.8-0.9,1.5-2,2-3.1c1.2-0.7,2-2,2-3.5V9.6c0-2-1.5-3.7-3.5-4
	C28.3,0.5,21-0.5,15.9,3.4c-0.8,0.6-1.5,1.3-2.2,2.2c-2,0.3-3.5,2-3.5,4v4.3c0,1.4,0.8,2.8,2,3.5c0.5,1.2,1.2,2.2,2,3.1
	c-4.6,3.4-8.5,9.3-11.6,17.3c-0.2,0.4-0.1,0.9,0.1,1.3c0.3,0.6,3.6,6,20.2,6s19.9-5.4,20.2-6C43.4,38.6,43.5,38.1,43.3,37.7z
	 M16,17.9h4.7c0.6,0,1.2-0.3,1.5-0.8l0.8-0.5l0.8,0.5c0.4,0.5,0.9,0.7,1.5,0.8H30c-2.9,3.8-8.3,4.7-12.1,1.8
	C17.1,19.2,16.5,18.6,16,17.9z M13.2,9.6c0-0.6,0.5-1.1,1-1.1c0,0,0,0,0,0h17.4c0.6,0,1.1,0.5,1.1,1c0,0,0,0,0,0v4.3
	c0,0.6-0.5,1.1-1,1.1c0,0,0,0,0,0h-5.9l-0.1-0.1l-1.9-1.3c-0.5-0.3-1.2-0.3-1.7,0l-1.9,1.3l-0.1,0.1h-5.9c-0.6,0-1.1-0.5-1.1-1
	c0,0,0,0,0,0V9.6z M27.9,5.5h-9.7C21.1,3.5,25,3.5,27.9,5.5L27.9,5.5z M23,42C11.2,42,7,39.1,5.8,38c2.9-7.3,6.7-12.7,10.8-15.5
	c3.9,2.6,8.9,2.6,12.8,0c4.2,2.8,8,8.2,10.8,15.5C39,39.1,34.9,42,23,42z"/>
<path class="st0" d="M23,29.9c-2.6,0-4.6,1-4.6,2.2s2.1,2.2,4.7,2.2s4.6-1,4.6-2.2C27.6,31,25.6,29.9,23,29.9z"/>
</svg>
