<?xml version="1.0" encoding="utf-8"?>
<!-- Generator: Adobe Illustrator 24.0.1, SVG Export Plug-In . SVG Version: 6.00 Build 0)  -->
<svg version="1.1" id="PICTOS_vectos" xmlns="http://www.w3.org/2000/svg" xmlns:xlink="http://www.w3.org/1999/xlink" x="0px"
	 y="0px" viewBox="0 0 46 46" style="enable-background:new 0 0 46 46;" xml:space="preserve">
<style type="text/css">
	.st0{fill:#25465F;}
</style>
<path class="st0" d="M38.4,12.1H7.6c-3.7,0-6.6,3-6.6,6.6v6.6c0,3.6,2.9,6.5,6.5,6.6l10.6,2h0.3c0.9,0,1.7-0.5,2.1-1.3l2.5-3l2.5,3
	c0.4,0.8,1.2,1.4,2.1,1.3h0.3l10.6-2c3.6-0.1,6.5-3,6.5-6.6v-6.6C45,15.1,42,12.1,38.4,12.1z M42,25.3c0,2-1.6,3.6-3.6,3.6
	c-0.1,0-0.2,0-0.3,0l-10.2,1.9l0,0l-3.8-4.5c-0.3-0.3-0.7-0.5-1.2-0.5c-0.4,0-0.9,0.2-1.1,0.5l-3.8,4.5l0,0L7.9,28.9
	c-0.1,0-0.2,0-0.3,0c-2,0-3.6-1.6-3.6-3.6c0,0,0,0,0,0v-6.6c0-2,1.6-3.6,3.6-3.6h30.8c2,0,3.6,1.6,3.6,3.6V25.3z"/>
<path class="st0" d="M6.5,18.8c-1.5,2.1-1.8,4.3-0.8,5s3-0.4,4.5-2.6s1.8-4.4,0.8-5.1C10,15.5,8,16.7,6.5,18.8z"/>
<path class="st0" d="M29.3,16.7H17c-0.8,0-1.5,0.7-1.5,1.5c0,0.8,0.7,1.5,1.5,1.5h12.3c0.8,0,1.5-0.7,1.5-1.5
	C30.8,17.4,30.1,16.7,29.3,16.7z"/>
</svg>
