<?xml version="1.0" encoding="utf-8"?>
<!-- Generator: Adobe Illustrator 24.0.1, SVG Export Plug-In . SVG Version: 6.00 Build 0)  -->
<svg version="1.1" id="PICTOS_vectos" xmlns="http://www.w3.org/2000/svg" xmlns:xlink="http://www.w3.org/1999/xlink" x="0px"
	 y="0px" viewBox="0 0 46 46" style="enable-background:new 0 0 46 46;" xml:space="preserve">
<style type="text/css">
	.st0{fill:#25465F;}
</style>
<path class="st0" d="M11.6,37.9c0.3,0.3,0.7,0.5,1.1,0.5h20.5c0.4,0,0.8-0.2,1.1-0.5c0.3-0.3,0.4-0.7,0.4-1.2l-1.5-14.2l0,0
	c-1-7.6-7.5-7.6-10.2-7.6s-9.3,0-10.2,7.6l-1.5,14.2C11.2,37.2,11.4,37.6,11.6,37.9z M15.8,22.8c0.5-4.1,2.9-4.9,7.3-4.9
	s6.7,0.8,7.3,4.9l1.3,12.6H14.4L15.8,22.8z"/>
<path class="st0" d="M18.6,21c-1.8,1.8-2.5,3.9-1.7,4.8s3,0.1,4.9-1.7s2.6-4,1.7-4.8S20.5,19.2,18.6,21z"/>
<path class="st0" d="M36.3,39.4H9.8c-0.8,0-1.5,0.7-1.5,1.5s0.7,1.5,1.5,1.5h26.5c0.8,0,1.5-0.7,1.5-1.5S37.1,39.4,36.3,39.4z"/>
<path class="st0" d="M23.6,9.6c0.8,0,1.5-0.7,1.5-1.5v-3c0-0.8-0.7-1.5-1.5-1.5s-1.5,0.7-1.5,1.5v3C22.1,9,22.8,9.6,23.6,9.6z"/>
<path class="st0" d="M9,13.9c0.6,0.6,1.5,0.6,2.1,0c0.6-0.6,0.6-1.5,0-2.1l-2-2C8.5,9.3,7.5,9.4,7,10c-0.4,0.5-0.4,1.3,0,1.8L9,13.9
	z"/>
<path class="st0" d="M5.5,24.5h-3C1.7,24.5,1,25.2,1,26s0.7,1.5,1.5,1.5h3C6.3,27.5,7,26.9,7,26S6.3,24.5,5.5,24.5z"/>
<path class="st0" d="M35.9,14.3c0.4,0,0.8-0.2,1.1-0.4l2-2c0.6-0.6,0.6-1.5,0-2.1c-0.6-0.6-1.5-0.6-2.1,0l0,0l-2,2.1
	c-0.6,0.6-0.6,1.5,0,2.1C35.2,14.2,35.5,14.3,35.9,14.3z"/>
<path class="st0" d="M43.5,24.5h-3c-0.8,0-1.5,0.7-1.5,1.5s0.7,1.5,1.5,1.5h3c0.8,0,1.5-0.7,1.5-1.5S44.3,24.5,43.5,24.5z"/>
</svg>
