<?xml version="1.0" encoding="utf-8"?>
<!-- Generator: Adobe Illustrator 24.0.1, SVG Export Plug-In . SVG Version: 6.00 Build 0)  -->
<svg version="1.1" id="PICTOS_vectos" xmlns="http://www.w3.org/2000/svg" xmlns:xlink="http://www.w3.org/1999/xlink" x="0px"
	 y="0px" viewBox="0 0 46 46" style="enable-background:new 0 0 46 46;" xml:space="preserve">
<style type="text/css">
	.st0{fill:#25465F;}
</style>
<path class="st0" d="M23,12.8c-3.6,0-6.5,2.9-6.5,6.5v9.6c0,3.6,2.9,6.5,6.5,6.5s6.5-2.9,6.5-6.5v-9.6C29.5,15.7,26.6,12.8,23,12.8z
	 M26.5,28.9c0,1.9-1.6,3.5-3.5,3.5s-3.5-1.6-3.5-3.5v-9.6c0-1.9,1.6-3.5,3.5-3.5s3.5,1.6,3.5,3.5V28.9z"/>
<path class="st0" d="M32.6,27.4c-0.8,0-1.5,0.7-1.5,1.5c0,4.5-3.6,8.1-8.1,8.1c-4.5,0-8.1-3.6-8.1-8.1c0-0.8-0.7-1.5-1.5-1.5
	s-1.5,0.7-1.5,1.5c0,5.5,4.1,10.2,9.6,11v2h-0.9c-0.8,0-1.5,0.7-1.5,1.5s0.7,1.5,1.5,1.5h4.9c0.8,0,1.5-0.7,1.5-1.5
	s-0.7-1.5-1.5-1.5h-0.9v-2c5.5-0.8,9.6-5.5,9.6-11C34.1,28.1,33.4,27.4,32.6,27.4L32.6,27.4z"/>
<path class="st0" d="M34.2,5.3c-6.4-5.6-15.9-5.7-22.4-0.2c-0.6,0.6-0.7,1.5-0.1,2.1c0.5,0.6,1.4,0.7,2,0.2C19.1,2.9,27,3,32.2,7.6
	c0.3,0.2,0.6,0.4,1,0.4c0.4,0,0.9-0.2,1.1-0.5C34.9,6.8,34.8,5.9,34.2,5.3C34.2,5.3,34.2,5.3,34.2,5.3z"/>
<path class="st0" d="M30.4,9C26.1,5.6,20,5.5,15.6,8.8c-0.7,0.5-0.8,1.4-0.3,2.1c0.5,0.7,1.4,0.8,2.1,0.3c0,0,0,0,0,0
	c3.3-2.5,7.9-2.4,11.1,0.2c0.3,0.2,0.6,0.3,0.9,0.3c0.8,0,1.5-0.7,1.5-1.5C31,9.7,30.8,9.3,30.4,9z"/>
</svg>
