<?xml version="1.0" encoding="utf-8"?>
<!-- Generator: Adobe Illustrator 24.0.1, SVG Export Plug-In . SVG Version: 6.00 Build 0)  -->
<svg version="1.1" id="PICTOS_vectos" xmlns="http://www.w3.org/2000/svg" xmlns:xlink="http://www.w3.org/1999/xlink" x="0px"
	 y="0px" viewBox="0 0 46 46" style="enable-background:new 0 0 46 46;" xml:space="preserve">
<style type="text/css">
	.st0{fill:#25465F;}
</style>
<path class="st0" d="M8.7,40.3h28.9c2,0,3.7-1.7,3.7-3.7l0,0V20.4c0-2-1.7-3.7-3.7-3.7l0,0h-5.7c0.4-1.8,0.6-3.6,0.6-5.5
	c0.1-2.8-1-5.6-3-7.6C27.7,1.9,25.4,1,23,1c-2.4,0-4.8,0.9-6.5,2.6c-2,2-3.1,4.8-3,7.6c0,1.8,0.2,3.7,0.6,5.5H8.7
	c-2,0-3.7,1.7-3.7,3.7l0,0v16.3C5,38.7,6.7,40.3,8.7,40.3L8.7,40.3z M18.7,5.7C19.8,4.6,21.4,4,23,4h0.1c1.6,0,3.2,0.6,4.3,1.7
	c1.4,1.5,2.2,3.4,2.1,5.5c0,7.3-3.2,12.8-6.4,15.2c-3.3-2.4-6.4-7.9-6.4-15.2C16.5,9.2,17.3,7.2,18.7,5.7z M8,20.4
	c0-0.4,0.3-0.7,0.7-0.7c0,0,0,0,0,0H15c1.2,3.8,3.6,7.1,6.8,9.5c0.4,0.2,0.8,0.4,1.2,0.4c0.4,0,0.9-0.1,1.2-0.4
	c3.2-2.4,5.6-5.7,6.8-9.5h6.6c0.4,0,0.7,0.3,0.7,0.7v0v16.3c0,0.4-0.3,0.7-0.7,0.7H8.7C8.3,37.3,8,37,8,36.6V20.4z"/>
<path class="st0" d="M43.5,42H2.5C1.7,42,1,42.7,1,43.5S1.7,45,2.5,45h41c0.8,0,1.5-0.7,1.5-1.5S44.4,42,43.5,42L43.5,42z"/>
<path class="st0" d="M23.1,34.7c2.6,0,4.6-1,4.6-2.2c0-1.2-2.1-2.2-4.7-2.2s-4.6,1-4.7,2.2S20.5,34.6,23.1,34.7z"/>
<rect x="19" y="8.5" class="st0" width="1.8" height="7.4"/>
<path class="st0" d="M23.9,13.5h1.6c1.3,0.1,2.4-0.8,2.6-2c0-0.1,0-0.3,0-0.4c0.1-1.3-0.9-2.4-2.1-2.5c-0.1,0-0.3,0-0.4,0h-3.4V16
	h1.8L23.9,13.5z M23.9,10h1.5c0.5,0,0.8,0.4,0.8,0.9s-0.3,0.9-0.8,0.9h-1.5V10z"/>
</svg>
