<?xml version="1.0" encoding="utf-8"?>
<!-- Generator: Adobe Illustrator 24.0.1, SVG Export Plug-In . SVG Version: 6.00 Build 0)  -->
<svg version="1.1" id="PICTOS_vectos" xmlns="http://www.w3.org/2000/svg" xmlns:xlink="http://www.w3.org/1999/xlink" x="0px"
	 y="0px" viewBox="0 0 66.8 66.8" style="enable-background:new 0 0 66.8 66.8;" xml:space="preserve">
<style type="text/css">
	.st0{fill:#25465F;}
</style>
<path class="st0" d="M55.1,31.1h3.8c0.4,0,0.7-0.3,0.7-0.8c0-0.4-0.3-0.7-0.7-0.7l0,0h-3.8c-0.4,0-0.7,0.3-0.8,0.7
	C54.3,30.7,54.6,31,55.1,31.1z"/>
<path class="st0" d="M56.9,42.4c-2.5,0-4.6,1-4.6,2.2s2.1,2.2,4.7,2.2s4.5-1,4.5-2.2C61.6,43.5,59.5,42.4,56.9,42.4z"/>
<path class="st0" d="M23,37c-2.6,0-4.6,1-4.7,2.2s2.1,2.2,4.7,2.2s4.6-1,4.6-2.2C27.7,38.1,25.6,37.1,23,37z"/>
<path class="st0" d="M39,25.4c0,0.4,0.3,0.7,0.8,0.7h4.3c0.4,0,0.7-0.3,0.7-0.7c0-0.4-0.3-0.7-0.7-0.7h-4.3
	C39.4,24.6,39,24.9,39,25.4C39,25.4,39,25.4,39,25.4z"/>
<path class="st0" d="M37.5,44.4c0,1.2,2.1,2.2,4.7,2.2s4.6-1,4.6-2.2c0-1.2-2.1-2.2-4.6-2.3S37.5,43.2,37.5,44.4z"/>
<path class="st0" d="M61.3,25.3h-6.5v-1.5c0-2.5-2-4.5-4.5-4.5H45v-0.6c0-2-1.7-3.7-3.7-3.7c0,0,0,0,0,0H4.7c-2,0-3.7,1.7-3.7,3.7
	v25.2c0,2,1.7,3.7,3.7,3.7H29v0.5c0,0.5,0.1,1,0.3,1.5H12.1c-0.8,0-1.5,0.7-1.5,1.5s0.7,1.5,1.5,1.5h21.8h0.2h16.2
	c0.4,0,0.8-0.1,1.1-0.2c0.4,0.1,0.8,0.2,1.1,0.2h8.7c2.5,0,4.5-2,4.5-4.5V29.7C65.8,27.3,63.8,25.3,61.3,25.3z M51.9,23.8v1.5
	c-2.1,0.4-3.7,2.2-3.7,4.4v18.3c0,0.5,0.1,1,0.3,1.5h-15c-0.8,0-1.4-0.7-1.5-1.5V23.8c0-0.8,0.7-1.5,1.5-1.5h16.9
	C51.2,22.3,51.9,23,51.9,23.8z M4.7,44.6c-0.4,0-0.7-0.3-0.7-0.7l0,0V18.7C4,18.3,4.3,18,4.7,18h36.6c0.4,0,0.7,0.3,0.7,0.7v0v0.6
	h-8.5c-2.5,0-4.5,2-4.5,4.5v20.8H4.7z M62.8,48.1c0,0.8-0.7,1.5-1.5,1.5h-8.7c-0.8,0-1.5-0.7-1.5-1.5V29.7c0-0.8,0.7-1.5,1.5-1.5
	h8.7c0.8,0,1.5,0.7,1.5,1.5L62.8,48.1z"/>
</svg>
