<?xml version="1.0" encoding="utf-8"?>
<!-- Generator: Adobe Illustrator 24.0.1, SVG Export Plug-In . SVG Version: 6.00 Build 0)  -->
<svg version="1.1" id="PICTOS_vectos" xmlns="http://www.w3.org/2000/svg" xmlns:xlink="http://www.w3.org/1999/xlink" x="0px"
	 y="0px" viewBox="0 0 46.1 46.1" style="enable-background:new 0 0 46.1 46.1;" xml:space="preserve">
<style type="text/css">
	.st0{fill:#25465F;}
</style>
<path class="st0" d="M23.2,18.5c2.6,0,4.6-1,4.6-2.2S25.7,14,23.1,14s-4.6,1-4.7,2.2C18.5,17.4,20.6,18.5,23.2,18.5z"/>
<path class="st0" d="M8.7,31.7h28.9c2,0,3.7-1.7,3.7-3.7c0,0,0,0,0,0V11.7c0-2-1.7-3.7-3.7-3.7l0,0H8.7C6.7,8,5,9.7,5,11.7V28
	C5,30,6.7,31.7,8.7,31.7z M8,11.7C8,11.3,8.3,11,8.7,11h28.9c0.4,0,0.7,0.3,0.7,0.7v0V28c0,0.4-0.3,0.7-0.7,0.7l0,0H8.7
	C8.3,28.7,8,28.4,8,28l0,0V11.7z"/>
<path class="st0" d="M43.4,33.3H2.5C1.7,33.3,1,34,1,34.8s0.7,1.5,1.5,1.5h40.9c0.8,0,1.5-0.7,1.5-1.5S44.3,33.3,43.4,33.3z"/>
</svg>
