<?xml version="1.0" encoding="utf-8"?>
<!-- Generator: Adobe Illustrator 24.0.1, SVG Export Plug-In . SVG Version: 6.00 Build 0)  -->
<svg version="1.1" id="Calque_1" xmlns="http://www.w3.org/2000/svg" xmlns:xlink="http://www.w3.org/1999/xlink" x="0px" y="0px"
	 viewBox="0 0 18 18" style="enable-background:new 0 0 18 18;" xml:space="preserve">
<style type="text/css">
	.st0{fill:#25465F;}
</style>
<g>
	<path class="st0" d="M6.2,4.5h10.3l0.9-3H7.6c0,0-0.4,0-0.9,0.5c-0.6,0.6-0.9,1.4-1,1.8C5.7,4.2,5.9,4.5,6.2,4.5z"/>
	<path class="st0" d="M1.4,8.1C0.8,8.8,0.7,9.4,0.6,9.8c0,0.4,0.1,0.7,0.4,0.7h13.8l0.8-3H2.5C2.5,7.5,2,7.5,1.4,8.1z"/>
	<path class="st0" d="M6.1,14c-0.5,0.5-0.8,1.3-0.9,1.6s0,0.9,0.4,0.9h7.6l0.8-3H7C7,13.5,6.6,13.5,6.1,14z"/>
</g>
</svg>
