<?xml version="1.0" encoding="utf-8"?>
<!-- Generator: Adobe Illustrator 24.0.1, SVG Export Plug-In . SVG Version: 6.00 Build 0)  -->
<svg version="1.1" id="PICTOS_vectos" xmlns="http://www.w3.org/2000/svg" xmlns:xlink="http://www.w3.org/1999/xlink" x="0px"
	 y="0px" viewBox="0 0 46.1 46.1" style="enable-background:new 0 0 46.1 46.1;" xml:space="preserve">
<style type="text/css">
	.st0{fill:#25465F;}
</style>
<path class="st0" d="M36.4,6.7c-1-0.7-2.3-1-3.6-0.7c-2.6,0.4-5.4,2.5-7.6,5.5c-2.6,3.7-3.5,7.6-2.4,10.2l-0.3,0.4
	c-1.5,2.1-1.9,4.4-0.9,5.1c0.5,0.3,1.1,0.3,1.6,0c-0.1,2.3-0.9,4.6-2.4,6.4c-1.6,2.4-3.8,4-5.5,4.3c-0.5,0.1-1,0-1.4-0.2
	c-1.1-0.8-1-4.2,1.6-8c0.9-1.3,2-2.4,3.3-3.3c0.6-0.6,0.5-1.6-0.1-2.1c-0.4-0.4-1.1-0.5-1.6-0.3c-1.6,1.1-2.9,2.4-4,4
	c-3.5,4.8-3.9,10-1,12.1c0.8,0.5,1.7,0.8,2.7,0.8c0.3,0,0.7,0,1-0.1c2.5-0.4,5.3-2.5,7.4-5.4c2.6-3.7,3.5-7.7,2.5-10.3l0.3-0.4
	c1.5-2.1,2-4.4,1-5.1c-0.5-0.3-1.1-0.3-1.6,0c0-2.3,0.8-4.6,2.3-6.4c1.7-2.3,3.9-4,5.6-4.3c0.5-0.1,0.9,0,1.3,0.2
	c1.1,0.8,1,4.3-1.7,8.1c-0.9,1.3-2,2.4-3.2,3.2c-0.7,0.5-0.8,1.4-0.3,2.1c0.4,0.6,1.3,0.8,2,0.4c1.6-1.1,2.9-2.4,4-4
	C38.8,14.2,39.3,8.8,36.4,6.7z"/>
</svg>
