<?xml version="1.0" encoding="utf-8"?>
<!-- Generator: Adobe Illustrator 24.0.1, SVG Export Plug-In . SVG Version: 6.00 Build 0)  -->
<svg version="1.1" id="PICTOS_vectos" xmlns="http://www.w3.org/2000/svg" xmlns:xlink="http://www.w3.org/1999/xlink" x="0px"
	 y="0px" viewBox="0 0 46.1 46.1" style="enable-background:new 0 0 46.1 46.1;" xml:space="preserve">
<style type="text/css">
	.st0{fill:#25465F;}
</style>
<path class="st0" d="M40.6,6H10.3c-2.4,0-4.3,1.9-4.3,4.3c0,0,0,0,0,0v30.3c0,2.4,2,4.3,4.3,4.3c0,0,0,0,0,0h30.3
	c2.4,0,4.3-1.9,4.3-4.3c0,0,0,0,0,0V10.3C44.9,7.9,43,6,40.6,6C40.6,6,40.6,6,40.6,6z M41.9,40.7c0,0.7-0.6,1.3-1.3,1.3H10.3
	c-0.7,0-1.3-0.6-1.3-1.3c0,0,0,0,0,0V10.3C8.9,9.6,9.5,9,10.3,9c0,0,0,0,0,0h30.3c0.7,0,1.3,0.6,1.3,1.3V40.7z"/>
<path class="st0" d="M38.1,2.5c0-0.8-0.7-1.5-1.5-1.5H5.3C2.9,1,1,2.9,1,5.3v32.2C1,38.3,1.7,39,2.5,39S4,38.3,4,37.5V5.3
	C4,4.6,4.6,4,5.3,4l0,0h31.3C37.5,4,38.1,3.3,38.1,2.5z"/>
<path class="st0" d="M35.1,12.1c-0.9-0.6-2-0.8-3.1-0.6c-2.1,0.4-4.4,2-6.2,4.5c-2,2.8-2.7,5.8-2.1,8c-0.1,0.1-0.1,0.2-0.2,0.3
	c-1.5,2.1-1.9,4.4-0.9,5.1c0.4,0.3,1,0.3,1.5,0.1c-0.3,1.4-0.8,2.8-1.7,4c-0.9,1.5-2.4,2.6-4.1,3.2c-0.3,0.1-0.6,0-0.9-0.1
	c-0.7-0.5-0.6-3.1,1.4-5.8c0.5-0.7,1-1.3,1.7-1.9c0.6-0.6,0.7-1.5,0.1-2.1s-1.5-0.7-2.1-0.1l0,0c-0.8,0.7-1.5,1.5-2.2,2.4
	c-2.8,3.9-3.1,8.2-0.7,10c0.7,0.5,1.5,0.7,2.3,0.7c0.3,0,0.5,0,0.8-0.1c2.1-0.3,4.3-2,6.1-4.4c2-2.9,2.8-5.9,2.1-8l0.2-0.2
	c1.5-2.1,1.9-4.4,0.9-5.1c-0.5-0.3-1-0.3-1.5-0.1c0.2-1.4,0.8-2.8,1.7-3.9c1-1.6,2.5-2.7,4.2-3.3c0.3-0.1,0.6,0,0.8,0.1
	c0.6,0.5,0.6,3-1.4,5.9c-0.5,0.7-1.1,1.3-1.7,1.9c-0.6,0.6-0.7,1.5-0.1,2.1s1.5,0.7,2.1,0.1c0.8-0.7,1.6-1.5,2.2-2.4
	C37.2,18.2,37.6,13.9,35.1,12.1z"/>
</svg>
