<?xml version="1.0" encoding="utf-8"?>
<!-- Generator: Adobe Illustrator 24.0.1, SVG Export Plug-In . SVG Version: 6.00 Build 0)  -->
<svg version="1.1" id="PICTOS_vectos" xmlns="http://www.w3.org/2000/svg" xmlns:xlink="http://www.w3.org/1999/xlink" x="0px"
	 y="0px" viewBox="0 0 46 46" style="enable-background:new 0 0 46 46;" xml:space="preserve">
<style type="text/css">
	.st0{fill:#25465F;}
</style>
<path class="st0" d="M23,29c-2.6,0-4.6,1-4.7,2.2c0,1.2,2.1,2.2,4.7,2.2s4.6-1,4.6-2.2C27.7,30.1,25.6,29,23,29z"/>
<path class="st0" d="M34.8,18.5H34v-7.8C34,5.9,30.1,2,25.4,2h-4.7C15.8,2,12,5.9,12,10.7v7.8h-0.7c-3,0-5.5,2.5-5.4,5.5
	c0,0,0,0,0,0v14.5c0,3,2.4,5.4,5.4,5.5h23.5c3,0,5.4-2.4,5.5-5.5V24C40.2,21,37.8,18.5,34.8,18.5C34.8,18.5,34.8,18.5,34.8,18.5z
	 M15,10.7C15,7.5,17.5,5,20.6,5h4.7c3.1,0,5.7,2.5,5.7,5.7l0,0v7.8H15V10.7z M37.2,38.5c0,1.4-1.1,2.5-2.4,2.5c0,0,0,0,0,0H11.2
	c-1.4,0-2.4-1.1-2.4-2.5l0,0V24c0-1.4,1.1-2.5,2.4-2.5h0h23.5c1.4,0,2.5,1.1,2.5,2.4c0,0,0,0,0,0V38.5z"/>
</svg>
