<?xml version="1.0" encoding="utf-8"?>
<!-- Generator: Adobe Illustrator 24.0.1, SVG Export Plug-In . SVG Version: 6.00 Build 0)  -->
<svg version="1.1" id="PICTOS_vectos" xmlns="http://www.w3.org/2000/svg" xmlns:xlink="http://www.w3.org/1999/xlink" x="0px"
	 y="0px" viewBox="0 0 46 46" style="enable-background:new 0 0 46 46;" xml:space="preserve">
<style type="text/css">
	.st0{fill:#25465F;}
</style>
<path class="st0" d="M32.3,28.5h-3c3-4.7,4.6-10.2,4.5-15.8c0.1-3.3-1.2-6.4-3.4-8.8c-2-2-4.6-3-7.4-3c-2.8,0-5.5,1-7.4,3
	c-2.3,2.3-3.5,5.5-3.4,8.8c-0.1,5.6,1.5,11.1,4.5,15.8h-2.9c-1.9,0-3.5,1.5-3.5,3.5v9.5c0,1.9,1.6,3.5,3.5,3.5h18.6
	c1.9,0,3.5-1.6,3.5-3.5V32C35.8,30.1,34.2,28.5,32.3,28.5z M17.7,6.1C19.1,4.7,21,4,22.9,4H23c2,0,3.9,0.7,5.3,2.1
	c1.7,1.8,2.6,4.2,2.5,6.6c0,7.1-2.5,12.7-5.5,16.1c-0.1,0.1-0.2,0.2-0.3,0.3c-0.6,0.7-1.3,1.3-2,1.8c-0.8-0.6-1.5-1.2-2.2-1.9
	c0-0.1-0.1-0.1-0.1-0.2c-3-3.4-5.6-9-5.6-16.2C15.1,10.3,16,7.9,17.7,6.1z M32.8,41.5c0,0.3-0.2,0.5-0.5,0.5H13.7
	c-0.3,0-0.5-0.2-0.5-0.5V32c0-0.3,0.2-0.5,0.5-0.5H19c0.8,0.8,1.7,1.6,2.6,2.2c0.2,0.1,0.4,0.2,0.6,0.3v5.6c0,0.4,0.3,0.8,0.8,0.8
	c0.4,0,0.8-0.3,0.8-0.8V34c0.2-0.1,0.3-0.1,0.5-0.2c1-0.6,1.9-1.4,2.6-2.2h5.4c0.3,0,0.5,0.2,0.5,0.5V41.5z"/>
<path class="st0" d="M20.1,33.2c-0.4,0-0.7,0.3-0.8,0.8v5.7c0,0.4,0.3,0.8,0.8,0.8c0.4,0,0.8-0.3,0.8-0.8v-5.7
	C20.8,33.5,20.5,33.2,20.1,33.2z"/>
<path class="st0" d="M16.5,32.9c-0.8,0-1.5,0.7-1.5,1.5v4.5c0,0.8,0.7,1.5,1.5,1.5c0.8,0,1.5-0.7,1.5-1.5v-4.5
	C18,33.6,17.4,32.9,16.5,32.9z"/>
<path class="st0" d="M30,33.2c-0.4,0-0.8,0.3-0.8,0.8v5.7c0,0.4,0.3,0.8,0.8,0.8s0.8-0.3,0.8-0.8v-5.7C30.7,33.5,30.4,33.2,30,33.2z
	"/>
<path class="st0" d="M26.7,32.9c-0.8,0-1.5,0.7-1.5,1.5v4.5c0,0.8,0.7,1.5,1.5,1.5s1.5-0.7,1.5-1.5v-4.5
	C28.2,33.6,27.5,32.9,26.7,32.9z"/>
<path class="st0" d="M23.1,12.3c2.6,0,4.6-1,4.6-2.2S25.6,7.9,23,7.9s-4.6,1-4.7,2.2C18.3,11.3,20.5,12.3,23.1,12.3z"/>
</svg>
