<svg id="PICTOS_vectos" xmlns="http://www.w3.org/2000/svg" viewBox="0 0 46 46"><defs><style>.cls-1{fill:#25465f;}</style></defs><path class="cls-1" d="M36.39,7H24.5V4h1.42a1.5,1.5,0,0,0,0-3H23a1.5,1.5,0,0,0-1.5,1.5V7h-11A9.52,9.52,0,0,0,1,16.54V30.22a1.5,1.5,0,0,0,1.5,1.5.91.91,0,0,0,.23,0,.91.91,0,0,0,.23,0H21.5V43.5a1.5,1.5,0,0,0,3,0V31.72h19a1.5,1.5,0,0,0,1.5-1.5V15.64A8.62,8.62,0,0,0,36.39,7ZM10.51,10A6.53,6.53,0,0,1,17,16.54V28.72H4V16.54A6.52,6.52,0,0,1,10.51,10ZM42,28.72H20V16.54A9.48,9.48,0,0,0,17.43,10H21.5v1.5a1.5,1.5,0,1,0,3,0V10H36.39A5.61,5.61,0,0,1,42,15.64Z"/><path class="cls-1" d="M10.36,17.38c2.57,0,4.58-1,4.59-2.19S12.88,13,10.32,12.94s-4.65,1-4.66,2.19S7.8,17.37,10.36,17.38Z"/></svg>