<?xml version="1.0" encoding="utf-8"?>
<!-- Generator: Adobe Illustrator 24.0.1, SVG Export Plug-In . SVG Version: 6.00 Build 0)  -->
<svg version="1.1" id="PICTOS_vectos" xmlns="http://www.w3.org/2000/svg" xmlns:xlink="http://www.w3.org/1999/xlink" x="0px"
	 y="0px" viewBox="0 0 46.1 46.1" style="enable-background:new 0 0 46.1 46.1;" xml:space="preserve">
<style type="text/css">
	.st0{fill:#25465F;}
</style>
<path class="st0" d="M23.3,39.7c0.9,0.5,2,0.5,2.8,0c5.6-3.7,11.3-12.7,11.3-24.9c0.1-3.8-1.3-7.6-4-10.3C31.1,2.2,28,0.9,24.7,1
	c-3.3-0.1-6.4,1.2-8.7,3.5c-2.7,2.8-4.1,6.5-4,10.3C12,26.9,17.7,36,23.3,39.7z M18.1,6.6C19.9,4.9,22.2,4,24.6,4h0.1
	c2.5-0.1,4.8,0.9,6.6,2.6c2.1,2.2,3.2,5.1,3.1,8.2c0,10.9-4.8,18.9-9.7,22.2C19.8,33.7,15,25.6,15,14.8C14.9,11.8,16,8.8,18.1,6.6z"
	/>
<path class="st0" d="M29.3,10.1c0-1.2-2.1-2.2-4.6-2.3s-4.7,1-4.7,2.2s2.1,2.2,4.7,2.2S29.3,11.4,29.3,10.1z"/>
<path class="st0" d="M24.7,40.8c-2.6,0-4.6,1-4.6,2.2s2.1,2.2,4.7,2.2s4.6-1,4.6-2.2S27.3,40.8,24.7,40.8z"/>
</svg>
