<?xml version="1.0" encoding="utf-8"?>
<!-- Generator: Adobe Illustrator 24.0.1, SVG Export Plug-In . SVG Version: 6.00 Build 0)  -->
<svg version="1.1" id="PICTOS_vectos" xmlns="http://www.w3.org/2000/svg" xmlns:xlink="http://www.w3.org/1999/xlink" x="0px"
	 y="0px" viewBox="0 0 46.1 46.1" style="enable-background:new 0 0 46.1 46.1;" xml:space="preserve">
<style type="text/css">
	.st0{fill:#25465F;}
</style>
<path class="st0" d="M31.4,22.2c0,1.2,2.1,2.2,4.7,2.2s4.6-1,4.6-2.2S38.6,20,36,20S31.4,20.9,31.4,22.2z"/>
<path class="st0" d="M36,40.7c-2.6,0-4.6,1-4.6,2.2s2.1,2.2,4.7,2.2s4.6-1,4.6-2.2S38.6,40.7,36,40.7z"/>
<path class="st0" d="M25.1,38.9l7-2c0.8,0.9,1.7,1.7,2.7,2.3c0.4,0.2,0.8,0.4,1.2,0.3c0.4,0,0.8-0.1,1.2-0.3
	c3.8-2.5,7.7-8.6,7.7-16.8c0.1-2.7-0.9-5.2-2.8-7.1c-1.3-1.3-2.9-2.1-4.7-2.3V2.5c0-0.8-0.7-1.5-1.5-1.5c-0.1,0-0.3,0-0.4,0.1
	L24.7,4.2L13.9,1l0,0c-0.1,0-0.3,0-0.4-0.1l0,0c-0.1,0-0.2,0-0.4,0.1l0,0L1.9,4.3C1.3,4.5,0.9,5.1,0.9,5.7v31.7
	c0,0.5,0.2,0.9,0.6,1.2c0.3,0.2,0.6,0.3,0.9,0.3c0.1,0,0.3,0,0.4-0.1l10.7-3.1l10.7,3.1l0,0c0.1,0,0.2,0,0.4,0l0,0
	c0.1,0,0.2,0,0.4,0L25.1,38.9z M15,4.5l8.2,2.4v28.5L15,33V4.5z M41.9,22.4c0,6.7-3,11.8-5.9,14c-2.9-2.2-5.9-7.3-5.9-14
	c-0.1-1.9,0.6-3.7,1.9-5c1-1,2.4-1.6,3.9-1.6h0.2c1.5,0,2.9,0.5,3.9,1.6C41.3,18.7,41.9,20.5,41.9,22.4z M34.3,12.9
	c-1.7,0.3-3.2,1.1-4.4,2.3c-1.9,1.9-2.9,4.5-2.8,7.1c0,4.2,1,8.3,3.1,11.9l-4.1,1.2V6.9l8.2-2.4V12.9z M3.9,6.9L12,4.5V33l-8.1,2.4
	V6.9z"/>
</svg>
