<?xml version="1.0" encoding="utf-8"?>
<!-- Generator: Adobe Illustrator 23.0.2, SVG Export Plug-In . SVG Version: 6.00 Build 0)  -->
<svg version="1.1" id="Calque_1" xmlns="http://www.w3.org/2000/svg" xmlns:xlink="http://www.w3.org/1999/xlink" x="0px" y="0px"
	 viewBox="0 0 660 660" style="enable-background:new 0 0 660 660;" xml:space="preserve">
<style type="text/css">
	.st0{fill-rule:evenodd;clip-rule:evenodd;fill:#009DCC;}
</style>
<path class="st0" d="M330,70c110.4,0,200,80,200,207.3C530,450,330,590,330,590S130,430,130,277.3C130,150,219.5,70,330,70z
	 M330,100c-100.1,0-170,72.9-170,177.3c0,55,31.9,122,92.2,193.5c30,35.6,60.3,64.2,78.8,80.7c47.1-38,169-148.6,169-274.1
	C500,172.9,430.1,100,330,100z M330,172.1c23,0,46,8.8,63.6,26.4c35.2,35.2,35.2,92.2,0.1,127.4c-17.6,17.6-40.6,26.4-63.7,26.4
	c-23,0-46-8.8-63.6-26.4c-35.2-35.2-35.2-92.2-0.1-127.5C283.9,180.9,307,172.1,330,172.1z M330,202.1c-16.1,0-31.1,6.3-42.5,17.6
	c-23.4,23.4-23.4,61.6,0.1,85.1c11.3,11.3,26.4,17.6,42.4,17.6c16,0,31.1-6.3,42.4-17.6c23.4-23.5,23.4-61.6,0-85
	C361,208.3,346,202.1,330,202.1L330,202.1z"/>
</svg>
