<?xml version="1.0" encoding="utf-8"?>
<!-- Generator: Adobe Illustrator 24.0.1, SVG Export Plug-In . SVG Version: 6.00 Build 0)  -->
<svg version="1.1" id="PICTOS_vectos" xmlns="http://www.w3.org/2000/svg" xmlns:xlink="http://www.w3.org/1999/xlink" x="0px"
	 y="0px" viewBox="0 0 46 46" style="enable-background:new 0 0 46 46;" xml:space="preserve">
<style type="text/css">
	.st0{fill:#25465F;}
</style>
<path class="st0" d="M22.9,37.1c-2.6,0-4.6,1-4.6,2.2s2.1,2.2,4.6,2.2s4.6-1,4.6-2.2S25.5,37.1,22.9,37.1z"/>
<path class="st0" d="M44.6,24.6c-1.5-1.5-3.3-2.7-5.3-3.6c0.9-2.9,1-6,0.5-8.9c-0.1-0.7-0.7-1.1-1.4-1.2c-2.9,0-5.8,0.6-8.5,1.9
	c-1.1-3.6-3.1-6.9-5.9-9.5c-0.6-0.5-1.4-0.5-2,0c-2.8,2.6-4.8,5.9-5.9,9.5c-2.6-1.3-5.5-1.9-8.4-1.9c-0.7,0-1.2,0.5-1.4,1.2
	c-0.5,3-0.4,6,0.5,8.9c-2,0.9-3.8,2.1-5.3,3.6C1,25,0.9,25.7,1.1,26.2c0.1,0.3,3.4,7.6,11,8.9c3.6,0.7,7.4-0.4,10.1-2.9
	c0.3,0,0.5-0.1,0.7-0.1c0.2,0,0.4,0.1,0.7,0.1c2.7,2.5,6.5,3.5,10.1,2.9c7.6-1.3,10.9-8.6,11-8.9C45.1,25.7,45,25,44.6,24.6z M37,14
	c0.4,4-0.8,8.1-3.3,11.2c-1.7,2.1-4.1,3.5-6.7,4c2.5-3,3.8-6.8,3.7-10.8c0-0.9-0.1-1.8-0.2-2.6C32.5,14.8,34.7,14.2,37,14z M23,6.6
	c3,3.3,4.6,7.5,4.7,11.9c0,6.1-3.2,9.2-4.7,10.4c-1.5-1.1-4.7-4.3-4.7-10.4C18.4,14.1,20,9.8,23,6.6z M9,14c2.3,0.2,4.5,0.8,6.4,1.9
	c-0.1,0.9-0.2,1.7-0.2,2.6c-0.1,3.9,1.2,7.7,3.7,10.7c-2.6-0.5-5-1.9-6.7-4C9.8,22,8.6,18,9,14z M12.7,32.2
	c-4.6-0.8-7.2-4.5-8.3-6.2c1.1-0.9,2.2-1.6,3.5-2.1c0.6,1.2,1.3,2.3,2.1,3.3c1.8,2.3,4.3,3.9,7.2,4.7C15.7,32.4,14.2,32.5,12.7,32.2
	z M33.3,32.2c-1.5,0.3-3.1,0.2-4.5-0.3c2.8-0.8,5.3-2.4,7.2-4.7c0.9-1,1.6-2.1,2.2-3.3c1.2,0.6,2.4,1.3,3.5,2.2
	C40.6,27.7,37.9,31.4,33.3,32.2z"/>
</svg>
