<?xml version="1.0" encoding="utf-8"?>
<!-- Generator: Adobe Illustrator 24.0.1, SVG Export Plug-In . SVG Version: 6.00 Build 0)  -->
<svg version="1.1" id="PICTOS_vectos" xmlns="http://www.w3.org/2000/svg" xmlns:xlink="http://www.w3.org/1999/xlink" x="0px"
	 y="0px" viewBox="0 0 46 46" style="enable-background:new 0 0 46 46;" xml:space="preserve">
<style type="text/css">
	.st0{fill:#25465F;}
</style>
<path class="st0" d="M44.6,20.1c0-0.5,0.1-1,0.2-1.5c0.2-1,0.3-2,0.2-3c0-0.6-0.1-2.3-1.5-3C43.2,5.3,42.1,3,42,2.7
	c-0.4-0.7-1.3-1-2-0.6c0,0,0,0,0,0c-0.7,0.4-1,1.3-0.7,2c0,0,1.1,2.3,1.3,9.9c0,0.5,0.3,1,0.8,1.3c0.2,0.1,0.4,0.1,0.6,0.2
	c0,0.1,0,0.2,0,0.3c0.1,0.7,0,1.5-0.2,2.2c-0.2,0.7-0.2,1.4-0.2,2.2c0,0.8,0.1,1.6,0.2,2.3c0.2,1.3,0.2,1.3-0.5,1.6
	c-0.5,0.3-0.8,0.9-0.8,1.5c0,0.1,0.5,6.9-3.7,12.1c-4.9,6-11.4,3.9-13.2,3.2c0.2-1.2,0.1-2.4-0.2-3.6h0.1c0.4-0.1,0.8-0.4,1.2-0.6
	c0.2-0.2,0.4-0.5,0.5-0.8h0.3c7,0,8.4-2.5,8.5-2.8c0.1-0.3,0.1-0.6-0.1-0.8c-0.2-0.2-0.5-0.3-0.8-0.2c-2.3,0.6-4.6,0.9-7,1.1
	c0.1-0.1,0.2-0.3,0.3-0.4c0.4-0.8,0.5-1.8,0.1-2.6c1.8-0.2,3.1-1.7,3.2-3.5c0-1.9-0.5-3.8-1.4-5.5c-0.5-1.1-0.9-2.2-1.1-3.4
	c-0.6-5.7-1.4-14.8-1.4-14.9c-0.1-0.8-0.8-1.4-1.6-1.4c-0.8,0.1-1.4,0.8-1.4,1.6c0,0.1,0.8,9.1,1.4,14.9c0.2,1.5,0.7,3,1.4,4.3
	c0.7,1.2,1.1,2.6,1.1,4c0,0.5-0.1,0.7-1.7,0.8c-0.7-0.1-1.4,0.2-1.8,0.7c-0.3,0.4-0.4,0.9-0.3,1.3c0.1,0.3,0.2,0.5,0.3,0.8
	c0.1,0.2,0.3,0.5,0.4,0.9c-0.5,0.3-0.8,0.8-0.8,1.3c0,0.3,0.1,0.5,0.2,0.8c-1.5-0.2-3-0.5-4.5-0.9c-0.3-0.1-0.5,0-0.7,0.1
	c-0.2,0.2-0.3,0.4-0.2,0.7c0.1,0.4,0.5,1.8,3.3,2.5c-0.5,0.5-0.7,1.3-0.5,2c0.3,1.1,0.4,2.2,0.2,3.3c-2,0.6-10.1,0.6-14.7-1
	c-1.7-0.6-2.1-1.2-2.1-1.3c-0.4-0.8-1.2-1.1-2-0.7c-0.8,0.4-1.1,1.2-0.7,2l0,0c1.7,3.7,10.5,4.2,14.2,4.3h0.8c2,0.1,3.9-0.1,5.8-0.7
	c0.1,0.1,0.3,0.2,0.5,0.3c1.9,0.8,3.9,1.2,5.9,1.2c4.2,0,8.2-1.9,10.8-5.2c2.9-3.8,4.5-8.5,4.4-13.3c1.6-1.3,1.4-2.9,1.2-4.2
	C44.7,21.3,44.6,20.7,44.6,20.1z"/>
<path class="st0" d="M16.8,16.3c2.6,0,4.6-1,4.6-2.2s-2.1-2.2-4.6-2.2s-4.6,1-4.7,2.2S14.3,16.3,16.8,16.3z"/>
<path class="st0" d="M33.3,16.3c2.6,0,4.6-1,4.6-2.2s-2.1-2.2-4.6-2.2s-4.6,1-4.7,2.2S30.8,16.3,33.3,16.3z"/>
</svg>
