<?xml version="1.0" encoding="utf-8"?>
<!-- Generator: Adobe Illustrator 24.0.1, SVG Export Plug-In . SVG Version: 6.00 Build 0)  -->
<svg version="1.1" id="PICTOS_vectos" xmlns="http://www.w3.org/2000/svg" xmlns:xlink="http://www.w3.org/1999/xlink" x="0px"
	 y="0px" viewBox="0 0 46 46" style="enable-background:new 0 0 46 46;" xml:space="preserve">
<style type="text/css">
	.st0{fill:#25465F;}
</style>
<path class="st0" d="M14.2,5.8L36,12.3c0.1,0,0.3,0.1,0.4,0.1c0.8,0,1.5-0.7,1.5-1.5c0-0.7-0.4-1.3-1.1-1.5l-2.2-0.7
	C33.7,6.8,30.3,1,21.7,1C19,0.9,16.3,1.6,14,3c-0.1,0.1-0.2,0.2-0.4,0.3C13,3.8,13,4.8,13.5,5.4C13.7,5.6,13.9,5.8,14.2,5.8
	L14.2,5.8z M30.2,7.4L19.4,4.2C20.1,4.1,20.9,4,21.7,4C24.9,3.9,28,5.1,30.2,7.4z"/>
<path class="st0" d="M18.5,34.9c0,1.2,2.1,2.2,4.6,2.2s4.5-0.9,4.5-2.1s-2-2.2-4.5-2.2S18.5,33.7,18.5,34.9z"/>
<path class="st0" d="M39.6,20.2c-0.2-1-0.8-1.8-1.7-2.3c-0.1-0.1-0.3-0.1-0.4-0.2c0-0.3,0-0.5,0-0.8c0.8-0.1,1.5-0.8,1.4-1.6
	c0-0.6-0.5-1.2-1.1-1.3L16.1,7.7c-0.8-0.2-1.6,0.2-1.9,1c-0.2,0.8,0.2,1.6,1,1.9l19.1,5.7c0.1,1,0.1,2,0.2,3.1c0,0.5,0.2,1,0.6,1.3
	c0.4,0.3,0.9,0.3,1.4,0.1c0.1,0.1,0.2,0.3,0.2,0.4c0.4,1.1,0.5,2.2,0.5,3.3c0,1.7-0.3,2.3-1.8,3c-0.5,0.2-0.8,0.7-0.8,1.2
	c-0.5,3.7-1.9,7.2-4.3,10.1c-1.7,2.2-4.4,3.4-7.2,3.4h-0.2c-2.8,0-5.4-1.2-7.2-3.4c-2.3-2.9-3.8-6.4-4.3-10.1c0-0.5-0.4-1-0.8-1.2
	c-1.5-0.8-1.8-1.3-1.8-3c-0.1-1.1,0.1-2.3,0.5-3.3c0.1-0.3,0.1-0.4,0.1-0.4c0.4,0.2,1,0.2,1.4-0.1c0.4-0.3,0.7-0.8,0.7-1.3
	c0-1.8,0.2-3.5,0.4-5.3l16.6,4.9c0.1,0,0.3,0.1,0.4,0.1c0.8,0.1,1.6-0.5,1.7-1.3c0.1-0.8-0.5-1.5-1.3-1.7L7.7,9.6
	c-0.8-0.3-1.6,0.1-1.9,0.9c-0.3,0.8,0.1,1.6,0.9,1.9c0.1,0,0.1,0,0.2,0.1L9,13.1c-0.2,1.5-0.4,3.1-0.5,4.7c-0.1,0-0.3,0.1-0.4,0.2
	c-0.9,0.5-1.5,1.3-1.7,2.3c-0.5,1.3-0.7,2.7-0.6,4.1c0,2.6,0.8,4.1,2.8,5.3c0.6,4,2.3,7.8,4.9,11c2.3,2.8,5.8,4.4,9.4,4.4h0.2
	c3.7,0,7.1-1.6,9.4-4.4c2.6-3.2,4.3-7,4.9-11c2-1.2,2.8-2.8,2.8-5.3C40.3,22.9,40.1,21.5,39.6,20.2z"/>
</svg>
