<?xml version="1.0" encoding="utf-8"?>
<!-- Generator: Adobe Illustrator 24.0.1, SVG Export Plug-In . SVG Version: 6.00 Build 0)  -->
<svg version="1.1" id="PICTOS_vectos" xmlns="http://www.w3.org/2000/svg" xmlns:xlink="http://www.w3.org/1999/xlink" x="0px"
	 y="0px" viewBox="0 0 46 46" style="enable-background:new 0 0 46 46;" xml:space="preserve">
<style type="text/css">
	.st0{fill:#25465F;}
</style>
<path class="st0" d="M43.4,7.2H2.6c-0.8,0-1.5,0.7-1.5,1.5v26.9c0,0.8,0.7,1.5,1.5,1.5h0.5v0.1c0,0.8,0.7,1.5,1.5,1.5
	s1.5-0.7,1.5-1.5v-0.1h33.8v0.1c0,0.8,0.7,1.5,1.5,1.5s1.5-0.7,1.5-1.5v-0.1h0.5c0.8,0,1.5-0.7,1.5-1.5V8.7
	C44.9,7.9,44.2,7.2,43.4,7.2z M4.1,10.2h37.8v23.9H4.1V10.2z"/>
<path class="st0" d="M7.6,32.1h23.8c0.8,0,1.5-0.7,1.5-1.5V13.7c0-0.8-0.7-1.5-1.5-1.5H7.6c-0.8,0-1.5,0.7-1.5,1.5v16.9
	C6.1,31.5,6.8,32.1,7.6,32.1z M9.1,15.2h20.8v13.9H9.1V15.2z"/>
<path class="st0" d="M37.5,31.4c1.2,0,2.2-2.1,2.2-4.7s-1-4.6-2.2-4.6s-2.2,2.1-2.3,4.6S36.3,31.4,37.5,31.4z"/>
<path class="st0" d="M22.3,19.5c-0.6-0.6-1.5-0.6-2.1,0l-2.2,2.2l-2.1-2.1c-0.6-0.6-1.6-0.5-2.1,0.1c-0.5,0.6-0.5,1.5,0,2l3.2,3.2
	c0.6,0.6,1.5,0.6,2.1,0l2.2-2.2l1.9,1.9c0.6,0.6,1.6,0.5,2.1-0.1c0.5-0.6,0.5-1.5,0-2L22.3,19.5z"/>
</svg>
