<?xml version="1.0" encoding="utf-8"?>
<!-- Generator: Adobe Illustrator 24.0.1, SVG Export Plug-In . SVG Version: 6.00 Build 0)  -->
<svg version="1.1" id="PICTOS_vectos" xmlns="http://www.w3.org/2000/svg" xmlns:xlink="http://www.w3.org/1999/xlink" x="0px"
	 y="0px" viewBox="0 0 46.1 46.1" style="enable-background:new 0 0 46.1 46.1;" xml:space="preserve">
<style type="text/css">
	.st0{fill:#25465F;}
</style>
<path class="st0" d="M13.6,34.9c-2.6,0-4.6,1-4.7,2.2c0,1.2,2.1,2.2,4.7,2.2s4.6-1,4.6-2.2S16.2,34.9,13.6,34.9z"/>
<path class="st0" d="M40,1H17.7c-1.9,0-3.4,1.5-3.4,3.3l0,0v6.4H6.8c-2.1,0-3.8,1.7-3.8,3.8v26.7c0,2.1,1.7,3.8,3.8,3.8l0,0h13.6
	c2.1,0,3.8-1.7,3.8-3.8V23.8l5.2-4.7H40c1.9,0,3.3-1.5,3.3-3.4V4.3C43.3,2.5,41.9,1,40,1z M21.2,41.2c0,0.5-0.4,0.8-0.8,0.8
	c0,0,0,0,0,0H6.8c-0.5,0-0.8-0.4-0.8-0.8l0,0V14.5c0-0.5,0.4-0.8,0.8-0.8h7.5v2h-3.3c-0.4,0-0.8,0.3-0.8,0.7c0,0.4,0.3,0.8,0.7,0.8
	c0,0,0,0,0,0h3.6c0.5,1.2,1.7,1.9,3,1.9h3.5v4.1c0,0.1,0,0.2,0,0.2L21.2,41.2z M40.3,15.8c0,0.2-0.2,0.4-0.3,0.4H28.8
	c-0.4,0-0.7,0.1-1,0.4l-3.6,3.3v-2.2c0-0.8-0.7-1.5-1.5-1.5h-5c-0.2,0-0.4-0.2-0.4-0.4v0v-3.5l0,0V4.3c0-0.2,0.2-0.3,0.4-0.3l0,0H40
	c0.2,0,0.3,0.2,0.3,0.3V15.8z"/>
</svg>
