<?xml version="1.0" encoding="utf-8"?>
<!-- Generator: Adobe Illustrator 24.0.1, SVG Export Plug-In . SVG Version: 6.00 Build 0)  -->
<svg version="1.1" id="PICTOS_vectos" xmlns="http://www.w3.org/2000/svg" xmlns:xlink="http://www.w3.org/1999/xlink" x="0px"
	 y="0px" viewBox="0 0 46.1 46.1" style="enable-background:new 0 0 46.1 46.1;" xml:space="preserve">
<style type="text/css">
	.st0{fill:#25465F;}
</style>
<path class="st0" d="M9.1,12.5h5.1c0.4,0,0.8-0.3,0.8-0.8c0-0.4-0.3-0.8-0.8-0.8H9.1c-0.4,0-0.8,0.3-0.8,0.8
	C8.3,12.1,8.7,12.5,9.1,12.5z"/>
<path class="st0" d="M41.5,12.8h-4.6c-1.1,0-2.1,0.5-2.8,1.4c-2.5-2.8-6-4.4-9.7-4.4h-2.2c0-2.1-1.7-3.8-3.8-3.8H4.8
	c-1,0-2,0.4-2.7,1.1C1.4,7.8,1,8.8,1,9.8v26.7c0,2.1,1.7,3.8,3.8,3.8c0,0,0,0,0,0h13.6c2.1,0,3.8-1.7,3.8-3.8v-0.8h2.2
	c3.7,0,7.3-1.6,9.7-4.4c0.7,0.9,1.7,1.3,2.8,1.4h4.6c1.9,0,3.5-1.6,3.5-3.5V16.3C45,14.4,43.4,12.8,41.5,12.8z M4.3,9.2
	C4.4,9.1,4.6,9,4.8,9h13.6c0.5,0,0.8,0.4,0.8,0.8v1.3c0,0.1,0,0.1,0,0.2v3.8c0,0.8-0.6,1.4-1.4,1.4H9.1c-1.9,0-3.5,1.6-3.5,3.5
	c0,0.3,0,0.7,0.1,1c-0.3,0.2-0.5,0.4-0.8,0.6C4.5,22,4.2,22.5,4,23.1V9.8C4,9.6,4.1,9.4,4.3,9.2z M19.3,36.5c0,0.5-0.4,0.8-0.8,0.8
	H4.8c-0.2,0-0.4-0.1-0.6-0.2C4.1,37,4,36.8,4,36.5V25c0.3,1,1,1.9,2,2.3c-0.1,0.3-0.1,0.6-0.1,0.8c0,1.9,1.6,3.5,3.5,3.5h1.9
	c0,0.2,0,0.3,0,0.5c0,1.9,1.6,3.5,3.5,3.5h4.5L19.3,36.5z M24.5,32.7h-9.7c-0.3,0.1-0.6-0.1-0.6-0.4c-0.1-0.3,0.1-0.6,0.4-0.6
	c0.1,0,0.2,0,0.3,0h5.4c0.8,0,1.5-0.7,1.5-1.5s-0.7-1.5-1.5-1.5H9.4C9.1,28.6,8.9,28.3,9,28c0.1-0.2,0.2-0.3,0.3-0.3h10.9v0
	c1-0.1,1.5-0.4,1.5-1.5c0-0.8-0.7-1.5-1.5-1.5H7.4c-0.2,0-0.3-0.1-0.4-0.3c-0.1-0.1-0.2-0.2-0.2-0.4c0-0.3,0.2-0.5,0.5-0.5H9h11.2
	l0,0c0.6,0,1.2-0.4,1.4-0.9c0.2-0.5,0.1-1.2-0.3-1.6c-0.2-0.2-0.3-0.3-1.1-0.4v-0.1h-1.1c-1.6,0-4.6,0-10.2,0
	c-0.3-0.1-0.4-0.3-0.4-0.6c0-0.3,0.2-0.5,0.5-0.5c0,0,0,0,0,0h8.8c2.4,0,4.4-2,4.4-4.4v-2.3h2.2c3.8,0,7.3,2.2,9,5.7V27
	C31.8,30.5,28.3,32.7,24.5,32.7L24.5,32.7z M42,29.1c0,0.3-0.2,0.5-0.5,0.5h-4.6c-0.3,0-0.5-0.2-0.5-0.5V16.3c0-0.3,0.2-0.5,0.5-0.5
	h4.6c0.3,0,0.5,0.2,0.5,0.5V29.1z"/>
<path class="st0" d="M39.2,16.4C38,16.4,37,18.5,37,21s1,4.6,2.2,4.7s2.2-2.1,2.2-4.7S40.5,16.4,39.2,16.4z"/>
</svg>
