<?xml version="1.0" encoding="utf-8"?>
<!-- Generator: Adobe Illustrator 24.0.1, SVG Export Plug-In . SVG Version: 6.00 Build 0)  -->
<svg version="1.1" id="PICTOS_vectos" xmlns="http://www.w3.org/2000/svg" xmlns:xlink="http://www.w3.org/1999/xlink" x="0px"
	 y="0px" viewBox="0 0 46.1 46.1" style="enable-background:new 0 0 46.1 46.1;" xml:space="preserve">
<style type="text/css">
	.st0{fill:#25465F;}
</style>
<path class="st0" d="M11.1,16.8h5.1c0.4,0,0.8-0.3,0.8-0.8c0-0.4-0.3-0.8-0.8-0.8h-5.1c-0.4,0-0.8,0.3-0.8,0.8
	C10.3,16.5,10.7,16.8,11.1,16.8z"/>
<path class="st0" d="M13.6,34.5c-2.6,0-4.6,1-4.7,2.2c0,1.2,2.1,2.3,4.7,2.3s4.6-1,4.6-2.2S16.2,34.6,13.6,34.5z"/>
<path class="st0" d="M32.2,24.9c-2.7,0.5-5.4,0-7.7-1.5c-0.1-0.1-0.2-0.1-0.3-0.1v-9c0-2-1.5-3.6-3.5-3.8c0.2-0.5,0.5-1,0.8-1.5l0,0
	l0.2-0.3c0.1,0.7,0.6,1.2,1.3,1.3h0.1c0.8,0,1.4-0.6,1.5-1.4l0.4-3.6c0.1-0.7-0.3-1.3-0.9-1.5h-0.1h-0.2h-0.2l0,0L20.1,3
	c-0.8-0.1-1.6,0.5-1.6,1.4S19,5.9,19.8,6h0.2c-0.4,0.4-0.7,0.8-1.1,1.2l0,0c-0.6,1-1.1,2-1.5,3.1H6.8C4.7,10.3,3,12,3,14.1
	c0,0,0,0,0,0v26.7c0,2.1,1.7,3.8,3.8,3.8l0,0h13.6c2.1,0,3.8-1.7,3.8-3.8V26.6c2.6,1.3,5.7,1.8,8.6,1.2c0.8-0.1,1.4-0.9,1.3-1.7
	s-0.9-1.4-1.7-1.3C32.3,24.8,32.3,24.9,32.2,24.9z M21.2,40.9c0,0.5-0.4,0.8-0.8,0.8c0,0,0,0,0,0H6.8c-0.5,0-0.8-0.4-0.8-0.8
	c0,0,0,0,0,0V14.2c0-0.5,0.4-0.8,0.8-0.8c0,0,0,0,0,0h13.6c0.5,0,0.8,0.4,0.8,0.8L21.2,40.9z"/>
<path class="st0" d="M41.4,21.8c4-6.2,2.3-14.5-3.9-18.6c-1.4-0.9-3.1-1.6-4.7-1.9c-1.7-0.3-3.4-0.3-5.1,0c-0.8,0.2-1.4,1-1.2,1.8
	c0.2,0.8,1,1.4,1.8,1.2c4.1-0.8,8.3,0.9,10.6,4.4c0.8,1.2,1.3,2.5,1.6,3.8c0.5,2.7,0,5.4-1.5,7.7l0,0c-0.1,0.1-0.2,0.2-0.2,0.3
	c0-0.8-0.7-1.5-1.5-1.5s-1.5,0.7-1.5,1.5l-0.4,3.6c-0.1,0.8,0.4,1.5,1.1,1.7h0.2h0.1l3.6,0.4h0.2c0.8,0,1.5-0.6,1.6-1.4
	s-0.6-1.5-1.4-1.6l0,0h-0.2C40.7,22.7,41,22.3,41.4,21.8L41.4,21.8z"/>
</svg>
