<?xml version="1.0" encoding="utf-8"?>
<!-- Generator: Adobe Illustrator 24.0.1, SVG Export Plug-In . SVG Version: 6.00 Build 0)  -->
<svg version="1.1" id="PICTOS_vectos" xmlns="http://www.w3.org/2000/svg" xmlns:xlink="http://www.w3.org/1999/xlink" x="0px"
	 y="0px" viewBox="0 0 46.1 46.1" style="enable-background:new 0 0 46.1 46.1;" xml:space="preserve">
<style type="text/css">
	.st0{fill:#25465F;}
</style>
<path class="st0" d="M13.6,35.1c-2.6,0-4.6,1-4.7,2.2c0,1.2,2.1,2.2,4.7,2.2s4.6-1,4.6-2.2S16.2,35.1,13.6,35.1z"/>
<path class="st0" d="M43,4.7l-1.5-1.5c-0.5-0.5-1.2-0.6-1.8-0.3l-3.4,1.8c-0.2,0.1-0.4,0.3-0.5,0.5l-0.9,1.4l-6.4,5
	c0.9-2.7,0.2-5.7-1.7-7.9c-2.3-2.5-5.9-3.3-9.1-2.1c-0.5,0.2-0.8,0.5-0.9,1c-0.1,0.5,0,1,0.3,1.4l3.7,4.1l-1.9,1.7l-3.7-4.1
	c-0.3-0.4-0.8-0.5-1.3-0.5c-0.5,0.1-0.9,0.4-1.1,0.8c-0.7,1.5-1,3.2-0.8,4.9h-5c-2.1,0-3.8,1.7-3.8,3.8c0,0,0,0,0,0v26.7
	c0,2.1,1.7,3.8,3.8,3.8h13.6c2.1,0,3.8-1.7,3.8-3.8V27.6l3.5-3.9l6,6.5c1.5,1.7,4.2,1.8,5.9,0.3s1.8-4.2,0.3-5.9l0,0l-6.3-6.9l6-6.4
	l1.4-1c0.2-0.1,0.4-0.3,0.5-0.6l1.8-3.4C43.6,5.8,43.5,5.1,43,4.7z M21.8,25.8c-0.9,1-1.9,1.8-3.1,2.4c-0.5,0.2-1,0.3-1.9-0.7
	c-1.1-1.2-1-2,2.2-4.9l9.2-6.4l1.1,1.2L21.8,25.8z M17.6,12.9c0.3,0.3,0.6,0.5,1,0.5c0.4,0,0.8-0.1,1.1-0.4l4.1-3.8
	c0.3-0.3,0.5-0.6,0.5-1c0-0.4-0.1-0.8-0.4-1.1L21.1,4c1.3,0.1,2.5,0.7,3.4,1.6c1.4,1.6,1.7,4,0.7,5.9c-0.3,0.6-0.2,1.2,0.2,1.7
	l0.7,0.8l-2,1.4L23.8,15c-0.4-0.5-1.1-0.8-1.8-0.5c-2,0.9-4.4,0.4-5.9-1.2c-0.8-0.9-1.3-2.1-1.3-3.4L17.6,12.9z M20.4,42.3H6.8
	c-0.5,0-0.8-0.4-0.8-0.8V14.8c0-0.5,0.4-0.8,0.8-0.8h6.1c0.3,0.5,0.6,0.9,0.9,1.3c0.2,0.2,0.4,0.5,0.7,0.7h-3.4
	c-0.4,0-0.8,0.3-0.8,0.8s0.3,0.8,0.8,0.8h5.1c0.2,0,0.3-0.1,0.5-0.2c1.3,0.5,2.6,0.8,4,0.6l-3.4,2.4l-0.2,0.1
	c-2.4,2.2-5.9,5.5-2.4,9.2c0.9,1.1,2.1,1.7,3.5,1.7c0.5,0,1.1-0.1,1.6-0.3c0.5-0.2,1-0.5,1.5-0.8v11.3
	C21.2,41.9,20.9,42.3,20.4,42.3z M37.5,28.3c-0.5,0.4-1.2,0.4-1.7-0.1l-6.2-6.7l1.6-1.8l6.3,6.9C38.1,27.1,38.1,27.9,37.5,28.3
	C37.6,28.3,37.6,28.3,37.5,28.3L37.5,28.3z M31.6,15.5L30.1,14l5.7-4.4l0.6,0.6L31.6,15.5z M39,8.1l-0.3,0.2l-0.8-0.8L38,7.2l2-1.1
	L39,8.1z"/>
</svg>
