<?xml version="1.0" encoding="utf-8"?>
<!-- Generator: Adobe Illustrator 24.0.1, SVG Export Plug-In . SVG Version: 6.00 Build 0)  -->
<svg version="1.1" id="PICTOS_vectos" xmlns="http://www.w3.org/2000/svg" xmlns:xlink="http://www.w3.org/1999/xlink" x="0px"
	 y="0px" viewBox="0 0 46.1 46.1" style="enable-background:new 0 0 46.1 46.1;" xml:space="preserve">
<style type="text/css">
	.st0{fill:#25465F;}
</style>
<path class="st0" d="M17.6,35.2c-2.6,0-4.6,1-4.7,2.2c0,1.2,2.1,2.2,4.7,2.2s4.6-1,4.6-2.2S20.2,35.2,17.6,35.2z"/>
<path class="st0" d="M29.2,14.9c-2.6,0-4.6,1-4.6,2.2c0,1.2,2.1,2.2,4.7,2.2s4.6-1,4.6-2.2S31.8,14.9,29.2,14.9z"/>
<path class="st0" d="M36,9.3V6.5c0-3-2.4-5.5-5.5-5.5h-2.6c-3,0-5.5,2.5-5.5,5.5v2.8c-1.2,0.1-2.2,0.7-2.9,1.7h-8.7
	C8.7,11,7,12.8,7,14.9v26.7c0,2.1,1.7,3.8,3.8,3.8l0,0h13.6c2.1,0,3.8-1.7,3.8-3.8V24.8h7.6c2,0,3.7-1.7,3.7-3.7V13
	C39.5,11,37.9,9.4,36,9.3z M27.9,4h2.6C31.9,4,33,5.1,33,6.5v2.8h-7.6V6.5C25.4,5.1,26.5,4,27.9,4z M25.2,41.6
	c0,0.5-0.4,0.8-0.8,0.8H10.8c-0.5,0-0.8-0.4-0.8-0.8V14.9c0-0.5,0.4-0.8,0.8-0.8H19v2h-3.9c-0.4,0-0.8,0.3-0.8,0.8s0.3,0.8,0.8,0.8
	H19v3.6c0,2,1.7,3.7,3.7,3.7c0,0,0,0,0,0h2.6L25.2,41.6z M36.5,21.1c0,0.4-0.3,0.7-0.7,0.7h0H22.7c-0.4,0-0.7-0.3-0.7-0.7l0,0v-7.6
	c0.2-0.3,0.4-0.6,0.4-1c0-0.1,0-0.1,0-0.1c0.1-0.1,0.2-0.1,0.3-0.1h13.1c0.4,0,0.7,0.3,0.7,0.7L36.5,21.1z"/>
</svg>
