<?xml version="1.0" encoding="utf-8"?>
<!-- Generator: Adobe Illustrator 24.0.1, SVG Export Plug-In . SVG Version: 6.00 Build 0)  -->
<svg version="1.1" id="PICTOS_vectos" xmlns="http://www.w3.org/2000/svg" xmlns:xlink="http://www.w3.org/1999/xlink" x="0px"
	 y="0px" viewBox="0 0 46.1 46.1" style="enable-background:new 0 0 46.1 46.1;" xml:space="preserve">
<style type="text/css">
	.st0{fill:#25465F;}
</style>
<path class="st0" d="M36.4,1c-2.3,0-4.6,0.9-6.2,2.5c-0.6,0.6-0.6,1.5,0,2.1l0,0c0.6,0.6,1.5,0.6,2.1,0c1.1-1,2.6-1.6,4.1-1.6
	c3.2,0,5.7,2.6,5.8,5.8c0,2.7-2,5-4.7,5.3c-2.6,0.6-5.3-0.8-6.2-3.4c-0.3-0.7-0.5-1.4-0.6-2.1l-0.2-0.7C30.2,8,30,7.2,29.7,6.4
	c-1.4-3.9-5.5-6.1-9.6-5.2c-4.1,0.6-7.2,4.1-7.2,8.3c0,0.2,0.1,0.5,0.2,0.7H5.8C3.7,10.2,2,11.9,2,14l0,0v26.7
	c0,2.1,1.7,3.8,3.8,3.8h13.6c2.1,0,3.8-1.7,3.8-3.8V18c1.8-0.3,3.4-1.1,4.6-2.4c0.6-0.6,0.5-1.6-0.1-2.1s-1.5-0.5-2,0
	c-0.7,0.7-1.6,1.2-2.5,1.4v-1c0-2.1-1.7-3.8-3.8-3.8h-3.7c0.1-0.2,0.2-0.4,0.2-0.7c0-2.7,2-5,4.7-5.3c2.6-0.6,5.3,0.8,6.2,3.3
	c0.2,0.7,0.4,1.4,0.6,2.2l0.2,0.7c0.2,0.8,0.4,1.7,0.7,2.5c1.2,3.3,4.4,5.5,7.9,5.4c0.6,0,1.1-0.1,1.7-0.2c4.1-0.6,7.2-4.1,7.2-8.3
	C45.2,4.9,41.2,1,36.4,1z M20.2,13.9v2.3c-0.1,0.2-0.1,0.3-0.1,0.5s0,0.3,0.1,0.5v23.5c0,0.5-0.4,0.8-0.8,0.8l0,0H5.8
	c-0.5,0-0.8-0.4-0.8-0.8V13.9c0-0.5,0.4-0.8,0.8-0.8l0,0h13.6C19.9,13.1,20.2,13.5,20.2,13.9L20.2,13.9z"/>
<path class="st0" d="M10.1,16.6h5.1c0.4,0,0.8-0.3,0.8-0.8c0-0.4-0.3-0.8-0.8-0.8h-5.1c-0.4,0-0.8,0.3-0.8,0.8
	C9.3,16.2,9.7,16.6,10.1,16.6z"/>
<path class="st0" d="M12.7,38.7c2.6,0,4.6-1,4.6-2.2s-2.1-2.2-4.6-2.3S8,35.2,8,36.5S10.1,38.7,12.7,38.7z"/>
</svg>
