<?xml version="1.0" encoding="utf-8"?>
<!-- Generator: Adobe Illustrator 24.0.1, SVG Export Plug-In . SVG Version: 6.00 Build 0)  -->
<svg version="1.1" id="PICTOS_vectos" xmlns="http://www.w3.org/2000/svg" xmlns:xlink="http://www.w3.org/1999/xlink" x="0px"
	 y="0px" viewBox="0 0 46.1 46.1" style="enable-background:new 0 0 46.1 46.1;" xml:space="preserve">
<style type="text/css">
	.st0{fill:#25465F;}
</style>
<path class="st0" d="M19.2,13.3h-5.1c-0.4,0-0.8,0.3-0.8,0.8s0.3,0.8,0.8,0.8h5.1c0.4,0,0.8-0.3,0.8-0.8S19.6,13.3,19.2,13.3z"/>
<path class="st0" d="M12,34.7c0,1.2,2.1,2.2,4.7,2.2s4.6-1,4.6-2.2s-2.1-2.2-4.6-2.3S12,33.5,12,34.7z"/>
<path class="st0" d="M25.7,20.1c-0.8,0-1.5,0.7-1.5,1.5v17.2c0,0.5-0.4,0.8-0.8,0.8h0H9.8c-0.5,0-0.8-0.4-0.8-0.8V12.1
	c0-0.5,0.4-0.8,0.8-0.8h9c0.8,0,1.5-0.7,1.5-1.5s-0.7-1.5-1.5-1.5h-9C7.7,8.3,6,10,6,12.1l0,0v26.7c0,2.1,1.7,3.8,3.8,3.8h13.6
	c2.1,0,3.8-1.7,3.8-3.8V21.6C27.2,20.8,26.6,20.1,25.7,20.1z"/>
<path class="st0" d="M29.3,12l-2.1,2V3.5c0-0.8-0.7-1.5-1.5-1.5s-1.5,0.7-1.5,1.5v10.4l-2-2c-0.7-0.5-1.6-0.3-2.1,0.4
	c-0.4,0.5-0.4,1.2,0,1.7l4.4,4.5c0.3,0.4,0.7,0.6,1.2,0.6l0,0c0.4,0,0.8-0.2,1-0.4l4.6-4.5c0.7-0.5,0.8-1.4,0.3-2.1
	c-0.5-0.7-1.4-0.8-2.1-0.3C29.5,11.8,29.4,11.9,29.3,12z"/>
<path class="st0" d="M41.5,7.1l-4.4-4.5C36.8,2.2,36.3,2,35.9,2l0,0c-0.4,0-0.8,0.2-1.1,0.4L30.2,7c-0.6,0.6-0.6,1.5-0.1,2.1
	c0.6,0.6,1.5,0.6,2.1,0.1c0,0,0.1,0,0.1-0.1l2.1-2v10.5c0,0.8,0.7,1.5,1.5,1.5c0.8,0,1.5-0.7,1.5-1.5V7.2l2,2c0.6,0.6,1.5,0.6,2.1,0
	C42,8.6,42,7.7,41.5,7.1z"/>
</svg>
