<?xml version="1.0" encoding="utf-8"?>
<!-- Generator: Adobe Illustrator 24.0.1, SVG Export Plug-In . SVG Version: 6.00 Build 0)  -->
<svg version="1.1" id="PICTOS_vectos" xmlns="http://www.w3.org/2000/svg" xmlns:xlink="http://www.w3.org/1999/xlink" x="0px"
	 y="0px" viewBox="0 0 46 46" style="enable-background:new 0 0 46 46;" xml:space="preserve">
<style type="text/css">
	.st0{fill:#25465F;}
</style>
<path class="st0" d="M44.6,1.5c-0.6-0.6-1.5-0.6-2.1,0l-6.3,6.2V5.4c0-2.4-2-4.4-4.4-4.4l0,0H14.6c-2.4,0-4.4,2-4.4,4.4v28.2
	l-8.8,8.8c-0.6,0.6-0.6,1.5,0,2.1c0.3,0.3,0.7,0.4,1.1,0.4c0.4,0,0.8-0.2,1.1-0.4l6.7-6.7v2.8c0,2.4,2,4.4,4.4,4.4h17.2
	c2.4,0,4.4-2,4.4-4.4V12l8.4-8.4C45.2,3.1,45.2,2.1,44.6,1.5C44.6,1.5,44.6,1.5,44.6,1.5z M13.3,5.4c0-0.8,0.6-1.4,1.4-1.4h17.2
	c0.8,0,1.4,0.6,1.4,1.4c0,0,0,0,0,0v5.4L22.8,21.1c-0.3-2-2.1-3.5-4.2-3.4c-2.8,0-4.4,2-4.4,5.5c0,2.2,0.6,3.8,1.8,4.7l-2.7,2.7
	L13.3,5.4z M17.8,26.1c-0.5-0.3-0.9-1.1-0.9-2.9c0-2.7,0.8-3.1,1.7-3.1s1.7,0.4,1.7,3.1c0,0.2,0,0.3,0,0.5L17.8,26.1z M33.2,40.6
	c0,0.8-0.6,1.4-1.4,1.4H14.6c-0.8,0-1.4-0.6-1.4-1.4v-5.8l6.3-6.2c1.6-0.3,2.9-1.6,3.2-3.2l1-1c0.3,2.9,1.7,4.3,4.4,4.3
	s4.2-1.4,4.2-3.7c0.1-1.8-1.2-3.5-3.1-3.6c-0.2,0-0.4,0-0.5,0c-0.8-0.1-1.7,0.2-2.3,0.8c0-0.2,0-0.3,0.1-0.5l1.7-1.7h0.1
	c0.8,0,1.2,0.3,1.4,0.9v0.1l2.6-0.5v-0.1c-0.2-1.1-1-2-2.1-2.4l3.1-3V40.6z M26.7,25c0-0.8,0.6-1.4,1.4-1.4c0.8,0,1.4,0.6,1.4,1.4
	c0,0,0,0,0,0c0.1,0.7-0.5,1.3-1.2,1.4c-0.1,0-0.2,0-0.3,0c-0.7,0.1-1.4-0.5-1.4-1.2C26.7,25.1,26.7,25.1,26.7,25z"/>
<path class="st0" d="M20,8.1h6.5c0.4,0,0.8-0.3,0.8-0.8s-0.3-0.8-0.8-0.8H20c-0.4,0-0.8,0.3-0.8,0.8S19.6,8.1,20,8.1z"/>
<path class="st0" d="M23.2,34.4c-2.6,0-4.6,1-4.7,2.2s2.1,2.2,4.7,2.2s4.6-1,4.6-2.2S25.8,34.4,23.2,34.4z"/>
</svg>
