<?xml version="1.0" encoding="utf-8"?>
<!-- Generator: Adobe Illustrator 24.0.1, SVG Export Plug-In . SVG Version: 6.00 Build 0)  -->
<svg version="1.1" id="PICTOS_vectos" xmlns="http://www.w3.org/2000/svg" xmlns:xlink="http://www.w3.org/1999/xlink" x="0px"
	 y="0px" viewBox="0 0 46.1 46.1" style="enable-background:new 0 0 46.1 46.1;" xml:space="preserve">
<style type="text/css">
	.st0{fill:#25465F;}
</style>
<path class="st0" d="M40.6,3.4c-0.6-0.6-1.5-0.6-2.1,0c0,0,0,0,0,0L27.2,14.7v-0.5c0-2.1-1.7-3.8-3.8-3.8H9.8
	c-2.1,0-3.8,1.7-3.8,3.8l0,0v26.7c0,2.1,1.7,3.8,3.8,3.8h13.6c2.1,0,3.8-1.7,3.8-3.8v-22L40.6,5.6C41.2,5,41.2,4,40.6,3.4
	C40.6,3.4,40.6,3.4,40.6,3.4z M24.2,40.9c0,0.5-0.4,0.8-0.8,0.8h0H9.8c-0.5,0-0.8-0.4-0.8-0.8c0,0,0,0,0,0V14.2
	c0-0.5,0.4-0.8,0.8-0.8c0,0,0,0,0,0h13.6c0.5,0,0.8,0.4,0.8,0.8c0,0,0,0,0,0V40.9z"/>
<path class="st0" d="M26.1,8c0.1,0.1,0.3,0.2,0.4,0.2c0.2,0.1,0.3,0.1,0.5,0.2c0.2,0,0.3,0,0.5,0c0.2,0,0.3,0,0.5,0
	c0.2,0,0.3-0.1,0.5-0.1c0.1-0.1,0.3-0.2,0.4-0.3c0.1-0.1,0.3-0.2,0.4-0.3c1-1,1-2.5,0-3.5c0,0,0,0,0,0C29.1,4,29,3.9,28.8,3.8
	c-0.1-0.1-0.3-0.2-0.4-0.2c-0.1-0.1-0.3-0.1-0.5-0.1c-0.3-0.1-0.7-0.1-1,0c-0.2,0-0.3,0.1-0.5,0.1c-0.1,0.1-0.3,0.1-0.4,0.2
	c-0.1,0.1-0.3,0.2-0.4,0.3c-1,1-1,2.6,0,3.5C25.8,7.8,25.9,7.9,26.1,8z"/>
<path class="st0" d="M40.4,15.6c-0.1-0.2-0.1-0.3-0.2-0.4c-0.1-0.1-0.2-0.3-0.3-0.4c-0.6-0.6-1.4-0.8-2.2-0.7
	c-0.2,0-0.3,0.1-0.5,0.1c-0.2,0.1-0.3,0.1-0.4,0.2c-0.1,0.1-0.3,0.2-0.4,0.3c-0.1,0.1-0.2,0.2-0.3,0.4c-0.1,0.1-0.2,0.3-0.2,0.4
	c-0.1,0.2-0.1,0.3-0.2,0.5c-0.1,0.3-0.1,0.7,0,1c0.1,0.3,0.2,0.6,0.4,0.9c0.1,0.1,0.2,0.3,0.3,0.4c0.1,0.1,0.2,0.2,0.4,0.3
	c0.1,0.1,0.3,0.2,0.4,0.2c0.2,0.1,0.3,0.1,0.5,0.1c0.2,0,0.3,0,0.5,0c0.7,0,1.3-0.3,1.8-0.7c0.1-0.1,0.2-0.2,0.3-0.4
	c0.2-0.3,0.3-0.6,0.4-0.9c0.1-0.3,0.1-0.7,0-1C40.5,15.9,40.5,15.8,40.4,15.6z"/>
<path class="st0" d="M14.1,16.9h5.1c0.4,0,0.8-0.3,0.8-0.8c0-0.4-0.3-0.8-0.8-0.8h-5.1c-0.4,0-0.8,0.3-0.8,0.8
	C13.3,16.5,13.7,16.9,14.1,16.9z"/>
<path class="st0" d="M16.6,34.6c-2.6,0-4.6,1-4.7,2.2c0,1.2,2.1,2.2,4.7,2.2s4.6-1,4.6-2.2S19.2,34.6,16.6,34.6z"/>
</svg>
