<?xml version="1.0" encoding="utf-8"?>
<!-- Generator: Adobe Illustrator 24.0.1, SVG Export Plug-In . SVG Version: 6.00 Build 0)  -->
<svg version="1.1" id="PICTOS_vectos" xmlns="http://www.w3.org/2000/svg" xmlns:xlink="http://www.w3.org/1999/xlink" x="0px"
	 y="0px" viewBox="0 0 46.1 46.1" style="enable-background:new 0 0 46.1 46.1;" xml:space="preserve">
<style type="text/css">
	.st0{fill:#25465F;}
</style>
<path class="st0" d="M15.4,34.1c-2.6,0-4.6,1-4.7,2.2c0,1.2,2.1,2.2,4.7,2.2s4.6-1,4.6-2.2S18,34.1,15.4,34.1z"/>
<path class="st0" d="M42.3,8.8C39.1,4.1,33.8,1.1,28.1,1c-5.7,0.1-11,3.1-14.2,7.8c-0.2,0.3-0.3,0.7-0.3,1.1h-5
	c-2.1,0-3.8,1.7-3.8,3.8v26.7c0,2.1,1.7,3.8,3.8,3.8l0,0h13.6c2.1,0,3.8-1.7,3.8-3.8V18.9c0.7,0.1,1.4,0.1,2.1,0.1
	c5.7-0.1,11-3.1,14.2-7.8C42.8,10.5,42.8,9.6,42.3,8.8z M23,40.5c0,0.5-0.4,0.8-0.8,0.8H8.6c-0.5,0-0.8-0.4-0.8-0.8V13.8
	c0-0.5,0.4-0.8,0.8-0.8h6.6c0.6,0.7,1.3,1.4,2,2h-4.4c-0.4,0-0.8,0.3-0.8,0.8c0,0.4,0.3,0.8,0.8,0.8H18c0.3,0,0.6-0.2,0.7-0.5
	c1.3,0.9,2.8,1.7,4.4,2.2v22.2H23z M28.1,16c-4.5-0.1-8.7-2.3-11.3-6c2.6-3.7,6.8-5.9,11.3-6c4.5,0.1,8.7,2.3,11.4,6
	C36.9,13.7,32.6,15.9,28.1,16z"/>
<path class="st0" d="M31.2,5.7C28.8,4,25.5,4.6,23.8,7s-1.1,5.7,1.3,7.4c0.9,0.6,1.9,0.9,3,0.9c0.3,0,0.6,0,0.9-0.1
	c1.4-0.2,2.6-1,3.4-2.2C34.1,10.7,33.5,7.4,31.2,5.7z M30,11.3c-0.3,0.5-0.9,0.8-1.5,0.9c-0.6,0.1-1.2,0-1.7-0.4
	c-1-0.7-1.3-2.2-0.6-3.2c0.7-1,2.2-1.3,3.2-0.6C30.5,8.9,30.7,10.3,30,11.3L30,11.3z"/>
</svg>
