<?xml version="1.0" encoding="utf-8"?>
<!-- Generator: Adobe Illustrator 24.0.1, SVG Export Plug-In . SVG Version: 6.00 Build 0)  -->
<svg version="1.1" id="PICTOS_vectos" xmlns="http://www.w3.org/2000/svg" xmlns:xlink="http://www.w3.org/1999/xlink" x="0px"
	 y="0px" viewBox="0 0 46.1 46.1" style="enable-background:new 0 0 46.1 46.1;" xml:space="preserve">
<style type="text/css">
	.st0{fill:#25465F;}
</style>
<path class="st0" d="M32.6,1H15.4C13,1,11,3,11,5.4v35.3c0,2.4,2,4.4,4.4,4.4h17.2c2.4,0,4.4-2,4.4-4.4V5.4C36.9,3,35,1,32.6,1
	L32.6,1z M33.9,40.6c0,0.8-0.6,1.4-1.4,1.4H15.4c-0.8,0-1.4-0.6-1.4-1.4V5.4C14,4.6,14.6,4,15.4,4h17.2c0.8,0,1.4,0.6,1.4,1.4
	c0,0,0,0,0,0V40.6z"/>
<path class="st0" d="M20.7,8.1h6.5c0.4,0,0.8-0.3,0.8-0.8s-0.3-0.8-0.8-0.8h-6.5c-0.4,0-0.8,0.3-0.8,0.8S20.3,8.1,20.7,8.1z"/>
<path class="st0" d="M24,34.4c-2.6,0-4.6,1-4.7,2.2s2.1,2.2,4.7,2.2s4.6-1,4.6-2.2S26.5,34.4,24,34.4z"/>
</svg>
