<?xml version="1.0" encoding="utf-8"?>
<!-- Generator: Adobe Illustrator 24.0.1, SVG Export Plug-In . SVG Version: 6.00 Build 0)  -->
<svg version="1.1" id="PICTOS_vectos" xmlns="http://www.w3.org/2000/svg" xmlns:xlink="http://www.w3.org/1999/xlink" x="0px"
	 y="0px" viewBox="0 0 46.1 46.1" style="enable-background:new 0 0 46.1 46.1;" xml:space="preserve">
<style type="text/css">
	.st0{fill:#25465F;}
</style>
<path class="st0" d="M17,9.2c0.3,0.3,0.7,0.3,1,0c0.3-0.2,0.4-0.6,0.2-0.9l-3.5-6.8c-0.2-0.4-0.6-0.5-1-0.3c-0.1,0-0.2,0.1-0.2,0.2
	l-1.9,2.2c-0.3,0.3-0.2,0.8,0.1,1.1L17,9.2z M13.8,3.1l1.3,2.5l-1.9-1.7L13.8,3.1z"/>
<path class="st0" d="M19.1,7c0.1,0,0.2,0.1,0.3,0.1c0.2,0,0.4-0.1,0.5-0.2l3.7-3.6c0.2-0.2,0.3-0.5,0.2-0.7
	c-0.1-0.3-0.3-0.5-0.6-0.5l-3.6-0.9c-0.4-0.1-0.8,0.2-0.9,0.6c0,0.1,0,0.1,0,0.2l-0.1,4.5C18.6,6.7,18.8,6.9,19.1,7z M20.2,2.8
	l1.4,0.3l-1.4,1.4L20.2,2.8z"/>
<path class="st0" d="M29.8,14.8L25,13.2c-0.4-0.1-0.8,0.1-0.9,0.4c0,0,0,0,0,0c-0.2,0.4,0,0.8,0.4,1c0,0,0,0,0.1,0l4.8,1.6
	c0.1,0,0.2,0,0.2,0c0.4,0,0.8-0.3,0.8-0.7C30.3,15.2,30.1,14.9,29.8,14.8z"/>
<path class="st0" d="M21.2,32.2c-2.4-0.8-4.7-0.6-5.1,0.6c-0.4,1.2,1.3,2.8,3.7,3.7s4.6,0.6,5-0.6S23.7,33,21.2,32.2z"/>
<path class="st0" d="M35.4,11.5L22.6,7.1c-0.5-0.2-1-0.1-1.4,0.2c-0.6,0.5-0.8,0.6-0.8,6.3l-1.1-1.5c-0.3-0.4-0.9-0.7-1.4-0.6
	c-0.6,0.1-1,0.5-1.2,1L9.1,34.8c-0.7,2,0.4,4.2,2.4,4.9L24.4,44c0.4,0.1,0.8,0.2,1.2,0.2c1.6,0,3.1-1.1,3.6-2.6l8.6-25.3
	C38.5,14.3,37.4,12.2,35.4,11.5z M35,15.4l-8.6,25.3c-0.1,0.2-0.2,0.4-0.4,0.5c-0.2,0.1-0.4,0.1-0.6,0l-12.8-4.3
	c-0.4-0.1-0.7-0.6-0.6-1c0,0,0,0,0,0l6.6-19.5l2.1,2.8c0.5,0.7,1.4,0.8,2.1,0.3c0.4-0.3,0.6-0.7,0.6-1.2c0-2.8,0-5.7,0.1-7.6l11,3.7
	C34.9,14.5,35.1,14.9,35,15.4C35,15.4,35,15.4,35,15.4z"/>
</svg>
