<?xml version="1.0" encoding="utf-8"?>
<!-- Generator: Adobe Illustrator 24.0.1, SVG Export Plug-In . SVG Version: 6.00 Build 0)  -->
<svg version="1.1" id="PICTOS_vectos" xmlns="http://www.w3.org/2000/svg" xmlns:xlink="http://www.w3.org/1999/xlink" x="0px"
	 y="0px" viewBox="0 0 46 46" style="enable-background:new 0 0 46 46;" xml:space="preserve">
<style type="text/css">
	.st0{fill:#25465F;}
</style>
<path class="st0" d="M16,34.9c-2.6,0-4.7,1-4.7,2.2s2.1,2.2,4.7,2.2s4.6-1,4.6-2.2S18.6,34.9,16,34.9z"/>
<path class="st0" d="M38.6,6.4c-3.6-5.2-10.8-6.5-16-2.8c-2.4,1.7-4.1,4.3-4.7,7.2H9.2c-2.1,0-3.8,1.7-3.8,3.8v26.7
	c0,2.1,1.7,3.8,3.8,3.8h13.6c2.1,0,3.8-1.7,3.8-3.8V24.2l0.6,0.1c0.7,0.1,1.3,0.2,2,0.2c5.6,0,10.3-4,11.3-9.5
	C41,12,40.3,8.9,38.6,6.4z M23.6,24v17.2c0,0.5-0.4,0.8-0.8,0.8h0H9.2c-0.5,0-0.8-0.4-0.8-0.8V14.6c0-0.5,0.4-0.8,0.8-0.8
	c0,0,0,0,0,0h8.5c0,0.7,0.1,1.3,0.3,2h-4.5c-0.4,0-0.8,0.3-0.8,0.8s0.3,0.8,0.8,0.8h5c0.3,0.8,0.8,1.6,1.3,2.4
	c1.1,1.5,2.5,2.8,4.1,3.6C23.7,23.5,23.6,23.7,23.6,24L23.6,24z M27.6,21.3c-4.2-0.7-7.2-4.5-7-8.8c0-0.1,0-0.2,0-0.3
	c0,0,0-0.1,0-0.1c0-0.2,0-0.4,0.1-0.6c0.2-1.2,0.7-2.4,1.4-3.4L34,19.9C32.2,21.2,29.9,21.7,27.6,21.3L27.6,21.3z M37.5,14.4
	c-0.2,1.2-0.7,2.4-1.4,3.4L24.3,6c1.4-1,3.1-1.5,4.8-1.5c0.5,0,1,0.1,1.5,0.2C35.2,5.4,38.3,9.9,37.5,14.4L37.5,14.4z"/>
</svg>
