<?xml version="1.0" encoding="utf-8"?>
<!-- Generator: Adobe Illustrator 24.0.1, SVG Export Plug-In . SVG Version: 6.00 Build 0)  -->
<svg version="1.1" id="PICTOS_vectos" xmlns="http://www.w3.org/2000/svg" xmlns:xlink="http://www.w3.org/1999/xlink" x="0px"
	 y="0px" viewBox="0 0 46.1 46.1" style="enable-background:new 0 0 46.1 46.1;" xml:space="preserve">
<style type="text/css">
	.st0{fill:#25465F;}
</style>
<path class="st0" d="M9.1,17.1h5.1c0.4,0,0.8-0.3,0.8-0.8c0-0.4-0.3-0.8-0.8-0.8H9.1c-0.4,0-0.8,0.3-0.8,0.8
	C8.3,16.8,8.7,17.1,9.1,17.1z"/>
<path class="st0" d="M11.6,34.8c-2.6,0-4.7,1-4.7,2.2s2.1,2.2,4.7,2.2s4.6-1,4.6-2.2S14.2,34.9,11.6,34.8z"/>
<path class="st0" d="M45,17C44.9,8.2,37.7,1.1,28.9,1.1c-6.3,0-12,3.8-14.5,9.6H4.8c-2.1,0-3.8,1.7-3.8,3.8v26.7
	C1,43.3,2.7,45,4.8,45h13.6c2.1,0,3.8-1.7,3.8-3.8v-9.7c2.1,1,4.4,1.5,6.7,1.6h0.1h0.1C38,32.9,45,25.8,45,17z M30.5,4.7
	c1.2,1,2.4,3.1,3.1,6h-3.1V4.7z M27.5,4.5v6.2h-3.3C24.9,7.6,26.2,5.4,27.5,4.5z M27.5,13.7v7.6h-3.6c-0.2-1.5-0.4-3-0.4-4.5
	c0-1,0.1-2.1,0.2-3.1H27.5z M27.5,24.3v5.1c-1.4-1.4-2.4-3.1-2.9-5.1H27.5z M30.5,29.4v-5.1h2.9C33,26.2,32,28,30.5,29.4z
	 M30.5,21.3v-7.6h3.7c0.1,1.1,0.2,2.2,0.2,3.3l0,0c0,1.4-0.1,2.9-0.3,4.3L30.5,21.3z M37.2,13.7h4.3c0.3,1.1,0.4,2.2,0.4,3.3
	c0,1.5-0.3,2.9-0.7,4.3h-4.1c0.2-1.4,0.3-2.9,0.3-4.3C37.4,15.9,37.4,14.8,37.2,13.7z M40.4,10.7h-3.6c-0.4-1.8-1-3.6-1.9-5.3
	C37.2,6.5,39.1,8.4,40.4,10.7z M22.9,5.6c-0.8,1.6-1.4,3.3-1.8,5.1h-3.4C18.9,8.5,20.7,6.7,22.9,5.6z M18.4,42H4.8
	C4.4,42,4,41.6,4,41.2V14.5c0-0.5,0.4-0.8,0.8-0.8h13.6c0.4,0,0.8,0.4,0.8,0.8v8c0,0.2,0,0.3,0,0.5v18.2C19.2,41.6,18.8,42,18.4,42z
	 M22.2,26.4c0.3,0.7,0.6,1.5,1,2.2c-0.3-0.2-0.7-0.4-1-0.6V26.4z M35,28.5c0.7-1.3,1.2-2.8,1.6-4.2h3.2C38.6,26,36.9,27.5,35,28.5z"
	/>
</svg>
