<?xml version="1.0" encoding="utf-8"?>
<!-- Generator: Adobe Illustrator 24.0.1, SVG Export Plug-In . SVG Version: 6.00 Build 0)  -->
<svg version="1.1" id="PICTOS_vectos" xmlns="http://www.w3.org/2000/svg" xmlns:xlink="http://www.w3.org/1999/xlink" x="0px"
	 y="0px" viewBox="0 0 46.1 46.1" style="enable-background:new 0 0 46.1 46.1;" xml:space="preserve">
<style type="text/css">
	.st0{fill:#25465F;}
</style>
<path class="st0" d="M11.6,34.8c-2.6,0-4.6,1-4.6,2.2s2.1,2.2,4.7,2.2s4.6-1,4.6-2.2S14.2,34.8,11.6,34.8z"/>
<path class="st0" d="M40.8,7.2C40,3.1,36.1,0.4,32,1.1c-1.8,0.3-3.4,1.3-4.6,2.7c-0.5-0.1-1-0.2-1.5-0.2c-2.7,0-5.2,1.6-6.3,4.1
	C17.8,8,16.1,9.1,15,10.6H4.8c-2.1,0-3.8,1.7-3.8,3.8v26.7C1,43.3,2.7,45,4.8,45l0,0h13.6c2.1,0,3.8-1.7,3.8-3.8V21.5h15.2
	c4.2,0,7.5-3.4,7.5-7.5l0,0C44.9,11.1,43.3,8.5,40.8,7.2z M18.4,42H4.8C4.4,42,4,41.6,4,41.2V14.5c0-0.5,0.4-0.8,0.8-0.8h9
	c0,0.3-0.1,0.6-0.1,0.9c0,0.3,0,0.7,0.1,1H9.1c-0.4,0-0.8,0.3-0.8,0.8c0,0.4,0.3,0.8,0.8,0.8h5.1c0.8,2.2,2.7,3.7,5,4.2v19.8
	C19.2,41.6,18.9,42,18.4,42z M37.4,18.5H20.6c-2.1,0-3.9-1.7-3.9-3.9c0-2.1,1.7-3.9,3.9-3.9h0.1c0.7,0,1.4-0.4,1.5-1.1
	c0.4-1.7,2-2.9,3.8-2.9c0.5,0,1,0.1,1.5,0.3c0.7,0.3,1.5,0,1.9-0.7c0.6-1.1,1.5-1.8,2.7-2.2c2.4-0.7,4.9,0.7,5.6,3.1
	c0.1,0.3,0.2,0.7,0.2,1c0,0.6,0.4,1.1,1,1.3c2.4,0.8,3.6,3.4,2.8,5.8C41.1,17.2,39.3,18.5,37.4,18.5L37.4,18.5z"/>
</svg>
