<?xml version="1.0" encoding="utf-8"?>
<!-- Generator: Adobe Illustrator 24.0.1, SVG Export Plug-In . SVG Version: 6.00 Build 0)  -->
<svg version="1.1" id="PICTOS_vectos" xmlns="http://www.w3.org/2000/svg" xmlns:xlink="http://www.w3.org/1999/xlink" x="0px"
	 y="0px" viewBox="0 0 46.1 46.1" style="enable-background:new 0 0 46.1 46.1;" xml:space="preserve">
<style type="text/css">
	.st0{fill:#25465F;}
</style>
<path class="st0" d="M17.5,16.5c0.4,0,0.8-0.3,0.8-0.8S17.9,15,17.5,15l0,0h-5.1c-0.4,0-0.8,0.3-0.8,0.8s0.3,0.8,0.8,0.8H17.5z"/>
<path class="st0" d="M10.3,36.4c0,1.2,2.1,2.2,4.7,2.2s4.6-1,4.6-2.2s-2.1-2.2-4.6-2.3S10.3,35.2,10.3,36.4z"/>
<path class="st0" d="M37.6,17.7c-0.4,2.6-2,3.9-4.7,3.9s-4.2-1.2-5-4h6.2v-2.7h-6.6c0-0.3,0-0.7,0-1s0-0.7,0-1.1h6.6v-2.7h-6.2
	c0.7-2.8,2.3-4,4.8-4s4,1.2,4.5,3.9l4.7-1c-1-4.7-4.4-7.2-9.2-7.2c-5.2,0-8.8,3.1-10,8.3h-2.8v2.6h2.5c0,0.3,0,0.6,0,0.9
	c0,0,0,0.1,0,0.1v1.1h-2.5v2.7h2.4v23c0,0.5-0.4,0.8-0.8,0.8H8.1c-0.5,0-0.8-0.4-0.8-0.8V13.9c0-0.5,0.4-0.8,0.8-0.9c0,0,0,0,0,0h9
	c0.8,0,1.5-0.7,1.5-1.5S18,10,17.1,10h-9c-2.1,0-3.8,1.7-3.8,3.8v26.7c0,2.1,1.7,3.8,3.8,3.8l0,0h13.6c2.1,0,3.8-1.7,3.8-3.8V23.2
	c1.9,1.9,4.5,2.9,7.2,2.7c5.3,0,8.5-2.4,9.7-7.1L37.6,17.7z"/>
</svg>
