<?xml version="1.0" encoding="utf-8"?>
<!-- Generator: Adobe Illustrator 24.0.1, SVG Export Plug-In . SVG Version: 6.00 Build 0)  -->
<svg version="1.1" id="PICTOS_vectos" xmlns="http://www.w3.org/2000/svg" xmlns:xlink="http://www.w3.org/1999/xlink" x="0px"
	 y="0px" viewBox="0 0 46 46" style="enable-background:new 0 0 46 46;" xml:space="preserve">
<style type="text/css">
	.st0{fill:#25465F;}
</style>
<path class="st0" d="M41,8.7c-0.4-0.6-0.9-1.2-1.3-1.7c-0.6-0.6-1.5-0.7-2.1-0.1c-0.6,0.6-0.7,1.5-0.1,2.1l0,0
	c0.4,0.5,0.8,1,1.2,1.5c5.4,7.7,4.3,18.2-2.5,24.6V12.6c0-2.1-1.7-3.8-3.8-3.8H18.6c-2.1,0-3.8,1.7-3.8,3.8v25.7
	c-2.9-1.4-5.4-3.5-7.3-6.2C2.1,24.4,3.2,13.9,10,7.5V10c0,0.8,0.7,1.5,1.5,1.5S13,10.8,13,10V4.3c0-0.8-0.7-1.5-1.5-1.5H5.9
	C5,2.8,4.4,3.5,4.4,4.3S5,5.8,5.9,5.8h1.6C0,13.4-1,25.1,5.1,33.8c2.6,3.7,6.3,6.6,10.7,8.1c0,0,0.1,0,0.1,0
	c2.3,0.8,4.8,1.2,7.3,1.3c4.3,0,8.6-1.3,12.2-3.7c0.1,0,0.1-0.1,0.2-0.1l0.2-0.1C45.5,32.2,47.9,18.6,41,8.7z M17.7,39.4V12.6
	c0-0.5,0.4-0.8,0.8-0.8h13.6c0.5,0,0.8,0.4,0.8,0.8c0,0,0,0,0,0v24.8C28.4,40.1,22.9,40.9,17.7,39.4z"/>
<path class="st0" d="M22.8,15.2h5.1c0.4,0,0.8-0.3,0.8-0.8s-0.3-0.8-0.8-0.8h-5.1c-0.4,0-0.8,0.3-0.8,0.8S22.4,15.2,22.8,15.2z"/>
<path class="st0" d="M25.4,32.9c-2.6,0-4.6,1-4.7,2.2s2.1,2.2,4.7,2.2s4.6-1,4.6-2.2S27.9,32.9,25.4,32.9z"/>
</svg>
