<?xml version="1.0" encoding="utf-8"?>
<!-- Generator: Adobe Illustrator 24.0.1, SVG Export Plug-In . SVG Version: 6.00 Build 0)  -->
<svg version="1.1" id="PICTOS_vectos" xmlns="http://www.w3.org/2000/svg" xmlns:xlink="http://www.w3.org/1999/xlink" x="0px"
	 y="0px" viewBox="0 0 67.7 67.7" style="enable-background:new 0 0 67.7 67.7;" xml:space="preserve">
<style type="text/css">
	.st0{fill:#25465F;}
</style>
<path class="st0" d="M9.1,23.5h5.1c0.4,0,0.8-0.3,0.8-0.8S14.6,22,14.2,22H9.1c-0.4,0-0.8,0.3-0.8,0.8S8.7,23.5,9.1,23.5z"/>
<path class="st0" d="M11.6,41.2c-2.6,0-4.7,1-4.7,2.2s2.1,2.2,4.7,2.2c2.6,0,4.6-1,4.6-2.2C16.3,42.3,14.2,41.2,11.6,41.2z"/>
<path class="st0" d="M52.6,30.8H40.3c-0.8,0-1.5,0.7-1.5,1.5c0,0,0,0,0,0V46c0,0.8,0.7,1.5,1.5,1.5h12.3c0.8,0,1.5-0.7,1.5-1.5V32.3
	C54.1,31.5,53.5,30.8,52.6,30.8z M51.1,44.5H50v-2.2c0-0.8-0.7-1.5-1.5-1.5S47,41.5,47,42.3v2.2h-1.1v-2.2c0-0.8-0.7-1.5-1.5-1.5
	s-1.5,0.7-1.5,1.5v2.2h-1.1V33.8h1.1v2.7c0,0.8,0.7,1.5,1.5,1.5s1.5-0.7,1.5-1.5v-2.7H47v2.7c0,0.8,0.7,1.5,1.5,1.5s1.5-0.7,1.5-1.5
	v-2.7h1.1L51.1,44.5z"/>
<path class="st0" d="M31,37.2h-0.9v-0.9c0-0.8-0.7-1.5-1.5-1.5s-1.5,0.7-1.5,1.5v1h-1c-0.8,0-1.5,0.7-1.5,1.5s0.7,1.5,1.5,1.5h1v0.9
	c0,0.8,0.7,1.5,1.5,1.5s1.5-0.7,1.5-1.5v-0.9H31c0.8,0,1.5-0.7,1.5-1.5S31.8,37.2,31,37.2z"/>
<path class="st0" d="M18.4,17H4.8C2.7,17,1,18.7,1,20.8l0,0v26.7c0,2.1,1.7,3.8,3.8,3.8h13.6c2.1,0,3.8-1.7,3.8-3.8V20.8
	C22.2,18.7,20.5,17,18.4,17z M19.2,47.5c0,0.5-0.4,0.8-0.8,0.8H4.8C4.4,48.4,4,48,4,47.5V20.8C4,20.4,4.4,20,4.8,20c0,0,0,0,0,0
	h13.6c0.5,0,0.8,0.4,0.8,0.8c0,0,0,0,0,0V47.5z"/>
<path class="st0" d="M66.8,26.7c0-0.5-0.2-1.1-0.5-1.5l-3.6-5.1c-0.5-0.7-1.3-1.1-2.2-1.1H38.7c-2.2,0-4,1.8-4,4v24.5
	c0,2.2,1.8,4,4,4h24.1c2.2,0,4-1.8,4-4L66.8,26.7z M53.1,48.4H38.7c-0.6,0-1-0.4-1-1V23c0-0.6,0.4-1,1-1h13.2l3.4,4.9v20.6
	c0,0.6-0.4,1-1,1L53.1,48.4z M58.3,44.5V33.8h1.4v10.7H58.3z M63.5,48.2c-0.2,0.2-0.4,0.3-0.7,0.3h-4.7c0.1-0.3,0.1-0.6,0.1-1h2.9
	c0.8,0,1.5-0.7,1.5-1.5V32.3c0-0.8-0.7-1.5-1.5-1.5h-2.9v-4.1c0-0.5-0.2-1.1-0.5-1.5L55.5,22h4.8l3.4,4.9v20.6
	C63.8,47.7,63.7,48,63.5,48.2z"/>
</svg>
