<?xml version="1.0" encoding="utf-8"?>
<!-- Generator: Adobe Illustrator 24.0.1, SVG Export Plug-In . SVG Version: 6.00 Build 0)  -->
<svg version="1.1" id="PICTOS_vectos" xmlns="http://www.w3.org/2000/svg" xmlns:xlink="http://www.w3.org/1999/xlink" x="0px"
	 y="0px" viewBox="0 0 46.1 46.1" style="enable-background:new 0 0 46.1 46.1;" xml:space="preserve">
<style type="text/css">
	.st0{fill:#25465F;}
</style>
<path class="st0" d="M36,11.6c0.1,0,0.3,0,0.4,0.1c0.1,0,0.3,0,0.4-0.1l0.1-0.1l0.2-0.1l0.1-0.1l0.1-0.1c0.1-0.1,0.2-0.2,0.3-0.3
	c0,0,0,0,0-0.1c0.1-0.1,0.1-0.3,0.2-0.4l0,0l1.3-4.7C39.3,5.1,38.8,4.2,38,4c-0.8-0.2-1.6,0.3-1.8,1.1l-0.3,1.2l-1.8-3
	C33.3,1.9,31.9,1,30.3,1l0,0c-1.6,0-3.1,0.8-3.9,2.2l-3.6,6.2c-0.4,0.7-0.2,1.6,0.5,2.1c0.7,0.4,1.6,0.2,2.1-0.6L29,4.7
	c0.4-0.7,1.3-0.9,2-0.5c0.2,0.1,0.4,0.3,0.5,0.5l1.8,3l-1.2-0.3c-0.8-0.2-1.6,0.4-1.7,1.2c-0.1,0.7,0.3,1.4,1,1.7L36,11.6L36,11.6z"
	/>
<path class="st0" d="M44.1,20.4l-3.6-6.2c-0.4-0.7-1.3-1-2-0.6c-0.7,0.4-1,1.3-0.6,2c0,0,0,0,0,0l3.6,6.2c0.4,0.7,0.2,1.6-0.6,2
	c-0.2,0.1-0.5,0.2-0.7,0.2h-3.5l0.9-0.9c0.6-0.6,0.6-1.5,0.1-2.1s-1.5-0.6-2.1-0.1c0,0-0.1,0-0.1,0.1L32,24.6
	c-0.1,0.1-0.1,0.1-0.2,0.2v0.1c0,0.1-0.1,0.1-0.1,0.2c0,0,0,0.1,0,0.1c0,0.1,0,0.1-0.1,0.2c0,0.2,0,0.4,0,0.6c0,0.1,0,0.1,0.1,0.2
	c0,0,0,0.1,0,0.1c0,0.1,0.1,0.1,0.1,0.2v0.1c0.1,0.1,0.1,0.2,0.2,0.2l3.4,3.4c0.3,0.3,0.7,0.4,1.1,0.4c0.4,0,0.8-0.2,1.1-0.4
	c0.6-0.6,0.6-1.5,0-2.1c0,0,0,0,0,0l-0.9-0.9h3.5c2.5,0,4.5-2,4.5-4.5C44.7,21.9,44.5,21.1,44.1,20.4L44.1,20.4z"/>
<path class="st0" d="M27.5,24.1h-7.1c-0.8,0-1.5-0.7-1.5-1.5c0-0.3,0.1-0.5,0.2-0.7l1.8-3l0.3,1.2c0.2,0.7,0.8,1.1,1.5,1.1
	c0.1,0,0.3,0,0.4,0c0.8-0.2,1.3-1,1.1-1.8c0,0,0,0,0,0l-1.3-4.7c0,0,0,0,0-0.1c0-0.1,0-0.1-0.1-0.2l-0.1-0.1l-0.1-0.1
	c0-0.1-0.1-0.1-0.1-0.1c0,0,0-0.1-0.1-0.1c-0.1-0.1-0.3-0.2-0.5-0.3h-0.1h-0.2h-0.3c-0.1,0-0.2,0-0.3,0.1l-4.7,1.2
	c-0.8,0.2-1.3,1-1.1,1.8c0.2,0.8,1,1.3,1.8,1.1l1.2-0.3l-1.8,3c-0.8,1.4-0.8,3.1,0,4.5c0.5,0.9,1.4,1.7,2.5,2v14.2
	c0,0.5-0.4,0.8-0.8,0.8H4.6c-0.5,0-0.8-0.4-0.8-0.8V14.5c0-0.5,0.4-0.8,0.8-0.8h13.6c0.8,0,1.5-0.7,1.5-1.5s-0.7-1.5-1.5-1.5H4.6
	c-2.1,0-3.8,1.7-3.8,3.8v26.7c0,2.1,1.7,3.8,3.8,3.8h13.6c2.1,0,3.9-1.7,3.9-3.8c0,0,0,0,0,0v-14h5.5c0.8,0,1.5-0.7,1.5-1.5
	S28.3,24.2,27.5,24.1L27.5,24.1L27.5,24.1z"/>
<path class="st0" d="M13.9,15.6H8.8c-0.4,0-0.8,0.3-0.8,0.8c0,0.4,0.3,0.8,0.8,0.8h5.1c0.4,0,0.8-0.3,0.8-0.8
	C14.6,15.9,14.3,15.6,13.9,15.6z"/>
<path class="st0" d="M6.7,37c0,1.2,2.1,2.2,4.7,2.2s4.6-1,4.6-2.2s-2.1-2.2-4.6-2.3S6.7,35.8,6.7,37z"/>
</svg>
