<?xml version="1.0" encoding="utf-8"?>
<!-- Generator: Adobe Illustrator 23.0.2, SVG Export Plug-In . SVG Version: 6.00 Build 0)  -->
<svg version="1.1" id="Calque_1" xmlns="http://www.w3.org/2000/svg" xmlns:xlink="http://www.w3.org/1999/xlink" x="0px" y="0px"
	 viewBox="0 0 660 660" style="enable-background:new 0 0 660 660;" xml:space="preserve">
<style type="text/css">
	.st0{fill-rule:evenodd;clip-rule:evenodd;fill:#009DCC;}
</style>
<path class="st0" d="M363.7,317.4h67.1v16L374.7,460h-24.8l56.4-122.4h-62.9L141.1,540l-5,5l-18.5-18.5l-2.7-2.7L523.8,115l2.7,2.7
	l15.8,15.8l2.7,2.7L363.7,317.4z M308.5,446.4c-8,12-20.2,18.1-36.6,18.1c-11.1,0-20.2-3.1-27.6-9.1l14.6-14.6
	c3.5,2.9,7.8,4.6,13,4.6c8.8,0,15.2-4.2,19.3-12.7c3.2-6.6,5.1-16.7,5.8-29.9l23-23c0.2,3.7,0.5,7.3,0.5,11.4
	C320.5,415.9,316.5,434.3,308.5,446.4z M235.5,335.4c8-11.9,20.1-17.9,36.5-17.9c6.9,0,13,1.2,18.5,3.6l-16,16
	c-0.8-0.1-1.6-0.3-2.5-0.3c-8.8,0-15.2,4.2-19.2,12.6c-1.6,3.4-2.8,8-3.8,13.2l-25.4,25.4C223.9,364.4,227.9,346.8,235.5,335.4z
	 M450,254.1l30-30V560c0,16.6-13.4,30-30,30H210c-16.6,0-30-13.4-30-30v-35.9l30-30V560v-30h240v30h0L450,254.1z M450,70
	c16.6,0,30,13.4,30,30v35.9l-30,30V100v0v30H210v-30h0l0,305.9l-30,30V100c0-16.6,13.4-30,30-30H450z"/>
</svg>
