<?xml version="1.0" encoding="utf-8"?>
<!-- Generator: Adobe Illustrator 23.0.2, SVG Export Plug-In . SVG Version: 6.00 Build 0)  -->
<svg version="1.1" id="Calque_1" xmlns="http://www.w3.org/2000/svg" xmlns:xlink="http://www.w3.org/1999/xlink" x="0px" y="0px"
	 viewBox="0 0 660 660" style="enable-background:new 0 0 660 660;" xml:space="preserve">
<style type="text/css">
	.st0{fill-rule:evenodd;clip-rule:evenodd;fill:#009DCC;}
</style>
<path class="st0" d="M452.6,178.4c1.1,0.5,2.1,1,3.2,1.5c8.8,4.1,13.4,13.9,10.9,23.3l-12,44.9c1.9,1.2,3.7,2.4,5.6,3.6
	c7.2,4.7,10.6,13.6,8.3,21.9l-74,276.2c-8.6,32-41.5,51-73.5,42.4l-86.9-23.3c-32-8.6-51-41.5-42.4-73.5l74-276.2
	c2.2-8.3,9.6-14.3,18.2-14.8c2.2-0.1,4.4-0.2,6.6-0.3l12-44.9c2.5-9.4,11.4-15.6,21.1-14.7c1.2,0.1,2.3,0.2,3.5,0.3l17.2-64
	c2.9-10.7,13.8-17,24.5-14.1l86.9,23.3c10.7,2.9,17,13.8,14.1,24.5C469.7,114.3,452.6,178.4,452.6,178.4z M424.7,166.5l13.5-50.3
	l-67.6-18.1l-13.5,50.3c6.7,1,13.1,2.2,19.1,3.4c4.6,0.9,9.2,2,13.8,3.2c0.5,0.1,0.9,0.2,1.4,0.4c0.5,0.1,0.9,0.3,1.4,0.4
	c4.6,1.3,9.1,2.6,13.6,4.1C412.3,161.9,418.4,164.1,424.7,166.5z M435,205.4c-11.7-6.8-24.4-12.5-38-17c-4.3-1.4-8.4-2.6-12.4-3.7
	c-0.3-0.1-0.6-0.2-0.9-0.3c-0.3-0.1-0.6-0.2-0.9-0.3c-4-1-8.2-2-12.6-2.9c-14.1-2.9-27.9-4.3-41.4-4.3l-7.4,27.5
	c18.7,1.2,36.8,4.2,54.5,8.9c17.7,4.7,34.9,11.3,51.7,19.5L435,205.4z M436.5,276.8c-21.5-16.5-44.3-28-68.4-34.5
	c-24.1-6.5-49.6-7.9-76.5-4.4l-71,265.1c-4.3,16,5.2,32.5,21.2,36.7l86.9,23.3c16,4.3,32.5-5.2,36.7-21.2L436.5,276.8z M300.8,493.5
	c8,2.1,16.2-2.6,18.4-10.6s-2.6-16.2-10.6-18.4c-8-2.1-16.2,2.6-18.4,10.6C288.1,483.2,292.8,491.4,300.8,493.5z M293.1,522.5
	c-24-6.4-38.3-31.1-31.8-55.1c6.4-24,31.1-38.3,55.1-31.8c24,6.4,38.3,31.1,31.8,55.1C341.7,514.7,317.1,528.9,293.1,522.5z"/>
</svg>
