<svg id="PICTOS_vectos" xmlns="http://www.w3.org/2000/svg" viewBox="0 0 46 46"><defs><style>.cls-1{fill:#25465f;}</style></defs><path class="cls-1" d="M25.57,1A19.43,19.43,0,0,0,8.39,29.51l-7,7A1.48,1.48,0,0,0,1.07,38a1.52,1.52,0,0,0,1.18,1l4.07.68L7,43.75a1.52,1.52,0,0,0,1,1.18,1.41,1.41,0,0,0,.45.07,1.47,1.47,0,0,0,1.06-.44l7-7A19.43,19.43,0,1,0,25.57,1ZM9.48,40.38,9.1,38.13A1.51,1.51,0,0,0,7.87,36.9l-2.25-.38,5.15-5.15,3.3.56.56,3.3Zm6.26-20a9.86,9.86,0,1,1,4,7.92l2.6-2.6a6.12,6.12,0,0,0,3.2.9,6.22,6.22,0,1,0-6.22-6.22,6.12,6.12,0,0,0,.9,3.2l-2.6,2.6A9.81,9.81,0,0,1,15.74,20.43Zm6.61,0a3.22,3.22,0,1,1,3.22,3.22,2.94,2.94,0,0,1-.94-.16l2-2a1.49,1.49,0,0,0,0-2.12,1.51,1.51,0,0,0-2.12,0l-2,2A2.94,2.94,0,0,1,22.35,20.43Zm3.22,16.43a16.41,16.41,0,0,1-8-2.07L17,31.14l.65-.65a12.87,12.87,0,1,0-2.12-2.12l-.65.65-3.65-.61a16.43,16.43,0,1,1,14.36,8.45Z"/></svg>