<?xml version="1.0" encoding="utf-8"?>
<!-- Generator: Adobe Illustrator 24.0.1, SVG Export Plug-In . SVG Version: 6.00 Build 0)  -->
<svg version="1.1" id="PICTOS_vectos" xmlns="http://www.w3.org/2000/svg" xmlns:xlink="http://www.w3.org/1999/xlink" x="0px"
	 y="0px" viewBox="0 0 46.1 46.1" style="enable-background:new 0 0 46.1 46.1;" xml:space="preserve">
<style type="text/css">
	.st0{fill:#25465F;}
</style>
<path class="st0" d="M25,10.5v-8C25,1.7,24.3,1,23.5,1C22.6,1,22,1.7,22,2.5v8.1c-5,0.7-8.8,5.1-8.8,10.2v13.9
	c0.2,5.7,4.9,10.2,10.7,10c5.5-0.2,9.8-4.6,10-10V20.8C33.8,15.6,30,11.3,25,10.5z M30.8,34.7c-0.1,4.1-3.6,7.2-7.6,7.1
	c-3.8-0.1-6.9-3.2-7.1-7.1V20.8c0.1-4.1,3.6-7.2,7.6-7.1c3.8,0.1,6.9,3.2,7.1,7.1V34.7z"/>
<path class="st0" d="M23.5,18c-1.2,0-2.2,2.1-2.3,4.6s1,4.6,2.2,4.7c1.2,0,2.2-2.1,2.2-4.7S24.7,18,23.5,18z"/>
</svg>
