<?xml version="1.0" encoding="utf-8"?>
<!-- Generator: Adobe Illustrator 24.0.1, SVG Export Plug-In . SVG Version: 6.00 Build 0)  -->
<svg version="1.1" id="PICTOS_vectos" xmlns="http://www.w3.org/2000/svg" xmlns:xlink="http://www.w3.org/1999/xlink" x="0px"
	 y="0px" viewBox="0 0 48 48" style="enable-background:new 0 0 48 48;" xml:space="preserve">
<style type="text/css">
	.st0{fill:#25465F;}
</style>
<path class="st0" d="M30.9,37.8h-1.3c-0.8,0-1.5,0.7-1.5,1.5s0.7,1.5,1.5,1.5h1.3c0.8,0,1.5-0.7,1.5-1.5S31.7,37.8,30.9,37.8z"/>
<path class="st0" d="M21.7,38.1c-1.5,2.1-1.8,4.3-0.8,5s3-0.4,4.5-2.5s1.8-4.4,0.8-5.1S23.2,36,21.7,38.1z"/>
<path class="st0" d="M34.7,38.1c-1.5,2.1-1.8,4.3-0.8,5s3-0.4,4.5-2.5s1.8-4.4,0.8-5.1S36.1,36,34.7,38.1z"/>
<path class="st0" d="M45.3,27.5c0.5-0.7,0.7-1.6,0.8-2.5v-5.4c0-2.5-2-4.5-4.5-4.5h-0.8L38,7.2c-0.1-0.1-0.1-0.3-0.2-0.4
	c-0.7-1.1-2-1.7-3.3-1.7H5.4C3,5.2,1,7.2,1,9.6V25c0,2.5,2,4.5,4.5,4.5C6.3,29.5,7,28.8,7,28s-0.7-1.5-1.5-1.5S4,25.8,4,25V9.6
	c0-0.8,0.7-1.5,1.5-1.5h29.1c0.3,0,0.5,0.1,0.7,0.3l3,8.7c0.2,0.6,0.8,1,1.4,1h1.8c0.8,0,1.5,0.7,1.5,1.5l0,0V25
	c0,0.8-0.6,1.4-1.4,1.5l-3-6.6c0-0.1-0.1-0.2-0.1-0.2c-0.8-1.1-2-1.7-3.3-1.7H23c-2.2,0-4,1.8-4,4v4.6h-1.5c-2.5,0-4.4,2-4.5,4.5
	v5.3c0,2.5,2,4.5,4.5,4.5H18c0.8,0,1.5-0.7,1.5-1.5s-0.7-1.5-1.5-1.5h-0.5c-0.8,0-1.5-0.7-1.5-1.5V31c0-0.8,0.7-1.5,1.5-1.5h3.1
	c0.8,0,1.4-0.7,1.4-1.5v-6.1c0-0.6,0.4-1,1-1h12.2c0.3,0,0.6,0.1,0.8,0.3l3.3,7.4l0,0c0,0.1,0.1,0.2,0.2,0.3c0,0,0,0.1,0.1,0.1
	c0.1,0.1,0.2,0.2,0.3,0.2h0.1c0.1,0.1,0.2,0.1,0.3,0.1c0,0,0.1,0,0.1,0c0.1,0,0.2,0.1,0.3,0.1h1.9c0.8,0,1.5,0.7,1.5,1.5v5.3
	c0,0.8-0.7,1.5-1.5,1.5H42c-0.8,0-1.5,0.7-1.5,1.5s0.7,1.5,1.5,1.5h0.6c2.5,0,4.5-2,4.5-4.5V31C47.1,29.6,46.4,28.3,45.3,27.5z"/>
<path class="st0" d="M13.7,23.2c-1-0.7-3.1,0.5-4.5,2.6s-1.8,4.3-0.8,5s3-0.4,4.5-2.5S14.7,23.9,13.7,23.2z"/>
</svg>
