<?xml version="1.0" encoding="utf-8"?>
<!-- Generator: Adobe Illustrator 24.0.1, SVG Export Plug-In . SVG Version: 6.00 Build 0)  -->
<svg version="1.1" id="PICTOS_vectos" xmlns="http://www.w3.org/2000/svg" xmlns:xlink="http://www.w3.org/1999/xlink" x="0px"
	 y="0px" viewBox="0 0 46 46" style="enable-background:new 0 0 46 46;" xml:space="preserve">
<style type="text/css">
	.st0{fill:#25465F;}
</style>
<path class="st0" d="M6.6,24H5.4C3,24,1,26,1,28.4v7.1C1,38,3,40,5.4,40h1.2C9,40,11,38,11,35.6v-7.1C11,26,9,24,6.6,24z M8,35.6
	C8,36.3,7.4,37,6.6,37H5.4C4.6,37,4,36.3,4,35.6v-7.1C4,27.7,4.6,27,5.4,27h1.2C7.4,27,8,27.7,8,28.4V35.6z"/>
<path class="st0" d="M17.9,18h-1.1c-2.4,0-4.4,2-4.4,4.4v13.1c0,2.4,2,4.4,4.4,4.4h1.1c2.4,0,4.4-2,4.4-4.4l0,0V22.4
	C22.3,20,20.3,18,17.9,18L17.9,18z M19.3,35.6c0,0.8-0.6,1.4-1.4,1.4l0,0h-1.1c-0.8,0-1.4-0.6-1.4-1.4l0,0V22.4
	c0-0.8,0.6-1.4,1.4-1.4l0,0h1.1c0.8,0,1.4,0.6,1.4,1.4l0,0V35.6z"/>
<path class="st0" d="M29.2,12h-1.1c-2.4,0-4.4,2-4.4,4.4v19.1c0,2.4,2,4.4,4.4,4.4h1.1c2.4,0,4.4-2,4.4-4.4V16.4
	C33.7,14,31.7,12,29.2,12z M30.7,35.6c0,0.8-0.6,1.4-1.4,1.4h-1.1c-0.8,0-1.4-0.6-1.4-1.4l0,0V16.4c0-0.8,0.6-1.4,1.4-1.4l0,0h1.1
	c0.8,0,1.4,0.6,1.4,1.4V35.6z"/>
<path class="st0" d="M40.6,6h-1.1C37,6,35,8,35,10.4v25.1c0,2.5,2,4.4,4.4,4.4h1.1c2.5,0,4.4-2,4.4-4.4c0,0,0,0,0,0V10.4
	C45,8,43,6,40.6,6z M42,35.6c0,0.8-0.6,1.4-1.4,1.4c0,0,0,0,0,0h-1.1c-0.8,0-1.4-0.6-1.4-1.4c0,0,0,0,0,0V10.4C38,9.7,38.6,9,39.4,9
	c0,0,0,0,0,0h1.1c0.8,0,1.4,0.6,1.4,1.4c0,0,0,0,0,0V35.6z"/>
</svg>
