<?xml version="1.0" encoding="utf-8"?>
<!-- Generator: Adobe Illustrator 24.0.1, SVG Export Plug-In . SVG Version: 6.00 Build 0)  -->
<svg version="1.1" id="PICTOS_vectos" xmlns="http://www.w3.org/2000/svg" xmlns:xlink="http://www.w3.org/1999/xlink" x="0px"
	 y="0px" viewBox="0 0 46.1 46.1" style="enable-background:new 0 0 46.1 46.1;" xml:space="preserve">
<style type="text/css">
	.st0{fill:#25465F;}
</style>
<path class="st0" d="M18.4,16.3c0,1.3,2.1,2.3,4.6,2.3s4.6-1,4.7-2.2s-2.1-2.2-4.7-2.2S18.4,15,18.4,16.3z"/>
<path class="st0" d="M24.4,22c-0.4-0.7-1.3-1-2-0.7c-0.3,0.1-0.5,0.4-0.7,0.7L11.2,42.4c-0.4,0.7-0.1,1.6,0.6,2s1.6,0.1,2-0.6
	l3.5-6.7h11.4l3.4,6.7c0.3,0.5,0.8,0.8,1.3,0.8c0.2,0,0.5-0.1,0.7-0.2c0.7-0.4,1-1.3,0.7-2L24.4,22z M18.9,34l4.2-8.1l4.2,8.1H18.9z
	"/>
<path class="st0" d="M28.3,24.5c0.6,0.6,1.5,0.6,2.1,0c0,0,0,0,0,0c2.1-2,3.3-4.8,3.3-7.7c-0.2-5.9-5.1-10.5-11-10.4
	c-5.6,0.2-10.2,4.7-10.4,10.4c0,2.9,1.2,5.7,3.3,7.7c0.3,0.3,0.6,0.4,1,0.4c0.8,0,1.5-0.7,1.5-1.5c0-0.4-0.2-0.8-0.5-1
	c-1.5-1.4-2.4-3.4-2.4-5.5c0.2-4.2,3.7-7.6,8-7.4c4,0.1,7.3,3.4,7.4,7.4c0,2.1-0.8,4.1-2.4,5.5C27.7,23,27.7,23.9,28.3,24.5
	C28.3,24.5,28.3,24.5,28.3,24.5z"/>
<path class="st0" d="M13.1,28.7c0.6,0.5,1.6,0.5,2.1-0.2s0.5-1.6-0.2-2.1l0,0C9.8,22,9.1,14.2,13.6,8.9S25.8,3,31.1,7.5
	s5.9,12.2,1.5,17.5c-0.5,0.5-1,1-1.5,1.5c-0.6,0.5-0.7,1.5-0.2,2.1s1.5,0.7,2.1,0.2l0,0c6.5-5.5,7.3-15.2,1.8-21.7
	S19.6-0.3,13.1,5.2s-7.3,15.2-1.8,21.7C11.8,27.6,12.4,28.2,13.1,28.7L13.1,28.7z"/>
</svg>
