<svg id="PICTOS_vectos" xmlns="http://www.w3.org/2000/svg" viewBox="0 0 46 46"><defs><style>.cls-1{fill:#25465f;}</style></defs><path class="cls-1" d="M41.5,6.52H39V3a1.5,1.5,0,0,0-1.5-1.5A25.44,25.44,0,0,0,23,6.14,25.41,25.41,0,0,0,8.5,1.52,1.5,1.5,0,0,0,7,3v3.5H4.5A3.5,3.5,0,0,0,1,10V38.93a3.5,3.5,0,0,0,3.5,3.5h37a3.5,3.5,0,0,0,3.5-3.5V10A3.5,3.5,0,0,0,41.5,6.52Zm-5.5,28a25.8,25.8,0,0,0-11.5,3.6V8.76A22.8,22.8,0,0,1,36,4.58ZM10,4.58A22.76,22.76,0,0,1,21.5,8.76V38.08A25.8,25.8,0,0,0,10,34.48ZM4,38.93V10a.51.51,0,0,1,.5-.5H7V35.93a1.5,1.5,0,0,0,1.5,1.5,22.27,22.27,0,0,1,9.06,2H4.5A.51.51,0,0,1,4,38.93Zm38,0a.51.51,0,0,1-.5.5H28.42a22.22,22.22,0,0,1,9.08-2,1.5,1.5,0,0,0,1.5-1.5V9.52h2.5a.51.51,0,0,1,.5.5Z"/><path class="cls-1" d="M30.86,12.85c2.49-.62,4.19-2.06,3.9-3.26s-2.56-1.66-5-1-4.26,2.09-4,3.29S28.37,13.47,30.86,12.85Z"/></svg>