<?xml version="1.0" encoding="utf-8"?>
<!-- Generator: Adobe Illustrator 24.0.1, SVG Export Plug-In . SVG Version: 6.00 Build 0)  -->
<svg version="1.1" id="PICTOS_vectos" xmlns="http://www.w3.org/2000/svg" xmlns:xlink="http://www.w3.org/1999/xlink" x="0px"
	 y="0px" viewBox="0 0 34.2 34.2" style="enable-background:new 0 0 34.2 34.2;" xml:space="preserve">
<style type="text/css">
	.st0{fill:#25465F;}
</style>
<path class="st0" d="M6.7,28.2c-2.1,1.4-3.2,3.4-2.5,4.4s3,0.7,5.1-0.8s3.3-3.4,2.6-4.5S8.9,26.7,6.7,28.2z"/>
<path class="st0" d="M23.9,25.5c-2.1,1.5-3.2,3.4-2.5,4.4s3,0.7,5.1-0.8s3.3-3.4,2.6-4.5S26.1,24,23.9,25.5z"/>
<path class="st0" d="M29.6,1.4c-0.3-0.3-0.8-0.4-1.2-0.4l-17,3c-0.7,0.1-1.2,0.8-1.2,1.5v18c0,0.8,0.7,1.5,1.5,1.5
	c0.8,0,1.5-0.7,1.5-1.5c0,0,0,0,0,0V12.7l14-2.5v10.5c0,0.8,0.7,1.5,1.5,1.5s1.5-0.7,1.5-1.5V2.5C30.1,2.1,29.9,1.6,29.6,1.4z
	 M13.1,9.6V6.7l14-2.4v2.9L13.1,9.6z"/>
</svg>
