<?xml version="1.0" encoding="utf-8"?>
<!-- Generator: Adobe Illustrator 24.0.1, SVG Export Plug-In . SVG Version: 6.00 Build 0)  -->
<svg version="1.1" id="PICTOS_vectos" xmlns="http://www.w3.org/2000/svg" xmlns:xlink="http://www.w3.org/1999/xlink" x="0px"
	 y="0px" viewBox="0 0 46 46" style="enable-background:new 0 0 46 46;" xml:space="preserve">
<style type="text/css">
	.st0{fill:#25465F;}
</style>
<polygon class="st0" points="14.6,21 16,21 16,24.9 17.2,24.9 17.2,21 18.6,21 18.6,19.9 14.6,19.9 "/>
<path class="st0" d="M19.6,24.9l0.3-1.1h1.7l0.3,1.1h1.3l-1.3-4.6c-0.1-0.3-0.3-0.4-0.6-0.4h-1c-0.3,0-0.5,0.1-0.6,0.4c0,0,0,0,0,0
	l-1.3,4.6H19.6z M20.6,21C20.6,20.9,20.6,20.9,20.6,21L20.6,21c0.1-0.1,0.1-0.1,0.2,0l0.5,1.8h-1.2L20.6,21z"/>
<path class="st0" d="M27.8,21.4c0.1-0.8-0.5-1.5-1.3-1.5c-0.1,0-0.2,0-0.2,0h-2.5v5h1.2V23h0.8c0.2,0,0.2,0,0.3,0.2l0.7,1.7h1.2
	L27,22.7C27.5,22.5,27.8,22,27.8,21.4z M26.2,22h-1.3v-1.1h1.3c0.3,0,0.5,0.2,0.5,0.5c0,0,0,0.1,0,0.1c0,0.3-0.1,0.5-0.4,0.5
	C26.2,22,26.2,22,26.2,22z"/>
<rect x="28.7" y="19.9" class="st0" width="1.2" height="5"/>
<polygon class="st0" points="34.5,21 34.5,19.9 31.1,19.9 31.1,24.9 32.3,24.9 32.3,23 34.3,23 34.3,21.9 32.3,21.9 32.3,21 "/>
<path class="st0" d="M13.5,32.5c0-1.2-2.1-2.2-4.7-2.2s-4.6,1-4.6,2.2s2.1,2.2,4.6,2.2S13.5,33.7,13.5,32.5z"/>
<path class="st0" d="M8.8,15.8c2.6,0,4.7-1,4.7-2.2s-2.1-2.2-4.7-2.2s-4.6,1-4.6,2.2S6.3,15.7,8.8,15.8z"/>
<path class="st0" d="M38.1,1H11.1C9,1,7.4,2.7,7.4,4.7v3.6c0,0.8,0.7,1.5,1.5,1.5s1.5-0.7,1.5-1.5V4.7c0-0.4,0.3-0.7,0.7-0.7l0,0
	h27.1c0.4,0,0.7,0.3,0.7,0.7v36.6c0,0.4-0.3,0.7-0.7,0.7H11.1c-0.4,0-0.7-0.3-0.7-0.7v-3.6c0-0.8-0.7-1.5-1.5-1.5s-1.5,0.7-1.5,1.5
	v3.6c0,2,1.7,3.7,3.7,3.7h27.1c2,0,3.7-1.7,3.7-3.7V4.7C41.8,2.7,40.2,1,38.1,1z"/>
<path class="st0" d="M7.4,18.7v8.5c0,0.8,0.7,1.5,1.5,1.5s1.5-0.7,1.5-1.5v-8.5c0-0.8-0.7-1.5-1.5-1.5S7.4,17.9,7.4,18.7z"/>
</svg>
