<svg id="PICTOS_vectos" xmlns="http://www.w3.org/2000/svg" viewBox="0 0 46 46"><defs><style>.cls-1{fill:#25465f;}</style></defs><path class="cls-1" d="M37.61,10.94c-1.23,0-2.23,2.14-2.25,4.71s1,4.57,2.19,4.58,2.24-2.06,2.26-4.63S38.84,11,37.61,10.94Z"/><path class="cls-1" d="M45,2.5A1.5,1.5,0,0,0,43.5,1H31.67a1.5,1.5,0,0,0-1.5,1.5V35.15s0,0,0,.06,0,.07,0,.11a1.31,1.31,0,0,0,.06.27s0,.06,0,.09a2.59,2.59,0,0,0,.17.33h0l5.91,8.35.12.12.11.13.17.12.12.08a1.09,1.09,0,0,0,.23.09l.11,0A1.36,1.36,0,0,0,38,45l.12,0a2,2,0,0,0,.22-.09l.11-.07.19-.13.09-.11.13-.14L44.72,36v0a2,2,0,0,0,.17-.32l0-.09a2.56,2.56,0,0,0,0-.27.41.41,0,0,0,0-.11s0,0,0-.06ZM38.84,39.14h-2.5l-1.77-2.49h6Zm-5.67-5.49V8.52H42V33.65ZM42,4V7H33.17V4Z"/><path class="cls-1" d="M23.23,7.5h-19A1.5,1.5,0,0,0,2.74,9v2.5H2.5a1.5,1.5,0,0,0,0,3h.24v1H2.5a1.5,1.5,0,0,0,0,3h.24v1H2.5a1.5,1.5,0,0,0,0,3h.24v1H2.5a1.5,1.5,0,0,0,0,3h.24v1H2.5a1.5,1.5,0,0,0,0,3h.24v1H2.5a1.5,1.5,0,0,0,0,3h.24V37a1.5,1.5,0,0,0,1.5,1.5h19a2.5,2.5,0,0,0,2.5-2.5V10A2.5,2.5,0,0,0,23.23,7.5Zm-.5,28h-17V34.41a1.49,1.49,0,0,0,0-2.82V30.41a1.49,1.49,0,0,0,0-2.82V26.41a1.49,1.49,0,0,0,0-2.82V22.41a1.49,1.49,0,0,0,0-2.82V18.41a1.49,1.49,0,0,0,0-2.82V14.41a1.49,1.49,0,0,0,0-2.82V10.5h17Z"/></svg>