<?xml version="1.0" encoding="utf-8"?>
<!-- Generator: Adobe Illustrator 24.0.1, SVG Export Plug-In . SVG Version: 6.00 Build 0)  -->
<svg version="1.1" id="PICTOS_vectos" xmlns="http://www.w3.org/2000/svg" xmlns:xlink="http://www.w3.org/1999/xlink" x="0px"
	 y="0px" viewBox="0 0 46 46" style="enable-background:new 0 0 46 46;" xml:space="preserve">
<style type="text/css">
	.st0{fill:#25465F;}
</style>
<path class="st0" d="M39.8,13.5c1.5-2.1,1.8-4.4,0.8-5.1s-3.1,0.5-4.5,2.6s-1.8,4.3-0.8,5C36.3,16.7,38.3,15.6,39.8,13.5z"/>
<path class="st0" d="M10.7,16c1-0.7,0.6-3-0.9-5.1S6.4,7.7,5.4,8.4s-0.7,3,0.8,5.1S9.7,16.7,10.7,16z"/>
<path class="st0" d="M4,9c0-0.8-0.7-1.5-1.5-1.5S1,8.2,1,9v20.6c0,0.8,0.7,1.5,1.5,1.5S4,30.4,4,29.6V9z"/>
<path class="st0" d="M43.5,7.5C42.7,7.5,42,8.2,42,9v19.1h-0.3c-1.2-4.8-6-7.8-10.9-6.6c-3.2,0.8-5.8,3.3-6.6,6.5h-2.5
	c-1.3-4.8-6.2-7.7-11-6.4s-7.7,6.2-6.4,11s6.2,7.7,11,6.4c3.7-1,6.4-4.2,6.7-8h2c0,5,4,9,9,9c5,0,9-4,9-9h1.5c0.8,0,1.5-0.7,1.5-1.5
	V9C45,8.2,44.3,7.5,43.5,7.5z M13,36.3c-3.3,0-6-2.7-6-6s2.7-6,6-6s6,2.7,6,6S16.3,36.3,13,36.3z M32.9,36.3c-3.3,0-6-2.7-6-6
	s2.7-6,6-6s6,2.7,6,6C38.9,33.6,36.3,36.3,32.9,36.3L32.9,36.3z"/>
</svg>
