<?xml version="1.0" encoding="utf-8"?>
<!-- Generator: Adobe Illustrator 24.0.1, SVG Export Plug-In . SVG Version: 6.00 Build 0)  -->
<svg version="1.1" id="PICTOS_vectos" xmlns="http://www.w3.org/2000/svg" xmlns:xlink="http://www.w3.org/1999/xlink" x="0px"
	 y="0px" viewBox="0 0 46.1 46.1" style="enable-background:new 0 0 46.1 46.1;" xml:space="preserve">
<style type="text/css">
	.st0{fill:#25465F;}
</style>
<path class="st0" d="M34.9,21.2c0-3.7-3-6.7-6.7-6.7l0,0c-3.7,0-6.7,3-6.7,6.7v12.1c0,0.8,0.7,1.5,1.5,1.5c0.8,0,1.5-0.7,1.5-1.5
	V21.2c0-2.1,1.7-3.7,3.7-3.7l0,0c2.1,0,3.7,1.7,3.7,3.7c0,0,0,0,0,0v12.3c0,4.7-3.7,8.5-8.4,8.5c-2.3,0-4.4-0.9-6-2.5
	c-1.6-1.6-2.5-3.7-2.5-6V12.4C15,7.8,18.8,4,23.4,4c2.3,0,4.4,0.9,6,2.5c1.1,1.1,1.8,2.4,2.2,3.8c0.2,0.8,1.1,1.2,1.9,1
	c0.8-0.2,1.2-1,1-1.8C33,3.4,26.8-0.3,20.6,1.2c-5.1,1.3-8.7,5.9-8.6,11.2v21.1C12,39.8,17.1,45,23.5,45c3,0,6-1.2,8.1-3.4
	c2.2-2.1,3.4-5.1,3.3-8.1V21.2z"/>
<path class="st0" d="M30.5,25.2c0-2.6-1-4.6-2.2-4.7S26,22.7,26,25.2s1,4.6,2.2,4.6S30.4,27.7,30.5,25.2z"/>
</svg>
