<?xml version="1.0" encoding="utf-8"?>
<!-- Generator: Adobe Illustrator 24.0.1, SVG Export Plug-In . SVG Version: 6.00 Build 0)  -->
<svg version="1.1" id="PICTOS_vectos" xmlns="http://www.w3.org/2000/svg" xmlns:xlink="http://www.w3.org/1999/xlink" x="0px"
	 y="0px" viewBox="0 0 46.1 46.1" style="enable-background:new 0 0 46.1 46.1;" xml:space="preserve">
<style type="text/css">
	.st0{fill:#25465F;}
</style>
<path class="st0" d="M33.6,23.9c-2.4,0.9-4,2.5-3.6,3.6s2.8,1.4,5.2,0.5s4-2.5,3.6-3.6S36.1,23.1,33.6,23.9z"/>
<path class="st0" d="M45,9.6c0-0.1,0-0.3-0.1-0.4l0,0l0,0c-0.1-0.1-0.1-0.2-0.2-0.3l0-0.1c-0.1-0.1-0.2-0.2-0.3-0.3l0,0
	c-0.1-0.1-0.2-0.2-0.4-0.2l0,0L23.5,1.1c-0.3-0.1-0.7-0.1-1,0L2,8.1l0,0C1.9,8.2,1.7,8.3,1.6,8.3l0,0C1.5,8.4,1.4,8.5,1.3,8.6l0,0.1
	C1.2,8.8,1.2,8.9,1.1,9.1l0,0c0,0,0,0,0,0.1C1,9.2,1,9.4,1,9.5c0,0,0,0,0,0.1v26.8c0,0.6,0.4,1.2,1,1.4l20.4,7.1
	C22.6,45,22.8,45,23,45h0.1c0.1,0,0.2,0,0.3-0.1h0.1L44,37.8c0.6-0.2,1-0.8,1-1.4V9.6C45,9.6,45,9.6,45,9.6z M23,15.1l-6.3-2.2
	l15.9-5.5l6.3,2.2L23,15.1z M23,4.1l5,1.7l-15.9,5.5l-5-1.7L23,4.1z M4,11.7l6.6,2.3v7.5c0,0.8,0.7,1.5,1.5,1.5s1.5-0.7,1.5-1.5V15
	l7.9,2.7v23.6L4,35.3V11.7z M24.5,41.4V17.8l17.5-6v23.5L24.5,41.4z"/>
</svg>
