<svg id="PICTOS_vectos" xmlns="http://www.w3.org/2000/svg" viewBox="0 0 45 45"><defs><style>.cls-1{fill:#25465f;}</style></defs><path class="cls-1" d="M17.09,12.57a1.5,1.5,0,0,0-1.5,1.5V30.93a1.5,1.5,0,0,0,3,0V14.07A1.5,1.5,0,0,0,17.09,12.57Z"/><path class="cls-1" d="M27.91,12.57a1.5,1.5,0,0,0-1.5,1.5V30.93a1.5,1.5,0,0,0,3,0V14.07A1.5,1.5,0,0,0,27.91,12.57Z"/><path class="cls-1" d="M40,.5H5A4.51,4.51,0,0,0,.5,5V40A4.51,4.51,0,0,0,5,44.5H40A4.51,4.51,0,0,0,44.5,40V5A4.51,4.51,0,0,0,40,.5ZM41.5,40A1.5,1.5,0,0,1,40,41.5H5A1.5,1.5,0,0,1,3.5,40V5A1.5,1.5,0,0,1,5,3.5H40A1.5,1.5,0,0,1,41.5,5Z"/></svg>