<?xml version="1.0" encoding="utf-8"?>
<!-- Generator: Adobe Illustrator 23.0.2, SVG Export Plug-In . SVG Version: 6.00 Build 0)  -->
<svg version="1.1" id="Calque_1" xmlns="http://www.w3.org/2000/svg" xmlns:xlink="http://www.w3.org/1999/xlink" x="0px" y="0px"
	 viewBox="0 0 480 480" style="enable-background:new 0 0 480 480;" xml:space="preserve">
<style type="text/css">
	.st0{fill:#FFFFFF;}
</style>
<g>
	<g>
		<g>
			<g>
				<g>
					<defs>
						<path id="SVGID_1_" d="M473.1,4.9H4.9v470h468.3V319.8c1.9-2.7,2.8-6.1,2.8-10.3c0-4.8-0.9-7.8-2.8-10.3V4.9z"/>
					</defs>
					<use xlink:href="#SVGID_1_"  style="overflow:visible;fill:#221F20;"/>
					<clipPath id="SVGID_2_">
						<use xlink:href="#SVGID_1_"  style="overflow:visible;"/>
					</clipPath>
				</g>
			</g>
		</g>
	</g>
	<g>
		<path class="st0" d="M4.9,242.9h22.5l5.1-12.3h11.4l5,12.3h44.3v-9.4l4,9.4H120l3.9-9.5v9.5h110l-0.1-20.1h2.1
			c1.5,0.1,1.9,0.2,1.9,2.6v17.4h56.8v-4.7c4.6,2.5,11.7,4.7,21.1,4.7h23.9l5.1-12.3h11.4l5,12.3h46.1v-11.6l7,11.6h36.9v-76.8
			h-36.6v9.1l-5.1-9.1h-37.5v9.1l-4.7-9.1h-50.7c-8.5,0-16,1.2-22,4.5v-4.5h-34.9v4.5c-3.9-3.4-9.1-4.5-14.9-4.5H117.2l-8.6,19.8
			l-8.8-19.8H59.6v9.1l-4.5-9.1H20.8L4.9,202.6V242.9z M439.6,232h-18.7L396,190.7l0,41.3h-26.8l-5.1-12.3h-27.4l-4.9,12.3h-15.4
			c-6.4,0-14.5-1.4-19.1-6.1c-4.7-4.7-7-11-7-21c0-8.2,1.5-15.6,7.1-21.5c4.3-4.4,10.9-6.4,20-6.4H330v11.8h-12.4
			c-4.8,0-7.6,0.7-10.2,3.3c-2.2,2.3-3.7,6.7-3.7,12.5c0,5.9,1.1,10.1,3.6,12.9c2,2.1,5.7,2.8,9.1,2.8h5.9l18.5-43.3h19.7l22.3,52.1
			V177H403l23.1,38.3V177h13.5V232z M283.8,232h-13.4V177h13.4V232z M262.7,191.8c0,8.7-5.9,13.3-9.2,14.7c2.9,1.1,5.3,3,6.5,4.6
			c1.9,2.7,2.2,5.2,2.2,10.1V232h-13.3l-0.1-6.9c0-3.3,0.3-8.1-2.1-10.7c-1.9-2-4.8-2.4-9.6-2.4H223v20h-13.1V177h30.3
			c6.7,0,11.7,0.2,15.9,2.6C260.2,182.1,262.7,185.7,262.7,191.8z M200.7,232h-44V177h44v11.5h-30.8v9.9h30v11.3l-30,0v11h30.8V232z
			 M147,232h-13.5l-0.1-43.1L114.3,232h-11.5l-19.2-43.2V232H56.9l-5-12.3H24.4L19.3,232H5L28.5,177h19.6l22.4,52.2V177H92
			l17.2,37.4L125,177H147V232z M359.6,208.3l-9.1-21.9l-9,21.9H359.6z M245.5,199.6c-1.8,1-3.9,1.1-6.5,1.1h-16v-12.2h16.2
			c2.3,0,4.7,0.1,6.3,1c1.7,0.8,2.8,2.5,2.8,4.9C248.2,196.7,247.2,198.6,245.5,199.6z M47.1,208.3l-9-21.9l-9,21.9H47.1z"/>
		<path class="st0" d="M259.9,289.9c0,15.3-11.4,18.4-22.9,18.4h-16.4v18.5h-25.5l-16.2-18.2L162,326.8h-52.1v-55.1h52.9l16.2,18
			l16.7-18h42C248.2,271.7,259.9,274.7,259.9,289.9z M155.3,315.3H123v-11h28.9v-11.2H123v-10h33l14.4,16L155.3,315.3z M207.5,321.8
			l-20.2-22.4l20.2-21.7V321.8z M237.6,297.2h-17.1v-14h17.2c4.8,0,8.1,1.9,8.1,6.8C245.8,294.7,242.7,297.2,237.6,297.2z
			 M326.4,271.7h44v11.4h-30.8v10h30.1v11.2h-30.1v11l30.8,0.1v11.4h-44V271.7z M309.8,301.2c2.9,1.1,5.3,3,6.4,4.6
			c1.9,2.7,2.2,5.2,2.2,10.1v10.9h-13.2v-6.9c0-3.3,0.3-8.2-2.1-10.8c-1.9-2-4.8-2.5-9.6-2.5h-14.1v20.1h-13.2v-55.1h30.3
			c6.7,0,11.5,0.3,15.8,2.6c4.2,2.5,6.8,6,6.8,12.2C319.1,295.4,313.2,299.9,309.8,301.2z M301.8,294.4c-1.7,1-3.9,1.1-6.5,1.1h-16
			v-12.4h16.2c2.3,0,4.7,0.1,6.3,1c1.7,0.9,2.7,2.6,2.7,5C304.6,291.4,303.5,293.4,301.8,294.4z M420.6,297.8
			c2.6,2.7,3.9,6,3.9,11.7c0,11.9-7.4,17.4-20.7,17.4h-25.7V315h25.6c2.5,0,4.3-0.3,5.4-1.4c0.9-0.8,1.6-2,1.6-3.6
			c0-1.6-0.7-2.9-1.6-3.6c-1-0.9-2.4-1.2-4.7-1.2c-12.3-0.4-27.7,0.4-27.7-17c0-8,5-16.4,18.8-16.4h26.4v11.7h-24.1
			c-2.4,0-4,0.1-5.3,1c-1.4,0.9-2,2.2-2,4c0,2.1,1.2,3.5,2.9,4.1c1.4,0.5,2.9,0.6,5.1,0.6l7.1,0.2
			C412.7,293.6,417.6,294.8,420.6,297.8z M473.1,319.8c-3.2,4.7-9.5,7.1-17.9,7.1h-25.4V315h25.3c2.5,0,4.3-0.3,5.3-1.4
			c0.9-0.8,1.6-2,1.6-3.6c0-1.6-0.7-2.9-1.6-3.6c-1-0.9-2.4-1.2-4.6-1.2c-12.4-0.4-27.8,0.4-27.8-17c0-8,5.1-16.4,18.9-16.4h26.2
			v-11h-24.4c-7.4,0-12.7,1.8-16.5,4.5v-4.5h-36c-5.7,0-12.5,1.5-15.7,4.5l0-4.5h-64.4v4.5c-5.1-3.7-13.7-4.5-17.8-4.5H256v4.5
			c-4.1-3.9-13-4.5-18.5-4.5H190l-10.9,11.8l-10.2-11.8H98v76.9h69.6l11.2-11.9l10.6,11.9l42.9,0v-18.1h4.3
			c5.7,0.1,12.4-0.1,18.3-2.7v20.7h35.4v-20.1h1.7c2.2,0,2.4,0.1,2.4,2.3v17.8h107.5c6.8,0,13.9-1.8,17.9-4.9v4.9h34.1
			c7.1,0,14-1,19.3-3.5V319.8z M473.1,283.5h-24c-2.4,0-4,0.1-5.3,1c-1.4,0.9-1.9,2.2-1.9,4c0,2.1,1.2,3.5,2.9,4.1
			c1.4,0.5,2.9,0.6,5.1,0.6l7.1,0.2c7.2,0.2,12,1.4,15,4.4c0.5,0.4,0.8,0.9,1.2,1.4V283.5z"/>
	</g>
</g>
</svg>
