<?xml version="1.0" encoding="utf-8"?>
<!-- Generator: Adobe Illustrator 23.0.2, SVG Export Plug-In . SVG Version: 6.00 Build 0)  -->
<svg version="1.1" id="Calque_1" xmlns="http://www.w3.org/2000/svg" xmlns:xlink="http://www.w3.org/1999/xlink" x="0px" y="0px"
	 viewBox="0 0 660 660" style="enable-background:new 0 0 660 660;" xml:space="preserve">
<style type="text/css">
	.st0{fill-rule:evenodd;clip-rule:evenodd;fill:#009DCC;}
</style>
<path class="st0" d="M260,271.1v110v135.1c0,8.2-6.7,14.9-14.9,14.9h-0.2c-8.2,0-14.9-6.7-14.9-14.9l-10-135.1h-10l-10,135.1
	c0,8.2-6.7,14.9-14.9,14.9h-0.2c-8.2,0-14.9-6.7-14.9-14.9V381.1v-110h-3l-7,95.1c0,8.2-6.7,14.9-14.9,14.9h-0.2
	c-8.2,0-14.9-6.7-14.9-14.9l10-105.1c0-16.6,13.4-30,30-30h90c16.6,0,30,13.4,30,30l10,105.1c0,8.2-6.7,14.9-14.9,14.9h-0.2
	c-8.2,0-14.9-6.7-14.9-14.9l-7-95.1H260z M500.1,81.2c16,0,29.9,13,29.9,30v437.5c0,17.1-14,30-30,30c-3.3,0-6.7-0.6-10-1.7
	l-110-38.8c-12-4.2-20-15.6-20-28.3V143.5c0-13.3,8.8-25,21.5-28.8l110-32.3C494.4,81.6,497.3,81.2,500.1,81.2z M500,111.2
	l-110,32.3V510l110,38.8V111.2z M250,176.1c0,19.3-15.7,35-35,35s-35-15.7-35-35s15.7-35,35-35S250,156.8,250,176.1z"/>
</svg>
