<?xml version="1.0" encoding="utf-8"?>
<!-- Generator: Adobe Illustrator 24.0.1, SVG Export Plug-In . SVG Version: 6.00 Build 0)  -->
<svg version="1.1" id="PICTOS_vectos" xmlns="http://www.w3.org/2000/svg" xmlns:xlink="http://www.w3.org/1999/xlink" x="0px"
	 y="0px" viewBox="0 0 41.1 41.1" style="enable-background:new 0 0 41.1 41.1;" xml:space="preserve">
<style type="text/css">
	.st0{fill:#25465F;}
</style>
<path class="st0" d="M27.2,21.9c-1.8-0.8-3.9-0.6-5.6,0.5l0,0c-0.5,0.3-0.9,0.7-1.3,1.2c-1.6-1.4-2.8-3.2-3.5-5.2
	c0.6-0.2,1.1-0.4,1.6-0.7c1.6-1.1,2.6-3,2.5-5c0-2.2-0.7-4.3-2-6.1C17.7,4.8,16,3.3,14,2.5c-1.8-0.9-3.9-0.7-5.6,0.4L6.7,4
	c-2.5,1.7-3.6,5.2-2.9,9.8c0.9,4.8,2.8,9.3,5.6,13.3c2.6,4.1,6.1,7.6,10.2,10.1c1.9,1.2,4.1,1.9,6.4,2c1.3,0,2.6-0.4,3.7-1.1
	l1.7-1.2c1.6-1.1,2.6-3,2.6-5c0-2.2-0.7-4.3-2-6C30.8,24.2,29.2,22.7,27.2,21.9z M29.8,34.6l-1.7,1.2c-1.5,1-4,0.6-6.9-1
	c-3.7-2.4-6.9-5.5-9.3-9.2c-2.6-3.7-4.4-7.9-5.1-12.3C6.3,10,6.9,7.5,8.4,6.5l1.7-1.2c0.5-0.2,1-0.4,1.5-0.4S12.5,5,13,5.2
	c1.4,0.6,2.6,1.7,3.4,3c0.9,1.3,1.4,2.8,1.5,4.3c0,1-0.4,2-1.2,2.6c-0.5,0.3-1.1,0.5-1.7,0.4c-0.8,0-1.5,0.6-1.6,1.4
	c0,0.1,0,0.2,0,0.3c0.4,2,1.1,3.9,2.3,5.6c1.1,1.7,2.6,3.2,4.3,4.2c0.4,0.2,0.9,0.3,1.3,0.1c0.4-0.2,0.8-0.5,0.9-0.9
	c0.2-0.6,0.5-1,1-1.4l0,0c0.9-0.5,1.9-0.6,2.8-0.2c1.4,0.6,2.6,1.7,3.5,3s1.4,2.8,1.5,4.3C31.1,33,30.6,33.9,29.8,34.6L29.8,34.6z"
	/>
<path class="st0" d="M16.1,14.1c1-0.7,0.6-3.1-0.9-5.2s-3.4-3.2-4.5-2.5s-0.7,3,0.8,5.1S15.1,14.8,16.1,14.1z"/>
<path class="st0" d="M23.9,25.8c-1,0.7-0.7,3,0.8,5.1s3.5,3.3,4.5,2.6s0.6-3.1-0.9-5.2S24.9,25.1,23.9,25.8z"/>
<path class="st0" d="M37,5.3c-0.6-0.6-1.5-0.6-2.1,0l-7.4,7.4V9.9c0-0.8-0.7-1.5-1.5-1.5l0,0l0,0c-0.8,0-1.5,0.7-1.5,1.5l0,0v6.4
	c0,0.1,0,0.2,0,0.3s0,0.2,0,0.2c0,0.1,0,0.1,0.1,0.2s0.2,0.3,0.3,0.4l0,0l0,0c0.3,0.3,0.7,0.4,1,0.4h6.4l0,0c0.8,0,1.5-0.7,1.5-1.5
	s-0.5-1.4-1.4-1.4h-2.8l7.5-7.5C37.6,6.8,37.6,5.9,37,5.3z"/>
</svg>
