<?xml version="1.0" encoding="utf-8"?>
<!-- Generator: Adobe Illustrator 24.0.1, SVG Export Plug-In . SVG Version: 6.00 Build 0)  -->
<svg version="1.1" id="PICTOS_vectos" xmlns="http://www.w3.org/2000/svg" xmlns:xlink="http://www.w3.org/1999/xlink" x="0px"
	 y="0px" viewBox="0 0 46.1 46.1" style="enable-background:new 0 0 46.1 46.1;" xml:space="preserve">
<style type="text/css">
	.st0{fill:#25465F;}
</style>
<path class="st0" d="M24,24.6c-0.5,0.3-0.9,0.7-1.3,1.2c-0.8-0.7-1.5-1.5-2.1-2.4c-0.6-0.9-1.1-1.8-1.5-2.8c0.6-0.2,1.1-0.4,1.6-0.7
	c1.6-1.1,2.6-3,2.5-5c0-2.2-0.7-4.3-2-6.1c-1.2-1.8-2.9-3.3-4.9-4.1c-1.8-0.8-3.9-0.6-5.6,0.5L9.1,6.3C6.6,8,5.5,11.5,6.2,16
	c0.9,4.8,2.8,9.4,5.6,13.3c5.1,7.5,11.7,12.2,16.7,12.2c1.3,0,2.6-0.3,3.7-1.1l1.7-1.2c1.6-1.1,2.6-3,2.5-5c0-2.2-0.7-4.3-2-6.1
	C31.6,24,27.2,22.5,24,24.6z M32.2,36.8L30.5,38c-3,2-10.4-1.7-16.2-10.3C11.7,24.1,10,20,9.2,15.6c-0.5-3.3,0.1-5.8,1.6-6.8
	l1.7-1.2c0.4-0.3,1-0.4,1.5-0.4c0.5,0,0.9,0.1,1.3,0.3c1.4,0.6,2.6,1.7,3.5,3c0.9,1.3,1.4,2.8,1.5,4.3c0,1-0.4,2-1.2,2.6
	c-0.5,0.3-1.1,0.5-1.7,0.4c-0.5,0-0.9,0.2-1.2,0.5c-0.3,0.3-0.4,0.8-0.4,1.2c0.4,2,1.1,3.9,2.3,5.6c1.1,1.7,2.6,3.2,4.3,4.2
	c0.4,0.2,0.9,0.3,1.3,0.1c0.4-0.2,0.7-0.5,0.9-0.9c0.2-0.6,0.5-1,1-1.4l0,0c1.7-1.2,4.4,0,6.3,2.8c0.9,1.3,1.4,2.8,1.5,4.3
	C33.5,35.3,33,36.2,32.2,36.8L32.2,36.8z"/>
<path class="st0" d="M18.5,16.3c1-0.7,0.6-3.1-0.9-5.2c-1.5-2.1-3.4-3.2-4.5-2.5s-0.7,3,0.8,5.1S17.5,17,18.5,16.3z"/>
<path class="st0" d="M26.3,28.1c-1,0.7-0.6,3,0.8,5.1s3.5,3.3,4.5,2.6c1-0.7,0.6-3.1-0.9-5.2C29.3,28.5,27.3,27.4,26.3,28.1z"/>
<path class="st0" d="M39.8,17.1V6.5c0-0.7-0.5-1.4-1.3-1.5l-7-1C30.7,4,30,4.5,29.9,5.4c0,0,0,0.1,0,0.1v7.6c-1.5,0.1-2.6,1.5-2.5,3
	s1.5,2.6,3,2.5c1.2-0.1,2.2-1,2.5-2.3c0-0.1,0-0.2,0-0.4v-5.5l4,0.6v3.5c-1.5,0.1-2.6,1.5-2.5,3c0.1,1.5,1.5,2.6,3,2.5
	c1.4-0.1,2.5-1.3,2.5-2.7C39.9,17.3,39.8,17.2,39.8,17.1z M32.9,9V7.2l4,0.6v1.7L32.9,9z"/>
</svg>
