<?xml version="1.0" encoding="utf-8"?>
<!-- Generator: Adobe Illustrator 24.0.1, SVG Export Plug-In . SVG Version: 6.00 Build 0)  -->
<svg version="1.1" id="PICTOS_vectos" xmlns="http://www.w3.org/2000/svg" xmlns:xlink="http://www.w3.org/1999/xlink" x="0px"
	 y="0px" viewBox="0 0 41.1 41.1" style="enable-background:new 0 0 41.1 41.1;" xml:space="preserve">
<style type="text/css">
	.st0{fill:#25465F;}
</style>
<path class="st0" d="M27.1,22.3c-1.8-0.8-3.9-0.6-5.6,0.5c-0.5,0.3-0.9,0.7-1.3,1.2c-0.8-0.7-1.5-1.5-2.1-2.4s-1.1-1.8-1.5-2.8
	c0.6-0.2,1.1-0.4,1.6-0.7c1.6-1.1,2.6-3,2.5-5c0-2.2-0.7-4.3-2-6.1c-1-1.8-2.7-3.3-4.7-4.1c-1.8-0.8-3.9-0.6-5.6,0.5L6.7,4.5
	C1.7,7.9,2.9,18,9.3,27.6C14.4,35.1,21,39.8,26,39.8c1.3,0,2.6-0.3,3.7-1.1l1.7-1.2c1.6-1.1,2.6-3,2.5-5c0-2.2-0.7-4.3-2-6.1
	C30.8,24.6,29.1,23.2,27.1,22.3z M29.8,35l-1.7,1.2c-3,2-10.5-1.7-16.2-10.3S5.3,9,8.3,7L10,5.8c0.4-0.3,1-0.5,1.5-0.4
	c0.5,0,0.9,0.1,1.4,0.3c1.4,0.6,2.6,1.7,3.4,3c0.9,1.3,1.4,2.8,1.5,4.3c0,1-0.4,2-1.2,2.6c-0.5,0.3-1.1,0.5-1.7,0.4
	c-0.4,0-0.9,0.2-1.2,0.5s-0.4,0.8-0.4,1.2c0.3,2,1.1,3.9,2.3,5.6c1.1,1.7,2.6,3.1,4.3,4.2c0.7,0.4,1.6,0.2,2.1-0.5
	c0.1-0.1,0.1-0.2,0.1-0.3c0.2-0.6,0.5-1,1-1.4l0,0c0.9-0.5,1.9-0.6,2.8-0.2c1.4,0.6,2.6,1.7,3.5,3c0.9,1.3,1.4,2.8,1.5,4.3
	C31,33.4,30.6,34.4,29.8,35z"/>
<path class="st0" d="M16,14.5c1-0.7,0.6-3.1-0.9-5.2s-3.4-3.2-4.5-2.5s-0.6,3,0.8,5.1S15,15.2,16,14.5z"/>
<path class="st0" d="M23.8,26.3c-1,0.7-0.7,3,0.8,5.1s3.5,3.3,4.5,2.6s0.6-3.1-0.9-5.2S24.9,25.6,23.8,26.3z"/>
<path class="st0" d="M30.1,6.3l-0.1,1c0,0.1,0,0.1,0.1,0.1l0,0h0.1L31,7l1,0.4h0.1c0,0,0.1-0.1,0-0.1l-0.2-1l0.7-0.8V5.4
	c0,0,0-0.1-0.1-0.1l-1-0.1L31,4.3l-0.1-0.1c-0.1,0-0.1,0-0.1,0.1l-0.4,1l-1,0.2c-0.1,0-0.1,0.1-0.1,0.1v0.1L30.1,6.3z"/>
<path class="st0" d="M26.2,8.1v1c0,0.1,0,0.1,0.1,0.1l0,0h0.1l0.8-0.6l1,0.4c0.1,0,0.2,0,0.2-0.1V8.8l-0.3-1L28.7,7c0,0,0-0.1,0-0.2
	h-0.1h-1L27,5.9l-0.1-0.1c-0.1,0-0.1,0-0.1,0.1l-0.3,1l-1,0.3l-0.1,0.1c0,0.1,0,0.1,0.1,0.1L26.2,8.1z"/>
<path class="st0" d="M24.5,12.2l-0.1,1c0,0.1,0,0.1,0.1,0.1h0.1l0.9-0.6l1,0.4h0.1l0,0V13l-0.3-1l0.7-0.8v-0.1L26.9,11h-1l-0.6-0.9
	L25.2,10c-0.1,0-0.1,0-0.1,0.1l-0.4,1l-1,0.3c-0.1,0-0.1,0.1-0.1,0.1c0,0.1,0,0.1,0,0.1L24.5,12.2z"/>
<path class="st0" d="M27.7,14.9L27.2,14c0-0.1-0.1-0.1-0.1-0.1c-0.1,0-0.1,0-0.1,0.1l-0.4,1l-1,0.2c-0.1,0-0.1,0-0.1,0.1
	s0,0.1,0,0.1l0.8,0.7l-0.1,1c0,0.1,0,0.1,0.1,0.1h0.1l0.9-0.6l1,0.4h0.1c0,0,0.1-0.1,0-0.1l-0.2-1l0.7-0.8V15l0,0c0,0-0.1,0-0.1-0.1
	H27.7z"/>
<path class="st0" d="M31.2,15.6l-0.1-0.1l0,0c0,0-0.1,0-0.1,0.1l-0.4,0.9l-1,0.2c-0.1,0-0.1,0.1-0.1,0.1v0.1l0.8,0.7l-0.1,1
	c0,0.1,0,0.1,0.1,0.1h0.1l0.9-0.5l0.9,0.5h0.1c0,0,0.1-0.1,0-0.1l-0.2-1l0.7-0.8v-0.1c0-0.1-0.1-0.1-0.1-0.1l-1-0.1L31.2,15.6z"/>
<path class="st0" d="M35.7,14.8l-0.5-0.9c0-0.1-0.1-0.1-0.1-0.1l0,0c0,0-0.1,0-0.1,0.1l-0.4,0.9l-1,0.2c-0.1,0-0.1,0-0.1,0.1v0.1
	l0.8,0.7l-0.1,1c0,0.1,0,0.1,0.1,0.1h0.1l0.9-0.5l0.9,0.5c0,0,0.1,0,0.2,0v-0.1l-0.2-1l0.7-0.8V15l-0.1-0.1L35.7,14.8z"/>
<path class="st0" d="M38.4,10.9l-1-0.1l-0.5-0.9c0-0.1-0.1-0.1-0.1-0.1c-0.1,0-0.1,0-0.1,0.1l-0.5,0.9l-1,0.1c-0.1,0-0.1,0-0.1,0.1
	l0,0v0.1l0.7,0.7l-0.2,1c0,0.1,0,0.1,0.1,0.1c0,0,0.1,0,0.2,0l0.9-0.5l0.9,0.5c0,0,0.1,0,0.2,0l0.1-0.1l-0.2-1l0.7-0.7
	C38.5,11.1,38.5,11,38.4,10.9L38.4,10.9L38.4,10.9z"/>
<path class="st0" d="M34,9l0.9-0.4l0.9,0.5c0,0,0.1,0,0.2,0L36.1,9l-0.2-1l0.8-0.7c0.1,0,0.1-0.1,0.1-0.2C36.8,7,36.7,7,36.6,7l0,0
	l-1-0.2l-0.4-0.9l-0.1-0.1c-0.1,0-0.1,0-0.1,0.1l-0.5,0.9l-1,0.1c-0.1,0-0.1,0-0.1,0.1c0,0,0,0.1,0,0.2L34,7.9l-0.2,1
	c0,0.1,0,0.1,0,0.1l0,0C33.9,9,33.9,9,34,9z"/>
</svg>
