<?xml version="1.0" encoding="utf-8"?>
<!-- Generator: Adobe Illustrator 24.0.1, SVG Export Plug-In . SVG Version: 6.00 Build 0)  -->
<svg version="1.1" id="PICTOS_vectos" xmlns="http://www.w3.org/2000/svg" xmlns:xlink="http://www.w3.org/1999/xlink" x="0px"
	 y="0px" viewBox="0 0 41.1 41.1" style="enable-background:new 0 0 41.1 41.1;" xml:space="preserve">
<style type="text/css">
	.st0{fill:#25465F;}
</style>
<path class="st0" d="M23,22.3c-0.5,0.3-0.9,0.7-1.3,1.2c-0.8-0.7-1.5-1.5-2.1-2.4s-1.1-1.8-1.4-2.8c0.6-0.2,1.1-0.4,1.6-0.7
	c1.6-1.1,2.6-3,2.5-5c0-2.2-0.7-4.3-2-6.1c-1.2-1.8-2.9-3.3-4.9-4.1c-1.8-0.8-3.9-0.6-5.5,0.5L8.1,4c-2.5,1.7-3.6,5.2-2.9,9.8
	c0.9,4.8,2.8,9.3,5.6,13.3c5.1,7.5,11.7,12.2,16.7,12.2c1.3,0,2.6-0.3,3.7-1.1l1.7-1.2c1.6-1.1,2.6-3,2.5-5c0-2.2-0.7-4.3-2-6
	C30.6,21.7,26.2,20.2,23,22.3z M31.2,34.5l-1.7,1.2c-3,2-10.5-1.7-16.2-10.3c-2.6-3.6-4.3-7.7-5.1-12.1C7.7,10,8.3,7.5,9.8,6.5
	l1.7-1.2c0.5-0.2,1-0.4,1.5-0.4s0.9,0.1,1.4,0.3c1.4,0.6,2.6,1.7,3.4,3c0.9,1.3,1.4,2.8,1.5,4.3c0,1-0.4,2-1.2,2.6
	c-0.5,0.3-1.1,0.5-1.7,0.4c-0.8,0-1.5,0.6-1.6,1.4c0,0.1,0,0.2,0,0.3c0.4,2,1.1,3.9,2.3,5.6c1.1,1.7,2.6,3.2,4.3,4.2
	c0.4,0.2,0.9,0.3,1.3,0.1c0.4-0.2,0.8-0.5,0.9-0.9c0.2-0.6,0.5-1,1-1.4l0,0c1.7-1.2,4.4,0,6.3,2.8c0.9,1.3,1.4,2.8,1.5,4.3
	C32.5,33,32,33.9,31.2,34.5L31.2,34.5z"/>
<path class="st0" d="M17.5,14.1c1-0.7,0.6-3.1-0.9-5.2s-3.4-3.2-4.5-2.5s-0.6,3,0.8,5.1S16.5,14.8,17.5,14.1z"/>
<path class="st0" d="M25.3,25.8c-1,0.7-0.7,3,0.8,5.1s3.5,3.3,4.5,2.6s0.6-3.1-0.9-5.2S26.3,25.1,25.3,25.8z"/>
<path class="st0" d="M34.2,13.2c-0.1,1.1-1.1,1.9-2.2,1.8c-1.1,0.1-2.1-0.7-2.3-1.8h2.9v-1.4h-3.1c0-0.2,0-0.3,0-0.5s0-0.3,0-0.5
	h3.1V9.5h-2.9c0.1-1.1,1.1-1.9,2.2-1.8c1,0,1.9,0.8,2,1.8l2.9-0.6C36.4,6.6,34.3,5,32,5.2c-2.6-0.1-4.8,1.7-5.2,4.3h-1.4v1.4h1.3
	c0,0.2,0,0.3,0,0.5s0,0.3,0,0.5h-1.3v1.4h1.4c0.3,2.6,2.5,4.5,5.1,4.3c2.8,0,4.5-1.2,5.1-3.7L34.2,13.2z"/>
</svg>
