<?xml version="1.0" encoding="utf-8"?>
<!-- Generator: Adobe Illustrator 24.0.1, SVG Export Plug-In . SVG Version: 6.00 Build 0)  -->
<svg version="1.1" id="PICTOS_vectos" xmlns="http://www.w3.org/2000/svg" xmlns:xlink="http://www.w3.org/1999/xlink" x="0px"
	 y="0px" viewBox="0 0 46 46" style="enable-background:new 0 0 46 46;" xml:space="preserve">
<style type="text/css">
	.st0{fill:#25465F;}
</style>
<path class="st0" d="M28.6,24.9c-1.8-0.8-3.9-0.6-5.6,0.5c-0.5,0.3-0.9,0.7-1.3,1.2c-0.8-0.7-1.5-1.5-2.1-2.4
	c-0.6-0.9-1.1-1.8-1.4-2.8c0.6-0.2,1.1-0.4,1.6-0.7c1.6-1.1,2.6-3,2.5-5c0-2.2-0.7-4.3-2-6.1c-1.2-1.8-2.9-3.3-4.9-4.1
	c-1.8-0.8-3.9-0.6-5.6,0.5L8.1,7c-5,3.4-3.8,13.5,2.6,23.1c5.1,7.5,11.7,12.1,16.7,12.1c1.3,0,2.6-0.3,3.7-1.1l1.7-1.2
	c1.6-1.1,2.6-3,2.5-5c0-2.2-0.7-4.3-2-6C32.3,27.2,30.6,25.7,28.6,24.9z M31.2,37.6l-1.7,1.2c-3,2-10.4-1.7-16.2-10.3
	S6.8,11.6,9.8,9.5l1.7-1.2c0.4-0.3,1-0.4,1.5-0.4c0.5,0,0.9,0.1,1.4,0.3c1.4,0.6,2.6,1.7,3.5,3c0.9,1.3,1.4,2.8,1.5,4.3
	c0,1-0.4,2-1.2,2.6c-0.5,0.3-1.1,0.5-1.7,0.4c-0.5,0-0.9,0.2-1.2,0.5c-0.3,0.3-0.4,0.8-0.4,1.2c0.4,2,1.1,3.9,2.3,5.6
	c1.1,1.7,2.6,3.2,4.3,4.2c0.4,0.2,0.9,0.3,1.3,0.1c0.4-0.2,0.7-0.5,0.9-0.9c0.2-0.6,0.5-1,1-1.4l0,0c0.9-0.5,1.9-0.6,2.8-0.2
	c1.4,0.6,2.6,1.7,3.5,3c0.9,1.3,1.4,2.8,1.5,4.3C32.5,36,32,37,31.2,37.6z"/>
<path class="st0" d="M17.5,17.1c1-0.7,0.6-3.1-0.9-5.2c-1.5-2.1-3.4-3.2-4.5-2.5s-0.7,3,0.8,5.1S16.5,17.8,17.5,17.1z"/>
<path class="st0" d="M25.3,28.8c-1,0.7-0.7,3,0.8,5.1s3.5,3.3,4.5,2.6s0.6-3.1-0.9-5.2S26.3,28.1,25.3,28.8z"/>
<path class="st0" d="M38.3,16.5H27.9c-0.8,0-1.5,0.7-1.5,1.5c0,0.8,0.7,1.5,1.5,1.5c0,0,0,0,0,0h10.5c0.8,0,1.5-0.7,1.5-1.5
	C39.8,17.2,39.2,16.5,38.3,16.5z"/>
<path class="st0" d="M38.3,11.5H27.9c-0.8,0-1.5,0.7-1.5,1.5s0.7,1.5,1.5,1.5h10.5c0.8,0,1.5-0.7,1.5-1.5S39.2,11.5,38.3,11.5z"/>
<path class="st0" d="M27.9,9.5h10.5c0.8,0,1.5-0.7,1.5-1.5s-0.7-1.5-1.5-1.5H27.9c-0.8,0-1.5,0.7-1.5,1.5S27,9.5,27.9,9.5z"/>
</svg>
