<?xml version="1.0" encoding="utf-8"?>
<!-- Generator: Adobe Illustrator 24.0.1, SVG Export Plug-In . SVG Version: 6.00 Build 0)  -->
<svg version="1.1" id="PICTOS_vectos" xmlns="http://www.w3.org/2000/svg" xmlns:xlink="http://www.w3.org/1999/xlink" x="0px"
	 y="0px" viewBox="0 0 41.1 41.1" style="enable-background:new 0 0 41.1 41.1;" xml:space="preserve">
<style type="text/css">
	.st0{fill:#25465F;}
</style>
<path class="st0" d="M24.6,22c-1.8-0.8-3.9-0.6-5.6,0.5c-0.5,0.3-0.9,0.7-1.3,1.2c-0.8-0.7-1.5-1.5-2.1-2.4
	c-0.6-0.9-1.1-1.8-1.4-2.8c0.6-0.2,1.1-0.4,1.6-0.7c1.6-1.1,2.6-3,2.5-5c0-2.2-0.7-4.3-2-6.1c-1.2-1.8-2.9-3.3-4.9-4.1
	C9.6,1.7,7.5,1.9,5.8,3L4.1,4.1c-2.5,1.7-3.6,5.2-2.9,9.8c0.9,4.8,2.8,9.3,5.6,13.3c5.1,7.5,11.7,12.2,16.7,12.2
	c1.3,0,2.6-0.3,3.7-1.1l1.7-1.2c1.6-1.1,2.6-3,2.5-5c0-2.2-0.7-4.3-2-6C28.3,24.3,26.6,22.8,24.6,22z M27.2,34.7l-1.7,1.2
	c-3,2-10.4-1.7-16.2-10.3C6.7,22,5,17.8,4.2,13.4c-0.5-3.3,0.1-5.8,1.6-6.8l1.7-1.2C8,5.2,8.5,5,9,5c0.5,0,0.9,0.1,1.4,0.3
	c1.4,0.6,2.6,1.7,3.4,3c0.9,1.3,1.4,2.8,1.5,4.3c0,1-0.4,2-1.2,2.6c-0.5,0.3-1.1,0.5-1.7,0.4c-0.8,0-1.5,0.6-1.6,1.4
	c0,0.1,0,0.2,0,0.3c0.4,2,1.1,3.9,2.3,5.6c1.1,1.7,2.6,3.2,4.3,4.2c0.4,0.2,0.9,0.3,1.3,0.1c0.4-0.2,0.8-0.5,0.9-0.9
	c0.2-0.6,0.5-1,1-1.4l0,0c0.9-0.5,1.9-0.6,2.8-0.2c1.4,0.6,2.6,1.7,3.5,3c0.9,1.3,1.4,2.8,1.5,4.3C28.5,33.1,28,34,27.2,34.7
	L27.2,34.7z"/>
<path class="st0" d="M13.5,14.2c1-0.7,0.6-3.1-0.9-5.2S9.2,5.7,8.1,6.4s-0.7,3,0.8,5.1S12.4,14.9,13.5,14.2z"/>
<path class="st0" d="M21.3,25.9c-1,0.7-0.7,3,0.8,5.1s3.5,3.3,4.5,2.6s0.6-3.1-0.9-5.2S22.3,25.2,21.3,25.9z"/>
<path class="st0" d="M35,6.7c-0.4,0-0.7,0-1.1,0.1c-0.8,0.2-1.3,1-1.2,1.8c0.2,0.8,1,1.3,1.8,1.2l0,0c1.2-0.2,2.3,0.5,2.6,1.7
	c0,0.1,0,0.3,0,0.4c-0.1,1.2-1.1,2-2.3,1.9c-0.7-0.1-1.4-0.5-1.7-1.2c-0.1-0.3-0.2-0.7-0.3-1l-0.1-0.3c-0.1-0.4-0.2-0.9-0.4-1.3
	c-1.1-2.6-4-3.9-6.6-2.8c-1.9,0.8-3.1,2.6-3.2,4.6c0,2.8,2.3,5.1,5.1,5.1c0.4,0,0.7,0,1.1-0.1c0.8-0.2,1.3-1,1.2-1.8
	c-0.2-0.8-1-1.3-1.8-1.2c-0.2,0-0.3,0-0.5,0.1c-1.2,0-2.1-1-2.1-2.1c0.1-1.2,1.2-2,2.3-1.9c0.7,0.1,1.3,0.5,1.7,1.2
	c0.1,0.3,0.2,0.6,0.3,1l0.1,0.3c0.1,0.4,0.2,0.9,0.4,1.3c1.1,2.6,4,3.9,6.7,2.8c1.9-0.8,3.1-2.6,3.2-4.6C40.1,9,37.8,6.7,35,6.7z"/>
</svg>
