<?xml version="1.0" encoding="utf-8"?>
<!-- Generator: Adobe Illustrator 24.0.1, SVG Export Plug-In . SVG Version: 6.00 Build 0)  -->
<svg version="1.1" id="PICTOS_vectos" xmlns="http://www.w3.org/2000/svg" xmlns:xlink="http://www.w3.org/1999/xlink" x="0px"
	 y="0px" viewBox="0 0 46.1 46.1" style="enable-background:new 0 0 46.1 46.1;" xml:space="preserve">
<style type="text/css">
	.st0{fill:#25465F;}
</style>
<path class="st0" d="M14.5,18.7c1-0.7,0.6-3.1-0.9-5.2s-3.4-3.2-4.5-2.5s-0.7,3,0.8,5.1S13.4,19.4,14.5,18.7z"/>
<path class="st0" d="M22.3,30.5c-1,0.7-0.6,3,0.8,5.1s3.5,3.3,4.5,2.6s0.6-3.1-0.9-5.2S23.3,29.8,22.3,30.5z"/>
<path class="st0" d="M44.1,18.2c0-1.9-0.4-3.7-1-5.5c0-0.2-0.1-0.3-0.2-0.4C40.6,6.3,34.8,2.2,28.3,2c-0.1,0-0.2,0-0.4,0
	c-0.1,0-0.2,0-0.3,0c-5,0.1-9.7,2.5-12.6,6.6c-0.8-0.6-1.6-1.1-2.5-1.5c-1.8-0.8-3.9-0.6-5.6,0.5L5.1,8.7c-5,3.4-3.8,13.5,2.6,23.1
	c2.6,4.1,6.2,7.6,10.3,10.2c1.9,1.2,4.1,1.9,6.4,2c1.3,0,2.6-0.4,3.7-1.1l1.7-1.2c2.4-1.6,3.1-4.6,2.1-7.8
	C39.1,32.1,44.1,25.6,44.1,18.2z M19.3,17.2c0-0.9-0.1-1.8-0.4-2.7h0.6c-0.1,1.1-0.2,2.3-0.2,3.4c0,1.5,0.1,3.1,0.4,4.6H16
	c0.3-0.1,0.5-0.3,0.8-0.4C18.4,21.1,19.3,19.2,19.3,17.2L19.3,17.2z M29.4,5.7c1.3,1,2.5,3,3.3,5.9h-3.3
	C29.4,11.6,29.4,5.7,29.4,5.7z M26.4,5.5v6H23c0.3-1.1,0.6-2.1,1.1-3.1C24.6,7.3,25.4,6.3,26.4,5.5z M26.4,14.5v8.1h-3.7
	c-0.5-2.7-0.5-5.4-0.2-8.1H26.4z M20.3,25.6c0.1,0.4,0.2,0.7,0.3,1c-0.2,0.1-0.4,0.2-0.6,0.4l0,0c-0.5,0.3-0.9,0.7-1.3,1.2
	c-0.8-0.7-1.5-1.5-2.1-2.4l-0.1-0.1L20.3,25.6z M23.5,26.1l-0.1-0.4h3V27c-0.3-0.1-0.6-0.3-0.8-0.4C24.9,26.3,24.2,26.1,23.5,26.1z
	 M30.1,30.2c-0.2-0.3-0.5-0.6-0.7-0.9v-3.7h3.1C32.1,27.3,31.2,28.9,30.1,30.2z M29.4,22.6v-8.1h3.9c0.2,1.2,0.3,2.4,0.3,3.6
	c0,1.5-0.1,3-0.3,4.5H29.4z M36.3,14.5h4.3c0.8,2.7,0.7,5.5-0.2,8.1h-4.1c0.2-1.5,0.3-3,0.3-4.5C36.5,17,36.4,15.8,36.3,14.5z
	 M39.3,11.5h-3.5c-0.4-1.8-1-3.5-1.9-5.1C36.1,7.6,38,9.4,39.3,11.5L39.3,11.5z M21.8,6.5c-0.1,0.2-0.2,0.3-0.3,0.5
	c-0.7,1.4-1.2,2.9-1.5,4.4h-2.5L17.3,11L17,10.8C18.2,9,19.8,7.6,21.8,6.5L21.8,6.5z M28.2,39.2l-1.7,1.2c-1.5,1-4,0.6-6.9-1
	c-3.7-2.4-6.9-5.5-9.3-9.2c-5.8-8.7-6.5-16.9-3.5-19L8.5,10c0.4-0.3,1-0.4,1.5-0.4s0.9,0.1,1.3,0.3c1.4,0.6,2.6,1.7,3.4,3
	c0.9,1.3,1.4,2.8,1.5,4.3c0,1-0.4,2-1.2,2.6c-0.5,0.3-1.1,0.5-1.7,0.4c-0.4,0-0.9,0.2-1.2,0.5s-0.4,0.8-0.4,1.2
	c0.3,2,1.1,3.9,2.3,5.6c1.1,1.7,2.6,3.2,4.3,4.2c0.4,0.2,0.9,0.3,1.3,0.1c0.4-0.2,0.7-0.5,0.9-0.9c0.2-0.6,0.5-1,1-1.4l0,0
	c0.9-0.5,1.9-0.6,2.8-0.2c1.4,0.6,2.6,1.7,3.5,3C29.8,35.1,29.9,38,28.2,39.2z M34,30c0.7-1.4,1.3-2.8,1.7-4.3h3.2
	C37.6,27.5,36,29,34,30z"/>
</svg>
