<?xml version="1.0" encoding="utf-8"?>
<!-- Generator: Adobe Illustrator 24.0.1, SVG Export Plug-In . SVG Version: 6.00 Build 0)  -->
<svg version="1.1" id="PICTOS_vectos" xmlns="http://www.w3.org/2000/svg" xmlns:xlink="http://www.w3.org/1999/xlink" x="0px"
	 y="0px" viewBox="0 0 41.1 41.1" style="enable-background:new 0 0 41.1 41.1;" xml:space="preserve">
<style type="text/css">
	.st0{fill:#25465F;}
</style>
<path class="st0" d="M33.8,25.9c-1.2-1.8-2.9-3.2-4.9-4c-1.8-0.8-3.9-0.6-5.6,0.5c-0.5,0.3-0.9,0.7-1.3,1.2
	c-0.8-0.7-1.5-1.5-2.1-2.4s-1.1-1.8-1.5-2.8c0.6-0.2,1.1-0.4,1.6-0.7c1.6-1.1,2.6-3,2.5-5c0-2.2-0.7-4.3-2-6
	c-1.2-1.8-2.9-3.3-4.9-4.1c-1.6-1-3.7-0.8-5.4,0.3L8.5,4c-2.6,1.7-3.6,5.2-2.9,9.7C6.5,18.5,8.4,23,11.2,27
	c5.1,7.5,11.7,12.2,16.7,12.2c1.3,0,2.6-0.3,3.7-1.1l1.7-1.2c1.6-1.1,2.6-3,2.5-5C35.8,29.8,35.1,27.7,33.8,25.9z M31.6,34.5
	l-1.7,1.2c-3,2-10.4-1.7-16.2-10.3c-2.6-3.6-4.3-7.7-5.1-12.1C8.1,10,8.7,7.5,10.2,6.5l1.7-1.2c0.4-0.3,1-0.5,1.5-0.5
	s0.9,0.1,1.4,0.3c1.4,0.6,2.6,1.7,3.4,3c0.9,1.3,1.4,2.8,1.5,4.3c0,1-0.4,2-1.2,2.6c-0.5,0.3-1.1,0.5-1.7,0.4
	c-0.8,0-1.5,0.6-1.6,1.4c0,0.1,0,0.2,0,0.3c0.4,2,1.1,3.9,2.3,5.6c1.1,1.7,2.6,3.2,4.3,4.2c0.4,0.2,0.9,0.3,1.3,0.1
	c0.4-0.2,0.8-0.5,0.9-0.9c0.2-0.6,0.5-1,1-1.4l0,0c0.9-0.5,1.9-0.6,2.8-0.2c1.4,0.6,2.6,1.7,3.5,3s1.4,2.8,1.5,4.3
	C32.8,32.9,32.4,33.9,31.6,34.5z"/>
<path class="st0" d="M17.8,14c1-0.7,0.6-3.1-0.9-5.2s-3.4-3.2-4.5-2.5s-0.7,3,0.8,5.1S16.8,14.7,17.8,14z"/>
<path class="st0" d="M25.6,25.8c-1,0.7-0.7,3,0.8,5.1c1.5,2.1,3.5,3.3,4.5,2.6s0.6-3.1-0.9-5.2S26.7,25.1,25.6,25.8z"/>
</svg>
