<?xml version="1.0" encoding="utf-8"?>
<!-- Generator: Adobe Illustrator 24.0.1, SVG Export Plug-In . SVG Version: 6.00 Build 0)  -->
<svg version="1.1" id="PICTOS_vectos" xmlns="http://www.w3.org/2000/svg" xmlns:xlink="http://www.w3.org/1999/xlink" x="0px"
	 y="0px" viewBox="0 0 41.1 41.1" style="enable-background:new 0 0 41.1 41.1;" xml:space="preserve">
<style type="text/css">
	.st0{fill:#25465F;}
</style>
<path class="st0" d="M27.3,21.9c-1.8-0.8-3.9-0.6-5.6,0.5c-0.5,0.3-0.9,0.7-1.3,1.2c-0.8-0.7-1.5-1.5-2.1-2.4
	c-0.6-0.9-1.1-1.8-1.4-2.8c0.6-0.2,1.1-0.4,1.6-0.7c1.6-1.1,2.6-3,2.5-5c0-2.2-0.7-4.3-2-6c-1.2-1.8-2.9-3.3-4.9-4.1
	c-1.8-0.8-3.9-0.6-5.6,0.5L6.9,4c-5,3.4-3.8,13.5,2.7,23.1c5.1,7.5,11.7,12.2,16.7,12.2c1.3,0,2.6-0.3,3.7-1.1l1.7-1.2
	c1.6-1.1,2.6-3,2.6-5c-0.1-2.2-0.7-4.3-2-6C31,24.1,29.3,22.7,27.3,21.9z M30,34.5l-1.7,1.2c-3,2-10.4-1.7-16.2-10.3
	S5.5,8.5,8.6,6.5l1.7-1.2c0.4-0.3,1-0.5,1.5-0.4c0.5,0,0.9,0.1,1.3,0.3c1.4,0.6,2.6,1.7,3.5,3c0.9,1.3,1.4,2.8,1.5,4.3
	c0,1-0.4,2-1.2,2.6c-0.5,0.3-1.1,0.5-1.7,0.4c-0.4,0-0.9,0.2-1.2,0.5c-0.3,0.3-0.4,0.8-0.4,1.2c0.4,2,1.1,3.9,2.3,5.6
	c1.1,1.7,2.6,3.2,4.3,4.2c0.4,0.2,0.9,0.3,1.3,0.1c0.4-0.2,0.7-0.5,0.9-0.9c0.2-0.6,0.5-1,1-1.4l0,0c0.9-0.5,1.9-0.6,2.8-0.2
	c1.4,0.6,2.6,1.7,3.5,3c0.9,1.3,1.4,2.8,1.5,4.3C31.2,32.9,30.8,33.9,30,34.5z"/>
<path class="st0" d="M16.2,14c1-0.7,0.6-3.1-0.9-5.2s-3.4-3.2-4.5-2.5s-0.7,3,0.8,5.1S15.2,14.7,16.2,14z"/>
<path class="st0" d="M24,25.8c-1,0.7-0.6,3,0.8,5.1s3.5,3.3,4.5,2.6s0.6-3.1-0.9-5.2S25.1,25.1,24,25.8z"/>
<path class="st0" d="M37,9.3c-0.1,0-0.2-0.1-0.3-0.1h-0.6c-0.1,0-0.2-0.1-0.2-0.1L35,6.6c-0.1-0.3-0.4-0.5-0.7-0.5L33.7,6h-0.2
	c-0.3-0.1-0.7-0.2-1.1-0.2H32h-0.2c-0.2,0-0.4,0.1-0.6,0.1c-0.2,0-0.4-0.1-0.6-0.4c0,0-0.3-0.4-0.3-0.5s-0.3-0.2-1.2,0H29
	c-0.2,0.1-0.4,0.1-0.7,0.1c-0.7,0-1.5,0.5-1.5,1.1c0,0.1-0.1,0.3-0.2,0.4c-0.1,0.2-0.9,0.8-1,0.9c-0.6,0.6-0.1,2.1,0.6,2.9
	c0.5,0.5,1.3,0.6,2,0.3c0.6-0.2,0.8-0.2,1.1,0.1c0.1,0.1,0.2,0.3,0.3,0.5l0.1,0.3c0.1,0.2,0.2,0.3,0.4,0.5c0.2,0.4,0.3,0.8,0.2,1.3
	c0,0.2,0,0.3,0,0.6c0,0.4,0,0.5,0,0.7c0.1,0.8,0.5,1.6,1.1,2.2c0.1,0.2,0.3,0.3,0.5,0.3c0.1,0,0.3,0,0.4-0.1l0.5-0.2
	c0.4-0.2,0.7-0.5,1.2-1.4l0.1-0.1c0.2-0.3,0.4-0.6,0.6-0.9c0.3-0.3,0.5-0.6,0.5-1c0.1-0.3,0.1-0.7,0-1v-0.2c0-0.2,0.2-0.5,0.7-1
	l0.3-0.3c0.2-0.1,0.6-0.6,0.7-0.7c0.2-0.2,0.3-0.4,0.3-0.6C37.3,9.5,37.2,9.3,37,9.3z"/>
<path class="st0" d="M35.8,14.3c-0.2,0-0.4,1.4-0.2,1.5c0.9,0.3,0.9-2,0.7-2.1S36.3,14.2,35.8,14.3z"/>
</svg>
