<?xml version="1.0" encoding="utf-8"?>
<!-- Generator: Adobe Illustrator 24.0.1, SVG Export Plug-In . SVG Version: 6.00 Build 0)  -->
<svg version="1.1" id="PICTOS_vectos" xmlns="http://www.w3.org/2000/svg" xmlns:xlink="http://www.w3.org/1999/xlink" x="0px"
	 y="0px" viewBox="0 0 59.3 59.3" style="enable-background:new 0 0 59.3 59.3;" xml:space="preserve">
<style type="text/css">
	.st0{fill:#25465F;}
</style>
<path class="st0" d="M9.1,19.5h5.1c0.4,0,0.8-0.3,0.8-0.8c0-0.4-0.3-0.8-0.8-0.8H9.1c-0.4,0-0.8,0.3-0.8,0.8
	C8.3,19.1,8.7,19.5,9.1,19.5z"/>
<path class="st0" d="M11.6,37.2c-2.6,0-4.7,1-4.7,2.2s2.1,2.2,4.7,2.2c2.6,0,4.6-1,4.6-2.2C16.3,38.2,14.2,37.2,11.6,37.2z"/>
<path class="st0" d="M58.3,22.7c0-0.5-0.2-1.1-0.5-1.5l-3.6-5.1c-0.5-0.7-1.3-1.1-2.1-1.1H38.7c-2.2,0-4,1.8-4,4v24.5
	c0,2.2,1.8,4,4,4h15.6c2.2,0,4-1.8,4-4L58.3,22.7z M55,44.2c-0.2,0.2-0.4,0.3-0.7,0.3H38.7c-0.6,0-1-0.4-1-1V19c0-0.6,0.4-1,1-1
	h13.2l3.4,4.9v20.6C55.3,43.7,55.2,44,55,44.2z"/>
<path class="st0" d="M52.6,26.8H40.3c-0.8,0-1.5,0.7-1.5,1.5c0,0,0,0,0,0V42c0,0.8,0.7,1.5,1.5,1.5h12.3c0.8,0,1.5-0.7,1.5-1.5V28.3
	C54.1,27.5,53.5,26.8,52.6,26.8z M51.1,40.5H50v-2.2c0-0.8-0.7-1.5-1.5-1.5S47,37.5,47,38.3v2.2h-1.1v-2.2c0-0.8-0.7-1.5-1.5-1.5
	s-1.5,0.7-1.5,1.5v2.2h-1.1V29.8h1.1v2.7c0,0.8,0.7,1.5,1.5,1.5s1.5-0.7,1.5-1.5v-2.7H47v2.7c0,0.8,0.7,1.5,1.5,1.5s1.5-0.7,1.5-1.5
	v-2.7h1.1L51.1,40.5z"/>
<path class="st0" d="M31,33.2h-0.9v-1c0-0.8-0.7-1.5-1.5-1.5s-1.5,0.7-1.5,1.5v1h-1c-0.8,0-1.5,0.7-1.5,1.5s0.7,1.5,1.5,1.5h1v0.9
	c0,0.8,0.7,1.5,1.5,1.5s1.5-0.7,1.5-1.5v-0.9H31c0.8,0,1.5-0.7,1.5-1.5S31.8,33.2,31,33.2z"/>
<path class="st0" d="M18.4,13H4.8C2.7,13,1,14.7,1,16.8l0,0v26.7c0,2.1,1.7,3.8,3.8,3.8h13.6c2.1,0,3.8-1.7,3.8-3.8V16.8
	C22.2,14.7,20.5,13,18.4,13z M19.2,43.5c0,0.5-0.4,0.8-0.8,0.8H4.8C4.4,44.4,4,44,4,43.5V16.8C4,16.4,4.4,16,4.8,16c0,0,0,0,0,0
	h13.6c0.5,0,0.8,0.4,0.8,0.8c0,0,0,0,0,0V43.5z"/>
</svg>
