<?xml version="1.0" encoding="utf-8"?>
<!-- Generator: Adobe Illustrator 24.0.1, SVG Export Plug-In . SVG Version: 6.00 Build 0)  -->
<svg version="1.1" id="PICTOS_vectos" xmlns="http://www.w3.org/2000/svg" xmlns:xlink="http://www.w3.org/1999/xlink" x="0px"
	 y="0px" viewBox="0 0 46 46" style="enable-background:new 0 0 46 46;" xml:space="preserve">
<style type="text/css">
	.st0{fill:#25465F;}
</style>
<path class="st0" d="M31.8,35.3c-0.8-0.3-1.6,0-2,0.8c0,0,0,0,0,0c-2.1,5-7.8,7.3-12.8,5.2s-7.3-7.8-5.2-12.8c0.9-2,2.4-3.7,4.3-4.8
	c0.7-0.4,1.1-1.3,0.7-2c-0.4-0.7-1.3-1.1-2-0.7c-0.1,0-0.1,0.1-0.2,0.1c-6.2,3.4-8.4,11.2-4.9,17.4s11.2,8.4,17.4,4.9
	c2.5-1.4,4.4-3.6,5.5-6.2C32.9,36.5,32.6,35.6,31.8,35.3C31.8,35.3,31.8,35.3,31.8,35.3z"/>
<path class="st0" d="M38,37.4l-1.7-8.6c-0.5-2.3-2.4-3.9-4.7-3.9h-7c-0.9,0-1.6-0.6-1.8-1.5L21,13.7c-0.1-0.8-0.9-1.4-1.8-1.2
	c-0.8,0.1-1.4,0.9-1.2,1.8l1.7,9.6c0.4,2.3,2.4,4,4.8,4h7c0.9,0,1.6,0.6,1.8,1.5L35,38c0.1,0.7,0.8,1.2,1.5,1.2h0.3
	c0.8-0.1,1.4-0.9,1.3-1.7C38,37.5,38,37.4,38,37.4z"/>
<path class="st0" d="M21.7,7.7c1.5-2.1,1.9-4.4,0.9-5.1c-1-0.7-3,0.5-4.5,2.6s-1.8,4.3-0.8,5S20.2,9.8,21.7,7.7z"/>
</svg>
