<?xml version="1.0" encoding="utf-8"?>
<!-- Generator: Adobe Illustrator 24.0.1, SVG Export Plug-In . SVG Version: 6.00 Build 0)  -->
<svg version="1.1" id="PICTOS_vectos" xmlns="http://www.w3.org/2000/svg" xmlns:xlink="http://www.w3.org/1999/xlink" x="0px"
	 y="0px" viewBox="0 0 50 50" style="enable-background:new 0 0 50 50;" xml:space="preserve">
<style type="text/css">
	.st0{fill:#25465F;}
</style>
<path class="st0" d="M21.1,34.9c0.3,0,0.5-0.1,0.8-0.2l14.1-8.4c0.7-0.4,0.9-1.3,0.5-2.1c-0.1-0.2-0.3-0.4-0.5-0.5l-14.1-8.4
	c-0.7-0.4-1.6-0.2-2.1,0.5c-0.1,0.2-0.2,0.5-0.2,0.8v16.9C19.6,34.3,20.2,34.9,21.1,34.9C21.1,34.9,21.1,34.9,21.1,34.9z M22.6,19.2
	l9.6,5.8l-9.6,5.8V19.2z"/>
<path class="st0" d="M26.8,3c-12.2,0-22,9.8-22,22v12.5l-1.1-1.1c-0.6-0.6-1.5-0.6-2.1,0C1,37,1,37.9,1.6,38.5c0,0,0,0,0,0l3.7,3.7
	c0.1,0.1,0.3,0.3,0.5,0.3l0,0c0.4,0.1,0.7,0.1,1.1,0l0,0c0.2-0.1,0.3-0.2,0.5-0.3l3.7-3.7c0.6-0.6,0.6-1.5,0-2.1c0,0,0,0,0,0
	c-0.6-0.6-1.5-0.6-2.1,0l-1.1,1.1V25c0-10.5,8.5-19,19-19s19,8.5,19,19s-8.5,19-19,19H12.1c-0.8,0-1.5,0.7-1.5,1.5s0.7,1.5,1.5,1.5
	h14.7c12.2,0,22-9.8,22-22S39,3,26.8,3z"/>
</svg>
