<?xml version="1.0" encoding="utf-8"?>
<!-- Generator: Adobe Illustrator 24.0.1, SVG Export Plug-In . SVG Version: 6.00 Build 0)  -->
<svg version="1.1" id="PICTOS_vectos" xmlns="http://www.w3.org/2000/svg" xmlns:xlink="http://www.w3.org/1999/xlink" x="0px"
	 y="0px" viewBox="0 0 46 46" style="enable-background:new 0 0 46 46;" xml:space="preserve">
<style type="text/css">
	.st0{fill:#25465F;}
</style>
<path class="st0" d="M32.1,21.7L18,13.3c-0.7-0.4-1.6-0.2-2.1,0.5c-0.1,0.2-0.2,0.5-0.2,0.8v16.9c0,0.5,0.3,1,0.7,1.3
	c0.2,0.1,0.5,0.2,0.7,0.2c0.3,0,0.5-0.1,0.8-0.2l14.1-8.4c0.7-0.4,0.9-1.3,0.5-2.1C32.5,22,32.3,21.8,32.1,21.7L32.1,21.7z
	 M18.8,28.8V17.2l9.6,5.8L18.8,28.8z"/>
<path class="st0" d="M23,1C10.8,1,1,10.8,1,23s9.8,22,22,22s22-9.8,22-22S35.2,1,23,1z M23,42C12.5,42,4,33.5,4,23S12.5,4,23,4
	s19,8.5,19,19S33.5,42,23,42z"/>
</svg>
