<?xml version="1.0" encoding="utf-8"?>
<!-- Generator: Adobe Illustrator 24.0.1, SVG Export Plug-In . SVG Version: 6.00 Build 0)  -->
<svg version="1.1" id="PICTOS_vectos" xmlns="http://www.w3.org/2000/svg" xmlns:xlink="http://www.w3.org/1999/xlink" x="0px"
	 y="0px" viewBox="0 0 46.1 46.1" style="enable-background:new 0 0 46.1 46.1;" xml:space="preserve">
<style type="text/css">
	.st0{fill:#25465F;}
</style>
<path class="st0" d="M22.9,28.6c2.5,0,4.4-0.9,4.4-2.1s-2-2.2-4.5-2.2s-4.5,0.9-4.5,2.1S20.5,28.6,22.9,28.6z"/>
<path class="st0" d="M40.3,8.6H40l-4,1.8c-0.3-0.1-0.7-0.1-1-0.1h-3.7c-1.2-4.5-5.9-7.2-10.4-6c-2.9,0.8-5.2,3.1-6,6h-3.6
	c-0.3,0-0.7,0-1,0.1L6.2,8.6H5.9C3.2,8.7,1,10.8,1,13.5v19.7l5.7,5.3l0.1-0.2c0.8,1.7,2.5,2.8,4.4,2.8H35c1.9,0,3.6-1.1,4.4-2.8
	l0.1,0.2l5.7-5.3V13.5C45.3,10.8,43.1,8.6,40.3,8.6C40.4,8.6,40.4,8.6,40.3,8.6z M36.8,15.2v12.6c-1.9-4.5-4.3-7.9-7-10
	c1-1.3,1.6-2.8,1.8-4.5H35C36,13.4,36.8,14.2,36.8,15.2z M23.1,18.1c-2.7,0-5.1-2-5.5-4.7h10.9C28.2,16,25.9,18.1,23.1,18.1z
	 M18.7,19.8c2.7,1.6,6.1,1.6,8.8,0c2.6,1.9,5.1,5.3,6.9,10c-1,0.8-3.9,2.4-11.3,2.4s-10.3-1.6-11.3-2.4
	C13.7,25.2,16.1,21.7,18.7,19.8z M23.1,7c2.2,0,4.2,1.3,5.1,3.3H18C18.9,8.3,20.9,7,23.1,7z M14.6,13.3c0.2,1.6,0.8,3.2,1.8,4.5
	c-2.7,2.1-5.1,5.6-7,10.1V15.2c0-1,0.8-1.9,1.9-1.9H14.6z M4,13.5c0-0.9,0.7-1.7,1.6-1.9l1.7,0.7c-0.6,0.8-0.9,1.8-0.9,2.8v18.9
	L4,31.9V13.5z M35,38.1H11.3c-1,0-1.9-0.8-1.9-1.9l0,0v-4.6c1.3,1.3,4.8,3.6,13.7,3.6s12.4-2.2,13.7-3.6v4.6
	C36.8,37.2,36,38.1,35,38.1z M42.3,31.9l-2.4,2.2V15.2c0-1-0.3-2-0.9-2.8l1.7-0.7c0.9,0.1,1.6,0.9,1.6,1.9V31.9z"/>
</svg>
