<svg id="PICTOS_vectos" xmlns="http://www.w3.org/2000/svg" viewBox="0 0 46 46"><defs><style>.cls-1{fill:#25465f;}</style></defs><path class="cls-1" d="M31.7,17.43A1.51,1.51,0,0,0,32.76,17l7.05-7a1.51,1.51,0,0,0,0-2.12,1.49,1.49,0,0,0-2.12,0l-6,6-2.27-2.27a1.51,1.51,0,0,0-2.12,0,1.49,1.49,0,0,0,0,2.12L30.64,17A1.49,1.49,0,0,0,31.7,17.43Z"/><path class="cls-1" d="M43.53,25.08a10.21,10.21,0,0,0-3.76-.71A10.33,10.33,0,0,0,29.46,34.69a7.31,7.31,0,0,1-14.62.08A12.3,12.3,0,0,0,25.63,22.58v-2a11.39,11.39,0,1,0-3.48-8.18,11,11,0,0,0,.12,1.53H20.63V9.14a1.5,1.5,0,0,0-3,0v4.8H9V9.14a1.5,1.5,0,0,0-3,0v4.8H2.54A1.5,1.5,0,0,0,1,15.44v7.14a12.3,12.3,0,0,0,10.8,12.19,10.31,10.31,0,0,0,20.62-.08,7.32,7.32,0,0,1,10-6.82A1.5,1.5,0,0,0,44.38,27,1.48,1.48,0,0,0,43.53,25.08ZM33.56,4a8.41,8.41,0,1,1-8.41,8.41A8.41,8.41,0,0,1,33.56,4ZM4,22.58V16.94H22.63v5.64A9.3,9.3,0,0,1,4,22.58Z"/><path class="cls-1" d="M18,27.1c0-1.23-2.07-2.24-4.63-2.26s-4.65,1-4.66,2.2,2.14,2.23,4.71,2.25S18,28.33,18,27.1Z"/></svg>