<?xml version="1.0" encoding="utf-8"?>
<!-- Generator: Adobe Illustrator 24.0.1, SVG Export Plug-In . SVG Version: 6.00 Build 0)  -->
<svg version="1.1" id="PICTOS_vectos" xmlns="http://www.w3.org/2000/svg" xmlns:xlink="http://www.w3.org/1999/xlink" x="0px"
	 y="0px" viewBox="0 0 46.1 46.1" style="enable-background:new 0 0 46.1 46.1;" xml:space="preserve">
<style type="text/css">
	.st0{fill:#25465F;}
</style>
<path class="st0" d="M23,1.5C11.2,1.5,1.5,11.2,1.5,23S11.2,44.5,23,44.5S44.5,34.9,44.5,23C44.5,11.2,34.9,1.5,23,1.5z M23,41.5
	C12.8,41.5,4.5,33.2,4.5,23S12.8,4.5,23,4.5S41.5,12.8,41.5,23C41.5,33.2,33.2,41.5,23,41.5z"/>
<path class="st0" d="M35.5,21.5H24.5V10.6c0-0.8-0.7-1.5-1.5-1.5s-1.5,0.7-1.5,1.5v10.9H10.6c-0.8,0-1.5,0.7-1.5,1.5
	s0.7,1.5,1.5,1.5h10.9v10.9c0,0.8,0.7,1.5,1.5,1.5s1.5-0.7,1.5-1.5V24.5h10.9c0.8,0,1.5-0.7,1.5-1.5S36.3,21.5,35.5,21.5z"/>
</svg>
