<?xml version="1.0" encoding="utf-8"?>
<!-- Generator: Adobe Illustrator 24.0.1, SVG Export Plug-In . SVG Version: 6.00 Build 0)  -->
<svg version="1.1" id="PICTOS_vectos" xmlns="http://www.w3.org/2000/svg" xmlns:xlink="http://www.w3.org/1999/xlink" x="0px"
	 y="0px" viewBox="0 0 46.1 46.1" style="enable-background:new 0 0 46.1 46.1;" xml:space="preserve">
<style type="text/css">
	.st0{fill:#25465F;}
</style>
<path class="st0" d="M11.3,18.7c2.6,0,4.6-1,4.6-2.2s-2.1-2.2-4.6-2.3s-4.7,1-4.7,2.2S8.7,18.7,11.3,18.7z"/>
<path class="st0" d="M41.3,9.6h-4.8V2.5C36.5,1.7,35.8,1,35,1H10.9C10,1,9.4,1.7,9.4,2.5v7.1H4.7c-2,0-3.7,1.7-3.7,3.7v0v12.5
	c0,2,1.7,3.7,3.7,3.7h0h4.7v14.1c0,0.8,0.7,1.5,1.5,1.5H35c0.8,0,1.5-0.7,1.5-1.5V29.5h4.8c2,0,3.7-1.7,3.7-3.7c0,0,0,0,0,0V13.3
	C45,11.3,43.3,9.6,41.3,9.6C41.3,9.6,41.3,9.6,41.3,9.6z M12.4,4h21.1v5.6H12.4V4z M33.5,42.1H12.4V29.5h21.1V42.1z M42,25.8
	c0,0.4-0.3,0.7-0.7,0.7H4.7c-0.4,0-0.7-0.3-0.7-0.7V13.3c0-0.4,0.3-0.7,0.7-0.7h5.8c0.2,0.1,0.5,0.1,0.7,0h23.4
	c0.2,0.1,0.5,0.1,0.7,0h6c0.4,0,0.7,0.3,0.7,0.7c0,0,0,0,0,0L42,25.8z"/>
<path class="st0" d="M15.2,33.4h2.9c0.8,0,1.5-0.7,1.5-1.5c0-0.8-0.7-1.5-1.5-1.5h-2.9c-0.8,0-1.5,0.7-1.5,1.5
	C13.7,32.7,14.4,33.4,15.2,33.4z"/>
<path class="st0" d="M22.4,33.4h8.2c0.8,0,1.5-0.7,1.5-1.5c0-0.8-0.7-1.5-1.5-1.5h-8.2c-0.8,0-1.5,0.7-1.5,1.5
	C20.9,32.7,21.6,33.4,22.4,33.4z"/>
<path class="st0" d="M18.1,35.8h-2.9c-0.8,0-1.5,0.7-1.5,1.5s0.7,1.5,1.5,1.5h2.9c0.8,0,1.5-0.7,1.5-1.5S19,35.8,18.1,35.8z"/>
<path class="st0" d="M22.4,38.8h8.2c0.8,0,1.5-0.7,1.5-1.5s-0.7-1.5-1.5-1.5h-8.2c-0.8,0-1.5,0.7-1.5,1.5S21.6,38.8,22.4,38.8z"/>
<path class="st0" d="M39.3,21H7.5C6.7,21,6,21.7,6,22.5S6.7,24,7.5,24h31.8c0.8,0,1.5-0.7,1.5-1.5S40.1,21,39.3,21z"/>
</svg>
