<svg id="PICTOS_vectos" xmlns="http://www.w3.org/2000/svg" viewBox="0 0 46 46"><defs><style>.cls-1{fill:#25465f;}</style></defs><path class="cls-1" d="M16.48,42H4a.07.07,0,0,1-.08-.08l0-28.23h7.49a1.51,1.51,0,0,0,1.5-1.5V4H32.34a.08.08,0,0,1,.08.08V23.8a1.5,1.5,0,0,0,3,0V4.08A3.08,3.08,0,0,0,32.34,1H11.14A3,3,0,0,0,8.8,2.08L1.55,10A3.13,3.13,0,0,0,.88,12v30A3.08,3.08,0,0,0,4,45H16.48a1.5,1.5,0,1,0,0-3ZM9.83,5.41v5.28H5Z"/><path class="cls-1" d="M44,28.94a1.43,1.43,0,0,0-.15-.18,4.57,4.57,0,0,0-3.35-1.46H23.59a4.57,4.57,0,0,0-3,1.14.79.79,0,0,0-.15.12A4.59,4.59,0,0,0,19,31.91v8.48A4.62,4.62,0,0,0,23.59,45H40.51a4.62,4.62,0,0,0,4.61-4.61V31.91A4.57,4.57,0,0,0,44,28.94ZM32.06,34.4l-6.72-4.1H39ZM40.51,42H23.59A1.61,1.61,0,0,1,22,40.39V31.91c0-.05,0-.1,0-.14l9.28,5.66h0a1.19,1.19,0,0,0,.26.11l.11.05a1.39,1.39,0,0,0,.35,0h.09a1.24,1.24,0,0,0,.33,0l.12-.05.24-.1h0L42.12,32v8.44A1.61,1.61,0,0,1,40.51,42Z"/><path class="cls-1" d="M6.68,18.81c0,1.23,2.14,2.23,4.71,2.25S16,20.1,16,18.87s-2.06-2.24-4.63-2.26S6.69,17.58,6.68,18.81Z"/></svg>