<?xml version="1.0" encoding="utf-8"?>
<!-- Generator: Adobe Illustrator 24.0.1, SVG Export Plug-In . SVG Version: 6.00 Build 0)  -->
<svg version="1.1" id="PICTOS_vectos" xmlns="http://www.w3.org/2000/svg" xmlns:xlink="http://www.w3.org/1999/xlink" x="0px"
	 y="0px" viewBox="0 0 46.1 46.1" style="enable-background:new 0 0 46.1 46.1;" xml:space="preserve">
<style type="text/css">
	.st0{fill:#25465F;}
</style>
<path class="st0" d="M24.4,7.2C24.3,7,24.2,6.9,24,6.8l0,0c-0.4-0.1-0.7-0.1-1.1,0l0,0c-0.2,0.1-0.4,0.2-0.5,0.3l-5.2,5.1
	c-0.6,0.6-0.6,1.5,0,2.1c0,0,0,0,0,0c0.3,0.3,0.7,0.4,1.1,0.4c0.4,0,0.8-0.2,1.1-0.4l2.6-2.6v19.4c0,0.8,0.7,1.5,1.5,1.5
	s1.5-0.7,1.5-1.5V11.8l2.6,2.6c0.6,0.6,1.6,0.5,2.1-0.1c0.5-0.6,0.5-1.5,0-2L24.4,7.2z"/>
<path class="st0" d="M44.6,12.3l-5.1-5.1C39.3,7,39.2,6.9,39,6.8l0,0c-0.4-0.1-0.7-0.1-1.1,0l0,0c-0.2,0.1-0.4,0.2-0.5,0.3l-5.2,5.1
	c-0.6,0.6-0.6,1.5,0,2.1c0,0,0,0,0,0c0.3,0.3,0.7,0.4,1.1,0.4c0.4,0,0.8-0.2,1.1-0.4l2.6-2.6v19.4c0,0.8,0.7,1.5,1.5,1.5
	s1.5-0.7,1.5-1.5V11.8l2.6,2.6c0.6,0.6,1.6,0.5,2.1-0.1C45.1,13.8,45.1,12.9,44.6,12.3z"/>
<path class="st0" d="M8.4,35.1c-2.6,0-4.6,1-4.6,2.2s2,2.2,4.5,2.2s4.7-1,4.7-2.2S10.9,35,8.4,35.1z"/>
<path class="st0" d="M9.4,7.2C9.3,7,9.2,6.9,9,6.8l0,0c-0.4-0.1-0.7-0.1-1.1,0l0,0C7.7,6.9,7.6,7,7.4,7.2l-5.2,5.1
	c-0.6,0.6-0.6,1.5,0,2.1c0,0,0,0,0,0c0.3,0.3,0.7,0.4,1.1,0.4c0.4,0,0.8-0.2,1.1-0.4l2.6-2.6v19.4c0,0.8,0.7,1.5,1.5,1.5
	s1.5-0.7,1.5-1.5V11.8l2.6,2.6c0.6,0.6,1.6,0.5,2.1-0.1c0.5-0.6,0.5-1.5,0-2L9.4,7.2z"/>
</svg>
