<?xml version="1.0" encoding="utf-8"?>
<!-- Generator: Adobe Illustrator 24.0.1, SVG Export Plug-In . SVG Version: 6.00 Build 0)  -->
<svg version="1.1" id="PICTOS_vectos" xmlns="http://www.w3.org/2000/svg" xmlns:xlink="http://www.w3.org/1999/xlink" x="0px"
	 y="0px" viewBox="0 0 46.1 46.1" style="enable-background:new 0 0 46.1 46.1;" xml:space="preserve">
<style type="text/css">
	.st0{fill:#25465F;}
</style>
<path class="st0" d="M32.5,15.6c0.1,0,0.3,0,0.4,0.1c0.1,0,0.3,0,0.4-0.1l0.1-0.1l0.2-0.1l0.1-0.1l0.1-0.1c0.1-0.1,0.2-0.2,0.3-0.3
	V15c0.1-0.1,0.1-0.3,0.2-0.4l0,0l1.9-7.2c0.2-0.8-0.3-1.6-1.1-1.8c-0.8-0.2-1.6,0.3-1.8,1.1l-1,3.7l-3.6-6.4c-1.1-1.9-3.1-3-5.3-3
	l0,0c-2.2,0-4.2,1.1-5.3,3l-5.5,9.5c-0.5,0.7-0.3,1.6,0.4,2.1c0.7,0.5,1.6,0.3,2.1-0.4c0-0.1,0.1-0.1,0.1-0.2l5.5-9.5
	c0.9-1.5,2.8-2,4.2-1.1c0.5,0.3,0.9,0.7,1.1,1.1l3.7,6.4l-3.7-1c-0.8-0.2-1.6,0.3-1.8,1.1c-0.2,0.8,0.3,1.6,1.1,1.8
	C25.3,13.7,32.5,15.6,32.5,15.6z"/>
<path class="st0" d="M44,30.4l-5.5-9.5c-0.4-0.7-1.3-1-2-0.5s-1,1.3-0.5,2l5.5,9.5c0.9,1.5,0.3,3.4-1.1,4.2c-0.5,0.3-1,0.4-1.5,0.4
	h-7.4l2.7-2.7c0.5-0.6,0.5-1.6-0.1-2.1c-0.6-0.5-1.4-0.5-2,0L26.7,37c-0.1,0.1-0.1,0.1-0.2,0.2v0.1c0,0.1-0.1,0.1-0.1,0.2
	c0,0,0,0.1,0,0.1c0,0.1,0,0.1-0.1,0.2c0,0.1,0,0.2,0,0.3c0,0.1,0,0.2,0,0.3c0,0.1,0,0.1,0.1,0.2c0,0,0,0.1,0,0.1
	c0,0.1,0.1,0.1,0.1,0.2l0,0.1c0.1,0.1,0.1,0.2,0.2,0.2l5.3,5.3c0.3,0.3,0.7,0.4,1.1,0.4c0.8,0,1.5-0.7,1.5-1.5
	c0-0.4-0.2-0.8-0.4-1.1l-2.7-2.7h7.4c3.4,0,6.1-2.8,6.1-6.2C44.8,32.3,44.5,31.3,44,30.4z"/>
<path class="st0" d="M19.2,36.6h-11c-1.7,0-3.1-1.4-3.1-3.1c0-0.5,0.1-1.1,0.4-1.5l3.7-6.4l1,3.7c0.2,0.7,0.8,1.1,1.4,1.1
	c0.1,0,0.3,0,0.4,0c0.8-0.2,1.3-1,1.1-1.8l-1.9-7.2c0,0,0-0.1,0-0.1c0-0.1-0.1-0.1-0.1-0.2c0-0.1-0.1-0.1-0.1-0.2l-0.1-0.1
	c0-0.1-0.1-0.1-0.1-0.1l-0.1-0.1c-0.1-0.1-0.2-0.1-0.2-0.2l0,0c0,0-0.1,0-0.1,0l-0.2-0.1H9.9H9.9H9.6H9.3H9.3l-7.2,1.8
	c-0.8,0.1-1.4,0.9-1.3,1.7c0.1,0.8,0.9,1.4,1.7,1.3c0.1,0,0.3-0.1,0.4-0.1l3.7-1l-3.7,6.4c-1.7,2.9-0.7,6.7,2.2,8.3
	c0.9,0.5,2,0.8,3,0.8h11c0.8,0,1.5-0.7,1.5-1.5S20,36.6,19.2,36.6L19.2,36.6z"/>
</svg>
