<?xml version="1.0" encoding="utf-8"?>
<!-- Generator: Adobe Illustrator 24.0.1, SVG Export Plug-In . SVG Version: 6.00 Build 0)  -->
<svg version="1.1" id="PICTOS_vectos" xmlns="http://www.w3.org/2000/svg" xmlns:xlink="http://www.w3.org/1999/xlink" x="0px"
	 y="0px" viewBox="0 0 46.1 46.1" style="enable-background:new 0 0 46.1 46.1;" xml:space="preserve">
<style type="text/css">
	.st0{fill:#25465F;}
</style>
<path class="st0" d="M39.2,4.2h-0.6c-0.8,0-1.5,0.7-1.5,1.5s0.7,1.5,1.5,1.5h0.6c0.7,0,1.3,0.6,1.3,1.3v6.7H6V8.5
	c0-0.7,0.6-1.3,1.3-1.3h0.8c0.8,0,1.5-0.7,1.5-1.5S8.9,4.2,8.1,4.2H7.3C4.9,4.2,3,6.1,3,8.5v32.2C3,43.1,4.9,45,7.3,45c0,0,0,0,0,0
	h31.9c2.4,0,4.3-1.9,4.3-4.3V8.5C43.5,6.1,41.6,4.2,39.2,4.2z M39.2,42H7.3C6.6,42,6,41.4,6,40.7v0V18.1h34.5v22.5
	C40.6,41.4,40,42,39.2,42C39.2,42,39.2,42,39.2,42L39.2,42z"/>
<path class="st0" d="M17.5,7.2h11.8c0.8,0,1.5-0.7,1.5-1.5s-0.7-1.5-1.5-1.5H17.5c-0.8,0-1.5,0.7-1.5,1.5S16.6,7.2,17.5,7.2z"/>
<path class="st0" d="M12.8,10.3c1.2,0,2.2-2.1,2.2-4.7S14.1,1,12.8,1s-2.2,2.1-2.2,4.6S11.5,10.3,12.8,10.3z"/>
<path class="st0" d="M33.9,10.3c1.2,0,2.2-2.1,2.2-4.7S35.2,1,34,1s-2.2,2.1-2.2,4.6S32.7,10.3,33.9,10.3z"/>
<path class="st0" d="M17.5,29.1c1.2-0.3,2-1.5,2-2.7c0-2.1-1.7-3.4-4.3-3.4s-4.4,1.3-4.7,3.6l2.4,0.5c0.1-1.1,1-1.9,2.1-1.9
	c0,0,0.1,0,0.1,0c1.2,0,1.9,0.6,1.9,1.6s-0.6,1.5-1.9,1.5h-1.2v2.2h1.4c1.3,0,1.9,0.7,1.9,1.7s-0.7,1.6-2.2,1.6
	c-1.1,0.1-2.2-0.7-2.3-1.8c0-0.1,0-0.1,0-0.2l-2.6,0.5c0.4,2.4,2,3.7,4.9,3.7s4.8-1.2,4.8-3.7C19.9,30.6,18.9,29.4,17.5,29.1z"/>
<path class="st0" d="M25.5,22.9c-3.2,0-5.1,2.3-5.1,6.4s1.9,6.4,5.1,6.4s5.1-2.3,5.1-6.4S28.7,22.9,25.5,22.9z M25.5,33.5
	c-1.5,0-2.4-1-2.4-4.2s0.9-4.2,2.4-4.2s2.5,1,2.5,4.2S27,33.5,25.5,33.5z"/>
<path class="st0" d="M33.7,36.1c0.1,0.4-0.2,0.7-0.6,0.7c0,0-0.1,0-0.1,0h-0.6V39h1.3c1.2,0.1,2.3-0.7,2.4-1.9c0-0.2,0-0.3,0-0.5
	V25.8h-2.5V36.1z"/>
<path class="st0" d="M34.9,22.2c-0.8,0-1.5,0.6-1.5,1.4c0,0,0,0.1,0,0.1c0,0.8,0.6,1.5,1.4,1.5c0,0,0,0,0.1,0c0.8,0,1.5-0.6,1.5-1.4
	c0,0,0,0,0-0.1C36.4,22.9,35.8,22.2,34.9,22.2C34.9,22.2,34.9,22.2,34.9,22.2z"/>
</svg>
