<?xml version="1.0" encoding="utf-8"?>
<!-- Generator: Adobe Illustrator 24.0.1, SVG Export Plug-In . SVG Version: 6.00 Build 0)  -->
<svg version="1.1" id="PICTOS_vectos" xmlns="http://www.w3.org/2000/svg" xmlns:xlink="http://www.w3.org/1999/xlink" x="0px"
	 y="0px" viewBox="0 0 46.1 46.1" style="enable-background:new 0 0 46.1 46.1;" xml:space="preserve">
<style type="text/css">
	.st0{fill:#25465F;}
</style>
<path class="st0" d="M15.9,25.8h5.9c-2.2,2.9-3.5,6.3-4,9.9h3.3c0.2-3.7,1.6-7.2,3.9-10.1v-2.4h-9.1V25.8z"/>
<path class="st0" d="M27.5,36c0,0.5-0.2,0.7-0.7,0.7h-0.6v2.5h1.5c1.3,0.1,2.5-0.8,2.6-2.1c0-0.2,0-0.4,0-0.5V25.8h-2.8V36z"/>
<path class="st0" d="M29,22.1c-0.9,0-1.6,0.7-1.6,1.6c0,0.9,0.7,1.6,1.6,1.6c0,0,0,0,0,0c0.9,0,1.6-0.7,1.6-1.6
	C30.6,22.8,29.9,22.1,29,22.1C29,22.1,29,22.1,29,22.1z"/>
<path class="st0" d="M39.2,4.2h-0.6c-0.8,0-1.5,0.7-1.5,1.5s0.7,1.5,1.5,1.5h0.6c0.7,0,1.3,0.6,1.3,1.3v6.7H6V8.5
	c0-0.7,0.6-1.3,1.3-1.3h0.8c0.8,0,1.5-0.7,1.5-1.5S8.9,4.2,8.1,4.2H7.3C4.9,4.2,3,6.1,3,8.5v32.2C3,43.1,4.9,45,7.3,45c0,0,0,0,0,0
	h31.9c2.4,0,4.3-1.9,4.3-4.3V8.5C43.5,6.1,41.6,4.2,39.2,4.2z M39.2,42H7.3C6.6,42,6,41.4,6,40.7v0V18.1h34.5v22.5
	C40.6,41.4,40,42,39.2,42C39.2,42,39.2,42,39.2,42L39.2,42z"/>
<path class="st0" d="M17.5,7.2h11.8c0.8,0,1.5-0.7,1.5-1.5s-0.7-1.5-1.5-1.5H17.5c-0.8,0-1.5,0.7-1.5,1.5S16.6,7.2,17.5,7.2z"/>
<path class="st0" d="M12.8,10.3c1.2,0,2.2-2.1,2.2-4.7S14.1,1,12.8,1s-2.2,2.1-2.3,4.6S11.5,10.3,12.8,10.3z"/>
<path class="st0" d="M33.9,10.3c1.2,0,2.2-2.1,2.2-4.7S35.2,1,34,1s-2.2,2.1-2.2,4.6S32.7,10.3,33.9,10.3z"/>
</svg>
