<?xml version="1.0" encoding="utf-8"?>
<!-- Generator: Adobe Illustrator 24.0.1, SVG Export Plug-In . SVG Version: 6.00 Build 0)  -->
<svg version="1.1" id="PICTOS_vectos" xmlns="http://www.w3.org/2000/svg" xmlns:xlink="http://www.w3.org/1999/xlink" x="0px"
	 y="0px" viewBox="0 0 46.1 46.1" style="enable-background:new 0 0 46.1 46.1;" xml:space="preserve">
<style type="text/css">
	.st0{fill:#25465F;}
</style>
<path class="st0" d="M39.2,4.2h-0.6c-0.8,0-1.5,0.7-1.5,1.5s0.7,1.5,1.5,1.5h0.6c0.7,0,1.3,0.6,1.3,1.3v6.7H6V8.5
	c0-0.7,0.6-1.3,1.3-1.3h0.8c0.8,0,1.5-0.7,1.5-1.5S8.9,4.2,8.1,4.2H7.3C4.9,4.2,3,6.1,3,8.5v32.2C3,43.1,4.9,45,7.3,45c0,0,0,0,0,0
	h31.9c2.4,0,4.3-1.9,4.3-4.3V8.5C43.5,6.1,41.6,4.2,39.2,4.2z M39.2,42H7.3C6.6,42,6,41.4,6,40.7v0V18.1h34.5v22.5
	C40.6,41.4,40,42,39.2,42C39.2,42,39.2,42,39.2,42L39.2,42z"/>
<path class="st0" d="M17.5,7.2h11.8c0.8,0,1.5-0.7,1.5-1.5s-0.7-1.5-1.5-1.5H17.5c-0.8,0-1.5,0.7-1.5,1.5S16.6,7.2,17.5,7.2z"/>
<path class="st0" d="M12.8,10.3c1.2,0,2.2-2.1,2.2-4.7S14.1,1,12.8,1s-2.2,2.1-2.2,4.6S11.5,10.3,12.8,10.3z"/>
<path class="st0" d="M33.9,10.3c1.2,0,2.2-2.1,2.2-4.7S35.2,1,34,1s-2.2,2.1-2.2,4.6S32.7,10.3,33.9,10.3z"/>
<path class="st0" d="M12,25.4v1.8h2.5v8.3h2.6V23.1H15C14.7,24.5,13.4,25.5,12,25.4z"/>
<path class="st0" d="M27.8,23.1h-3.2L19,31.1v2h6.2v2.5h2.6v-2.5h1.5V31h-1.5V23.1z M25.2,31h-3.7l3.7-5.2V31z"/>
<path class="st0" d="M33,22.2c-0.8,0-1.5,0.6-1.5,1.4c0,0,0,0.1,0,0.1c0,0.8,0.6,1.5,1.5,1.6c0.8,0,1.5-0.6,1.6-1.5
	C34.6,22.9,33.9,22.2,33,22.2C33,22.2,33,22.2,33,22.2z"/>
<path class="st0" d="M31.8,36.1c0.1,0.4-0.2,0.7-0.6,0.7c0,0-0.1,0-0.1,0h-0.6V39h1.3c1.2,0.1,2.3-0.7,2.4-1.9c0-0.2,0-0.3,0-0.5
	V25.8h-2.5V36.1z"/>
</svg>
