<svg id="PICTOS_vectos" xmlns="http://www.w3.org/2000/svg" viewBox="0 0 46 46"><defs><style>.cls-1{fill:#25465f;}</style></defs><path class="cls-1" d="M23,34.81c-2.56,0-4.65,1-4.65,2.2s2.13,2.23,4.7,2.25,4.58-1,4.58-2.19S25.58,34.83,23,34.81Z"/><path class="cls-1" d="M31,10.53H6.12L8.85,7.8A1.5,1.5,0,0,0,6.73,5.68L1.44,11a1.63,1.63,0,0,0-.33.49v0a1.41,1.41,0,0,0,0,1.09v0a1.56,1.56,0,0,0,.33.5l5.29,5.29a1.51,1.51,0,0,0,1.06.44,1.5,1.5,0,0,0,1.06-2.56L6.12,13.53H31a11,11,0,0,1,0,22,1.5,1.5,0,0,0,0,3,14,14,0,0,0,0-28Z"/></svg>