<?xml version="1.0" encoding="utf-8"?>
<!-- Generator: Adobe Illustrator 24.0.1, SVG Export Plug-In . SVG Version: 6.00 Build 0)  -->
<svg version="1.1" id="PICTOS_vectos" xmlns="http://www.w3.org/2000/svg" xmlns:xlink="http://www.w3.org/1999/xlink" x="0px"
	 y="0px" viewBox="0 0 46 46" style="enable-background:new 0 0 46 46;" xml:space="preserve">
<style type="text/css">
	.st0{fill:#25465F;}
</style>
<path class="st0" d="M39,9.8c-0.8-5.6-6.1-9.5-11.7-8.6c-2.7,0.4-5.2,1.9-6.8,4.1c-0.8-0.2-1.6-0.3-2.4-0.3c-3.8,0-7.2,2.4-8.6,5.9
	c-5.1,0.4-8.9,4.9-8.5,10c0.4,4.9,4.5,8.6,9.3,8.6H18c0.8,0,1.5-0.7,1.5-1.5s-0.7-1.5-1.5-1.5h-7.7c-3.5-0.1-6.2-3.1-6.1-6.6
	c0.1-3.3,2.8-5.9,6.1-6.1h0.2c0.7,0,1.4-0.4,1.5-1.1c0.7-2.8,3.2-4.7,6.1-4.7c0.8,0,1.7,0.2,2.5,0.5c0.7,0.3,1.5,0,1.9-0.7
	c1.9-3.5,6.4-4.8,9.9-2.9c2.2,1.2,3.6,3.5,3.8,6c0,0.6,0.4,1.1,1,1.3c3.8,1.3,5.8,5.4,4.5,9.2c-1,2.9-3.8,4.9-6.9,4.9H23
	c-0.8,0-1.5,0.7-1.5,1.5v6.3l-0.9-0.9c-0.6-0.6-1.5-0.6-2.1-0.1c-0.6,0.6-0.6,1.5-0.1,2.1c0,0,0,0.1,0.1,0.1l3.4,3.4
	c0.1,0.1,0.3,0.2,0.5,0.3l0,0c0.4,0.1,0.7,0.1,1.1,0l0,0c0.2-0.1,0.4-0.2,0.5-0.3l3.4-3.4c0.6-0.6,0.6-1.5,0.1-2.1s-1.5-0.6-2.1-0.1
	c0,0-0.1,0-0.1,0.1l-0.9,0.9v-4.8h10.2c5.7,0,10.3-4.6,10.3-10.3C45,15.1,42.6,11.5,39,9.8z"/>
<path class="st0" d="M18.4,14.3c1-0.1,1.8,0.7,1.8,1.6c0,0,0,0,0,0l2.4-0.5c-0.3-2.1-2.2-3.5-4.3-3.4c-2.8,0-4.6,2-4.6,5.3
	s1.6,5.3,4.6,5.3c2.5,0,3.9-1.1,4.4-3.3l-2.4-0.5c-0.1,1-0.9,1.8-1.9,1.7c0,0-0.1,0-0.1,0c-1.4,0-2.1-0.9-2.1-3.2S17,14.3,18.4,14.3
	z"/>
<path class="st0" d="M32.8,17.4c0-3.5-1.8-5.3-4.8-5.3s-4.9,1.9-4.9,5.3s1.9,5.3,4.9,5.3S32.8,20.9,32.8,17.4z M25.7,17.4
	c0-2.3,0.8-3.2,2.3-3.2s2.3,0.9,2.3,3.2s-0.8,3.2-2.3,3.2S25.7,19.7,25.7,17.4z"/>
<path class="st0" d="M36.3,20.4c0.9-0.3,1.5-1.1,1.5-2c0-1.2-0.8-1.9-2.2-1.9c-1.2-0.1-2.2,0.7-2.3,1.9c0,0,0,0,0,0l1.4,0.2
	c0-0.6,0.4-0.9,0.9-0.9c0.4-0.1,0.7,0.2,0.8,0.6c0,0.1,0,0.1,0,0.2c0,0.7-0.6,0.9-1.5,1.3c-0.9,0.3-1.5,1.2-1.5,2.1v0.8h4.4v-1.2
	h-2.8C35,20.9,35.6,20.7,36.3,20.4z"/>
<path class="st0" d="M23,40.5c-2.6,0-4.6,0.9-4.6,2.1s2,2.3,4.6,2.3s4.7-0.9,4.7-2.2S25.5,40.6,23,40.5z"/>
</svg>
