<?xml version="1.0" encoding="utf-8"?>
<!-- Generator: Adobe Illustrator 24.0.1, SVG Export Plug-In . SVG Version: 6.00 Build 0)  -->
<svg version="1.1" id="PICTOS_vectos" xmlns="http://www.w3.org/2000/svg" xmlns:xlink="http://www.w3.org/1999/xlink" x="0px"
	 y="0px" viewBox="0 0 46.1 46.1" style="enable-background:new 0 0 46.1 46.1;" xml:space="preserve">
<style type="text/css">
	.st0{fill:#25465F;}
</style>
<path class="st0" d="M30.7,1.2H15.4c-1.9,0-3.5,1.6-3.5,3.5v37.1c0,1.9,1.6,3.5,3.5,3.5h15.3c1.9,0,3.5-1.6,3.5-3.5V4.7
	C34.2,2.8,32.6,1.2,30.7,1.2z M31.2,41.8c0,0.3-0.2,0.5-0.5,0.5H15.4c-0.3,0-0.5-0.2-0.5-0.5V4.7c0-0.3,0.2-0.5,0.5-0.5h15.3
	c0.3,0,0.5,0.2,0.5,0.5V41.8z"/>
<path class="st0" d="M23.1,10.4c2.5,0,4.4-0.9,4.4-2.1s-2-2.1-4.4-2.2s-4.5,0.9-4.5,2.1C18.6,9.4,20.6,10.4,23.1,10.4z"/>
<path class="st0" d="M18.7,28.4h-1.3c-0.8,0-1.5,0.7-1.5,1.5s0.7,1.5,1.5,1.5h1.3c0.8,0,1.5-0.7,1.5-1.5S19.5,28.4,18.7,28.4z"/>
<path class="st0" d="M23.7,28.4h-1.3c-0.8,0-1.5,0.7-1.5,1.5s0.7,1.5,1.5,1.5h1.3c0.8,0,1.5-0.7,1.5-1.5S24.5,28.4,23.7,28.4z"/>
<path class="st0" d="M28.7,28.4h-1.3c-0.8,0-1.5,0.7-1.5,1.5s0.7,1.5,1.5,1.5h1.3c0.8,0,1.5-0.7,1.5-1.5S29.5,28.4,28.7,28.4z"/>
<path class="st0" d="M18.7,33.3h-1.3c-0.8,0-1.5,0.7-1.5,1.5s0.7,1.5,1.5,1.5h1.3c0.8,0,1.5-0.7,1.5-1.5S19.5,33.3,18.7,33.3z"/>
<path class="st0" d="M23.7,33.3h-1.3c-0.8,0-1.5,0.7-1.5,1.5s0.7,1.5,1.5,1.5h1.3c0.8,0,1.5-0.7,1.5-1.5S24.5,33.3,23.7,33.3z"/>
<path class="st0" d="M28.7,33.3h-1.3c-0.8,0-1.5,0.7-1.5,1.5s0.7,1.5,1.5,1.5h1.3c0.8,0,1.5-0.7,1.5-1.5S29.5,33.3,28.7,33.3z"/>
<path class="st0" d="M18.7,38.3h-1.3c-0.8,0-1.5,0.7-1.5,1.5s0.7,1.5,1.5,1.5h1.3c0.8,0,1.5-0.7,1.5-1.5S19.5,38.3,18.7,38.3z"/>
<path class="st0" d="M23.7,38.3h-1.3c-0.8,0-1.5,0.7-1.5,1.5s0.7,1.5,1.5,1.5h1.3c0.8,0,1.5-0.7,1.5-1.5S24.5,38.3,23.7,38.3z"/>
<path class="st0" d="M28.7,38.3h-1.3c-0.8,0-1.5,0.7-1.5,1.5s0.7,1.5,1.5,1.5h1.3c0.8,0,1.5-0.7,1.5-1.5S29.5,38.3,28.7,38.3z"/>
<path class="st0" d="M23.3,23.7c3.1,0,5.6-2.5,5.6-5.6s-2.5-5.6-5.6-5.6s-5.6,2.5-5.6,5.6l0,0C17.6,21.2,20.2,23.7,23.3,23.7z
	 M23.3,15.5c1.4,0,2.6,1.2,2.6,2.6c0,1.4-1.2,2.6-2.6,2.6c-1.4,0-2.6-1.2-2.6-2.6c0,0,0,0,0,0C20.6,16.6,21.8,15.5,23.3,15.5
	C23.3,15.5,23.3,15.5,23.3,15.5z"/>
<path class="st0" d="M17.4,26.4c0.2,0,0.4,0,0.6-0.1c0.2-0.1,0.4-0.2,0.5-0.3c0.1-0.1,0.3-0.3,0.3-0.5c0.1-0.2,0.1-0.4,0.1-0.6
	c0-0.4-0.2-0.8-0.4-1.1c-0.1-0.1-0.1-0.1-0.2-0.2L18,23.5c-0.1,0-0.2-0.1-0.3-0.1c-0.3-0.1-0.6,0-0.9,0.1c-0.1,0-0.2,0.1-0.2,0.1
	c-0.1,0.1-0.2,0.1-0.2,0.2c-0.3,0.3-0.4,0.7-0.4,1.1c0,0.4,0.2,0.8,0.4,1.1C16.6,26.3,17,26.4,17.4,26.4z"/>
<path class="st0" d="M27.6,23.9c-0.3,0.3-0.4,0.7-0.4,1.1c0,0.8,0.7,1.5,1.5,1.5c0.4,0,0.8-0.2,1.1-0.4c0.3-0.3,0.4-0.7,0.4-1.1
	c0-0.4-0.2-0.8-0.4-1.1c-0.1-0.1-0.1-0.1-0.2-0.2c-0.1-0.1-0.2-0.1-0.2-0.1c-0.1,0-0.2-0.1-0.3-0.1C28.5,23.4,28,23.5,27.6,23.9z"/>
</svg>
