<svg id="PICTOS_vectos" xmlns="http://www.w3.org/2000/svg" viewBox="0 0 46 46"><defs><style>.cls-1{fill:#25465f;}</style></defs><path class="cls-1" d="M29.59,27.15c-1.23,0-2.24,2.07-2.26,4.63s1,4.65,2.2,4.66,2.23-2.14,2.25-4.7S30.82,27.16,29.59,27.15Z"/><path class="cls-1" d="M44.83,13.78a11.4,11.4,0,0,0-22.78-.52l-4,5.62L6.87,3.05a1.49,1.49,0,0,0-2.09-.36,1.51,1.51,0,0,0-.36,2.09L15.14,20H4.65a3.48,3.48,0,0,0-3.48,3.48V40.14a3.48,3.48,0,0,0,3.48,3.48H33.42a3.48,3.48,0,0,0,3.48-3.48V24.64A11.41,11.41,0,0,0,44.83,13.78ZM23.86,20H21l1.73-2.42A11.54,11.54,0,0,0,23.86,20Zm10,20.17a.49.49,0,0,1-.48.48H4.65a.49.49,0,0,1-.48-.48V23.45A.49.49,0,0,1,4.65,23h22a11.31,11.31,0,0,0,6.73,2.22c.16,0,.32,0,.47,0Zm-.47-17.95a8.41,8.41,0,1,1,8.4-8.41A8.42,8.42,0,0,1,33.43,22.19Z"/><path class="cls-1" d="M39.68,9.2a1.49,1.49,0,0,0-2.12,0l-6,6L29.3,12.92A1.5,1.5,0,0,0,27.18,15l3.33,3.33a1.48,1.48,0,0,0,1.06.43,1.5,1.5,0,0,0,1.06-.43l7-7A1.51,1.51,0,0,0,39.68,9.2Z"/></svg>