<?xml version="1.0" encoding="utf-8"?>
<!-- Generator: Adobe Illustrator 24.0.1, SVG Export Plug-In . SVG Version: 6.00 Build 0)  -->
<svg version="1.1" id="PICTOS_vectos" xmlns="http://www.w3.org/2000/svg" xmlns:xlink="http://www.w3.org/1999/xlink" x="0px"
	 y="0px" viewBox="0 0 46 46" style="enable-background:new 0 0 46 46;" xml:space="preserve">
<style type="text/css">
	.st0{fill:#25465F;}
</style>
<path class="st0" d="M39.2,21.3v-17c0-0.7-0.5-1.4-1.3-1.5L26.7,1.1c-0.4-0.1-0.9,0.1-1.2,0.4C25.2,1.7,25,2.1,25,2.6v13.2
	c-0.2,0-0.3,0-0.5,0c-1.9,0-3.5,1.6-3.5,3.6c0,1.9,1.6,3.5,3.6,3.5c1.7,0,3.2-1.3,3.4-3c0-0.1,0.1-0.3,0.1-0.4V10l8.2,1.2V18
	c-0.2,0-0.4,0-0.5,0c-1.9,0-3.5,1.6-3.5,3.5c0,1.9,1.6,3.5,3.5,3.5c1.9,0,3.5-1.6,3.5-3.5c0,0,0,0,0,0
	C39.2,21.4,39.2,21.4,39.2,21.3z M28,8.5V4.3l8.2,1.2v4.2L28,8.5z"/>
<path class="st0" d="M19.9,15.5h-5.1c-0.4,0-0.8,0.3-0.8,0.8c0,0.4,0.3,0.8,0.8,0.8h5.1c0.4,0,0.8-0.3,0.8-0.8
	C20.7,15.9,20.4,15.5,19.9,15.5z"/>
<path class="st0" d="M12.8,37c0,1.2,2.1,2.2,4.7,2.2s4.6-1,4.6-2.2s-2-2.3-4.6-2.3S12.8,35.7,12.8,37z"/>
<path class="st0" d="M26.5,23.4c-0.8,0-1.5,0.7-1.5,1.5c0,0,0,0,0,0v16.2c0,0.5-0.4,0.8-0.8,0.8H10.6c-0.5,0-0.8-0.4-0.8-0.8l0,0
	V14.4c0-0.5,0.4-0.8,0.8-0.8c0,0,0,0,0,0h12.1c0.8,0,1.5-0.7,1.5-1.5s-0.7-1.5-1.5-1.5H10.6c-2.1,0-3.8,1.7-3.8,3.8v26.7
	c0,2.1,1.7,3.8,3.8,3.8l0,0h13.6c2.1,0,3.8-1.7,3.8-3.8V24.9C28,24.1,27.3,23.4,26.5,23.4z"/>
</svg>
