<?xml version="1.0" encoding="utf-8"?>
<!-- Generator: Adobe Illustrator 24.0.1, SVG Export Plug-In . SVG Version: 6.00 Build 0)  -->
<svg version="1.1" id="PICTOS_vectos" xmlns="http://www.w3.org/2000/svg" xmlns:xlink="http://www.w3.org/1999/xlink" x="0px"
	 y="0px" viewBox="0 0 46.1 46.1" style="enable-background:new 0 0 46.1 46.1;" xml:space="preserve">
<style type="text/css">
	.st0{fill:#25465F;}
</style>
<path class="st0" d="M18.5,15.3c0.6-0.2,1-0.7,1-1.4c0-1.1-0.9-1.7-2.2-1.7c-1.2-0.1-2.2,0.7-2.4,1.8l1.4,0.3c0-0.5,0.5-0.9,1-0.8
	c0,0,0,0,0,0c0.5,0,0.8,0.3,0.8,0.7s-0.3,0.7-0.8,0.7h-0.6V16h0.6c0.5,0,0.8,0.3,0.8,0.7s-0.3,0.7-1,0.7c-0.5,0.1-1-0.3-1-0.8
	c0,0,0-0.1,0-0.1l-1.4,0.3c0.2,1.3,1,1.9,2.5,1.9s2.4-0.6,2.4-1.9C19.7,16.1,19.2,15.5,18.5,15.3z"/>
<path class="st0" d="M23.1,18.7c1.5,0,2.4-0.8,2.4-2.1c0.1-1.1-0.7-2-1.8-2.1c-0.1,0-0.2,0-0.3,0c-0.6,0-1.1,0.2-1.5,0.6V15
	c0-1,0.4-1.6,1.2-1.6c0.4-0.1,0.8,0.2,0.9,0.6l1.4-0.3c-0.2-1-1.2-1.7-2.3-1.6c-1.7,0-2.6,1.2-2.6,3.2S21.3,18.7,23.1,18.7z
	 M23.1,15.6c0.5,0,0.9,0.3,1,0.8c0,0.1,0,0.1,0,0.2c-0.2,0.5-0.7,0.8-1.3,0.6c-0.3-0.1-0.5-0.3-0.6-0.6c-0.1-0.5,0.3-0.9,0.7-1
	C22.9,15.6,23,15.6,23.1,15.6L23.1,15.6z"/>
<path class="st0" d="M31.4,15.5c0-2.1-1-3.2-2.6-3.2s-2.6,1.2-2.6,3.2s1,3.2,2.6,3.2S31.4,17.5,31.4,15.5z M28.8,17.5
	c-0.7,0-1.1-0.4-1.1-2s0.4-1.9,1.1-1.9s1.1,0.4,1.1,1.9S29.5,17.4,28.8,17.5L28.8,17.5z"/>
<path class="st0" d="M21.1,29.7c-1.5,2.1-1.8,4.3-0.8,5s3-0.4,4.5-2.5c1.5-2.1,1.8-4.4,0.8-5.1S22.6,27.6,21.1,29.7z"/>
<path class="st0" d="M15.2,28.3c-1.2-0.2-2.3-0.4-3.3-0.7S9.9,27,9,26.7c-0.8-0.3-1.6-0.6-2.3-1c-0.6-0.3-1.1-0.7-1.6-1.1
	c-0.3-0.3-0.6-0.6-0.9-1c-0.3-0.5-0.3-1.2,0-1.7c0.2-0.4,0.5-0.7,0.9-1c0.5-0.5,1-0.9,1.6-1.2c0.7-0.4,1.5-0.7,2.3-1
	c0.9-0.4,1.9-0.6,2.9-0.9c0.8-0.2,1.3-1,1.1-1.8c-0.2-0.8-1-1.3-1.8-1.1l0,0c-1.1,0.3-2.2,0.6-3.2,1C7,16.1,6.1,16.5,5.2,17
	c-0.8,0.4-1.5,0.9-2.2,1.5C2.5,19,2,19.6,1.6,20.3c-0.8,1.4-0.8,3.1,0,4.5c0.4,0.7,0.9,1.3,1.5,1.9c0.7,0.6,1.4,1.1,2.2,1.5
	C6.1,28.7,7,29.1,8,29.4c1,0.4,2.1,0.7,3.2,1c1.1,0.3,2.4,0.5,3.6,0.7c0.1,0,0.2,0,0.2,0c0.8,0.1,1.6-0.6,1.6-1.4
	S16.1,28.2,15.2,28.3L15.2,28.3z"/>
<path class="st0" d="M44.5,20.3c-0.4-0.7-0.9-1.3-1.5-1.9c-0.7-0.6-1.4-1.1-2.2-1.5c-0.9-0.5-1.8-0.9-2.7-1.2l0.8-0.5
	c0.7-0.4,0.9-1.4,0.5-2.1c-0.4-0.7-1.4-0.9-2.1-0.5l-3.6,2.2c0,0,0,0-0.1,0c-0.1,0.1-0.2,0.2-0.3,0.3c0,0.1-0.1,0.1-0.1,0.2
	l-0.1,0.2c0,0.1-0.1,0.2-0.1,0.4c0,0.1,0,0.1,0,0.2c0,0.1,0,0.2,0,0.3l0.1,0.2c0,0,0,0.1,0,0.1l2,4c0.3,0.5,0.8,0.8,1.3,0.8
	c0.2,0,0.5-0.1,0.7-0.2c0.7-0.4,1-1.3,0.7-2l-0.4-0.8c0.6,0.2,1.3,0.5,1.9,0.9c0.6,0.3,1.2,0.7,1.7,1.1c0.4,0.3,0.6,0.7,0.9,1.1
	c0.3,0.5,0.3,1.2,0,1.7c-0.2,0.4-0.5,0.8-0.9,1c-0.5,0.4-1,0.8-1.6,1.1c-0.8,0.4-1.6,0.8-2.4,1c-0.9,0.3-1.8,0.6-2.9,0.9
	s-2.2,0.5-3.3,0.7c-0.8,0.1-1.4,0.8-1.4,1.6s0.8,1.4,1.6,1.4c0.1,0,0.2,0,0.2,0c1.3-0.2,2.5-0.4,3.6-0.7c1.1-0.3,2.2-0.6,3.2-1
	c0.9-0.3,1.9-0.7,2.8-1.2c0.8-0.4,1.5-1,2.2-1.6c0.6-0.5,1.1-1.2,1.5-1.9C45.3,23.4,45.3,21.7,44.5,20.3L44.5,20.3z"/>
</svg>
