<svg id="PICTOS_vectos" xmlns="http://www.w3.org/2000/svg" viewBox="0 0 46 46"><defs><style>.cls-1{fill:#25465f;}</style></defs><path class="cls-1" d="M42.31,11.2,34.8,3.69a3.51,3.51,0,0,0-4.95,0L3.69,29.85a3.48,3.48,0,0,0-1,2.48,3.44,3.44,0,0,0,1,2.47l7.51,7.51a3.5,3.5,0,0,0,4.94,0L42.31,16.15a3.48,3.48,0,0,0,1-2.48A3.44,3.44,0,0,0,42.31,11.2ZM40.19,14,14,40.19a.5.5,0,0,1-.7,0L5.81,32.68a.51.51,0,0,1,0-.7l1.77-1.77,1.06,1.06a1.51,1.51,0,0,0,1.06.44,1.5,1.5,0,0,0,1.06-2.56L9.7,28.09l1.42-1.42,1.06,1.06a1.45,1.45,0,0,0,1.06.44,1.47,1.47,0,0,0,1.06-.44,1.51,1.51,0,0,0,0-2.12l-1.06-1.06,1.41-1.41,1.06,1.06a1.53,1.53,0,0,0,1.06.44,1.5,1.5,0,0,0,1.06-2.56L16.77,21l1.42-1.42,1.06,1.06a1.5,1.5,0,0,0,2.12,0,1.49,1.49,0,0,0,0-2.12l-1.06-1.06,1.41-1.41,3.18,3.18a1.51,1.51,0,0,0,2.13,0,1.51,1.51,0,0,0,0-2.12l-3.19-3.19,1.42-1.41,1.06,1.06a1.5,1.5,0,0,0,2.12,0,1.49,1.49,0,0,0,0-2.12l-1.06-1.06L28.79,9l1.06,1.07A1.51,1.51,0,0,0,32,7.93L30.91,6.87,32,5.81a.51.51,0,0,1,.7,0l7.51,7.51a.51.51,0,0,1,0,.7Z"/><path class="cls-1" d="M13.75,31.07c-1.83,1.8-2.6,4-1.74,4.85s3.09.06,4.92-1.74,2.55-3.91,1.69-4.79S15.57,29.27,13.75,31.07Z"/></svg>