<?xml version="1.0" encoding="utf-8"?>
<!-- Generator: Adobe Illustrator 24.0.1, SVG Export Plug-In . SVG Version: 6.00 Build 0)  -->
<svg version="1.1" id="PICTOS_vectos" xmlns="http://www.w3.org/2000/svg" xmlns:xlink="http://www.w3.org/1999/xlink" x="0px"
	 y="0px" viewBox="0 0 46 46" style="enable-background:new 0 0 46 46;" xml:space="preserve">
<style type="text/css">
	.st0{fill:#25465F;}
</style>
<path class="st0" d="M12.2,21.8c-2.2-1.3-4.5-1.5-5.2-0.4s0.8,3,3,4.3s4.4,1.4,5.1,0.4S14.4,23,12.2,21.8z"/>
<path class="st0" d="M40.4,20.7l4-5.9c1.2-1.7,0.7-4-1-5.2l-7.3-5c-0.7-0.5-1.6-0.3-2.1,0.3c-0.5,0.7-0.3,1.6,0.3,2.1
	c0,0,0.1,0,0.1,0.1l7.3,5c0.2,0.1,0.3,0.3,0.3,0.5c0,0.2,0,0.4-0.1,0.6l-4.2,6.1c-1.3-0.5-2.7-0.8-4.1-0.8h-0.1V6.7
	c0-2.1-1.7-3.7-3.7-3.7h-8.8c-0.8,0-1.5,0.7-1.5,1.5S20.1,6,20.9,6h8.8c0.4,0,0.7,0.3,0.7,0.7v12.1c-0.9,0.3-1.8,0.6-2.6,1.1L20.3,7
	c-1-1.8-3.3-2.4-5.1-1.4L7.6,10c-0.7,0.4-1.1,1.3-0.7,2s1.3,1.1,2,0.7c0.1,0,0.1-0.1,0.2-0.1l7.6-4.4c0.4-0.2,0.8-0.1,1,0.3
	l7.7,13.4c-0.3,0.4-0.6,0.7-0.9,1.1l-14.4-8.4c-1.8-1-4.1-0.5-5.1,1.3c0,0,0,0,0,0l-3.5,6.1c-1,1.8-0.4,4.1,1.4,5.1l19.1,11
	c0.6,0.3,1.2,0.5,1.9,0.5c0.3,0,0.7,0,1-0.1c0.4-0.1,0.7-0.3,1-0.5c4.6,4.3,11.8,4.1,16.1-0.4s4.1-11.8-0.4-16.1
	C41.1,21.3,40.8,21,40.4,20.7z M23.4,35.7l-19.1-11C4.2,24.6,4,24.4,4,24.2c0-0.2,0-0.4,0.1-0.6l3.5-6.1c0.2-0.4,0.6-0.5,1-0.3
	c0,0,0,0,0,0L23,25.6c-1.4,3.3-1.1,7.1,0.8,10.2C23.7,35.8,23.6,35.7,23.4,35.7L23.4,35.7z M33.6,38.3c-2.5,0-4.8-1.1-6.4-3
	c-0.1-0.2-0.2-0.3-0.3-0.4c-1.9-2.6-2.2-6-0.7-8.9c0.1-0.1,0.1-0.2,0.2-0.2c0.1-0.1,0.1-0.2,0.1-0.3c2.4-3.9,7.6-5.2,11.6-2.7
	s5.2,7.6,2.7,11.6C39.2,36.8,36.5,38.3,33.6,38.3L33.6,38.3z"/>
<path class="st0" d="M35.1,23.8c0-0.8-0.7-1.5-1.5-1.5s-1.5,0.7-1.5,1.5v4.5h-4.5c-0.8,0-1.5,0.7-1.5,1.5s0.7,1.5,1.5,1.5l0,0h4.5
	v4.5c0,0.8,0.7,1.5,1.5,1.5s1.5-0.7,1.5-1.5v-4.5h4.5c0.8,0,1.5-0.7,1.5-1.5s-0.7-1.5-1.5-1.5h-4.5V23.8z"/>
</svg>
