<?xml version="1.0" encoding="utf-8"?>
<!-- Generator: Adobe Illustrator 24.0.1, SVG Export Plug-In . SVG Version: 6.00 Build 0)  -->
<svg version="1.1" id="PICTOS_vectos" xmlns="http://www.w3.org/2000/svg" xmlns:xlink="http://www.w3.org/1999/xlink" x="0px"
	 y="0px" viewBox="0 0 46 46" style="enable-background:new 0 0 46 46;" xml:space="preserve">
<style type="text/css">
	.st0{fill:#25465F;}
</style>
<path class="st0" d="M12.2,22.7c-2.2-1.3-4.5-1.5-5.2-0.4s0.8,3,3,4.3s4.5,1.4,5.1,0.4S14.4,24,12.2,22.7z"/>
<path class="st0" d="M43,24.3c-0.7-1-1.6-1.9-2.6-2.6l4-5.9c1.2-1.7,0.7-4-1-5.2l-7.3-5c-0.7-0.5-1.6-0.3-2.1,0.3S33.7,7.5,34.4,8
	c0,0,0.1,0,0.1,0.1l7.3,5c0.2,0.1,0.3,0.3,0.3,0.5c0,0.2,0,0.4-0.1,0.6l-4.1,6.1c-0.7-0.3-1.4-0.5-2.1-0.6c-0.7-0.1-1.4-0.2-2.2-0.2
	V7.7c0-2.1-1.7-3.7-3.7-3.7h-8.8c-0.8,0-1.5,0.7-1.5,1.5S20.1,7,20.9,7h8.8c0.4,0,0.7,0.3,0.7,0.7v12.2c-0.9,0.3-1.8,0.6-2.6,1.1
	L20.3,8c-1-1.8-3.3-2.4-5.1-1.4c0,0,0,0,0,0L7.6,11c-0.7,0.4-1,1.3-0.5,2c0.4,0.7,1.3,1,2,0.6l7.6-4.4c0.2-0.1,0.4-0.1,0.6-0.1
	c0.2,0,0.3,0.2,0.4,0.3l7.7,13.4c-0.3,0.3-0.6,0.7-0.9,1.1l-14.4-8.4C8.3,14.6,6,15.2,5,17c0,0,0,0,0,0l-3.5,6.1
	c-1,1.8-0.4,4.1,1.4,5.1l19.1,11c0.6,0.3,1.2,0.5,1.9,0.5c0.3,0,0.7,0,1-0.1c0.4-0.1,0.7-0.3,1.1-0.5c4.7,4.2,11.9,3.9,16.1-0.8
	C45.5,34.4,45.9,28.6,43,24.3z M23.4,36.6l-19.1-11c-0.3-0.2-0.5-0.6-0.3-1l3.5-6.1c0.2-0.3,0.6-0.5,1-0.3l14.4,8.3
	c-1.4,3.3-1,7.1,0.8,10.2C23.7,36.8,23.6,36.7,23.4,36.6z M41.9,32.3c-0.8,4.6-5.2,7.6-9.7,6.8c-2-0.3-3.8-1.4-5-2.9
	C27.1,36,27,36,26.9,35.9c-0.1-0.1-0.1-0.2-0.2-0.2c-1.8-2.6-2-6.1-0.5-8.9l0-0.1v-0.1c0.6-1,1.5-2,2.5-2.6c1.4-1,3.1-1.5,4.8-1.5
	c0.5,0,1,0,1.5,0.1c2.2,0.4,4.1,1.6,5.4,3.4l0,0C41.8,27.8,42.3,30.1,41.9,32.3z"/>
<path class="st0" d="M39.4,29.3h-1c-0.1-0.3-0.2-0.6-0.3-0.8l0.7-0.7c0.6-0.6,0.6-1.5,0-2.1c-0.6-0.6-1.5-0.6-2.1,0L36,26.4
	c-0.3-0.1-0.5-0.2-0.8-0.3v-1c0-0.8-0.7-1.5-1.5-1.5s-1.5,0.7-1.5,1.5v1c-0.3,0.1-0.6,0.2-0.8,0.3l-0.7-0.7c-0.6-0.6-1.5-0.6-2.1,0
	c-0.6,0.6-0.6,1.5,0,2.1c0,0,0,0,0,0l0.7,0.7c-0.1,0.3-0.3,0.5-0.4,0.8h-1c-0.8,0-1.5,0.7-1.5,1.5s0.7,1.5,1.5,1.5h1
	c0.1,0.3,0.2,0.6,0.4,0.8l-0.7,0.7c-0.6,0.6-0.6,1.5,0,2.1c0,0,0,0,0,0c0.3,0.3,0.7,0.4,1.1,0.4c0.4,0,0.8-0.1,1-0.4l0.7-0.7
	c0.3,0.1,0.5,0.3,0.8,0.3v1c0,0.8,0.7,1.5,1.5,1.5s1.5-0.7,1.5-1.5v-1c0.3-0.1,0.6-0.2,0.8-0.4l0.7,0.7c0.6,0.6,1.5,0.6,2.1,0
	c0.6-0.6,0.6-1.5,0-2.1l-0.7-0.7c0.1-0.3,0.3-0.5,0.3-0.8h1c0.8,0,1.5-0.7,1.5-1.5S40.3,29.3,39.4,29.3L39.4,29.3z M35.7,31.2
	c-0.2,1.1-1.2,1.8-2.3,1.7c0,0-0.1,0-0.1,0c-0.5-0.1-1-0.4-1.3-0.9c-0.3-0.4-0.4-1-0.3-1.5c0.2-1,1-1.7,2-1.7c0.1,0,0.2,0,0.4,0
	c0.5,0.1,1,0.4,1.3,0.8l0,0C35.6,30.1,35.8,30.6,35.7,31.2z"/>
</svg>
