<?xml version="1.0" encoding="utf-8"?>
<!-- Generator: Adobe Illustrator 24.0.1, SVG Export Plug-In . SVG Version: 6.00 Build 0)  -->
<svg version="1.1" id="PICTOS_vectos" xmlns="http://www.w3.org/2000/svg" xmlns:xlink="http://www.w3.org/1999/xlink" x="0px"
	 y="0px" viewBox="0 0 46 46" style="enable-background:new 0 0 46 46;" xml:space="preserve">
<style type="text/css">
	.st0{fill:#25465F;}
</style>
<path class="st0" d="M12.2,22.7c-2.2-1.3-4.5-1.5-5.2-0.4s0.8,3,3,4.3s4.4,1.4,5.1,0.4S14.4,24,12.2,22.7z"/>
<path class="st0" d="M40.4,21.6l4-5.9c1.2-1.7,0.7-4-1-5.2l-7.3-5c-0.7-0.4-1.6-0.2-2.1,0.5c-0.4,0.6-0.2,1.5,0.4,1.9l7.3,5
	c0.2,0.1,0.3,0.3,0.3,0.5c0,0.2,0,0.4-0.1,0.6l-4.2,6.1c-1.3-0.5-2.7-0.8-4.1-0.8h-0.2V7.7c0-2.1-1.7-3.7-3.7-3.7h-8.8
	c-0.8,0-1.5,0.7-1.5,1.5s0.7,1.5,1.5,1.5h8.8c0.4,0,0.7,0.3,0.7,0.7v12.2c-0.9,0.3-1.8,0.6-2.6,1.1l-7.5-13c-1-1.8-3.3-2.4-5.1-1.4
	L7.6,11c-0.7,0.4-1.1,1.3-0.7,2s1.3,1.1,2,0.7c0.1,0,0.1-0.1,0.2-0.1l7.6-4.4c0.2-0.1,0.4-0.1,0.6-0.1c0.2,0,0.4,0.2,0.5,0.3
	l7.7,13.4c-0.3,0.3-0.6,0.7-0.9,1.1l-14.4-8.3c-1.8-1-4.1-0.5-5.1,1.3c0,0,0,0,0,0l-3.5,6.1c-1,1.8-0.4,4.1,1.4,5.1l19.1,11
	c0.6,0.3,1.2,0.5,1.9,0.5c0.3,0,0.7,0,1-0.1c0.4-0.1,0.7-0.3,1-0.5c4.6,4.3,11.8,4,16.1-0.6s4-11.8-0.6-16.1
	C41,22.1,40.7,21.8,40.4,21.6z M23.4,36.6l-19.1-11c-0.2-0.1-0.3-0.3-0.4-0.5c-0.1-0.2,0-0.4,0.1-0.6l3.5-6.1c0.2-0.4,0.6-0.5,1-0.3
	c0,0,0,0,0,0L23,26.5c-1.4,3.3-1.1,7.1,0.8,10.2C23.7,36.7,23.6,36.7,23.4,36.6L23.4,36.6z M33.6,39.2c-2.5,0-4.9-1.1-6.5-3
	c-0.1-0.1-0.2-0.2-0.2-0.3c-2-2.6-2.3-6.1-0.7-9c0-0.1,0.1-0.1,0.1-0.2c0-0.1,0.1-0.1,0.1-0.2c2.4-4,7.5-5.3,11.5-2.9
	s5.3,7.5,2.9,11.5C39.3,37.7,36.6,39.2,33.6,39.2L33.6,39.2z"/>
<rect x="32.5" y="24.9" class="st0" width="2.5" height="7.7"/>
<circle class="st0" cx="33.8" cy="35.1" r="1.6"/>
</svg>
