<?xml version="1.0" encoding="utf-8"?>
<!-- Generator: Adobe Illustrator 24.0.1, SVG Export Plug-In . SVG Version: 6.00 Build 0)  -->
<svg version="1.1" id="PICTOS_vectos" xmlns="http://www.w3.org/2000/svg" xmlns:xlink="http://www.w3.org/1999/xlink" x="0px"
	 y="0px" viewBox="0 0 46 46" style="enable-background:new 0 0 46 46;" xml:space="preserve">
<style type="text/css">
	.st0{fill:#25465F;}
</style>
<path class="st0" d="M12.1,23.9c-2.2-1.3-4.5-1.5-5.1-0.4s0.8,3,3,4.3s4.4,1.4,5,0.3S14.3,25.2,12.1,23.9z"/>
<path class="st0" d="M43.4,11.8l-7.3-5c-0.7-0.5-1.6-0.3-2.1,0.3s-0.3,1.6,0.3,2.1c0,0,0.1,0,0.1,0.1l7.3,5c0.3,0.2,0.4,0.7,0.2,1
	L33.8,27c-0.5,0.7-0.3,1.6,0.4,2.1c0,0,0,0,0,0c0.2,0.2,0.5,0.3,0.8,0.3c0.5,0,1-0.2,1.2-0.6L44.4,17C45.5,15.3,45.1,12.9,43.4,11.8
	z"/>
<path class="st0" d="M29.7,5.2h-8.8c-0.8,0-1.5,0.7-1.5,1.5s0.7,1.5,1.5,1.5h8.8c0.4,0,0.7,0.3,0.7,0.7v17.3c0,0.8,0.7,1.5,1.5,1.5
	c0.8,0,1.5-0.7,1.5-1.5V8.9C33.5,6.8,31.8,5.2,29.7,5.2z"/>
<path class="st0" d="M9.1,14.8l7.6-4.4c0.2-0.1,0.4-0.1,0.6-0.1c0.2,0,0.3,0.2,0.4,0.3l8.7,15c0.3,0.5,0.8,0.8,1.3,0.8
	c0.3,0,0.5-0.1,0.8-0.2c0.7-0.4,1-1.3,0.6-2.1c0,0,0,0,0,0l-8.7-15c-1-1.8-3.3-2.4-5.1-1.4l-7.6,4.4c-0.7,0.4-1,1.3-0.6,2.1
	S8.4,15.2,9.1,14.8L9.1,14.8z"/>
<path class="st0" d="M29.2,27.8l-19.1-11c-1.8-1-4.1-0.4-5.1,1.3c0,0,0,0,0,0l-3.5,6.1c-1,1.8-0.4,4.1,1.4,5.1l19.1,11
	c1.8,1,4,0.4,5.1-1.4l3.5-6.1C31.6,31.1,31,28.9,29.2,27.8C29.2,27.8,29.2,27.8,29.2,27.8L29.2,27.8z M28,31.4L28,31.4l-3.5,6.1
	c-0.2,0.4-0.6,0.5-1,0.3c0,0,0,0,0,0l-19.1-11c-0.3-0.2-0.5-0.6-0.3-1l3.5-6.1c0.1-0.2,0.3-0.3,0.4-0.3c0.1,0,0.1,0,0.2,0
	c0.1,0,0.3,0,0.4,0.1l19.1,11c0.2,0.1,0.3,0.3,0.3,0.5C28.1,31.1,28.1,31.3,28,31.4z"/>
</svg>
