<svg id="PICTOS_vectos" xmlns="http://www.w3.org/2000/svg" viewBox="0 0 46 46"><defs><style>.cls-1{fill:#25465f;}</style></defs><path class="cls-1" d="M8.34,9.55a1.46,1.46,0,0,0-1,.73,1.14,1.14,0,0,0-.31.23A20.15,20.15,0,0,0,35.49,39a1.36,1.36,0,0,0,.25-.34,1.45,1.45,0,0,0,.72-1c0-.37,1.16-9.18-9-19.34S8.69,9.48,8.34,9.55Zm.78,27.33a17.18,17.18,0,0,1-2.31-21.4c.67,3.6,2.73,9.17,8.78,15.22s11.28,7.92,14.82,8.55A17.18,17.18,0,0,1,9.12,36.88Zm9.81-7.14a8.86,8.86,0,0,0,1.93-1.45c1.83-1.81,2.55-3.92,1.69-4.79s-3-.13-4.87,1.68A8.52,8.52,0,0,0,16.24,27c-6.11-6.84-6.71-12.67-6.72-14.58,2-.08,8.26.39,15.81,7.94s8.17,14,8.18,16.13C31.62,36.59,25.92,36.16,18.93,29.74Z"/><path class="cls-1" d="M29.22,1.11a1.5,1.5,0,0,0-.28,3,14.31,14.31,0,0,1,13,13.25,1.51,1.51,0,0,0,1.5,1.39h.11a1.5,1.5,0,0,0,1.39-1.6A17.3,17.3,0,0,0,29.22,1.11Z"/><path class="cls-1" d="M29.29,6.46a1.5,1.5,0,1,0-.42,3,9.05,9.05,0,0,1,7.73,8,1.5,1.5,0,0,0,1.49,1.34h.17a1.5,1.5,0,0,0,1.32-1.66A12,12,0,0,0,29.29,6.46Z"/></svg>