<?xml version="1.0" encoding="utf-8"?>
<!-- Generator: Adobe Illustrator 24.0.1, SVG Export Plug-In . SVG Version: 6.00 Build 0)  -->
<svg version="1.1" id="PICTOS_vectos" xmlns="http://www.w3.org/2000/svg" xmlns:xlink="http://www.w3.org/1999/xlink" x="0px"
	 y="0px" viewBox="0 0 46 46" style="enable-background:new 0 0 46 46;" xml:space="preserve">
<style type="text/css">
	.st0{fill:#25465F;}
</style>
<path class="st0" d="M23,20.8c-2.6,0-4.6,1-4.6,2.2s2.1,2.2,4.7,2.2s4.6-1,4.6-2.2S25.6,20.8,23,20.8z"/>
<path class="st0" d="M15,4H5.5C4.7,4,4,4.7,4,5.5V15c0,0.8,0.7,1.5,1.5,1.5S7,15.8,7,15l0,0V7h8c0.8,0,1.5-0.7,1.5-1.5S15.8,4,15,4
	L15,4z"/>
<path class="st0" d="M40.5,4H31c-0.8,0-1.5,0.7-1.5,1.5S30.2,7,31,7l0,0h8v8c0,0.8,0.7,1.5,1.5,1.5S42,15.8,42,15l0,0V5.5
	C42,4.7,41.3,4,40.5,4z"/>
<path class="st0" d="M40.5,29.5c-0.8,0-1.5,0.7-1.5,1.5l0,0v8h-8c-0.8,0-1.5,0.7-1.5,1.5S30.2,42,31,42l0,0h9.5
	c0.8,0,1.5-0.7,1.5-1.5V31C42,30.2,41.3,29.5,40.5,29.5L40.5,29.5z"/>
<path class="st0" d="M15,39H7v-8c0-0.8-0.7-1.5-1.5-1.5S4,30.2,4,31l0,0v9.5C4,41.3,4.7,42,5.5,42H15c0.8,0,1.5-0.7,1.5-1.5
	S15.8,39,15,39L15,39z"/>
</svg>
