<?xml version="1.0" encoding="utf-8"?>
<!-- Generator: Adobe Illustrator 24.0.1, SVG Export Plug-In . SVG Version: 6.00 Build 0)  -->
<svg version="1.1" id="PICTOS_vectos" xmlns="http://www.w3.org/2000/svg" xmlns:xlink="http://www.w3.org/1999/xlink" x="0px"
	 y="0px" viewBox="0 0 46 46" style="enable-background:new 0 0 46 46;" xml:space="preserve">
<style type="text/css">
	.st0{fill:#25465F;}
</style>
<path class="st0" d="M40.5,1H9.8C8.4,1,7.1,1.8,6.6,3.1l-4.3,9.8C2.1,13.4,2,13.8,2,14.3v27.2C2,43.4,3.6,45,5.5,45h35
	c1.9,0,3.5-1.6,3.5-3.5v-37C44,2.5,42.4,1,40.5,1z M41,41.5c0,0.3-0.2,0.5-0.5,0.5h-35C5.2,42,5,41.7,5,41.5V14.3c0-0.1,0-0.1,0-0.2
	l4.4-9.8l0,0C9.4,4.1,9.6,4,9.8,4h30.7C40.8,4,41,4.2,41,4.5V41.5z"/>
<path class="st0" d="M26.7,34.1l-1-0.2c-1.1-0.2-1.6-0.4-1.7-1.1c0-0.7,0.6-1.1,1.6-1.1c0.9-0.1,1.6,0.5,1.8,1.4c0,0,0,0,0,0
	l2.1-0.5c-0.4-1.7-1.7-2.7-3.8-2.7c-2.4,0-3.8,1.2-3.8,3c0,1.8,1,2.5,2.9,2.8l1.1,0.2c1.2,0.2,1.6,0.5,1.6,1.3s-0.6,1.2-1.7,1.2
	c-1,0.1-1.9-0.5-2.1-1.5c0,0,0,0,0-0.1l-2.1,0.5c0.5,2.2,1.9,2.9,4.2,2.9s3.9-1.1,3.9-3.1C29.7,35.4,28.7,34.5,26.7,34.1z"/>
<path class="st0" d="M34.5,30h-3.9v10h3.9c2.8,0,4.5-1.7,4.5-5S37.3,30,34.5,30z M34.4,38h-1.7v-6.2h1.7c1.5,0,2.4,0.9,2.4,3.1
	S36,38.1,34.4,38L34.4,38z"/>
<path class="st0" d="M36.9,6.1c-1.2,0-2.2,2.1-2.2,4.7s1,4.6,2.2,4.6s2.2-2.1,2.3-4.6S38.1,6.1,36.9,6.1z"/>
<path class="st0" d="M16.5,6.3c-0.8,0-1.5,0.7-1.5,1.5c0,0,0,0,0,0v5.9c0,0.8,0.7,1.5,1.5,1.5c0.8,0,1.5-0.7,1.5-1.5V7.8
	C18,7,17.3,6.3,16.5,6.3z"/>
<path class="st0" d="M23,13.7V7.8c0-0.8-0.7-1.5-1.5-1.5S20,7,20,7.8v5.9c0,0.8,0.7,1.5,1.5,1.5S23,14.6,23,13.7z"/>
<path class="st0" d="M26.5,15.2c0.8,0,1.5-0.7,1.5-1.5V7.8c0-0.8-0.7-1.5-1.5-1.5S25,7,25,7.8v5.9C25,14.6,25.7,15.2,26.5,15.2z"/>
<path class="st0" d="M33,13.7V7.8c0-0.8-0.7-1.5-1.5-1.5S30,7,30,7.8v5.9c0,0.8,0.7,1.5,1.5,1.5S33,14.6,33,13.7z"/>
<path class="st0" d="M11.5,9.3c-0.8,0-1.5,0.7-1.5,1.5v2.9c0,0.8,0.7,1.5,1.5,1.5s1.5-0.7,1.5-1.5v-2.9C13,10,12.4,9.3,11.5,9.3z"/>
</svg>
