<?xml version="1.0" encoding="utf-8"?>
<!-- Generator: Adobe Illustrator 24.0.1, SVG Export Plug-In . SVG Version: 6.00 Build 0)  -->
<svg version="1.1" id="PICTOS_vectos" xmlns="http://www.w3.org/2000/svg" xmlns:xlink="http://www.w3.org/1999/xlink" x="0px"
	 y="0px" viewBox="0 0 46.1 46.1" style="enable-background:new 0 0 46.1 46.1;" xml:space="preserve">
<style type="text/css">
	.st0{fill:#25465F;}
</style>
<path class="st0" d="M41.4,42.6l-11-15.7c6.2-5.3,6.9-14.6,1.6-20.7C27,0.3,18.5-0.7,12.3,3.7C5.6,8.3,4,17.5,8.7,24.1
	c2.8,3.9,7.3,6.3,12.1,6.3c2.5,0,5-0.6,7.1-1.9l11,15.8c0.3,0.4,0.7,0.6,1.2,0.6c0.8,0,1.5-0.7,1.5-1.5
	C41.6,43.1,41.5,42.8,41.4,42.6L41.4,42.6z M18.7,27.2C12.3,26.1,8.1,20,9.2,13.7s7.2-10.6,13.6-9.5s10.6,7.2,9.5,13.6
	c-0.5,3.1-2.3,5.8-4.8,7.5C24.9,27.1,21.7,27.8,18.7,27.2z"/>
<path class="st0" d="M13.2,10.5c-1.5,2.1-1.8,4.3-0.8,5c1,0.7,3-0.4,4.5-2.6s1.8-4.4,0.8-5.1C16.7,7.1,14.7,8.4,13.2,10.5z"/>
</svg>
