<svg id="PICTOS_vectos" xmlns="http://www.w3.org/2000/svg" viewBox="0 0 46 46"><defs><style>.cls-1{fill:#25465f;}</style></defs><path class="cls-1" d="M41,27.83h-.35c4.14-6.22,5-12.17,2.45-17.69C39.56,2.4,32.93,2.31,32.64,2.31h0A13.42,13.42,0,0,0,22.51,6.93,13.44,13.44,0,0,0,12.38,2.31h0c-.3,0-6.93.09-10.46,7.83s-.42,16.35,8.9,25.14c2.6,2.45,5.42,4.95,8.82,6.33a7,7,0,0,0,2.26.68,1.59,1.59,0,0,0,.38.06h.45a1.59,1.59,0,0,0,.38-.06,6.88,6.88,0,0,0,2.26-.68,19.9,19.9,0,0,0,4.26-2.43h0a4.51,4.51,0,0,0,4.5,4.5h1.63a4.51,4.51,0,0,0,4.5-4.5v-.73H41a4.5,4.5,0,0,0,4.5-4.5V32.33A4.5,4.5,0,0,0,41,27.83Zm-16.81,11-.19.09a3.81,3.81,0,0,1-1.48.4A4.14,4.14,0,0,1,21,39a1.24,1.24,0,0,0-.2-.1c-2.95-1.17-5.55-3.48-7.95-5.75C4.46,25.16,1.7,17.86,4.65,11.38c2.71-5.93,7.53-6.07,7.73-6.07a10.64,10.64,0,0,1,8.83,4.85,1.49,1.49,0,0,0,1.29.74h0a1.51,1.51,0,0,0,1.29-.73,10.63,10.63,0,0,1,8.83-4.86c.2,0,5,.14,7.73,6.07,1.82,4,1.44,8.32-1.09,12.93a4.49,4.49,0,0,0-3.51-1.72H34.13a4.51,4.51,0,0,0-4.5,4.5v.74h-.74a4.51,4.51,0,0,0-4.5,4.5V34a4.48,4.48,0,0,0,2,3.75A14.36,14.36,0,0,1,24.18,38.85ZM42.49,34a1.5,1.5,0,0,1-1.5,1.5H37.26v3.73a1.5,1.5,0,0,1-1.5,1.5H34.13a1.5,1.5,0,0,1-1.5-1.5V35.46H28.89a1.5,1.5,0,0,1-1.5-1.5V32.33a1.5,1.5,0,0,1,1.5-1.5h3.74V27.09a1.5,1.5,0,0,1,1.5-1.5h1.63a1.5,1.5,0,0,1,1.5,1.5v3.74H41a1.5,1.5,0,0,1,1.5,1.5Z"/><path class="cls-1" d="M8.85,12.09c-1.46,2.11-1.79,4.31-.78,5s3-.45,4.48-2.56,1.82-4.38.81-5.08S10.31,10,8.85,12.09Z"/></svg>