<?xml version="1.0" encoding="utf-8"?>
<!-- Generator: Adobe Illustrator 24.0.1, SVG Export Plug-In . SVG Version: 6.00 Build 0)  -->
<svg version="1.1" id="PICTOS_vectos" xmlns="http://www.w3.org/2000/svg" xmlns:xlink="http://www.w3.org/1999/xlink" x="0px"
	 y="0px" viewBox="0 0 46.1 46.1" style="enable-background:new 0 0 46.1 46.1;" xml:space="preserve">
<style type="text/css">
	.st0{fill:#25465F;}
</style>
<path class="st0" d="M23.1,23.5c-2.6,0-4.6,1-4.6,2.2s2.1,2.2,4.7,2.2s4.6-1,4.6-2.2S25.6,23.5,23.1,23.5z"/>
<path class="st0" d="M41.2,8.8L24,1.2C23.7,1.1,23.4,1,23,1c0,0-0.1,0-0.1,0c-0.3,0-0.6,0.1-0.9,0.2L4.9,8.8C4,9.2,3.4,10.1,3.4,11
	c0,9.9,2,17.4,6,23.1c3.6,5.2,8.5,8.1,12.4,10.4c0.4,0.2,0.8,0.4,1.3,0.4c0.4,0,0.9-0.1,1.2-0.4c3.9-2.4,8.7-5.3,12.4-10.4
	c4-5.7,6-13.3,6-23.1C42.7,10.1,42.1,9.2,41.2,8.8z M34.2,32.4c-3.2,4.5-7.4,7.1-11.2,9.4c-3.8-2.3-8-4.9-11.2-9.4
	c-3.6-5.1-5.4-12-5.5-21L23,4l16.6,7.4C39.6,20.4,37.8,27.3,34.2,32.4L34.2,32.4z"/>
<path class="st0" d="M16.2,13.1V18c-1.9,0.1-3.4,1.7-3.4,3.7v8.1c0,2,1.7,3.7,3.7,3.7l0,0h13.1c2,0,3.7-1.7,3.7-3.7c0,0,0,0,0,0
	v-8.2c0-1.9-1.5-3.5-3.4-3.6v-4.9c0-3-2.5-5.5-5.5-5.5h-2.6C18.7,7.6,16.2,10.1,16.2,13.1z M30.3,21.6v8.1c0,0.4-0.3,0.7-0.7,0.7h0
	H16.5c-0.4,0-0.7-0.3-0.7-0.7l0,0v-8.1c0-0.4,0.3-0.7,0.7-0.7h13.1C30,20.9,30.3,21.2,30.3,21.6z M26.9,13.1v4.8h-7.6v-4.8
	c0-1.4,1.1-2.5,2.5-2.5h2.6C25.7,10.6,26.9,11.7,26.9,13.1C26.9,13.1,26.9,13.1,26.9,13.1z"/>
</svg>
