<?xml version="1.0" encoding="utf-8"?>
<!-- Generator: Adobe Illustrator 24.0.1, SVG Export Plug-In . SVG Version: 6.00 Build 0)  -->
<svg version="1.1" id="PICTOS_vectos" xmlns="http://www.w3.org/2000/svg" xmlns:xlink="http://www.w3.org/1999/xlink" x="0px"
	 y="0px" viewBox="0 0 46 46" style="enable-background:new 0 0 46 46;" xml:space="preserve">
<style type="text/css">
	.st0{fill:#25465F;}
</style>
<path class="st0" d="M42.6,11c0-0.9-0.6-1.8-1.4-2.2L24,1.3C23.7,1.1,23.3,1,22.9,1c-0.3,0-0.6,0.1-0.9,0.2L4.8,8.9
	C4,9.3,3.4,10.1,3.4,11c0,9.9,2,17.4,6,23.1l0.2,0.3c0.1,0.1,0.2,0.2,0.3,0.3c3.6,4.7,8.1,7.5,11.9,9.8c0.4,0.2,0.8,0.4,1.3,0.3
	c0.4,0,0.9-0.1,1.2-0.4c3.7-2.2,8.3-5.1,11.9-9.8c0.1-0.1,0.2-0.2,0.2-0.3c0.1-0.1,0.2-0.2,0.2-0.3C40.7,28.4,42.6,20.9,42.6,11z
	 M6.4,11.5L23,4.1l16.6,7.4c0,8.1-1.5,14.4-4.4,19.3c-1.4-2.5-3.2-4.6-5.3-6.4c3.1-3.8,2.4-9.4-1.4-12.4s-9.4-2.4-12.4,1.4
	c-2.6,3.2-2.6,7.8,0,11.1c-2.2,1.8-4,4-5.3,6.4C7.9,25.9,6.4,19.5,6.4,11.5z M17.2,18.9c0-3.2,2.6-5.8,5.8-5.8s5.8,2.6,5.8,5.8
	s-2.6,5.8-5.8,5.8C19.8,24.7,17.2,22.1,17.2,18.9z M23,41.9c-3.4-2.1-7.2-4.5-10.3-8.3c1.3-2.8,3.3-5.2,5.7-7.2
	c2.8,1.7,6.4,1.7,9.2,0c2.5,1.9,4.4,4.3,5.8,7.1C30.3,37.4,26.5,39.8,23,41.9L23,41.9z"/>
<path class="st0" d="M23,31c-2.6,0-4.7,1-4.7,2.2c0,1.2,2.1,2.2,4.7,2.3s4.6-1,4.6-2.2S25.6,31,23,31z"/>
</svg>
