<?xml version="1.0" encoding="utf-8"?>
<!-- Generator: Adobe Illustrator 24.0.1, SVG Export Plug-In . SVG Version: 6.00 Build 0)  -->
<svg version="1.1" id="PICTOS_vectos" xmlns="http://www.w3.org/2000/svg" xmlns:xlink="http://www.w3.org/1999/xlink" x="0px"
	 y="0px" viewBox="0 0 46.1 46.1" style="enable-background:new 0 0 46.1 46.1;" xml:space="preserve">
<style type="text/css">
	.st0{fill:#25465F;}
</style>
<path class="st0" d="M20.7,28c2.6,0,4.6-1,4.6-2.2s-2.1-2.2-4.6-2.2s-4.6,1-4.7,2.2S18.1,28,20.7,28z"/>
<path class="st0" d="M45.1,12.4C45.1,6.1,40,1,33.7,1c-2.7,0-5.2,0.9-7.3,2.6c-0.2-0.2-0.4-0.4-0.6-0.5l-4.2-1.9
	c-0.6-0.3-1.4-0.3-2,0L2.4,8.9C1.6,9.3,1,10.1,1,11.1c0,9.8,2,17.4,6,23.1c3.6,5.2,8.5,8.1,12.4,10.4c0.4,0.2,0.8,0.4,1.3,0.4
	c0.4,0,0.9-0.1,1.2-0.4c3.9-2.4,8.7-5.3,12.4-10.4c2.4-3.5,4.1-7.5,4.9-11.8C42.8,20.4,45.1,16.6,45.1,12.4z M14.1,21h12.1
	c0.5,0.5,1.1,0.9,1.7,1.2v7.6c0,0.4-0.3,0.7-0.7,0.7h0H14.1c-0.4,0-0.7-0.3-0.7-0.7l0,0v-8.1C13.4,21.3,13.7,21,14.1,21z M16.8,18
	v-4.8c0-1.4,1.1-2.5,2.5-2.5h3.1c-0.4,2.5,0,5.1,1.3,7.3H16.8z M31.8,32.4c-3.2,4.5-7.4,7.1-11.2,9.4c-3.8-2.3-8-4.9-11.2-9.4
	c-3.6-5.1-5.4-12-5.4-21l16.6-7.4l3.8,1.7C24,6.4,23.6,7,23.3,7.7h-4c-3,0-5.5,2.5-5.5,5.5V18c-1.9,0.1-3.4,1.7-3.4,3.7v8.1
	c0,2,1.7,3.7,3.7,3.7l0,0h13.1c2,0,3.7-1.7,3.7-3.7c0,0,0,0,0,0v-6.3c1.6,0.4,3.3,0.5,4.9,0.2C35,26.8,33.7,29.7,31.8,32.4
	L31.8,32.4z M33.7,20.8c-4.6,0-8.4-3.8-8.4-8.4S29,4,33.7,4s8.4,3.8,8.4,8.4c0,0,0,0,0,0C42.1,17.1,38.3,20.8,33.7,20.8L33.7,20.8z"
	/>
<path class="st0" d="M39.9,7.8c-0.6-0.6-1.5-0.6-2.1,0l-6,6l-2.3-2.3C29,11,28,11,27.4,11.5c-0.6,0.6-0.6,1.5,0,2.1l3.3,3.3
	c0.3,0.3,0.7,0.4,1.1,0.4c0.4,0,0.8-0.2,1.1-0.4l7-7C40.5,9.5,40.6,8.5,39.9,7.8C40,7.9,40,7.8,39.9,7.8z"/>
</svg>
