<?xml version="1.0" encoding="utf-8"?>
<!-- Generator: Adobe Illustrator 24.0.1, SVG Export Plug-In . SVG Version: 6.00 Build 0)  -->
<svg version="1.1" id="PICTOS_vectos" xmlns="http://www.w3.org/2000/svg" xmlns:xlink="http://www.w3.org/1999/xlink" x="0px"
	 y="0px" viewBox="0 0 46 46" style="enable-background:new 0 0 46 46;" xml:space="preserve">
<style type="text/css">
	.st0{fill:#25465F;}
</style>
<path class="st0" d="M41.3,8.9L24.1,1.3c-0.3-0.1-0.7-0.2-1-0.2C23,1,23,1,23,1c-0.3,0-0.6,0.1-0.9,0.2L4.9,8.9
	C4,9.3,3.5,10.1,3.5,11c0,9.8,2,17.4,6,23.1c3.6,5.2,8.5,8.1,12.4,10.4c0.4,0.2,0.8,0.4,1.3,0.4c0.4,0,0.9-0.1,1.3-0.3
	c3.9-2.4,8.7-5.3,12.4-10.4c4-5.7,6-13.3,6-23.1C42.7,10.1,42.2,9.2,41.3,8.9z M34.3,32.4c-3.2,4.5-7.4,7.1-11.2,9.4
	c-3.8-2.3-8-4.9-11.2-9.4c-3.6-5.1-5.4-12-5.4-21l16.6-7.3l16.6,7.4C39.7,20.4,37.9,27.3,34.3,32.4z"/>
<path class="st0" d="M11.9,22C11.9,29,16.4,33,23.2,33c2.1,0,4.2-0.5,6.1-1.5l-0.9-2c-1.6,0.8-3.4,1.2-5.2,1.2
	c-5.5,0-8.9-3.3-8.9-8.8c0-5.7,3.3-9.1,8.9-9.1c5.3,0,8.4,3.1,8.4,8.2c0,2.9-1,4.6-2.6,4.6c-0.5,0.1-0.9-0.3-1-0.7
	c0-0.1,0-0.2,0-0.3V16h-3v1.3c-0.6-1-1.7-1.6-2.9-1.6c-3,0-4.7,2.3-4.7,6.1s1.7,6.2,4.6,6.2c1.4,0.1,2.7-0.7,3.2-2
	c0.4,1.3,1.6,1.9,3.4,1.9c3.3,0,5.5-2.6,5.5-7.1c0-6.2-4.4-10.3-10.9-10.3C16.5,10.6,11.9,15.1,11.9,22z M25.1,22.5
	c0,2-0.8,3.1-2.2,3.1c-1.6,0-2.3-1.5-2.3-4c0-2.2,0.7-3.5,2.3-3.5c1.4,0,2.2,1.1,2.2,2.9V22.5z"/>
</svg>
