<?xml version="1.0" encoding="utf-8"?>
<!-- Generator: Adobe Illustrator 24.0.1, SVG Export Plug-In . SVG Version: 6.00 Build 0)  -->
<svg version="1.1" id="PICTOS_vectos" xmlns="http://www.w3.org/2000/svg" xmlns:xlink="http://www.w3.org/1999/xlink" x="0px"
	 y="0px" viewBox="0 0 46 46" style="enable-background:new 0 0 46 46;" xml:space="preserve">
<style type="text/css">
	.st0{fill:#25465F;}
</style>
<path class="st0" d="M44.5,18.3l-3-4l2.8-4.1c0.8-1.2,0.5-2.8-0.6-3.6c-0.7-0.5-1.5-0.6-2.3-0.3L36.7,8l-3-4
	c-0.8-1.2-2.4-1.4-3.6-0.6c-0.7,0.5-1.1,1.4-1.1,2.3l0.1,5l-4.7,1.6c-1.3,0.5-2,1.9-1.6,3.3c0.3,0.8,0.9,1.4,1.7,1.6l4.8,1.4l0.1,5
	c0,1.1,0.8,2.1,1.9,2.4c0.2,0.1,0.5,0.1,0.7,0.1c0.8,0,1.6-0.4,2.1-1.1l2.8-4.1l4.8,1.4c1.4,0.4,2.8-0.4,3.2-1.7
	C45.1,19.9,45,19,44.5,18.3L44.5,18.3z M36.8,17.7c-0.6-0.2-1.3,0-1.7,0.6l-2.7,3.9l-0.1-4.8c0-0.7-0.4-1.2-1.1-1.4l-4.5-1.4
	l4.5-1.6c0.6-0.2,1-0.8,1-1.4l-0.1-4.8l2.9,3.8c0.4,0.5,1.1,0.7,1.7,0.5l4.5-1.6l-2.7,3.9c-0.4,0.5-0.4,1.2,0,1.8l2.9,3.8L36.8,17.7
	z"/>
<path class="st0" d="M3.5,29c0.3,0,0.6-0.1,0.8-0.2l3.2-2.1c0.7-0.5,0.8-1.4,0.4-2.1c-0.5-0.6-1.3-0.8-2-0.4l-3.2,2.1
	c-0.7,0.5-0.8,1.4-0.3,2.1C2.6,28.8,3,29,3.5,29z"/>
<path class="st0" d="M12.3,23.3c0.3,0,0.6-0.1,0.8-0.2l5.6-3.7c0.7-0.5,0.8-1.4,0.4-2.1c-0.5-0.6-1.3-0.8-2-0.4l-5.6,3.7
	c-0.7,0.4-0.9,1.4-0.4,2.1C11.3,23,11.8,23.3,12.3,23.3z"/>
<path class="st0" d="M27.5,28L19,33.5c-0.7,0.4-0.9,1.4-0.4,2.1c0,0,0,0,0,0c0.3,0.4,0.7,0.7,1.2,0.7c0.3,0,0.6-0.1,0.8-0.2l8.5-5.6
	c0.7-0.5,0.9-1.4,0.4-2.1S28.2,27.5,27.5,28L27.5,28z"/>
<path class="st0" d="M22.1,24.2c-0.5-0.7-1.4-0.9-2.1-0.4L1.7,35.7c-0.7,0.4-0.9,1.4-0.4,2.1c0.3,0.4,0.8,0.7,1.3,0.7
	c0.3,0,0.6-0.1,0.8-0.2l18.3-11.9C22.3,25.9,22.5,24.9,22.1,24.2C22.1,24.2,22.1,24.2,22.1,24.2z"/>
<path class="st0" d="M11.1,37.8c-2.1,1.3-3.4,3.3-2.8,4.3s3,0.8,5.2-0.6s3.4-3.2,2.8-4.3S13.3,36.5,11.1,37.8z"/>
</svg>
