<?xml version="1.0" encoding="utf-8"?>
<!-- Generator: Adobe Illustrator 24.0.1, SVG Export Plug-In . SVG Version: 6.00 Build 0)  -->
<svg version="1.1" id="PICTOS_vectos" xmlns="http://www.w3.org/2000/svg" xmlns:xlink="http://www.w3.org/1999/xlink" x="0px"
	 y="0px" viewBox="0 0 46.1 46.1" style="enable-background:new 0 0 46.1 46.1;" xml:space="preserve">
<style type="text/css">
	.st0{fill:#25465F;}
</style>
<path class="st0" d="M40.9,8.8c-0.4-0.6-0.9-1.2-1.3-1.7C39,6.5,38,6.4,37.4,6.9s-0.7,1.5-0.1,2.1c5.3,6.2,6.1,15,2,22V20
	c0-0.6-0.2-1.1-0.5-1.6l-4.2-6c-0.5-0.8-1.4-1.2-2.3-1.2H16.5c-2.4,0-4.4,2-4.4,4.4l0,0V37C3.6,31.1,1.4,19.4,7.2,10.8
	C8,9.7,8.9,8.6,9.9,7.7v2.5c0,0.8,0.7,1.5,1.5,1.5s1.5-0.7,1.5-1.5V4.5c0-0.8-0.7-1.5-1.5-1.5H5.8C4.9,3,4.3,3.7,4.3,4.5
	S4.9,6,5.8,6h1.5c-8.5,8.6-8.4,22.5,0.2,31c4.1,4.1,9.7,6.3,15.5,6.3c12.1,0,21.9-9.8,21.9-22C44.8,16.9,43.4,12.5,40.9,8.8z
	 M23.3,31c0.8,0,1.5-0.7,1.5-1.5l0,0v-2.4h1.8v2.4c0,0.8,0.7,1.5,1.5,1.5s1.5-0.7,1.5-1.5l0,0v-2.4h1.8v10.5c0,0.2,0.1,0.5,0.2,0.7
	c-0.6,0.3-1.3,0.6-2,0.9v-0.8c0-0.8-0.7-1.5-1.5-1.5s-1.5,0.7-1.5,1.5v1.3c0,0.1,0,0.3,0.1,0.4c-0.7,0.1-1.4,0.2-2.1,0.3
	c0.1-0.2,0.2-0.5,0.2-0.7v-1.3c0-0.8-0.7-1.5-1.5-1.5s-1.5,0.7-1.5,1.5v1.3c0,0.3,0.1,0.5,0.2,0.8c-0.7,0-1.4-0.1-2.1-0.2
	c0.1-0.2,0.1-0.4,0.1-0.5V27.1h1.8v2.4C21.8,30.3,22.4,31,23.3,31C23.3,31,23.3,31,23.3,31z M34.4,36.4V25.6c0-0.8-0.7-1.5-1.5-1.5
	H18.5c-0.8,0-1.5,0.7-1.5,1.5v13.8c-0.6-0.2-1.3-0.5-1.9-0.7c0-0.1,0-0.2,0.1-0.4V15.6c0-0.8,0.6-1.4,1.4-1.4h15.6l4.1,5.8v14.2
	c0,0.2,0,0.3,0.1,0.5C35.7,35.4,35.1,35.9,34.4,36.4z"/>
<path class="st0" d="M21,34c0,1.2,2.1,2.2,4.7,2.2s4.6-1,4.6-2.2s-2.1-2.2-4.6-2.3S21,32.8,21,34z"/>
</svg>
