<?xml version="1.0" encoding="utf-8"?>
<!-- Generator: Adobe Illustrator 24.0.1, SVG Export Plug-In . SVG Version: 6.00 Build 0)  -->
<svg version="1.1" id="PICTOS_vectos" xmlns="http://www.w3.org/2000/svg" xmlns:xlink="http://www.w3.org/1999/xlink" x="0px"
	 y="0px" viewBox="0 0 46.1 46.1" style="enable-background:new 0 0 46.1 46.1;" xml:space="preserve">
<style type="text/css">
	.st0{fill:#25465F;}
</style>
<path class="st0" d="M18.5,29.1c-2.6,0-4.6,1-4.6,2.2c0,1.2,2.1,2.2,4.7,2.2s4.6-1,4.6-2.2C23.1,30.2,21.1,29.1,18.5,29.1z"/>
<path class="st0" d="M25.7,21.4H11.3c-0.8,0-1.5,0.7-1.5,1.5v16c0,0.8,0.7,1.5,1.5,1.5h14.4c0.8,0,1.5-0.7,1.5-1.5v-16
	C27.2,22.1,26.6,21.4,25.7,21.4z M24.2,37.4h-1.8v-1.8c0-0.8-0.7-1.5-1.5-1.5s-1.5,0.7-1.5,1.5v1.8h-1.8v-1.8c0-0.8-0.7-1.5-1.5-1.5
	c-0.8,0-1.5,0.7-1.5,1.5v1.8h-1.8v-13h1.8v2.4c0,0.8,0.7,1.5,1.5,1.5c0.8,0,1.5-0.7,1.5-1.5v-2.4h1.8v2.4c0,0.8,0.7,1.5,1.5,1.5
	c0.8,0,1.5-0.7,1.5-1.5v-2.4h1.8V37.4z"/>
<path class="st0" d="M41.6,9.8c0-0.6-0.2-1.1-0.5-1.6l-4.2-6C36.4,1.4,35.6,1,34.6,1H19c-2.4,0-4.4,2-4.4,4.4l0,0v2.2H9.4
	C7,7.6,5,9.6,5,12c0,0,0,0,0,0v28.6C5,43,7,45,9.4,45h18.3c2.4,0,4.4-1.9,4.4-4.4c0,0,0,0,0,0v-2.2h5.2c2.4,0,4.4-2,4.4-4.4
	c0,0,0,0,0,0L41.6,9.8z M28.6,41.6c-0.3,0.3-0.6,0.4-1,0.4H9.4C8.6,42,8,41.4,8,40.6l0,0V12c0-0.8,0.6-1.4,1.4-1.4l0,0H25l4,5.8
	v20.1c0,0.1,0,0.2,0,0.4c0,0.1,0,0.3,0,0.4v3.3C29,41,28.9,41.3,28.6,41.6L28.6,41.6z M32,17.8h1.8v13h-1.7L32,17.8z M37.3,35.4
	h-5.2v-1.6h3.3c0.8,0,1.5-0.7,1.5-1.5v-16c0-0.8-0.7-1.5-1.5-1.5h-3.8v-0.1l-4.2-6C26.9,8,26,7.5,25.1,7.5h-7.5V5.4
	C17.6,4.6,18.2,4,19,4c0,0,0,0,0,0h15.5l4.1,5.8V34C38.6,34.8,38,35.4,37.3,35.4C37.3,35.4,37.3,35.4,37.3,35.4z"/>
</svg>
