<?xml version="1.0" encoding="utf-8"?>
<!-- Generator: Adobe Illustrator 24.0.1, SVG Export Plug-In . SVG Version: 6.00 Build 0)  -->
<svg version="1.1" id="PICTOS_vectos" xmlns="http://www.w3.org/2000/svg" xmlns:xlink="http://www.w3.org/1999/xlink" x="0px"
	 y="0px" viewBox="0 0 46.1 46.1" style="enable-background:new 0 0 46.1 46.1;" xml:space="preserve">
<style type="text/css">
	.st0{fill:#25465F;}
</style>
<path class="st0" d="M38.9,11.2c0-0.6-0.2-1.2-0.5-1.7l-4.8-7.1C33,1.5,32,1,31,1H12.9C10.2,1,8,3.2,8,5.9v34.1
	c0,2.7,2.2,4.9,4.8,4.9h21.2c1.3,0,2.5-0.5,3.5-1.5c0.9-0.9,1.4-2.2,1.4-3.5L38.9,11.2z M35.4,41.5C35,41.8,34.6,42,34.1,42H12.9
	c-1,0-1.9-0.9-1.8-1.9V5.9c0-1,0.8-1.9,1.8-1.9h18.2l4.9,7.2v28.9C35.9,40.6,35.7,41.1,35.4,41.5z"/>
<path class="st0" d="M31.8,17.5H15.1c-0.8,0-1.5,0.7-1.5,1.5c0,0,0,0,0,0v19c0,0.8,0.7,1.5,1.5,1.5l0,0h16.7c0.8,0,1.5-0.7,1.5-1.5
	V19C33.3,18.2,32.7,17.5,31.8,17.5C31.8,17.5,31.8,17.5,31.8,17.5z M30.3,36.5h-2.6V34c0-0.8-0.7-1.5-1.5-1.5s-1.5,0.7-1.5,1.5v2.5
	h-2.6V34c0-0.8-0.7-1.5-1.5-1.5c-0.8,0-1.5,0.7-1.5,1.5v2.5h-2.6v-16h2.6V23c0,0.8,0.7,1.5,1.5,1.5c0.8,0,1.5-0.7,1.5-1.5v-2.5h2.6
	V23c0,0.8,0.7,1.5,1.5,1.5s1.5-0.7,1.5-1.5v-2.5h2.6V36.5z"/>
<path class="st0" d="M23.5,26.3c-2.6,0-4.6,1-4.6,2.2s2.1,2.2,4.7,2.2s4.6-1,4.6-2.2S26,26.3,23.5,26.3z"/>
</svg>
