<?xml version="1.0" encoding="utf-8"?>
<!-- Generator: Adobe Illustrator 24.0.1, SVG Export Plug-In . SVG Version: 6.00 Build 0)  -->
<svg version="1.1" id="PICTOS_vectos" xmlns="http://www.w3.org/2000/svg" xmlns:xlink="http://www.w3.org/1999/xlink" x="0px"
	 y="0px" viewBox="0 0 46.1 46.1" style="enable-background:new 0 0 46.1 46.1;" xml:space="preserve">
<style type="text/css">
	.st0{fill:#25465F;}
</style>
<path class="st0" d="M22.1,31.3c0-1.2-2.1-2.2-4.6-2.2s-4.6,1-4.7,2.2s2.1,2.2,4.7,2.2S22.1,32.5,22.1,31.3z"/>
<path class="st0" d="M33.6,16.9c-2.6,0-4.6,1-4.7,2.2s2.1,2.2,4.7,2.2s4.6-1,4.6-2.2S36.2,16.9,33.6,16.9z"/>
<path class="st0" d="M40.1,11.3H29.5V6.5C29.5,5.1,30.6,4,32,4c0,0,0,0,0,0h2.6c1.4,0,2.5,1.1,2.5,2.5c0,0.8,0.7,1.5,1.5,1.5
	s1.5-0.7,1.5-1.5c0-3-2.5-5.5-5.5-5.5c0,0,0,0,0,0H32c-3,0-5.5,2.5-5.5,5.5v2.4l-0.1-0.2C25.9,8,25,7.5,24.1,7.5H8.4
	C6,7.5,4,9.5,4,11.9v28.6c0,2.4,2,4.4,4.4,4.4h18.3c2.4,0,4.4-2,4.4-4.4V26.8h9c2,0,3.7-1.7,3.7-3.7c0,0,0,0,0,0V15
	C43.8,13,42.1,11.3,40.1,11.3z M28.1,40.6c0,0.8-0.6,1.4-1.4,1.4H8.4c-0.8,0-1.4-0.6-1.4-1.4l0,0V11.9c0-0.8,0.6-1.4,1.4-1.4l0,0H24
	l1,1.4c-1.1,0.7-1.7,1.8-1.8,3.1v6.4H10.3c-0.8,0-1.5,0.7-1.5,1.5v16c0,0.8,0.7,1.5,1.5,1.5h14.4c0.8,0,1.5-0.7,1.5-1.5V26.7
	c0.2,0,0.5,0.1,0.7,0.1h1.1L28.1,40.6z M19.9,34c-0.8,0-1.5,0.7-1.5,1.5v1.8h-1.8v-1.7c0-0.8-0.7-1.5-1.5-1.5s-1.5,0.7-1.5,1.5v1.8
	h-1.8v-13h1.8v2.4c0,0.8,0.7,1.5,1.5,1.5s1.5-0.7,1.5-1.5v-2.4h1.8v2.4c0,0.8,0.7,1.5,1.5,1.5c0.8,0,1.5-0.7,1.5-1.5v-2.4h1.8v13
	h-1.8v-1.8C21.5,34.7,20.8,34,19.9,34C20,34,19.9,34,19.9,34z M40.8,23.1c0,0.4-0.3,0.7-0.7,0.7l0,0H26.9c-0.4,0-0.7-0.3-0.7-0.7V15
	c0-0.4,0.3-0.7,0.7-0.7h13.1c0.4,0,0.7,0.3,0.7,0.7c0,0,0,0,0,0L40.8,23.1z"/>
</svg>
