<?xml version="1.0" encoding="utf-8"?>
<!-- Generator: Adobe Illustrator 24.0.1, SVG Export Plug-In . SVG Version: 6.00 Build 0)  -->
<svg version="1.1" id="PICTOS_vectos" xmlns="http://www.w3.org/2000/svg" xmlns:xlink="http://www.w3.org/1999/xlink" x="0px"
	 y="0px" viewBox="0 0 46.1 46.1" style="enable-background:new 0 0 46.1 46.1;" xml:space="preserve">
<style type="text/css">
	.st0{fill:#25465F;}
</style>
<path class="st0" d="M32,28.7c-5,4.9-13,4.9-18,0c-0.6-0.6-1.5-0.6-2.1,0c-0.6,0.6-0.6,1.5,0,2.1C18,37,28,37,34.2,30.9
	c0.6-0.6,0.6-1.6,0-2.1C33.5,28.1,32.6,28.2,32,28.7z"/>
<path class="st0" d="M18.6,19.2c1.5-2.1,1.8-4.4,0.8-5.1s-3,0.5-4.5,2.6s-1.8,4.3-0.8,5S17.1,21.3,18.6,19.2z"/>
<path class="st0" d="M31.1,19.2c1.5-2.1,1.8-4.4,0.8-5.1s-3,0.5-4.5,2.6s-1.8,4.3-0.8,5S29.6,21.3,31.1,19.2z"/>
<path class="st0" d="M23,1C10.8,1,1,10.8,1,23s9.8,22,22,22s22-9.8,22-22S35.2,1,23,1z M23,42C12.5,42,4,33.5,4,23S12.5,4,23,4
	s19,8.5,19,19S33.5,42,23,42z"/>
</svg>
