<?xml version="1.0" encoding="utf-8"?>
<!-- Generator: Adobe Illustrator 24.0.1, SVG Export Plug-In . SVG Version: 6.00 Build 0)  -->
<svg version="1.1" id="PICTOS_vectos" xmlns="http://www.w3.org/2000/svg" xmlns:xlink="http://www.w3.org/1999/xlink" x="0px"
	 y="0px" viewBox="0 0 46.1 46.1" style="enable-background:new 0 0 46.1 46.1;" xml:space="preserve">
<style type="text/css">
	.st0{fill:#25465F;}
</style>
<path class="st0" d="M19.1,17.3c1.5-2.1,1.8-4.4,0.8-5.1s-3,0.5-4.5,2.6s-1.8,4.3-0.8,5C15.6,20.5,17.6,19.4,19.1,17.3z"/>
<path class="st0" d="M31.6,17.3c1.4-2.1,1.8-4.4,0.8-5.1c-1-0.7-3,0.5-4.5,2.6s-1.8,4.3-0.8,5C28.1,20.5,30.1,19.4,31.6,17.3z"/>
<path class="st0" d="M42.2,22.5c-0.7-0.4-1.6-0.1-2,0.6c-5,9.2-16.5,12.6-25.8,7.6c-1.6-0.9-3.1-2-4.4-3.3c-1.3-1.3-2.4-2.8-3.2-4.4
	c-0.4-0.7-1.3-1-2-0.7s-1,1.3-0.7,2c0,0,0,0.1,0,0.1C10,35.2,23.4,39.2,34,33.3c3.7-2,6.7-5.1,8.8-8.8
	C43.2,23.8,42.9,22.9,42.2,22.5z"/>
</svg>
