<?xml version="1.0" encoding="utf-8"?>
<!-- Generator: Adobe Illustrator 24.0.1, SVG Export Plug-In . SVG Version: 6.00 Build 0)  -->
<svg version="1.1" id="PICTOS_vectos" xmlns="http://www.w3.org/2000/svg" xmlns:xlink="http://www.w3.org/1999/xlink" x="0px"
	 y="0px" viewBox="0 0 45.9 45.9" style="enable-background:new 0 0 45.9 45.9;" xml:space="preserve">
<style type="text/css">
	.st0{fill:#25465F;}
</style>
<path class="st0" d="M9.1,24.5c-1.5,2.1-1.8,4.3-0.8,5s3-0.4,4.5-2.5s1.8-4.4,0.8-5.1S10.6,22.4,9.1,24.5z"/>
<path class="st0" d="M17.4,24.5c-1.5,2.1-1.8,4.3-0.8,5c1,0.7,3-0.4,4.5-2.5s1.8-4.4,0.8-5.1S18.8,22.4,17.4,24.5z"/>
<path class="st0" d="M44.7,12.4C44.7,6.1,39.6,1,33.3,1c-5.9,0-10.8,4.6-11.3,10.4H5.8c-2.5,0-4.6,2-4.6,4.6v15
	c0,2.5,2.1,4.6,4.6,4.6l0,0h5.7v7.8c0,0.6,0.4,1.1,0.9,1.4c0.2,0.1,0.4,0.1,0.6,0.1c0.4,0,0.7-0.1,1-0.4l9.8-8.9h8.9
	c2.5,0,4.6-2,4.6-4.6v-8C41.7,21.4,44.7,17.2,44.7,12.4z M34.3,31.1c0,0.9-0.7,1.6-1.6,1.6c0,0,0,0,0,0h-9.5c-0.4,0-0.7,0.1-1,0.4
	l-7.7,7v-5.9c0-0.8-0.7-1.5-1.5-1.5H5.8c-0.9,0-1.6-0.7-1.6-1.6v-15c0-0.9,0.7-1.6,1.6-1.6h16H22c0.6,3.3,2.7,6.2,5.7,7.9
	c-0.8,0.6-1.6,1.3-2.1,2.2c-1.5,2.1-1.8,4.3-0.8,5s3-0.4,4.5-2.5c0.8-1,1.2-2.2,1.4-3.5c0.8,0.2,1.7,0.3,2.6,0.3c0.3,0,0.7,0,1,0
	L34.3,31.1z M33.3,20.8c-4.6,0-8.4-3.8-8.4-8.4S28.6,4,33.3,4s8.4,3.8,8.4,8.4c0,0,0,0,0,0C41.7,17.1,37.9,20.8,33.3,20.8z"/>
<rect x="32.2" y="10.6" class="st0" width="2.5" height="7.7"/>
<circle class="st0" cx="33.5" cy="8.1" r="1.6"/>
</svg>
