<?xml version="1.0" encoding="utf-8"?>
<!-- Generator: Adobe Illustrator 23.0.2, SVG Export Plug-In . SVG Version: 6.00 Build 0)  -->
<svg version="1.1" id="Calque_1" xmlns="http://www.w3.org/2000/svg" xmlns:xlink="http://www.w3.org/1999/xlink" x="0px" y="0px"
	 viewBox="0 0 400 400" style="enable-background:new 0 0 400 400;" xml:space="preserve">
<style type="text/css">
	.st0{fill-rule:evenodd;clip-rule:evenodd;fill:#454545;}
</style>
<path class="st0" d="M130.9,351.7c140.5,0,217.4-116.7,217.4-218c0-3.3-0.1-6.6-0.2-9.9c14.9-10.8,27.9-24.3,38.1-39.7
	c-13.7,6.1-28.4,10.2-43.9,12.1c15.8-9.5,27.9-24.5,33.6-42.4c-14.8,8.8-31.1,15.2-48.5,18.6c-13.9-14.9-33.8-24.2-55.8-24.2
	c-42.2,0-76.4,34.3-76.4,76.6c0,6,0.7,11.9,2,17.5c-63.5-3.2-119.8-33.7-157.5-80c-6.6,11.3-10.3,24.5-10.3,38.5
	c0,26.6,13.5,50,34,63.8c-12.5-0.4-24.3-3.8-34.6-9.6c0,0.3,0,0.6,0,1c0,37.1,26.3,68.1,61.3,75.1c-6.4,1.8-13.2,2.7-20.1,2.7
	c-4.9,0-9.7-0.5-14.4-1.4c9.7,30.4,37.9,52.6,71.4,53.2c-26.2,20.5-59.1,32.8-94.9,32.8c-6.2,0-12.2-0.4-18.2-1.1
	C47.6,339,87.8,351.7,130.9,351.7"/>
</svg>
