<?xml version="1.0" encoding="utf-8"?>
<!-- Generator: Adobe Illustrator 23.0.2, SVG Export Plug-In . SVG Version: 6.00 Build 0)  -->
<svg version="1.1" id="Calque_1" xmlns="http://www.w3.org/2000/svg" xmlns:xlink="http://www.w3.org/1999/xlink" x="0px" y="0px"
	 viewBox="0 0 400 400" style="enable-background:new 0 0 400 400;" xml:space="preserve">
<style type="text/css">
	.st0{fill-rule:evenodd;clip-rule:evenodd;fill:#454545;}
</style>
<path class="st0" d="M161.9,255.3V144.7l97.3,55.3L161.9,255.3z M378.4,109.9c-4.3-16.1-16.9-28.8-32.9-33.1C316.5,69,200,69,200,69
	S83.5,69,54.5,76.8c-16,4.3-28.6,17-32.9,33.1c-7.8,29.2-7.8,90.1-7.8,90.1s0,60.9,7.8,90.1c4.3,16.1,16.9,28.8,32.9,33.1
	C83.5,331,200,331,200,331s116.5,0,145.5-7.8c16-4.3,28.6-17,32.9-33.1c7.8-29.2,7.8-90.1,7.8-90.1S386.2,139.1,378.4,109.9
	L378.4,109.9z"/>
</svg>
