<?xml version="1.0" encoding="utf-8"?>
<!-- Generator: Adobe Illustrator 23.0.2, SVG Export Plug-In . SVG Version: 6.00 Build 0)  -->
<svg version="1.1" id="Calque_1" xmlns="http://www.w3.org/2000/svg" xmlns:xlink="http://www.w3.org/1999/xlink" x="0px" y="0px"
	 viewBox="0 0 400 400" style="enable-background:new 0 0 400 400;" xml:space="preserve">
<style type="text/css">
	.st0{fill-rule:evenodd;clip-rule:evenodd;fill:#454545;}
</style>
<path class="st0" d="M365.5,13.8h-331c-11.4,0-20.7,9.3-20.7,20.7v331c0,11.4,9.3,20.7,20.7,20.7h178.2v-144h-48.4v-56.4h48.4v-41.4
	c0-48.1,29.4-74.3,72.4-74.3c14.5,0,28.9,0.7,43.3,2.2v50.1h-29.7c-23.3,0-27.9,11.1-27.9,27.4v35.9h55.8l-7.2,56.4h-48.6v144.1
	h94.6c11.4,0,20.7-9.3,20.7-20.7v-331C386.2,23.1,376.9,13.8,365.5,13.8z"/>
</svg>
