<?xml version="1.0" encoding="utf-8"?>
<!-- Generator: Adobe Illustrator 23.0.2, SVG Export Plug-In . SVG Version: 6.00 Build 0)  -->
<svg version="1.1" id="Calque_1" xmlns="http://www.w3.org/2000/svg" xmlns:xlink="http://www.w3.org/1999/xlink" x="0px" y="0px"
	 viewBox="0 0 400 400" style="enable-background:new 0 0 400 400;" xml:space="preserve">
<style type="text/css">
	.st0{fill-rule:evenodd;clip-rule:evenodd;fill:#454545;}
</style>
<path class="st0" d="M200,13.9c50.6,0,56.9,0.2,76.7,1.1c19.8,0.9,33.3,4.1,45.2,8.7c12.2,4.8,22.6,11.1,33,21.5
	c10.3,10.3,16.7,20.7,21.5,33c4.6,11.8,7.7,25.4,8.7,45.2c0.9,19.9,1.1,26.2,1.1,76.7c0,50.6-0.2,56.9-1.1,76.7
	c-0.9,19.8-4.1,33.3-8.7,45.2c-4.8,12.2-11.1,22.6-21.5,33c-10.3,10.3-20.7,16.7-33,21.5c-11.8,4.6-25.4,7.7-45.2,8.7
	c-19.9,0.9-26.2,1.1-76.7,1.1c-50.6,0-56.9-0.2-76.7-1.1c-19.8-0.9-33.3-4.1-45.2-8.7c-12.2-4.8-22.6-11.1-33-21.5
	c-10.3-10.3-16.7-20.7-21.5-33c-4.6-11.8-7.7-25.4-8.7-45.2c-0.9-19.9-1.1-26.2-1.1-76.7c0-50.6,0.2-56.9,1.1-76.7
	c0.9-19.8,4.1-33.3,8.7-45.2c4.8-12.2,11.1-22.6,21.5-33c10.3-10.3,20.7-16.7,33-21.5c11.8-4.6,25.4-7.7,45.2-8.7
	C143.1,14.1,149.4,13.9,200,13.9z M200,47.4c-49.7,0-55.6,0.2-75.2,1.1c-18.1,0.8-28,3.9-34.6,6.4c-8.7,3.4-14.9,7.4-21.4,13.9
	c-6.5,6.5-10.5,12.7-13.9,21.4c-2.5,6.6-5.6,16.4-6.4,34.6c-0.9,19.6-1.1,25.5-1.1,75.2c0,49.7,0.2,55.6,1.1,75.2
	c0.8,18.1,3.9,28,6.4,34.6c3.4,8.7,7.4,14.9,13.9,21.4c6.5,6.5,12.7,10.5,21.4,13.9c6.6,2.5,16.4,5.6,34.6,6.4
	c19.6,0.9,25.5,1.1,75.2,1.1c49.7,0,55.6-0.2,75.2-1.1c18.1-0.8,28-3.9,34.6-6.4c8.7-3.4,14.9-7.4,21.4-13.9
	c6.5-6.5,10.5-12.7,13.9-21.4c2.5-6.6,5.6-16.4,6.4-34.6c0.9-19.6,1.1-25.5,1.1-75.2c0-49.7-0.2-55.6-1.1-75.2
	c-0.8-18.1-3.9-28-6.4-34.6c-3.4-8.7-7.4-14.9-13.9-21.4c-6.5-6.5-12.7-10.5-21.4-13.9c-6.6-2.5-16.4-5.6-34.6-6.4
	C255.6,47.6,249.7,47.4,200,47.4z M200,262c34.3,0,62-27.8,62-62c0-34.3-27.8-62-62-62c-34.3,0-62,27.8-62,62
	C138,234.3,165.7,262,200,262z M200,104.4c52.8,0,95.6,42.8,95.6,95.6c0,52.8-42.8,95.6-95.6,95.6c-52.8,0-95.6-42.8-95.6-95.6
	C104.4,147.2,147.2,104.4,200,104.4z M321.7,100.6c0,12.3-10,22.3-22.3,22.3c-12.3,0-22.3-10-22.3-22.3c0-12.3,10-22.3,22.3-22.3
	C311.7,78.3,321.7,88.3,321.7,100.6z"/>
</svg>
