<?xml version="1.0" encoding="utf-8"?>
<!-- Generator: Adobe Illustrator 24.0.1, SVG Export Plug-In . SVG Version: 6.00 Build 0)  -->
<svg version="1.1" id="PICTOS_vectos" xmlns="http://www.w3.org/2000/svg" xmlns:xlink="http://www.w3.org/1999/xlink" x="0px"
	 y="0px" viewBox="0 0 46 46" style="enable-background:new 0 0 46 46;" xml:space="preserve">
<style type="text/css">
	.st0{fill:#25465F;}
</style>
<path class="st0" d="M3.2,18.4C2,18.3,1,20.5,1,23.1s1,4.6,2.2,4.6s2.2-2.1,2.2-4.6S4.4,18.4,3.2,18.4z"/>
<path class="st0" d="M7.7,13.3c-0.8,0-1.5,0.7-1.5,1.5l0,0v16.3c0,0.8,0.7,1.5,1.5,1.5c0.8,0,1.5-0.7,1.5-1.5V14.8
	C9.2,14,8.5,13.3,7.7,13.3z"/>
<path class="st0" d="M42.8,18.4c-1.2,0-2.2,2.1-2.2,4.7s1,4.6,2.2,4.6s2.2-2,2.2-4.6S44,18.3,42.8,18.4z"/>
<path class="st0" d="M34,11.4c-0.8,0-1.5,0.7-1.5,1.5c0,0,0,0,0,0v8.5H13.5V13c0-0.8-0.7-1.5-1.5-1.5s-1.5,0.7-1.5,1.5v20.1
	c0,0.8,0.7,1.5,1.5,1.5s1.5-0.7,1.5-1.5v-8.6h19.1V33c0,0.8,0.7,1.5,1.5,1.5s1.5-0.7,1.5-1.5V13C35.6,12.2,34.9,11.5,34,11.4
	C34.1,11.4,34,11.4,34,11.4z"/>
<path class="st0" d="M38.3,13.3c-0.8,0-1.5,0.7-1.5,1.5l0,0v16.3c0,0.8,0.7,1.5,1.5,1.5s1.5-0.7,1.5-1.5V14.8
	C39.8,14,39.1,13.3,38.3,13.3L38.3,13.3z"/>
</svg>
