<svg id="PICTOS_vectos" xmlns="http://www.w3.org/2000/svg" viewBox="0 0 46 46"><defs><style>.cls-1{fill:#25465f;}</style></defs><path class="cls-1" d="M23,1A22,22,0,1,0,45,23,22,22,0,0,0,23,1Zm0,41A19,19,0,1,1,42,23,19,19,0,0,1,23,42Z"/><path class="cls-1" d="M23,20.78c-2.56,0-4.65,1-4.65,2.2s2.13,2.23,4.7,2.24,4.58-1,4.58-2.19S25.58,20.79,23,20.78Z"/><path class="cls-1" d="M40.08,26.76a17,17,0,0,0,0-7.52v0a1.26,1.26,0,0,0-.1-.38A17.49,17.49,0,0,0,5.5,23a17.91,17.91,0,0,0,.43,3.83h0v0A17.54,17.54,0,0,0,18.84,40a2,2,0,0,0,.35.09,17,17,0,0,0,7.61,0h0a1.36,1.36,0,0,0,.36-.09A17.53,17.53,0,0,0,40,27.18a1,1,0,0,0,.11-.35S40.08,26.78,40.08,26.76ZM23,29a6,6,0,1,1,6-6A6,6,0,0,1,23,29ZM8.5,23a14,14,0,0,1,.15-1.95l5.46.64A8.08,8.08,0,0,0,14,23a8.83,8.83,0,0,0,.12,1.37L8.66,25A13.16,13.16,0,0,1,8.5,23Zm23.4-1.3,5.45-.65A14,14,0,0,1,37.5,23a14.59,14.59,0,0,1-.15,2l-5.47-.63A8.83,8.83,0,0,0,32,23,9.36,9.36,0,0,0,31.9,21.7ZM23,8.5a14.51,14.51,0,0,1,13.64,9.62L31,18.79a9,9,0,0,0-15.89,0l-5.69-.67A14.51,14.51,0,0,1,23,8.5ZM9.39,27.94l5.69-.66a9.09,9.09,0,0,0,3.69,3.66l-.68,5.69A14.52,14.52,0,0,1,9.39,27.94ZM21,37.35l.64-5.46A8.42,8.42,0,0,0,23,32a9.82,9.82,0,0,0,1.34-.11L25,37.35a14.42,14.42,0,0,1-2,.15A14.16,14.16,0,0,1,21,37.35Zm6.88-.72-.66-5.7a9,9,0,0,0,3.67-3.66l5.7.67A14.57,14.57,0,0,1,27.91,36.63Z"/></svg>