<?xml version="1.0" encoding="utf-8"?>
<!-- Generator: Adobe Illustrator 24.0.1, SVG Export Plug-In . SVG Version: 6.00 Build 0)  -->
<svg version="1.1" id="PICTOS_vectos" xmlns="http://www.w3.org/2000/svg" xmlns:xlink="http://www.w3.org/1999/xlink" x="0px"
	 y="0px" viewBox="0 0 39.7 39.7" style="enable-background:new 0 0 39.7 39.7;" xml:space="preserve">
<style type="text/css">
	.st0{fill:#25465F;}
</style>
<path class="st0" d="M33.7,10.6c0.6,0.5,1.6,0.5,2.1-0.1c0.5-0.6,0.5-1.6-0.1-2.1c0,0,0,0,0,0l-1.2-1.1l-0.1-0.1l0,0l-1.2-1
	c-0.6-0.6-1.6-0.5-2.1,0.1s-0.5,1.6,0.1,2.1l0.1,0.1l-1.7,2.1c-2.4-1.9-5.2-3.1-8.3-3.4V5.5c0,0,0-0.1,0-0.1
	c1.8-0.3,3.1-1.1,3.2-2.1C24.6,2,22.4,1,19.9,1s-4.6,1-4.7,2.2c0,1,1.3,1.8,3.2,2.1c0,0,0,0.1,0,0.2v1.8c-3,0.3-5.9,1.4-8.3,3.3
	L8.4,8.5l0.2-0.1c0.6-0.6,0.7-1.5,0.1-2.1C8.1,5.7,7.2,5.6,6.6,6.2l-1.2,1l0,0L5.3,7.2L4.1,8.4c-0.6,0.5-0.7,1.5-0.2,2.1
	C4.2,10.8,4.6,11,5.1,11c0.4,0,0.7-0.1,1-0.4l0.1-0.1l1.8,2.2C2.3,19.3,3,29.2,9.6,34.9s16.5,4.9,22.2-1.6c2.5-2.9,3.8-6.5,3.8-10.3
	c0-3.8-1.4-7.4-3.8-10.3l1.8-2.2L33.7,10.6z M21.4,35.6v-2.5c0-0.8-0.7-1.5-1.5-1.5s-1.5,0.7-1.5,1.5v2.5
	c-5.8-0.7-10.5-5.3-11.2-11.2h2.5c0.8,0,1.5-0.7,1.5-1.5s-0.7-1.5-1.5-1.5H7.2c0.7-5.9,5.3-10.5,11.2-11.2v2.5
	c0,0.8,0.7,1.5,1.5,1.5c0.8,0,1.5-0.7,1.5-1.5v-2.5c5.9,0.7,10.5,5.3,11.2,11.2h-2.5c-0.8,0-1.5,0.7-1.5,1.5s0.7,1.5,1.5,1.5h2.5
	C31.9,30.3,27.2,34.9,21.4,35.6z"/>
<path class="st0" d="M28.7,16.1c-0.5-0.7-1.4-0.8-2.1-0.3c0,0,0,0,0,0L21.3,20c-0.2,0.1-0.3,0.3-0.4,0.4c-1.4-0.6-3,0.1-3.6,1.5
	c-0.6,1.4,0.1,3,1.5,3.6c1.4,0.6,3-0.1,3.6-1.5c0.1-0.3,0.2-0.7,0.2-1.1c0-0.1,0-0.2,0-0.4c0.2,0,0.4-0.1,0.5-0.2l5.3-4.1
	C29.2,17.8,29.3,16.8,28.7,16.1C28.8,16.2,28.8,16.1,28.7,16.1z M19.9,24.2c-0.7,0-1.3-0.6-1.3-1.3c0-0.7,0.6-1.3,1.3-1.3
	c0.7,0,1.3,0.6,1.3,1.3c0,0,0,0,0,0.1C21.1,23.7,20.6,24.2,19.9,24.2z"/>
</svg>
