<?xml version="1.0" encoding="utf-8"?>
<!-- Generator: Adobe Illustrator 23.1.1, SVG Export Plug-In . SVG Version: 6.00 Build 0)  -->
<svg version="1.1" id="Calque_1" xmlns="http://www.w3.org/2000/svg" xmlns:xlink="http://www.w3.org/1999/xlink" x="0px" y="0px"
	 viewBox="0 0 660 660" style="enable-background:new 0 0 660 660;" xml:space="preserve">
<path d="M421.5,443.8c-27.3,33.3-67.6,55.6-113.1,58.8v-29.3h-22.5v29.3c-79.1-5.4-142.6-67.8-149.3-146.4h27.9V335h-28.2
	c3.6-82,68.7-148,150.2-153.2v26.4h23.7v-26.1c48,3.8,89.9,29.1,116.7,65.8h38.7c-33.3-59-96.4-98.9-168.7-98.9
	c-106.8,0-193.5,86.5-193.5,193.3s86.5,193.5,193.5,193.5c69.6,0,130.2-36.7,164.4-91.9L421.5,443.8L421.5,443.8z"/>
<path d="M274.2,124c9.9,4.7,9,15.5,8.8,17.3c4.7-0.2,9.5-0.7,14.4-0.7c5.6,0,11,0.2,16.7,0.7c-0.2-1.8-1.1-12.6,8.8-17.3
	c10.8-5.2,14.4-5.2,14.4-11.9s0-29.7,0-35.8S335.7,60,325.8,60c-5.9,0-15.8,0-23,0c-5,0-8.8,0-8.8,0c-7.2,0-17.1,0-23,0
	c-9.9,0-11.5,9.9-11.5,16s0,28.8,0,35.8S263.4,118.8,274.2,124z"/>
<path d="M491.8,164.5l-22.3-22.3c-3.8-3.8-9.9-3.8-13.7,0L435.9,162c-3.8,3.8-3.8,9.9,0,13.7l2.7,2.7l-10.8,10.8
	c6.1,5.2,11.7,10.6,16.9,16.4l10.4-10.4l2.9,2.9c3.8,3.8,9.9,3.8,13.7,0l19.8-19.8C495.6,174.4,495.6,168.1,491.8,164.5z"/>
<g>
	<path d="M224.4,294.9c-4.7,3.4-9.7,8.3-14.9,15.3l-16.7-13.1c3.2-4.5,6.5-8.6,9.9-12.2c3.4-3.6,7-6.5,10.8-9
		c3.8-2.5,8.3-4.3,12.8-5.6c4.7-1.4,10.1-2,16-2c6.8,0,12.8,0.9,18.2,2.9c5.6,2,10.1,4.7,14,8.3c3.8,3.6,6.8,7.9,9,12.8
		c2,5,3.2,10.4,3.2,16.4c0,5.4-0.7,10.1-2,14.4c-1.4,4.3-3.6,8.3-6.5,12.4c-2.9,4.1-6.5,8.1-11,12.2c-4.5,4.1-9.7,8.6-15.5,13.5
		L224,384.6h64.2v20.7h-97.3v-18.7l46.4-39.4c4.7-3.8,8.6-7.4,11.7-10.6c3.2-3.2,5.9-6.1,7.9-9c2-2.9,3.4-5.6,4.3-8.3
		c0.9-2.7,1.4-5.6,1.4-8.6c0-6.8-2-11.9-6.3-15.5c-4.3-3.6-9.5-5.4-15.5-5.4S229.1,291.6,224.4,294.9z"/>
	<path d="M333,405.3h-23.4V264.5H333v55c1.6-2.5,3.6-4.7,5.4-7c2-2.3,4.3-4.1,7-5.6c2.7-1.6,5.4-2.9,8.6-4.1
		c3.2-0.9,6.8-1.4,10.6-1.4c11.5,0,20.5,3.6,26.8,10.6c6.3,7,9.5,16.7,9.5,28.6v64.9h-23.4v-57.7c0-7.9-1.8-14-5.6-18.5
		c-3.8-4.3-9-6.5-16-6.5c-6.8,0-12.2,2.3-16.4,6.5c-4.3,4.5-6.3,10.6-6.3,18.5V405.3z"/>
</g>
<g>
	<path d="M120.3,593.4c-1.4,0.9-2.7,1.8-4.3,2.7c-1.6,0.7-3.2,1.4-5,1.6c-1.8,0.5-3.8,0.7-6.1,0.7c-3.4,0-6.8-0.7-9.7-1.8
		c-2.9-1.4-5.4-2.9-7.7-5.2c-2-2.3-3.8-4.7-5-7.7s-1.8-6.1-1.8-9.7c0-3.4,0.7-6.5,1.8-9.5c1.1-2.9,2.9-5.6,5-7.9
		c2.3-2.3,4.7-4.1,7.7-5.2c2.9-1.4,6.3-2,9.9-2c2.3,0,4.1,0.2,5.9,0.5c1.8,0.5,3.4,0.9,5,1.6c1.6,0.7,2.9,1.4,4.1,2.3
		c1.4,0.9,2.5,1.8,3.6,2.9l-5.4,6.1c-1.8-1.8-3.8-3.2-6.1-4.3c-2-1.1-4.5-1.6-7.2-1.6c-2.3,0-4.3,0.5-6.3,1.4s-3.6,2-5,3.6
		c-1.4,1.6-2.5,3.4-3.2,5.4c-0.7,2-1.1,4.3-1.1,6.5c0,2.3,0.5,4.5,1.1,6.5c0.7,2,1.8,3.8,3.2,5.4c1.4,1.6,3.2,2.7,5,3.6
		c1.8,0.9,4.1,1.4,6.3,1.4c2.9,0,5.4-0.5,7.4-1.6s4.1-2.7,6.1-4.5l5.4,5.4C122.8,591.4,121.7,592.5,120.3,593.4z"/>
	<path d="M130.3,597.4v-49.3h8.3v49.3H130.3z"/>
	<path d="M147.2,556.4v-7.7h8.8v7.7H147.2z M147.4,597.4v-35.6h8.3v35.6H147.4z"/>
	<path d="M189.3,596.5c-2.3,1.1-5.2,1.8-8.6,1.8c-2.7,0-5.2-0.5-7.4-1.4c-2.3-0.9-4.3-2.3-5.9-4.1c-1.6-1.6-2.9-3.6-3.8-5.9
		c-0.9-2.3-1.4-4.7-1.4-7.2c0-2.5,0.5-5,1.4-7.2c0.9-2.3,2.3-4.3,3.8-5.9c1.6-1.8,3.6-3.2,5.9-4.1c2.3-0.9,4.7-1.6,7.4-1.6
		c3.4,0,6.1,0.7,8.3,1.6c2.3,1.1,4.3,2.7,5.9,4.5l-5,5.4c-1.4-1.4-2.7-2.5-4.1-3.2c-1.4-0.9-3.2-1.4-5.2-1.4c-1.6,0-2.9,0.2-4.1,0.9
		c-1.4,0.7-2.3,1.4-3.2,2.5s-1.6,2.3-2,3.6c-0.5,1.4-0.7,2.9-0.7,4.5s0.2,3.2,0.7,4.5c0.5,1.4,1.4,2.7,2.3,3.6
		c0.9,1.1,2,1.8,3.4,2.5c1.4,0.7,2.7,0.9,4.3,0.9c2,0,3.6-0.5,5.2-1.4c1.4-0.9,2.9-1.8,4.1-3.2l5,5
		C193.6,593.6,191.5,595.2,189.3,596.5z"/>
	<path d="M234.1,597.4h-9.5l-10.8-15.3l-5,5.2v10.1h-8.3v-49.3h8.3v29.5l14.9-15.8h9.9l-14.2,14.4L234.1,597.4z"/>
	<path d="M289.7,598.6l-6.3-6.3c-2,1.8-4.3,3.4-6.5,4.5c-2.5,1.1-5,1.6-7.9,1.6c-2.3,0-4.3-0.2-6.1-0.9c-1.8-0.7-3.4-1.6-5-2.7
		c-1.4-1.1-2.5-2.7-3.2-4.3c-0.7-1.6-1.1-3.6-1.1-5.6c0-3.2,0.9-5.9,2.7-7.9c1.8-2.3,4.3-4.1,7.4-5.4c-1.4-1.8-2.3-3.4-2.9-5
		c-0.7-1.6-0.9-3.2-0.9-5c0-1.6,0.2-3.2,0.9-4.5c0.7-1.4,1.6-2.7,2.7-3.8c1.1-1.1,2.5-2,4.3-2.7c1.6-0.7,3.6-0.9,5.6-0.9
		c1.8,0,3.6,0.2,5.2,0.9c1.6,0.7,2.9,1.4,4.1,2.5c1.1,1.1,2,2.3,2.5,3.6c0.7,1.4,0.9,2.9,0.9,4.5c0,3.2-0.9,5.6-2.9,7.7
		c-1.8,2-4.5,3.6-7.7,4.7l8.1,8.3c0.9-1.4,1.8-2.7,2.7-4.3c0.9-1.6,1.6-3.2,2.5-4.7l6.3,3.4c-0.9,1.8-2,3.8-2.9,5.6
		c-1.1,1.8-2.3,3.6-3.4,5.2l7.4,7.7L289.7,598.6z M268.1,576.5c-2.3,0.9-3.8,2-4.7,3.4c-0.9,1.4-1.6,2.9-1.6,4.5c0,2,0.7,3.6,2.3,5
		c1.6,1.4,3.4,2,5.6,2c1.6,0,3.2-0.5,4.7-1.1c1.6-0.7,2.9-1.8,4.3-2.9L268.1,576.5z M276.9,557.6c-1.1-0.9-2.3-1.4-3.8-1.4
		c-1.8,0-3.2,0.5-4.1,1.6s-1.6,2.5-1.6,4.1c0,1.1,0.2,2.3,0.9,3.4c0.5,1.1,1.4,2.3,2.7,3.6c2.5-0.9,4.3-2,5.6-3.2
		c1.4-1.1,1.8-2.7,1.8-4.3C278.5,559.8,277.8,558.5,276.9,557.6z"/>
	<path d="M357.3,593.4c-1.4,0.9-2.7,1.8-4.3,2.7c-1.6,0.7-3.2,1.4-5,1.6c-1.8,0.5-3.8,0.7-6.1,0.7c-3.4,0-6.8-0.7-9.7-1.8
		c-2.9-1.4-5.4-2.9-7.7-5.2c-2-2.3-3.8-4.7-5-7.7s-1.8-6.1-1.8-9.7c0-3.4,0.7-6.5,1.8-9.5c1.1-2.9,2.9-5.6,5-7.9
		c2.3-2.3,4.7-4.1,7.7-5.2c2.9-1.4,6.3-2,9.9-2c2.3,0,4.1,0.2,5.9,0.5c1.8,0.5,3.4,0.9,5,1.6c1.6,0.7,2.9,1.4,4.1,2.3
		c1.4,0.9,2.5,1.8,3.6,2.9l-5.4,6.1c-1.8-1.8-3.8-3.2-6.1-4.3c-2-1.1-4.5-1.6-7.2-1.6c-2.3,0-4.3,0.5-6.3,1.4s-3.6,2-5,3.6
		s-2.5,3.4-3.2,5.4c-0.7,2-1.1,4.3-1.1,6.5c0,2.3,0.5,4.5,1.1,6.5c0.7,2,1.8,3.8,3.2,5.4s3.2,2.7,5,3.6c1.8,0.9,4.1,1.4,6.3,1.4
		c2.9,0,5.4-0.5,7.4-1.6c2-1.1,4.1-2.7,6.1-4.5l5.4,5.4C359.8,591.4,358.7,592.5,357.3,593.4z"/>
	<path d="M400.6,586.9c-0.9,2.3-2.3,4.3-4.1,5.9c-1.6,1.6-3.6,2.9-6.1,4.1c-2.3,0.9-5,1.6-7.7,1.6s-5.2-0.5-7.4-1.4
		c-2.3-0.9-4.3-2.3-6.1-4.1c-1.8-1.6-2.9-3.6-4.1-5.9c-1.1-2.3-1.4-4.7-1.4-7.2c0-2.5,0.5-5,1.4-7.2c0.9-2.3,2.3-4.3,4.1-5.9
		c1.6-1.6,3.6-2.9,6.1-4.1c2.3-0.9,5-1.6,7.7-1.6s5.2,0.5,7.7,1.4c2.3,0.9,4.3,2.3,6.1,4.1c1.8,1.6,2.9,3.6,4.1,5.9
		c0.9,2.3,1.4,4.7,1.4,7.2C402.1,582.3,401.7,584.6,400.6,586.9z M393.1,575.4c-0.5-1.4-1.4-2.7-2.3-3.6c-0.9-1.1-2-1.8-3.4-2.5
		c-1.4-0.7-2.7-0.9-4.3-0.9c-1.6,0-3.2,0.2-4.3,0.9c-1.4,0.7-2.5,1.4-3.4,2.5c-0.9,1.1-1.6,2.3-2.3,3.6c-0.5,1.4-0.7,2.9-0.7,4.5
		s0.2,3.2,0.9,4.5c0.5,1.4,1.4,2.7,2.3,3.6s2,1.8,3.4,2.5c1.4,0.7,2.7,0.9,4.3,0.9c1.6,0,3.2-0.2,4.5-0.9c1.4-0.7,2.5-1.4,3.4-2.5
		s1.6-2.3,2.3-3.6c0.5-1.4,0.7-2.9,0.7-4.5C393.8,578.3,393.6,576.7,393.1,575.4z"/>
	<path d="M408.7,597.4v-49.3h8.3v49.3H408.7z"/>
	<path d="M426,597.4v-49.3h8.3v49.3H426z"/>
	<path d="M452.4,589.3c1.8,1.6,4.1,2.3,6.8,2.3c2,0,3.8-0.5,5.2-1.1c1.6-0.7,2.9-1.8,4.3-3.2l4.7,4.3c-1.8,2-3.8,3.6-6.1,5
		c-2.3,1.1-5.2,1.8-8.6,1.8c-2.5,0-5-0.5-7.2-1.4s-4.1-2.3-5.9-3.8c-1.6-1.6-2.9-3.6-3.8-5.9s-1.4-4.7-1.4-7.7c0-2.5,0.5-5,1.4-7.2
		c0.9-2.3,2-4.3,3.6-5.9c1.6-1.6,3.4-2.9,5.4-4.1c2-0.9,4.5-1.6,7-1.6c2.9,0,5.4,0.5,7.4,1.6c2,1.1,3.8,2.5,5.4,4.3
		c1.4,1.8,2.5,3.8,3.2,6.1c0.7,2.3,1.1,4.7,1.1,7.4c0,0.5,0,0.7,0,1.1c0,0.5,0,0.7,0,1.1h-26.1C449.4,585.5,450.6,587.8,452.4,589.3
		z M467,577.2c-0.2-1.4-0.5-2.5-0.9-3.6c-0.5-1.1-1.1-2-1.8-2.9c-0.7-0.9-1.6-1.6-2.7-2c-1.1-0.5-2.3-0.7-3.6-0.7
		c-2.5,0-4.5,0.9-6.3,2.7c-1.6,1.8-2.7,4.1-2.9,6.8H467V577.2z"/>
	<path d="M506.4,596.5c-2.3,1.1-5.2,1.8-8.6,1.8c-2.7,0-5.2-0.5-7.4-1.4c-2.3-0.9-4.3-2.3-5.9-4.1c-1.6-1.6-2.9-3.6-3.8-5.9
		c-0.9-2.3-1.4-4.7-1.4-7.2c0-2.5,0.5-5,1.4-7.2c0.9-2.3,2.3-4.3,3.8-5.9c1.6-1.8,3.6-3.2,5.9-4.1c2.3-0.9,4.7-1.6,7.4-1.6
		c3.4,0,6.1,0.7,8.3,1.6c2.3,1.1,4.3,2.7,5.9,4.5l-5,5.4c-1.4-1.4-2.7-2.5-4.1-3.2c-1.4-0.9-3.2-1.4-5.2-1.4c-1.6,0-2.9,0.2-4.1,0.9
		c-1.4,0.7-2.3,1.4-3.2,2.5s-1.6,2.3-2,3.6c-0.5,1.4-0.7,2.9-0.7,4.5s0.2,3.2,0.7,4.5c0.5,1.4,1.4,2.7,2.3,3.6
		c0.9,1.1,2,1.8,3.4,2.5c1.4,0.7,2.7,0.9,4.3,0.9c2,0,3.6-0.5,5.2-1.4c1.4-0.9,2.9-1.8,4.1-3.2l5,5
		C510.7,593.6,508.7,595.2,506.4,596.5z"/>
	<path d="M527.6,586.4c0,1.6,0.5,2.7,1.1,3.4c0.7,0.7,1.8,1.1,3.2,1.1c1.8,0,3.4-0.5,5-1.1v6.8c-1.1,0.7-2,1.1-3.4,1.4
		c-1.1,0.2-2.5,0.5-4.1,0.5s-2.9-0.2-4.1-0.5c-1.4-0.5-2.5-0.9-3.4-1.8c-0.9-0.9-1.6-1.8-2.3-3.2c-0.5-1.4-0.7-2.9-0.7-5v-18.7h-4.5
		v-7h4.5v-9.7h8.3v9.7h9.7v7h-9.7v17.1H527.6z"/>
</g>
<g>
	<path d="M544.3,567.5L544.3,567.5c0-10.1,8.1-18.5,18.2-18.5c10.4,0,18.2,8.3,18.2,18.2l0,0c0,9.9-8.1,18.5-18.2,18.5
		C552.4,585.9,544.3,577.6,544.3,567.5z M578.9,567.5L578.9,567.5c0-9-7-16.4-16.2-16.4c-9.2,0-16.2,7.4-16.2,16.4l0,0
		c0,9,7,16.2,16.2,16.2C571.7,583.9,578.9,576.5,578.9,567.5z M554.6,557.3h9.2c4.7,0,8.1,2,8.1,6.5c0,3.2-1.6,5.2-4.1,6.1l4.7,6.8
		h-6.3l-3.8-5.9h-2.3v5.9h-5.4v-19.4H554.6z M563.6,566.8c1.8,0,2.9-0.9,2.9-2.3c0-1.6-1.1-2.3-2.9-2.3h-3.4v4.7h3.4V566.8z"/>
</g>
</svg>
