<?xml version="1.0" encoding="utf-8"?>
<!-- Generator: Adobe Illustrator 23.0.2, SVG Export Plug-In . SVG Version: 6.00 Build 0)  -->
<svg version="1.1" id="Calque_1" xmlns="http://www.w3.org/2000/svg" xmlns:xlink="http://www.w3.org/1999/xlink" x="0px" y="0px"
	 viewBox="0 0 660 660" style="enable-background:new 0 0 660 660;" xml:space="preserve">
<style type="text/css">
	.st0{fill-rule:evenodd;clip-rule:evenodd;fill:#009DCC;}
</style>
<path class="st0" d="M469.9,260h-40.6c-27.8-26.6-64.1-44.4-104.4-48.9V235c0,8.3-6.7,15-15,15s-15-6.7-15-15v-24.7
	C205.4,215.2,133,286,125.6,375H155c8.3,0,15,6.7,15,15s-6.7,15-15,15h-29.4c7.4,89,79.7,159.8,169.4,164.7V545c0-8.3,6.7-15,15-15
	s15,6.7,15,15v23.9c40.3-4.5,76.6-22.3,104.4-48.9h40.6c-37.1,47.1-94,77.8-158.1,79.9c-0.6,0.1-1.2,0.1-1.8,0.1c-0.4,0-0.7,0-1.1,0
	c-1.3,0-2.6,0-3.9,0c-116,0-210-94-210-210c0-62.8,27.6-119.2,71.4-157.7c-0.7-0.5-1.3-1-2-1.7l-13.8-13.8l-4.1,4.1
	c-3.9,3.9-10.2,3.9-14.1,0L104,192.7c-3.9-3.9-3.9-10.2,0-14.1l28.3-28.3c3.9-3.9,10.2-3.9,14.1,0l28.3,28.3
	c3.9,3.9,3.9,10.2,0,14.1l-2.9,2.9l13.8,13.8c1.6,1.6,2.8,3.5,3.5,5.5c30.9-20.5,67.4-33,106.8-34.7c-0.6-1.6-0.9-3.4-0.9-5.2v-25
	c-16.6,0-30-13.4-30-30V90c0-16.6,13.4-30,30-30h30c16.6,0,30,13.4,30,30v30c0,16.6-13.4,30-30,30v25c0,2.1-0.4,4-1.2,5.8
	c35.7,3.2,68.8,15.3,97.1,34c0.7-2,1.9-3.9,3.5-5.5l13.2-13.2l-3.5-3.5c-3.9-3.9-3.9-10.2,0-14.1l28.3-28.3c3.9-3.9,10.2-3.9,14.1,0
	l28.3,28.3c3.9,3.9,3.9,10.2,0,14.1L476.5,221c-3.9,3.9-10.2,3.9-14.1,0l-3.5-3.5l-13.2,13.2c-0.6,0.6-1.3,1.2-2,1.7
	C453.2,240.7,462,250,469.9,260z M244.3,315.2c-5.7,0-10.1,2.1-13.2,6.4s-4.7,10.2-4.7,17.9c0,15.9,6,23.9,17.9,23.9
	c5,0,11.1-1.3,18.2-3.8v12.7c-5.9,2.4-12.4,3.7-19.6,3.7c-10.4,0-18.3-3.1-23.8-9.4s-8.3-15.3-8.3-27.1c0-7.4,1.4-13.9,4.1-19.5
	c2.7-5.6,6.6-9.9,11.6-12.8s11-4.5,17.8-4.5c6.9,0,13.9,1.7,20.9,5l-4.9,12.3c-2.7-1.3-5.4-2.4-8.1-3.3
	C249.6,315.7,246.9,315.2,244.3,315.2z M288.3,375h-14.9v-76h14.9V375z M300.2,306.3c0-4.9,2.7-7.3,8.1-7.3c5.4,0,8.1,2.4,8.1,7.3
	c0,2.3-0.7,4.1-2,5.4c-1.4,1.3-3.4,1.9-6.1,1.9C302.9,313.6,300.2,311.2,300.2,306.3z M315.7,375h-14.9v-54.6h14.9V375z M350.4,376
	c-17,0-25.5-9.3-25.5-28c0-9.3,2.3-16.4,6.9-21.3c4.6-4.9,11.2-7.3,19.9-7.3c6.3,0,12,1.2,17,3.7l-4.4,11.5
	c-2.3-0.9-4.5-1.7-6.5-2.3c-2-0.6-4-0.9-6.1-0.9c-7.7,0-11.6,5.5-11.6,16.5c0,10.7,3.9,16,11.6,16c2.9,0,5.5-0.4,8-1.1
	s4.9-2,7.3-3.6v12.7c-2.4,1.5-4.8,2.6-7.3,3.2C357.2,375.7,354.1,376,350.4,376z M390.8,345.3l6.5-8.3l15.3-16.6h16.8l-21.7,23.7
	l23,30.9h-17.2l-15.7-22.1l-6.4,5.1v17h-14.9v-76h14.9v33.9l-0.8,12.4H390.8z M525.4,375H507l-5.6-5.5c-6.2,4.3-13.2,6.5-21.1,6.5
	c-7.9,0-14.2-1.8-18.9-5.5c-4.7-3.6-7-8.6-7-14.8c0-4.5,1-8.3,3-11.4c2-3.1,5.3-6.1,10.1-8.8c-2.4-2.8-4.2-5.5-5.3-8
	c-1.1-2.6-1.7-5.3-1.7-8.4c0-4.9,1.9-8.9,5.7-12c3.8-3,8.9-4.5,15.2-4.5c6.1,0,10.9,1.4,14.5,4.2c3.6,2.8,5.4,6.6,5.4,11.3
	c0,3.9-1.1,7.4-3.4,10.6s-5.9,6.3-10.9,9.2l13.9,13.5c2.3-3.8,4.3-8.7,6-14.7h15.5c-1.2,4.4-2.8,8.7-4.8,12.9s-4.4,7.9-7,11.1
	L525.4,375z M470.1,354.3c0,2.8,1,5,3.1,6.7s4.8,2.5,8.1,2.5c4.1,0,7.8-1,11.1-3l-16.2-16.1c-1.9,1.4-3.4,2.9-4.5,4.5
	C470.6,350.4,470.1,352.2,470.1,354.3z M487.6,319.7c0-1.7-0.6-3.1-1.8-4.1s-2.7-1.5-4.5-1.5c-2.2,0-3.9,0.5-5.2,1.6
	s-1.9,2.5-1.9,4.4c0,2.9,1.5,6,4.6,9.5c2.8-1.6,4.9-3.1,6.4-4.6C486.9,323.5,487.6,321.7,487.6,319.7z M244.3,415.2
	c-5.7,0-10.1,2.1-13.2,6.4s-4.7,10.2-4.7,17.9c0,15.9,6,23.9,17.9,23.9c5,0,11.1-1.3,18.2-3.8v12.7c-5.9,2.4-12.4,3.7-19.6,3.7
	c-10.4,0-18.3-3.1-23.8-9.4s-8.3-15.3-8.3-27.1c0-7.4,1.4-13.9,4.1-19.5c2.7-5.6,6.6-9.9,11.6-12.8s11-4.5,17.8-4.5
	c6.9,0,13.9,1.7,20.9,5l-4.9,12.3c-2.7-1.3-5.4-2.4-8.1-3.3C249.6,415.7,246.9,415.2,244.3,415.2z M285.3,447.6
	c0,5.4,0.9,9.5,2.7,12.3c1.8,2.8,4.7,4.2,8.7,4.2c4,0,6.8-1.4,8.6-4.1c1.7-2.8,2.6-6.8,2.6-12.3c0-5.4-0.9-9.5-2.6-12.2
	s-4.6-4.1-8.6-4.1c-4,0-6.8,1.3-8.6,4S285.3,442.2,285.3,447.6z M323,447.6c0,8.9-2.3,15.8-7,20.8c-4.7,5-11.2,7.5-19.6,7.5
	c-5.2,0-9.9-1.1-13.9-3.4c-4-2.3-7.1-5.6-9.2-9.9c-2.1-4.3-3.2-9.3-3.2-15c0-8.9,2.3-15.9,7-20.8c4.7-4.9,11.2-7.4,19.6-7.4
	c5.2,0,9.9,1.1,13.9,3.4c4,2.3,7.1,5.6,9.2,9.8S323,441.9,323,447.6z M347.1,475h-14.9v-76h14.9V475z M374.5,475h-14.9v-76h14.9V475
	z M409.6,430c-3.2,0-5.6,1-7.4,3c-1.8,2-2.8,4.8-3.1,8.5H420c-0.1-3.7-1-6.5-2.9-8.5S412.7,430,409.6,430z M411.7,476
	c-8.8,0-15.7-2.4-20.6-7.3c-4.9-4.9-7.4-11.7-7.4-20.6c0-9.1,2.3-16.2,6.9-21.2c4.6-5,10.9-7.5,19-7.5c7.7,0,13.7,2.2,18,6.6
	c4.3,4.4,6.4,10.5,6.4,18.2v7.2h-35.2c0.2,4.2,1.4,7.5,3.8,9.9s5.6,3.6,9.9,3.6c3.3,0,6.4-0.3,9.3-1s6-1.8,9.2-3.3v11.5
	c-2.6,1.3-5.4,2.3-8.3,2.9C419.6,475.7,416,476,411.7,476z M465.1,476c-17,0-25.5-9.3-25.5-28c0-9.3,2.3-16.4,6.9-21.3
	c4.6-4.9,11.2-7.3,19.9-7.3c6.3,0,12,1.2,17,3.7l-4.4,11.5c-2.3-0.9-4.5-1.7-6.5-2.3c-2-0.6-4-0.9-6.1-0.9
	c-7.7,0-11.6,5.5-11.6,16.5c0,10.7,3.9,16,11.6,16c2.9,0,5.5-0.4,8-1.1s4.9-2,7.3-3.6v12.7c-2.4,1.5-4.8,2.6-7.3,3.2
	C471.9,475.7,468.8,476,465.1,476z M514.2,464.1c2.6,0,5.7-0.6,9.4-1.7v11.1c-3.7,1.7-8.3,2.5-13.7,2.5c-6,0-10.3-1.5-13-4.5
	c-2.7-3-4.1-7.5-4.1-13.5v-26.3h-7.1v-6.3l8.2-5l4.3-11.5h9.5v11.6H523v11.2h-15.3v26.3c0,2.1,0.6,3.7,1.8,4.7
	C510.7,463.6,512.3,464.1,514.2,464.1z M557.2,416.3c0,1.2-0.2,2.1-0.7,2.9c-0.4,0.8-1.2,1.4-2.2,1.9l3.9,7.2h-5.8l-2.9-6.4h-0.7
	v6.4h-5.6v-17.5h5.8C554.5,410.9,557.2,412.7,557.2,416.3z M548.9,418.5h0.2c0.8,0,1.4-0.1,1.8-0.4c0.4-0.3,0.7-0.8,0.7-1.5
	c0-0.6-0.2-1.1-0.5-1.3c-0.4-0.3-1-0.4-1.9-0.4h-0.3V418.5z M535,420c0-2.7,0.7-5.2,2-7.5c1.3-2.3,3.2-4.2,5.5-5.5
	c2.3-1.3,4.8-2,7.5-2c2.6,0,5.1,0.6,7.4,1.9c2.3,1.3,4.1,3.1,5.5,5.4c1.4,2.3,2.1,4.9,2.1,7.6c0,2.7-0.7,5.2-2,7.5
	c-1.3,2.3-3.2,4.1-5.4,5.5c-2.3,1.3-4.8,2-7.5,2c-2.8,0-5.3-0.7-7.6-2.1c-2.3-1.4-4.1-3.2-5.4-5.5C535.6,425.1,535,422.6,535,420z
	 M538.3,420c0,2.1,0.5,4.1,1.6,5.9c1.1,1.8,2.5,3.3,4.3,4.3c1.8,1,3.8,1.5,5.8,1.5c2.1,0,4.1-0.5,5.9-1.6c1.8-1,3.2-2.5,4.3-4.3
	s1.6-3.8,1.6-5.9c0-2.1-0.5-4-1.5-5.8c-1-1.8-2.5-3.2-4.3-4.3c-1.8-1.1-3.8-1.6-5.9-1.6c-2.1,0-4.1,0.5-5.9,1.6
	c-1.8,1-3.2,2.5-4.3,4.3S538.3,417.9,538.3,420z"/>
</svg>
