<?xml version="1.0" encoding="utf-8"?>
<!-- Generator: Adobe Illustrator 24.0.1, SVG Export Plug-In . SVG Version: 6.00 Build 0)  -->
<svg version="1.1" id="PICTOS_vectos" xmlns="http://www.w3.org/2000/svg" xmlns:xlink="http://www.w3.org/1999/xlink" x="0px"
	 y="0px" viewBox="0 0 44.6 44.6" style="enable-background:new 0 0 44.6 44.6;" xml:space="preserve">
<style type="text/css">
	.st0{fill:#25465F;}
</style>
<path class="st0" d="M19.1,24c1.2-0.4,2-1.4,2-2.6c0-1.6-1.1-2.6-3-2.6c-1.5-0.1-2.9,1-3.1,2.6l1.9,0.3c0.1-0.8,0.5-1.3,1.2-1.3
	c0.5-0.1,1,0.3,1.1,0.8c0,0.1,0,0.1,0,0.2c0,0.9-0.8,1.1-2,1.7c-1.2,0.4-2,1.6-2,2.8v1h5.9v-1.7h-3.9C17.3,24.7,18.2,24.5,19.1,24z"
	/>
<path class="st0" d="M28.9,27v-4.2c0.1-1.2-0.8-2.2-1.9-2.3c-0.1,0-0.2,0-0.3,0c-0.6,0-1.2,0.2-1.6,0.7v-2.7h-1.8V27H25v-3.9
	c0-0.6,0.4-0.9,1.1-0.9c0.5-0.1,0.9,0.2,1,0.7c0,0.1,0,0.2,0,0.2V27H28.9z"/>
<path class="st0" d="M8.4,43c-0.4,0-0.6-0.2-0.6-0.9s0.2-0.9,0.6-0.9s0.4,0.1,0.5,0.5l0.7-0.1c-0.1-0.6-0.6-0.9-1.2-0.9
	c-0.8,0-1.3,0.5-1.3,1.5s0.5,1.5,1.2,1.5c0.6,0.1,1.1-0.3,1.2-0.9l-0.6-0.1C8.9,42.8,8.7,43,8.4,43C8.4,43,8.4,43,8.4,43z"/>
<path class="st0" d="M10.4,42.8v-2.2H9.8V43c0,0.3,0.2,0.6,0.5,0.6c0,0,0.1,0,0.1,0h0.3V43h-0.1C10.5,43,10.4,42.9,10.4,42.8z"/>
<rect x="11" y="41.3" class="st0" width="0.6" height="2.2"/>
<path class="st0" d="M11.3,40.5c-0.2,0-0.4,0.1-0.4,0.3c0,0,0,0,0,0c0,0.2,0.2,0.4,0.4,0.4c0,0,0,0,0,0c0.2,0,0.4-0.1,0.4-0.3
	c0,0,0,0,0,0C11.7,40.7,11.6,40.5,11.3,40.5C11.3,40.5,11.3,40.5,11.3,40.5z"/>
<path class="st0" d="M13.1,43c-0.3,0-0.4-0.2-0.4-0.6s0.1-0.6,0.4-0.6c0.2,0,0.3,0.1,0.3,0.3c0,0,0,0,0,0L14,42
	c-0.1-0.5-0.5-0.8-1-0.8c0,0,0,0,0,0c-0.6,0-1,0.4-1,1c0,0.1,0,0.1,0,0.2c0,0.8,0.4,1.2,1.1,1.2c0.5,0,0.9-0.3,1-0.8l-0.6-0.1
	C13.5,42.9,13.3,43,13.1,43C13.1,43,13.1,43,13.1,43z"/>
<path class="st0" d="M16.4,41.3h-0.7L15,42.1v-1.5h-0.6v3H15v-0.6c0,0,0,0,0-0.1l0.3-0.3 M15.4,42.6l0.4,1h0.7L15.8,42L15.4,42.6z"
	/>
<path class="st0" d="M19.9,42.1l-0.6-0.1c0,0.2-0.1,0.3-0.1,0.5l-0.4-0.4c0.4-0.2,0.6-0.4,0.6-0.7c0-0.4-0.3-0.7-0.7-0.7
	c0,0-0.1,0-0.1,0c-0.5,0-0.9,0.3-0.9,0.7c0,0.2,0.1,0.5,0.3,0.6c-0.3,0.1-0.5,0.4-0.5,0.8c0,0.5,0.4,0.8,1,0.8
	c0.3,0,0.5-0.1,0.8-0.2l0.2,0.2h0.8L19.6,43C19.8,42.7,19.9,42.4,19.9,42.1z M18.5,41.1c0.1,0,0.2,0.1,0.3,0.2c0,0,0,0,0,0.1
	c0,0.1-0.1,0.2-0.3,0.3c-0.1-0.1-0.2-0.2-0.2-0.3C18.3,41.3,18.4,41.2,18.5,41.1C18.5,41.2,18.5,41.2,18.5,41.1L18.5,41.1z M18.5,43
	c-0.3,0-0.4-0.1-0.4-0.3c0-0.1,0.1-0.3,0.2-0.3l0.6,0.6C18.8,43,18.6,43,18.5,43L18.5,43z"/>
<path class="st0" d="M22.4,43c-0.4,0-0.6-0.2-0.6-0.9s0.2-0.9,0.6-0.9c0.3,0,0.5,0.2,0.5,0.4c0,0,0,0,0,0l0.7-0.1
	c-0.1-0.6-0.6-0.9-1.2-0.9c-0.7,0-1.3,0.6-1.3,1.3c0,0.1,0,0.1,0,0.2c0,0.9,0.5,1.5,1.2,1.5c0.6,0.1,1.1-0.3,1.2-0.9l-0.6-0.1
	C22.9,42.8,22.7,43,22.4,43C22.4,43,22.4,43,22.4,43z"/>
<path class="st0" d="M24.8,41.3c-0.6,0-1,0.4-1.1,0.9c0,0.1,0,0.2,0,0.2c-0.1,0.6,0.4,1.1,1,1.2c0.6,0.1,1.1-0.4,1.2-1
	c0-0.1,0-0.1,0-0.2c0.1-0.5-0.3-1.1-0.8-1.2C25,41.3,24.9,41.3,24.8,41.3z M24.8,43c-0.3,0-0.4-0.2-0.4-0.6s0.1-0.6,0.4-0.6
	s0.4,0.2,0.4,0.6S25.1,43,24.8,43L24.8,43z"/>
<path class="st0" d="M26.8,42.8v-2.2h-0.6V43c0,0.3,0.2,0.6,0.5,0.6c0,0,0.1,0,0.1,0h0.3V43H27C26.9,43,26.8,42.9,26.8,42.8z"/>
<path class="st0" d="M28,42.8v-2.2h-0.6V43c0,0.3,0.2,0.6,0.5,0.6c0,0,0.1,0,0.1,0h0.3V43h-0.1C28,43,28,42.9,28,42.8z"/>
<path class="st0" d="M30.5,42.3c0-0.6-0.4-1-1-1c-0.5-0.1-1,0.4-1.1,0.9c0,0.1,0,0.2,0,0.2c-0.1,0.5,0.3,1.1,0.8,1.2
	c0.1,0,0.2,0,0.3,0c0.5,0.1,0.9-0.2,1-0.7L30,42.8c0,0.2-0.2,0.3-0.4,0.3s-0.4-0.1-0.5-0.5h1.3C30.5,42.6,30.5,42.5,30.5,42.3z
	 M29.1,42.2c0-0.2,0.2-0.4,0.4-0.4c0,0,0,0,0,0c0.2,0,0.4,0.1,0.4,0.3c0,0,0,0,0,0H29.1z"/>
<path class="st0" d="M31.8,43c-0.3,0-0.4-0.2-0.4-0.6s0.1-0.6,0.4-0.6c0.2,0,0.3,0.1,0.3,0.3c0,0,0,0,0,0l0.6-0.1
	c-0.1-0.5-0.5-0.8-1-0.8c0,0,0,0,0,0c-0.6,0-1,0.4-1.1,0.9c0,0.1,0,0.2,0,0.2c0,0.8,0.4,1.2,1.1,1.2c0.5,0,0.9-0.3,1-0.8l-0.6-0.1
	C32.2,42.8,32,43,31.8,43C31.9,43,31.9,43,31.8,43z"/>
<path class="st0" d="M33.9,40.8h-0.5l-0.1,0.4c0,0.1-0.1,0.1-0.2,0.1h-0.2v0.5h0.3V43c0,0.3,0.2,0.6,0.5,0.6c0,0,0.1,0,0.1,0h0.5V43
	h-0.3c-0.1,0-0.2-0.1-0.2-0.2v-0.9h0.5v-0.5h-0.5V40.8z"/>
<path class="st0" d="M35.8,40.5c-0.7,0-1.2,0.6-1.2,1.3c0,0.7,0.6,1.2,1.3,1.2c0.7,0,1.2-0.6,1.2-1.3C37.1,41.1,36.6,40.5,35.8,40.5
	C35.9,40.5,35.8,40.5,35.8,40.5z M35.8,42.8c-0.6,0-1-0.4-1-1s0.4-1,1-1s1,0.4,1,1c0,0.5-0.3,1-0.9,1C35.9,42.8,35.9,42.8,35.8,42.8
	z"/>
<path class="st0" d="M36.4,41.5c0-0.2-0.1-0.4-0.4-0.4c0,0,0,0,0,0h-0.7v1.3h0.3V42h0.2c0,0,0,0,0.1,0.1l0.2,0.4h0.4l-0.2-0.5
	C36.4,41.8,36.4,41.7,36.4,41.5z M36,41.7h-0.3v-0.3H36c0.1,0,0.1,0,0.1,0.1c0,0,0,0,0,0C36.1,41.6,36,41.6,36,41.7
	C36,41.7,36,41.7,36,41.7z"/>
<path class="st0" d="M37.6,8.4l-1.1-1c0,0-0.1-0.1-0.1-0.1h-0.1l-1.1-1c-0.6-0.6-1.6-0.5-2.1,0.1s-0.5,1.6,0.1,2.1l0.1,0.1l-1.7,2.1
	c-2.5-2-5.4-3.2-8.6-3.5V5.4c0,0,0-0.1,0-0.1c1.8-0.3,3.1-1.1,3.1-2.1c0-1.3-2-2.3-4.6-2.3s-4.6,1-4.6,2.2c0,1,1.3,1.8,3.2,2.1
	c0,0,0,0.1,0,0.2v1.8C12.3,8.1,6.3,14.5,6,22.4c0,0.1,0,0.2,0,0.3c0,0,0,0.1,0,0.1s0,0.1,0,0.2c0,8.5,6.8,15.5,15.3,15.7h0.2h0.2
	c3.1,0,6.2-0.9,8.8-2.7c0.7-0.5,0.9-1.4,0.4-2.1c-0.5-0.7-1.4-0.9-2.1-0.4c-1.8,1.2-3.8,1.9-5.9,2.1v-2c0-0.8-0.7-1.5-1.5-1.5
	S20,32.8,20,33.6v2c-5.9-0.8-10.4-5.5-11-11.4h2.3c0.8,0,1.5-0.7,1.5-1.5s-0.7-1.5-1.5-1.5H9.2c0.8-5.7,5.2-10.1,10.9-10.9v2.5
	c0,0.8,0.7,1.5,1.5,1.5s1.5-0.7,1.5-1.5v-2.5c3.8,0.4,7.2,2.4,9.3,5.6c0.5,0.7,1.4,0.9,2.1,0.4c0.7-0.5,0.9-1.4,0.4-2.1
	c-0.3-0.5-0.7-0.9-1-1.4l1.8-2.2l0.1,0.1c0.6,0.6,1.6,0.5,2.1-0.1S38.3,8.9,37.6,8.4L37.6,8.4z"/>
</svg>
