<?xml version="1.0" encoding="utf-8"?>
<!-- Generator: Adobe Illustrator 24.0.1, SVG Export Plug-In . SVG Version: 6.00 Build 0)  -->
<svg version="1.1" id="PICTOS_vectos" xmlns="http://www.w3.org/2000/svg" xmlns:xlink="http://www.w3.org/1999/xlink" x="0px"
	 y="0px" viewBox="0 0 52.8 52.8" style="enable-background:new 0 0 52.8 52.8;" xml:space="preserve">
<style type="text/css">
	.st0{fill:#25465F;}
</style>
<path class="st0" d="M51.8,19.6c-0.2-1.4-0.6-2.7-1.4-3.9c0-0.1-0.1-0.2-0.2-0.3l-7.5-9.8C41.9,4.6,40.6,4,39.2,4H13.4
	C12,4,10.7,4.7,9.9,5.8l-7.4,10c-0.1,0.1-0.1,0.2-0.2,0.3c-0.7,1.2-1.2,2.5-1.3,3.8c0,2.9,2,5.4,4.8,6.1v19.2C5.8,46.7,7,48,8.6,48
	h35.6c1.5,0,2.8-1.3,2.8-2.8V25.7C49.8,25,51.8,22.5,51.8,19.6L51.8,19.6z M8.8,45V26c1.1-0.3,2.2-0.9,3-1.7
	c0.1-0.1,0.2-0.2,0.3-0.4c1.2,1.4,3,2.2,4.8,2.2c1.8,0,3.6-0.8,4.8-2.2c0.1,0.1,0.2,0.2,0.4,0.4c2.5,2.4,6.4,2.4,8.9,0
	c0.1-0.1,0.2-0.2,0.3-0.4c1.2,1.4,2.9,2.2,4.8,2.2c1.7,0,3.3-0.7,4.4-1.9c0.1-0.1,0.2-0.2,0.3-0.4c0.8,1,2,1.7,3.2,2V45H8.8z
	 M47.9,21.9c-1.3,1.3-3.3,1.3-4.6,0c-0.6-0.6-1-1.4-1-2.3l0,0c0-0.8-0.7-1.5-1.5-1.5l0,0c-0.8,0-1.5,0.7-1.5,1.5c0,0,0,0,0,0l0,0
	c0,1.8-1.5,3.3-3.3,3.3c-1.8,0-3.3-1.5-3.3-3.3c0-0.8-0.7-1.5-1.5-1.5c0,0,0,0,0,0c-0.8,0-1.5,0.7-1.5,1.5c0,0,0,0,0,0l0,0
	c0,1.8-1.4,3.3-3.2,3.3c0,0,0,0,0,0l0,0c-0.9,0-1.7-0.3-2.3-0.9c-0.6-0.6-1-1.4-1-2.3c0-0.8-0.7-1.5-1.5-1.5l0,0
	c-0.8,0-1.5,0.7-1.5,1.5c0,0,0,0,0,0l0,0c0,1.8-1.5,3.3-3.3,3.3c-1.8,0-3.3-1.4-3.3-3.2c0,0,0,0,0-0.1c0-0.8-0.7-1.5-1.5-1.5l0,0
	c-0.8,0-1.5,0.7-1.5,1.5c0,0,0,0,0,0l0,0c0,1.8-1.4,3.3-3.3,3.3c0,0,0,0,0,0l0,0c-0.9,0-1.7-0.3-2.3-0.9c-0.6-0.6-1-1.4-1-2.3
	c0.2-0.9,0.5-1.7,1-2.4l0.1-0.1l7.2-9.8C12.6,7.2,13,7,13.4,7h25.8c0.4,0,0.8,0.2,1.1,0.5l7.4,9.6l0,0c0.5,0.7,0.8,1.5,1,2.4
	C48.8,20.4,48.5,21.3,47.9,21.9z"/>
<path class="st0" d="M31,31.8c0-1.2-2.1-2.2-4.6-2.3s-4.6,1-4.7,2.2c0,1.2,2.2,2.3,4.8,2.3S31,33,31,31.8z"/>
<path class="st0" d="M28.4,36.1c-1.5,2.1-1.8,4.3-0.8,5s3-0.4,4.5-2.5c1.5-2.1,1.8-4.4,0.8-5.1S29.9,34,28.4,36.1z"/>
<path class="st0" d="M19.9,33.5c-1,0.7-0.6,3,0.8,5.1s3.5,3.2,4.5,2.5s0.6-3-0.9-5.1S20.9,32.8,19.9,33.5z"/>
</svg>
