<?xml version="1.0" encoding="utf-8"?>
<!-- Generator: Adobe Illustrator 24.0.1, SVG Export Plug-In . SVG Version: 6.00 Build 0)  -->
<svg version="1.1" id="PICTOS_vectos" xmlns="http://www.w3.org/2000/svg" xmlns:xlink="http://www.w3.org/1999/xlink" x="0px"
	 y="0px" viewBox="0 0 45.9 45.9" style="enable-background:new 0 0 45.9 45.9;" xml:space="preserve">
<style type="text/css">
	.st0{fill:#25465F;}
</style>
<path class="st0" d="M23,26c-1.1,0.1-2-0.6-2.2-1.7h2.8V23h-3c0-0.1,0-0.3,0-0.5s0-0.3,0-0.5h3v-1.3h-2.8c0.1-1,1.1-1.8,2.1-1.7
	c1-0.1,1.9,0.7,2,1.7l2.6-0.6c-0.4-2.2-2.3-3.7-4.5-3.5c-2.5-0.1-4.6,1.6-5,4.1h-1.4v1.4h1.2c0,0.1,0,0.3,0,0.5s0,0.3,0,0.5h-1.2
	v1.4H18c0.3,2.5,2.4,4.3,4.9,4.1c2.7,0,4.2-1.2,4.8-3.5l-2.6-0.5C24.9,25.4,24,26.1,23,26C23,26,23,26,23,26z"/>
<path class="st0" d="M14,14c0.9-0.9,0.1-3.1-1.7-4.9S8.3,6.5,7.4,7.4s-0.1,3,1.7,4.9S13.1,14.9,14,14z"/>
<path class="st0" d="M31.9,31.9c-0.9,0.9-0.1,3,1.7,4.9s4,2.6,4.8,1.7s0.1-3.1-1.7-4.9C34.9,31.7,32.8,31,31.9,31.9z"/>
<path class="st0" d="M36.8,12.2c1.8-1.8,2.5-3.9,1.7-4.8s-3-0.1-4.9,1.7s-2.6,4-1.7,4.9S35,14,36.8,12.2z"/>
<path class="st0" d="M9.1,33.6c-1.8,1.8-2.6,4-1.7,4.8s3.1,0.1,4.9-1.7s2.6-3.9,1.7-4.8C13.1,31,11,31.8,9.1,33.6z"/>
<path class="st0" d="M40.3,20.7c-2.6,0-4.7,1-4.7,2.2s2.1,2.2,4.7,2.2s4.6-1,4.6-2.2S42.8,20.7,40.3,20.7z"/>
<path class="st0" d="M10.3,23c0-1.2-2.1-2.2-4.6-2.3S1,21.7,1,22.9s2.1,2.2,4.7,2.2S10.3,24.2,10.3,23z"/>
<path class="st0" d="M23,35.6c-1.2,0-2.2,2.1-2.2,4.7s1,4.6,2.2,4.6s2.2-2.1,2.3-4.6S24.2,35.6,23,35.6z"/>
<path class="st0" d="M22.9,10.3c1.2,0,2.2-2.1,2.3-4.6S24.2,1,23,1s-2.2,2.1-2.2,4.7S21.7,10.3,22.9,10.3z"/>
<path class="st0" d="M22.8,11.1c-6.3,0-11.5,5.1-11.5,11.5S16.5,34,22.8,34s11.5-5.1,11.5-11.4c0,0,0,0,0,0
	C34.3,16.2,29.1,11.1,22.8,11.1z M22.8,31c-4.7,0-8.5-3.8-8.5-8.4s3.8-8.5,8.4-8.5c4.7,0,8.5,3.8,8.5,8.4c0,0,0,0,0,0
	C31.3,27.2,27.5,31,22.8,31L22.8,31z"/>
</svg>
