<?xml version="1.0" encoding="utf-8"?>
<!-- Generator: Adobe Illustrator 24.0.1, SVG Export Plug-In . SVG Version: 6.00 Build 0)  -->
<svg version="1.1" id="PICTOS_vectos" xmlns="http://www.w3.org/2000/svg" xmlns:xlink="http://www.w3.org/1999/xlink" x="0px"
	 y="0px" viewBox="0 0 46.1 46.1" style="enable-background:new 0 0 46.1 46.1;" xml:space="preserve">
<style type="text/css">
	.st0{fill:#25465F;}
</style>
<path class="st0" d="M40.8,20.6c-2.6,0-4.7,1-4.7,2.2s2.1,2.2,4.7,2.2s4.6-1,4.6-2.2S43.4,20.7,40.8,20.6z"/>
<path class="st0" d="M6.3,17.3c0.8,0.3,1.7,0,2-0.8c0,0,0,0,0,0c1.7-4.1,4.9-7.3,9-9c4.2-1.8,9-1.8,13.2,0c3.1,1.3,5.7,3.4,7.5,6.2
	l-2.2-0.6c-0.8-0.2-1.6,0.2-1.9,1c-0.2,0.8,0.2,1.6,1,1.9c0,0,0.1,0,0.1,0l5.5,1.4c0.1,0,0.3,0,0.4,0c0.7,0,1.3-0.5,1.5-1.1l1.4-5.5
	c0.3-0.8-0.2-1.6-1-1.9c-0.8-0.3-1.6,0.2-1.9,1c0,0.1,0,0.1,0,0.2L40.4,12c-2.2-3.2-5.2-5.7-8.8-7.2c-5-2.1-10.6-2.1-15.6,0
	c-2.4,1-4.5,2.5-6.4,4.3c-1.8,1.8-3.3,4-4.3,6.3C5.2,16.1,5.5,17,6.3,17.3z"/>
<path class="st0" d="M41.8,27.9c-0.8-0.3-1.6,0.1-1.9,0.9c0,0,0,0,0,0c-3.3,8.8-13.1,13.3-21.9,10c-4.1-1.5-7.5-4.6-9.4-8.5l0,0
	c-0.5-1-0.9-2-1.1-3.1l1.6,1.2c0.7,0.5,1.6,0.4,2.1-0.3c0.5-0.7,0.4-1.6-0.3-2.1l0,0l-4.5-3.4c-0.5-0.4-1.3-0.4-1.8,0l0,0l-0.1,0.1
	c0,0-0.1,0.1-0.1,0.1l0,0L1,27.5c-0.5,0.7-0.4,1.6,0.3,2.1c0.3,0.2,0.6,0.3,0.9,0.3c0.5,0,0.9-0.2,1.2-0.6l1.2-1.6
	C4.9,29,5.3,30.3,6,31.6l0,0c3.3,6.9,10.3,11.3,18,11.3h1c8-0.4,15-5.5,17.8-13C43,29.1,42.6,28.2,41.8,27.9
	C41.8,27.9,41.8,27.9,41.8,27.9z"/>
</svg>
