<?xml version="1.0" encoding="utf-8"?>
<!-- Generator: Adobe Illustrator 24.0.1, SVG Export Plug-In . SVG Version: 6.00 Build 0)  -->
<svg version="1.1" id="PICTOS_vectos" xmlns="http://www.w3.org/2000/svg" xmlns:xlink="http://www.w3.org/1999/xlink" x="0px"
	 y="0px" viewBox="0 0 46 46" style="enable-background:new 0 0 46 46;" xml:space="preserve">
<style type="text/css">
	.st0{fill:#25465F;}
</style>
<path class="st0" d="M39.8,29.1c-2.5-0.5-4.7,0.1-4.9,1.4s1.7,2.6,4.2,3s4.8-0.2,5-1.4C44.3,30.9,42.3,29.5,39.8,29.1z"/>
<path class="st0" d="M8.8,21.1c1.2-1.6,1.9-3.5,1.9-5.5c0-4.9-4-8.8-8.8-8.8c-0.8,0-1.5,0.7-1.5,1.5c0,0.8,0.7,1.5,1.5,1.5
	c3.2-0.1,5.9,2.4,6.1,5.6s-2.4,5.9-5.6,6.1c-0.2,0-0.3,0-0.5,0c-0.8,0-1.5,0.7-1.5,1.5s0.7,1.5,1.5,1.5c1.6,0,3.2-0.4,4.6-1.3
	c2.8,1.9,5.3,5.6,7.3,10.5c-1,0.8-4,2.6-11.8,2.6c-0.8,0-1.5,0.7-1.5,1.5s0.7,1.5,1.5,1.5c12.2,0,14.6-4.1,14.9-4.6
	c0.2-0.4,0.2-0.8,0.1-1.2C14.8,27.8,12.1,23.6,8.8,21.1z"/>
<path class="st0" d="M42.9,21.4c-3.2,0.1-5.9-2.4-6.1-5.6c-0.1-3.2,2.4-5.9,5.6-6.1c0.2,0,0.3,0,0.5,0c0.8,0,1.5-0.7,1.5-1.5
	s-0.7-1.5-1.5-1.5c-4.9,0-8.8,3.9-8.9,8.8c0,2,0.7,4,1.9,5.6c-3.2,2.5-6,6.7-8.1,12.3c-0.1,0.4-0.1,0.8,0.1,1.2
	c0.2,0.5,2.7,4.6,14.9,4.6c0.8,0,1.5-0.7,1.5-1.5s-0.7-1.5-1.5-1.5c-7.9,0-10.9-1.8-11.8-2.6c1.9-4.9,4.5-8.6,7.3-10.5
	c1.4,0.8,3,1.3,4.6,1.3c0.8,0,1.5-0.7,1.5-1.5S43.7,21.4,42.9,21.4L42.9,21.4z"/>
<path class="st0" d="M32.4,20.1c0-3.3-5.1-5-10.2-5S12,16.8,12,20.1c0,3,4.2,4.6,8.7,4.9v7.7c0,0.8,0.7,1.5,1.5,1.5s1.5-0.7,1.5-1.5
	V25C28.2,24.7,32.4,23,32.4,20.1z M15,20.1c0.1-0.6,2.8-2,7.2-2s7,1.4,7.2,2c-0.2,0.6-2.8,2-7.2,2S15.1,20.7,15,20.1z"/>
</svg>
