<?xml version="1.0" encoding="utf-8"?>
<!-- Generator: Adobe Illustrator 24.0.1, SVG Export Plug-In . SVG Version: 6.00 Build 0)  -->
<svg version="1.1" id="PICTOS_vectos" xmlns="http://www.w3.org/2000/svg" xmlns:xlink="http://www.w3.org/1999/xlink" x="0px"
	 y="0px" viewBox="0 0 46.1 46" style="enable-background:new 0 0 46.1 46;" xml:space="preserve">
<style type="text/css">
	.st0{fill:#25465F;}
</style>
<path class="st0" d="M9.7,1H3.9C2.3,1,1,2.3,1,3.9v5.8c0,1.6,1.3,2.9,2.9,2.9h5.8c1.6,0,2.9-1.3,2.9-2.9V3.9C12.6,2.3,11.3,1,9.7,1z
	 M9.6,9.6H4V4h5.6V9.6z"/>
<path class="st0" d="M25.3,1h-5.8c-1.6,0-2.9,1.3-2.9,2.9v5.8c0,1.6,1.3,2.9,2.9,2.9h5.8c1.6,0,2.9-1.3,2.9-2.9V3.9
	C28.2,2.3,26.9,1,25.3,1z M25.2,9.6h-5.6V4h5.6V9.6z"/>
<path class="st0" d="M35.1,12.6h5.8c1.6,0,2.9-1.3,2.9-2.9c0,0,0,0,0,0V3.9c0-1.6-1.3-2.9-2.9-2.9h0h-5.8c-1.6,0-2.9,1.3-2.9,2.9
	v5.8C32.2,11.3,33.5,12.6,35.1,12.6z M35.2,4h5.6v5.6h-5.6V4z"/>
<path class="st0" d="M9.7,17.1H3.9c-1.6,0-2.9,1.3-2.9,2.9c0,0,0,0,0,0v5.8c0,1.6,1.3,2.9,2.9,2.9l0,0h5.8c1.6,0,2.9-1.3,2.9-2.9
	v-5.8C12.6,18.5,11.3,17.1,9.7,17.1L9.7,17.1z M9.6,25.8H4v-5.6h5.6V25.8z"/>
<path class="st0" d="M25.3,17.1h-5.8c-1.6,0-2.9,1.3-2.9,2.9v5.8c0,1.6,1.3,2.9,2.9,2.9h5.8c1.6,0,2.9-1.3,2.9-2.9v-5.8
	C28.2,18.5,26.9,17.2,25.3,17.1z M25.2,25.8h-5.6v-5.6h5.6V25.8z"/>
<path class="st0" d="M35.1,28.8h5.8c1.6,0,2.9-1.3,2.9-2.9v-5.8c0-1.6-1.3-2.9-2.9-2.9h-5.8c-1.6,0-2.9,1.3-2.9,2.9v5.8
	C32.2,27.5,33.5,28.8,35.1,28.8z M35.2,20.1h5.6v5.6h-5.6L35.2,20.1z"/>
<path class="st0" d="M9.7,33.3H3.9c-1.6,0-2.9,1.3-2.9,2.9V42c0,1.6,1.3,2.9,2.9,2.9l0,0h5.8c1.6,0,2.9-1.3,2.9-2.9l0,0v-5.8
	C12.6,34.6,11.3,33.3,9.7,33.3z M9.6,41.9H4v-5.6h5.6V41.9z"/>
<path class="st0" d="M25.3,33.3h-5.8c-1.6,0-2.9,1.3-2.9,2.9l0,0V42c0,1.6,1.3,2.9,2.9,2.9h5.8c1.6,0,2.9-1.3,2.9-2.9v-5.8
	C28.2,34.6,26.9,33.3,25.3,33.3z M25.2,41.9h-5.6v-5.6h5.6V41.9z"/>
<path class="st0" d="M42.6,35.4c0-1.2-2.1-2.2-4.6-2.3s-4.7,1-4.7,2.2s2.1,2.2,4.7,2.2S42.6,36.7,42.6,35.4z"/>
<path class="st0" d="M44.5,37.2c-1-0.7-3,0.5-4.5,2.6s-1.8,4.3-0.8,5s3-0.4,4.5-2.6S45.5,37.9,44.5,37.2z"/>
<path class="st0" d="M31.4,37.1c-1,0.7-0.6,3,0.8,5.1c1.5,2.1,3.5,3.2,4.5,2.5s0.6-3-0.9-5.1S32.4,36.4,31.4,37.1z"/>
</svg>
