<?xml version="1.0" encoding="utf-8"?>
<!-- Generator: Adobe Illustrator 24.0.1, SVG Export Plug-In . SVG Version: 6.00 Build 0)  -->
<svg version="1.1" id="PICTOS_vectos" xmlns="http://www.w3.org/2000/svg" xmlns:xlink="http://www.w3.org/1999/xlink" x="0px"
	 y="0px" viewBox="0 0 46.1 46.1" style="enable-background:new 0 0 46.1 46.1;" xml:space="preserve">
<style type="text/css">
	.st0{fill:#25465F;}
</style>
<path class="st0" d="M25.2,23l7.7-7.7c0.6-0.6,0.6-1.5,0-2.1c-0.6-0.6-1.5-0.6-2.1,0l0,0L23,20.9l-7.7-7.7c-0.6-0.6-1.6-0.5-2.1,0.1
	c-0.5,0.6-0.5,1.5,0,2l7.7,7.7l-7.7,7.7c-0.6,0.6-0.6,1.5,0,2.1c0,0,0,0,0,0c0.6,0.6,1.5,0.6,2.1,0l7.7-7.7l7.7,7.8
	c0.6,0.6,1.5,0.6,2.1,0c0.6-0.6,0.6-1.5,0-2.1c0,0,0,0,0,0L25.2,23z"/>
</svg>
