<?xml version="1.0" encoding="utf-8"?>
<!-- Generator: Adobe Illustrator 24.0.1, SVG Export Plug-In . SVG Version: 6.00 Build 0)  -->
<svg version="1.1" id="PICTOS_vectos" xmlns="http://www.w3.org/2000/svg" xmlns:xlink="http://www.w3.org/1999/xlink" x="0px"
	 y="0px" viewBox="0 0 46.1 46.1" style="enable-background:new 0 0 46.1 46.1;" xml:space="preserve">
<style type="text/css">
	.st0{fill:#25465F;}
</style>
<path class="st0" d="M23,1C10.8,1,1,10.8,1,23s9.8,22,22,22s22-9.8,22-22S35.2,1,23,1z M23,42C12.5,42,4,33.5,4,23S12.5,4,23,4
	s19,8.5,19,19S33.5,42,23,42z"/>
<path class="st0" d="M32.9,13.1c-0.6-0.6-1.5-0.6-2.1,0L23,20.9l-7.7-7.7c-0.6-0.5-1.6-0.5-2.1,0.2c-0.5,0.6-0.5,1.4,0,2l7.7,7.7
	l-7.7,7.7c-0.6,0.6-0.6,1.5,0,2.1c0.6,0.6,1.5,0.6,2.1,0l7.7-7.7l7.7,7.7c0.6,0.6,1.5,0.6,2.1,0c0.6-0.6,0.6-1.5,0-2.1L25.1,23
	l7.7-7.7C33.4,14.7,33.4,13.7,32.9,13.1z"/>
</svg>
