<?xml version="1.0" encoding="utf-8"?>
<!-- Generator: Adobe Illustrator 24.0.1, SVG Export Plug-In . SVG Version: 6.00 Build 0)  -->
<svg version="1.1" id="PICTOS_vectos" xmlns="http://www.w3.org/2000/svg" xmlns:xlink="http://www.w3.org/1999/xlink" x="0px"
	 y="0px" viewBox="0 0 46.1 46.1" style="enable-background:new 0 0 46.1 46.1;" xml:space="preserve">
<style type="text/css">
	.st0{fill:#25465F;}
</style>
<path class="st0" d="M8.9,33.4c-1.8,1.8-2.6,3.9-1.8,4.8s3,0.2,4.9-1.6s2.6-4,1.8-4.8C13,30.8,10.7,31.6,8.9,33.4z"/>
<path class="st0" d="M42.5,9.4c0.2-0.1,0.4-0.3,0.5-0.6l1.8-3.4c0.3-0.6,0.2-1.3-0.3-1.8L43,2.1c-0.5-0.5-1.2-0.6-1.8-0.3l-3.4,1.8
	c-0.2,0.1-0.4,0.3-0.5,0.5l-1,1.4L23.4,16.8l-0.3-0.3c0-0.1-0.1-0.1-0.1-0.1c-0.1-0.1-0.2-0.2-0.3-0.3l-4-4.1c1-2.8,0.4-6-1.6-8.3
	c-2.3-2.5-5.9-3.3-9.1-2.1C7.3,1.8,6.9,2.7,7.2,3.5C7.3,3.7,7.4,3.9,7.5,4L11.2,8L9.3,9.8L5.6,5.7C5.3,5.4,4.8,5.2,4.3,5.2
	C3.8,5.3,3.4,5.6,3.2,6.1c-1.5,3-1,6.6,1.2,9.2c2.1,2.3,5.3,3.2,8.3,2.4l2.8,3l-12,9.8c-3.2,3-3.3,8-0.3,11.2
	c1.4,1.5,3.4,2.4,5.5,2.5H9c2,0,4-0.8,5.5-2.2l10.6-11.3l11.1,11.6c1.6,1.7,4.2,1.8,5.9,0.3s1.8-4.2,0.3-5.9L29.1,22.8L41,10.4
	L42.5,9.4z M41.6,5.1l-1.1,2l-0.3,0.2l-0.8-0.8l0.2-0.3L41.6,5.1z M14.1,14.8c-0.4-0.4-1.1-0.6-1.6-0.4c-2,0.9-4.4,0.4-5.9-1.2
	c-0.8-0.9-1.3-2.1-1.3-3.4l2.8,3.1c0.6,0.6,1.5,0.7,2.1,0.1l4.2-3.8c0.6-0.6,0.7-1.5,0.1-2.1L11.6,4c1.3,0.1,2.5,0.7,3.4,1.7
	c1.4,1.6,1.7,4,0.7,5.9c-0.3,0.6-0.2,1.2,0.3,1.7l3.7,3.9l-1.8,1.5L14.1,14.8z M12.3,39.8c-2.2,1.6-5.4,1.1-7-1.1
	c-1.3-1.8-1.3-4.3,0.2-6.1l13.1-10.7c0.1,0,0.1-0.1,0.2-0.1c0,0,0,0,0.1-0.1l2.9-2.4l5,5.2L12.3,39.8z M40.1,40.3
	c-0.5,0.4-1.3,0.4-1.7-0.1c0,0,0,0,0,0L27.1,28.4l1.6-1.7l11.4,11.9C40.6,39.1,40.5,39.9,40.1,40.3z M27.1,20.6L25.5,19L37.4,8.7
	l0.6,0.6L27.1,20.6z"/>
</svg>
