<?xml version="1.0" encoding="utf-8"?>
<!-- Generator: Adobe Illustrator 24.0.1, SVG Export Plug-In . SVG Version: 6.00 Build 0)  -->
<svg version="1.1" id="PICTOS_vectos" xmlns="http://www.w3.org/2000/svg" xmlns:xlink="http://www.w3.org/1999/xlink" x="0px"
	 y="0px" viewBox="0 0 46 46" style="enable-background:new 0 0 46 46;" xml:space="preserve">
<style type="text/css">
	.st0{fill:#25465F;}
</style>
<path class="st0" d="M36.6,1H9.4C8.7,1,8,1.2,7.4,1.6C6.8,2,6.3,2.6,6.1,3.2C5.9,3.7,5.8,4.1,5.8,4.6v36.7c0,0.5,0.1,1,0.3,1.4
	c0.4,0.9,1.1,1.6,1.9,1.9C8.4,44.9,8.9,45,9.4,45h27.2c2,0,3.6-1.6,3.7-3.7V4.6C40.2,2.6,38.6,1,36.6,1z M37.2,41.4
	c0,0.4-0.3,0.7-0.6,0.7c0,0,0,0,0,0H9.4c-0.4,0-0.6-0.3-0.6-0.7l0,0V4.6C8.8,4.3,9.1,4,9.4,4c0,0,0,0,0,0h27.2
	c0.4,0,0.7,0.3,0.7,0.6c0,0,0,0,0,0V41.4z"/>
<path class="st0" d="M22.9,18.2c1.6,0.1,3.1-0.4,4.3-1.4c0.1-0.1,0.2-0.3,0.3-0.4c0.1-0.3,0.1-0.6,0-0.9c-0.4-0.7-1.2-1.2-2-1.4
	c-0.5-0.2-1.1-0.3-1.7-0.3c-0.3,0-0.6,0-0.9,0c-0.7,0-1.5,0.1-2.2,0.3c-1,0.2-1.8,0.7-2.3,1.5c-0.1,0.1-0.1,0.3-0.1,0.5
	c0,0.2,0,0.3,0.1,0.4C18.9,17.5,20.7,18.2,22.9,18.2z"/>
<path class="st0" d="M30.9,23.7H15.1c-0.8,0-1.5,0.7-1.5,1.5s0.7,1.5,1.5,1.5h15.8c0.6,0,1.2-0.4,1.4-1c0.1-0.2,0.1-0.3,0.1-0.5
	C32.4,24.3,31.7,23.7,30.9,23.7z"/>
<path class="st0" d="M30.9,29.7H15.1c-0.8,0-1.5,0.7-1.5,1.5c0,0.8,0.7,1.5,1.5,1.5h15.8c0.6,0,1.2-0.4,1.4-1
	c0.1-0.2,0.1-0.3,0.1-0.5C32.4,30.3,31.7,29.7,30.9,29.7z"/>
</svg>
