<?xml version="1.0" encoding="utf-8"?>
<!-- Generator: Adobe Illustrator 24.0.1, SVG Export Plug-In . SVG Version: 6.00 Build 0)  -->
<svg version="1.1" id="PICTOS_vectos" xmlns="http://www.w3.org/2000/svg" xmlns:xlink="http://www.w3.org/1999/xlink" x="0px"
	 y="0px" viewBox="0 0 46 46" style="enable-background:new 0 0 46 46;" xml:space="preserve">
<style type="text/css">
	.st0{fill:#25465F;}
</style>
<path class="st0" d="M40.7,24.7c-1.2,0-2.2,2.1-2.3,4.6s1,4.6,2.2,4.7c1.2,0,2.2-2.1,2.2-4.7S41.9,24.8,40.7,24.7z"/>
<path class="st0" d="M44.2,16L23.5,7.9c-0.4-0.1-0.7-0.1-1.1,0L1.9,16c-0.8,0.3-1.1,1.2-0.8,1.9c0.2,0.4,0.5,0.7,0.8,0.8l7.8,3.1
	v9.4c0,4.3,7,7,13.4,7s13.4-2.7,13.4-6.9v-9.5l2.8-1.1v1.5c0,0.8,0.7,1.5,1.5,1.5s1.5-0.7,1.5-1.5v-2.7l2-0.8
	c0.8-0.3,1.1-1.2,0.8-1.9C44.9,16.5,44.5,16.2,44.2,16L44.2,16z M23,10.9l16.5,6.5l-5.2,2l0,0L23,23.9L6.5,17.4L23,10.9z M33.4,31.3
	c0,1.5-4.5,3.9-10.4,3.9s-10.4-2.4-10.4-3.9V23l9.9,3.9c0.4,0.1,0.7,0.1,1.1,0l9.8-3.9V31.3z"/>
</svg>
