<?xml version="1.0" encoding="utf-8"?>
<!-- Generator: Adobe Illustrator 24.0.1, SVG Export Plug-In . SVG Version: 6.00 Build 0)  -->
<svg version="1.1" id="PICTOS_vectos" xmlns="http://www.w3.org/2000/svg" xmlns:xlink="http://www.w3.org/1999/xlink" x="0px"
	 y="0px" viewBox="0 0 46.1 46.1" style="enable-background:new 0 0 46.1 46.1;" xml:space="preserve">
<style type="text/css">
	.st0{fill:#25465F;}
</style>
<path class="st0" d="M10.7,30.5c-1.5,2.1-1.8,4.3-0.8,5s3-0.4,4.5-2.5s1.8-4.4,0.8-5.1S12.2,28.4,10.7,30.5z"/>
<path class="st0" d="M31.4,30.5c-1.5,2.1-1.8,4.3-0.8,5s3-0.4,4.5-2.5s1.8-4.4,0.8-5.1S32.9,28.4,31.4,30.5z"/>
<path class="st0" d="M30.8,1H15.1C8.4,1,3,7,3,14.5v23.9c0,0.8,0.7,1.5,1.5,1.5h3.2v1.7c-0.1,1.8,1.3,3.3,3.1,3.4h2.5
	c1.8-0.1,3.2-1.6,3.2-3.4v-1.7h13v1.7c-0.1,1.8,1.3,3.3,3.1,3.4H35c1.8-0.1,3.2-1.6,3.2-3.4v-1.7h3.2c0.8,0,1.5-0.7,1.5-1.5V14.5
	C42.8,7,37.4,1,30.8,1z M13.4,41.5c0,0.1,0,0.3-0.1,0.4h-2.5c-0.1,0-0.2-0.2-0.2-0.4v-1.7h2.8V41.5z M35.2,41.5c0,0.1,0,0.3-0.2,0.4
	h-2.4c-0.1-0.1-0.2-0.2-0.2-0.4v-1.7h2.8V41.5z M39.8,36.9H6V14.5C6,8.7,10.1,4,15.1,4h15.7c5,0,9.1,4.7,9.1,10.5V36.9z"/>
<path class="st0" d="M15.1,13.1h15.6c0.9,0,1.7-0.8,1.7-1.7c0,0,0,0,0,0V7.2c0-0.9-0.8-1.7-1.7-1.7l0,0H15.1c-0.9,0-1.7,0.8-1.7,1.7
	l0,0v4.3C13.4,12.4,14.2,13.1,15.1,13.1C15.1,13.1,15.1,13.1,15.1,13.1z M16.4,8.5h13v1.6h-13L16.4,8.5z"/>
<path class="st0" d="M7.1,16.3v8.2c0,1.2,1,2.1,2.1,2.1c0,0,0,0,0,0h27.4c1.2,0,2.1-1,2.1-2.1v0v-8.2c0-1.2-1-2.1-2.1-2.1l0,0H9.2
	C8,14.2,7.1,15.1,7.1,16.3z M10.1,17.2h25.7v6.4H10.1L10.1,17.2z"/>
</svg>
