<?xml version="1.0" encoding="utf-8"?>
<!-- Generator: Adobe Illustrator 24.0.1, SVG Export Plug-In . SVG Version: 6.00 Build 0)  -->
<svg version="1.1" id="PICTOS_vectos" xmlns="http://www.w3.org/2000/svg" xmlns:xlink="http://www.w3.org/1999/xlink" x="0px"
	 y="0px" viewBox="0 0 46 46" style="enable-background:new 0 0 46 46;" xml:space="preserve">
<style type="text/css">
	.st0{fill:#25465F;}
</style>
<path class="st0" d="M23,16.6c-2.6,0-4.6,1-4.6,2.2c0,1.2,2.1,2.2,4.7,2.2s4.6-1,4.6-2.2S25.6,16.6,23,16.6z"/>
<path class="st0" d="M41.3,10.7h-9V6.2c0-0.8-0.7-1.5-1.5-1.5H15.1c-0.8,0-1.5,0.7-1.5,1.5v4.4h-9c-2,0-3.6,1.7-3.6,3.7v23.2
	c0,2,1.7,3.7,3.7,3.7h0h36.6c2,0,3.7-1.7,3.7-3.7l0,0V14.4C45,12.3,43.4,10.7,41.3,10.7L41.3,10.7z M16.6,7.7h12.7v2.9H16.6V7.7z
	 M42,37.5c0,0.4-0.3,0.7-0.7,0.7l0,0H4.7c-0.4,0-0.7-0.3-0.7-0.7l0,0V14.4c0-0.4,0.3-0.7,0.7-0.7h36.7c0.4,0,0.7,0.3,0.7,0.7
	c0,0,0,0,0,0L42,37.5z"/>
</svg>
