<?xml version="1.0" encoding="utf-8"?>
<!-- Generator: Adobe Illustrator 24.0.1, SVG Export Plug-In . SVG Version: 6.00 Build 0)  -->
<svg version="1.1" id="PICTOS_vectos" xmlns="http://www.w3.org/2000/svg" xmlns:xlink="http://www.w3.org/1999/xlink" x="0px"
	 y="0px" viewBox="0 0 46 46" style="enable-background:new 0 0 46 46;" xml:space="preserve">
<style type="text/css">
	.st0{fill:#25465F;}
</style>
<path class="st0" d="M9.5,18.4c-1.2,0-2.2,2.1-2.2,4.7s1,4.6,2.2,4.6s2.2-2.1,2.3-4.6S10.7,18.4,9.5,18.4z"/>
<path class="st0" d="M43.3,19.9c0.8,0,1.5-0.7,1.5-1.5v-3.6c0-1.9-1.6-3.5-3.5-3.5H4.5c-1.9,0-3.5,1.5-3.5,3.5c0,0,0,0,0,0v16.6
	c0,1.9,1.6,3.5,3.5,3.5h36.8c1.9,0,3.5-1.6,3.5-3.5v-3.6c0-0.8-0.7-1.5-1.5-1.5H43v-6.3H43.3z M41.8,16.9h-0.3
	c-0.8,0-1.5,0.7-1.5,1.5c0,0,0,0,0,0v9.3c0,0.8,0.7,1.5,1.5,1.5h0.3v2.1c0,0.3-0.2,0.5-0.5,0.5H4.5c-0.3,0-0.5-0.2-0.5-0.5V14.7
	c0-0.3,0.2-0.5,0.5-0.5h36.8c0.3,0,0.5,0.2,0.5,0.5V16.9z"/>
<path class="st0" d="M35.9,18.6H15.1c-0.4,0-0.8,0.3-0.8,0.8s0.3,0.8,0.8,0.8h20.8c0.4,0,0.8-0.3,0.8-0.8S36.3,18.6,35.9,18.6z"/>
<path class="st0" d="M35.9,22.7H15.1c-0.4,0-0.8,0.3-0.8,0.8s0.3,0.8,0.8,0.8h20.8c0.4,0,0.8-0.3,0.8-0.8S36.3,22.7,35.9,22.7z"/>
<path class="st0" d="M35.9,26.7H15.1c-0.4,0-0.8,0.3-0.8,0.8s0.3,0.8,0.8,0.8h20.8c0.4,0,0.8-0.3,0.8-0.8S36.3,26.7,35.9,26.7z"/>
</svg>
