<?xml version="1.0" encoding="utf-8"?>
<!-- Generator: Adobe Illustrator 24.0.1, SVG Export Plug-In . SVG Version: 6.00 Build 0)  -->
<svg version="1.1" id="PICTOS_vectos" xmlns="http://www.w3.org/2000/svg" xmlns:xlink="http://www.w3.org/1999/xlink" x="0px"
	 y="0px" viewBox="0 0 45.9 45.9" style="enable-background:new 0 0 45.9 45.9;" xml:space="preserve">
<style type="text/css">
	.st0{fill:#25465F;}
</style>
<path class="st0" d="M44.4,18L37,7.5c-0.8-1.1-2-1.7-3.3-1.7H5c-2.2,0-4,1.8-4,4v18.7c0,1.1,0.4,2.2,1.2,3c0.7,0.7,1.7,1,2.6,1H5
	c0.8,0,1.4-0.7,1.4-1.5c0-0.8-0.7-1.5-1.5-1.5c-0.2,0-0.4,0-0.6-0.2C4.1,29.1,4,28.8,4,28.5V9.8c0-0.6,0.4-1,1-1h28.7
	c0.3,0,0.6,0.2,0.8,0.4l7.4,10.5v8.8c0,0.6-0.4,1-1,1h-4.2c-0.8,0-1.5,0.7-1.5,1.5s0.7,1.5,1.5,1.5h4.2c2.2,0,4-1.8,4-4v-8.9
	C44.9,19,44.7,18.5,44.4,18z"/>
<path class="st0" d="M25.3,29.5h-9.1c-0.8,0-1.5,0.7-1.5,1.5s0.7,1.5,1.5,1.5h9.1c0.8,0,1.5-0.7,1.5-1.5S26.1,29.5,25.3,29.5z"/>
<path class="st0" d="M38.8,20.3c0.3-0.5,0.2-1.1-0.1-1.5l-4.2-6c-0.3-0.4-0.7-0.6-1.2-0.6h-6.4c-0.8,0-1.5,0.7-1.5,1.5v5.9
	c0,0.8,0.7,1.5,1.5,1.5h10.6C38,21.1,38.5,20.8,38.8,20.3z M28.4,18.1v-2.9h4.1l2.1,2.9L28.4,18.1z"/>
<path class="st0" d="M8.7,29.8c-1.5,2.1-1.8,4.3-0.8,5s3-0.4,4.5-2.5c1.5-2.1,1.8-4.4,0.8-5.1S10.2,27.7,8.7,29.8z"/>
<path class="st0" d="M29.1,29.8c-1.5,2.1-1.8,4.3-0.8,5s3-0.4,4.5-2.5c1.5-2.1,1.8-4.4,0.8-5.1S30.6,27.7,29.1,29.8z"/>
</svg>
