<?xml version="1.0" encoding="utf-8"?>
<!-- Generator: Adobe Illustrator 24.0.1, SVG Export Plug-In . SVG Version: 6.00 Build 0)  -->
<svg version="1.1" id="PICTOS_vectos" xmlns="http://www.w3.org/2000/svg" xmlns:xlink="http://www.w3.org/1999/xlink" x="0px"
	 y="0px" viewBox="0 0 46 46" style="enable-background:new 0 0 46 46;" xml:space="preserve">
<style type="text/css">
	.st0{fill:#25465F;}
</style>
<path class="st0" d="M32,15.1l-1.5-2c-0.1-0.1-0.3-0.2-0.5-0.2c-0.2,0.1-0.3,0.2-0.3,0.4l0,2.6l-2.4,0.8c-0.2,0.1-0.3,0.2-0.3,0.4
	c0,0.2,0.1,0.4,0.3,0.4l2.4,0.7l0,2.5c0,0.2,0.1,0.4,0.3,0.4h0.1c0.1,0,0.3-0.1,0.4-0.2l1.5-2.1l2.4,0.7c0.2,0.1,0.4,0,0.5-0.2
	c0.1-0.2,0.1-0.4,0-0.5l-1.5-2l1.4-2.1c0.1-0.2,0.1-0.5-0.1-0.6c-0.1-0.1-0.3-0.1-0.4-0.1L32,15.1z"/>
<path class="st0" d="M26.6,20.5c-0.8,0.6-1.7,0.9-2.7,0.9c-2.4,0-4.3-1.9-4.3-4.3c0-2.4,1.9-4.3,4.3-4.3c1,0,1.9,0.3,2.7,0.9
	c0.1,0.1,0.2,0.1,0.3,0.1l0,0c0.2,0,0.4-0.2,0.4-0.4c0-0.1,0-0.2-0.1-0.3C25,9.7,20.4,8.7,17,10.9s-4.4,6.8-2.2,10.2
	s6.8,4.4,10.2,2.2c0.9-0.6,1.6-1.3,2.2-2.2c0.1-0.2,0.1-0.4-0.1-0.6C27,20.4,26.8,20.4,26.6,20.5z"/>
<path class="st0" d="M5.6,40.6c-2.6,0-4.6,1-4.6,2.2s2.1,2.2,4.6,2.3s4.7-1,4.7-2.2S8.2,40.6,5.6,40.6z"/>
<path class="st0" d="M44.3,3.3c-0.4-0.3-1-0.3-1.5-0.1C36,6.7,30.6,4.9,24.8,3.1c-6-1.9-12.3-3.9-20.1,0.1C4.2,3.5,3.9,4,3.9,4.6
	v32.3c0,0.8,0.7,1.5,1.5,1.5s1.5-0.7,1.5-1.5v-6.3c6.4-2.9,11.6-1.2,17,0.5c3.5,1.1,7,2.2,10.9,2.2c3.3,0,6.5-0.8,9.3-2.3
	c0.5-0.3,0.8-0.8,0.8-1.3v-25C45,4.1,44.7,3.6,44.3,3.3z M42,28.7c-6.4,2.9-11.6,1.2-17.1-0.5c-3.5-1.1-7-2.2-10.9-2.2
	c-2.4,0-4.8,0.5-7.1,1.3V5.5c6.4-2.9,11.6-1.2,17,0.5s11.2,3.5,18,0.9L42,28.7z"/>
</svg>
