<?xml version="1.0" encoding="utf-8"?>
<!-- Generator: Adobe Illustrator 24.0.1, SVG Export Plug-In . SVG Version: 6.00 Build 0)  -->
<svg version="1.1" id="PICTOS_vectos" xmlns="http://www.w3.org/2000/svg" xmlns:xlink="http://www.w3.org/1999/xlink" x="0px"
	 y="0px" viewBox="0 0 46.1 46.1" style="enable-background:new 0 0 46.1 46.1;" xml:space="preserve">
<style type="text/css">
	.st0{fill:#25465F;}
</style>
<path class="st0" d="M20,26.4v-3h1.8v-2.5H20v-9.4h-3.8L9.4,21v2.4h7.5v3L20,26.4z M12.5,20.9l4.4-6.3v6.3H12.5z"/>
<path class="st0" d="M35.5,11.5h-3.7l-5.5,6.2v-6.2h-3.1v14.9h3.1v-4.2c0-0.2,0.1-0.5,0.2-0.7l1.8-2c0.1-0.1,0.2-0.2,0.3-0.1
	c0.1,0,0.2,0.1,0.2,0.2l3.3,6.8h3.5L31,16.7L35.5,11.5z"/>
<path class="st0" d="M23,28c-2.6,0-4.7,1-4.7,2.2s2.1,2.2,4.7,2.2s4.6-1,4.6-2.2S25.6,28,23,28z"/>
<path class="st0" d="M41.4,5H4.7C2.7,5,1,6.7,1,8.7v26.2c0,2,1.7,3.7,3.7,3.7h0h36.7c2,0,3.7-1.7,3.7-3.7c0,0,0,0,0,0V8.7
	C45.1,6.7,43.4,5,41.4,5L41.4,5z M42.1,34.9c0,0.4-0.3,0.7-0.7,0.7l0,0H4.7c-0.4,0-0.7-0.3-0.7-0.7l0,0V8.7C4,8.3,4.3,8,4.7,8h36.7
	c0.4,0,0.7,0.3,0.7,0.7v0V34.9z"/>
</svg>
