<?xml version="1.0" encoding="utf-8"?>
<!-- Generator: Adobe Illustrator 24.0.1, SVG Export Plug-In . SVG Version: 6.00 Build 0)  -->
<svg version="1.1" id="PICTOS_vectos" xmlns="http://www.w3.org/2000/svg" xmlns:xlink="http://www.w3.org/1999/xlink" x="0px"
	 y="0px" viewBox="0 0 46.1 46.1" style="enable-background:new 0 0 46.1 46.1;" xml:space="preserve">
<style type="text/css">
	.st0{fill:#25465F;}
</style>
<path class="st0" d="M21.5,23.4c0-1.8-1.2-3.3-2.9-3.8c1.4-0.5,2.4-1.8,2.4-3.4c0-2.5-2-4-5.4-4s-5.4,1.5-5.4,4
	c0,1.5,0.9,2.9,2.4,3.4c-1.7,0.4-3,2-2.9,3.8c0,2.8,2.2,4.3,5.9,4.3S21.5,26.1,21.5,23.4z M15.6,14.7c1.4,0,2.3,0.7,2.3,2
	s-0.9,1.9-2.3,1.9s-2.3-0.7-2.3-1.9S14.2,14.7,15.6,14.7z M15.6,25.3c-1.8,0-2.8-0.8-2.8-2.2s1-2.1,2.8-2.1s2.8,0.8,2.8,2.1
	S17.4,25.3,15.6,25.3z"/>
<path class="st0" d="M35.7,12.5H32l-5.5,6.2v-6.2h-3.1v14.9h3.1v-4.2c0-0.2,0.1-0.5,0.2-0.7l1.8-2c0.1-0.1,0.2-0.2,0.3-0.1
	c0.1,0,0.2,0.1,0.2,0.2l3.3,6.8h3.5l-4.7-9.8L35.7,12.5z"/>
<path class="st0" d="M23,29c-2.6,0-4.7,1-4.7,2.2s2.1,2.2,4.7,2.2s4.6-1,4.6-2.2S25.6,29,23,29z"/>
<path class="st0" d="M41.4,6H4.7C2.7,6,1,7.7,1,9.7v26.2c0,2,1.7,3.7,3.7,3.7h0h36.7c2,0,3.7-1.7,3.7-3.7c0,0,0,0,0,0V9.7
	C45.1,7.7,43.4,6,41.4,6L41.4,6z M42.1,35.9c0,0.4-0.3,0.7-0.7,0.7l0,0H4.7c-0.4,0-0.7-0.3-0.7-0.7l0,0V9.7C4,9.3,4.3,9,4.7,9h36.7
	c0.4,0,0.7,0.3,0.7,0.7l0,0V35.9z"/>
</svg>
