<?xml version="1.0" encoding="utf-8"?>
<!-- Generator: Adobe Illustrator 24.0.1, SVG Export Plug-In . SVG Version: 6.00 Build 0)  -->
<svg version="1.1" id="PICTOS_vectos" xmlns="http://www.w3.org/2000/svg" xmlns:xlink="http://www.w3.org/1999/xlink" x="0px"
	 y="0px" viewBox="0 0 46.1 46.1" style="enable-background:new 0 0 46.1 46.1;" xml:space="preserve">
<style type="text/css">
	.st0{fill:#25465F;}
</style>
<path class="st0" d="M41.4,5H4.7C2.7,5,1,6.7,1,8.7v24.2c0,2,1.7,3.7,3.7,3.7h0h8.6c-1.3,0.8-2.5,1.9-3.5,3.1
	c-0.5,0.6-0.4,1.6,0.2,2.1s1.6,0.4,2.1-0.2c2.7-3.1,6.7-4.9,10.8-4.8c4.2-0.1,8.3,1.7,11,4.9c0.3,0.4,0.7,0.6,1.2,0.6
	c0.3,0,0.7-0.1,0.9-0.3c0.6-0.5,0.8-1.4,0.3-2.1c-1-1.3-2.2-2.4-3.6-3.2h8.6c2,0,3.7-1.7,3.7-3.7c0,0,0,0,0,0V8.7
	C45.1,6.7,43.4,5,41.4,5z M42.1,32.9c0,0.4-0.3,0.7-0.7,0.7l0,0H4.7c-0.4,0-0.7-0.3-0.7-0.7l0,0V8.7C4,8.3,4.3,8,4.7,8h36.7
	c0.4,0,0.7,0.3,0.7,0.7v0V32.9z"/>
<path class="st0" d="M14.9,20.5c0.9-0.3,1.5-1.3,1.4-2.2c0-1.6-1.1-2.6-2.9-2.6H8.3v10.3h5.2c2,0,3.2-1.1,3.2-2.9
	C16.8,21.8,16,20.8,14.9,20.5z M10.7,17.7H13c0.5-0.1,0.9,0.3,1,0.7c0,0.1,0,0.2,0,0.3c0.1,0.5-0.3,0.9-0.7,1c-0.1,0-0.2,0-0.3,0
	h-2.3V17.7z M13.1,23.9h-2.4v-2.2h2.4c0.6,0,1,0.4,1.1,0.9c0,0.1,0,0.1,0,0.2c0.1,0.5-0.3,1-0.9,1.1C13.3,23.9,13.2,23.9,13.1,23.9z
	"/>
<path class="st0" d="M27.7,15.9h-1.8l-0.4,1.5c-0.1,0.4-0.2,0.4-0.6,0.5L24.1,18v1.8h1.3v3.9c-0.1,1.1,0.7,2.1,1.8,2.2
	c0.1,0,0.3,0,0.4,0h1.8v-2h-1c-0.3,0-0.6-0.2-0.7-0.5c0-0.1,0-0.1,0-0.2v-3.4h1.7v-2h-1.7V15.9z"/>
<path class="st0" d="M34.1,23.7c0,0.1,0,0.2-0.2,0.2l0,0c-0.1,0-0.1,0-0.2-0.2l-1.3-5.8H30l1.8,7.1c0.1,0.6,0.6,1.1,1.2,1
	c0,0,0.1,0,0.1,0h1.6c0.6,0.1,1.2-0.3,1.3-0.9c0,0,0-0.1,0-0.1l1.8-7.1h-2.4L34.1,23.7z"/>
<path class="st0" d="M19,20.8c-1.1,1.6-1.4,3.4-0.6,3.9s2.4-0.3,3.5-2s1.4-3.4,0.6-4S20.1,19.2,19,20.8z"/>
</svg>
