<?xml version="1.0" encoding="utf-8"?>
<!-- Generator: Adobe Illustrator 24.0.1, SVG Export Plug-In . SVG Version: 6.00 Build 0)  -->
<svg version="1.1" id="PICTOS_vectos" xmlns="http://www.w3.org/2000/svg" xmlns:xlink="http://www.w3.org/1999/xlink" x="0px"
	 y="0px" viewBox="0 0 46.1 46.1" style="enable-background:new 0 0 46.1 46.1;" xml:space="preserve">
<style type="text/css">
	.st0{fill:#25465F;}
</style>
<path class="st0" d="M23,24.8c-2.6,0-4.6,1-4.7,2.2s2.1,2.2,4.7,2.2s4.6-1,4.6-2.2S25.6,24.8,23,24.8z"/>
<path class="st0" d="M41.4,5h-0.2C35.1,5.8,29,6.3,22.9,6.5c-6-0.2-12-0.6-18-1.5H4.7C2.7,5,1,6.7,1,8.7v24.2c0,2,1.7,3.7,3.7,3.7h0
	h0.2c0.1,0,3.4-0.4,7.5-0.7c-1,0.7-1.8,1.5-2.6,2.5C9.3,39,9.4,39.9,10,40.4s1.6,0.4,2.1-0.2c2.7-3.1,6.7-4.9,10.8-4.8
	c4.2-0.1,8.3,1.7,11,4.9c0.3,0.4,0.7,0.6,1.2,0.6c0.3,0,0.7-0.1,0.9-0.3c0.6-0.5,0.8-1.4,0.3-2.1c-0.8-1-1.7-1.9-2.7-2.6
	c4.2,0.3,7.5,0.7,7.5,0.7h0.2c2,0,3.7-1.7,3.7-3.7c0,0,0,0,0,0V8.7C45.1,6.7,43.4,5,41.4,5z M42.1,32.9c0,0.4-0.3,0.7-0.6,0.7
	c-1.2-0.1-11.4-1.3-18.4-1.3c-6.6,0-17.2,1.1-18.4,1.3c-0.4,0-0.6-0.3-0.6-0.7V8.7C4,8.3,4.3,8,4.6,8c6.1,0.8,12.2,1.3,18.3,1.5
	C29.1,9.4,35.3,8.9,41.4,8c0.4,0,0.6,0.3,0.6,0.7V32.9z"/>
</svg>
