<?xml version="1.0" encoding="utf-8"?>
<!-- Generator: Adobe Illustrator 24.0.1, SVG Export Plug-In . SVG Version: 6.00 Build 0)  -->
<svg version="1.1" id="PICTOS_vectos" xmlns="http://www.w3.org/2000/svg" xmlns:xlink="http://www.w3.org/1999/xlink" x="0px"
	 y="0px" viewBox="0 0 46.1 46.1" style="enable-background:new 0 0 46.1 46.1;" xml:space="preserve">
<style type="text/css">
	.st0{fill:#25465F;}
</style>
<path class="st0" d="M23,30c-2.6,0-4.7,1-4.7,2.2c0,1.2,2.1,2.2,4.7,2.2s4.6-1,4.6-2.2C27.6,31.1,25.6,30,23,30z"/>
<path class="st0" d="M41.4,7H4.7C2.7,7,1,8.7,1,10.7v26.2c0,2,1.7,3.7,3.7,3.7h0h36.7c2,0,3.7-1.7,3.7-3.7c0,0,0,0,0,0V10.7
	C45.1,8.7,43.4,7,41.4,7L41.4,7z M42.1,36.9c0,0.4-0.3,0.7-0.7,0.7l0,0H4.7c-0.4,0-0.7-0.3-0.7-0.7l0,0V10.7C4,10.3,4.3,10,4.7,10
	h36.7c0.4,0,0.7,0.3,0.7,0.7l0,0V36.9z"/>
<polygon class="st0" points="19.3,28.4 22.5,28.4 22.5,13.5 19.3,13.5 19.3,19.2 13.3,19.2 13.3,13.5 10.2,13.5 10.2,28.4 
	13.3,28.4 13.3,22.1 19.3,22.1 "/>
<path class="st0" d="M31,13.5h-5.8v14.9H31c4.3,0,6.7-2.4,6.7-7.5S35.2,13.5,31,13.5z M30.9,25.6h-2.5v-9.3h2.5
	c2.3,0,3.6,1.4,3.6,4.7S33.2,25.6,30.9,25.6L30.9,25.6z"/>
</svg>
