<?xml version="1.0" encoding="utf-8"?>
<!-- Generator: Adobe Illustrator 24.0.1, SVG Export Plug-In . SVG Version: 6.00 Build 0)  -->
<svg version="1.1" id="PICTOS_vectos" xmlns="http://www.w3.org/2000/svg" xmlns:xlink="http://www.w3.org/1999/xlink" x="0px"
	 y="0px" viewBox="0 0 58.4 58.4" style="enable-background:new 0 0 58.4 58.4;" xml:space="preserve">
<style type="text/css">
	.st0{fill:#25465F;}
</style>
<path class="st0" d="M51,8c-1,0-2,0.2-2.9,0.7c-0.8,0.3-1.1,1.2-0.8,2c0.3,0.8,1.2,1.1,2,0.8c0,0,0.1,0,0.1-0.1
	c0.5-0.2,1-0.4,1.6-0.4c1.9,0,3.4,1.5,3.4,3.4c0,0,0,0,0,0c-0.1,1.9-1.7,3.3-3.6,3.2c-1.3-0.1-2.4-0.8-2.9-2
	c-0.2-0.5-0.3-0.9-0.4-1.4l-0.1-0.5c-0.1-0.6-0.3-1.1-0.5-1.7c-1.1-2.8-4-4.5-7-3.9c-3,0.4-5.3,3-5.3,6.1c0,3.5,2.9,6.3,6.3,6.3
	c1,0,2-0.2,2.9-0.6c0.7-0.4,1.1-1.3,0.7-2s-1.3-1.1-2-0.7c-0.5,0.2-1,0.4-1.6,0.4c-1.9,0-3.4-1.5-3.4-3.4c0-1.6,1.2-2.9,2.8-3.1
	c1.5-0.4,3.1,0.5,3.7,1.9c0.2,0.5,0.3,0.9,0.4,1.4l0.1,0.5c0.1,0.6,0.3,1.1,0.5,1.7c0.9,2.4,3.2,4.1,5.8,4c0.4,0,0.8,0,1.2-0.1
	c3-0.4,5.3-3,5.2-6.1C57.4,10.9,54.5,8,51,8C51,8,51,8,51,8z"/>
<path class="st0" d="M23.1,38.2c2.6,0,4.6-1,4.6-2.2c0-1.2-2.1-2.2-4.7-2.3s-4.6,1-4.7,2.2S20.5,38.2,23.1,38.2z"/>
<path class="st0" d="M43.6,22.1c-0.8,0-1.5,0.7-1.5,1.5v17.1c0,0.4-0.3,0.7-0.7,0.7l0,0H4.7C4.3,41.3,4,41,4,40.6l0,0V16.5
	c0-0.4,0.3-0.7,0.7-0.7h26.4c0.8,0,1.5-0.7,1.5-1.5s-0.7-1.5-1.5-1.5H4.7c-2,0-3.7,1.7-3.7,3.7v24.2c0,2,1.7,3.7,3.7,3.7h0h8.6
	c-1.3,0.8-2.5,1.9-3.5,3.1C9.3,48.1,9.4,49,10,49.5s1.6,0.4,2.1-0.2l0,0c2.7-3.1,6.7-4.9,10.8-4.8c4.2-0.1,8.3,1.7,11,4.9
	c0.3,0.4,0.7,0.6,1.2,0.6c0.3,0,0.7-0.1,0.9-0.3c0.7-0.5,0.8-1.5,0.3-2.1c-1-1.3-2.2-2.3-3.6-3.2h8.6c2,0,3.7-1.7,3.7-3.7l0,0V23.6
	C45.1,22.7,44.4,22.1,43.6,22.1z"/>
<path class="st0" d="M13.8,28.6L13.8,28.6c-0.2,0-0.2-0.1-0.3-0.2l-2.1-7.9H9.1l2.6,9.1c0.1,0.5,0.6,0.9,1.1,0.8h1.6
	c0.7,0,1-0.2,1.1-0.8l2.5-9.1h-2.2l-2,7.9C13.9,28.5,13.9,28.6,13.8,28.6z"/>
<path class="st0" d="M22.8,30.6c2.9,0,4.6-1.8,4.6-5.2s-1.7-5.1-4.6-5.1s-4.6,1.8-4.6,5.1S19.9,30.6,22.8,30.6z M22.8,22.2
	c1.6,0,2.4,1,2.4,3.3s-0.8,3.3-2.4,3.3s-2.4-1-2.4-3.3S21.2,22.2,22.8,22.2L22.8,22.2z"/>
<path class="st0" d="M28.6,30.4h3.8c2.8,0,4.5-1.6,4.5-5s-1.6-5-4.5-5h-3.8V30.4z M30.7,22.3h1.7c1.5,0,2.4,0.9,2.4,3.1
	s-0.9,3.1-2.4,3.1h-1.7L30.7,22.3z"/>
</svg>
