<?xml version="1.0" encoding="utf-8"?>
<!-- Generator: Adobe Illustrator 24.0.1, SVG Export Plug-In . SVG Version: 6.00 Build 0)  -->
<svg version="1.1" id="PICTOS_vectos" xmlns="http://www.w3.org/2000/svg" xmlns:xlink="http://www.w3.org/1999/xlink" x="0px"
	 y="0px" viewBox="0 0 57.7 57.7" style="enable-background:new 0 0 57.7 57.7;" xml:space="preserve">
<style type="text/css">
	.st0{fill:#25465F;}
</style>
<path class="st0" d="M53,11H24.8c-2,0-3.7,1.7-3.7,3.7v4.1h-4.8c-2,0-3.7,1.7-3.7,3.7c0,0.8,0.7,1.5,1.5,1.5s1.5-0.7,1.5-1.5
	c0-0.4,0.3-0.7,0.7-0.7h28.1c0.4,0,0.7,0.3,0.7,0.7c0,0,0,0,0,0v18.2c0,0.4-0.3,0.7-0.7,0.7H16.4c-0.4,0-0.7-0.3-0.7-0.7l0,0
	c0-0.8-0.7-1.5-1.5-1.5s-1.5,0.7-1.5,1.5c0,2,1.7,3.7,3.7,3.7l0,0h5.1c-0.7,0.5-1.3,1.1-1.8,1.8c-0.5,0.6-0.4,1.6,0.2,2.1
	c0.6,0.5,1.6,0.4,2.1-0.2c2.1-2.4,5.2-3.7,8.4-3.7c3.2-0.1,6.3,1.3,8.4,3.7c0.6,0.6,1.5,0.7,2.1,0.1c0.6-0.5,0.7-1.4,0.2-2
	c-0.5-0.7-1.2-1.3-1.8-1.8h5.2c2,0,3.7-1.7,3.7-3.7c0,0,0,0,0,0v-4.1H53c2,0,3.7-1.7,3.7-3.7c0,0,0,0,0,0V14.7
	C56.7,12.7,55,11,53,11L53,11z M53.7,32.9c0,0.4-0.3,0.7-0.7,0.7l0,0h-4.8V22.5c0-2-1.7-3.7-3.7-3.7l0,0H24.1v-4.1
	c0-0.4,0.3-0.7,0.7-0.7c0,0,0,0,0,0H53c0.4,0,0.7,0.3,0.7,0.7c0,0,0,0,0,0V32.9z"/>
<path class="st0" d="M35,36.2c0-1.2-2-2.2-4.6-2.2s-4.6,1-4.6,2.2c0,1.2,2.1,2.2,4.7,2.2S35,37.4,35,36.2z"/>
<path class="st0" d="M7.6,27.9h8.1c0.8,0,1.5-0.7,1.5-1.5c0-0.8-0.7-1.5-1.5-1.5H7.6c-0.8,0-1.5,0.7-1.5,1.5
	C6.1,27.3,6.8,27.9,7.6,27.9z"/>
<path class="st0" d="M21.3,31.6c0-0.8-0.7-1.5-1.5-1.5H2.5c-0.8,0-1.5,0.7-1.5,1.5c0,0.8,0.7,1.5,1.5,1.5h17.3
	C20.6,33.1,21.3,32.4,21.3,31.6z"/>
<path class="st0" d="M19.3,36.7c0-0.8-0.7-1.5-1.5-1.5h-7.5c-0.8,0-1.5,0.7-1.5,1.5s0.7,1.5,1.5,1.5h7.5
	C18.6,38.2,19.3,37.6,19.3,36.7z"/>
</svg>
