<?xml version="1.0" encoding="utf-8"?>
<!-- Generator: Adobe Illustrator 24.0.1, SVG Export Plug-In . SVG Version: 6.00 Build 0)  -->
<svg version="1.1" id="PICTOS_vectos" xmlns="http://www.w3.org/2000/svg" xmlns:xlink="http://www.w3.org/1999/xlink" x="0px"
	 y="0px" viewBox="0 0 46.1 46.1" style="enable-background:new 0 0 46.1 46.1;" xml:space="preserve">
<style type="text/css">
	.st0{fill:#25465F;}
</style>
<path class="st0" d="M41.3,5H13.2c-2,0-3.7,1.7-3.7,3.7v4.1H4.7c-2,0-3.7,1.7-3.7,3.7v18.2c0,2,1.7,3.7,3.7,3.7h0h5.1
	c-0.7,0.5-1.3,1.1-1.8,1.8c-0.5,0.6-0.4,1.6,0.2,2.1s1.6,0.4,2.1-0.2c2.1-2.4,5.2-3.7,8.4-3.7c3.2-0.1,6.3,1.3,8.4,3.7
	c0.6,0.6,1.5,0.7,2.1,0.1c0.6-0.5,0.7-1.4,0.2-2c-0.5-0.7-1.2-1.3-1.8-1.8h5.2c2,0,3.7-1.7,3.7-3.7v-4.1h4.8c2,0,3.7-1.7,3.7-3.7
	c0,0,0,0,0,0V8.7C45,6.7,43.3,5,41.3,5L41.3,5z M33.5,34.7c0,0.4-0.3,0.7-0.7,0.7H4.7c-0.4,0-0.7-0.3-0.7-0.7l0,0V16.5
	c0-0.4,0.3-0.7,0.7-0.7h28.1c0.4,0,0.7,0.3,0.7,0.7c0,0,0,0,0,0V34.7z M42,26.9c0,0.4-0.3,0.7-0.7,0.7l0,0h-4.8V16.5
	c0-2-1.7-3.7-3.7-3.7c0,0,0,0,0,0H12.5V8.7c0-0.4,0.3-0.7,0.7-0.7h28.1C41.7,8,42,8.3,42,8.7c0,0,0,0,0,0V26.9z"/>
<path class="st0" d="M18.8,27.9c-2.5,0-4.6,1-4.6,2.2s2.1,2.2,4.7,2.2s4.5-1,4.6-2.2S21.3,28,18.8,27.9z"/>
</svg>
