<?xml version="1.0" encoding="utf-8"?>
<!-- Generator: Adobe Illustrator 24.0.1, SVG Export Plug-In . SVG Version: 6.00 Build 0)  -->
<svg version="1.1" id="PICTOS_vectos" xmlns="http://www.w3.org/2000/svg" xmlns:xlink="http://www.w3.org/1999/xlink" x="0px"
	 y="0px" viewBox="0 0 46.1 46.1" style="enable-background:new 0 0 46.1 46.1;" xml:space="preserve">
<style type="text/css">
	.st0{fill:#25465F;}
</style>
<path class="st0" d="M23,26c-2.6,0-4.6,1-4.7,2.2s2.1,2.2,4.7,2.2s4.6-1,4.6-2.2S25.6,26,23,26z"/>
<path class="st0" d="M41.4,5H4.7C2.7,5,1,6.7,1,8.7v24.2c0,2,1.7,3.7,3.7,3.7h0h8.6c-1.3,0.8-2.5,1.9-3.5,3.1
	c-0.5,0.6-0.4,1.6,0.2,2.1s1.6,0.4,2.1-0.2c2.7-3.1,6.7-4.9,10.8-4.8c4.2-0.1,8.3,1.7,11,4.9c0.3,0.4,0.7,0.6,1.2,0.6
	c0.3,0,0.7-0.1,0.9-0.3c0.6-0.5,0.8-1.4,0.3-2.1c-1-1.3-2.2-2.4-3.6-3.2h8.6c2,0,3.7-1.7,3.7-3.7c0,0,0,0,0,0V8.7
	C45.1,6.7,43.4,5,41.4,5z M42.1,32.9c0,0.4-0.3,0.7-0.7,0.7l0,0H4.7c-0.4,0-0.7-0.3-0.7-0.7l0,0V8.7C4,8.3,4.3,8,4.7,8h36.7
	c0.4,0,0.7,0.3,0.7,0.7v0V32.9z"/>
</svg>
