<?xml version="1.0" encoding="utf-8"?>
<!-- Generator: Adobe Illustrator 24.0.1, SVG Export Plug-In . SVG Version: 6.00 Build 0)  -->
<svg version="1.1" id="PICTOS_vectos" xmlns="http://www.w3.org/2000/svg" xmlns:xlink="http://www.w3.org/1999/xlink" x="0px"
	 y="0px" viewBox="0 0 46.1 46.1" style="enable-background:new 0 0 46.1 46.1;" xml:space="preserve">
<style type="text/css">
	.st0{fill:#25465F;}
</style>
<path class="st0" d="M16.8,34.5c-2.6,0-4.6,1-4.7,2.2s2.1,2.2,4.7,2.2s4.6-1,4.6-2.2S19.3,34.5,16.8,34.5z"/>
<path class="st0" d="M17,27.3c-1.1,0.1-2-0.6-2.2-1.7h2.8v-1.4h-2.9c0-0.3,0-0.6,0-0.9h2.9v-1.4h-2.8c0.1-1,1.1-1.8,2.1-1.7
	c1-0.1,1.9,0.7,2,1.7l2.6-0.5c-0.4-2.2-2.4-3.7-4.6-3.5c-2.4-0.1-4.6,1.7-4.9,4.1h-1.3v1.4h1.2c0,0.3,0,0.6,0,0.9h-1.2v1.4h1.4
	c0.3,2.5,2.4,4.3,4.9,4.1c2.7,0,4.2-1.2,4.8-3.5l-2.6-0.6C19,26.7,18.1,27.4,17,27.3C17.1,27.4,17.1,27.4,17,27.3z"/>
<path class="st0" d="M33.6,1c-3.3,0-6.5,1.5-8.6,4H10.4C9.6,5,8.8,5.4,8.2,6l-6.6,7.2C1.2,13.7,1,14.3,1,15v0.2c0,0.1,0,0.1,0,0.2
	c0,0.1,0,0.1,0,0.2V42C1,43.7,2.3,45,3.9,45c0,0,0,0,0.1,0h25.6c1.6,0,2.9-1.3,2.9-2.9V23.7c0.4,0,0.7,0.1,1.1,0.1
	c6.3-0.2,11.3-5.4,11.1-11.7C44.5,6,39.6,1.2,33.6,1z M9,9.5v4.4H5.1L9,9.5z M29.5,42H4V16.8h6.5c0.8,0,1.5-0.7,1.5-1.5V8h11.1
	c-2.4,5.8,0.3,12.5,6.1,14.9c0.1,0,0.2,0.1,0.3,0.1V42z M33.6,20.8c-4.6,0-8.4-3.8-8.4-8.4S28.9,4,33.6,4c4.6,0,8.4,3.8,8.4,8.4
	c0,0,0,0,0,0C42,17,38.2,20.8,33.6,20.8z"/>
<path class="st0" d="M38.9,7.1c-0.6-0.6-1.5-0.6-2.1,0l-3.2,3.2l-3.2-3.2c-0.6-0.6-1.5-0.6-2.1,0c-0.6,0.6-0.6,1.5,0,2.1l3.2,3.2
	l-3.2,3.2c-0.6,0.6-0.6,1.5,0,2.1c0,0,0,0,0,0c0.3,0.3,0.7,0.4,1.1,0.4c0.4,0,0.8-0.2,1.1-0.4l3.2-3.2l3.2,3.2
	c0.3,0.3,0.7,0.4,1.1,0.4c0.4,0,0.8-0.2,1.1-0.4c0.6-0.6,0.6-1.5,0-2.1c0,0,0,0,0,0l-3.2-3.2l3.2-3.2C39.5,8.6,39.5,7.7,38.9,7.1
	C38.9,7.1,38.9,7.1,38.9,7.1z"/>
</svg>
