<?xml version="1.0" encoding="utf-8"?>
<!-- Generator: Adobe Illustrator 24.0.1, SVG Export Plug-In . SVG Version: 6.00 Build 0)  -->
<svg version="1.1" id="PICTOS_vectos" xmlns="http://www.w3.org/2000/svg" xmlns:xlink="http://www.w3.org/1999/xlink" x="0px"
	 y="0px" viewBox="0 0 46.1 46.1" style="enable-background:new 0 0 46.1 46.1;" xml:space="preserve">
<style type="text/css">
	.st0{fill:#25465F;}
</style>
<path class="st0" d="M33.2,8.5c-2.4,0-4.8,0.7-6.9,2.1c-0.6,0.5-0.7,1.5-0.1,2.1c0.5,0.5,1.2,0.7,1.8,0.3c1.5-1,3.3-1.6,5.2-1.6
	c4.7,0,8.6,3.8,8.6,8.6c0,4.6-3.5,7.4-7,8s-7.7-0.7-9.4-5c-0.3-1-0.6-2-0.9-3l-0.3-1c-0.3-1.1-0.6-2.3-1-3.4c-2.2-6-8-7.8-12.7-6.9
	S1,13.3,1,19.6C1,26,6.2,31.2,12.6,31.2c2.4,0,4.8-0.7,6.8-2.1c0.7-0.5,0.8-1.4,0.3-2.1c-0.5-0.6-1.4-0.8-2-0.4
	c-1.5,1-3.3,1.6-5.1,1.6c-4.7,0-8.6-3.9-8.6-8.6c0-4.6,3.5-7.4,7.1-8c3.5-0.6,7.7,0.7,9.4,5c0.3,1,0.6,2,0.9,3l0.3,1
	c0.3,1.1,0.6,2.3,1,3.4c2.2,6,8,7.8,12.7,6.9s9.5-4.5,9.5-10.9C44.7,13.7,39.5,8.5,33.2,8.5z"/>
<path class="st0" d="M23,33.2c-2.6,0-4.6,1-4.6,2.2c0,1.2,2.1,2.2,4.6,2.3s4.6-1,4.7-2.2S25.5,33.2,23,33.2z"/>
</svg>
