<?xml version="1.0" encoding="utf-8"?>
<!-- Generator: Adobe Illustrator 24.0.1, SVG Export Plug-In . SVG Version: 6.00 Build 0)  -->
<svg version="1.1" id="PICTOS_vectos" xmlns="http://www.w3.org/2000/svg" xmlns:xlink="http://www.w3.org/1999/xlink" x="0px"
	 y="0px" viewBox="0 0 46.1 46.1" style="enable-background:new 0 0 46.1 46.1;" xml:space="preserve">
<style type="text/css">
	.st0{fill:#25465F;}
</style>
<path class="st0" d="M40.8,7.7L40.8,7.7L32,1.5c-1.2-0.9-3-0.6-3.8,0.7l-6,8.5c-0.6-0.4-1.3-0.5-1.9-0.4c-0.7,0.1-1.4,0.5-1.8,1.1
	L4.8,31.1c-1.9,2.8,0.3,7.4,5.3,10.9c2.4,1.8,5.4,2.9,8.4,3.1c1.5,0.1,3-0.5,3.9-1.7l13.7-19.5c0.8-1.2,0.6-2.9-0.6-3.8l6-8.5
	C42.4,10.3,42.1,8.5,40.8,7.7z M19.9,41.6c-0.7,0.9-4.2,0.6-8.1-2.1s-5.2-5.7-4.5-6.7l13.5-19.3l12.6,8.8L19.9,41.6z M33.1,18.3
	l-5.9-4.1l-2.5-1.7l5.8-8.3l8.3,5.9L33.1,18.3z"/>
<path class="st0" d="M12.9,30.7c-1,0.7-0.6,3,0.8,5.1s3.5,3.3,4.5,2.6s0.6-3-0.9-5.2C15.9,31,13.9,30,12.9,30.7z"/>
</svg>
