<?xml version="1.0" encoding="utf-8"?>
<!-- Generator: Adobe Illustrator 24.0.1, SVG Export Plug-In . SVG Version: 6.00 Build 0)  -->
<svg version="1.1" id="PICTOS_vectos" xmlns="http://www.w3.org/2000/svg" xmlns:xlink="http://www.w3.org/1999/xlink" x="0px"
	 y="0px" viewBox="0 0 46 46" style="enable-background:new 0 0 46 46;" xml:space="preserve">
<style type="text/css">
	.st0{fill:#25465F;}
</style>
<path class="st0" d="M18.7,32.8c-2.6,0-4.6,1-4.7,2.2s2.1,2.2,4.7,2.2s4.6-1,4.6-2.2S21.2,32.8,18.7,32.8z"/>
<path class="st0" d="M44.9,32.6c-2.5-6.8-5.9-11.8-9.8-14.7c3.6-4.3,3-10.8-1.3-14.4S23,0.4,19.4,4.8c-0.6,0.7-1,1.4-1.4,2.2
	c-5.6,0.3-9.9,5.2-9.6,10.8c0.1,2.2,1,4.3,2.4,6C7,26.7,3.7,31.7,1.1,38.5c-0.2,0.4-0.1,0.8,0.1,1.2C1.5,40.3,4.4,45,18.7,45
	s17.2-4.8,17.5-5.3c0.2-0.4,0.2-0.8,0.1-1.2c0-0.1,0-0.1-0.1-0.2c6.8-1.4,8.5-4.2,8.7-4.5C45,33.4,45.1,33,44.9,32.6z M27.3,4
	c4,0,7.2,3.2,7.2,7.2c0,3.4-2.4,6.3-5.7,7.1c0-0.4,0.1-0.8,0.1-1.1c0-4.6-3.1-8.7-7.6-9.9C22.6,5.2,24.9,4,27.3,4z M18.7,9.9
	c4,0,7.2,3.2,7.2,7.2s-3.2,7.2-7.2,7.2s-7.2-3.2-7.2-7.2l0,0C11.4,13.2,14.7,9.9,18.7,9.9z M18.7,42c-9.8,0-13.4-2.3-14.5-3.3
	c2.4-6.1,5.6-10.6,9-13c3.3,2.2,7.7,2.2,11,0c3.5,2.4,6.6,6.9,9,12.9C32,39.7,28.5,42,18.7,42L18.7,42z M35,35.5
	c-2.3-5.3-5.2-9.3-8.5-11.7c0.6-0.7,1.1-1.5,1.5-2.3c1.7-0.1,3.4-0.6,4.9-1.6c3.5,2.4,6.6,6.9,9,12.9C41,33.5,39.2,34.7,35,35.5z"/>
</svg>
