<?xml version="1.0" encoding="utf-8"?>
<!-- Generator: Adobe Illustrator 24.0.1, SVG Export Plug-In . SVG Version: 6.00 Build 0)  -->
<svg version="1.1" id="PICTOS_vectos" xmlns="http://www.w3.org/2000/svg" xmlns:xlink="http://www.w3.org/1999/xlink" x="0px"
	 y="0px" viewBox="0 0 46.1 46.1" style="enable-background:new 0 0 46.1 46.1;" xml:space="preserve">
<style type="text/css">
	.st0{fill:#25465F;}
</style>
<path class="st0" d="M16,32.3c-2.6,0-4.7,1-4.7,2.2s2.1,2.2,4.7,2.2s4.6-1,4.6-2.2S18.6,32.3,16,32.3z"/>
<path class="st0" d="M44.2,22.4L44.1,22c-0.2-0.8-1-1.2-1.8-1H42c-0.6,0.1-1.1,0.2-1.6,0.3c-0.3-3.2-2.2-6-5-7.6
	c2.8-2.4,3.2-6.5,0.8-9.3s-6.5-3.2-9.3-0.8s-3.2,6.5-0.8,9.3c0.2,0.3,0.5,0.6,0.8,0.8c-0.6,0.3-1.1,0.7-1.6,1.2
	c-0.5,0.4-1,1-1.4,1.5c-2.1-4.4-7.4-6.2-11.7-4.1S5.9,19.6,8.1,24c0.3,0.6,0.6,1.2,1.1,1.7c-3.1,2.5-5.9,6.6-8,12.2
	c-0.2,0.4-0.1,0.8,0.1,1.2c0.2,0.5,2.7,4.5,14.8,4.5c4.9,0,8.8-0.7,11.5-1.9c1.6,1.1,3.5,1.8,5.4,1.9c2.5,0,5.5-1.5,7.8-3.8
	c2.9-3,4.4-7,4.3-11.1C45,26.5,44.7,24.4,44.2,22.4z M31.2,5c2,0,3.6,1.6,3.6,3.6s-1.6,3.6-3.6,3.6c-2,0-3.6-1.6-3.6-3.6
	C27.6,6.6,29.2,5,31.2,5z M31.2,15.4c3.2,0.3,5.7,2.7,6.2,5.9c-1.3-0.3-2.5-0.8-3.6-1.5l-0.2-0.1c-0.5-0.3-1.1-0.3-1.5,0L32,19.8
	c-1.5,1-3.2,1.6-5,1.6c-0.7,0-1.3-0.1-2-0.2C25.5,18.1,28.1,15.7,31.2,15.4z M16,14.4c3.2,0,5.8,2.6,5.8,5.8S19.2,26,16,26
	c-3.2,0-5.8-2.6-5.8-5.8c0,0,0,0,0,0C10.2,17,12.8,14.4,16,14.4z M4.2,38.1c2-4.9,4.5-8.5,7.2-10.4c2.9,1.8,6.6,1.7,9.5-0.2
	c0,0.4,0,0.8,0,1.2c-0.1,4,1.3,7.9,4,10.8C22,40.3,19,40.7,16,40.6C8.2,40.6,5.2,38.9,4.2,38.1z M32.9,40.6c-3.2,0-9.1-4.1-9.1-12
	c0-1.5,0.2-3,0.5-4.5c0.9,0.2,1.8,0.2,2.7,0.2c2.1,0,4.1-0.6,5.9-1.7c1.8,1.1,3.8,1.7,5.9,1.7c0.9,0,1.8-0.1,2.7-0.2
	c0.3,1.5,0.4,3,0.5,4.5C42,36.5,36.1,40.6,32.9,40.6z"/>
</svg>
