<?xml version="1.0" encoding="utf-8"?>
<!-- Generator: Adobe Illustrator 24.0.1, SVG Export Plug-In . SVG Version: 6.00 Build 0)  -->
<svg version="1.1" id="PICTOS_vectos" xmlns="http://www.w3.org/2000/svg" xmlns:xlink="http://www.w3.org/1999/xlink" x="0px"
	 y="0px" viewBox="0 0 46.1 46.1" style="enable-background:new 0 0 46.1 46.1;" xml:space="preserve">
<style type="text/css">
	.st0{fill:#25465F;}
</style>
<path class="st0" d="M9.9,17.6c0.2,0,0.3,0,0.5-0.1c0.8-0.3,1.2-1.1,0.9-1.9c-0.3-0.9-0.5-1.9-0.5-2.9c0-0.8,0.1-1.7,0.4-2.5
	c0-0.2,0.1-0.4,0.2-0.6c0.3-0.8-0.1-1.6-0.9-1.9C9.7,7.5,8.9,7.9,8.6,8.6C8.5,8.9,8.4,9.1,8.3,9.4c-0.3,1.1-0.5,2.2-0.5,3.3
	c0,1.3,0.2,2.7,0.7,3.9C8.7,17.2,9.3,17.6,9.9,17.6z"/>
<path class="st0" d="M43.7,37.7c-3-8-6.9-13.9-11.5-17.3l0.1-0.1c0.5-0.6,0.5-1.6-0.2-2.1c-0.6-0.5-1.6-0.5-2.1,0.2
	c-3.1,3.7-8.6,4.1-12.3,1s-4.1-8.6-1-12.3S25.4,3,29,6.1c0.7,0.6,1.3,1.3,1.7,2c0.4,0.7,1.4,0.9,2.1,0.5c0.7-0.4,0.9-1.3,0.5-2
	C30,1,22.8-0.8,17.3,2.6s-7.3,10.5-4,16.1c0.4,0.7,0.9,1.3,1.4,1.8c-4.6,3.3-8.5,9.3-11.6,17.3C2.9,38.1,3,38.6,3.2,39
	c0.3,0.6,3.7,6,20.2,6s19.9-5.4,20.2-6C43.8,38.6,43.9,38.2,43.7,37.7z M23.4,42c-11.9,0-16-2.9-17.2-4c2.9-7.3,6.7-12.7,10.8-15.5
	c3.9,2.6,8.9,2.6,12.8,0c4.2,2.8,8,8.2,10.8,15.5C39.4,39.1,35.3,42,23.4,42z"/>
<path class="st0" d="M27.8,16.1c-0.6-0.9-2.3-1.6-4.4-1.6c-2.6,0-4.6,1-4.7,2.2s2.1,2.2,4.7,2.2c1.5,0.1,3-0.3,4.2-1.3
	c2.9-0.1,5.7-1.3,7.9-3.2c-0.1,0.4-0.2,0.9-0.3,1.3c-0.3,0.8,0.1,1.6,0.9,1.9c0,0,0,0,0,0c0.2,0.1,0.3,0.1,0.5,0.1
	c0.6,0,1.2-0.4,1.4-1c0.4-1.3,0.7-2.6,0.7-3.9c0-1.1-0.2-2.3-0.5-3.3c-0.1-0.2-0.2-0.5-0.2-0.8c-0.3-0.8-1.2-1.2-1.9-0.9
	c-0.8,0.3-1.1,1.1-0.9,1.9c0.1,0.2,0.1,0.4,0.2,0.6c0.2,0.6,0.3,1.2,0.3,1.9C33.7,14.4,30.9,15.9,27.8,16.1z"/>
<path class="st0" d="M28.1,28.4c0-1.2-2.1-2.2-4.6-2.3s-4.6,1-4.7,2.2s2.1,2.2,4.7,2.2S28,29.7,28.1,28.4z"/>
<path class="st0" d="M25.4,32.8c-1.5,2.1-1.8,4.3-0.8,5s3-0.4,4.5-2.5s1.8-4.4,0.8-5.1S26.9,30.7,25.4,32.8z"/>
<path class="st0" d="M16.9,30.1c-1,0.7-0.6,3,0.8,5.1c1.4,2.1,3.5,3.2,4.5,2.5s0.6-3-0.9-5.1S17.9,29.4,16.9,30.1z"/>
</svg>
