<?xml version="1.0" encoding="utf-8"?>
<!-- Generator: Adobe Illustrator 24.0.1, SVG Export Plug-In . SVG Version: 6.00 Build 0)  -->
<svg version="1.1" id="PICTOS_vectos" xmlns="http://www.w3.org/2000/svg" xmlns:xlink="http://www.w3.org/1999/xlink" x="0px"
	 y="0px" viewBox="0 0 46 46" style="enable-background:new 0 0 46 46;" xml:space="preserve">
<style type="text/css">
	.st0{fill:#25465F;}
</style>
<path class="st0" d="M34.1,19.5l1.5-13.3C35.9,3.7,34,1.3,31.5,1c-1.3-0.2-2.5,0.2-3.5,1c-1,0.8-1.6,1.9-1.8,3.2l-0.6,7.4l-3.2-7.9
	c-0.4-1.2-1.2-2.1-2.3-2.7C17.8,0.9,15,1.7,13.8,4c-0.6,1.1-0.7,2.4-0.3,3.7c0,0,0,0.1,0,0.1l2,4.8c-0.6,0-1.2,0.1-1.7,0.4
	c-1.1,0.5-2,1.4-2.5,2.5c-0.1,0.4-0.2,0.8-0.3,1.2c-0.8-0.1-1.6,0-2.3,0.3c-2.4,0.9-3.6,3.6-2.6,6c0,0,0,0,0,0.1l2.1,4.8
	c0.2,0.4,0.4,0.8,0.7,1.2L9,30c0.4,2.3,1.3,4.6,2.7,6.5v4.8c0,2,1.6,3.7,3.6,3.7h13.9c2,0,3.7-1.6,3.7-3.7v-4.9c0-0.1,0-0.2,0-0.3
	c1.3-1.8,2.2-3.8,2.6-6l0.8-5.1C36.7,22.9,35.8,20.8,34.1,19.5z M29.8,4.4C30.2,4.1,30.6,4,31.1,4c0.9,0.1,1.6,1,1.5,1.9l-1.4,12.5
	l-3-0.5l1-12.4C29.2,5.1,29.5,4.7,29.8,4.4z M16.4,5.5c0.5-0.8,1.5-1.1,2.3-0.7c0.4,0.2,0.7,0.6,0.8,1c0,0,0,0.1,0,0.1l4.7,11.4
	l-0.5-0.1c-1.5-0.2-2.3-0.4-3.1,0.1L16.3,6.7C16.2,6.3,16.2,5.9,16.4,5.5z M14,16.7c0.2-0.4,0.5-0.7,0.9-0.9
	c0.2-0.1,0.4-0.1,0.6-0.1h0.2c0.6,0.1,1.1,0.5,1.3,1l0,0l2.6,6.1c0.2,0.4,0.2,0.8,0,1.2c-0.2,0.4-0.5,0.7-0.9,0.9
	C18.6,25,18.3,25,18,25c-0.6-0.1-1.1-0.5-1.3-1l-2.6-6.1C13.9,17.5,13.9,17.1,14,16.7z M8.9,20.7c0.2-0.4,0.5-0.7,0.9-0.9
	c0.2-0.1,0.4-0.1,0.6-0.1c0.1,0,0.2,0,0.3,0c0.6,0.1,1,0.5,1.3,1l0,0l2.1,4.8c0.2,0.4,0.2,0.9,0,1.3c-0.3,0.7-1,1.1-1.8,1
	c-0.6-0.1-1.1-0.5-1.3-1l-2.1-4.8C8.7,21.5,8.7,21,8.9,20.7L8.9,20.7z M29.9,41.3c0,0.4-0.3,0.7-0.6,0.7c0,0,0,0,0,0H15.4
	c-0.4,0-0.7-0.3-0.7-0.7v-4.9c0-0.4,0.3-0.7,0.7-0.7h13.9c0.3,0,0.5,0.1,0.6,0.4c0,0,0,0,0,0c0,0.1,0,0.2,0,0.2L29.9,41.3z
	 M33.3,24.5l-0.9,5.2c-0.2,1.3-0.7,2.5-1.4,3.7c-0.6-0.3-1.2-0.5-1.9-0.5H15.4c-0.7,0-1.4,0.2-2,0.6c-0.4-0.8-0.8-1.7-1-2.6h0.2
	c0.6,0,1.2-0.1,1.7-0.3c1.1-0.5,2-1.4,2.5-2.5c0-0.1,0-0.1,0.1-0.2c0.2,0.1,0.5,0.1,0.7,0.2c0.2,0,0.4,0,0.7,0
	c0.6,0,1.2-0.1,1.8-0.4c1-0.4,1.8-1.2,2.3-2.2c0.5,0.3,1.1,0.5,1.7,0.6l2,0.3c0.8,0.2,1.6-0.4,1.8-1.2c0,0,0,0,0,0
	c0.1-0.8-0.4-1.6-1.2-1.7c0,0,0,0,0,0l-2-0.3c-1.4-0.2-2.4-1.6-2.2-3V20l0.9,0.1l8,1.3c0.2,0,0.4,0.1,0.6,0.2h0.1
	C33,22.1,33.5,23.3,33.3,24.5L33.3,24.5z"/>
<path class="st0" d="M24,36.7c-2.6,0-4.6,1-4.6,2.2s2.1,2.2,4.7,2.2s4.6-1,4.6-2.1S26.6,36.7,24,36.7z"/>
</svg>
