<svg id="PICTOS_vectos" xmlns="http://www.w3.org/2000/svg" viewBox="0 0 46 46"><defs><style>.cls-1{fill:#25465f;}</style></defs><path class="cls-1" d="M23,17.28c2.57,0,4.57-1,4.58-2.19S25.52,12.85,23,12.84s-4.65,1-4.66,2.19S20.43,17.27,23,17.28Z"/><path class="cls-1" d="M43.69,3.28A4.71,4.71,0,0,0,39.5,1H6.5A4.71,4.71,0,0,0,2.31,3.28a6,6,0,0,0,.15,5.93c1.45,2.62,6.44,8.57,7.85,10.23V20.9A12.71,12.71,0,0,0,21.5,33.5V42H13a1.5,1.5,0,0,0,0,3H33a1.5,1.5,0,0,0,0-3H24.5V33.5A12.71,12.71,0,0,0,35.69,20.9V19.44c1.41-1.66,6.4-7.61,7.85-10.23A6,6,0,0,0,43.69,3.28ZM5.09,7.76a3,3,0,0,1-.2-2.95A1.75,1.75,0,0,1,6.5,4h3.81V14.75A66.26,66.26,0,0,1,5.09,7.76ZM32.69,20.9a9.69,9.69,0,0,1-19.38,0V4H32.69ZM40.91,7.76a66.26,66.26,0,0,1-5.22,7V4H39.5a1.75,1.75,0,0,1,1.61.84A3,3,0,0,1,40.91,7.76Z"/></svg>