<?xml version="1.0" encoding="utf-8"?>
<!-- Generator: Adobe Illustrator 24.0.1, SVG Export Plug-In . SVG Version: 6.00 Build 0)  -->
<svg version="1.1" id="PICTOS_vectos" xmlns="http://www.w3.org/2000/svg" xmlns:xlink="http://www.w3.org/1999/xlink" x="0px"
	 y="0px" viewBox="0 0 46.1 46.1" style="enable-background:new 0 0 46.1 46.1;" xml:space="preserve">
<style type="text/css">
	.st0{fill:#25465F;}
</style>
<path class="st0" d="M43.4,37.7c-1.5-4.2-3.6-8.1-6.1-11.7c0.9-1.3,1.5-2.9,1.5-4.5V5.6c0-0.8-0.7-1.5-1.5-1.5H9
	c-0.8,0-1.5,0.7-1.5,1.5v15.9c0,1.6,0.5,3.2,1.5,4.5c-2.6,3.6-4.7,7.6-6.2,11.7c-0.2,0.4-0.1,0.9,0.1,1.3c0.3,0.6,3.7,6,20.2,6
	s19.9-5.4,20.2-6C43.5,38.6,43.5,38.2,43.4,37.7z M35.7,21.5c0,0.7-0.2,1.4-0.5,2c-1-1.1-2.2-2.2-3.4-3.1c3.3-3.7,3.9-9,1.5-13.3
	h2.3V21.5z M16.4,7.1h13.4c3.1,3.7,2.6,9.2-1.1,12.3c-3.7,3.1-9.2,2.6-12.3-1.1C13.7,15.1,13.7,10.4,16.4,7.1z M16.6,22.5
	c3.9,2.6,8.9,2.6,12.8,0c1.3,0.9,2.5,2,3.6,3.2c-0.6,0.3-1.3,0.5-2,0.5h-16c-0.7,0-1.4-0.2-2-0.5C14.1,24.5,15.3,23.4,16.6,22.5z
	 M10.5,21.5V7.1h2.3c-2.3,4.3-1.7,9.7,1.6,13.3c-1.2,0.9-2.4,1.9-3.4,3.1C10.6,22.9,10.5,22.2,10.5,21.5L10.5,21.5z M23.1,42
	c-11.9,0-16-2.9-17.2-4c1.3-3.5,3.1-6.9,5.3-10c1.2,0.7,2.5,1.1,3.9,1.1h16c1.4,0,2.7-0.4,3.9-1.1c2.2,3.1,3.9,6.5,5.2,10
	C39.1,39.1,34.9,42,23.1,42z"/>
<path class="st0" d="M23.1,29.9c-2.6,0-4.6,1-4.7,2.2s2.1,2.2,4.7,2.2s4.6-1,4.6-2.2C27.7,31,25.6,29.9,23.1,29.9z"/>
<path class="st0" d="M19.3,15.5c0.2,0,0.4-0.1,0.5-0.2l3.5-3.5c0.3-0.3,0.3-0.8,0-1.1c-0.3-0.3-0.8-0.3-1.1,0c0,0,0,0,0,0l-3.5,3.5
	c-0.3,0.3-0.3,0.8,0,1.1C18.9,15.4,19.1,15.4,19.3,15.5z"/>
<path class="st0" d="M19.7,18.2c0.3,0.3,0.8,0.3,1.1,0l5.5-5.5c0.3-0.3,0.3-0.8,0-1.1c-0.3-0.3-0.8-0.3-1.1,0c0,0,0,0,0,0l-5.5,5.5
	C19.4,17.5,19.4,17.9,19.7,18.2z"/>
<path class="st0" d="M22.7,18.2c-0.3,0.3-0.3,0.8,0,1.1c0.3,0.3,0.8,0.3,1.1,0l3.5-3.5c0.3-0.3,0.3-0.8,0-1.1
	c-0.3-0.3-0.8-0.3-1.1,0c0,0,0,0,0,0L22.7,18.2z"/>
<path class="st0" d="M8.6,4.1h28.4c0.8,0,1.5-0.7,1.5-1.5s-0.7-1.5-1.5-1.5H8.6c-0.8,0-1.5,0.7-1.5,1.5S7.8,4.1,8.6,4.1z"/>
</svg>
