<?xml version="1.0" encoding="utf-8"?>
<!-- Generator: Adobe Illustrator 24.0.1, SVG Export Plug-In . SVG Version: 6.00 Build 0)  -->
<svg version="1.1" id="PICTOS_vectos" xmlns="http://www.w3.org/2000/svg" xmlns:xlink="http://www.w3.org/1999/xlink" x="0px"
	 y="0px" viewBox="0 0 46 46" style="enable-background:new 0 0 46 46;" xml:space="preserve">
<style type="text/css">
	.st0{fill:#25465F;}
</style>
<path class="st0" d="M44.6,21.6C41.8,17.2,34.1,9.7,23,9.7c-1.4,0-2.9,0.1-4.3,0.4l-2.3-8c-0.2-0.8-1-1.3-1.8-1.1s-1.3,1-1.1,1.8
	c0,0,0,0.1,0,0.1l2.3,7.9c-1.1,0.4-2.1,0.8-3.2,1.3c-0.1,0-0.2,0.1-0.3,0.1c-1.5,0.7-2.9,1.5-4.2,2.5c-0.1,0.1-0.2,0.1-0.3,0.2
	c-1.4,1.1-2.8,2.3-4,3.6c0,0-0.1,0.1-0.1,0.1c-0.9,0.9-1.6,1.9-2.3,3c-0.5,0.8-0.5,1.9,0,2.8c0.4,0.7,1.3,1,2.1,0.5
	c0.7-0.4,0.9-1.2,0.6-1.9c0.1-0.1,0.1-0.2,0.2-0.3l1.9,6.7c0.2,0.8,1.1,1.3,1.9,1s1.3-1.1,1-1.9l0,0L6.6,20C7,19.5,7.5,19,8,18.6
	l4.2,14.7c0.2,0.6,0.8,1.1,1.4,1.1c0.8,0,1.5-0.7,1.5-1.5c0-0.1,0-0.3-0.1-0.4l-4.6-15.8c0.5-0.3,1-0.7,1.6-1l5.5,19.3
	c0.2,0.7,0.8,1.1,1.4,1.1c0.1,0,0.3,0,0.4,0c0.8-0.2,1.2-1.1,1-1.9l-5.7-19.8c0.6-0.2,1.1-0.4,1.7-0.6l6.2,21.5l0,0l2.5,8.8
	c0.3,0.8,1.1,1.2,1.9,1c0.8-0.2,1.2-1.1,1-1.9l-2-7l0.9-0.1c7.2-1.3,13.5-5.5,17.5-11.5C45.1,23.5,45.1,22.5,44.6,21.6z M20.7,16.9
	c2-0.8,4.2-0.5,6,0.8c2.9,2.1,3.6,6.1,1.6,9c-1,1.4-2.4,2.3-4.1,2.6L20.7,16.9z M26.6,33c-0.4,0.1-0.8,0.1-1.2,0.2l-0.3-1
	c2.3-0.5,4.3-1.9,5.7-3.8c3-4.3,2-10.2-2.2-13.2C26,13.4,22.8,13,19.9,14l-0.3-1.1c1.1-0.2,2.3-0.3,3.5-0.3
	c9.6,0,16.3,6.4,18.9,10.3C38.4,28.2,32.8,31.9,26.6,33z"/>
<path class="st0" d="M27,20.2c-1.5-2.1-3.4-3.2-4.4-2.5s-0.6,3,0.8,5.1s3.5,3.2,4.5,2.5S28.4,22.3,27,20.2z"/>
</svg>
