<?xml version="1.0" encoding="utf-8"?>
<!-- Generator: Adobe Illustrator 24.0.1, SVG Export Plug-In . SVG Version: 6.00 Build 0)  -->
<svg version="1.1" id="PICTOS_vectos" xmlns="http://www.w3.org/2000/svg" xmlns:xlink="http://www.w3.org/1999/xlink" x="0px"
	 y="0px" viewBox="0 0 45.9 45.9" style="enable-background:new 0 0 45.9 45.9;" xml:space="preserve">
<style type="text/css">
	.st0{fill:#25465F;}
</style>
<path class="st0" d="M22.9,30.8c-2.6,0-4.6,1-4.6,2.2c0,1.2,2.1,2.2,4.6,2.3s4.6-1,4.6-2.2C27.6,31.9,25.5,30.9,22.9,30.8z"/>
<path class="st0" d="M44.7,17.2c-0.9-5.1-5.8-8.4-10.8-7.5c-2.4,0.4-4.6,1.8-6,3.8l0,0c-2.5,3.6-2.2,8.4,0.8,11.6H17.2
	c0.3-0.3,0.5-0.6,0.8-1c3-4.2,1.9-10-2.3-13c0,0,0,0,0,0c-4.2-2.9-10-1.9-13,2.4l0,0c-2.9,4.2-1.9,10,2.3,13
	c1.6,1.1,3.4,1.7,5.3,1.7h25.8c0.1,0,0.2,0,0.3,0c5.1-0.5,8.9-5,8.4-10.2C44.8,17.7,44.8,17.4,44.7,17.2z M4.1,19.9
	c-0.3-1.6,0-3.3,1-4.7l0,0c1-1.4,2.5-2.3,4.1-2.6c0.4-0.1,0.7-0.1,1.1-0.1c3.5,0,6.3,2.9,6.3,6.3c0,1.3-0.4,2.5-1.1,3.6
	c-1.1,1.6-2.9,2.6-4.9,2.7h-0.5C7.1,25,4.6,22.8,4.1,19.9L4.1,19.9z M40.7,22.4c-1.1,1.6-2.9,2.6-4.9,2.7h-0.6
	c-1.2-0.1-2.3-0.4-3.3-1.1c-2.9-2-3.5-5.9-1.5-8.8l0,0c1-1.4,2.4-2.3,4.1-2.6c0.4-0.1,0.7-0.1,1.1-0.1c3.5,0,6.3,2.9,6.3,6.3
	C41.9,20.1,41.5,21.4,40.7,22.4z"/>
</svg>
