<?xml version="1.0" encoding="utf-8"?>
<!-- Generator: Adobe Illustrator 24.0.1, SVG Export Plug-In . SVG Version: 6.00 Build 0)  -->
<svg version="1.1" id="PICTOS_vectos" xmlns="http://www.w3.org/2000/svg" xmlns:xlink="http://www.w3.org/1999/xlink" x="0px"
	 y="0px" viewBox="0 0 46 46" style="enable-background:new 0 0 46 46;" xml:space="preserve">
<style type="text/css">
	.st0{fill:#25465F;}
</style>
<path class="st0" d="M23,20.8c-2.6,0-4.6,1-4.6,2.2s2.1,2.2,4.7,2.2s4.6-1,4.6-2.2S25.6,20.8,23,20.8z"/>
<path class="st0" d="M39.5,8C39,7.4,38,7.2,37.4,7.7c-0.7,0.5-0.8,1.4-0.4,2.1c0.1,0.1,0.1,0.2,0.2,0.2c6.5,7.5,6.4,18.6-0.2,26
	c-0.6,0.6-0.5,1.6,0.1,2.1c0.3,0.2,0.6,0.4,1,0.4c0.4,0,0.8-0.2,1.1-0.5C46.8,29.5,46.9,16.7,39.5,8z"/>
<path class="st0" d="M35.8,11.8c-0.6-0.6-1.5-0.7-2.1-0.1c-0.6,0.5-0.7,1.4-0.2,2c4.5,5.4,4.4,13.2-0.2,18.5
	c-0.5,0.6-0.5,1.6,0.1,2.1c0,0,0,0,0,0c0.3,0.2,0.6,0.4,1,0.4c0.4,0,0.9-0.2,1.1-0.5C41.1,27.8,41.2,18.3,35.8,11.8z"/>
<path class="st0" d="M32,15.6c-0.5-0.7-1.4-0.8-2.1-0.3c-0.7,0.5-0.8,1.4-0.3,2.1c0,0,0,0,0,0c2.5,3.3,2.4,7.9-0.2,11.1
	c-0.5,0.6-0.4,1.6,0.2,2.1c0,0,0,0,0,0c0.3,0.2,0.6,0.3,0.9,0.3c0.5,0,0.9-0.2,1.2-0.6C35.2,26.1,35.3,20,32,15.6z"/>
<path class="st0" d="M9,10c0.5-0.6,0.4-1.6-0.2-2.1C8.2,7.4,7.3,7.5,6.8,8C-0.9,16.5-1,29.4,6.5,38c0.3,0.3,0.7,0.5,1.1,0.5
	c0.4,0,0.7-0.1,1-0.4c0.6-0.5,0.7-1.5,0.2-2.1c0,0,0,0,0,0C2.3,28.5,2.4,17.4,9,10z"/>
<path class="st0" d="M12.8,13.7c0.6-0.6,0.5-1.6-0.1-2.1c-0.6-0.6-1.6-0.5-2.1,0.1c-5.6,6.4-5.7,15.9-0.2,22.4
	c0.3,0.3,0.7,0.5,1.1,0.5c0.8,0,1.5-0.6,1.5-1.5c0-0.4-0.1-0.7-0.4-1C8.1,26.9,8.2,19,12.8,13.7z"/>
<path class="st0" d="M16.3,15.3c-0.6-0.5-1.6-0.4-2.1,0.2c0,0,0,0,0,0C10.8,19.9,10.7,26,14,30.4c0.3,0.4,0.7,0.6,1.2,0.6
	c0.3,0,0.6-0.1,0.9-0.3c0.7-0.5,0.8-1.4,0.3-2.1l0,0c-2.5-3.3-2.4-7.9,0.2-11.1C17.1,16.8,17,15.9,16.3,15.3
	C16.3,15.4,16.3,15.4,16.3,15.3z"/>
</svg>
