<?xml version="1.0" encoding="utf-8"?>
<!-- Generator: Adobe Illustrator 24.0.1, SVG Export Plug-In . SVG Version: 6.00 Build 0)  -->
<svg version="1.1" id="PICTOS_vectos" xmlns="http://www.w3.org/2000/svg" xmlns:xlink="http://www.w3.org/1999/xlink" x="0px"
	 y="0px" viewBox="0 0 46.1 46.1" style="enable-background:new 0 0 46.1 46.1;" xml:space="preserve">
<style type="text/css">
	.st0{fill:#25465F;}
</style>
<path class="st0" d="M3.3,19.5C2,19.5,1,21.5,1,24.1s1,4.6,2.2,4.7s2.2-2.1,2.2-4.7S4.5,19.5,3.3,19.5z"/>
<path class="st0" d="M30.5,8.2c-0.5-0.3-1-0.3-1.5,0l-14.5,8.4H9.2c-0.8,0-1.5,0.7-1.5,1.5v12.2c0,0.8,0.7,1.5,1.5,1.5h5.4L29,40.1
	c0.5,0.3,1,0.3,1.5,0c0.5-0.3,0.8-0.8,0.8-1.3V9.5C31.2,9,31,8.5,30.5,8.2z M28.2,36.2L15.8,29c-0.2-0.1-0.5-0.2-0.8-0.2h-4.3v-9.2
	h4.2c0.3,0,0.7-0.1,0.9-0.3l12.4-7.2V36.2z"/>
<path class="st0" d="M41.1,24.4l3.2-3.2c0.6-0.6,0.6-1.5,0-2.1s-1.5-0.6-2.1,0L39,22.3l-3.2-3.2c-0.6-0.6-1.5-0.6-2.1,0
	s-0.6,1.5,0,2.1l3.2,3.2l-3.2,3.2c-0.6,0.6-0.6,1.5,0,2.1c0.3,0.3,0.7,0.4,1.1,0.4c0.4,0,0.8-0.2,1.1-0.4l3.2-3.2l3.2,3.2
	c0.6,0.6,1.5,0.6,2.1,0c0.6-0.6,0.6-1.5,0-2.1c0,0,0,0,0,0L41.1,24.4z"/>
</svg>
