<svg id="PICTOS_vectos" xmlns="http://www.w3.org/2000/svg" viewBox="0 0 46 46"><defs><style>.cls-1{fill:#25465f;}</style></defs><path class="cls-1" d="M13.49,31.23c1.46-2.11,1.83-4.38.81-5.09s-3,.51-4.51,2.62S8,33.08,9,33.78,12,33.34,13.49,31.23Z"/><path class="cls-1" d="M36.18,31.23c1.46-2.11,1.83-4.38.81-5.09s-3.05.51-4.51,2.62-1.78,4.32-.77,5S34.72,33.34,36.18,31.23Z"/><path class="cls-1" d="M43.77,22.34a1.08,1.08,0,0,0-.13-.29l-5.85-10a2.13,2.13,0,0,0-2.07-1.61H10.28A2.13,2.13,0,0,0,8.21,12.1l-5.85,10a1.08,1.08,0,0,0-.13.29,1.5,1.5,0,0,0-1.14,1.45v12.9a1.5,1.5,0,0,0,1.5,1.5H4.75v2.66A3.28,3.28,0,0,0,7.9,44.23h2.46a3.28,3.28,0,0,0,3.15-3.38V38.19h19v2.66a3.28,3.28,0,0,0,3.15,3.38H38.1a3.28,3.28,0,0,0,3.15-3.38V38.19h2.16a1.5,1.5,0,0,0,1.5-1.5V23.79A1.5,1.5,0,0,0,43.77,22.34ZM10.88,13.49H35.12l5,8.44H5.9Zm-.37,27.36a.52.52,0,0,1-.15.38H7.91a.44.44,0,0,1-.16-.38V38.19h2.76Zm27.74,0a.48.48,0,0,1-.15.38H35.65a.47.47,0,0,1-.16-.38V38.19h2.76Zm3.66-5.66H4.09v-9.9H41.91Z"/><path class="cls-1" d="M16.2,9.42H29.8a1.68,1.68,0,0,0,1.68-1.68V3.46A1.69,1.69,0,0,0,29.8,1.77H16.2a1.69,1.69,0,0,0-1.68,1.69V7.74A1.68,1.68,0,0,0,16.2,9.42Zm1.32-4.65h11V6.42h-11Z"/></svg>