<svg id="PICTOS_vectos" xmlns="http://www.w3.org/2000/svg" viewBox="0 0 46 46"><defs><style>.cls-1{fill:#25465f;}</style></defs><path class="cls-1" d="M45,5.5A3.5,3.5,0,0,0,41.5,2h-11a3.48,3.48,0,0,0-2,.64,3.48,3.48,0,0,0-2-.64H4.5A3.5,3.5,0,0,0,1,5.5v9a3.48,3.48,0,0,0,.64,2,3.48,3.48,0,0,0-.64,2v9a3.48,3.48,0,0,0,.64,2,3.48,3.48,0,0,0-.64,2v9A3.5,3.5,0,0,0,4.5,44h22a3.48,3.48,0,0,0,2-.64,3.48,3.48,0,0,0,2,.64h11A3.5,3.5,0,0,0,45,40.5v-9a3.48,3.48,0,0,0-.64-2,3.48,3.48,0,0,0,.64-2v-9a3.48,3.48,0,0,0-.64-2,3.48,3.48,0,0,0,.64-2ZM30.5,5h11a.51.51,0,0,1,.5.5v9a.51.51,0,0,1-.5.5h-11a.51.51,0,0,1-.5-.5v-9A.51.51,0,0,1,30.5,5ZM42,18.5v9a.51.51,0,0,1-.5.5h-22a.51.51,0,0,1-.5-.5v-9a.51.51,0,0,1,.5-.5h22A.51.51,0,0,1,42,18.5Zm-38,9v-9a.51.51,0,0,1,.5-.5h11a.51.51,0,0,1,.5.5v9a.51.51,0,0,1-.5.5H4.5A.51.51,0,0,1,4,27.5Zm0-22A.51.51,0,0,1,4.5,5h22a.51.51,0,0,1,.5.5v9a.51.51,0,0,1-.5.5H4.5a.51.51,0,0,1-.5-.5ZM26.5,41H4.5a.51.51,0,0,1-.5-.5v-9a.51.51,0,0,1,.5-.5h22a.51.51,0,0,1,.5.5v9A.51.51,0,0,1,26.5,41ZM42,40.5a.51.51,0,0,1-.5.5h-11a.51.51,0,0,1-.5-.5v-9a.51.51,0,0,1,.5-.5h11a.51.51,0,0,1,.5.5Z"/></svg>