<?xml version="1.0" encoding="utf-8"?>
<!-- Generator: Adobe Illustrator 24.0.1, SVG Export Plug-In . SVG Version: 6.00 Build 0)  -->
<svg version="1.1" id="PICTOS_vectos" xmlns="http://www.w3.org/2000/svg" xmlns:xlink="http://www.w3.org/1999/xlink" x="0px"
	 y="0px" viewBox="0 0 46 46" style="enable-background:new 0 0 46 46;" xml:space="preserve">
<style type="text/css">
	.st0{fill:#25465F;}
</style>
<path class="st0" d="M24.2,11.3H2.8c-1,0-1.8,0.8-1.8,1.8l0,0v3.6c0,0.8,0.5,1.5,1.2,1.7v18.4c0,1.8,1.5,3.3,3.3,3.3h16
	c1.8,0,3.3-1.5,3.3-3.3V18.4c0.7-0.3,1.2-0.9,1.2-1.7v-3.6C26,12.1,25.2,11.3,24.2,11.3L24.2,11.3z M23,14.3v1.2H4v-1.2H23z
	 M21.5,37.2h-16c-0.1,0-0.3-0.1-0.3-0.3V18.5h3.2v15.4c0,0.8,0.7,1.5,1.5,1.5s1.5-0.7,1.5-1.5V18.5h4.2v15.4c0,0.8,0.7,1.5,1.5,1.5
	s1.5-0.7,1.5-1.5V18.5h3.2v18.4C21.8,37,21.6,37.2,21.5,37.2z"/>
<path class="st0" d="M43.3,21.4H28.7c-0.9,0-1.7,0.8-1.7,1.7v3.7c0,0.6,0.3,1.1,0.8,1.4v9.4c0,1.4,1.2,2.6,2.6,2.6h11.2
	c1.4,0,2.6-1.2,2.6-2.6v-9.4c0.5-0.3,0.8-0.9,0.8-1.4v-3.7C45,22.2,44.2,21.4,43.3,21.4z M30,24.4h12v1.1H30V24.4z M30.8,37.2v-8.7
	h1.4v5.4c0,0.8,0.7,1.5,1.5,1.5s1.5-0.7,1.5-1.5v-5.4h1.6v5.4c0,0.8,0.7,1.5,1.5,1.5s1.5-0.7,1.5-1.5v-5.4h1.4v8.7H30.8z"/>
<path class="st0" d="M13.6,10.2c2.6,0,4.6-1,4.6-2.2s-2.1-2.2-4.6-2.3S8.9,6.7,8.9,8S11,10.2,13.6,10.2z"/>
<path class="st0" d="M36.1,20.4c2.6,0,4.6-1,4.6-2.2S38.6,16,36,15.9s-4.6,1-4.6,2.2C31.4,19.3,33.5,20.4,36.1,20.4z"/>
</svg>
