<?xml version="1.0" encoding="utf-8"?>
<!-- Generator: Adobe Illustrator 24.0.1, SVG Export Plug-In . SVG Version: 6.00 Build 0)  -->
<svg version="1.1" id="PICTOS_vectos" xmlns="http://www.w3.org/2000/svg" xmlns:xlink="http://www.w3.org/1999/xlink" x="0px"
	 y="0px" viewBox="0 0 46 46" style="enable-background:new 0 0 46 46;" xml:space="preserve">
<style type="text/css">
	.st0{fill:#25465F;}
</style>
<path class="st0" d="M40.4,23c0-6-3-11.5-8.1-14.7V2.5c0-0.8-0.7-1.5-1.5-1.5s-1.5,0.7-1.5,1.5v4.3c-4.1-1.6-8.6-1.6-12.7,0V2.5
	C16.7,1.7,16,1,15.2,1s-1.5,0.7-1.5,1.5v5.8c-8.1,5.1-10.5,15.9-5.4,24c1.4,2.2,3.2,4,5.4,5.4v5.8c0,0.8,0.7,1.5,1.5,1.5
	s1.5-0.7,1.5-1.5v-4.3c4.1,1.6,8.6,1.6,12.7,0v4.3c0,0.8,0.7,1.5,1.5,1.5s1.5-0.7,1.5-1.5v-5.8C37.4,34.5,40.4,28.9,40.4,23z
	 M24.5,37.3v-0.7c0-0.8-0.7-1.5-1.5-1.5s-1.5,0.7-1.5,1.5v0.7c-6.8-0.7-12.1-6.1-12.8-12.8h0.7c0.8,0,1.5-0.7,1.5-1.5
	s-0.7-1.5-1.5-1.5H8.7c0.7-6.8,6.1-12.1,12.8-12.8v0.7c0,0.8,0.7,1.5,1.5,1.5s1.5-0.7,1.5-1.5V8.7c6.8,0.7,12.1,6.1,12.8,12.8h-0.7
	c-0.8,0-1.5,0.7-1.5,1.5s0.7,1.5,1.5,1.5h0.7C36.6,31.3,31.3,36.6,24.5,37.3z"/>
<path class="st0" d="M26.8,21.5h-2.3V16c0-0.8-0.7-1.5-1.5-1.5s-1.5,0.7-1.5,1.5v7c0,0.8,0.7,1.5,1.5,1.5h3.8c0.8,0,1.5-0.7,1.5-1.5
	S27.6,21.5,26.8,21.5z"/>
</svg>
