<?xml version="1.0" encoding="utf-8"?>
<!-- Generator: Adobe Illustrator 24.0.1, SVG Export Plug-In . SVG Version: 6.00 Build 0)  -->
<svg version="1.1" id="PICTOS_vectos" xmlns="http://www.w3.org/2000/svg" xmlns:xlink="http://www.w3.org/1999/xlink" x="0px"
	 y="0px" viewBox="0 0 46 46" style="enable-background:new 0 0 46 46;" xml:space="preserve">
<style type="text/css">
	.st0{fill:#25465F;}
</style>
<path class="st0" d="M23.1,21.2c2.6,0,4.6-1,4.6-2.2s-2.1-2.2-4.6-2.3c-2.6,0-4.6,1-4.6,2.2S20.5,21.2,23.1,21.2z"/>
<path class="st0" d="M35.2,30.7c6.5-6.8,6.2-17.5-0.5-23.9S17.2,0.5,10.8,7.3c-6.3,6.5-6.3,16.9,0,23.4c-3,3.1-4.7,7.3-4.7,11.7
	c0,0.8,0.7,1.5,1.5,1.5h30.9c0.8,0,1.5-0.7,1.5-1.5C39.9,38.1,38.2,33.9,35.2,30.7z M23,5.1c7.7,0,13.9,6.2,13.9,13.9
	C36.9,26.7,30.7,33,23,33C15.3,33,9.1,26.7,9.1,19c0,0,0,0,0,0C9.1,11.3,15.3,5.1,23,5.1z M9.1,40.9c0.3-3.1,1.7-6,3.9-8.2
	c5.9,4.4,14,4.4,19.9,0c2.2,2.2,3.5,5.1,3.9,8.2H9.1z"/>
<path class="st0" d="M23,28.8c5.4,0,9.7-4.4,9.7-9.8c0-5.4-4.4-9.7-9.8-9.7c-5.4,0-9.7,4.3-9.7,9.7C13.2,24.4,17.6,28.8,23,28.8
	C23,28.8,23,28.8,23,28.8z M23,10.8c4.6,0,8.2,3.7,8.2,8.3c0,4.6-3.7,8.2-8.3,8.2s-8.2-3.7-8.2-8.3c0,0,0,0,0,0
	C14.8,14.5,18.5,10.8,23,10.8z"/>
<path class="st0" d="M22.2,8.5l0.3,0.1l0.3,0.1c0.5,0.1,1-0.1,1.4-0.4c0.6-0.6,0.6-1.5,0-2.1c-0.4-0.4-0.9-0.5-1.4-0.4l-0.3,0.1
	L22.2,6c-0.1,0.1-0.2,0.1-0.2,0.2c-0.6,0.6-0.6,1.5,0,2.1c0,0,0,0,0,0C22,8.4,22.1,8.5,22.2,8.5z"/>
</svg>
