<?xml version="1.0" encoding="utf-8"?>
<!-- Generator: Adobe Illustrator 24.0.1, SVG Export Plug-In . SVG Version: 6.00 Build 0)  -->
<svg version="1.1" id="PICTOS_vectos" xmlns="http://www.w3.org/2000/svg" xmlns:xlink="http://www.w3.org/1999/xlink" x="0px"
	 y="0px" viewBox="0 0 46.1 46.1" style="enable-background:new 0 0 46.1 46.1;" xml:space="preserve">
<style type="text/css">
	.st0{fill:#25465F;}
</style>
<path class="st0" d="M12.5,21.5c-0.8,0-1.5,0.7-1.5,1.5c0,0.8,0.7,1.5,1.5,1.5c5,0,9.1,4.1,9.1,9.1c0,0.8,0.7,1.5,1.5,1.5
	c0.8,0,1.5-0.7,1.5-1.5C24.5,27,19.1,21.6,12.5,21.5z"/>
<path class="st0" d="M12.5,16.2c-0.8,0-1.5,0.7-1.5,1.5c0,0.8,0.7,1.5,1.5,1.5c7.9,0,14.4,6.4,14.4,14.4c0,0.8,0.7,1.5,1.5,1.5
	s1.5-0.7,1.5-1.5C29.8,24,22.1,16.3,12.5,16.2z"/>
<path class="st0" d="M12.5,11c-0.8,0-1.5,0.7-1.5,1.5c0,0.8,0.7,1.5,1.5,1.5c10.9,0,19.6,8.8,19.7,19.7c0,0.8,0.7,1.5,1.5,1.5
	s1.5-0.7,1.5-1.5C35.1,21.1,25,11,12.5,11z"/>
<path class="st0" d="M11.8,28c-0.8,0.9,0,3,1.9,4.8c1.9,1.8,4.1,2.4,4.9,1.5c0.8-0.9-0.1-3.1-1.9-4.8S12.6,27.1,11.8,28z"/>
</svg>
