<?xml version="1.0" encoding="utf-8"?>
<!-- Generator: Adobe Illustrator 24.0.1, SVG Export Plug-In . SVG Version: 6.00 Build 0)  -->
<svg version="1.1" id="PICTOS_vectos" xmlns="http://www.w3.org/2000/svg" xmlns:xlink="http://www.w3.org/1999/xlink" x="0px"
	 y="0px" viewBox="0 0 46 46" style="enable-background:new 0 0 46 46;" xml:space="preserve">
<style type="text/css">
	.st0{opacity:0.35;fill:#25465F;enable-background:new    ;}
	.st1{fill:#25465F;}
</style>
<path class="st0" d="M33.6,35.1c-0.8,0-1.5-0.7-1.5-1.5c0-10.9-8.8-19.6-19.7-19.7c-0.8,0-1.5-0.7-1.5-1.5s0.7-1.5,1.5-1.5
	c12.5,0,22.6,10.2,22.7,22.7C35.1,34.4,34.4,35.1,33.6,35.1z"/>
<path class="st1" d="M12.4,21.5c-0.8,0-1.5,0.7-1.5,1.5c0,0.8,0.7,1.5,1.5,1.5c5,0,9.1,4.1,9.1,9.1c0,0.8,0.7,1.5,1.5,1.5
	s1.5-0.7,1.5-1.5C24.5,26.9,19.1,21.5,12.4,21.5z"/>
<path class="st1" d="M12.4,16.2c-0.8,0-1.5,0.7-1.5,1.5c0,0.8,0.7,1.5,1.5,1.5c7.9,0,14.4,6.4,14.4,14.4c0,0.8,0.7,1.5,1.5,1.5
	s1.5-0.7,1.5-1.5C29.8,24,22,16.2,12.4,16.2z"/>
<path class="st1" d="M11.8,28c-0.8,0.9,0,3,1.9,4.8c1.9,1.8,4.1,2.4,4.9,1.5c0.8-0.9-0.1-3.1-1.9-4.8S12.6,27.1,11.8,28z"/>
</svg>
