<svg id="PICTOS_vectos" xmlns="http://www.w3.org/2000/svg" viewBox="0 0 46 46"><defs><style>.cls-1{fill:#25465f;}</style></defs><path class="cls-1" d="M27.79,27.05a1.5,1.5,0,0,0,1.44,1.06,1.59,1.59,0,0,0,.43-.06,1.49,1.49,0,0,0,1-1.87L28,17.52h3.2a1.5,1.5,0,0,0,1.5-1.5V4.46A1.5,1.5,0,0,0,31.24,3H23.92V2.5a1.5,1.5,0,0,0-3,0V3H13.6a1.5,1.5,0,0,0-1.5,1.5V16a1.5,1.5,0,0,0,1.5,1.5h3l-2.63,8.66a1.49,1.49,0,0,0,1,1.87,1.59,1.59,0,0,0,.43.06,1.5,1.5,0,0,0,1.44-1.06l2.89-9.53H20.8V23.4a1.5,1.5,0,0,0,3,0V17.52h1.1ZM15.1,6H29.74v8.56H15.1Z"/><path class="cls-1" d="M39.8,34.86c-2.54-.46-4.69.15-4.91,1.37s1.65,2.58,4.18,3,4.77-.15,5-1.36S42.33,35.33,39.8,34.86Z"/><path class="cls-1" d="M8.82,26.88a8.76,8.76,0,0,0,1.93-5.5,8.84,8.84,0,0,0-8.83-8.83,1.5,1.5,0,0,0,0,3,5.83,5.83,0,0,1,0,11.66,1.5,1.5,0,0,0,0,3,8.77,8.77,0,0,0,4.59-1.3c2.79,1.95,5.33,5.61,7.26,10.51-1,.83-4,2.58-11.83,2.58a1.5,1.5,0,1,0,0,3c12.18,0,14.65-4.11,14.89-4.58a1.5,1.5,0,0,0,.08-1.21C14.83,33.59,12.05,29.37,8.82,26.88Z"/><path class="cls-1" d="M42.92,27.21a5.83,5.83,0,1,1,0-11.66,1.5,1.5,0,0,0,0-3A8.81,8.81,0,0,0,36,26.88c-3.24,2.49-6,6.71-8.09,12.33A1.5,1.5,0,0,0,28,40.42c.25.47,2.72,4.58,14.9,4.58a1.5,1.5,0,0,0,0-3C35.05,42,32,40.23,31.07,39.43c1.93-4.91,4.48-8.57,7.27-10.52a8.73,8.73,0,0,0,4.58,1.3,1.5,1.5,0,0,0,0-3Z"/></svg>