<?xml version="1.0" encoding="utf-8"?>
<!-- Generator: Adobe Illustrator 24.0.1, SVG Export Plug-In . SVG Version: 6.00 Build 0)  -->
<svg version="1.1" id="PICTOS_vectos" xmlns="http://www.w3.org/2000/svg" xmlns:xlink="http://www.w3.org/1999/xlink" x="0px"
	 y="0px" viewBox="0 0 46 46" style="enable-background:new 0 0 46 46;" xml:space="preserve">
<style type="text/css">
	.st0{fill:#25465F;}
</style>
<path class="st0" d="M16.1,15.4c1-0.7,0.6-3-0.9-5.1s-3.4-3.2-4.4-2.5s-0.6,3,0.8,5.1S15.1,16.1,16.1,15.4z"/>
<path class="st0" d="M24,16h-7c-0.8,0-1.5,0.7-1.5,1.5c0,0.8,0.7,1.5,1.5,1.5h7c0.8,0,1.5-0.7,1.5-1.5C25.5,16.7,24.8,16,24,16z"/>
<path class="st0" d="M24,20H3c-0.8,0-1.5,0.7-1.5,1.5v16.9c0,0.8,0.7,1.5,1.5,1.5s1.5-0.7,1.5-1.5V23H24c0.8,0,1.5-0.7,1.5-1.5
	C25.5,20.7,24.8,20,24,20z"/>
<path class="st0" d="M43.2,10.9c-0.8-0.1-1.6,0.5-1.7,1.3c0,0,0,0,0,0l-1.8,14.1h-8.7c-0.8,0-1.5,0.7-1.5,1.5s0.7,1.5,1.5,1.5h3.2
	v5.5c-0.8,0.3-1.2,1.1-0.9,1.9c0.2,0.6,0.8,1,1.4,1h2c0.8,0,1.5-0.7,1.5-1.5c0-0.6-0.4-1.2-1-1.4v-5.5h3.2c0.1,0,0.2,0,0.3,0h0.1H41
	c0.8,0,1.4-0.6,1.5-1.4l2-15.4C44.5,11.8,44,11,43.2,10.9z"/>
<path class="st0" d="M32.3,37.9c0-0.1-0.1-0.2-0.1-0.2c-0.1-0.2-0.3-0.3-0.4-0.4l-0.3-0.1c-0.1,0-0.2-0.1-0.3-0.1
	c-0.2,0-0.4,0-0.6,0c-0.1,0-0.2,0-0.3,0.1l-0.3,0.1c-0.1,0.1-0.2,0.1-0.2,0.2c-0.1,0.1-0.1,0.1-0.2,0.2c-0.1,0.1-0.1,0.2-0.1,0.2
	c-0.1,0.2-0.1,0.4-0.1,0.6c0,0.2,0,0.4,0.1,0.6c0.1,0.2,0.2,0.3,0.3,0.5c0.3,0.3,0.7,0.4,1.1,0.4c0.4,0,0.8-0.2,1.1-0.4
	c0.1-0.1,0.3-0.3,0.3-0.5c0.1-0.2,0.1-0.4,0.1-0.6C32.4,38.3,32.4,38.1,32.3,37.9L32.3,37.9z"/>
<path class="st0" d="M40.8,37.2l-0.3-0.1c-0.1,0-0.2-0.1-0.3-0.1c-0.5-0.1-1,0.1-1.3,0.4c-0.3,0.3-0.4,0.7-0.4,1.1
	c0,0.2,0,0.4,0.1,0.6c0.1,0.2,0.2,0.3,0.3,0.5c0.3,0.3,0.7,0.4,1.1,0.4c0.2,0,0.4,0,0.6-0.1c0.2-0.1,0.4-0.2,0.5-0.3
	c0.3-0.3,0.4-0.7,0.4-1.1c0-0.4-0.2-0.8-0.4-1.1C40.9,37.3,40.8,37.3,40.8,37.2z"/>
</svg>
