<svg xmlns="http://www.w3.org/2000/svg" viewBox="0 0 289.61 91.47"><defs><style>.cls-1{isolation:isolate;}.cls-2{fill:#fff;}.cls-3{fill:#1a171b;opacity:0.2;mix-blend-mode:multiply;}</style></defs><title>Fichier 1</title><g class="cls-1"><g id="Calque_2" data-name="Calque 2"><g id="Calque_1-2" data-name="Calque 1"><path class="cls-2" d="M45.73,0A45.74,45.74,0,1,0,91.46,45.73,45.72,45.72,0,0,0,45.73,0Zm33,34.81L58.43,43.07,55.94,40ZM46,28.18V28.1l0,0,0,0v.08L56.3,44,46.07,48.3v0H46v0L35.33,43.87ZM35.83,39.92,33.34,43,13,34.72ZM65.39,60.65H26.68L12.43,36.7,46,50.86,79.65,36.7Z"/><path class="cls-2" d="M230.14,29.89V14.68H238Z"/><path class="cls-2" d="M141.53,21.86H127.24V43.34h9.07v6.93h-9.07V76.45H120.3V14.93h21.23Z"/><path class="cls-2" d="M166,76.45h-7L158,68.83h-8.81l-.95,7.62h-7.35l9.49-61.52h6.25Zm-8.82-14.12-3.51-26.95-3.59,26.95Z"/><path class="cls-2" d="M195,65.58a11.63,11.63,0,0,1-.94,4.67,12.07,12.07,0,0,1-6.38,6.37,12,12,0,0,1-9.32,0,12,12,0,0,1-3.81-2.57,12.2,12.2,0,0,1-2.57-3.8,11.81,11.81,0,0,1-.94-4.67V25.88a11.76,11.76,0,0,1,.94-4.66,12.25,12.25,0,0,1,2.57-3.81,11.94,11.94,0,0,1,3.81-2.56,11.9,11.9,0,0,1,9.32,0,11.94,11.94,0,0,1,3.81,2.56,12.08,12.08,0,0,1,2.57,3.81,11.59,11.59,0,0,1,.94,4.66v2h-6.93v-2a4.81,4.81,0,0,0-1.5-3.59A5,5,0,0,0,178,25.88v39.7a5,5,0,0,0,8.59,3.6,4.82,4.82,0,0,0,1.5-3.6v-.77L195,62.5Z"/><path class="cls-2" d="M207.58,76.45h-6.93V14.93h6.93Z"/><path class="cls-2" d="M232.65,76.45H213.91V14.93h6.93V69.52h11.81Z"/><path class="cls-2" d="M249.93,76.45H243v-48h6.93Z"/><path class="cls-2" d="M270,70.72a3.86,3.86,0,0,0,1.88-.47,3.49,3.49,0,0,0,1.29-1.16l4.7,5.13a8.75,8.75,0,0,1-3.38,2.44,10.66,10.66,0,0,1-4.23.9,9.84,9.84,0,0,1-8-3.34,12.77,12.77,0,0,1-2.82-8.55V34.52h-4.37V28.45h4.37V19.72l6.93-2.31v11h9.15v6.07h-9.15V65.67Q266.36,70.73,270,70.72Z"/><path class="cls-2" d="M289.37,76.45h-6.93v-48h6.93Z"/><path class="cls-2" d="M250.19,17.73a3.61,3.61,0,1,1-3.6-3.61A3.6,3.6,0,0,1,250.19,17.73Z"/><path class="cls-2" d="M289.61,17.73A3.61,3.61,0,1,1,286,14.12,3.61,3.61,0,0,1,289.61,17.73Z"/><path class="cls-3" d="M26.68,60.65,56.83,90.1A45.75,45.75,0,0,0,91.4,48.19L79.65,36.7,65.39,60.65Z"/></g></g></g></svg>