<svg id="Calque_2" xmlns="http://www.w3.org/2000/svg" viewBox="0 0 189.6 47.9"><style>.st0{fill:#fff}</style><path class="st0" d="M103.1 33.5c-.9.2-1.5.4-1.9.7-.4.3-.6.7-.6 1.3s.2 1 .6 1.2c.4.2.8.4 1.4.4.9 0 1.6-.2 2.1-.7.5-.5.8-1.1.8-1.8v-1.7c-.3.2-.6.3-1 .4-.6 0-1 .1-1.4.2zM118.6 24.7c-.5 0-.9.1-1.3.3s-.7.5-.9.9c-.2.4-.4.8-.6 1.3-.1.5-.2 1-.2 1.6 0 1.1.3 2.1.8 2.8s1.3 1.1 2.3 1.1c.9 0 1.6-.4 2.1-1 .5-.7.7-1.7.7-2.9s-.2-2.2-.7-2.9c-.6-.9-1.3-1.2-2.2-1.2zM32.7 33.5c-.9.2-1.5.4-1.9.7-.4.3-.6.7-.6 1.3s.2 1 .6 1.2c.4.2.8.4 1.4.4.9 0 1.6-.2 2.1-.7.5-.5.8-1.1.8-1.8v-1.7c-.3.2-.6.3-1 .4-.6 0-1 .1-1.4.2zM150.4 28.3c-.9 0-1.6.3-2 .8-.5.5-.8 1.3-.9 2.2h5.7c-.1-.9-.3-1.7-.8-2.2-.6-.5-1.2-.8-2-.8zM64.9 29.7c-.2-.4-.6-.6-.9-.8-.4-.2-.8-.3-1.3-.3-.9 0-1.6.4-2.1 1.1s-.7 1.7-.7 2.9.2 2.2.7 2.9 1.1 1.1 2.1 1.1 1.7-.4 2.2-1.1c.5-.7.8-1.7.8-2.8 0-.6-.1-1.1-.2-1.6s-.4-1.1-.6-1.4zM175.5 28.3c-1 0-1.8.4-2.3 1.2-.5.8-.8 1.8-.8 3.1 0 1.2.3 2.3.8 3 .5.8 1.3 1.2 2.3 1.2 1 0 1.7-.4 2.3-1.2.5-.8.8-1.8.8-3 0-1.3-.3-2.3-.8-3.1-.6-.8-1.3-1.2-2.3-1.2z"/><path class="st0" d="M0 0v47.9h189.6V0H0zm177.1 4.9c.9 0 1.6.7 1.6 1.6s-.7 1.6-1.6 1.6-1.6-.7-1.6-1.6.7-1.6 1.6-1.6zm0 9.5c.9 0 1.6.7 1.6 1.6s-.7 1.6-1.6 1.6-1.6-.7-1.6-1.6.7-1.6 1.6-1.6zm-12.2-9.5c.9 0 1.6.7 1.6 1.6s-.7 1.6-1.6 1.6-1.6-.7-1.6-1.6.7-1.6 1.6-1.6zm0 4.7c.9 0 1.6.7 1.6 1.6s-.7 1.6-1.6 1.6-1.6-.7-1.6-1.6.7-1.6 1.6-1.6zm0 4.8c.9 0 1.6.7 1.6 1.6s-.7 1.6-1.6 1.6-1.6-.7-1.6-1.6.7-1.6 1.6-1.6zm-13.5-9.5c.9 0 1.6.7 1.6 1.6s-.7 1.6-1.6 1.6-1.6-.7-1.6-1.6.7-1.6 1.6-1.6zm0 4.7c.9 0 1.6.7 1.6 1.6s-.7 1.6-1.6 1.6-1.6-.7-1.6-1.6.7-1.6 1.6-1.6zm0 4.8c.9 0 1.6.7 1.6 1.6s-.7 1.6-1.6 1.6-1.6-.7-1.6-1.6.7-1.6 1.6-1.6zm-1.2 5.5h4.6l-3 4h-2.9l1.3-4zm-6.3-10.3c.9 0 1.6.7 1.6 1.6s-.7 1.6-1.6 1.6-1.6-.7-1.6-1.6.7-1.6 1.6-1.6zm-5-4.7c.9 0 1.6.7 1.6 1.6s-.7 1.6-1.6 1.6-1.6-.7-1.6-1.6.7-1.6 1.6-1.6zm0 9.5c.9 0 1.6.7 1.6 1.6s-.7 1.6-1.6 1.6-1.6-.7-1.6-1.6.7-1.6 1.6-1.6zm-8.5-9.5c.9 0 1.6.7 1.6 1.6s-.7 1.6-1.6 1.6-1.6-.7-1.6-1.6.7-1.6 1.6-1.6zm0 9.5c.9 0 1.6.7 1.6 1.6s-.7 1.6-1.6 1.6-1.6-.7-1.6-1.6.7-1.6 1.6-1.6zm-23-9.2c.9 0 1.6.7 1.6 1.6 0 .9-.7 1.6-1.6 1.6s-1.6-.7-1.6-1.6c0-.9.7-1.6 1.6-1.6zm0 4.4c.9 0 1.6.7 1.6 1.6s-.7 1.6-1.6 1.6-1.6-.7-1.6-1.6.7-1.6 1.6-1.6zm0 4.8c.9 0 1.6.7 1.6 1.6s-.7 1.6-1.6 1.6-1.6-.7-1.6-1.6.7-1.6 1.6-1.6zM87.2 4.9c.9 0 1.6.7 1.6 1.6s-.7 1.6-1.6 1.6c-.9 0-1.6-.7-1.6-1.6s.7-1.6 1.6-1.6zm-5 0c.9 0 1.6.7 1.6 1.6s-.7 1.6-1.6 1.6c-.9 0-1.6-.7-1.6-1.6s.7-1.6 1.6-1.6zm-7.9 0c.9 0 1.6.7 1.6 1.6s-.7 1.6-1.6 1.6c-.9 0-1.6-.7-1.6-1.6s.7-1.6 1.6-1.6zm-12.7.3c.9 0 1.6.7 1.6 1.6 0 .9-.7 1.6-1.6 1.6S60 7.7 60 6.8c0-.9.7-1.6 1.6-1.6zm0 4.7c.9 0 1.6.7 1.6 1.6s-.7 1.6-1.6 1.6-1.6-.7-1.6-1.6.7-1.6 1.6-1.6zm-13-4.7c.9 0 1.6.7 1.6 1.6 0 .9-.7 1.6-1.6 1.6S47 7.7 47 6.8c0-.9.7-1.6 1.6-1.6zm0 4.7c.9 0 1.6.7 1.6 1.6s-.7 1.6-1.6 1.6-1.6-.7-1.6-1.6.7-1.6 1.6-1.6zm-5-4.7c.9 0 1.6.7 1.6 1.6 0 .9-.7 1.6-1.6 1.6S42 7.7 42 6.8c0-.9.7-1.6 1.6-1.6zm0 9c.9 0 1.6.7 1.6 1.6 0 .9-.7 1.6-1.6 1.6s-1.6-.7-1.6-1.6c0-.8.7-1.6 1.6-1.6zm-13-9c.9 0 1.6.7 1.6 1.6 0 .9-.7 1.6-1.6 1.6S29 7.7 29 6.8c0-.9.7-1.6 1.6-1.6zm-12.8 0c.9 0 1.6.7 1.6 1.6 0 .9-.7 1.6-1.6 1.6s-1.6-.7-1.6-1.6c0-.9.7-1.6 1.6-1.6zm0 4.7c.9 0 1.6.7 1.6 1.6s-.7 1.6-1.6 1.6-1.6-.7-1.6-1.6.7-1.6 1.6-1.6zm-7.7-4.7c.9 0 1.6.7 1.6 1.6 0 .9-.7 1.6-1.6 1.6s-1.6-.7-1.6-1.6c0-.9.7-1.6 1.6-1.6zm0 9c.9 0 1.6.7 1.6 1.6 0 .9-.7 1.6-1.6 1.6s-1.6-.7-1.6-1.6c0-.8.7-1.6 1.6-1.6zm13.9 25h-4.2v-7.9h-7v7.9H8.5V20.6h4.2v7.2h7v-7.2H24v18.6zm-1.6-26.1c-.9 0-1.6-.7-1.6-1.6s.7-1.6 1.6-1.6 1.6.7 1.6 1.6-.7 1.6-1.6 1.6zm16.8 26.1h-3.8c-.1-.1-.2-.4-.3-.6-.1-.3-.1-.6-.2-1-.4.6-1 1.1-1.6 1.5-.6.3-1.4.5-2.5.5-.6 0-1.3-.1-1.8-.3-.6-.2-1-.4-1.4-.8-.4-.3-.7-.8-1-1.3-.2-.5-.3-1.1-.3-1.7 0-.7.1-1.3.4-1.8s.6-.9 1.1-1.2c.5-.3 1-.5 1.6-.7s1.3-.3 2.1-.4c1.2-.2 2-.4 2.6-.6.5-.2.8-.6.8-1.1 0-.5-.2-.9-.5-1.2-.3-.3-.8-.4-1.5-.4-.8 0-1.3.2-1.7.5s-.6.7-.6 1.3H27c0-.6.1-1.1.4-1.6s.6-1 1.1-1.4c.5-.4 1.1-.7 1.8-1 .7-.2 1.6-.4 2.6-.4.9 0 1.6.1 2.2.2.6.1 1.2.3 1.6.6.7.4 1.2.9 1.5 1.6.3.7.5 1.5.5 2.4v6.8c0 1 .2 1.6.5 1.9v.2zm14.8 0h-3.9v-8c0-.7-.2-1.3-.6-1.8-.4-.4-.9-.7-1.7-.7-.8 0-1.4.3-1.9.8-.5.6-.7 1.2-.7 2.1v7.5h-3.9V25.9h3.8v2h.1c.4-.8 1-1.4 1.7-1.8.7-.4 1.5-.6 2.4-.6 1.5 0 2.6.4 3.4 1.3.8.9 1.2 2.1 1.2 3.6v8.8zm1-32.4c0-.9.7-1.6 1.6-1.6s1.6.7 1.6 1.6c0 .9-.7 1.6-1.6 1.6S55 7.7 55 6.8zm14.4 32.4h-3.8v-2h-.1c-.4.8-.9 1.4-1.6 1.8-.7.4-1.5.6-2.4.6-.9 0-1.6-.2-2.4-.5-.7-.3-1.3-.8-1.8-1.4s-.9-1.4-1.1-2.2c-.3-.9-.4-1.9-.4-3 0-1 .1-2 .4-2.8s.7-1.6 1.2-2.2 1.1-1.1 1.8-1.5c.7-.4 1.5-.5 2.4-.5.9 0 1.7.2 2.3.6.6.4 1.2.9 1.6 1.6 0-.4-.1-.9-.1-1.4V20.6h3.9v18.6zm.2-26.1c-.9 0-1.6-.7-1.6-1.6s.7-1.6 1.6-1.6c.9 0 1.6.7 1.6 1.6s-.7 1.6-1.6 1.6zm6.3 26.1H72V25.9h3.9v13.3zM76 24h-4v-3.4h4V24zm18.6 11.4c-.4.8-.9 1.6-1.5 2.2-.7.7-1.5 1.2-2.5 1.6-1 .4-2.1.5-3.4.5-1.3 0-2.6-.2-3.7-.7-1.1-.5-2.1-1.2-2.9-2-.8-.9-1.4-1.9-1.9-3.1-.5-1.2-.7-2.5-.7-3.9s.2-2.7.7-3.9c.4-1.2 1-2.2 1.8-3.1.8-.9 1.8-1.5 2.9-2 1.1-.5 2.4-.7 3.8-.7 1 0 2 .1 2.9.4.9.2 1.6.6 2.2 1.1.9.6 1.5 1.4 2 2.2.5.9.8 1.9.9 2.9H91c-.1-.9-.5-1.6-1.2-2.2-.7-.6-1.5-.9-2.6-.9-.8 0-1.5.2-2.1.5-.6.3-1.1.7-1.5 1.3s-.7 1.2-.9 2c-.2.8-.3 1.6-.3 2.4 0 .9.1 1.7.3 2.5.2.8.5 1.4 1 1.9.4.5.9 1 1.5 1.3.6.3 1.3.5 2 .5 1.2 0 2.1-.3 2.7-1 .7-.6 1.1-1.5 1.1-2.4h4.3c-.1.9-.3 1.7-.7 2.6zm.7-27c-.9 0-1.6-.7-1.6-1.6 0-.9.7-1.6 1.6-1.6s1.6.7 1.6 1.6c0 .9-.7 1.6-1.6 1.6zm14.3 30.8h-3.8c-.1-.1-.2-.4-.3-.6-.1-.3-.1-.6-.2-1-.4.6-1 1.1-1.6 1.5-.6.3-1.4.5-2.5.5-.6 0-1.3-.1-1.8-.3-.6-.2-1-.4-1.4-.8-.4-.3-.7-.8-1-1.3-.2-.5-.3-1.1-.3-1.7 0-.7.1-1.3.4-1.8s.6-.9 1.1-1.2c.5-.3 1-.5 1.6-.7s1.3-.3 2.1-.4c1.2-.2 2-.4 2.6-.6.5-.2.8-.6.8-1.1 0-.5-.2-.9-.5-1.2-.3-.3-.8-.4-1.5-.4-.8 0-1.3.2-1.7.5s-.6.7-.6 1.3h-3.6c0-.6.1-1.1.4-1.6s.6-1 1.1-1.4c.5-.4 1.1-.7 1.8-1 .7-.2 1.6-.4 2.6-.4.9 0 1.6.1 2.2.2.6.1 1.2.3 1.6.6.7.4 1.2.9 1.5 1.6.3.7.5 1.5.5 2.4v6.8c0 1 .2 1.6.5 1.9v.2zm1.2-32.4c0-.9.7-1.6 1.6-1.6s1.6.7 1.6 1.6c0 .9-.7 1.6-1.6 1.6s-1.6-.7-1.6-1.6zM125 31.5c-.3.9-.7 1.6-1.2 2.2s-1.1 1.1-1.9 1.4c-.7.3-1.5.5-2.4.5-.9 0-1.7-.2-2.3-.5-.7-.4-1.2-.9-1.6-1.5 0 .2.1.6.1 1.1v5h-3.9V21.9h3.8v1.9h.1c.9-1.5 2.2-2.3 4.1-2.3.9 0 1.7.2 2.4.5s1.3.8 1.8 1.5c.5.6.9 1.4 1.1 2.2s.4 1.8.4 2.8c-.1 1.2-.3 2.1-.5 3zm17.3 7.7H127v-3.5l6.9-8.3c.3-.3.6-.7 1-1.1s.7-.7 1-1.1c.4-.4.7-.8 1.1-1.1V24c-.5 0-1 .1-1.4.1h-7.8v-3.6h14.3V24l-6.6 8.1c-.3.4-.7.8-1 1.2-.4.4-.8.8-1.1 1.2l-1.2 1.2v.1c.5 0 1 0 1.5-.1h8.9v3.5zm0-23.2c0-.9.7-1.6 1.6-1.6s1.6.7 1.6 1.6-.7 1.6-1.6 1.6-1.6-.8-1.6-1.6zm6.1 19.9c.5.6 1.3.8 2.2.8.6 0 1.1-.1 1.5-.3.4-.2.7-.5.9-1h3.8c-.2.6-.4 1.1-.8 1.6s-.8.9-1.3 1.3-1.1.7-1.8.9c-.7.2-1.5.3-2.3.3-1.1 0-2.1-.2-2.9-.5-.9-.4-1.6-.9-2.2-1.5-.6-.6-1.1-1.4-1.4-2.2-.3-.9-.5-1.8-.5-2.8s.2-1.9.5-2.8c.3-.9.8-1.6 1.4-2.2.6-.6 1.3-1.1 2.1-1.5.8-.4 1.8-.5 2.8-.5 1 0 1.8.1 2.6.4.8.3 1.4.7 2 1.2.8.7 1.3 1.6 1.6 2.7.4 1.1.5 2.3.5 3.6h-9.7c.1 1.2.5 2 1 2.5zm8-18.3c-.9 0-1.6-.7-1.6-1.6s.7-1.6 1.6-1.6 1.6.7 1.6 1.6-.7 1.6-1.6 1.6zm0-4.8c-.9 0-1.6-.7-1.6-1.6s.7-1.6 1.6-1.6 1.6.7 1.6 1.6-.7 1.6-1.6 1.6zm0-4.7c-.9 0-1.6-.7-1.6-1.6s.7-1.6 1.6-1.6 1.6.7 1.6 1.6-.7 1.6-1.6 1.6zm11.1 21.1c-.4 0-.7-.1-.9-.1-1.1 0-1.9.3-2.6 1s-1 1.6-1 2.9v6.2h-3.9V25.9h3.8v2.4h.1c.4-.9.9-1.6 1.5-2 .6-.4 1.3-.6 2.1-.6.4 0 .7 0 .8.1v3.4zm2.4-19.6c.9 0 1.6.7 1.6 1.6s-.7 1.6-1.6 1.6-1.6-.7-1.6-1.6.7-1.6 1.6-1.6zM182 35.4c-.3.9-.8 1.6-1.4 2.2-.6.6-1.3 1.1-2.2 1.5-.9.4-1.8.5-2.9.5-1.1 0-2-.2-2.9-.5-.9-.4-1.6-.9-2.2-1.5-.6-.6-1.1-1.4-1.4-2.2s-.5-1.8-.5-2.8.2-1.9.5-2.8c.3-.9.8-1.6 1.4-2.2.6-.6 1.4-1.1 2.2-1.5.9-.4 1.8-.5 2.9-.5 1.1 0 2 .2 2.9.5.9.4 1.6.9 2.2 1.5s1.1 1.4 1.4 2.2c.3.9.5 1.8.5 2.8s-.2 1.9-.5 2.8zm.1-22.6c-.9 0-1.6-.7-1.6-1.6s.7-1.6 1.6-1.6 1.6.7 1.6 1.6-.7 1.6-1.6 1.6z"/></svg>