<?xml version="1.0" encoding="utf-8"?>
<!-- Generator: Adobe Illustrator 24.0.1, SVG Export Plug-In . SVG Version: 6.00 Build 0)  -->
<svg version="1.1" id="Calque_1" xmlns="http://www.w3.org/2000/svg" xmlns:xlink="http://www.w3.org/1999/xlink" x="0px" y="0px"
	 viewBox="0 0 1200 350" style="enable-background:new 0 0 1200 350;" xml:space="preserve">
<style type="text/css">
	.st0{fill:#25465F;}
</style>
<title>BT_TECH_RVB_CS5[6]</title>
<g>
	<path class="st0" d="M300.5,230.6l43.7-155.3h-37.8l-45.7,162.4c-7.1,25.3,4.2,37,26.6,37h19.9l9.3-33h-8.8
		C300.9,241.7,298.5,237.7,300.5,230.6z"/>
	<path class="st0" d="M423.5,123.4c-34,0-61.2,17-74.9,45.2l33.8,5.6c7.2-14.1,16.9-20.5,32.1-20.5c14.9,0,21.8,7.7,18,21l-1.1,4
		l-38.7,8c-38.6,7.7-58.8,22-65.8,47c-8.2,29.2,7.7,44.4,46.5,44.4c22.1,0,40.8-2.1,57.1-7.5c9.3-2.9,14.1-7.7,17-17.8l20.9-74.2
		C478.8,141.5,460.2,123.4,423.5,123.4z M415.5,237.7c-1.2,4.2-3,6.1-7.7,7.5c-7.3,2-14.9,3.1-22.4,3.2c-17.5,0-23.2-5.3-20.1-16.5
		c2.7-9.6,10.5-14.6,25.5-17.8l33.3-6.9L415.5,237.7z"/>
	<path class="st0" d="M686.2,116.8c13.3,0,25.9-9.8,29.4-22.3c3.7-13-3.5-22.6-16.8-22.6s-25.6,9.6-29.2,22.6
		C666.1,106.9,672.9,116.8,686.2,116.8z"/>
	<path class="st0" d="M644.3,126.6h-35.6l2-6.9c2.1-7.7,6.6-11.4,14.3-11.4h24.5l9.3-33h-28.2c-28.2,0-49.9,16.8-57.6,44.1l-2,7.2
		h-22.9l-9.3,33.2h22.9l-32.3,114.8h37.8l32.3-114.9H635L644.3,126.6z"/>
	<polygon class="st0" points="664.8,126.6 623.2,274.7 660.6,274.7 702.3,126.6 	"/>
	<path class="st0" d="M809.8,123.4c-18.1,0-33.2,7.5-45.2,20.7L784,75.3h-37.5l-49.4,175.5c-3.2,11.4,0.5,14.4,6.5,17.5
		c12.6,7.2,33.4,9.8,48.3,9.8c44.9,0,81.9-26.6,96.7-79C862.3,150.5,844.9,123.4,809.8,123.4z M810.6,199.2
		c-8.4,29.8-24.4,46-49.4,46c-6.2,0-12.4-0.9-18.4-2.7c-4.9-1.6-5.2-2.4-3.9-6.9l14.1-50.2c5.1-18.1,19.1-29,37.4-29
		C810.4,156.4,818.5,171,810.6,199.2L810.6,199.2z"/>
	<path class="st0" d="M972.5,126.6h-30.8c-33.8,0-57.5,15.4-68.1,52.9l-26.7,95.2h37.8l26.4-93.9c3.4-12.2,12-18.9,24.2-18.9h27.4
		L972.5,126.6z"/>
	<path class="st0" d="M1051.5,123.4c-44.1,0-79.1,29.8-92.3,76.9c-13.8,49.2,3.3,77.9,49.1,77.9c37,0,65.8-17.5,79.3-45.7l-33.1-7.2
		c-5.3,12.2-17.8,20.7-35.9,20.7c-20.2,0-30.2-9-24.7-35.9h92.5c7.7,0,9.9-5.1,13.5-17.8C1110.8,153.7,1096.2,123.4,1051.5,123.4z
		 M1064.8,184h-63c9.8-21.8,23.5-29.8,41.1-29.8C1060.7,154.3,1068.2,163.6,1064.8,184z"/>
	<path class="st0" d="M155.3,107.4h109.2l9-31.7H169.8c0,0-3.9-0.3-9.8,5.6s-9.3,14.3-9.5,18.8S151.8,107.4,155.3,107.4z"/>
	<path class="st0" d="M105.2,145.7c-6.1,6.9-8.1,13.7-8.5,17.6s1,7.4,4.7,7.4h145.3l8.9-31.6H116.2
		C116.2,139.1,111.3,138.8,105.2,145.7z"/>
	<path class="st0" d="M153.7,207.8c-5.7,5.6-8.9,13.4-9.5,17.1s-0.5,9.4,4.4,9.4h80.1l8.9-31.7h-74.2
		C163.5,202.5,159.4,202.2,153.7,207.8z"/>
</g>
</svg>
