<?xml version="1.0" encoding="utf-8"?>
<!-- Generator: Adobe Illustrator 23.0.2, SVG Export Plug-In . SVG Version: 6.00 Build 0)  -->
<svg version="1.1" id="Calque_1" xmlns="http://www.w3.org/2000/svg" xmlns:xlink="http://www.w3.org/1999/xlink" x="0px" y="0px"
	 viewBox="0 0 600 280" style="enable-background:new 0 0 600 280;" xml:space="preserve">
<style type="text/css">
	.st0{fill-rule:evenodd;clip-rule:evenodd;fill:#FFFFFF;}
</style>
<path class="st0" d="M166,129.8l0,10l146.8-0.3v0.1c0.1,33.1-9,69.7-35.4,91.5C251,253,207.1,259.9,166.6,260
	c-41.7,0.1-84.9-5.9-111.6-28.8c-25.1-21.5-35-58.8-35-91c-0.1-30.7,4.9-64.8,28-86.1C74.7,29.5,122.8,20.1,166.2,20
	c41.7-0.1,88.5,8.4,115.2,31.3c22.4,19.2,29.9,49.2,31.2,78.3L166,129.8z M526.3,139.1c29.8,1.4,53.6,27.7,53.7,58
	c0.1,30.4-23.6,55.1-53.5,56.6v0.2l-203.9,0.4l-0.2-114.8L526.3,139.1L526.3,139.1z M576.1,76.5c0,27.7-21.1,50.3-48.1,52.7
	l-205.6,0.4l-0.2-105.2L517.4,24c1.9-0.2,4.4,0.2,6.4,0.2C552.9,24.1,576,47.2,576.1,76.5z"/>
</svg>
