<?xml version="1.0" encoding="utf-8"?>
<!-- Generator: Adobe Illustrator 23.0.2, SVG Export Plug-In . SVG Version: 6.00 Build 0)  -->
<svg version="1.1" id="Calque_1" xmlns="http://www.w3.org/2000/svg" xmlns:xlink="http://www.w3.org/1999/xlink" x="0px" y="0px"
	 viewBox="0 0 590 360" style="enable-background:new 0 0 590 360;" xml:space="preserve">
<style type="text/css">
	.st0{fill-rule:evenodd;clip-rule:evenodd;fill:#454545;}
	.st1{fill:#221F20;}
</style>
<polygon class="st0" points="535.8,296.1 539.8,296.1 539.8,309.1 541.9,309.1 541.9,296.1 545.9,296.1 545.9,293.5 535.8,293.5 "/>
<polygon class="st0" points="558.3,293.4 554.7,304.2 551.1,293.4 548,293.4 548,309.1 550.2,309.1 550.2,297.3 553.5,307.5 
	555.8,307.5 559.1,297.3 559.1,309.2 561.4,309.2 561.4,309.1 561.4,293.4 "/>
<path class="st1" d="M280.6,312.4c1.3,1.1,2.6,2.2,3.9,3.3c-25.8,17.2-56.8,27.2-90.2,27.2c-90,0-162.9-72.9-162.9-162.9
	S104.4,17.1,194.3,17.1c33.3,0,64.4,10,90.2,27.2c-1.3,1.1-2.7,2.1-3.9,3.3C242.2,81,220.2,129.2,220.2,180
	C220.2,230.8,242.2,279,280.6,312.4z"/>
<path class="st1" d="M395.7,17.1c-33.3,0-64.4,10-90.2,27.2c1.3,1.1,2.7,2.1,3.9,3.3c38.4,33.4,60.4,81.6,60.4,132.4
	c0,50.8-22,99-60.4,132.4c-1.3,1.1-2.6,2.2-3.9,3.3c25.8,17.2,56.8,27.2,90.2,27.2c90,0,162.9-72.9,162.9-162.9
	C558.6,90,485.6,17.1,395.7,17.1z"/>
<path id="XMLID_48_" class="st1" d="M295,52c-2.1,1.7-4.2,3.4-6.2,5.1C254.5,87,232.8,130.9,232.8,180c0,49.1,21.7,93,56.1,122.9
	c2,1.8,4.1,3.5,6.2,5.1c2.1-1.7,4.2-3.4,6.2-5.1c34.3-29.9,56.1-73.8,56.1-122.9c0-49.1-21.7-93-56.1-122.9
	C299.2,55.3,297.1,53.6,295,52"/>
</svg>
