<?xml version="1.0" encoding="utf-8"?>
<!-- Generator: Adobe Illustrator 23.0.2, SVG Export Plug-In . SVG Version: 6.00 Build 0)  -->
<svg version="1.1" id="Calque_1" xmlns="http://www.w3.org/2000/svg" xmlns:xlink="http://www.w3.org/1999/xlink" x="0px" y="0px"
	 viewBox="0 0 750 240" style="enable-background:new 0 0 750 240;" xml:space="preserve">
<style type="text/css">
	.st0{fill-rule:evenodd;clip-rule:evenodd;fill:#FFFFFF;}
	.st1{opacity:0.7;fill-rule:evenodd;clip-rule:evenodd;fill:#FFFFFF;enable-background:new    ;}
</style>
<g>
	<polygon class="st0" points="325.3,234.6 265,234.6 302.7,6.1 363.1,6.1 	"/>
	<path class="st0" d="M544.1,11.7C532.2,7.1,513.3,2,490,2c-59.6,0-101.5,31.1-101.8,75.6c-0.5,32.8,30,51.1,52.9,62
		c23.3,11.2,31.3,18.5,31.3,28.5c-0.2,15.3-18.9,22.4-36.2,22.4c-24.1,0-37-3.6-56.6-12.2l-7.9-3.7l-8.4,51.3
		c14.2,6.3,40.2,11.9,67.3,12.2c63.3,0,104.5-30.6,105-78.1c0.2-26-15.9-46-50.6-62.2c-21.1-10.5-34-17.5-34-28.2
		c0.2-9.7,10.9-19.7,34.8-19.7c19.6-0.5,34,4.1,44.9,8.8l5.5,2.4L544.1,11.7L544.1,11.7L544.1,11.7z M624.3,153.7
		c5-13.1,24.1-63.9,24.1-63.9c-0.3,0.5,5-13.4,7.9-21.9l4.2,19.7c0,0,11.4,54.7,13.9,66.1C665,153.7,636.2,153.7,624.3,153.7
		L624.3,153.7z M698.7,6.1h-46.7c-14.4,0-25.3,4.1-31.5,19l-89.6,209.6h63.3c0,0,10.4-28.2,12.7-34.3c6.9,0,68.5,0,77.5,0
		c1.7,8,7.2,34.3,7.2,34.3h55.9L698.7,6.1L698.7,6.1L698.7,6.1z M214.6,6.1l-59.1,155.8l-6.5-31.6c-10.9-36.5-45.2-76.1-83.4-95.8
		l54.1,199.9h63.8L278.4,6.1H214.6L214.6,6.1L214.6,6.1z"/>
	<path class="st1" d="M100.7,6.1H3.6l-1,4.6c75.7,19,125.9,64.7,146.5,119.6L128,25.3C124.5,10.7,113.8,6.6,100.7,6.1L100.7,6.1z"/>
</g>
</svg>
