<?xml version="1.0" encoding="utf-8"?>
<!-- Generator: Adobe Illustrator 23.0.2, SVG Export Plug-In . SVG Version: 6.00 Build 0)  -->
<svg version="1.1" id="Calque_1" xmlns="http://www.w3.org/2000/svg" xmlns:xlink="http://www.w3.org/1999/xlink" x="0px" y="0px"
	 viewBox="0 0 1060 280" style="enable-background:new 0 0 1060 280;" xml:space="preserve">
<style type="text/css">
	.st0{fill-rule:evenodd;clip-rule:evenodd;fill:#FFFFFF;}
</style>
<path class="st0" d="M125.8,0H43c-5.7,0-10.5,4.1-11.4,9.6L-1.8,219.2c-0.7,4.1,2.6,7.9,6.8,7.9h39.5c5.7,0,10.5-4.1,11.4-9.6
	l9-56.5c0.9-5.5,5.7-9.6,11.3-9.6h26.2c54.5,0,86-26.1,94.2-77.7c3.7-22.6,0.2-40.3-10.6-52.8C174.3,7.2,153.5,0,125.8,0L125.8,0z
	 M135.3,76.6c-4.5,29.3-27.2,29.3-49.1,29.3H73.7l8.8-54.8c0.5-3.3,3.4-5.7,6.8-5.7H95c14.9,0,29,0,36.3,8.4
	C135.6,58.8,137,66.3,135.3,76.6L135.3,76.6z M373.1,75.6h-39.6c-3.4,0-6.3,2.4-6.8,5.7l-1.8,10.9l-2.8-4
	c-8.6-12.3-27.7-16.4-46.8-16.4c-43.8,0-81.2,32.8-88.5,78.7c-3.8,22.9,1.6,44.8,14.8,60.1c12.1,14.1,29.4,19.9,49.9,19.9
	c35.3,0,54.8-22.4,54.8-22.4l-1.8,10.9c-0.7,4.2,2.6,7.9,6.8,7.9h35.7c5.7,0,10.5-4.1,11.4-9.6l21.4-133.9
	C380.6,79.4,377.3,75.6,373.1,75.6L373.1,75.6z M317.9,151.8c-3.8,22.4-21.8,37.4-44.7,37.4c-11.5,0-20.7-3.6-26.6-10.6
	c-5.9-6.9-8.1-16.6-6.2-27.5c3.6-22.2,21.8-37.7,44.4-37.7c11.3,0,20.4,3.7,26.4,10.7C317.2,131.1,319.6,141,317.9,151.8
	L317.9,151.8z M584.1,75.6h-39.8c-3.8,0-7.4,1.9-9.5,5l-54.9,79.9l-23.3-76.8c-1.5-4.8-6-8.1-11-8.1h-39.1c-4.8,0-8.1,4.6-6.5,9
	l43.9,127.1l-41.2,57.5c-3.2,4.5,0,10.8,5.6,10.8h39.8c3.8,0,7.3-1.8,9.4-4.9L589.8,86.3C592.9,81.8,589.7,75.6,584.1,75.6 M715.9,0
	h-82.8c-5.6,0-10.5,4.1-11.3,9.6l-33.5,209.6c-0.7,4.1,2.6,7.9,6.8,7.9h42.5c3.9,0,7.3-2.8,7.9-6.7l9.5-59.4
	c0.9-5.5,5.7-9.6,11.3-9.6h26.2c54.5,0,86-26.1,94.2-77.7c3.7-22.6,0.1-40.3-10.6-52.8C764.5,7.2,743.6,0,715.9,0L715.9,0z
	 M725.5,76.6c-4.5,29.3-27.2,29.3-49.1,29.3h-12.5l8.8-54.8c0.5-3.3,3.4-5.7,6.8-5.7h5.7c14.9,0,29,0,36.3,8.4
	C725.8,58.8,727.1,66.3,725.5,76.6L725.5,76.6z M963.3,75.6h-39.6c-3.4,0-6.3,2.4-6.8,5.7l-1.8,10.9l-2.8-4
	c-8.6-12.3-27.7-16.4-46.8-16.4c-43.8,0-81.2,32.8-88.5,78.7c-3.8,22.9,1.6,44.8,14.7,60.1c12.1,14.1,29.4,19.9,49.9,19.9
	c35.3,0,54.8-22.4,54.8-22.4l-1.8,10.9c-0.7,4.2,2.6,7.9,6.8,7.9h35.7c5.6,0,10.5-4.1,11.3-9.6l21.4-133.9
	C970.8,79.4,967.5,75.6,963.3,75.6L963.3,75.6z M908,151.8c-3.8,22.4-21.8,37.4-44.7,37.4c-11.5,0-20.7-3.6-26.6-10.6
	c-5.9-6.9-8.1-16.6-6.2-27.5c3.6-22.2,21.8-37.7,44.4-37.7c11.3,0,20.4,3.7,26.4,10.7C907.4,131.1,909.8,141,908,151.8L908,151.8z
	 M1010,5.8l-34,213.4c-0.7,4.1,2.6,7.9,6.8,7.9h34.1c5.7,0,10.5-4.1,11.4-9.6l33.5-209.6c0.7-4.1-2.6-7.9-6.8-7.9h-38.2
	C1013.4,0,1010.5,2.5,1010,5.8"/>
</svg>
