<?xml version="1.0" standalone="no"?> 
<!DOCTYPE svg PUBLIC "-//W3C//DTD SVG 1.1//EN" "http://www.w3.org/Graphics/SVG/1.1/DTD/svg11.dtd" >
<svg xmlns="http://www.w3.org/2000/svg">
<defs>
  <font id="trilogy-ui" horiz-adv-x="200">
    <font-face font-family="trilogy-ui"
      units-per-em="200" ascent="200"
      descent="0" />
    <missing-glyph horiz-adv-x="0" />
    <glyph glyph-name="arrow-down-r"
      unicode="&#xF109;"
      horiz-adv-x="200" d=" M193.7391304347826 149.1739130434783A6.478260869565218 6.478260869565218 0 0 1 184.5217391304348 149.1739130434783L100 64.6521739130435L15.4782608695652 149.1739130434783A6.521739130434783 6.521739130434783 0 0 1 6.2608695652174 139.9565217391304L95.3913043478261 50.8260869565218A6.521739130434783 6.521739130434783 0 0 1 104.6086956521739 50.8260869565218L193.7391304347826 139.9565217391304A6.478260869565218 6.478260869565218 0 0 1 193.7391304347826 149.1739130434783z" />
    <glyph glyph-name="arrow-down"
      unicode="&#xF101;"
      horiz-adv-x="200" d=" M166.5 140.3L173.5 133.2L100 59.7L26.5 133.2L33.5 140.3L100 73.8z" />
    <glyph glyph-name="arrow-left-r"
      unicode="&#xF10A;"
      horiz-adv-x="200" d=" M64.6521739130435 100L149.1739130434783 184.5217391304348A6.521739130434783 6.521739130434783 0 0 1 139.9565217391304 193.7391304347826L50.8260869565218 104.6086956521739A6.521739130434783 6.521739130434783 0 0 1 50.8260869565218 95.3913043478261L139.9565217391304 6.2608695652174A6.521739130434783 6.521739130434783 0 0 1 149.1739130434783 6.2608695652174A6.478260869565218 6.478260869565218 0 0 1 149.1739130434783 15.4782608695652z" />
    <glyph glyph-name="arrow-left"
      unicode="&#xF108;"
      horiz-adv-x="200" d=" M140.3 33.5L133.2 26.5L59.7 100L133.2 173.5L140.3 166.5L73.8 100z" />
    <glyph glyph-name="arrow-right-r"
      unicode="&#xF10B;"
      horiz-adv-x="200" d=" M149.1739130434783 104.6086956521739L60.0434782608696 193.7391304347826A6.521739130434783 6.521739130434783 0 0 1 50.8260869565217 184.5217391304348L135.3478260869565 100L50.8260869565217 15.4782608695652A6.478260869565218 6.478260869565218 0 0 1 50.8260869565217 6.2608695652174A6.521739130434783 6.521739130434783 0 0 1 60.0434782608696 6.2608695652174L149.1739130434783 95.3913043478261A6.478260869565218 6.478260869565218 0 0 1 149.1739130434783 104.6086956521739z" />
    <glyph glyph-name="arrow-right"
      unicode="&#xF107;"
      horiz-adv-x="200" d=" M126.2 100L59.7 33.5L66.8 26.5L140.3 100L66.8 173.5L59.7 166.5z" />
    <glyph glyph-name="arrow-up-r"
      unicode="&#xF10C;"
      horiz-adv-x="200" d=" M193.7391304347826 60.0434782608696L104.6086956521739 149.1739130434783A6.739130434782609 6.739130434782609 0 0 1 95.3913043478261 149.1739130434783L6.2608695652174 60.0434782608696A6.521739130434783 6.521739130434783 0 0 1 15.4782608695652 50.8260869565218L100 135.3478260869565L184.5217391304348 50.8260869565218A6.521739130434783 6.521739130434783 0 0 1 193.7391304347826 50.8260869565218A6.478260869565218 6.478260869565218 0 0 1 193.7391304347826 60.0434782608696z" />
    <glyph glyph-name="arrow-up"
      unicode="&#xF105;"
      horiz-adv-x="200" d=" M166.5 59.7L173.5 66.8L100 140.3L26.5 66.8L33.5 59.7L100 126.2z" />
    <glyph glyph-name="bell"
      unicode="&#xF10D;"
      horiz-adv-x="200" d=" M99.5652173913043 33.0434782608696C88.2608695652174 33.0434782608696 79.5652173913043 28.6956521739131 79.5652173913043 23.4782608695652S88.695652173913 13.9130434782609 99.5652173913043 13.4782608695652S119.5652173913044 17.8260869565218 120 23.0434782608696S110.8695652173913 32.6086956521739 99.5652173913043 33.0434782608696z M166.0869565217391 56.5217391304348L156.9565217391304 67.8260869565218V103.4782608695652C156.9565217391304 126.9565217391305 142.6086956521739 147.8260869565218 120.8695652173913 156.5217391304348C117.8260869565217 167.8260869565218 106.5217391304348 174.7826086956522 94.7826086956522 171.7391304347826C87.3913043478261 170 81.304347826087 163.9130434782609 79.5652173913044 156.5217391304348C57.8260869565217 148.2608695652174 43.4782608695652 126.9565217391304 43.4782608695652 103.4782608695652V67.3913043478261L33.9130434782609 56.5217391304348C30.8695652173913 52.6086956521739 31.304347826087 46.5217391304348 35.2173913043478 43.4782608695652C36.9565217391304 42.1739130434783 39.1304347826087 41.304347826087 41.304347826087 41.304347826087H159.1304347826087C164.3478260869565 41.304347826087 168.2608695652174 45.2173913043478 168.2608695652174 50.4347826086957C168.2608695652174 52.6086956521739 167.3913043478261 54.7826086956522 166.0869565217391 56.5217391304348zM49.1304347826087 54.3478260869565L54.7826086956522 61.304347826087C55.6521739130435 62.6086956521739 56.0869565217391 63.9130434782609 56.0869565217391 65.6521739130435V103.9130434782609C56.0869565217391 123.0434782608696 68.6956521739131 140 86.9565217391304 145.6521739130435C89.5652173913044 146.5217391304348 91.304347826087 148.6956521739131 91.304347826087 151.7391304347826C91.7391304347826 156.0869565217391 95.6521739130435 159.5652173913044 100 159.1304347826087C103.9130434782609 158.6956521739131 107.3913043478261 155.6521739130435 107.3913043478261 151.7391304347826C107.3913043478261 149.1304347826087 109.1304347826087 146.5217391304348 112.1739130434783 145.6521739130435C130.4347826086957 140 143.0434782608696 123.0434782608696 143.0434782608696 103.9130434782609V65.6521739130435C143.0434782608696 64.3478260869565 143.4782608695652 62.6086956521739 144.3478260869565 61.304347826087L150 54.3478260869565L49.1304347826087 54.3478260869565z" />
    <glyph glyph-name="check-circle-s"
      unicode="&#xF10E;"
      horiz-adv-x="200" d=" M20 100C20 55.8172200135365 55.8172200135365 20 100 20C144.1827799864635 20 180 55.8172200135365 180 100C180 144.1827799864635 144.1827799864635 180 100 180C55.8172200135365 180 20 144.1827799864635 20 100z M131.4 136.4C135.1 140.6 141.8 141.2 146.2 137.7C150.7 134.2 151.3 127.9 147.6 123.6L95 63.6C90.8 58.8 83 58.8 78.8 63.6L52.5 93.5C48.8 97.7 49.4 104 53.9 107.6C58.4 111.1 65 110.6 68.7 106.3L86.9 85.6L131.4 136.4z" />
    <glyph glyph-name="check-circle"
      unicode="&#xF10F;"
      horiz-adv-x="200" d=" M100 195.6521739130435C46.9565217391304 195.6521739130435 4.3478260869565 153.0434782608696 4.3478260869565 100S46.9565217391304 4.3478260869565 100 4.3478260869565S195.6521739130435 46.9565217391304 195.6521739130435 100S153.0434782608696 195.6521739130435 100 195.6521739130435zM100 17.3913043478261C54.3478260869565 17.3913043478261 17.3913043478261 54.3478260869565 17.3913043478261 100S54.3478260869565 182.6086956521739 100 182.6086956521739S182.6086956521739 145.6521739130435 182.6086956521739 100S145.6521739130435 17.3913043478261 100 17.3913043478261z M142.1739130434783 136.5217391304348L83.0434782608696 77.3913043478261L57.8260869565217 102.6086956521739C55.2173913043478 105.2173913043478 51.304347826087 105.2173913043478 48.695652173913 102.6086956521739C48.695652173913 102.6086956521739 48.695652173913 102.6086956521739 48.695652173913 102.6086956521739C46.0869565217391 100 46.0869565217391 96.0869565217391 48.695652173913 93.4782608695652L78.6956521739131 63.4782608695652C80 62.1739130434783 81.7391304347826 61.7391304347826 83.4782608695652 61.7391304347826C85.2173913043478 61.7391304347826 86.9565217391305 62.6086956521739 88.2608695652174 63.4782608695652L151.7391304347826 126.9565217391305C154.3478260869565 129.5652173913044 154.3478260869565 133.4782608695653 151.7391304347826 136.0869565217392C148.6956521739131 138.6956521739131 144.7826086956522 138.6956521739131 142.1739130434783 136.5217391304348L142.1739130434783 136.5217391304348z" />
    <glyph glyph-name="check-r"
      unicode="&#xF110;"
      horiz-adv-x="200" d=" M132.6 136.7C136.3 140.8 142.6 141.1 146.7 137.4C150.8 133.7 151.1 127.4 147.4 123.3L92.9 63.3C88.9 58.9 82.1 58.9 78.1 63.3L52.6 91C48.9 95.1 49.1 101.4 53.2 105.1S63.6 108.6 67.3 104.5L85.4 84.8L132.6 136.7z" />
    <glyph glyph-name="check"
      unicode="&#xF102;"
      horiz-adv-x="200" d=" M142.1739130434783 136.9565217391304L83.0434782608696 77.8260869565217L57.8260869565217 103.0434782608696C55.2173913043478 105.6521739130435 51.304347826087 105.6521739130435 48.695652173913 103.0434782608696L48.695652173913 103.0434782608696C46.0869565217391 100.4347826086956 46.0869565217391 96.5217391304348 48.695652173913 93.9130434782609L78.6956521739131 63.9130434782609C80 62.6086956521739 81.7391304347826 62.1739130434783 83.4782608695652 62.1739130434783S86.9565217391305 63.0434782608696 88.2608695652174 63.9130434782609L151.7391304347826 127.3913043478261C154.3478260869565 130 154.3478260869565 133.9130434782609 151.7391304347826 136.5217391304348C148.6956521739131 139.1304347826087 144.3478260869565 139.1304347826087 142.1739130434783 136.9565217391304L142.1739130434783 136.9565217391304z" />
    <glyph glyph-name="download"
      unicode="&#xF111;"
      horiz-adv-x="200.00000000000003" d=" M95.8785249457701 51.1930585683297C97.180043383948 49.8915401301519 98.9154013015184 49.4577006507592 100.650759219089 49.4577006507592C102.3861171366595 49.4577006507592 104.12147505423 50.3253796095445 105.4229934924078 51.1930585683297L148.8069414316703 94.5770065075922C151.4099783080261 97.180043383948 151.4099783080261 101.0845986984816 148.8069414316703 103.6876355748373C146.2039045553146 106.2906724511931 142.299349240781 106.2906724511931 139.6963123644252 103.6876355748373C139.6963123644252 103.6876355748373 139.6963123644252 103.6876355748373 139.6963123644252 103.6876355748373L107.592190889371 71.5835140997831V144.9023861171367C107.592190889371 148.3731019522777 104.5553145336226 151.4099783080261 101.0845986984816 151.4099783080261S94.5770065075922 148.3731019522777 94.5770065075922 144.9023861171367V71.5835140997831L62.472885032538 103.6876355748373C59.8698481561822 106.2906724511931 55.531453362256 105.8568329718004 53.3622559652929 103.2537960954447C51.1930585683297 100.6507592190889 51.1930585683297 96.7462039045553 53.3622559652929 94.5770065075922L95.8785249457701 51.1930585683297z M100.2169197396963 159.2190889370933C111.062906724512 159.2190889370933 120.6073752711497 163.5574837310195 120.6073752711497 168.763557483731S111.4967462039046 178.3080260303688 100.6507592190889 178.3080260303688S80.6941431670282 173.9696312364425 80.6941431670282 168.763557483731S89.3709327548807 159.2190889370933 100.2169197396963 159.2190889370933z M172.234273318872 59.4360086767896C168.7635574837311 59.4360086767896 165.7266811279827 56.3991323210412 165.7266811279827 52.9284164859002V38.177874186551H35.5748373101952V52.9284164859002C35.5748373101952 56.3991323210412 32.5379609544469 59.4360086767896 29.0672451193059 59.4360086767896S22.5596529284165 56.3991323210412 22.5596529284165 52.9284164859002V31.6702819956616C22.5596529284165 28.1995661605206 25.5965292841649 25.1626898047722 29.0672451193059 25.1626898047722H172.234273318872C175.704989154013 25.1626898047722 178.7418655097614 28.1995661605206 178.7418655097614 31.6702819956616V52.9284164859002C178.7418655097614 56.3991323210412 175.704989154013 59.4360086767896 172.234273318872 59.4360086767896z" />
    <glyph glyph-name="envelope"
      unicode="&#xF112;"
      horiz-adv-x="200" d=" M179.1304347826087 170H20C15.6521739130435 170 11.7391304347826 168.2608695652174 8.695652173913 165.6521739130435H8.695652173913C8.695652173913 165.6521739130435 8.2608695652174 165.2173913043478 8.2608695652174 165.2173913043478C5.2173913043478 162.1739130434783 3.9130434782609 158.2608695652174 3.9130434782609 153.9130434782609V45.6521739130435C3.9130434782609 41.304347826087 5.6521739130435 37.3913043478261 8.695652173913 34.3478260869565C8.695652173913 34.3478260869565 8.695652173913 33.9130434782609 9.1304347826087 33.9130434782609C10 33.0434782608696 10.8695652173913 32.6086956521739 11.7391304347826 32.1739130434783C14.3478260869565 30.8695652173913 16.9565217391304 30 20 30H179.1304347826087C181.7391304347826 30 183.9130434782609 30.4347826086957 186.0869565217391 31.7391304347826C187.3913043478261 32.1739130434783 188.6956521739131 32.6086956521739 189.5652173913044 33.9130434782609C189.5652173913044 34.3478260869565 190 34.3478260869565 190 34.7826086956522C193.0434782608696 37.8260869565218 194.7826086956522 41.7391304347826 194.7826086956522 46.0869565217392V153.9130434782609C195.2173913043478 163.0434782608696 188.2608695652174 170 179.1304347826087 170L179.1304347826087 170zM16.9565217391304 147.3913043478261L66.5217391304348 95.2173913043478L16.9565217391304 50V147.3913043478261zM100 78.6956521739131L81.7391304347826 98.2608695652174C81.7391304347826 98.6956521739131 81.304347826087 98.6956521739131 81.304347826087 99.1304347826087C80.8695652173913 99.5652173913044 80.4347826086956 99.5652173913044 80.4347826086956 100L25.6521739130435 156.9565217391304H173.9130434782609L100 78.6956521739131zM75.6521739130435 85.2173913043478L95.2173913043478 64.7826086956522C96.5217391304348 63.4782608695652 98.2608695652174 62.6086956521739 100 62.6086956521739L100 62.6086956521739C101.7391304347826 62.6086956521739 103.4782608695652 63.4782608695652 104.7826086956522 64.7826086956522L123.4782608695652 84.3478260869565L169.5652173913044 42.6086956521739H28.695652173913L75.6521739130435 85.2173913043478zM132.1739130434783 93.9130434782609L182.1739130434783 146.5217391304348V48.6956521739131L132.1739130434783 93.9130434782609z M99.5652173913043 124.3478260869565C88.2608695652174 124.3478260869565 79.5652173913043 120 79.5652173913043 114.7826086956522C79.5652173913043 109.5652173913044 88.695652173913 104.7826086956522 100 104.7826086956522S120 109.1304347826087 120 114.3478260869565S110.8695652173913 124.3478260869565 99.5652173913043 124.3478260869565z" />
    <glyph glyph-name="exclamation-circle-s"
      unicode="&#xF113;"
      horiz-adv-x="200" d=" M20 100C20 55.8172200135365 55.8172200135365 20 100 20C144.1827799864635 20 180 55.8172200135365 180 100C180 144.1827799864635 144.1827799864635 180 100 180C55.8172200135365 180 20 144.1827799864635 20 100z M100 80C95 80 90.9 83.9 90.6 88.9L87.6 136.8C87.6 137.1 87.6 137.3 87.6 137.6C87.6 144.5 93.2 150.1 100.1 150.1C100.4 150.1 100.6 150.1 100.9 150.1C107.8 149.7 113 143.7 112.6 136.8L109.6 88.9C109.2 83.9 105 80 100 80zM100 50C94.5 50 90 54.5 90 60S94.5 70 100 70C105.5 70 110 65.5 110 60S105.5 50 100 50z" />
    <glyph glyph-name="exclamation-circle"
      unicode="&#xF114;"
      horiz-adv-x="200" d=" M100 196.0869565217391C46.9565217391304 196.0869565217391 4.3478260869565 153.4782608695652 4.3478260869565 100.4347826086957S46.9565217391304 4.7826086956522 100 4.7826086956522S195.6521739130435 47.3913043478261 195.6521739130435 100.4347826086957S153.0434782608696 196.0869565217391 100 196.0869565217391zM100 17.8260869565218C54.3478260869565 17.8260869565218 17.3913043478261 54.7826086956522 17.3913043478261 100.4347826086957S54.3478260869565 183.0434782608696 100 183.0434782608696S182.6086956521739 146.0869565217391 182.6086956521739 100.4347826086957S145.6521739130435 17.8260869565218 100 17.8260869565218z M92.1739130434783 155.6521739130435H108.2608695652174V90.8695652173913H92.1739130434783V155.6521739130435z M91.7391304347826 68.2608695652174C85.2173913043478 59.1304347826087 83.9130434782609 49.5652173913043 88.2608695652174 46.5217391304348S101.304347826087 48.2608695652174 107.8260869565217 57.3913043478261S115.6521739130435 76.5217391304348 111.304347826087 79.5652173913044S98.2608695652174 77.3913043478261 91.7391304347826 68.2608695652174z" />
    <glyph glyph-name="exclamation-r"
      unicode="&#xF115;"
      horiz-adv-x="200" d=" M100 80C95 80 90.9 83.9 90.6 88.9L87.6 136.8C87.6 137.1 87.6 137.3 87.6 137.6C87.6 144.5 93.2 150.1 100.1 150.1C100.4 150.1 100.6 150.1 100.9 150.1C107.8 149.7 113 143.7 112.6 136.8L109.6 88.9C109.1 83.9 105 80 100 80zM100 50C94.5 50 90 54.5 90 60S94.5 70 100 70C105.5 70 110 65.5 110 60S105.5 50 100 50z" />
    <glyph glyph-name="exclamation"
      unicode="&#xF116;"
      horiz-adv-x="200" d=" M92.1739130434783 155.2173913043478H108.2608695652174V90.4347826086956H92.1739130434783V155.2173913043478z M111.7391304347826 79.1304347826087C107.3913043478261 82.1739130434783 98.2608695652174 76.9565217391304 92.1739130434783 67.8260869565218C85.6521739130435 58.6956521739131 84.3478260869565 49.1304347826087 88.695652173913 46.0869565217391S101.7391304347826 47.8260869565217 108.2608695652174 56.9565217391304C113.9130434782609 66.5217391304348 116.0869565217391 76.0869565217391 111.7391304347826 79.1304347826087z" />
    <glyph glyph-name="eye-s"
      unicode="&#xF117;"
      horiz-adv-x="200" d=" M12.3 94.7C10.3 97.9 10.3 102 12.3 105.2L12.3 105.2C34.8 141.7 64.1 160 100 160C135.9 160 165.2 141.7 187.7 105.2C189.7 102 189.7 97.9 187.7 94.7L187.7 94.7C165.2 58.2 135.9 40 100 40C64.1 40 34.8 58.2 12.3 94.7zM99.2 55C124.1 55 144.2 75.1 144.2 100C144.2 124.8 124.1 145 99.2 145C74.4 145 54.2 124.8 54.2 100C54.2 75.1 74.4 55 99.2 55zM99.2 125C85.4 125 74.2 113.8 74.2 100S85.4 75 99.2 75C113 75 124.2 86.2 124.2 100S113 125 99.2 125" />
    <glyph glyph-name="eye-slash-s"
      unicode="&#xF118;"
      horiz-adv-x="200" d=" M82.6 153.9C88.2 154.9 94 155.4 100 155.4C135.9 155.4 165.2 137.1 187.7 100.6C189.7 97.4 189.7 93.3 187.7 90.1L187.7 90.1C175.3 70.1 161 55.5 144.6 46.5L150.9 35.6C153.7 30.8 152 24.7 147.2 21.9C142.4 19.1 136.3 20.8 133.5 25.6L53.5 164.2C50.7 169 52.4 175.1 57.2 177.9S68.1 179 70.9 174.2L82.6 153.9zM133.3 66.1C140.1 74 144.2 84.2 144.2 95.5C144.2 120.3 124.1 140.5 99.2 140.5C96.3 140.5 93.5 140.2 90.8 139.7L102 120.3C114.5 118.9 124.2 108.3 124.2 95.5C124.2 92 123.5 88.6 122.1 85.5L133.3 66.1zM54.6 143.8L65.4 125.1C58.4 117.2 54.2 106.8 54.2 95.4C54.2 70.5 74.4 50.4 99.2 50.4C102.2 50.4 105.1 50.7 108 51.3L116.4 36.8C111.1 35.9 105.7 35.5 100 35.5C64.1 35.5 34.8 53.7 12.3 90.2C10.3 93.4 10.3 97.5 12.3 100.7L12.3 100.7C24.5 120.4 38.5 134.7 54.6 143.8zM96.9 70.5C84.2 71.7 74.2 82.4 74.2 95.4C74.2 99.1 75 102.7 76.5 105.8L96.9 70.5z" />
    <glyph glyph-name="eye-slash"
      unicode="&#xF119;"
      horiz-adv-x="200" d=" M193.9130434782609 105.6521739130435C181.7391304347826 125.2173913043478 148.2608695652174 157.8260869565218 100 157.8260869565218C86.0869565217391 157.8260869565218 72.6086956521739 155.2173913043479 60 150L30.8695652173913 178.695652173913C28.2608695652174 180.8695652173913 24.3478260869565 181.304347826087 21.7391304347826 178.695652173913S19.1304347826087 171.7391304347826 21.7391304347826 169.1304347826087L47.3913043478261 143.4782608695652C30.8695652173913 134.3478260869565 16.5217391304348 121.304347826087 6.0869565217391 105.6521739130435C3.9130434782609 102.1739130434783 3.9130434782609 97.3913043478261 6.0869565217391 93.4782608695652C18.2608695652174 74.3478260869565 51.7391304347826 41.7391304347826 100 41.7391304347826C113.9130434782609 41.7391304347826 127.8260869565217 44.3478260869565 140.8695652173913 50L169.5652173913044 21.304347826087C172.1739130434783 18.695652173913 176.0869565217391 18.695652173913 178.695652173913 21.304347826087C181.304347826087 23.9130434782609 181.304347826087 27.8260869565218 178.695652173913 30.4347826086957C178.695652173913 30.4347826086957 178.695652173913 30.4347826086957 178.695652173913 30.4347826086957L153.0434782608696 56.0869565217391C169.1304347826087 65.2173913043478 183.0434782608696 78.2608695652174 193.4782608695652 93.4782608695652C196.0869565217391 97.3913043478261 196.0869565217391 102.1739130434783 193.9130434782609 105.6521739130435zM100 54.7826086956522C58.2608695652174 54.7826086956522 29.1304347826087 82.6086956521739 17.8260869565217 100C27.8260869565217 114.3478260869565 41.304347826087 126.5217391304348 56.9565217391304 134.3478260869565L66.9565217391304 124.3478260869565L66.5217391304348 123.4782608695652C53.4782608695652 104.7826086956522 57.8260869565217 79.1304347826087 76.5217391304348 66.0869565217392C90.8695652173913 56.0869565217392 110.4347826086956 56.0869565217392 124.7826086956522 66.5217391304348L131.304347826087 60C120.8695652173913 56.5217391304348 110.4347826086956 54.7826086956522 100 54.7826086956522zM124.3478260869565 85.2173913043478L120.4347826086957 89.1304347826087C120.4347826086957 89.1304347826087 120.8695652173913 89.1304347826087 120.8695652173913 89.5652173913044C125.2173913043479 92.6086956521739 123.4782608695652 102.6086956521739 116.9565217391305 111.7391304347826S102.1739130434783 125.6521739130435 97.8260869565218 122.6086956521739C95.2173913043478 120.4347826086957 94.3478260869566 116.9565217391305 95.6521739130435 113.9130434782609L85.6521739130435 123.9130434782609C88.6956521739131 125.6521739130435 91.7391304347826 126.9565217391305 95.2173913043478 127.3913043478261C96.9565217391305 127.8260869565218 98.6956521739131 127.8260869565218 100 127.8260869565218C115.6521739130435 127.8260869565218 128.2608695652174 115.2173913043479 128.2608695652174 99.5652173913044C128.2608695652174 94.7826086956522 126.9565217391304 89.5652173913044 124.3478260869565 85.2173913043478L124.3478260869565 85.2173913043478zM115.2173913043478 76.0869565217391C105.6521739130435 70 93.0434782608696 70.4347826086957 83.9130434782609 76.9565217391304C71.7391304347826 85.6521739130435 68.2608695652174 102.6086956521739 76.0869565217391 115.2173913043478L115.2173913043478 76.0869565217391zM143.4782608695652 66.0869565217391L133.4782608695652 76.0869565217391C133.4782608695652 76.0869565217391 133.4782608695652 76.0869565217391 133.4782608695652 76.0869565217391C146.0869565217391 94.7826086956522 141.304347826087 120.4347826086957 122.6086956521739 133.4782608695652C108.695652173913 143.0434782608696 90 143.0434782608696 76.0869565217391 133.4782608695652L70 139.5652173913044C79.5652173913044 143.0434782608696 90 144.7826086956522 100 144.7826086956522C141.7391304347826 144.7826086956522 170.8695652173913 116.9565217391304 182.1739130434783 100C172.1739130434783 85.6521739130435 159.1304347826087 73.9130434782609 143.4782608695652 66.0869565217391L143.4782608695652 66.0869565217391z" />
    <glyph glyph-name="eye"
      unicode="&#xF11A;"
      horiz-adv-x="200.00000000000003" d=" M193.4924078091106 105.8568329718004C181.3449023861171 125.3796095444686 147.9392624728851 157.9175704989154 99.7830802603037 157.9175704989154S18.2212581344902 125.3796095444686 6.0737527114967 105.8568329718004C3.9045553145336 102.3861171366594 3.9045553145336 97.6138828633406 6.0737527114967 93.7093275488069C18.2212581344902 74.6203904555315 51.6268980477224 42.0824295010846 99.7830802603037 42.0824295010846S181.3449023861171 74.6203904555315 193.4924078091106 93.7093275488069C195.6616052060738 97.6138828633406 195.6616052060738 102.3861171366594 193.4924078091106 105.8568329718004zM99.7830802603037 55.0976138828633C58.1344902386117 55.0976138828633 29.0672451193059 82.8633405639913 17.7874186550976 99.7830802603037C29.0672451193059 116.7028199566161 58.1344902386117 144.4685466377441 99.7830802603037 144.4685466377441S170.4989154013015 116.7028199566161 181.7787418655098 99.7830802603037C170.4989154013015 82.8633405639913 141.4316702819957 55.0976138828633 99.7830802603037 55.0976138828633z M123.2104121475054 133.6225596529284C104.5553145336226 146.6377440347072 78.9587852494577 142.2993492407809 65.943600867679 123.6442516268981S57.2668112798265 79.3926247288503 75.9219088937093 66.3774403470716C94.5770065075922 53.3622559652929 120.1735357917571 57.7006507592191 133.1887201735358 76.355748373102C146.6377440347072 95.0108459869848 141.8655097613883 120.6073752711497 123.2104121475054 133.6225596529284zM122.7765726681128 83.7310195227766C113.6659436008677 71.1496746203904 96.3123644251627 68.1127982646421 83.7310195227766 76.7895878524946S68.1127982646421 103.2537960954447 76.7895878524946 115.8351409978308C81.9956616052061 123.2104121475054 90.6724511930586 127.9826464208243 99.7830802603037 127.9826464208243C115.4013015184382 127.9826464208243 127.9826464208243 115.4013015184382 127.9826464208243 99.7830802603037C127.9826464208243 94.1431670281996 126.2472885032538 88.5032537960954 122.7765726681128 83.7310195227766z M97.6138828633406 122.7765726681128C93.2754880694143 119.7396963123644 95.0108459869848 109.7613882863341 101.0845986984816 100.6507592190889S116.2689804772234 86.767895878525 120.6073752711497 89.8047722342733S123.2104121475054 102.8199566160521 116.7028199566161 111.9305856832972S101.9522776572668 125.8134490238612 97.6138828633406 122.7765726681128z" />
    <glyph glyph-name="home"
      unicode="&#xF11B;"
      horiz-adv-x="200" d=" M100 74.468085106383C94.8936170212766 74.468085106383 90.6382978723404 65.531914893617 90.6382978723404 54.8936170212766S94.8936170212766 34.8936170212766 100 34.8936170212766S109.3617021276596 43.8297872340426 109.3617021276596 54.8936170212766S105.531914893617 74.468085106383 100 74.468085106383z M189.3617021276596 149.3617021276596L107.6595744680851 192.7659574468085C102.9787234042553 195.3191489361702 97.0212765957447 195.3191489361702 92.3404255319149 192.7659574468085L10.6382978723404 149.3617021276596C2.5531914893617 145.1063829787234 -0.4255319148936 135.3191489361702 3.8297872340426 127.2340425531915C6.8085106382979 122.1276595744681 12.3404255319149 118.7234042553192 18.2978723404255 118.7234042553192H20.8510638297872V20.8510638297872C20.8510638297872 14.0425531914894 25.9574468085106 8.5106382978723 32.7659574468085 8.5106382978723H167.2340425531915C174.0425531914894 8.5106382978723 179.1489361702128 14.0425531914894 179.1489361702128 20.8510638297872V118.7234042553192H181.7021276595745C190.6382978723404 118.7234042553192 197.8723404255319 125.9574468085106 197.8723404255319 135.3191489361702C198.2978723404255 140.8510638297872 194.8936170212766 146.3829787234043 189.3617021276596 149.3617021276596zM185.1063829787234 134.0425531914894C184.6808510638298 132.3404255319149 183.404255319149 131.0638297872341 181.7021276595745 131.4893617021277H172.7659574468085C169.3617021276596 131.4893617021277 166.3829787234043 128.5106382978723 166.3829787234043 125.1063829787234V21.2765957446809H33.6170212765957V125.1063829787234C33.6170212765957 128.5106382978723 30.6382978723404 131.4893617021277 27.2340425531915 131.4893617021277H18.2978723404255C16.1702127659574 131.4893617021277 14.8936170212766 133.1914893617021 14.8936170212766 134.8936170212766C14.8936170212766 136.1702127659575 15.7446808510638 137.4468085106383 16.5957446808511 137.8723404255319L98.2978723404255 181.2765957446809C99.1489361702128 181.7021276595745 100.4255319148936 181.7021276595745 101.7021276595745 181.2765957446809L183.404255319149 137.8723404255319C185.1063829787234 137.4468085106383 185.9574468085107 135.7446808510638 185.1063829787234 134.0425531914894L185.1063829787234 134.0425531914894z" />
    <glyph glyph-name="info-circle-r"
      unicode="&#xF11C;"
      horiz-adv-x="200" d=" M106.6 60H88.4V118.7H106.6V60zM97.5 144.2C103.4 144.2 107.1 140.2 107.2 135C107.2 130 103.4 125.9 97.4 125.9C91.6 125.9 87.8 130 87.9 135C87.8 140.3 91.6 144.2 97.5 144.2zM100 40C133.1 40 160 66.9 160 100S133.1 160 100 160S40 133.1 40 100S66.9 40 100 40zM100 20C55.8 20 20 55.8 20 100S55.8 180 100 180S180 144.2 180 100S144.2 20 100 20z" />
    <glyph glyph-name="info-circle"
      unicode="&#xF11D;"
      horiz-adv-x="200.00000000000003" d=" M99.7830802603037 195.6616052060738C46.8546637744035 195.6616052060738 4.3383947939262 153.1453362255965 4.3383947939262 100.2169197396963S46.8546637744035 4.7722342733189 99.7830802603037 4.7722342733189S195.2277657266811 47.2885032537961 195.2277657266811 100.2169197396963S152.7114967462039 195.6616052060738 99.7830802603037 195.6616052060738zM99.7830802603037 17.7874186550976C54.2299349240781 17.7874186550976 17.353579175705 54.6637744034707 17.353579175705 100.2169197396963S54.2299349240781 182.646420824295 99.7830802603037 182.646420824295S182.2125813449024 145.7700650759219 182.2125813449024 100.2169197396963S145.3362255965293 17.7874186550976 99.7830802603037 17.7874186550976z M91.9739696312364 109.7613882863341H108.0260303687636V45.119305856833H91.9739696312364V109.761388286334z M91.9739696312364 143.1670281995662C85.4663774403471 134.0563991323211 84.1648590021692 124.0780911062907 88.5032537960954 121.0412147505423S101.5184381778742 123.2104121475054 108.0260303687636 132.3210412147506S115.8351409978308 150.9761388286334 111.4967462039046 154.0130151843818S98.0477223427332 152.2776572668113 91.9739696312364 143.1670281995662z" />
    <glyph glyph-name="info"
      unicode="&#xF11E;"
      horiz-adv-x="200.00000000000003" d=" M91.9739696312364 109.7613882863341H108.0260303687636V45.119305856833H91.9739696312364V109.761388286334z M111.4967462039046 154.0130151843818C107.1583514099783 157.0498915401302 98.4815618221258 152.2776572668113 91.9739696312364 142.7331887201735C85.4663774403471 133.6225596529284 84.1648590021692 123.6442516268981 88.5032537960954 120.6073752711497C92.8416485900217 117.5704989154013 101.9522776572668 122.7765726681128 108.0260303687636 131.8872017353579C114.5336225596529 141.4316702819957 115.8351409978308 150.9761388286334 111.4967462039046 154.0130151843818z" />
    <glyph glyph-name="logo"
      unicode="&#xF106;"
      horiz-adv-x="228.57142857142858" d=" M134.5578928571429 11.74816C118.3070185714286 22.5558928571429 124.91378 58.64964 148.3292957142857 91.29665C171.7448114285714 123.9536071428571 203.09464 140.7048457142857 219.3558457142858 129.8971142857143C235.60672 119.0943557142857 229.8006214285714 83.9008385714286 206.3851057142857 51.2488542857143C182.9747557142857 18.5968714285714 150.8087685714286 0.9404285714285 134.5578928571429 11.74816zM94.0123228571429 11.74816C77.7614485714286 0.9404285714285 45.5954614285714 18.5968714285714 22.1851107142857 51.2488542857143C-1.2304055714286 83.9008385714286 -7.0365031428571 119.0943557142857 9.2195368571429 129.8971142857143C25.475577 140.7048457142857 56.8254042857143 123.9536071428571 80.2409214285714 91.29665C103.6564371428572 58.64964 110.2631971428572 22.5558928571429 94.0123228571429 11.74816zM188.9600985714286 157.0358114285714C188.9600985714286 138.0464328571429 155.5182157142857 122.6430514285714 114.2711614285715 122.6430514285714C73.0241071428572 122.6430514285714 39.5822242857143 138.0464328571429 39.5822242857143 157.0358114285714C39.5822242857143 176.0301642857143 73.0241071428572 191.4285714285715 114.2711614285715 191.4285714285715C155.5182157142857 191.4285714285715 188.9600985714286 176.0301642857143 188.9600985714286 157.0358114285714z" />
    <glyph glyph-name="marker-s"
      unicode="&#xF11F;"
      horiz-adv-x="200" d=" M100 20C60 53.3 40 86.7 40 120C40 153.1 66.9 180 100 180S160 153.1 160 120C160 86.7 140 53.3 100 20zM100 90C116.6 90 130 103.4 130 120S116.6 150 100 150S70 136.6 70 120S83.4 90 100 90z" />
    <glyph glyph-name="marker"
      unicode="&#xF120;"
      horiz-adv-x="200.00000000000003" d=" M101.0845986984816 27.765726681128C104.9891540130152 25.5965292841648 109.7613882863341 25.5965292841648 113.2321041214751 27.765726681128C137.5271149674621 43.8177874186551 162.2559652928417 82.8633405639913 162.2559652928417 135.7917570498915C162.6898047722343 152.2776572668113 156.6160520607376 168.763557483731 144.9023861171367 180.4772234273319C134.9240780911063 190.4555314533623 121.4750542299349 196.0954446854664 107.1583514099783 195.6616052060738C92.8416485900217 196.0954446854664 79.3926247288503 190.4555314533623 69.41431670282 180.4772234273319C57.7006507592191 168.3297180043384 51.6268980477224 152.2776572668113 52.060737527115 135.7917570498916C52.060737527115 83.297180043384 76.7895878524946 43.8177874186551 101.0845986984816 27.765726681128zM78.5249457700651 171.3665943600868C86.3340563991323 178.7418655097614 96.3123644251627 182.646420824295 106.7245119305857 182.646420824295H107.1583514099783C118.004338394794 183.0802603036876 127.9826464208243 178.7418655097614 135.7917570498916 171.3665943600868C144.9023861171367 161.822125813449 149.6746203904556 149.2407809110629 149.2407809110629 135.7917570498916C149.2407809110629 88.5032537960954 128.416485900217 53.7960954446855 107.1583514099783 39.4793926247288C85.9002169197397 53.7960954446855 65.0759219088937 88.9370932754881 65.0759219088937 135.7917570498916C64.6420824295011 148.8069414316703 69.41431670282 161.822125813449 78.5249457700651 171.3665943600868z M127.1149674620391 156.1822125813449C127.1149674620391 161.3882863340564 118.0043383947939 165.7266811279827 107.1583514099783 166.1605206073753S86.767895878525 161.822125813449 86.767895878525 156.6160520607375S95.8785249457701 147.0715835140998 107.1583514099783 147.0715835140998S127.1149674620391 150.5422993492408 127.1149674620391 156.1822125813449z M107.1583514099783 22.9934924078091C95.8785249457701 22.9934924078091 87.2017353579176 18.6550976138829 87.2017353579176 13.4490238611714S96.3123644251627 3.9045553145336 107.5921908893709 3.9045553145336S127.5488069414317 8.2429501084598 127.5488069414317 13.4490238611714S118.4381778741866 22.9934924078091 107.1583514099783 22.9934924078091z" />
    <glyph glyph-name="menu"
      unicode="&#xF121;"
      horiz-adv-x="200" d=" M10.8695652173913 147.8260869565218H189.1304347826087A6.521739130434783 6.521739130434783 0 0 1 189.1304347826087 160.8695652173913H10.8695652173913A6.521739130434783 6.521739130434783 0 0 1 10.8695652173913 147.8260869565218z M189.1304347826087 106.5217391304348H10.8695652173913A6.521739130434783 6.521739130434783 0 0 1 10.8695652173913 93.4782608695652H189.1304347826087A6.521739130434783 6.521739130434783 0 0 1 189.1304347826087 106.5217391304348z M189.1304347826087 52.1739130434783H10.8695652173913A6.521739130434783 6.521739130434783 0 0 1 10.8695652173913 39.1304347826087H189.1304347826087A6.521739130434783 6.521739130434783 0 0 1 189.1304347826087 52.1739130434783z" />
    <glyph glyph-name="minus-circle"
      unicode="&#xF122;"
      horiz-adv-x="200" d=" M100 195.5555555555556A95.55555555555556 95.55555555555556 0 1 1 195.5555555555556 100A95.64444444444446 95.64444444444446 0 0 1 100 195.5555555555556zM100 17.7777777777778A82.22222222222223 82.22222222222223 0 1 0 182.2222222222222 100A82.3111111111111 82.3111111111111 0 0 0 100 17.7777777777778z M155.2888888888889 106.6666666666667H44.7111111111111A6.666666666666668 6.666666666666668 0 0 1 44.7111111111111 93.3333333333333H155.2888888888889A6.666666666666668 6.666666666666668 0 0 1 155.2888888888889 106.6666666666667z" />
    <glyph glyph-name="minus"
      unicode="&#xF123;"
      horiz-adv-x="200" d=" M153.9130434782609 93.4782608695652H46.0869565217391C42.6086956521739 93.4782608695652 39.5652173913043 96.5217391304348 39.5652173913043 100C39.5652173913043 103.4782608695652 42.6086956521739 106.5217391304348 46.0869565217391 106.5217391304348H154.3478260869565C157.8260869565217 106.5217391304348 160.8695652173913 103.4782608695652 160.8695652173913 100C160.4347826086956 96.5217391304348 157.8260869565217 93.4782608695652 153.9130434782609 93.4782608695652z" />
    <glyph glyph-name="pause-s"
      unicode="&#xF124;"
      horiz-adv-x="200" d=" M50 170H80C85.5 170 90 165.5 90 160V40C90 34.5 85.5 30 80 30H50C44.5 30 40 34.5 40 40V160C40 165.5 44.5 170 50 170zM120 170H150C155.5 170 160 165.5 160 160V40C160 34.5 155.5 30 150 30H120C114.5 30 110 34.5 110 40V160C110 165.5 114.5 170 120 170z" />
    <glyph glyph-name="pencil-s"
      unicode="&#xF125;"
      horiz-adv-x="200" d=" M155.9 120.6L66.2 30.9C64.9 29.6 63.2 28.7 61.4 28.2L26.1 20.1C25.4 19.9 24.6 19.9 23.9 20.1C21.2 20.7 19.5 23.4 20.2 26.1L28.3 61.4C28.7 63.2 29.6 64.9 31 66.2L120.7 155.9L155.9 120.6zM163 127.7L127.7 163L141.8 177.1C145.7 181 152 181 155.9 177.1L177.1 155.9C181 152 181 145.7 177.1 141.8L163 127.7z" />
    <glyph glyph-name="pencil"
      unicode="&#xF126;"
      horiz-adv-x="200" d=" M136.5217391304348 136.5217391304348C132.6086956521739 140.4347826086957 123.0434782608696 136.9565217391304 115.2173913043478 129.1304347826087S104.3478260869565 112.1739130434783 107.8260869565217 108.2608695652174S120.8695652173913 107.8260869565217 129.1304347826087 115.6521739130435S140.4347826086956 132.6086956521739 136.5217391304348 136.5217391304348z M18.695652173913 11.304347826087L64.3478260869565 17.3913043478261C64.7826086956522 17.3913043478261 65.2173913043478 17.3913043478261 65.6521739130435 17.8260869565218H66.0869565217391C66.9565217391304 18.2608695652174 67.3913043478261 18.6956521739131 67.8260869565217 19.1304347826087L67.8260869565217 19.1304347826087L186.9565217391304 138.2608695652174C189.5652173913044 140.8695652173913 189.5652173913044 144.7826086956522 186.9565217391304 147.3913043478261L147.3913043478261 186.9565217391304C144.7826086956522 189.5652173913044 140.8695652173913 189.5652173913044 138.2608695652174 186.9565217391304L19.1304347826087 67.8260869565218L18.695652173913 67.3913043478261L18.2608695652174 66.9565217391304C17.8260869565217 66.5217391304348 17.8260869565217 66.0869565217391 17.3913043478261 65.6521739130435V65.6521739130435C17.8260869565217 65.2173913043478 17.3913043478261 64.7826086956522 17.3913043478261 64.3478260869565L17.3913043478261 64.3478260869565L11.304347826087 18.695652173913C11.304347826087 18.2608695652174 11.304347826087 18.2608695652174 11.304347826087 17.8260869565217C11.304347826087 14.3478260869565 14.3478260869565 11.3043478260869 17.8260869565217 11.3043478260869C18.2608695652174 11.304347826087 18.695652173913 11.304347826087 18.695652173913 11.304347826087L18.695652173913 11.304347826087zM33.0434782608696 63.0434782608696L128.695652173913 158.6956521739131L159.1304347826087 128.2608695652174L63.4782608695652 32.6086956521739L33.0434782608696 63.0434782608696zM173.0434782608695 142.6086956521739L163.9130434782609 133.4782608695652L133.4782608695652 163.9130434782609L142.6086956521739 173.0434782608696L173.0434782608695 142.6086956521739zM28.695652173913 49.1304347826087L49.5652173913043 28.2608695652174L25.6521739130435 25.2173913043478L28.695652173913 49.1304347826087z" />
    <glyph glyph-name="play-s"
      unicode="&#xF127;"
      horiz-adv-x="200.00000000000003" d=" M179.6095444685466 105.8568329718004L31.6702819956616 194.7939262472885C29.5010845986985 196.0954446854664 27.3318872017354 196.0954446854664 25.1626898047722 194.7939262472885C22.9934924078091 193.4924078091106 21.6919739696312 191.3232104121475 21.6919739696312 189.1540130151844V11.2798264642082C21.6919739696312 9.1106290672451 22.9934924078091 6.941431670282 25.1626898047722 5.6399132321041C26.0303687635575 5.2060737527115 26.8980477223427 4.7722342733189 28.1995661605206 4.7722342733189C29.5010845986985 4.7722342733189 30.3687635574837 5.2060737527115 31.6702819956616 5.6399132321041L180.0433839479393 94.5770065075922C183.0802603036877 96.3123644251627 183.9479392624729 100.2169197396963 182.2125813449024 103.6876355748373C181.3449023861171 104.5553145336226 180.9110629067246 105.4229934924078 179.6095444685466 105.8568329718004zM34.70715835141 22.9934924078091V177.8741865509761L163.9913232104121 100.2169197396963L34.70715835141 22.9934924078091z" />
    <glyph glyph-name="plus-circle-r"
      unicode="&#xF128;"
      horiz-adv-x="200" d=" M100 40C133.1 40 160 66.9 160 100S133.1 160 100 160S40 133.1 40 100S66.9 40 100 40zM100 20C55.8 20 20 55.8 20 100S55.8 180 100 180S180 144.2 180 100S144.2 20 100 20zM110 110H130C135.5 110 140 105.5 140 100C140 94.5 135.5 90 130 90H110V70C110 64.5 105.5 60 100 60C94.5 60 90 64.5 90 70V90H70C64.5 90 60 94.5 60 100C60 105.5 64.5 110 70 110H90V130C90 135.5 94.5 140 100 140C105.5 140 110 135.5 110 130V110z" />
    <glyph glyph-name="plus-circle-s"
      unicode="&#xF129;"
      horiz-adv-x="200" d=" M20 100C20 55.8172200135365 55.8172200135365 20 100 20C144.1827799864635 20 180 55.8172200135365 180 100C180 144.1827799864635 144.1827799864635 180 100 180C55.8172200135365 180 20 144.1827799864635 20 100z M110 110H140C145.5 110 150 105.5 150 100C150 94.5 145.5 90 140 90H110V60C110 54.5 105.5 50 100 50C94.5 50 90 54.5 90 60V90H60C54.5 90 50 94.5 50 100C50 105.5 54.5 110 60 110H90V140C90 145.5 94.5 150 100 150C105.5 150 110 145.5 110 140V110z" />
    <glyph glyph-name="plus-circle"
      unicode="&#xF12A;"
      horiz-adv-x="200" d=" M100 193.9130434782609C48.695652173913 193.9130434782609 6.5217391304348 151.7391304347826 6.5217391304348 100.4347826086957S48.695652173913 6.9565217391304 100 6.9565217391304S193.4782608695652 48.6956521739131 193.4782608695652 100.4347826086957C193.4782608695652 151.7391304347826 151.7391304347826 193.9130434782609 100 193.9130434782609zM100 20C55.6521739130435 20 19.5652173913043 56.0869565217392 19.5652173913043 100.4347826086957S55.6521739130435 180.8695652173913 100 180.8695652173913S180.4347826086957 144.7826086956522 180.4347826086957 100.4347826086957S144.3478260869565 20 100 20z M154.3478260869565 106.9565217391305H106.5217391304348V154.3478260869565C106.5217391304348 157.8260869565218 103.4782608695652 160.8695652173913 100 160.8695652173913S93.4782608695652 157.8260869565218 93.4782608695652 154.3478260869565V106.9565217391305H46.0869565217391C42.6086956521739 106.9565217391305 39.5652173913043 103.9130434782609 39.5652173913043 100.4347826086957S42.6086956521739 93.9130434782609 46.0869565217391 93.9130434782609H93.4782608695652V46.5217391304348C93.4782608695652 43.0434782608696 96.5217391304348 40 100 40S106.5217391304348 43.0434782608696 106.5217391304348 46.5217391304348V93.9130434782609H153.9130434782609C157.3913043478261 93.9130434782609 160.4347826086956 96.9565217391304 160.4347826086956 100.4347826086957S157.3913043478261 106.9565217391305 154.3478260869565 106.9565217391305z" />
    <glyph glyph-name="plus-r"
      unicode="&#xF12B;"
      horiz-adv-x="200" d=" M110 110H150C155.5 110 160 105.5 160 100C160 94.5 155.5 90 150 90H110V50C110 44.5 105.5 40 100 40C94.5 40 90 44.5 90 50V90H50C44.5 90 40 94.5 40 100C40 105.5 44.5 110 50 110H90V150C90 155.5 94.5 160 100 160C105.5 160 110 155.5 110 150V110z" />
    <glyph glyph-name="plus"
      unicode="&#xF104;"
      horiz-adv-x="200" d=" M154.3478260869565 106.9565217391305H106.5217391304348V154.3478260869565C106.5217391304348 157.8260869565218 103.4782608695652 160.8695652173913 100 160.8695652173913S93.4782608695652 157.8260869565218 93.4782608695652 154.3478260869565V106.9565217391305H46.0869565217391C42.6086956521739 106.9565217391305 39.5652173913043 103.9130434782609 39.5652173913043 100.4347826086957S42.6086956521739 93.9130434782609 46.0869565217391 93.9130434782609L46.0869565217391 93.9130434782609H93.4782608695652V46.5217391304348C93.4782608695652 43.0434782608696 96.5217391304348 40 100 40S106.5217391304348 43.0434782608696 106.5217391304348 46.5217391304348L106.5217391304348 46.5217391304348V93.9130434782609H153.9130434782609C157.3913043478261 93.9130434782609 160.4347826086956 96.9565217391304 160.4347826086956 100.4347826086957C160.8695652173913 103.9130434782609 157.3913043478261 106.9565217391305 154.3478260869565 106.9565217391305z" />
    <glyph glyph-name="power"
      unicode="&#xF12C;"
      horiz-adv-x="200" d=" M100 123.0434782608696C103.4782608695652 123.0434782608696 106.5217391304348 126.0869565217392 106.5217391304348 129.5652173913044V189.1304347826087C106.5217391304348 192.6086956521739 103.4782608695652 195.6521739130435 100 195.6521739130435S93.4782608695652 192.6086956521739 93.4782608695652 189.1304347826087V129.5652173913044C93.4782608695652 126.0869565217392 96.5217391304348 123.0434782608696 100 123.0434782608696z M130.8695652173913 175.2173913043478C127.3913043478261 176.5217391304348 123.9130434782609 174.7826086956522 122.6086956521739 171.304347826087C121.304347826087 167.8260869565218 123.0434782608696 164.3478260869565 126.5217391304348 163.0434782608696C165.2173913043478 148.2608695652174 184.7826086956522 105.2173913043478 170.4347826086957 66.0869565217391C155.6521739130435 27.3913043478261 112.6086956521739 7.8260869565217 73.4782608695652 22.1739130434783S15.2173913043478 80 29.5652173913043 119.1304347826087C37.3913043478261 139.5652173913044 53.0434782608696 155.2173913043478 73.4782608695652 163.0434782608696C76.5217391304348 164.7826086956522 78.2608695652174 168.695652173913 76.5217391304348 171.7391304347826C75.2173913043478 174.3478260869565 72.1739130434783 176.0869565217391 69.1304347826087 175.2173913043478C23.4782608695652 157.8260869565218 0.4347826086957 106.9565217391305 17.8260869565217 61.304347826087S85.6521739130435 -7.3913043478261 131.304347826087 10S200 77.8260869565217 182.6086956521739 123.4782608695652C173.9130434782609 147.3913043478261 155.2173913043479 166.0869565217391 130.8695652173913 175.2173913043478L130.8695652173913 175.2173913043478z" />
    <glyph glyph-name="question-circle-r"
      unicode="&#xF12D;"
      horiz-adv-x="200" d=" M105.8 86.2H89.8L89.7 89.3C89.3 95.4 91.4 101.7 96.8 108.1C100.6 112.7 103.8 116.5 103.8 120.6C103.8 124.8 101 127.6 95 127.8C91 127.8 86.2 126.4 83.1 124.2L79 137.3C83.3 139.8 90.5 142.2 99 142.2C114.8 142.2 122 133.4 122 123.5C122 114.4 116.4 108.4 111.8 103.3C107.4 98.4 105.6 93.7 105.7 88.3V86.2zM97.4 58.7C91 58.7 86.7 63.4 86.7 69.6C86.7 76 91.1 80.5 97.4 80.5C103.9 80.5 108.1 75.9 108.2 69.6C108.2 63.4 103.9 58.7 97.4 58.7zM100 40C133.1 40 160 66.9 160 100S133.1 160 100 160S40 133.1 40 100S66.9 40 100 40zM100 20C55.8 20 20 55.8 20 100S55.8 180 100 180S180 144.2 180 100S144.2 20 100 20z" />
    <glyph glyph-name="question-circle"
      unicode="&#xF12E;"
      horiz-adv-x="200.00000000000003" d=" M87.6355748373102 59.002169197397C81.1279826464208 49.8915401301518 79.826464208243 40.3470715835141 84.1648590021692 37.3101952277657S97.1800433839479 39.0455531453362 103.6876355748373 48.1561822125813S111.4967462039046 67.2451193058568 107.1583514099783 70.2819956616052S94.1431670281996 68.1127982646421 87.6355748373102 59.002169197397z M129.7180043383948 155.7483731019523C121.4750542299349 161.822125813449 111.4967462039046 164.8590021691974 101.0845986984816 163.9913232104121C90.6724511930586 164.4251626898048 80.6941431670282 161.3882863340564 72.0173535791757 155.7483731019523C64.6420824295011 150.1084598698482 60.3036876355748 141.4316702819957 59.4360086767896 131.8872017353579L76.355748373102 129.7180043383948C76.355748373102 135.3579175704989 78.9587852494577 140.5639913232104 83.297180043384 144.468546637744C88.5032537960954 147.9392624728851 94.5770065075922 149.6746203904555 100.6507592190889 149.6746203904555C106.2906724511931 150.1084598698482 111.9305856832972 148.3731019522776 116.2689804772234 145.3362255965293C120.1735357917571 142.2993492407809 121.9088937093276 137.9609544468547 121.9088937093276 133.1887201735358C121.9088937093276 130.1518438177874 120.6073752711497 127.1149674620391 118.8720173535792 124.5119305856833C114.9674620390456 120.6073752711497 110.6290672451193 117.5704989154013 105.8568329718004 114.9674620390456C100.2169197396963 111.9305856832972 95.4446854663775 108.0260303687636 91.5401301518438 102.8199566160521C88.9370932754881 98.4815618221258 87.6355748373102 93.2754880694143 87.6355748373102 88.0694143167028V82.4295010845987H104.12147505423V88.0694143167028C104.12147505423 90.238611713666 104.5553145336226 92.4078091106291 105.4229934924078 94.1431670281996C106.2906724511931 95.8785249457701 107.592190889371 97.6138828633406 109.3275488069415 99.3492407809111C109.7613882863341 99.7830802603037 111.062906724512 100.6507592190889 113.2321041214751 101.9522776572668S117.5704989154013 104.5553145336226 120.6073752711497 106.2906724511931C126.2472885032538 109.3275488069414 131.4533622559653 113.6659436008677 135.3579175704989 118.8720173535792C138.3947939262473 123.2104121475054 139.6963123644252 128.4164859002169 139.6963123644252 133.6225596529284C140.1301518438178 141.8655097613883 136.2255965292842 150.1084598698482 129.7180043383948 155.7483731019523z M99.7830802603037 195.6616052060738C46.8546637744035 195.6616052060738 4.3383947939262 153.1453362255965 4.3383947939262 100.2169197396963S46.8546637744035 4.7722342733189 99.7830802603037 4.7722342733189S195.2277657266811 47.2885032537961 195.2277657266811 100.2169197396963S152.7114967462039 195.6616052060738 99.7830802603037 195.6616052060738zM99.7830802603037 17.7874186550976C54.2299349240781 17.7874186550976 17.353579175705 54.6637744034707 17.353579175705 100.2169197396963S54.2299349240781 182.646420824295 99.7830802603037 182.646420824295S182.2125813449024 145.7700650759219 182.2125813449024 100.2169197396963S145.3362255965293 17.7874186550976 99.7830802603037 17.7874186550976z" />
    <glyph glyph-name="question"
      unicode="&#xF12F;"
      horiz-adv-x="200.00000000000003" d=" M88.9370932754881 59.8698481561822C82.4295010845987 50.7592190889371 81.1279826464208 41.2147505422994 85.4663774403471 38.177874186551C89.8047722342733 35.1409978308026 98.4815618221258 39.9132321041215 104.9891540130152 49.0238611713666C111.4967462039046 58.1344902386117 112.7982646420824 68.1127982646421 108.4598698481562 71.1496746203905S95.0108459869848 68.9804772234273 88.9370932754881 59.8698481561822z M130.5856832971801 157.0498915401302C122.3427331887202 163.1236442516269 112.3644251626898 166.1605206073753 102.3861171366595 165.29284164859C91.9739696312365 165.7266811279827 81.9956616052061 162.6898047722343 73.3188720173536 157.0498915401302C65.943600867679 151.4099783080261 61.6052060737527 142.7331887201735 61.1713665943601 133.1887201735358L78.0911062906725 130.58568329718C78.0911062906725 136.2255965292842 80.6941431670282 141.8655097613883 85.0325379609545 145.3362255965293C90.238611713666 148.8069414316703 96.3123644251627 150.5422993492408 102.3861171366595 150.5422993492408C108.0260303687636 150.9761388286334 113.6659436008677 149.2407809110629 118.004338394794 146.2039045553145C121.9088937093276 143.1670281995662 123.6442516268981 138.8286334056399 123.6442516268981 134.0563991323211C123.6442516268981 131.0195227765727 122.3427331887202 127.9826464208243 120.6073752711497 125.3796095444686C116.7028199566161 121.4750542299349 112.3644251626898 118.4381778741866 107.592190889371 115.8351409978308C101.9522776572668 112.7982646420824 97.180043383948 108.8937093275488 93.2754880694143 103.6876355748373C90.6724511930586 99.3492407809111 89.3709327548807 94.1431670281996 89.3709327548807 88.9370932754881V82.8633405639913H105.4229934924078V88.5032537960954C105.4229934924078 90.6724511930586 105.8568329718005 92.8416485900217 106.7245119305857 94.5770065075922C107.592190889371 96.3123644251627 108.8937093275488 98.0477223427332 110.6290672451193 99.7830802603037C111.062906724512 100.2169197396963 112.3644251626898 101.0845986984816 114.533622559653 102.3861171366594C116.2689804772234 103.6876355748373 118.8720173535792 104.9891540130152 121.9088937093276 106.7245119305857C127.5488069414317 109.7613882863341 132.7548806941432 114.0997830802603 136.6594360086768 119.3058568329718C139.6963123644252 123.6442516268981 140.997830802603 128.8503253796095 140.997830802603 134.056399132321C141.4316702819957 142.7331887201735 137.5271149674621 151.4099783080261 130.5856832971801 157.0498915401302z" />
    <glyph glyph-name="relais-colis-express"
      unicode="&#xF130;"
      horiz-adv-x="200" d=" M61.2903225806452 31.899641577061H31.5412186379928V100C36.2007168458781 101.0752688172043 40.5017921146953 103.584229390681 43.3691756272401 107.5268817204301C43.7275985663082 107.168458781362 44.0860215053763 106.4516129032258 44.4444444444445 106.0931899641577C53.405017921147 97.4910394265233 67.3835125448029 97.4910394265233 76.3440860215054 106.4516129032258C76.7025089605735 106.8100358422939 77.0609318996416 107.168458781362 77.4193548387097 107.8853046594982C77.7777777777778 107.5268817204301 78.1362007168459 107.168458781362 78.494623655914 106.4516129032258C82.7956989247312 102.5089605734767 88.5304659498208 100 94.2652329749104 100C100.3584229390681 100 106.0931899641577 102.5089605734767 110.0358422939068 106.8100358422939C110.3942652329749 107.168458781362 110.752688172043 107.5268817204301 111.1111111111111 108.2437275985663C119.3548387096775 98.9247311827957 133.3333333333334 97.8494623655914 142.652329749104 105.7347670250896C143.0107526881721 106.0931899641577 143.7275985663083 106.4516129032258 144.0860215053764 107.168458781362C144.4444444444445 107.5268817204301 144.8028673835126 107.8853046594982 145.1612903225807 108.6021505376344C149.4623655913979 103.584229390681 155.5555555555556 100.7168458781362 162.3655913978495 100.7168458781362L162.3655913978495 100.7168458781362C174.910394265233 100.7168458781362 184.9462365591398 111.1111111111111 184.5878136200717 123.2974910394265C184.5878136200717 123.2974910394265 184.5878136200717 123.2974910394265 184.5878136200717 123.2974910394265C183.8709677419355 128.31541218638 182.4372759856631 132.9749103942652 179.5698924731183 137.2759856630825C179.5698924731183 137.6344086021505 179.2114695340502 137.9928315412186 178.8530465949821 138.3512544802868L151.9713261648746 173.1182795698925C149.1039426523298 177.0609318996416 144.4444444444444 179.2114695340502 139.426523297491 179.2114695340502H48.0286738351255C43.0107526881721 179.2114695340502 38.3512544802867 176.7025089605735 35.4838709677419 172.7598566308244L8.9605734767025 136.9175627240143C8.6021505376344 136.5591397849463 8.6021505376344 136.2007168458781 8.2437275985663 135.84229390681C5.7347670250896 131.5412186379928 3.9426523297491 126.8817204301075 3.584229390681 122.2222222222222C3.584229390681 111.8279569892473 10.752688172043 102.8673835125448 20.7885304659498 100.3584229390681V31.5412186379928C20.7885304659498 26.1648745519713 25.4480286738351 21.505376344086 30.8243727598566 21.505376344086H61.6487455197133C64.5161290322581 21.505376344086 67.0250896057348 24.0143369175627 67.0250896057348 26.8817204301075S64.15770609319 31.899641577061 61.2903225806452 31.899641577061zM14.336917562724 121.8637992831541C15.0537634408602 125.089605734767 16.1290322580645 127.9569892473118 17.921146953405 130.4659498207885L18.2795698924731 130.8243727598566L44.0860215053763 165.9498207885305C45.1612903225807 167.3835125448029 46.5949820788531 168.1003584229391 48.0286738351255 168.1003584229391H140.5017921146954C141.9354838709678 168.1003584229391 143.3691756272402 167.3835125448029 144.4444444444445 166.3082437275986L170.9677419354839 131.899641577061L170.9677419354839 131.899641577061C172.7598566308244 129.3906810035842 173.8351254480287 126.5232974910394 174.5519713261649 123.2974910394265C174.5519713261649 116.8458781362007 169.1756272401434 111.4695340501792 162.7240143369176 111.4695340501792C156.2724014336918 111.4695340501792 150.8960573476703 116.8458781362007 150.8960573476703 123.2974910394265C150.8960573476703 126.1648745519713 148.3870967741936 128.673835125448 145.5197132616488 128.673835125448L145.5197132616488 128.673835125448C142.652329749104 128.673835125448 140.1433691756273 126.1648745519713 140.1433691756273 123.2974910394265C140.1433691756273 123.2974910394265 140.1433691756273 123.2974910394265 140.1433691756273 123.2974910394265L140.1433691756273 123.2974910394265C140.1433691756273 116.8458781362007 134.7670250896058 111.4695340501792 128.31541218638 111.4695340501792C121.8637992831542 111.4695340501792 116.4874551971327 116.8458781362007 116.4874551971327 123.2974910394265C116.4874551971327 126.1648745519713 113.978494623656 128.673835125448 111.1111111111112 128.673835125448L111.1111111111112 128.673835125448C108.2437275985664 128.673835125448 105.7347670250897 126.1648745519713 105.7347670250897 123.2974910394265C105.7347670250897 123.2974910394265 105.7347670250897 123.2974910394265 105.7347670250897 123.2974910394265L105.7347670250897 123.2974910394265C106.0931899641578 116.8458781362007 101.0752688172044 111.4695340501792 94.6236559139785 111.1111111111111C94.6236559139785 111.1111111111111 94.2652329749104 111.1111111111111 94.2652329749104 111.1111111111111L94.2652329749104 111.1111111111111C87.8136200716846 111.1111111111111 82.4372759856631 116.4874551971326 82.4372759856631 122.5806451612903C82.4372759856631 125.4480286738352 79.9283154121864 127.9569892473119 77.0609318996416 127.9569892473119C77.0609318996416 127.9569892473119 77.0609318996416 127.9569892473119 77.0609318996416 127.9569892473119L77.0609318996416 127.9569892473119C74.1935483870968 127.9569892473119 71.6845878136201 125.4480286738352 71.6845878136201 122.5806451612903L71.6845878136201 122.5806451612903C71.6845878136201 116.1290322580645 66.3082437275986 110.752688172043 59.8566308243728 110.752688172043S48.0286738351255 116.1290322580645 48.0286738351255 122.5806451612903C48.0286738351255 122.5806451612903 48.0286738351255 122.5806451612903 48.0286738351255 122.5806451612903C48.0286738351255 125.4480286738352 45.5197132616488 127.9569892473119 42.652329749104 127.9569892473119L42.652329749104 127.9569892473119C39.7849462365592 127.9569892473119 37.2759856630825 125.4480286738352 37.2759856630825 122.5806451612903L37.2759856630825 122.5806451612903C37.2759856630825 116.1290322580645 31.899641577061 110.752688172043 25.4480286738352 110.752688172043L25.4480286738352 110.752688172043C19.7132616487455 110.3942652329749 14.6953405017921 115.4121863799283 14.336917562724 121.8637992831541z M196.415770609319 27.5985663082437L188.1720430107527 74.5519713261649C187.8136200716846 77.0609318996416 185.3046594982079 79.2114695340502 182.7956989247312 78.8530465949821H174.910394265233V82.078853046595C174.5519713261649 90.6810035842294 167.0250896057348 97.4910394265233 158.4229390681003 96.7741935483871C150.5376344086021 96.415770609319 144.0860215053763 89.9641577060932 143.7275985663082 82.078853046595V78.8530465949821H135.84229390681C133.3333333333333 78.8530465949821 131.1827956989247 77.0609318996416 130.4659498207885 74.5519713261649L122.2222222222222 27.5985663082437C121.8637992831541 26.1648745519713 122.2222222222222 24.3727598566308 123.2974910394265 23.2974910394265C124.3727598566308 22.2222222222222 125.8064516129032 21.505376344086 127.5985663082437 21.505376344086H190.6810035842294C192.1146953405018 21.505376344086 193.9068100358423 22.2222222222222 194.6236559139785 23.2974910394265C196.0573476702509 24.3727598566308 196.7741935483871 25.8064516129032 196.415770609319 27.5985663082437zM154.8387096774194 82.078853046595C155.1971326164875 84.5878136200717 157.3476702508961 86.7383512544803 160.2150537634409 86.3799283154122C162.7240143369176 86.0215053763441 164.5161290322581 84.2293906810036 164.5161290322581 82.078853046595V78.8530465949821H154.8387096774194V82.078853046595zM134.4086021505376 31.899641577061L140.8602150537634 68.1003584229391H144.0860215053763V66.6666666666667C144.0860215053763 63.7992831541219 146.594982078853 61.2903225806452 149.4623655913978 61.2903225806452S154.8387096774193 63.7992831541219 154.8387096774193 66.6666666666667V68.1003584229391H164.5161290322581V66.6666666666667C164.5161290322581 63.7992831541219 167.0250896057348 61.2903225806452 169.8924731182796 61.2903225806452S175.2688172043011 63.7992831541219 175.2688172043011 66.6666666666667V68.1003584229391H178.494623655914L184.9462365591398 31.899641577061H134.4086021505376z M159.4982078853047 54.4802867383513C150.1792114695341 54.4802867383513 142.6523297491039 50.8960573476703 142.6523297491039 46.594982078853S150.1792114695341 38.7096774193548 159.4982078853047 38.7096774193548S175.9856630824373 42.2939068100358 175.9856630824373 46.594982078853S168.8172043010753 54.4802867383513 159.4982078853047 54.4802867383513z M118.2795698924731 64.5161290322581H62.7240143369176C59.8566308243728 64.5161290322581 57.3476702508961 62.0071684587814 57.3476702508961 59.1397849462366S59.8566308243728 53.7634408602151 62.7240143369176 53.7634408602151H118.2795698924731C121.1469534050179 53.7634408602151 123.6559139784946 56.2724014336918 123.6559139784946 59.1397849462366S121.1469534050179 64.5161290322581 118.2795698924731 64.5161290322581z M114.6953405017921 48.3870967741936H94.9820788530466C92.1146953405018 48.3870967741936 89.6057347670251 45.8781362007169 89.6057347670251 43.0107526881721S92.1146953405018 37.6344086021506 94.9820788530466 37.6344086021506H114.6953405017921C117.5627240143369 37.6344086021506 120.0716845878136 40.1433691756273 120.0716845878136 43.0107526881721S117.5627240143369 48.3870967741936 114.6953405017921 48.3870967741936z M111.1111111111111 31.899641577061H79.2114695340502C76.3440860215054 31.899641577061 73.8351254480287 29.3906810035842 73.8351254480287 26.5232974910394S76.3440860215054 21.1469534050179 79.2114695340502 21.1469534050179H111.1111111111111C113.9784946236559 21.1469534050179 116.4874551971326 23.6559139784946 116.4874551971326 26.5232974910394S113.9784946236559 31.899641577061 111.1111111111111 31.899641577061z" />
    <glyph glyph-name="search-r"
      unicode="&#xF131;"
      horiz-adv-x="200" d=" M87.5 67.5C112.4 67.5 132.5 87.6 132.5 112.5S112.4 157.5 87.5 157.5S42.5 137.4 42.5 112.5S62.6 67.5 87.5 67.5zM140 74.2L174.6 39.6C178.5 35.7 178.5 29.4 174.6 25.5C170.7 21.6 164.4 21.6 160.5 25.5L125.8 60C115.1 52.1 101.8 47.5 87.5 47.5C51.6 47.5 22.5 76.6 22.5 112.5S51.6 177.5 87.5 177.5S152.5 148.4 152.5 112.5C152.5 98.2 147.9 84.9 140 74.2z" />
    <glyph glyph-name="search"
      unicode="&#xF132;"
      horiz-adv-x="200" d=" M180 15.2173913043478L132.1739130434783 83.4782608695652C159.1304347826087 106.5217391304348 162.1739130434783 146.9565217391304 139.1304347826087 173.4782608695652C117.3913043478261 199.1304347826087 80.4347826086956 203.4782608695652 53.4782608695652 184.3478260869565C24.3478260869565 164.3478260869565 17.3913043478261 124.3478260869565 37.8260869565217 95.6521739130435C50 78.6956521739131 69.5652173913044 68.2608695652174 90.4347826086956 68.2608695652174C101.3043478260869 68.2608695652174 112.1739130434782 70.8695652173913 121.304347826087 76.5217391304348L169.1304347826087 7.8260869565217C170.4347826086956 6.0869565217391 172.1739130434783 5.2173913043478 174.3478260869565 5.2173913043478C177.8260869565217 5.2173913043478 180.8695652173913 8.2608695652174 180.8695652173913 11.7391304347826C180.4347826086957 13.0434782608696 180.4347826086957 14.3478260869565 180 15.2173913043478L180 15.2173913043478zM81.304347826087 82.1739130434783C53.4782608695652 86.9565217391304 35.2173913043478 113.4782608695652 40 140.8695652173913S71.304347826087 186.9565217391304 99.1304347826087 182.1739130434783S145.2173913043478 150.8695652173913 140.4347826086956 123.0434782608696C138.2608695652174 109.5652173913044 130.4347826086956 97.8260869565218 119.5652173913043 90.4347826086957C108.2608695652174 82.6086956521739 94.3478260869565 79.5652173913044 81.304347826087 82.1739130434783z M57.3913043478261 154.7826086956522C50.8695652173913 145.6521739130435 49.5652173913043 136.0869565217391 53.9130434782609 133.0434782608696C58.2608695652174 130 66.9565217391304 134.7826086956522 73.4782608695652 144.3478260869565S81.304347826087 163.4782608695652 76.9565217391304 166.5217391304348C72.6086956521739 169.5652173913044 63.9130434782609 163.9130434782609 57.3913043478261 154.7826086956522z" />
    <glyph glyph-name="shopping-bag"
      unicode="&#xF133;"
      horiz-adv-x="200" d=" M173.9130434782609 11.7391304347826L156.5217391304348 142.1739130434783C156.0869565217391 145.2173913043479 153.4782608695652 147.8260869565218 150 147.8260869565218H128.2608695652174V167.3913043478261C128.2608695652174 183.0434782608696 115.6521739130435 195.6521739130435 100 195.6521739130435S71.7391304347826 183.0434782608696 71.7391304347826 167.3913043478261V147.8260869565218H50C46.9565217391304 147.8260869565218 43.9130434782609 145.6521739130435 43.4782608695652 142.1739130434783L26.0869565217391 11.7391304347826C25.6521739130435 8.2608695652174 27.8260869565217 4.7826086956522 31.7391304347826 4.3478260869565C32.1739130434783 4.3478260869565 32.6086956521739 4.3478260869565 32.6086956521739 4.3478260869565H167.3913043478261C169.1304347826087 4.3478260869565 170.8695652173913 5.2173913043478 172.1739130434783 6.5217391304348C173.4782608695652 7.8260869565217 173.9130434782609 10 173.9130434782609 11.7391304347826zM84.7826086956522 167.3913043478261C84.7826086956522 175.6521739130435 91.7391304347826 182.6086956521739 100 182.6086956521739S115.2173913043478 175.6521739130435 115.2173913043478 167.3913043478261V147.8260869565218H84.7826086956522V167.3913043478261zM40 17.3913043478261L55.6521739130435 134.7826086956522H71.7391304347826V121.7391304347826C71.7391304347826 118.2608695652174 74.7826086956522 115.2173913043478 78.2608695652174 115.2173913043478S84.7826086956522 118.2608695652174 84.7826086956522 121.7391304347826V134.7826086956522H115.2173913043478V121.7391304347826C115.2173913043478 118.2608695652174 118.2608695652174 115.2173913043478 121.7391304347826 115.2173913043478S128.2608695652174 118.2608695652174 128.2608695652174 121.7391304347826V134.7826086956522H144.3478260869565L160 17.3913043478261H40z M100 80C88.695652173913 80 80 75.6521739130435 79.5652173913044 70.4347826086957S88.6956521739131 60.8695652173913 100 60.8695652173913S120 65.2173913043478 120 70.4347826086957S111.304347826087 80 100 80z" />
    <glyph glyph-name="shopping-cart"
      unicode="&#xF134;"
      horiz-adv-x="200.00000000000003" d=" M191.7570498915402 144.468546637744C187.8524945770065 149.6746203904555 181.7787418655098 152.7114967462039 175.704989154013 152.7114967462039H44.6854663774404L39.4793926247289 175.2711496746204C38.177874186551 180.9110629067245 32.9718004338395 185.2494577006508 27.3318872017354 185.2494577006508H10.8459869848156C7.3752711496746 185.2494577006508 4.3383947939262 182.2125813449024 4.3383947939262 178.7418655097614S7.3752711496746 172.234273318872 10.8459869848156 172.234273318872H26.8980477223427L32.9718004338395 144.468546637744L32.9718004338395 144.468546637744L49.4577006507592 69.8481561822126C50.7592190889371 64.2082429501085 55.9652928416486 59.8698481561822 62.0390455531453 59.8698481561822H166.5943600867679C172.234273318872 59.8698481561822 177.4403470715836 63.7744034707158 178.7418655097614 68.9804772234274L195.2277657266811 126.6811279826465C196.529284164859 133.1887201735358 195.2277657266811 139.6963123644252 191.7570498915402 144.468546637744zM182.2125813449024 130.58568329718L166.1605206073753 72.8850325379609L62.0390455531453 72.8850325379609L52.4945770065076 116.2689804772234L52.4945770065076 116.2689804772234L47.7223427331887 139.6963123644252H175.704989154013C177.8741865509761 139.6963123644252 180.0433839479393 138.8286334056399 181.3449023861171 136.6594360086768C182.646420824295 134.9240780911063 183.0802603036877 132.7548806941432 182.2125813449024 130.58568329718z M51.1930585683297 37.3101952277657C44.6854663774404 28.1995661605206 43.3839479392625 18.6550976138829 47.7223427331887 15.6182212581345S60.7375271149675 17.7874186550976 67.2451193058568 26.8980477223427S75.0542299349241 45.9869848156182 70.7158351409978 49.0238611713666S57.7006507592191 46.4208242950108 51.1930585683297 37.3101952277657z M145.3362255965293 37.3101952277657C138.8286334056399 28.1995661605206 137.5271149674621 18.6550976138829 141.8655097613883 15.6182212581345S154.880694143167 17.7874186550976 161.3882863340564 26.8980477223427S169.1973969631237 45.9869848156182 164.8590021691974 49.0238611713666S151.4099783080261 46.4208242950108 145.3362255965293 37.3101952277657z" />
    <glyph glyph-name="sliders"
      unicode="&#xF135;"
      horiz-adv-x="200" d=" M133.2173913043478 147.8260869565218H189.1304347826087A6.521739130434783 6.521739130434783 0 0 1 189.1304347826087 160.8695652173913H133.2173913043478A6.521739130434783 6.521739130434783 0 0 1 133.2173913043478 147.8260869565218z M189.1304347826087 106.5217391304348H93A6.521739130434783 6.521739130434783 0 0 1 93 93.4782608695652H189.1304347826087A6.521739130434783 6.521739130434783 0 0 1 189.1304347826087 106.5217391304348z M189.1304347826087 52.1739130434783H182.6086956521739A6.521739130434783 6.521739130434783 0 1 1 182.6086956521739 39.1304347826087H189.1304347826087A6.521739130434783 6.521739130434783 0 0 1 189.1304347826087 52.1739130434783z M149.6086956521739 55.304347826087C138.4347826086956 55.304347826087 129.3913043478261 50.9565217391304 129.3478260869565 45.7826086956522S138.6521739130435 36.0434782608696 149.8260869565217 36S169.695652173913 40.3478260869565 169.7391304347826 45.5217391304348S160.8695652173913 55.2608695652174 149.6086956521739 55.304347826087z M39.5652173913043 100C39.5652173913043 94.6521739130435 48.8695652173913 90.2608695652174 60.0434782608696 90.2173913043478S79.9130434782609 94.5652173913044 79.9565217391304 99.7391304347826S70.9565217391304 109.4782608695652 59.8260869565217 109.5217391304348S39.6086956521739 105.4347826086957 39.5652173913043 100z M100.2608695652174 144.6956521739131C111.4347826086956 144.6956521739131 120.1739130434783 149.0434782608696 120.1739130434783 154.2173913043478S111.2173913043478 163.9565217391304 100 164S79.7826086956522 159.6521739130435 79.7826086956522 154.4782608695652S89.0869565217391 144.7391304347826 100.2608695652174 144.6956521739131z M116.304347826087 52.1739130434783H10.8695652173913A6.521739130434783 6.521739130434783 0 0 1 10.8695652173913 39.1304347826087H116.304347826087A6.521739130434783 6.521739130434783 0 0 1 116.304347826087 52.1739130434783z M10.8695652173913 93.4782608695652H26.5217391304348A6.521739130434783 6.521739130434783 0 1 1 26.5217391304348 106.5217391304348H10.8695652173913A6.521739130434783 6.521739130434783 0 0 1 10.8695652173913 93.4782608695652z M10.8695652173913 147.8260869565218H66.9130434782609A6.521739130434783 6.521739130434783 0 0 1 66.9130434782609 160.8695652173913H10.8695652173913A6.521739130434783 6.521739130434783 0 0 1 10.8695652173913 147.8260869565218z" />
    <glyph glyph-name="star-half"
      unicode="&#xF136;"
      horiz-adv-x="200" d=" M195.3478260869565 122.0434782608696A6.565217391304349 6.565217391304349 0 0 1 190.0869565217391 126.3913043478261L131.8695652173913 134.7826086956522L105.7826086956522 187.5217391304348V187.5217391304348A9.17391304347826 9.17391304347826 0 0 1 104.8695652173913 188.8695652173913L104.6521739130435 188.8695652173913A5.956521739130435 5.956521739130435 0 0 1 103.6521739130435 189.6956521739131L103.2173913043478 189.9565217391304L102.8695652173913 189.9565217391304L102 190.304347826087L101.7391304347826 190.304347826087A6.826086956521739 6.826086956521739 0 0 1 100 191.304347826087H100A6.739130434782609 6.739130434782609 0 0 1 98.6521739130435 191.304347826087L98.304347826087 191.304347826087A7.217391304347826 7.217391304347826 0 0 1 96.8695652173913 190.6521739130435L96.6086956521739 190.6521739130435A9.217391304347828 9.217391304347828 0 0 1 95.5652173913044 189.7826086956522L95.304347826087 189.4782608695652A4.913043478260869 4.913043478260869 0 0 1 94.3913043478261 188.1304347826087L68.1304347826087 134.7826086956522L9.9130434782609 126.4782608695652A6.521739130434783 6.521739130434783 0 0 1 6.304347826087 115.3478260869565L48.4347826086956 74.304347826087L38.4782608695652 16.3478260869565A6.521739130434783 6.521739130434783 0 0 1 41.0869565217391 9.9565217391304A5.434782608695652 5.434782608695652 0 0 1 42.8260869565217 9.0869565217391L43.4347826086957 9.0869565217391A4.3478260869565215 4.3478260869565215 0 0 1 44.695652173913 8.8695652173913H44.9130434782609A6 6 0 0 1 45.7826086956522 8.8695652173913H46.3478260869565A6.086956521739128 6.086956521739128 0 0 1 47.9565217391304 9.4782608695652L100.1304347826087 36.8260869565218L152.304347826087 9.4782608695652A6.34782608695652 6.34782608695652 0 0 1 155.3478260869565 8.6956521739131A6.565217391304349 6.565217391304349 0 0 1 161.7826086956522 16.3478260869565L151.5652173913044 74.304347826087L193.695652173913 115.3478260869565A6.565217391304349 6.565217391304349 0 0 1 195.3478260869565 122.0434782608696zM140 81.2608695652174A6.652173913043479 6.652173913043479 0 0 1 138.1304347826087 75.4782608695652L146.4347826086957 27.1739130434783L102.9565217391304 49.9565217391304H102.9565217391304A5.91304347826087 5.91304347826087 0 0 1 101.7391304347826 50.4347826086957L101.3043478260869 50.4347826086957L100.3043478260869 50.4347826086957H100V170.0434782608696L121.7391304347826 126.0869565217392A6.434782608695651 6.434782608695651 0 0 1 126.6521739130435 122.5217391304348L175.1739130434783 115.4782608695652z" />
    <glyph glyph-name="star-s"
      unicode="&#xF137;"
      horiz-adv-x="200" d=" M195.3478260869565 122.0434782608696A6.565217391304349 6.565217391304349 0 0 1 190.0869565217391 126.3913043478261L131.8695652173913 134.7826086956522L105.7826086956522 187.5217391304348A6.478260869565218 6.478260869565218 0 0 1 94.1304347826087 187.5217391304348L68.1304347826087 134.7826086956522L9.9130434782609 126.4782608695652A6.521739130434783 6.521739130434783 0 0 1 6.304347826087 115.3478260869565L48.4347826086956 74.304347826087L38.4782608695652 16.3478260869565A6.521739130434783 6.521739130434783 0 0 1 41.0869565217391 9.9565217391304A6.434782608695651 6.434782608695651 0 0 1 47.9565217391304 9.4782608695652L100.1304347826087 36.8260869565218L152.304347826087 9.4782608695652A6.34782608695652 6.34782608695652 0 0 1 155.3478260869565 8.6956521739131A6.565217391304349 6.565217391304349 0 0 1 161.7826086956522 16.3478260869565L151.5652173913044 74.304347826087L193.695652173913 115.3478260869565A6.565217391304349 6.565217391304349 0 0 1 195.3478260869565 122.0434782608696z" />
    <glyph glyph-name="star"
      unicode="&#xF138;"
      horiz-adv-x="200" d=" M195.3478260869565 122.0434782608696A6.565217391304349 6.565217391304349 0 0 1 190.0869565217391 126.3913043478261L131.8695652173913 134.7826086956522L105.7826086956522 187.5217391304348A6.478260869565218 6.478260869565218 0 0 1 94.1304347826087 187.5217391304348L68.1304347826087 134.7826086956522L9.9130434782609 126.4782608695652A6.521739130434783 6.521739130434783 0 0 1 6.304347826087 115.3478260869565L48.4347826086956 74.304347826087L38.4782608695652 16.3478260869565A6.521739130434783 6.521739130434783 0 0 1 41.0869565217391 9.9565217391304A6.434782608695651 6.434782608695651 0 0 1 47.9565217391304 9.4782608695652L100.1304347826087 36.8260869565218L152.304347826087 9.4782608695652A6.34782608695652 6.34782608695652 0 0 1 155.3478260869565 8.6956521739131A6.565217391304349 6.565217391304349 0 0 1 161.7826086956522 16.3478260869565L151.5652173913044 74.304347826087L193.695652173913 115.3478260869565A6.565217391304349 6.565217391304349 0 0 1 195.3478260869565 122.0434782608696zM140 81.2608695652174A6.652173913043479 6.652173913043479 0 0 1 138.1304347826087 75.4782608695652L146.4347826086957 27.1739130434783L102.9565217391304 49.9565217391304A6.652173913043479 6.652173913043479 0 0 1 96.8695652173913 49.9565217391304L53.3913043478261 27.1739130434783L61.6956521739131 75.4782608695652A6.652173913043479 6.652173913043479 0 0 1 59.8260869565217 81.2608695652174L24.8695652173913 115.4782608695652L73.3913043478261 122.5217391304348A6.434782608695651 6.434782608695651 0 0 1 78.2608695652174 126.0869565217392L100 170.0434782608696L121.7391304347826 126.0869565217392A6.434782608695651 6.434782608695651 0 0 1 126.6521739130435 122.5217391304348L175.1739130434783 115.4782608695652z" />
    <glyph glyph-name="times-circle-r"
      unicode="&#xF139;"
      horiz-adv-x="200" d=" M100 40C133.1 40 160 66.9 160 100S133.1 160 100 160S40 133.1 40 100S66.9 40 100 40zM100 20C55.8 20 20 55.8 20 100S55.8 180 100 180S180 144.2 180 100S144.2 20 100 20zM114.1 100L128.2 85.9C132.1 82 132.1 75.7 128.2 71.8S118 67.9 114.1 71.8L100 85.9L85.9 71.8C82 67.9 75.7 67.9 71.8 71.8S67.9 82 71.8 85.9L85.9 100L71.7 114.1C67.8 118 67.8 124.3 71.7 128.2S81.9 132.1 85.8 128.2L100 114.1L114.1 128.2C118 132.1 124.3 132.1 128.2 128.2S132.1 118 128.2 114.1L114.1 100z" />
    <glyph glyph-name="times-circle-s"
      unicode="&#xF13A;"
      horiz-adv-x="200" d=" M20 100C20 55.8172200135365 55.8172200135365 20 100 20C144.1827799864635 20 180 55.8172200135365 180 100C180 144.1827799864635 144.1827799864635 180 100 180C55.8172200135365 180 20 144.1827799864635 20 100z M100 114.8L122.2 137C126.3 141.1 132.9 141.1 137 137S141.1 126.3 137 122.2L114.8 100L137 77.8C141.1 73.7 141.1 67.1 137 63S126.3 58.9 122.2 63L100 85.2L77.8 63C73.7 58.9 67.1 58.9 63 63S58.9 73.7 63 77.8L85.2 100L63.1 122.2C59 126.3 59 132.9 63.1 137S73.8 141.1 77.9 137L100 114.8z" />
    <glyph glyph-name="times-circle"
      unicode="&#xF13B;"
      horiz-adv-x="200" d=" M100 196.0869565217391C46.9565217391304 196.0869565217391 4.3478260869565 153.4782608695652 4.3478260869565 100.4347826086957S46.9565217391304 4.7826086956522 100 4.7826086956522S195.6521739130435 47.3913043478261 195.6521739130435 100.4347826086957S153.0434782608696 196.0869565217391 100 196.0869565217391zM100 17.8260869565218C54.3478260869565 17.8260869565218 17.3913043478261 54.7826086956522 17.3913043478261 100.4347826086957S54.3478260869565 183.0434782608696 100 183.0434782608696S182.6086956521739 146.0869565217391 182.6086956521739 100.4347826086957S145.6521739130435 17.8260869565218 100 17.8260869565218z M143.0434782608696 143.4782608695652C140.4347826086956 146.0869565217391 136.5217391304348 146.0869565217391 133.9130434782609 143.4782608695652L100 109.5652173913044L66.5217391304348 143.0434782608696C63.9130434782609 145.2173913043478 59.5652173913044 145.2173913043478 57.3913043478261 142.1739130434783C55.2173913043478 139.5652173913044 55.2173913043478 136.0869565217391 57.3913043478261 133.4782608695652L90.8695652173913 100L57.3913043478261 66.5217391304348C54.7826086956522 63.9130434782609 54.7826086956522 60 57.3913043478261 57.3913043478261S63.9130434782609 54.7826086956522 66.5217391304348 57.3913043478261L100 90.8695652173913L133.4782608695652 57.3913043478261C136.0869565217392 54.7826086956522 140 54.7826086956522 142.6086956521739 57.3913043478261S145.2173913043479 63.9130434782609 142.6086956521739 66.5217391304348L109.1304347826087 100.4347826086957L142.6086956521739 133.9130434782609C145.2173913043478 136.5217391304348 145.2173913043478 140.8695652173913 143.0434782608696 143.4782608695652z" />
    <glyph glyph-name="times-r"
      unicode="&#xF103;"
      horiz-adv-x="200" d=" M115.6 100L146.8 68.8C151.1 64.5 151.1 57.5 146.8 53.2C142.5 48.9 135.5 48.9 131.2 53.2L100 84.4L68.8 53.2C64.5 48.9 57.5 48.9 53.2 53.2C48.9 57.5 48.9 64.5 53.2 68.8L84.4 100L53.2 131.2C48.9 135.5 48.9 142.5 53.2 146.8S64.5 151.1 68.8 146.8L100 115.6L131.2 146.8C135.5 151.1 142.5 151.1 146.8 146.8C151.1 142.5 151.1 135.5 146.8 131.2L115.6 100z" />
    <glyph glyph-name="times"
      unicode="&#xF13C;"
      horiz-adv-x="200" d=" M109.5652173913044 100.4347826086957L143.0434782608696 133.9130434782609C145.6521739130435 136.5217391304348 145.6521739130435 140.4347826086957 143.0434782608696 143.0434782608696C140.4347826086956 145.6521739130435 136.5217391304348 145.6521739130435 133.9130434782609 143.0434782608696L133.9130434782609 143.0434782608696L100 109.5652173913044L66.5217391304348 143.0434782608696C63.9130434782609 145.6521739130435 59.5652173913044 145.2173913043478 57.3913043478261 142.6086956521739C55.2173913043478 140 55.2173913043478 136.0869565217391 57.3913043478261 133.9130434782609L90.8695652173913 100.4347826086956L57.3913043478261 66.9565217391304C54.7826086956522 64.3478260869565 54.7826086956522 60.4347826086957 57.3913043478261 57.8260869565217L57.3913043478261 57.8260869565217C60 55.2173913043478 63.9130434782609 55.2173913043478 66.5217391304348 57.8260869565217L100 91.304347826087L133.4782608695652 57.3913043478261C136.0869565217391 54.7826086956522 140 54.7826086956522 142.6086956521739 57.3913043478261S145.2173913043478 63.9130434782609 142.6086956521739 66.5217391304348L142.6086956521739 66.5217391304348L109.5652173913044 100.4347826086957z" />
    <glyph glyph-name="trash-s"
      unicode="&#xF13D;"
      horiz-adv-x="200" d=" M64 150L68.4 171.9C69.3 176.6 73.4 180 78.2 180H121.8C126.6 180 130.7 176.6 131.6 171.9L136 150H160C165.5 150 170 145.5 170 140S165.5 130 160 130H40C34.5 130 30 134.5 30 140S34.5 150 40 150H64zM115.6 150L113.6 160H86.4L84.4 150H115.6zM110 40H120V100H110V40zM80 40H90V100H80V40zM40 120H160L150.7 28.5C150.3 23.7 145.9 20 140.7 20H59.2C54 20 49.7 23.7 49.3 28.5L40 120z" />
    <glyph glyph-name="trash"
      unicode="&#xF13E;"
      horiz-adv-x="200.00000000000003" d=" M170.0650759219089 171.3665943600868H39.0455531453362C34.2733188720174 171.3665943600868 30.3687635574837 167.4620390455531 30.3687635574837 162.6898047722343V146.2039045553145C30.3687635574837 141.8655097613883 33.4056399132321 137.9609544468547 38.177874186551 137.5271149674621V22.1258134490239C38.177874186551 12.5813449023861 45.9869848156182 4.7722342733189 55.531453362256 4.7722342733189H154.0130151843818C163.5574837310196 4.7722342733189 171.3665943600868 12.5813449023861 171.3665943600868 22.1258134490239C171.3665943600868 22.1258134490239 171.3665943600868 22.1258134490239 171.3665943600868 22.1258134490239V137.9609544468547C175.704989154013 138.3947939262473 179.175704989154 142.2993492407809 179.175704989154 146.6377440347072V162.6898047722343C178.7418655097614 167.4620390455531 174.8373101952278 171.3665943600868 170.0650759219089 171.3665943600868zM165.7266811279827 158.351409978308V150.9761388286334H164.8590021691974C164.4251626898048 150.9761388286334 163.9913232104121 150.9761388286334 163.5574837310196 150.9761388286334H46.4208242950109C45.9869848156182 150.9761388286334 45.5531453362256 150.9761388286334 45.119305856833 150.9761388286334H43.3839479392625V158.351409978308H165.7266811279827zM153.5791757049892 17.7874186550976H55.531453362256C52.9284164859002 17.7874186550976 51.1930585683297 19.5227765726681 51.1930585683297 22.1258134490239V137.9609544468547H75.9219088937093V40.7809110629067C75.9219088937093 37.3101952277657 78.9587852494577 34.2733188720173 82.4295010845987 34.2733188720173C85.9002169197397 34.2733188720173 88.9370932754881 37.3101952277657 88.9370932754881 40.7809110629067V137.9609544468547H120.1735357917571V40.7809110629067C120.1735357917571 37.3101952277657 123.2104121475054 34.2733188720173 126.6811279826464 34.2733188720173S133.1887201735358 37.3101952277657 133.1887201735358 40.7809110629067V137.9609544468547H158.351409978308V22.1258134490239C157.9175704989154 19.9566160520607 156.1822125813449 17.7874186550976 153.5791757049892 17.7874186550976z M104.9891540130152 176.5726681127983C116.2689804772234 176.5726681127983 124.9457700650759 180.9110629067245 124.9457700650759 186.117136659436S115.8351409978308 195.6616052060738 104.5553145336226 195.6616052060738S84.5986984815618 191.3232104121475 84.1648590021692 186.117136659436S93.709327548807 176.5726681127983 104.9891540130152 176.5726681127983z" />
    <glyph glyph-name="upload"
      unicode="&#xF13F;"
      horiz-adv-x="200" d=" M60.8695652173913 122.1739130434783L93.0434782608696 154.7826086956522V81.304347826087C93.0434782608696 77.8260869565218 96.0869565217391 74.7826086956522 99.5652173913043 74.7826086956522S106.0869565217391 77.8260869565218 106.0869565217391 81.304347826087V154.3478260869565L138.695652173913 121.7391304347826C140 120.4347826086957 141.7391304347826 120 143.4782608695652 120C146.9565217391304 120 150 123.0434782608696 150 126.5217391304348C150 128.2608695652174 149.1304347826087 129.5652173913044 148.2608695652174 130.8695652173913L104.7826086956522 174.3478260869565C102.1739130434783 176.9565217391304 98.2608695652174 176.9565217391304 95.6521739130435 174.3478260869565C95.6521739130435 174.3478260869565 95.6521739130435 174.3478260869565 95.6521739130435 174.3478260869565L52.1739130434783 130.8695652173913C49.5652173913043 128.2608695652174 50 123.9130434782609 52.6086956521739 121.7391304347826C54.3478260869565 119.5652173913044 58.2608695652174 119.5652173913044 60.8695652173913 122.1739130434783L60.8695652173913 122.1739130434783z M79.5652173913044 57.3913043478261C79.5652173913044 52.1739130434783 88.6956521739131 47.8260869565218 99.5652173913043 47.8260869565218C110.8695652173913 47.8260869565218 119.5652173913044 52.1739130434783 119.5652173913044 57.3913043478261S110.8695652173913 66.9565217391304 99.5652173913043 66.9565217391304S79.5652173913044 62.6086956521739 79.5652173913044 57.3913043478261z M171.304347826087 55.2173913043478C167.8260869565218 55.2173913043478 164.7826086956522 52.1739130434783 164.7826086956522 48.6956521739131V33.9130434782609H34.3478260869565V48.6956521739131C34.3478260869565 52.1739130434783 31.3043478260869 55.2173913043478 27.8260869565217 55.2173913043478S21.304347826087 52.1739130434783 21.304347826087 48.6956521739131V27.3913043478261C21.304347826087 23.9130434782609 24.3478260869565 20.8695652173913 27.8260869565217 20.8695652173913H171.304347826087C174.7826086956522 20.8695652173913 177.8260869565217 23.9130434782609 177.8260869565217 27.3913043478261V48.6956521739131C177.8260869565217 52.1739130434783 174.7826086956522 55.2173913043478 171.304347826087 55.2173913043478z" />
    <glyph glyph-name="user"
      unicode="&#xF140;"
      horiz-adv-x="200" d=" M187.8787878787879 36.7965367965368C174.8917748917749 71.4285714285714 158.008658008658 96.969696969697 137.6623376623377 111.6883116883117C156.2770562770563 132.4675324675325 154.5454545454545 164.5021645021645 133.3333333333333 183.1168831168831S80.952380952381 200 62.3376623376623 178.7878787878788C45.021645021645 159.7402597402598 45.021645021645 130.7359307359307 62.3376623376623 111.2554112554113C42.4242424242424 96.5367965367966 25.5411255411255 70.995670995671 12.1212121212121 36.3636363636364C11.2554112554113 34.6320346320346 11.6883116883117 32.4675324675325 12.5541125541126 30.7359307359308C13.8528138528139 28.1385281385282 28.5714285714286 4.7619047619048 100 4.7619047619048S186.1471861471862 28.1385281385282 187.4458874458874 30.7359307359308C188.3116883116883 32.9004329004329 188.7445887445888 34.6320346320346 187.8787878787879 36.7965367965368zM100 182.6839826839827C120.7792207792208 182.6839826839827 137.6623376623377 165.8008658008658 137.6623376623377 145.0216450216451C137.6623376623377 124.2424242424243 120.7792207792208 107.3593073593074 100 107.3593073593074S62.3376623376624 124.2424242424243 62.3376623376624 145.0216450216451C62.3376623376624 145.0216450216451 62.3376623376624 145.0216450216451 62.3376623376624 145.0216450216451C62.3376623376623 165.8008658008658 79.2207792207792 182.6839826839827 100 182.6839826839827zM100 18.1818181818182C48.4848484848485 18.1818181818182 30.7359307359307 30.7359307359307 25.5411255411256 35.4978354978355C38.0952380952381 67.0995670995671 54.5454545454546 90.4761904761905 72.2943722943723 102.5974025974026C89.1774891774892 91.3419913419913 110.8225108225108 91.3419913419913 127.7056277056277 102.5974025974026C145.8874458874459 90.4761904761905 162.3376623376623 67.0995670995671 174.4588744588745 35.4978354978355C169.2640692640693 30.7359307359307 151.5151515151515 18.1818181818182 100 18.1818181818182L100 18.1818181818182z M100 70.5627705627706C88.7445887445887 70.5627705627706 80.0865800865801 66.2337662337662 79.6536796536797 61.0389610389611S88.7445887445888 51.5151515151515 100 51.5151515151515S119.9134199134199 55.8441558441558 119.9134199134199 61.0389610389611C119.9134199134199 65.8008658008658 111.2554112554113 70.5627705627706 100 70.5627705627706z" />
  </font>
</defs>
</svg>
