<?xml version="1.0" encoding="UTF-8"?>
<svg width="196px" height="33px" viewBox="0 0 196 33" version="1.1" xmlns="http://www.w3.org/2000/svg" xmlns:xlink="http://www.w3.org/1999/xlink">
    <!-- Generator: Sketch 56.2 (81672) - https://sketch.com -->
    <title>Group 17</title>
    <desc>Created with Sketch.</desc>
    <defs>
        <polygon id="path-1" points="0.533241176 0.221136364 21.6655353 0.221136364 21.6655353 28 0.533241176 28"></polygon>
        <polygon id="path-3" points="0 33 196 33 196 0 0 0"></polygon>
    </defs>
    <g id="Retakes-Round-2" stroke="none" stroke-width="1" fill="none" fill-rule="evenodd">
        <g id="200108-HUB-NPM_ER-V2" transform="translate(-427.000000, -982.000000)">
            <g id="BONS-PLANS" transform="translate(0.000000, 498.000000)">
                <g id="Group-3" transform="translate(159.000000, 156.000000)">
                    <g id="Group-9" transform="translate(1.000000, 190.000000)">
                        <g id="DATAS/PRODUIT-M" transform="translate(46.000000, 69.000000)">
                            <g id="Group-17" transform="translate(221.000000, 69.000000)">
                                <path d="M38.6214458,21.7258891 C35.1962952,21.7258891 32.558012,18.9664676 32.558012,15.4474729 C32.558012,11.9666798 35.1962952,9.24100294 38.6214458,9.24100294 C42.0453313,9.24100294 44.6153012,12.0348058 44.6153012,15.4474729 C44.6153012,18.9314495 42.0453313,21.7258891 38.6214458,21.7258891 L38.6214458,21.7258891 Z M44.3762048,7.82691083 C42.9359337,6.06964194 40.5753313,5 37.9357831,5 C32.8641566,5 28,8.82906346 28,15.5181457 C28,22.1028105 33.0381024,26 37.8687349,26 C40.504488,26 42.9043072,24.8284874 44.3762048,22.9311463 L44.3762048,25.5867871 L49,25.5867871 L49,5.41448625 L44.3762048,5.41448625 L44.3762048,7.82691083 Z" id="Fill-1" fill="#231F20"></path>
                                <path d="M69.6182974,21.7258891 C66.1933667,21.7258891 63.5560308,18.9664676 63.5560308,15.4474729 C63.5560308,11.9666798 66.1933667,9.24100294 69.6182974,9.24100294 C73.0451259,9.24100294 75.6147729,12.0348058 75.6147729,15.4474729 C75.6147729,18.9314495 73.0451259,21.7258891 69.6182974,21.7258891 L69.6182974,21.7258891 Z M75.3762803,7.82691083 C73.9345704,6.06964194 71.5717858,5 68.9350825,5 C63.8641101,5 59,8.82906346 59,15.5181457 C59,22.1028105 64.0355465,26 68.8667611,26 C71.5040969,26 73.9035727,24.8284874 75.3762803,22.9311463 L75.3762803,25.5867871 L80,25.5867871 L80,5.41448625 L75.3762803,5.41448625 L75.3762803,7.82691083 Z" id="Fill-3" fill="#231F20"></path>
                                <g id="Group-7" transform="translate(102.000000, 5.000000)">
                                    <mask id="mask-2" fill="white">
                                        <use xlink:href="#path-1"></use>
                                    </mask>
                                    <g id="Clip-6"></g>
                                    <polygon id="Fill-5" fill="#231F20" mask="url(#mask-2)" points="11.2931824 13.8011364 5.58224118 0.221136364 0.533241176 0.221136364 8.94759412 19.3145909 5.26453529 28.0003182 10.1381824 28.0003182 21.6655353 0.221136364 16.6896529 0.221136364"></polygon>
                                </g>
                                <polygon id="Fill-8" fill="#231F20" points="101.517241 5 96.0295049 5 91.4990497 11.324959 86.9343832 5 81.2736899 5 88.549914 14.8125237 81 25 86.6606933 25 91.4306272 18.3322813 96.3386732 25 102 25 94.3119739 14.8447166"></polygon>
                                <mask id="mask-4" fill="white">
                                    <use xlink:href="#path-3"></use>
                                </mask>
                                <g id="Clip-11"></g>
                                <polygon id="Fill-10" fill="#231F20" mask="url(#mask-4)" points="52 25 57 25 57 0 52 0"></polygon>
                                <path d="M12.1277316,15.9463252 L20.0422761,15.9463252 C19.1591188,19.2757848 16.5780164,21.4228733 12.8741501,21.4228733 C8.05191058,21.4228733 4.58702361,17.6805121 4.58702361,13.0003201 C4.58702361,8.38798473 8.08452718,4.57584636 12.7054219,4.57584636 C15.9658278,4.57584636 18.3437037,6.10006155 19.8722934,8.97821002 L23.9481145,6.48287578 C21.8412073,2.66817678 17.7986301,0 12.6702963,0 C5.3340693,0 0,5.78766466 0,13.0003201 C0,20.0023637 5.13021552,26 12.8741501,26 C20.2787465,26 25,20.1425582 25,13.3107965 L25,11.4402561 L12.1277316,11.4402561 L12.1277316,15.9463252 Z" id="Fill-12" fill="#231F20" mask="url(#mask-4)"></path>
                                <path d="M141.534198,10.6426197 C138.739177,9.74127785 136.26299,9.08191555 136.26299,7.07182076 C136.26299,5.44261972 137.536364,4.1949526 139.871428,4.1949526 C141.923593,4.1949526 143.445239,5.0265173 144.54221,6.62178998 L148.504109,3.67450449 C146.417317,1.56006402 144.011038,0 139.835494,0 C134.882466,0 131.274028,3.18926505 131.274028,7.24530346 C131.274028,12.0644097 135.130085,13.381854 138.5974,14.4560384 C141.35714,15.2888834 143.975104,15.9463252 143.975104,18.0959744 C143.975104,19.8634495 142.595887,21.4939308 140.048485,21.4939308 C137.712768,21.4939308 135.695884,20.2449834 134.387882,18.062046 L130,21.4587221 C132.335064,24.0584021 135.413638,26 140.083113,26 C145.744369,26 149,22.1180845 149,18.1305429 C149,13.2768682 145.036794,11.7513726 141.534198,10.6426197" id="Fill-13" fill="#231F20" mask="url(#mask-4)"></path>
                                <polygon id="Fill-14" fill="#231F20" mask="url(#mask-4)" points="150 4.35016315 153.16389 4.35016315 153.16389 25 158 25 158 0 150 0"></polygon>
                                <path d="M174.338608,17.5755263 C174.338608,19.6560384 172.967722,21.3204481 170.465823,21.3204481 C167.963924,21.3204481 166.660759,19.7258156 166.660759,17.5415979 L166.660759,8.59731626 C166.660759,6.37917026 168.032278,4.64498338 170.534177,4.64498338 C172.967722,4.64498338 174.338608,6.2050474 174.338608,8.59731626 L174.338608,17.5755263 Z M170.5,0 C165.462025,0 162,3.67450449 162,8.45840207 L162,17.749009 C162,22.6033239 165.016456,26 170.5,26 C175.846835,26 179,22.7070294 179,17.749009 L179,8.42447372 C179,3.77821002 175.675316,0 170.5,0 L170.5,0 Z" id="Fill-15" fill="#231F20" mask="url(#mask-4)"></path>
                                <path d="M185.147148,17.4946784 C185.702225,15.8620031 187.160425,14.7361958 189.034612,14.7361958 C190.978665,14.7361958 192.366999,15.7015373 192.829777,17.4946784 L185.147148,17.4946784 Z M196,18.9197671 C196,14.9425089 193.061167,12 189.034612,12 C185.077923,12 182,15.1029746 182,19.0343855 C182,22.9199491 184.892684,26 189.150627,26 C192.158685,26 194.287977,24.5290639 195.467997,22.3685072 L192.899643,20.8975712 C192.251625,22.3226599 190.885725,23.264441 189.150627,23.264441 C186.929036,23.264441 185.401612,21.9768944 184.984983,20.0926954 L196,20.0926954 L196,18.9197671 Z" id="Fill-16" fill="#231F20" mask="url(#mask-4)"></path>
                            </g>
                        </g>
                    </g>
                </g>
            </g>
        </g>
    </g>
</svg>