<?xml version="1.0" encoding="UTF-8"?>
<svg width="266px" height="53px" viewBox="0 0 266 53" version="1.1" xmlns="http://www.w3.org/2000/svg" xmlns:xlink="http://www.w3.org/1999/xlink">
    <!-- Generator: Sketch 61.2 (89653) - https://sketch.com -->
    <title>Group 25</title>
    <desc>Created with Sketch.</desc>
    <defs>
        <polygon id="path-1" points="0.0794638706 0.100076923 36.7501576 0.100076923 36.7501576 40 0.0794638706 40"></polygon>
        <polygon id="path-3" points="0.247406452 0.087004878 23.9646088 0.087004878 23.9646088 51.880882 0.247406452 51.880882"></polygon>
        <polygon id="path-5" points="0.233220927 0.088272549 40.9203467 0.088272549 40.9203467 52 0.233220927 52"></polygon>
        <polygon id="path-7" points="0.114403333 0.100153846 37.8329007 0.100153846 37.8329007 39.9998974 0.114403333 39.9998974"></polygon>
    </defs>
    <g id="Retakes-Round-2" stroke="none" stroke-width="1" fill="none" fill-rule="evenodd">
        <g id="200108-HUB-NPM_ER-V2" transform="translate(-872.000000, -1468.000000)">
            <g id="BONS-PLANS" transform="translate(0.000000, 498.000000)">
                <g id="Group-3" transform="translate(159.000000, 156.000000)">
                    <g id="COMPONENT/BOX-M" transform="translate(571.000000, 680.000000)">
                        <g id="Group-25" transform="translate(141.616667, 134.000000)">
                            <path d="M48.8698692,42.7332754 L59.8549963,2 L69.3833333,2 L58.9014838,40.8667426 C58.4160547,42.6665867 59.0364789,43.599978 60.7811075,43.599978 L62.9955792,43.599978 L60.7300759,52 L55.8317921,52 C50.0611941,52 47.1619431,49.0664489 48.8698692,42.7332754" id="Fill-1" fill="#25465F"></path>
                            <g id="Group-5" transform="translate(65.383333, 13.000000)">
                                <mask id="mask-2" fill="white">
                                    <use xlink:href="#path-1"></use>
                                </mask>
                                <g id="Clip-4"></g>
                                <path d="M15.0142683,32.1980256 C16.9214269,32.1980256 18.6655303,31.7872564 20.3415028,31.3767436 C21.7949648,31.0344359 22.4492269,30.6239231 22.9419648,28.7759744 L24.8034476,21.7954615 L17.3003579,23.3693077 C13.4714959,24.1905897 11.4267993,25.217 10.6605166,28.0916154 C9.89397862,30.9659744 11.6087372,32.1980256 15.0142683,32.1980256 M24.1831234,38.4259744 C20.9306959,39.3841795 16.8160407,40.0000769 12.6613234,40.0000769 C3.80684069,40.0000769 -1.60153862,36.7834103 0.552116552,28.7077692 C2.3952269,21.7954615 8.04397862,18.2364872 18.0587303,16.1831538 L26.5702614,14.4039231 L26.9351579,13.0352051 C27.7927924,9.81853846 26.0379717,7.97058974 22.4280476,7.97058974 C18.4777234,7.97058974 15.9964269,9.61315385 14.7215855,12.3505897 L5.80050276,11.3241795 C9.11519241,4.00135897 16.0811441,0.100076923 24.7312338,0.100076923 C33.4491993,0.100076923 38.5291717,4.54853846 36.174951,13.3772564 L30.9007924,33.1562308 C30.09802,36.1672564 28.3937234,37.1939231 24.1831234,38.4259744" id="Fill-3" fill="#25465F" mask="url(#mask-2)"></path>
                            </g>
                            <path d="M121.149088,14.8666627 L125.597695,14.8666627 L125.982814,13.4667006 C127.926355,6.40020181 133.790569,2 141.181924,2 L146.383333,2 L144.091083,10.3335831 L139.779395,10.3335831 C137.657909,10.3335831 136.269225,11.4001019 135.701034,13.4667006 L135.315916,14.8666627 L142.98111,14.8666627 L140.688859,23.199996 L133.023665,23.199996 L125.10181,52 L115.383333,52 L123.305188,23.199996 L118.856837,23.199996 L121.149088,14.8666627 Z" id="Fill-6" fill="#25465F"></path>
                            <path d="M41.9492444,42 L44.3833333,33.020828 C44.2460823,33.008636 18.0249828,33 18.0249828,33 C15.5087999,33 13.469019,35.019558 13.469019,37.510795 L13.3833333,41.9654559 L41.9492444,42 Z" id="Fill-8" fill="#25465F"></path>
                            <path d="M45.9737973,26.9160101 L48.3833333,18.0329422 C48.2103892,18.0130763 4.89308684,18 4.89308684,18 C2.40228481,18 0.383333333,19.9994132 0.383333333,22.465549 L0.403649826,27 L45.9737973,26.9160101 Z" id="Fill-10" fill="#25465F"></path>
                            <path d="M18.3833333,5.50050687 L18.3993028,10 L50.0193459,9.97617707 L52.3833333,1.01799392 C52.2639426,1.00861681 22.8846939,1 22.8846939,1 C20.3987809,1 18.3833333,3.01481189 18.3833333,5.50050687" id="Fill-12" fill="#25465F"></path>
                            <g id="Group-16" transform="translate(140.383333, 0.000000)">
                                <mask id="mask-4" fill="white">
                                    <use xlink:href="#path-3"></use>
                                </mask>
                                <g id="Clip-15"></g>
                                <path d="M11.6084387,5.90958439 C12.5312774,2.52451122 15.7441806,0.0868526829 19.2572129,0.0868526829 C22.7702452,0.0868526829 24.6543742,2.52451122 23.7315355,5.90958439 C22.8456,9.15945756 19.5957935,11.7323161 16.0827613,11.7323161 C12.569729,11.7323161 10.7222452,9.15945756 11.6084387,5.90958439 L11.6084387,5.90958439 Z M20.2401806,14.1694673 L9.95992258,51.880882 L0.247406452,51.880882 L10.5276645,14.1694673 L20.2401806,14.1694673 Z" id="Fill-14" fill="#25465F" mask="url(#mask-4)"></path>
                            </g>
                            <g id="Group-19" transform="translate(159.383333, 1.000000)">
                                <mask id="mask-6" fill="white">
                                    <use xlink:href="#path-5"></use>
                                </mask>
                                <g id="Clip-18"></g>
                                <path d="M24.2457497,21.1115667 C19.8406994,21.1115667 15.849517,23.9009588 14.448039,29.0719 L11.2943912,40.7061353 C10.9625233,41.9306843 11.1824792,42.1348608 12.3797308,42.5429588 C13.4070516,42.8151941 14.9482906,43.2232922 17.0820956,43.2232922 C23.7583912,43.2232922 27.8344101,38.5968216 29.586322,32.1335275 C31.4674226,25.1938216 29.7518692,21.1115667 24.2457497,21.1115667 M14.7030642,52.0000765 C11.1239447,52.0000765 5.9213283,51.387802 2.68413333,49.6187824 C0.859246541,48.7342725 -0.346772327,47.8497627 0.520158491,44.6520176 L12.5994289,0.088272549 L22.3043094,0.088272549 L17.6016868,17.4374098 C20.689322,14.1718608 24.5598252,12.3347824 29.1714226,12.3347824 C38.6006491,12.3347824 43.1712465,19.342802 39.8329698,31.6571157 C36.1999572,45.0603706 26.4037937,52.0000765 14.7030642,52.0000765" id="Fill-17" fill="#25465F" mask="url(#mask-6)"></path>
                            </g>
                            <path d="M228.906837,22.6125655 C225.549588,22.2007124 221.725354,22.2693974 219.441355,22.6812506 C218.231371,22.8873058 217.560175,23.3678441 217.25055,24.535233 L209.966452,52 L200.383333,52 L208.77862,20.34673 C209.670831,16.9824478 211.575182,15.9521718 213.968416,15.1284654 C217.595059,13.7550213 222.144978,13 226.22282,13 C228.261868,13 229.992564,13.1373701 231.383333,13.274483 L228.906837,22.6125655 Z" id="Fill-20" fill="#25465F"></path>
                            <g id="Group-24" transform="translate(228.383333, 13.000000)">
                                <mask id="mask-8" fill="white">
                                    <use xlink:href="#path-7"></use>
                                </mask>
                                <g id="Clip-23"></g>
                                <path d="M11.9327046,15.7042564 L28.4569166,15.7042564 C29.0943603,10.9819487 27.3108768,8.31297436 22.2729828,8.31297436 C17.7051815,8.31297436 14.2230225,10.5711795 11.9327046,15.7042564 M25.352996,26.9968205 L34.1692477,27.9547692 C30.6443073,35.4829744 23.4781616,39.9998974 14.2756185,39.9998974 C2.58797616,39.9998974 -2.16756026,32.5401538 1.14397616,19.9473333 C4.29394967,7.97066667 13.0807576,0.100153846 24.3654993,0.100153846 C35.9190093,0.100153846 39.6392344,8.17605128 37.0474331,18.0311795 C36.129645,21.5214359 35.5191285,22.8216923 33.302294,22.8216923 L9.85956556,22.8216923 C8.97373775,29.2550256 11.6171285,31.7188718 16.4534464,31.7188718 C21.1556318,31.7188718 24.0597377,29.8709231 25.352996,26.9968205" id="Fill-22" fill="#25465F" mask="url(#mask-8)"></path>
                            </g>
                        </g>
                    </g>
                </g>
            </g>
        </g>
    </g>
</svg>