<svg id="Calque_1" xmlns="http://www.w3.org/2000/svg" viewBox="0 0 162 60"><style>.st0{fill:#fff}</style><path class="st0" d="M132.9 51.4c3.7 2.6 11-1.6 16.3-9.4 5.3-7.8 6.6-16.2 2.9-18.8-3.7-2.6-10.8 1.4-16.1 9.2-5.3 7.8-6.8 16.5-3.1 19zM123.1 51.4c-3.7 2.6-11-1.6-16.3-9.4-5.3-7.8-6.6-16.2-2.9-18.8 3.7-2.6 10.8 1.4 16.1 9.2 5.3 7.8 6.8 16.5 3.1 19z"/><ellipse class="st0" cx="128" cy="16.4" rx="17" ry="8.2"/><path class="st0" d="M28.6 34.3c-1.1 0-2.7-.3-3.8-1.6-1.1-1.3-1.2-3.2-1.2-4.7 0-1.6.1-3.2 1.2-4.5 1.1-1.3 2.7-1.6 3.8-1.6 1.1 0 2.7.3 3.8 1.6 1.1 1.3 1.2 3 1.2 4.5 0 1.7-.1 3.4-1.2 4.7-1.1 1.3-2.7 1.6-3.8 1.6zm0-10.4c-1.1 0-1.9.4-2.4 1-.6.8-.7 1.9-.7 3.2 0 1.3.1 2.6.7 3.4.5.7 1.4 1 2.4 1s1.9-.4 2.4-1c.6-.8.7-2.1.7-3.4 0-1.3-.1-2.4-.7-3.2-.5-.7-1.3-1-2.4-1zm11.5 10.4h-.4c-1.1 0-2.7-.4-3.6-1.5-1.1-1.3-1.2-3.1-1.2-4.8v-4.7c0-.5.4-.9.9-.9s.9.4.9.9V28c0 1.2 0 2.6.6 3.4.5.7 1.4 1.1 2.3 1.1 1.1 0 1.9-.1 2.3-.2.1 0 .2-.2.2-.3v-8.7c0-.5.4-.9.9-.9s.9.4.9.9v9.5c0 .4-.3 1-.7 1.1-.9.4-2.1.4-3.1.4zm32.3 0H72c-1.1 0-2.7-.4-3.6-1.5-1.1-1.3-1.2-3.1-1.2-4.8v-4.7c0-.5.4-.9.9-.9s.9.4.9.9V28c0 1.2 0 2.6.6 3.4.5.7 1.4 1.1 2.3 1.1 1.1 0 1.9-.1 2.3-.2.1 0 .2-.2.2-.3v-8.7c0-.5.4-.9.9-.9s.9.4.9.9v9.5c0 .4-.3 1-.7 1.1-.9.4-2.2.4-3.1.4zm-11 5.1c-.6 0-1.3-.1-1.9-.3-1-.3-1.5-.5-1.9-.7h-.1c-.2-.1-.3-.3-.4-.6-.1-.2 0-.5.1-.7.2-.3.6-.4.8-.4.1 0 .2 0 .3.1.9.4 1.4.6 1.6.7.5.1 1 .2 1.5.2.7 0 1.3-.2 1.7-.7.4-.5.6-1.1.6-2v-1.5c-.4.4-1.7.9-2.8.9-1.1 0-2.7-.3-3.8-1.6-1-1.2-1.2-2.6-1.2-4.4 0-1.7.1-3.5 1.2-4.7 1.1-1.3 2.9-1.5 3.8-1.5.7 0 2.5.1 4.1.8.4.2.6.5.6.9v11.2c0 .6-.1 1.2-.3 1.8-.2.6-.4 1-.8 1.4-.3.4-.8.7-1.3 1-.5 0-1.1.1-1.8.1zm-.5-15.5c-.7 0-1.8.2-2.4 1-.6.7-.7 2.1-.7 3.5 0 1.3.1 2.4.7 3.1.5.7 1.4 1 2.4 1s1.8-.3 2.2-.7c.4-.4.6-.8.6-1.4v-5.8c0-.1-.1-.3-.2-.3-.8-.3-1.8-.4-2.6-.4zm31.7 10.4c-.5 0-2.2-.1-3.4-.9l-.3-.3c-.1-.2-.2-.4-.2-.6 0-.5.4-.9.9-.9.1 0 .3 0 .4.1l.1.1c1 .5 2 .6 2.3.6.3 0 1.3-.1 2-.6.4-.3.6-.8.6-1.3 0-.3-.2-1.4-2.3-1.8-1.2-.3-2.2-.7-2.9-1.3-.6-.6-1-1.4-1-2.3 0-1 .4-1.7 1.1-2.3.7-.5 1.7-.8 2.9-.8 1.3 0 2.4.3 3.1.8.3.2.5.6.5.9 0 .5-.4.9-.8.9h-.2c-.1 0-.3-.1-.4-.2-.5-.2-1.6-.5-2.1-.5-.3 0-.6 0-.8.1-.2 0-.4.1-.6.2-.2.1-.3.2-.4.4-.1.2-.2.3-.2.6 0 .8.8 1.4 2.3 1.7 1.8.4 3.9 1.3 3.9 3.7 0 .5-.1 1.2-.4 1.6-.2.4-.5.8-.9 1.1-.4.3-.8.5-1.3.7-.7.2-1.3.3-1.9.3zm-75.7 0c-.7 0-2.4-.1-4-.7-.4-.2-.7-.6-.7-1V17.5c0-.5.4-1 .9-1s.9.4.9 1V23c.2-.2.6-.4 1.1-.6.6-.2 1.2-.3 1.7-.3 1.1 0 2.7.3 3.8 1.5 1.1 1.2 1.2 2.9 1.2 4.6 0 1.7-.1 3.4-1.2 4.6-1 1.3-2.5 1.5-3.7 1.5zm-2.4-2.2c.7.3 1.7.4 2.4.4s1.8-.2 2.4-1c.6-.8.7-2.1.7-3.3 0-1.3-.1-2.5-.7-3.3-.5-.7-1.3-1-2.4-1-.9 0-1.8.3-2.2.6-.4.4-.6.8-.6 1.4v5.9c0 .1.1.3.2.3h.2zm34.6 7.2c-.1 0-.2 0-.3-.1-.2-.1-.4-.3-.5-.5s-.1-.5 0-.7l1.8-4.8c-.7-.3-1.2-.8-1.6-1.7l-2.9-7.9c-.2-.5.1-1 .5-1.2.1 0 .2-.1.3-.1.4 0 .7.2.9.6.8 2.3 2.8 7.8 3 8.1 0 .1.1.2.3.2.1 0 .2-.1.3-.2l3.1-8.2c.1-.4.5-.6.9-.6.1 0 .2 0 .3.1.5.2.7.7.5 1.2L50 38.7c-.2.3-.5.6-.9.6zm33.9-5c-1.1 0-2.7-.3-3.8-1.5-1-1.2-1.2-3-1.2-4.6 0-.8 0-1.6.2-2.5.2-.7.4-1.4 1-2.1 1.1-1.3 2.8-1.5 3.8-1.5.9 0 2.7.2 3.8 1.5 0 0 1.2 1.3 1.2 3.9 0 .5-.4 1-1 1h-7c0 1.1.1 2.3.6 3 .5.7 1.3 1 2.4 1 1.5 0 2.2-.2 3-.6l.1-.1.2-.1c.1 0 .2-.1.3-.1.5 0 .9.4.9.9 0 .1 0 .2-.1.3-.1.2-.2.4-.4.6-1.1.8-2.7.9-4 .9zm-3-7.5h6.1c0-.2 0-1.5-1.1-2.4-.7-.6-1.6-.6-2-.6h-.1c-.5 0-1.2.1-1.9.5-.9.9-1 2.1-1 2.5zM68.7 39.6h-.3c-.1 0-.2-.1-.2-.2v-2.8h-.9c-.1 0-.2-.1-.2-.2v-.3c0-.1.1-.2.2-.2h2.4c.1 0 .2.1.2.2v.3c0 .1-.1.2-.2.2h-.9v2.8c.1.1 0 .2-.1.2m9.4 0H76c-.1 0-.2-.1-.2-.2v-3.2c0-.1.1-.2.2-.2h.3c.1 0 .2.1.2.2V39h1.7c.1 0 .2.1.2.2v.3c-.1 0-.2.1-.3.1m4.2 0h-2.2c-.1 0-.2-.1-.2-.2v-3.2c0-.1.1-.2.2-.2h2.2c.1 0 .2.1.2.2v.3c0 .1-.1.2-.2.2h-1.7v.8H82c.1 0 .2.1.2.2v.2c0 .1-.1.2-.2.2h-1.4v.9h1.7c.1 0 .2.1.2.2v.3s-.1.1-.2.1m-8.3 0h-2.2c-.1 0-.2-.1-.2-.2v-3.2c0-.1.1-.2.2-.2H74c.1 0 .2.1.2.2v.3c0 .1-.1.2-.2.2h-1.7v.8h1.4c.1 0 .2.1.2.2v.2c0 .1-.1.2-.2.2h-1.4v.9H74c.1 0 .2.1.2.2v.3s-.1.1-.2.1m22.4 0h-.3c-.1 0-.2-.1-.2-.2v-1.6l-.7 1.7c0 .1-.1.1-.2.1h-.3c-.1 0-.1 0-.2-.1l-.7-1.7v1.6c0 .1-.1.2-.2.2h-.3c-.1 0-.2-.1-.2-.2v-3.2c0-.1.1-.2.2-.2h.3c.1 0 .1 0 .2.1l1.1 2.5 1-2.5c0-.1.1-.1.2-.1h.3c.1 0 .2.1.2.2v3.2c0 .1-.1.2-.2.2m-6.3 0c-.4 0-.8-.1-1.1-.4-.4-.4-.5-.7-.5-1.5s.1-1.1.5-1.5c.3-.2.6-.4 1.1-.4.4 0 .8.1 1.1.4.4.4.5.7.5 1.5s-.1 1.1-.5 1.5c-.4.3-.7.4-1.1.4m0-3.1c-.2 0-.4.1-.5.2-.2.2-.3.4-.3 1.1 0 .7.1.9.3 1.1.1.1.3.2.5.2s.4-.1.5-.2c.2-.2.3-.4.3-1.1 0-.7-.1-.9-.3-1.1-.1-.1-.3-.2-.5-.2m-4.5 3.1c-.4 0-.8-.1-1.1-.4-.4-.4-.5-.7-.5-1.5 0-.7.1-1.1.5-1.5.3-.2.6-.4 1.1-.4s.8.1 1.1.4c.2.2.3.3.4.5v.2l-.1.1h-.3c-.1 0-.2 0-.2-.1s-.1-.2-.2-.3c-.1-.1-.3-.2-.5-.2s-.4.1-.5.2c-.2.2-.3.4-.3 1.1 0 .7.1.9.3 1.1.1.1.3.2.5.2s.4-.1.5-.2c.1-.1.2-.2.2-.3 0-.1.1-.1.2-.1h.3c.1 0 .1 0 .1.1v.2c-.1.2-.2.4-.4.5-.3.3-.7.4-1.1.4"/></svg>