<?xml version="1.0" encoding="UTF-8"?>
<svg width="80px" height="80px" viewBox="0 0 80 80" version="1.1" xmlns="http://www.w3.org/2000/svg" xmlns:xlink="http://www.w3.org/1999/xlink">
    <!-- Generator: Sketch 57.1 (83088) - https://sketch.com -->
    <title>ecm_iconapp_80</title>
    <desc>Created with Sketch.</desc>
    <g id="ecm_iconapp_80" stroke="none" stroke-width="1" fill="none" fill-rule="evenodd">
        <rect fill="#FFFFFF" x="0" y="0" width="80" height="80"></rect>
        <g id="Logo">
            <g id="Group-2">
                <rect id="Rectangle" fill="#FFFFFF" x="0" y="0" width="80" height="80"></rect>
                <g id="Group" transform="translate(49.256469, 67.927763)" fill="#059BCD">
                    <path d="M0.998312354,2.24951407 L0.833664512,2.24951407 C0.773629163,2.24951407 0.725097594,2.20435993 0.725097594,2.14754096 L0.725097594,0.407601226 L0.189452867,0.407601226 C0.129058025,0.407601226 0.0801669625,0.362070796 0.0801669625,0.306004399 L0.0801669625,0.143073191 C0.0801669625,0.0877593625 0.129058025,0.0426052171 0.189452867,0.0426052171 L1.64539994,0.0426052171 C1.70543529,0.0426052171 1.75432636,0.087383078 1.75432636,0.143073191 L1.75432636,0.306004399 C1.75432636,0.361694511 1.70543529,0.407601226 1.64539994,0.407601226 L1.10687927,0.407601226 L1.10687927,2.14754096 C1.10687927,2.20435993 1.05798821,2.24951407 0.998312354,2.24951407 L0.998312354,2.24951407 Z" id="Shape"></path>
                    <path d="M8.2960224,2.24951407 L6.98315358,2.24951407 C6.92275873,2.24951407 6.87458666,2.20435993 6.87458666,2.14754096 L6.87458666,0.143449475 C6.87458666,0.0881356471 6.92275873,0.0429815016 6.98315358,0.0429815016 L7.14708243,0.0429815016 C7.20819626,0.0429815016 7.25708732,0.0877593625 7.25708732,0.143449475 L7.25708732,1.88451807 L8.29638189,1.88451807 C8.35641724,1.88451807 8.40602729,1.92967221 8.40602729,1.98611489 L8.40602729,2.14791725 C8.40566779,2.20435993 8.35605775,2.24951407 8.2960224,2.24951407 L8.2960224,2.24951407 Z" id="Shape"></path>
                    <path d="M11.4218149,2.24951407 L10.1093056,2.24951407 C10.0492703,2.24951407 10.0003792,2.20435993 10.0003792,2.14754096 L10.0003792,0.143449475 C10.0003792,0.0881356471 10.0492703,0.0429815016 10.1093056,0.0429815016 L11.4218149,0.0429815016 C11.4822098,0.0429815016 11.5311009,0.0877593625 11.5311009,0.143449475 L11.5311009,0.306380683 C11.5311009,0.362070796 11.4822098,0.407977511 11.4218149,0.407977511 L10.3821609,0.407977511 L10.3821609,0.958858085 L11.2514152,0.958858085 C11.3118101,0.958858085 11.3599821,1.00401223 11.3599821,1.05857349 L11.3599821,1.21397901 C11.3599821,1.26891655 11.3118101,1.3140707 11.2514152,1.3140707 L10.3821609,1.3140707 L10.3821609,1.88527064 L11.4218149,1.88527064 C11.4822098,1.88527064 11.5311009,1.93042478 11.5311009,1.98686746 L11.5311009,2.14866982 C11.5311009,2.20435993 11.4822098,2.24951407 11.4218149,2.24951407 L11.4218149,2.24951407 Z" id="Shape"></path>
                    <path d="M4.88443282,2.24951407 L3.5719235,2.24951407 C3.51188815,2.24951407 3.46335658,2.20435993 3.46335658,2.14754096 L3.46335658,0.143449475 C3.46335658,0.0881356471 3.51188815,0.0429815016 3.5719235,0.0429815016 L4.88443282,0.0429815016 C4.94518716,0.0429815016 4.99407822,0.0877593625 4.99407822,0.143449475 L4.99407822,0.306380683 C4.99407822,0.362070796 4.94518716,0.407977511 4.88443282,0.407977511 L3.84477876,0.407977511 L3.84477876,0.958858085 L4.7136736,0.958858085 C4.77478743,0.958858085 4.8229595,1.00401223 4.8229595,1.05857349 L4.8229595,1.21397901 C4.8229595,1.26891655 4.77478743,1.3140707 4.7136736,1.3140707 L3.84477876,1.3140707 L3.84477876,1.88527064 L4.88443282,1.88527064 C4.94518716,1.88527064 4.99407822,1.93042478 4.99407822,1.98686746 L4.99407822,2.14866982 C4.99407822,2.20435993 4.94518716,2.24951407 4.88443282,2.24951407 L4.88443282,2.24951407 Z" id="Shape"></path>
                    <path d="M21.8891757,2.24951407 L21.7252468,2.24951407 C21.6652115,2.24951407 21.615242,2.20435993 21.615242,2.14754096 L21.615242,1.06384147 L21.168392,2.1855457 C21.1507769,2.22166902 21.1108731,2.24499866 21.0680935,2.24499866 L20.9048836,2.24499866 C20.8617444,2.24499866 20.8229192,2.22166902 20.8049445,2.1855457 L20.3451528,1.0559395 L20.3451528,2.14716468 C20.3451528,2.20398364 20.2959023,2.24913779 20.2369454,2.24913779 L20.0719381,2.24913779 C20.0122622,2.24913779 19.9633711,2.20398364 19.9633711,2.14716468 L19.9633711,0.143073191 C19.9633711,0.0877593625 20.0122622,0.0426052171 20.0719381,0.0426052171 L20.2369454,0.0426052171 C20.2779276,0.0426052171 20.3174718,0.0651822898 20.335087,0.101305606 L20.988286,1.71895287 L21.6256673,0.102058175 C21.6418444,0.0655585743 21.6817482,0.0426052171 21.7248874,0.0426052171 L21.8888162,0.0426052171 C21.9488516,0.0426052171 21.9973831,0.087383078 21.9973831,0.143073191 L21.9973831,2.14716468 C21.9973831,2.20435993 21.9492111,2.24951407 21.8891757,2.24951407 L21.8891757,2.24951407 Z" id="Shape"></path>
                    <path d="M18.1101842,0.261226538 C17.9466148,0.109207582 17.7194152,0.0331981035 17.4929345,0.0331981035 C17.2657349,0.0331981035 17.0385352,0.109207582 16.8746064,0.261226538 C16.6420143,0.476085013 16.606784,0.700350602 16.606784,1.14624779 C16.606784,1.59214497 16.6420143,1.81490543 16.8746064,2.03089275 C17.0396137,2.18291171 17.257826,2.26607059 17.4929345,2.26607059 C17.7269645,2.26607059 17.9455363,2.18291171 18.1101842,2.03089275 C18.3427762,1.81528171 18.377647,1.59214497 18.377647,1.14624779 C18.377647,0.700350602 18.3427762,0.476085013 18.1101842,0.261226538 L18.1101842,0.261226538 Z M17.8251061,1.80361689 C17.7391873,1.88451807 17.6158812,1.92478051 17.4929345,1.92478051 C17.3692689,1.92478051 17.2466817,1.88451807 17.1596844,1.80361689 C17.0378162,1.69035524 16.9885657,1.57107304 16.9885657,1.14624779 C16.9885657,0.720669968 17.0378162,0.600258913 17.1596844,0.488502403 C17.2466817,0.407601226 17.3645955,0.362447081 17.4929345,0.362447081 C17.6198356,0.362447081 17.7388278,0.407601226 17.8251061,0.488502403 C17.9469743,0.600258913 17.9958654,0.720669968 17.9958654,1.14624779 C17.9958654,1.57069676 17.9469743,1.69035524 17.8251061,1.80361689 L17.8251061,1.80361689 Z" id="Shape"></path>
                    <path d="M13.243007,1.14963435 C13.243007,1.59553154 13.2782373,1.8228074 13.5108294,2.03766588 C13.6743987,2.18968483 13.9015984,2.26531803 14.1284385,2.26531803 C14.3559977,2.26531803 14.5828378,2.18968483 14.7460477,2.03766588 C14.8538956,1.93832676 14.9189639,1.83785878 14.9577891,1.71368488 C14.9682144,1.68546354 14.9660575,1.65272679 14.9484423,1.62676315 C14.9311866,1.60155209 14.9049436,1.58349043 14.8722298,1.57746988 L14.7057845,1.55000111 C14.6561744,1.54209913 14.6072834,1.56806276 14.5889492,1.61208806 C14.5616277,1.70126749 14.5199265,1.75808646 14.4616886,1.8107663 C14.3750508,1.89129119 14.2564181,1.93682162 14.128798,1.93682162 C14.001178,1.93682162 13.8829047,1.89129119 13.7962669,1.8107663 C13.6736798,1.6986335 13.6255077,1.57822245 13.6255077,1.15339719 C13.6255077,0.728195659 13.6736798,0.604398043 13.7962669,0.492265249 C13.8829047,0.411364071 14.001178,0.366209926 14.128798,0.366209926 C14.2564181,0.366209926 14.3750508,0.411364071 14.4616886,0.492265249 C14.5199265,0.54532137 14.5616277,0.600635198 14.5889492,0.690567204 C14.6072834,0.735345065 14.6565339,0.760556129 14.7057845,0.752654154 L14.8722298,0.725561667 C14.9049436,0.719917399 14.9311866,0.702232025 14.9484423,0.675515822 C14.966417,0.650304758 14.9685739,0.617568002 14.9577891,0.589346661 C14.9193234,0.465172761 14.8538956,0.363952219 14.7460477,0.264989383 C14.5828378,0.113346712 14.3559977,0.037713518 14.1284385,0.037713518 C13.9015984,0.037713518 13.6743987,0.113346712 13.5108294,0.264989383 C13.2782373,0.480600428 13.243007,0.704489732 13.243007,1.14963435 L13.243007,1.14963435 Z" id="Shape"></path>
                </g>
                <g id="Group" transform="translate(8.333333, 53.333333)" fill="#059BCD">
                    <path d="M14.9672025,5.27579215 C14.1727221,4.36610661 13.0258601,4.12842827 12.0876167,4.1277209 C11.1493733,4.12665983 10.0025112,4.36610661 9.20803092,5.27579215 C8.41535215,6.18194081 8.30113435,7.37705257 8.30113435,8.54316192 C8.30113435,9.70962495 8.41499184,11.0663721 9.20803092,11.9728745 C10.0025112,12.8818526 11.149013,13.1216531 12.0876167,13.1202384 C13.0258601,13.119531 14.1727221,12.8818526 14.9672025,11.9728745 C15.7598812,11.0663721 15.874099,9.78000886 15.874099,8.54316192 C15.8737387,7.30596129 15.7598812,6.1822945 14.9672025,5.27579215 L14.9672025,5.27579215 Z M13.9421247,11.0490414 C13.4931803,11.6071611 12.8111162,11.8250329 12.0876167,11.8250329 C11.3641172,11.8250329 10.6820531,11.6071611 10.233469,11.0490414 C9.78056117,10.4852627 9.72651489,9.54869691 9.72651489,8.54316192 C9.72651489,7.53762693 9.78056117,6.76269651 10.233469,6.19891784 C10.6820531,5.64079817 11.3644775,5.42434111 12.0876167,5.42434111 C12.8107559,5.42434111 13.4931803,5.64079817 13.9421247,6.19891784 C14.3950325,6.76269651 14.4490788,7.53868799 14.4490788,8.54316192 C14.4490788,9.54728215 14.3946722,10.4856164 13.9421247,11.0490414 L13.9421247,11.0490414 Z" id="Shape"></path>
                    <path d="M23.7383316,4.95770198 C23.7383316,4.57996086 23.4280392,4.27513587 23.0451405,4.27513587 C22.6622419,4.27513587 22.3519495,4.57996086 22.3519495,4.95770198 L22.3508658,11.3711202 C22.3508658,11.4870746 22.264533,11.5934254 22.1753104,11.6297057 C22.0860878,11.6659859 21.7017442,11.8139523 20.3933868,11.8139523 C19.7366795,11.8139523 19.0413211,11.5553668 18.6154366,11.0015599 C18.1863011,10.4427734 18.1342847,9.46889842 18.1342847,8.47261511 L18.1342847,4.95805767 C18.1342847,4.58031655 17.8239923,4.27549156 17.4410937,4.27549156 C17.058195,4.27549156 16.7482639,4.58031655 16.7482639,4.95805767 L16.7479026,8.47012529 C16.7479026,9.69760608 16.8262885,11.0154317 17.6365165,11.9807702 C18.3437953,12.8241074 19.5286138,13.1193288 20.393748,13.1193288 C20.9428102,13.1193288 22.1438838,13.1563204 23.2264755,12.7600835 C23.5241251,12.6619135 23.7368867,12.2806155 23.7368867,11.9548049 L23.7383316,4.95770198 L23.7383316,4.95770198 Z" id="Shape"></path>
                    <path d="M47.6222971,4.95770198 C47.6222971,4.57996086 47.3116755,4.27513587 46.9288165,4.27513587 C46.5459574,4.27513587 46.2360582,4.57996086 46.2360582,4.95770198 L46.2346135,11.3711202 C46.2346135,11.4870746 46.1486508,11.5934254 46.0594374,11.6297057 C45.9698628,11.6659859 45.5859202,11.8139523 44.2773367,11.8139523 C43.6210585,11.8139523 42.9254107,11.5553668 42.4999315,11.0015599 C42.0704792,10.4427734 42.0188293,9.46889842 42.0188293,8.47261511 L42.0184681,4.95805767 C42.0184681,4.58031655 41.7082078,4.27549156 41.3253487,4.27549156 C40.9424897,4.27549156 40.6322293,4.58031655 40.6322293,4.95805767 L40.6318681,8.47012529 C40.6318681,9.69760608 40.7106071,11.0154317 41.5203902,11.9807702 C42.2275959,12.8241074 43.4119307,13.1193288 44.2773367,13.1193288 C44.8263422,13.1193288 46.0272917,13.1563204 47.1097716,12.7600835 C47.4073903,12.6619135 47.6201299,12.2806155 47.6201299,11.9548049 L47.6222971,4.95770198 L47.6222971,4.95770198 Z" id="Shape"></path>
                    <path d="M39.6120719,5.36881702 C39.6120719,5.07036973 39.4341721,4.81354143 39.1780825,4.69651026 C38.0152778,4.20063955 36.6964521,4.12771739 36.0999857,4.12771739 C35.1918359,4.12771739 34.0240098,4.36213546 33.2335035,5.26423597 C32.4444318,6.16349073 32.3307338,7.53905171 32.3307338,8.76663406 C32.3307338,9.99457213 32.4440732,11.1253992 33.2335035,12.0250097 C34.0240098,12.9271102 35.1631424,13.1711327 36.0999857,13.1711327 C36.9618671,13.1711327 37.9134158,12.7876688 38.2143391,12.4632541 L38.2143391,13.6360559 C38.2143391,14.2660323 38.0629808,14.7626144 37.7581122,15.1115736 C37.4564716,15.4573314 37.0282209,15.6323446 36.4848374,15.6323446 C36.1261685,15.6323446 35.7553048,15.5861012 35.3822891,15.4950375 C35.0107081,15.4039737 34.3812441,15.1065936 34.1585107,14.9998782 C33.9354186,14.8935186 33.522232,14.9753337 33.3346481,15.2744924 C33.1470643,15.5743626 33.2718811,16.0214999 33.5667069,16.1822844 C33.8618915,16.3434246 34.2370592,16.5632582 35.0236202,16.7645945 C35.525398,16.892653 36.0174918,16.953125 36.4848374,16.953125 C36.9980927,16.953125 37.4561129,16.8713099 37.8467034,16.6998539 C38.2376525,16.5291093 38.5672693,16.2929126 38.8258696,15.9983783 C39.0841112,15.7056224 39.2817378,15.3488374 39.4144453,14.9397619 C39.5457182,14.5342435 39.6124306,14.094932 39.6124306,13.6353445 L39.6124306,5.36881702 L39.6120719,5.36881702 Z M38.1960469,10.3374842 C38.1960469,10.8290862 37.9873016,11.1599039 37.7530908,11.3786703 C37.4640036,11.647593 36.8201929,11.8681381 36.1003443,11.8681381 C35.3797784,11.8681381 34.7015355,11.6632446 34.254634,11.1086805 C33.8034284,10.5498477 33.7496281,9.76371124 33.7496281,8.76698978 C33.7496281,7.77026832 33.8034284,6.74046511 34.254634,6.18127662 C34.7015355,5.62671247 35.3955599,5.42857762 36.1003443,5.42857762 C36.6469558,5.42857762 37.3919112,5.54596452 38.0127671,5.76295241 C38.1200091,5.79994707 38.1967643,5.90132666 38.1964056,6.02013643 L38.1964056,10.3374842 L38.1960469,10.3374842 Z" id="Shape"></path>
                    <path d="M61.9695969,5.94242112 C62.0191919,5.95444605 62.070597,5.96116586 62.1238121,5.96116586 C62.4688051,5.96116586 62.7489989,5.68742182 62.7489989,5.34930902 C62.7489989,5.34188186 62.7482749,5.33410102 62.7482749,5.32702753 C62.7482749,5.13003085 62.6212103,4.83895676 62.3761312,4.69041348 C61.7712169,4.28156579 60.84846,4.12771739 60.0455275,4.12771739 C59.240785,4.12771739 58.3904296,4.32648245 57.8622608,4.71800009 C57.3275759,5.11446917 57.0567943,5.67398219 57.0567943,6.37991644 C57.0567943,7.67436502 58.0360244,8.61513912 59.9684199,9.00488839 C60.8220334,9.17995725 61.7527545,9.60896439 61.7527545,10.3520345 C61.7527545,10.7272831 61.5699407,11.1343624 61.2593384,11.3536406 C60.7612162,11.7076687 60.0422695,11.7776963 59.6885882,11.7805257 C59.2219607,11.7847698 58.4896197,11.6850336 57.872397,11.3472744 C57.8456085,11.3288834 57.8170099,11.3136754 57.7873253,11.2981137 C57.6921173,11.2468309 57.5827911,11.2178296 57.4662247,11.2178296 C57.0966152,11.2178296 56.797235,11.5110257 56.797235,11.873542 C56.797235,12.0280978 56.8511741,12.1695676 56.9424,12.2816824 C56.9970631,12.354893 57.0662065,12.4210301 57.1483822,12.4708982 C57.9828093,13.035009 59.1705556,13.1202446 59.7110327,13.1202446 C60.2211011,13.1202446 60.7159652,13.0169716 61.2625964,12.8518056 C61.6550125,12.7326173 61.9952994,12.5593168 62.2747692,12.3350872 C62.5538769,12.1105039 62.7761494,11.8360526 62.9336226,11.5191602 C63.0921819,11.2015605 63.2051282,10.7297588 63.2051282,10.3509734 C63.2051282,8.61478544 61.6274999,7.92794961 60.2504237,7.66587683 C59.0807778,7.42891493 58.4878096,6.93836844 58.4878096,6.37885542 C58.4878096,6.21722618 58.5287165,6.07611007 58.6101681,5.95869014 C58.6937918,5.83914817 58.8013081,5.74330239 58.9301827,5.67398219 C59.0623154,5.60289362 59.2176166,5.55019613 59.3902941,5.51765807 C59.5669537,5.48441267 59.7642478,5.4660216 60.0455275,5.4674363 C60.4419256,5.46920467 61.2846789,5.64391986 61.6488583,5.81969607 C61.7502204,5.86991785 61.8591847,5.91554186 61.9695969,5.94242112 L61.9695969,5.94242112 Z" id="Shape"></path>
                    <path d="M6.37856841,5.21965671 C5.58806207,4.31842869 4.44928819,4.08165636 3.51208625,4.08165636 C2.65020479,4.08165636 1.69865609,4.45743467 1.39773285,4.78201896 L1.39773285,0.692185779 C1.39773285,0.309652703 1.08533221,8.8817842e-16 0.6997631,8.8817842e-16 C0.313835322,8.8817842e-16 0.00179334469,0.309652703 0.00179334469,0.692185779 L-1.77635684e-15,11.8585253 C-1.77635684e-15,12.1880868 0.207310647,12.4692984 0.499984501,12.5816408 C1.64629043,13.0519859 2.92709721,13.1202446 3.51208625,13.1202446 C4.42059467,13.1202446 5.58806207,12.889516 6.37856841,11.9879324 C7.16799874,11.0888375 7.2816968,9.8299624 7.2816968,8.60272803 C7.2816968,7.37656021 7.16799874,6.11875164 6.37856841,5.21965671 L6.37856841,5.21965671 Z M5.35851395,11.0714173 C4.91161245,11.6256637 4.21758805,11.8211964 3.51244492,11.8211964 C2.9618881,11.8211964 2.21083534,11.7056543 1.58711005,11.4859467 L1.58746872,11.4859467 C1.48811743,11.4535949 1.41638364,11.3611612 1.41638364,11.2520184 L1.41638364,6.9069262 C1.41638364,6.41560584 1.62512896,6.08426678 1.85933978,5.86598118 C2.14842694,5.59685707 2.79223769,5.38639278 3.51244492,5.38639278 C4.23265215,5.38639278 4.91161245,5.58192548 5.35851395,6.1354608 C5.8093608,6.69397331 5.86280248,7.60693329 5.86280248,8.602017 C5.86280248,9.59887829 5.8093608,10.5132603 5.35851395,11.0714173 L5.35851395,11.0714173 Z" id="Shape"></path>
                    <path d="M28.5260653,10.7109589 C28.4874819,10.7913168 28.4049061,10.8424215 28.315479,10.8417166 C28.2073011,10.8410118 28.1286918,10.7303435 28.0994838,10.6891072 C27.879522,10.3810689 26.1598538,5.72278129 25.7870006,4.71090691 C25.6571871,4.36762386 25.2616166,4.18999074 24.9114807,4.31687154 C24.5620661,4.442695 24.379606,4.82721431 24.5072559,5.17014492 L26.7422116,10.9636632 C27.0047233,11.6488195 27.3819036,12.0372157 27.9364957,12.2317663 L26.5781418,15.7488316 C26.44328,16.0952866 26.6221341,16.4826255 26.9765971,16.6144406 C27.33106,16.7459032 27.7277124,16.5717945 27.8622136,16.2253395 L32.1424529,5.17472672 C32.272627,4.8332059 32.094494,4.4479817 31.7483247,4.31863377 C31.3992707,4.18787606 31.0000942,4.36198471 30.8663141,4.70597266 L28.5260653,10.7109589 L28.5260653,10.7109589 Z" id="Shape"></path>
                    <path d="M55.4483016,5.2600781 C54.4522102,4.11622811 52.8525472,4.12613157 52.5249663,4.12790004 C52.2219178,4.12966852 50.6395719,4.13674242 49.6817223,5.2600781 C49.2477136,5.76869167 49.0752646,6.32646886 48.9565706,6.81810506 C48.8068502,7.43671781 48.7873685,8.00722803 48.7873685,8.61912057 C48.7873685,9.77004447 48.8876632,11.0935716 49.6817223,11.9880665 C50.476503,12.8846836 51.625201,13.1202446 52.5646512,13.1202446 C53.602953,13.1202446 54.7328908,13.0360651 55.5637487,12.4740436 C55.7253745,12.3753627 55.8368531,12.2158462 55.8920512,12.0619888 C55.9191091,11.9923109 55.9342615,11.9162664 55.9342615,11.836685 C55.9342615,11.4868805 55.6449224,11.2039244 55.2888404,11.2039244 C55.2058629,11.2039244 55.1272146,11.2219629 55.0532563,11.2474289 C55.0117675,11.2615768 54.9590948,11.2927019 54.8425655,11.3535375 C54.2285316,11.6902552 53.6422771,11.8465885 52.5646512,11.8221835 C51.8402211,11.8221835 51.1576405,11.6276512 50.7081186,11.0765942 C50.28818,10.5616141 50.2250449,9.74351733 50.2156648,8.83841154 L55.626523,8.83841154 C56.0316699,8.83841154 56.3603332,8.5161953 56.3603332,8.11934938 C56.3603332,6.18428342 55.4483016,5.2600781 55.4483016,5.2600781 L55.4483016,5.2600781 Z M50.2513812,7.60330821 C50.2481343,7.45829322 50.2293742,6.4467252 51.0739414,5.82811245 C51.5902061,5.45071976 52.1537319,5.42490002 52.4975476,5.42490002 C52.8417241,5.42490002 53.492196,5.4118133 54.0636588,5.83730852 C54.908226,6.46547104 54.9165237,7.46253756 54.9132768,7.60295452 L50.2513812,7.60295452 L50.2513812,7.60330821 Z" id="Shape"></path>
                </g>
            </g>
            <g id="rosace" transform="translate(13.000000, 9.000000)">
                <path d="M32.4209522,40.262071 C35.9787824,42.7726616 43.0186083,38.6709568 48.1438391,31.0869102 C53.2695267,23.5028635 54.5399846,15.3288585 50.9821543,12.8187346 C47.4234104,10.3086107 40.5608365,14.2007496 35.4351489,21.7847962 C30.3099181,29.3683761 28.8631219,37.7519471 32.4209522,40.262071 L32.4209522,40.262071 Z" id="Shape" fill="#EA5D0B"></path>
                <path d="M20.5791827,40.262071 C17.0212761,42.7726616 9.9808422,38.6709568 4.85595822,31.0869102 C-0.269839453,23.5028635 -1.53986775,15.3288585 2.01803887,12.8187346 C5.57731602,10.3086107 12.4395804,14.2007496 17.5653781,21.7847962 C22.6902621,29.3683761 24.1366325,37.7519471 20.5791827,40.262071 L20.5791827,40.262071 Z" id="Shape" fill="#0B55A3"></path>
                <ellipse id="Oval" fill="#059BCD" cx="26.5" cy="7.53676471" rx="16.7528736" ry="7.53676471"></ellipse>
            </g>
        </g>
    </g>
</svg>