<?xml version="1.0" encoding="UTF-8"?>
<svg width="127px" height="40px" viewBox="0 0 127 40" version="1.1" xmlns="http://www.w3.org/2000/svg" xmlns:xlink="http://www.w3.org/1999/xlink">
    <!-- Generator: Sketch 54.1 (76490) - https://sketchapp.com -->
    <title>icones / logos / Store / Google Play</title>
    <desc>Created with Sketch.</desc>
    <defs>
        <linearGradient x1="61.9343108%" y1="4.9481245%" x2="24.5852736%" y2="71.9074222%" id="linearGradient-1">
            <stop stop-color="#00A0FF" offset="0%"></stop>
            <stop stop-color="#00A1FF" offset="1%"></stop>
            <stop stop-color="#00BEFF" offset="26%"></stop>
            <stop stop-color="#00D2FF" offset="51%"></stop>
            <stop stop-color="#00DFFF" offset="76%"></stop>
            <stop stop-color="#00E3FF" offset="100%"></stop>
        </linearGradient>
        <linearGradient x1="107.684729%" y1="50%" x2="-130.640394%" y2="50%" id="linearGradient-2">
            <stop stop-color="#FFE000" offset="0%"></stop>
            <stop stop-color="#FFBD00" offset="41%"></stop>
            <stop stop-color="#FFA500" offset="78%"></stop>
            <stop stop-color="#FF9C00" offset="100%"></stop>
        </linearGradient>
        <linearGradient x1="86.219293%" y1="32.3514092%" x2="-50.1497903%" y2="129.500322%" id="linearGradient-3">
            <stop stop-color="#FF3A44" offset="0%"></stop>
            <stop stop-color="#C31162" offset="100%"></stop>
        </linearGradient>
        <linearGradient x1="-18.7537448%" y1="-7.16674738%" x2="42.1210306%" y2="36.2193163%" id="linearGradient-4">
            <stop stop-color="#32A071" offset="0%"></stop>
            <stop stop-color="#2DA771" offset="7%"></stop>
            <stop stop-color="#15CF74" offset="48%"></stop>
            <stop stop-color="#06E775" offset="80%"></stop>
            <stop stop-color="#00F076" offset="100%"></stop>
        </linearGradient>
    </defs>
    <g id="Icons" stroke="none" stroke-width="1" fill="none" fill-rule="evenodd">
        <g id="UI-Icons" transform="translate(-335.000000, -3049.000000)">
            <g id="icones-/-logos-/-Store-/-Google-Play" transform="translate(333.000000, 3047.000000)">
                <g id="store-google" transform="translate(2.000000, 2.000000)">
                    <path d="M117.22,0 L7.77,0 C7.09973197,0.00916890551 6.43113407,0.0693427162 5.77,0.18 C5.10858165,0.293228947 4.46803674,0.505620155 3.87,0.81 C3.26750323,1.11853762 2.71741685,1.52013442 2.24,2 C1.76577027,2.47386658 1.37073824,3.02083401 1.07,3.62 C0.768083182,4.21818875 0.559020082,4.858866 0.45,5.52 C0.338523405,6.18102854 0.278343917,6.84968952 0.27,7.52 C0.27,7.83 0.27,8.13 0.27,8.44 L0.27,31.56 C0.27,31.87 0.27,32.17 0.27,32.48 C0.278343917,33.1503105 0.338523405,33.8189715 0.45,34.48 C0.562025618,35.1417184 0.77447592,35.7824416 1.08,36.38 C1.37695178,36.9789157 1.76865923,37.5259554 2.24,38 C2.71323598,38.4776523 3.26022232,38.8760744 3.86,39.18 C4.45821283,39.4839578 5.09869258,39.6963274 5.76,39.81 C6.42125005,39.9197523 7.08977945,39.97992 7.76,39.99 L119.23,39.99 C119.900254,39.9805619 120.568832,39.92039 121.23,39.81 C121.894374,39.695834 122.53808,39.4835122 123.14,39.18 C123.739687,38.8759261 124.286651,38.4775204 124.76,38 C125.235245,37.5284614 125.633435,36.9851675 125.94,36.39 C126.241917,35.7918112 126.45098,35.151134 126.56,34.49 C126.672883,33.8289728 126.736391,33.1604582 126.75,32.49 C126.75,32.18 126.75,31.88 126.75,31.57 C126.75,31.26 126.75,30.85 126.75,30.48 L126.75,9.54 C126.75,9.17 126.75,8.81 126.75,8.45 C126.75,8.09 126.75,7.84 126.75,7.53 C126.736391,6.85954175 126.672883,6.19102721 126.56,5.53 C126.450678,4.86893977 126.241629,4.22830735 125.94,3.63 C125.322234,2.42697348 124.343027,1.44776554 123.14,0.83 C122.538252,0.526073978 121.894483,0.313731359 121.23,0.2 C120.568971,0.088523405 119.90031,0.0283439166 119.23,0.02 L117.23,0.02 L117.22,0 Z" id="Shape" fill="#A6A6A6" fill-rule="nonzero"></path>
                    <path d="M8.69,39.13 L7.79,39.13 C7.16431418,39.132827 6.53927605,39.0893751 5.92,39 C5.34234531,38.9004336 4.78282561,38.7150505 4.26,38.45 C3.74297902,38.1934794 3.27033709,37.855878 2.86,37.45 C2.45291568,37.0406805 2.11516674,36.567832 1.86,36.05 C1.59613004,35.5275535 1.41400976,34.9677023 1.32,34.39 C1.21618984,33.7718543 1.15936055,33.146732 1.15,32.52 C1.15,32.31 1.15,31.61 1.15,31.61 L1.15,8.44 C1.15,8.44 1.15,7.75 1.15,7.55 C1.15259311,6.92376839 1.20273727,6.29863779 1.3,5.68 C1.39264058,5.09558779 1.57477754,4.52893946 1.84,4 C2.09592474,3.48262177 2.43359078,3.00988932 2.84,2.6 C3.25205947,2.19617127 3.72435894,1.85881451 4.24,1.6 C4.75990852,1.338518 5.31609517,1.15649328 5.89,1.06 C6.51178251,0.959718044 7.14021346,0.90623456 7.77,0.9 L119.22,0.9 C119.843143,0.906443565 120.464911,0.959928929 121.08,1.06 C121.660868,1.15947554 122.223699,1.34483903 122.75,1.61 C123.781624,2.13763314 124.623788,2.97280918 125.16,4 C125.42233,4.51955853 125.604397,5.07587624 125.7,5.65 C125.802633,6.27501738 125.859451,6.90669985 125.87,7.54 C125.87,7.82 125.87,8.13 125.87,8.43 C125.87,8.73 125.87,9.16 125.87,9.52 L125.87,30.46 C125.87,30.82 125.87,31.18 125.87,31.54 C125.87,31.9 125.87,32.16 125.87,32.47 C125.858467,33.0899841 125.801649,33.7082968 125.7,34.32 C125.606674,34.9010574 125.424546,35.4643071 125.16,35.99 C124.901562,36.502871 124.56411,36.9719293 124.16,37.38 C123.749663,37.785878 123.277021,38.1234794 122.76,38.38 C122.234161,38.6462766 121.671159,38.8316965 121.09,38.93 C120.471539,39.0299704 119.846455,39.0834535 119.22,39.09 L8.69,39.09 L8.69,39.13 Z" id="Shape" fill="#000000" fill-rule="nonzero"></path>
                    <g id="Group" transform="translate(9.000000, 9.000000)" fill-rule="nonzero">
                        <path d="M1.2096,0.436153846 C0.935814564,0.75204904 0.797625066,1.15644974 0.8232,1.56692308 L0.8232,19.4330769 C0.797625066,19.8435503 0.935814564,20.247951 1.2096,20.5638462 L1.2684,20.6203846 L11.676,10.6211538 L11.676,10.3869231 L1.2684,0.379615385 L1.2096,0.436153846 Z" id="Shape" fill="url(#linearGradient-1)"></path>
                        <path d="M15.12,13.9569231 L11.676,10.6211538 L11.676,10.3869231 L15.12,7.04307692 L15.1956,7.04307692 L19.32,9.33692308 C20.496,9.975 20.496,11.025 19.32,11.6711538 L15.2124,13.9165385 L15.12,13.9569231 Z" id="Shape" fill="url(#linearGradient-2)"></path>
                        <path d="M15.2208,13.9084615 L11.676,10.5 L1.2096,20.5638462 C1.70412289,20.981845 2.43804033,21.0022015 2.9568,20.6123077 L15.2292,13.9084615" id="Shape" fill="url(#linearGradient-3)"></path>
                        <path d="M15.2208,7.09153846 L2.9484,0.387692308 C2.42964033,-0.0022014535 1.69572289,0.0181549842 1.2012,0.436153846 L11.676,10.5 L15.2208,7.09153846 Z" id="Shape" fill="url(#linearGradient-4)"></path>
                        <path d="M15.12,13.8357692 L2.9484,20.4992308 C2.45031237,20.8573102 1.76648763,20.8573102 1.2684,20.4992308 L1.2684,20.4992308 L1.2096,20.5557692 L1.2096,20.5557692 L1.2684,20.6123077 L1.2684,20.6123077 C1.76555046,20.9730871 2.45124954,20.9730871 2.9484,20.6123077 L15.2208,13.9084615 L15.12,13.8357692 Z" id="Shape" fill="#000000" opacity="0.2"></path>
                        <path d="M1.2096,20.4507692 C0.935814564,20.134874 0.797625066,19.7304733 0.8232,19.32 L0.8232,19.4411538 C0.797625066,19.8516272 0.935814564,20.2560279 1.2096,20.5719231 L1.2684,20.5153846 L1.2096,20.4507692 Z" id="Shape" fill="#000000" opacity="0.12"></path>
                        <path d="M19.32,11.55 L15.12,13.8357692 L15.1956,13.9084615 L19.32,11.6630769 C19.7963389,11.4479183 20.1167135,11.0043228 20.16,10.5 L20.16,10.5 C20.0642648,10.9562153 19.754033,11.344005 19.32,11.55 L19.32,11.55 Z" id="Shape" fill="#000000" opacity="0.12"></path>
                        <path d="M2.9484,0.500769231 L19.32,9.45 C19.754033,9.65599502 20.0642648,10.0437847 20.16,10.5 L20.16,10.5 C20.1167135,9.9956772 19.7963389,9.55208165 19.32,9.33692308 L2.9484,0.387692308 C1.7724,-0.250384615 0.8148,0.282692308 0.8148,1.575 L0.8148,1.69615385 C0.84,0.395769231 1.7808,-0.137307692 2.9484,0.500769231 Z" id="Shape" fill="#FFFFFF" opacity="0.25"></path>
                    </g>
                    <g id="Group-2" transform="translate(34.000000, 6.000000)" fill="#FFFFFF" fill-rule="nonzero">
                        <path d="M28.14,15.75 C25.795425,15.7610334 23.9026739,17.6686811 23.9100209,20.0132706 C23.9173678,22.3578601 25.8220372,24.2536083 28.1666353,24.2499478 C30.5112334,24.2462873 32.409974,22.344601 32.41,20 C32.4260274,18.8887096 31.999881,17.8165796 31.2253314,17.019525 C30.4507819,16.2224703 29.3912936,15.7657996 28.28,15.75 L28.14,15.75 Z M28.14,22.58 C27.0984711,22.6544493 26.1147613,22.0937617 25.6480732,21.15967 C25.1813852,20.2255783 25.3237494,19.1022849 26.0087094,18.314151 C26.6936693,17.5260172 27.7861512,17.2284625 28.7761769,17.5603875 C29.7662026,17.8923125 30.4585396,18.7882618 30.53,19.83 C30.53,19.89 30.53,19.9466667 30.53,20 C30.5626141,20.6526324 30.3342301,21.291425 29.8952348,21.7754455 C29.4562394,22.259466 28.8427082,22.548939 28.19,22.58 L28.14,22.58 Z M18.83,15.75 C16.4840995,15.7555198 14.5863275,17.6607469 14.5900052,20.006651 C14.5936829,22.3525551 16.4974192,24.2518225 18.8433255,24.2499869 C21.1892318,24.2481513 23.0899935,22.345907 23.09,20 C23.1235717,17.7011452 21.2984508,15.804626 19,15.75 L18.87,15.75 L18.83,15.75 Z M18.83,22.58 C17.7888755,22.6581813 16.8032595,22.1011799 16.3331474,21.1689529 C15.8630353,20.2367259 16.0011086,19.1130599 16.6829273,18.3223794 C17.3647461,17.5316988 18.4558912,17.2298846 19.447116,17.557796 C20.4383408,17.8857074 21.1342276,18.7786974 21.21,19.82 C21.21,19.88 21.21,19.94 21.21,20 C21.2426141,20.6526324 21.0142301,21.291425 20.5752348,21.7754455 C20.1362394,22.259466 19.5227082,22.548939 18.87,22.58 L18.82,22.58 L18.83,22.58 Z M7.74,17.06 L7.74,18.86 L12.06,18.86 C11.9922634,19.7078038 11.6398446,20.5077945 11.06,21.13 C10.1860229,22.0202246 8.97654322,22.499658 7.73,22.45 C5.0790332,22.45 2.93,20.3009668 2.93,17.65 C2.93,14.9990332 5.0790332,12.85 7.73,12.85 C8.94779575,12.8301388 10.123762,13.2940521 11,14.14 L12.27,12.87 C11.0749196,11.6598581 9.44071842,10.9852541 7.74,11 C5.37299515,10.8969935 3.13189118,12.0687051 1.86572038,14.0712369 C0.599549571,16.0737688 0.501987803,18.6008099 1.60999592,20.6950019 C2.71800403,22.789194 4.86209901,24.1302054 7.23,24.21 L7.74,24.21 C9.38598723,24.3045512 10.995254,23.6989582 12.1705468,22.5427139 C13.3458395,21.3864697 13.9776451,19.7873124 13.91,18.14 C13.9132269,17.7609882 13.8797372,17.3825548 13.81,17.01 L7.74,17.06 Z M53.05,18.46 C52.4531556,16.6095038 50.5900539,15.476162 48.6723467,15.7970332 C46.7546395,16.1179045 45.3619494,17.7960063 45.4,19.74 C45.4,19.8266667 45.4,19.9133333 45.4,20 C45.3758706,21.1033742 45.791177,22.1711168 46.5545048,22.9682036 C47.3178327,23.7652904 48.3666147,24.226387 49.47,24.25 L49.62,24.25 C51.0408585,24.257659 52.3706434,23.5514455 53.16,22.37 L51.71,21.37 C51.269746,22.1039422 50.4758563,22.552167 49.62,22.55 C48.7335914,22.5837851 47.9166413,22.0721998 47.56,21.26 L53.25,18.91 L53.05,18.46 Z M47.25,19.88 C47.208848,19.2633614 47.4143624,18.6556344 47.821325,18.1905344 C48.2282876,17.7254343 48.8033558,17.4410668 49.42,17.4 L49.42,17.4 C50.0793698,17.3565516 50.7010664,17.7106826 51,18.3 L47.25,19.88 Z M42.63,24 L44.5,24 L44.5,11.5 L42.63,11.5 L42.63,24 Z M39.57,16.7 L39.5,16.7 C38.9299621,16.0626768 38.1150572,15.69888 37.26,15.7 C34.9901469,15.8100717 33.2063371,17.6824796 33.2063371,19.955 C33.2063371,22.2275204 34.9901469,24.0999283 37.26,24.21 C38.117829,24.2244237 38.9380159,23.8582688 39.5,23.21 L39.56,23.21 L39.56,23.82 C39.56,25.45 38.69,26.32 37.29,26.32 C36.336303,26.2976774 35.4907281,25.7010334 35.15,24.81 L33.52,25.49 C34.1476816,27.016811 35.6392308,28.0098583 37.29,28 C39.48,28 41.29,26.71 41.29,23.57 L41.29,16 L39.57,16 L39.57,16.7 Z M37.43,22.58 C36.0928876,22.4621598 35.0673763,21.342295 35.0673763,20 C35.0673763,18.657705 36.0928876,17.5378402 37.43,17.42 C38.7522747,17.4899733 39.7680564,18.6176252 39.7,19.94 L39.7,20 C39.8095604,21.308629 38.8384827,22.458707 37.53,22.57 L37.43,22.57 L37.43,22.58 Z M61.81,11.5 L57.34,11.5 L57.34,24 L59.21,24 L59.21,19.26 L61.82,19.26 C63.2726839,19.3643638 64.661974,18.648509 65.4201301,17.404973 C66.1782862,16.161437 66.1782862,14.598563 65.4201301,13.355027 C64.661974,12.111491 63.2726839,11.3956362 61.82,11.5 L61.81,11.5 Z M61.81,17.5 L59.2,17.5 L59.2,13.24 L61.85,13.24 C63.0346508,13.24 63.995,14.2003492 63.995,15.385 C63.995,16.5696508 63.0346508,17.53 61.85,17.53 L61.81,17.5 Z M73.34,15.7 C71.945186,15.6127412 70.6321561,16.3636056 70,17.61 L71.66,18.3 C71.9944058,17.6836682 72.6611247,17.3228556 73.36,17.38 C73.834851,17.323682 74.3125961,17.4586224 74.6878145,17.755045 C75.0630329,18.0514675 75.3048839,18.485008 75.36,18.96 L75.36,19.12 C74.7593925,18.8019991 74.0895923,18.6371252 73.41,18.64 C71.62,18.64 69.81,19.64 69.81,21.45 C69.8856371,23.0347333 71.2246821,24.2621912 72.81,24.2 L72.89,24.2 C73.8492291,24.2688831 74.769569,23.8087132 75.29,23 L75.35,23 L75.35,24 L77.15,24 L77.15,19.19 C77.15,17 75.49,15.73 73.36,15.73 L73.34,15.7 Z M73.11,22.55 C72.5,22.55 71.65,22.24 71.65,21.49 C71.65,20.49 72.71,20.16 73.65,20.16 C74.2440419,20.1453419 74.8311308,20.2903874 75.35,20.58 C75.2206961,21.699415 74.2865236,22.5525405 73.16,22.58 L73.11,22.55 Z M83.74,16 L81.6,21.42 L81.54,21.42 L79.32,16 L77.32,16 L80.65,23.58 L78.75,27.79 L80.7,27.79 L85.82,16 L83.74,16 Z M66.93,24 L68.8,24 L68.8,11.5 L66.93,11.5 L66.93,24 Z" id="Shape"></path>
                        <path d="M1.28,7 L1.28,1 L3.12,1 C3.93913998,0.963016557 4.73771962,1.26293561 5.33,1.83 C5.89285905,2.40870261 6.19299323,3.19339077 6.16,4 C6.19299323,4.80660923 5.89285905,5.59129739 5.33,6.17 C4.73771962,6.73706439 3.93913998,7.03698344 3.12,7 L1.28,7 Z M2.05,6.26 L3.11,6.26 C3.72394714,6.31234707 4.32970761,6.09111028 4.76540895,5.65540895 C5.20111028,5.21970761 5.42234707,4.61394714 5.37,4 C5.41704611,3.44688641 5.2421174,2.89777892 4.88380025,2.47380156 C4.5254831,2.0498242 4.01321723,1.78581139 3.46,1.74 L2,1.74 L2.05,6.26 Z" id="Shape" stroke="#FFFFFF" stroke-width="0.2"></path>
                        <polygon id="Shape" stroke="#FFFFFF" stroke-width="0.2" points="7.24 7 7.24 1 8 1 8 7"></polygon>
                        <path d="M11.07,7.13 C10.6092605,7.12173981 10.1622798,6.97158223 9.79,6.7 C9.38712726,6.4116538 9.10561529,5.98404068 9,5.5 L9.7,5.22 C9.78021122,5.54269368 9.95836892,5.8326366 10.21,6.05 C10.4504121,6.26952462 10.7644415,6.39085417 11.09,6.39 C11.3974459,6.40016836 11.6996824,6.30879451 11.95,6.13 C12.1846721,5.96687096 12.3203,5.69561507 12.31,5.41 C12.3228682,5.10996002 12.1884831,4.8225251 11.95,4.64 C11.6047914,4.40748794 11.2227336,4.23505477 10.82,4.13 C10.3718267,4.00982344 9.95763861,3.78732569 9.61,3.48 C9.34106504,3.21761351 9.19266324,2.8556579 9.2,2.48 C9.20068159,2.05062162 9.38656378,1.64240976 9.71,1.36 C10.0618076,1.03818298 10.5232564,0.862903993 11,0.87 C11.444792,0.849841385 11.8828735,0.984092173 12.24,1.25 C12.5252585,1.4581973 12.7412863,1.7473958 12.86,2.08 L12.16,2.37 C12.0987379,2.15724566 11.9686034,1.97083677 11.79,1.84 C11.3329836,1.51123476 10.7170164,1.51123476 10.26,1.84 C10.0616313,1.98365256 9.94590083,2.21511352 9.95,2.46 C9.94915093,2.68563445 10.0571169,2.89784334 10.24,3.03 C10.4978964,3.2141104 10.7853709,3.35277459 11.09,3.44 C11.3415925,3.5197565 11.5886289,3.61322976 11.83,3.72 C12.0419158,3.8189195 12.242993,3.9395658 12.43,4.08 C12.6278566,4.22096591 12.7862389,4.41033603 12.89,4.63 C12.9997551,4.87163199 13.0544074,5.13464593 13.05,5.4 C13.0549354,5.67083355 12.9931162,5.93871683 12.87,6.18 C12.7577676,6.39737134 12.5927139,6.58305669 12.39,6.72 C12.1934718,6.85493306 11.9777102,6.95944258 11.75,7.03 C11.529305,7.09578527 11.3002905,7.12946387 11.07,7.13 Z" id="Shape" stroke="#FFFFFF" stroke-width="0.2"></path>
                        <path d="M15,7 L14.23,7 L14.23,1 L16.23,1 C16.7192548,0.993692515 17.1920824,1.17637594 17.55,1.51 C17.8896975,1.82282671 18.0911068,2.25785958 18.1098635,2.71927384 C18.1286202,3.18068811 17.9631856,3.63063333 17.65,3.97 L17.55,4.07 C17.1926449,4.4045211 16.7194416,4.58734964 16.23,4.58 L15,4.58 L15,7 Z M15,3.83 L16.29,3.83 C16.705013,3.83738868 17.0854264,3.5996004 17.2606019,3.22329743 C17.4357774,2.84699445 17.3728318,2.40281495 17.1,2.09 L17.1,2.09 C16.9017164,1.86989335 16.6160457,1.74903264 16.32,1.76 L15,1.76 L15,3.83 Z" id="Shape" stroke="#FFFFFF" stroke-width="0.2"></path>
                        <path d="M24,6.22 C22.7829898,7.43022788 20.8170102,7.43022788 19.6,6.22 C18.4202689,4.97123387 18.4202689,3.01876613 19.6,1.77 C20.8101592,0.562080218 22.7698408,0.562080218 23.98,1.77 L23.98,1.77 C25.1703854,3.01142839 25.1791787,4.96792189 24,6.22 Z M20.17,5.72 C21.0713239,6.61756507 22.5286761,6.61756507 23.43,5.72 C24.3151983,4.74417114 24.3151983,3.25582886 23.43,2.28 C22.5286761,1.38243493 21.0713239,1.38243493 20.17,2.28 C19.2848017,3.25582886 19.2848017,4.74417114 20.17,5.72 Z" id="Shape" stroke="#FFFFFF" stroke-width="0.2"></path>
                        <polygon id="Shape" stroke="#FFFFFF" stroke-width="0.2" points="25.95 7 25.95 1 26.89 1 29.81 5.67 29.81 5.67 29.81 1 30.58 1 30.58 7 29.78 7 26.73 2.11 26.73 2.11 26.73 7"></polygon>
                        <polygon id="Shape" stroke="#FFFFFF" stroke-width="0.2" points="31.95 7 31.95 1 32.72 1 32.72 7"></polygon>
                        <path d="M34.09,7 L34.09,1 L36.26,1 C36.7105605,0.991490808 37.1472206,1.15613316 37.48,1.46 C37.8182813,1.75357474 38.0087722,2.18217927 38,2.63 C38.0046929,2.89656215 37.9279426,3.15821095 37.78,3.38 C37.6331767,3.59543103 37.4287269,3.76522834 37.19,3.87 L37.19,3.87 C37.4800671,3.96602197 37.7344622,4.14723491 37.92,4.39 C38.1122885,4.63500379 38.2146585,4.93858387 38.21,5.25 C38.2203361,5.71672584 38.0224315,6.16384343 37.67,6.47 C37.321804,6.79118776 36.8636653,6.96656897 36.39,6.96 L34.09,7 Z M34.86,3.57 L36.26,3.57 C36.5246389,3.58104763 36.7807079,3.4749619 36.96,3.28 C37.1388872,3.11779032 37.2441824,2.88985362 37.251725,2.64849141 C37.2592675,2.40712919 37.1684099,2.17306271 37,2 L37,2 C36.830816,1.80863046 36.5853181,1.70237016 36.33,1.71 L34.86,1.71 L34.86,3.57 Z M34.86,6.26 L36.41,6.26 C36.6842187,6.26919977 36.9482331,6.15552692 37.13,5.95 C37.3988117,5.66022128 37.4717139,5.23929689 37.3160129,4.87599447 C37.1603119,4.51269205 36.8052272,4.27519062 36.41,4.27 L34.86,4.27 L34.86,6.26 Z" id="Shape" stroke="#FFFFFF" stroke-width="0.2"></path>
                        <polygon id="Shape" stroke="#FFFFFF" stroke-width="0.2" points="39.24 7 39.24 1 40 1 40 6.26 42.6 6.26 42.6 7"></polygon>
                        <polygon id="Shape" stroke="#FFFFFF" stroke-width="0.2" points="47.08 1.74 44.35 1.74 44.35 3.64 46.81 3.64 46.81 4.36 44.35 4.36 44.35 6.26 47.08 6.26 47.08 7 43.58 7 43.58 1 47.08 1"></polygon>
                        <path d="M51.74,7.13 C51.2792605,7.12173981 50.8322798,6.97158223 50.46,6.7 C50.0458545,6.4169838 49.7531783,5.98867715 49.64,5.5 L50.34,5.22 C50.4202112,5.54269368 50.5983689,5.8326366 50.85,6.05 C51.0904121,6.26952462 51.4044415,6.39085417 51.73,6.39 C52.0374459,6.40016836 52.3396824,6.30879451 52.59,6.13 C52.8246721,5.96687096 52.9603,5.69561507 52.95,5.41 C52.9628682,5.10996002 52.8284831,4.8225251 52.59,4.64 C52.2447914,4.40748794 51.8627336,4.23505477 51.46,4.13 C51.0118267,4.00982344 50.5976386,3.78732569 50.25,3.48 C49.981065,3.21761351 49.8326632,2.8556579 49.84,2.48 C49.8406816,2.05062162 50.0265638,1.64240976 50.35,1.36 C50.713425,1.03209757 51.1909313,0.859764477 51.68,0.88 C52.124792,0.859841385 52.5628735,0.994092173 52.92,1.26 C53.2052585,1.4681973 53.4212863,1.7573958 53.54,2.09 L52.84,2.38 C52.7787379,2.16724566 52.6486034,1.98083677 52.47,1.85 C52.0129836,1.52123476 51.3970164,1.52123476 50.94,1.85 C50.7416313,1.99365256 50.6259008,2.22511352 50.63,2.47 C50.6291509,2.69563445 50.7371169,2.90784334 50.92,3.04 C51.1778964,3.2241104 51.4653709,3.36277459 51.77,3.45 C52.0215859,3.52977538 52.2686214,3.62324825 52.51,3.73 C52.7219158,3.8289195 52.922993,3.9495658 53.11,4.09 C53.3078566,4.23096591 53.4662389,4.42033603 53.57,4.64 C53.6797551,4.88163199 53.7344074,5.14464593 53.73,5.41 C53.7349354,5.68083355 53.6731162,5.94871683 53.55,6.19 C53.4377676,6.40737134 53.2727139,6.59305669 53.07,6.73 C52.8734718,6.86493306 52.6577102,6.96944258 52.43,7.04 C52.2055934,7.10336031 51.9731509,7.1336789 51.74,7.13 Z" id="Shape" stroke="#FFFFFF" stroke-width="0.2"></path>
                        <path d="M56.94,7.13 C56.3349236,7.15440641 55.7485269,6.9176624 55.33,6.48 C54.9060318,6.01399531 54.6832097,5.39943759 54.71,4.77 L54.71,1 L55.48,1 L55.48,4.8 C55.4602297,5.21546098 55.5916768,5.62401257 55.85,5.95 C56.4344264,6.54717688 57.3884447,6.56936335 58,6 C58.2583232,5.67401257 58.3897703,5.26546098 58.37,4.85 L58.37,1 L59.14,1 L59.14,4.77 C59.1679761,5.39604283 58.9530122,6.00868991 58.54,6.48 C58.1245578,6.91608906 57.5418686,7.15280656 56.94,7.13 Z" id="Shape" stroke="#FFFFFF" stroke-width="0.2"></path>
                        <path d="M60.4,7 L60.4,1 L62.4,1 C62.8892548,0.993692515 63.3620824,1.17637594 63.72,1.51 C64.402395,2.1377435 64.4685531,3.19186227 63.87,3.9 C63.6150328,4.21032973 63.2626071,4.42530941 62.87,4.51 L62.87,4.51 L64.55,7 L63.64,7 L62,4.57 L61.14,4.57 L61.14,7 L60.4,7 Z M61.17,3.85 L62.41,3.85 C62.7022218,3.85593268 62.9853752,3.74840606 63.2,3.55 C63.4147125,3.35629679 63.5350608,3.07913108 63.53,2.79 C63.5278436,2.52196616 63.4242231,2.26470145 63.24,2.07 C63.0417164,1.84989335 62.7560457,1.72903264 62.46,1.74 L61.17,1.74 L61.17,3.85 Z" id="Shape" stroke="#FFFFFF" stroke-width="0.2"></path>
                    </g>
                </g>
            </g>
        </g>
    </g>
</svg>