<?xml version="1.0" encoding="UTF-8"?>
<svg width="127px" height="40px" viewBox="0 0 127 40" version="1.1" xmlns="http://www.w3.org/2000/svg" xmlns:xlink="http://www.w3.org/1999/xlink">
    <!-- Generator: Sketch 54.1 (76490) - https://sketchapp.com -->
    <title>icones / logos / Store / App Store</title>
    <desc>Created with Sketch.</desc>
    <g id="Icons" stroke="none" stroke-width="1" fill="none" fill-rule="evenodd">
        <g id="UI-Icons" transform="translate(-174.000000, -3049.000000)">
            <g id="icones-/-logos-/-Store-/-App-Store" transform="translate(172.000000, 3047.000000)">
                <g id="store-apple" transform="translate(2.000000, 2.000000)">
                    <path d="M117.22,0 L7.77,0 C7.09973197,0.00916890551 6.43113407,0.0693427162 5.77,0.18 C5.10858165,0.293228947 4.46803674,0.505620155 3.87,0.81 C3.26750323,1.11853762 2.71741685,1.52013442 2.24,2 C1.76577027,2.47386658 1.37073824,3.02083401 1.07,3.62 C0.768083182,4.21818875 0.559020082,4.858866 0.45,5.52 C0.338523405,6.18102854 0.278343917,6.84968952 0.27,7.52 C0.27,7.83 0.27,8.13 0.27,8.44 L0.27,31.56 C0.27,31.87 0.27,32.17 0.27,32.48 C0.278343917,33.1503105 0.338523405,33.8189715 0.45,34.48 C0.562025618,35.1417184 0.77447592,35.7824416 1.08,36.38 C1.37695178,36.9789157 1.76865923,37.5259554 2.24,38 C2.71323598,38.4776523 3.26022232,38.8760744 3.86,39.18 C4.45821283,39.4839578 5.09869258,39.6963274 5.76,39.81 C6.42125005,39.9197523 7.08977945,39.97992 7.76,39.99 L119.23,39.99 C119.900254,39.9805619 120.568832,39.92039 121.23,39.81 C121.894374,39.695834 122.53808,39.4835122 123.14,39.18 C123.739687,38.8759261 124.286651,38.4775204 124.76,38 C125.235245,37.5284614 125.633435,36.9851675 125.94,36.39 C126.241917,35.7918112 126.45098,35.151134 126.56,34.49 C126.672883,33.8289728 126.736391,33.1604582 126.75,32.49 C126.75,32.18 126.75,31.88 126.75,31.57 C126.75,31.26 126.75,30.85 126.75,30.48 L126.75,9.54 C126.75,9.17 126.75,8.81 126.75,8.45 C126.75,8.09 126.75,7.84 126.75,7.53 C126.736391,6.85954175 126.672883,6.19102721 126.56,5.53 C126.450678,4.86893977 126.241629,4.22830735 125.94,3.63 C125.322234,2.42697348 124.343027,1.44776554 123.14,0.83 C122.538252,0.526073978 121.894483,0.313731359 121.23,0.2 C120.568971,0.088523405 119.90031,0.0283439166 119.23,0.02 L117.23,0.02 L117.22,0 Z" id="Shape" fill="#A6A6A6" fill-rule="nonzero"></path>
                    <path d="M8.69,39.13 L7.79,39.13 C7.16431418,39.132827 6.53927605,39.0893751 5.92,39 C5.34234531,38.9004336 4.78282561,38.7150505 4.26,38.45 C3.74297902,38.1934794 3.27033709,37.855878 2.86,37.45 C2.45291568,37.0406805 2.11516674,36.567832 1.86,36.05 C1.59613004,35.5275535 1.41400976,34.9677023 1.32,34.39 C1.21618984,33.7718543 1.15936055,33.146732 1.15,32.52 C1.15,32.31 1.15,31.61 1.15,31.61 L1.15,8.44 C1.15,8.44 1.15,7.75 1.15,7.55 C1.15259311,6.92376839 1.20273727,6.29863779 1.3,5.68 C1.39264058,5.09558779 1.57477754,4.52893946 1.84,4 C2.09592474,3.48262177 2.43359078,3.00988932 2.84,2.6 C3.25205947,2.19617127 3.72435894,1.85881451 4.24,1.6 C4.75990852,1.338518 5.31609517,1.15649328 5.89,1.06 C6.51178251,0.959718044 7.14021346,0.90623456 7.77,0.9 L119.22,0.9 C119.843143,0.906443565 120.464911,0.959928929 121.08,1.06 C121.660868,1.15947554 122.223699,1.34483903 122.75,1.61 C123.781624,2.13763314 124.623788,2.97280918 125.16,4 C125.42233,4.51955853 125.604397,5.07587624 125.7,5.65 C125.802633,6.27501738 125.859451,6.90669985 125.87,7.54 C125.87,7.82 125.87,8.13 125.87,8.43 C125.87,8.73 125.87,9.16 125.87,9.52 L125.87,30.46 C125.87,30.82 125.87,31.18 125.87,31.54 C125.87,31.9 125.87,32.16 125.87,32.47 C125.858467,33.0899841 125.801649,33.7082968 125.7,34.32 C125.606674,34.9010574 125.424546,35.4643071 125.16,35.99 C124.901562,36.502871 124.56411,36.9719293 124.16,37.38 C123.749663,37.785878 123.277021,38.1234794 122.76,38.38 C122.234161,38.6462766 121.671159,38.8316965 121.09,38.93 C120.471539,39.0299704 119.846455,39.0834535 119.22,39.09 L8.69,39.09 L8.69,39.13 Z" id="Shape" fill="#000000" fill-rule="nonzero"></path>
                    <g id="_Group_" transform="translate(10.000000, 8.000000)" fill="#FFFFFF" fill-rule="nonzero">
                        <g id="_Group_2">
                            <g id="_Group_3">
                                <path d="M15,12.3 C15.0327999,10.6061825 15.9210679,9.04418578 17.36,8.15 C16.4422586,6.83909288 14.959495,6.03840053 13.36,5.99 C11.68,5.81 10.05,6.99 9.2,6.99 C8.35,6.99 7,6 5.61,6 C3.74421295,6.06268566 2.04780347,7.09874782 1.14,8.73 C-0.79,12.08 0.65,17 2.5,19.73 C3.43,21.06 4.5,22.54 5.93,22.48 C7.36,22.42 7.84,21.6 9.51,21.6 C11.18,21.6 11.65,22.48 13.1,22.45 C14.55,22.42 15.53,21.12 16.42,19.78 C17.0857483,18.8361869 17.5986991,17.7934119 17.94,16.69 C16.1668209,15.9504728 15.0087166,14.2211946 15,12.3 L15,12.3 Z" id="_Path_"></path>
                                <path d="M12.29,4.21 C13.0999843,3.23539586 13.4981696,1.98344394 13.4,0.72 C12.1604629,0.853779607 11.015621,1.44581624 10.19,2.38 C9.36179694,3.29688924 8.93348788,4.50623246 9,5.74 C10.2749329,5.76941846 11.4909614,5.20390979 12.29,4.21 L12.29,4.21 Z" id="_Path_2"></path>
                            </g>
                        </g>
                    </g>
                    <g id="_Group_4" transform="translate(34.000000, 7.000000)" fill="#FFFFFF" fill-rule="nonzero">
                        <g id="Group">
                            <polygon id="Shape" points="1.9 7.7 1.9 2.58 0 2.58 0 1.74 4.7 1.74 4.7 2.58 2.83 2.58 2.83 7.7"></polygon>
                            <path d="M9,6.49 C8.74613131,7.35798678 7.89630368,7.91037474 7,7.79 C6.40710614,7.79813657 5.84116682,7.54277175 5.45496232,7.0928435 C5.06875782,6.64291526 4.90210747,6.04481312 5,5.46 C4.85195867,4.32607749 5.64705037,3.28531139 6.78,3.13 L7.07,3.13 C8.32,3.13 9.07,3.99 9.07,5.4 L9.07,5.71 L5.88,5.71 L5.88,5.71 C5.8524599,6.03071565 5.95602196,6.34890752 6.16705656,6.59197415 C6.37809115,6.83504078 6.6785941,6.98224522 7,7 L7.11,7 C7.54521265,7.05068894 7.96792162,6.83340863 8.18,6.45 L9,6.49 Z M5.88,5 L8.15,5 C8.19023425,4.40484259 7.74458994,3.88789518 7.15,3.84 L7.04,3.84 C6.73153082,3.83730579 6.43491231,3.95865437 6.21678334,4.17678334 C5.99865437,4.39491231 5.87730579,4.69153082 5.88,5 C5.88,5 5.88,5 5.88,5 L5.88,5 Z M6.52,2.41 L7.52,0.99 L8.52,0.99 L7.36,2.41 L6.52,2.41 Z" id="Shape"></path>
                            <polygon id="Shape" points="10.3 1.44 11.19 1.44 11.19 7.7 10.3 7.7"></polygon>
                            <path d="M16.45,6.49 C16.1961313,7.35798678 15.3463037,7.91037474 14.45,7.79 C13.8454102,7.82215685 13.2587969,7.57870838 12.8546355,7.12791299 C12.4504741,6.67711761 12.2722743,6.06750531 12.37,5.47 C12.2219587,4.33607749 13.0170504,3.29531139 14.15,3.14 L14.44,3.14 C15.69,3.14 16.44,4 16.44,5.41 L16.44,5.72 L13.33,5.72 L13.33,5.72 C13.2780285,6.37065499 13.7598783,6.94173619 14.41,7 L14.52,7 C14.9552126,7.05068894 15.3779216,6.83340863 15.59,6.45 L16.45,6.49 Z M13.33,5 L15.6,5 C15.6402343,4.40484259 15.1945899,3.88789518 14.6,3.84 L14.49,3.84 C14.1815308,3.83730579 13.8849123,3.95865437 13.6667833,4.17678334 C13.4486544,4.39491231 13.3273058,4.69153082 13.33,5 C13.33,5 13.33,5 13.33,5 Z M14,2.45 L15,1 L16,1 L14.84,2.42 L14,2.45 Z" id="Shape"></path>
                            <path d="M20.65,4.67 C20.533229,4.18939218 20.0826595,3.86634234 19.59,3.91 C18.85,3.91 18.39,4.48 18.39,5.44 C18.39,6.4 18.85,7 19.59,7 C20.0767097,7.04557404 20.525031,6.73259505 20.65,6.26 L21.51,6.26 C21.3900721,7.20587059 20.5387734,7.88424923 19.59,7.79 C18.9819409,7.80737942 18.3970164,7.55642037 17.9906125,7.10379046 C17.5842086,6.65116056 17.3974686,6.04268276 17.48,5.44 C17.4061054,4.90012692 17.5501908,4.35304775 17.8804278,3.91961164 C18.2106648,3.48617554 18.6998777,3.20205071 19.24,3.13 L19.59,3.13 C20.5495263,3.04190701 21.4049435,3.7333323 21.52,4.69 L20.65,4.67 Z" id="Shape"></path>
                            <path d="M22.69,1.44 L23.57,1.44 L23.57,3.92 L23.64,3.92 C23.8833887,3.39694233 24.4245756,3.07859707 25,3.12 C25.4417791,3.09491485 25.8716074,3.26881634 26.1716597,3.59403424 C26.4717119,3.91925214 26.6105077,4.36166583 26.55,4.8 L26.55,7.7 L25.66,7.7 L25.66,5 C25.66,4.28 25.33,3.92 24.66,3.92 C24.3515858,3.89519996 24.0479338,4.00769014 23.830114,4.22743753 C23.6122942,4.44718493 23.5024837,4.75181624 23.53,5.06 L23.53,7.7 L22.64,7.7 L22.69,1.44 Z" id="Shape"></path>
                            <path d="M27.69,6.43 C27.69,5.62 28.29,5.15 29.36,5.09 L30.58,5 L30.58,4.61 C30.58,4.13 30.27,3.87 29.66,3.87 C29.05,3.87 28.82,4.05 28.72,4.37 L27.86,4.37 C27.95,3.6 28.68,3.1 29.7,3.1 C30.72,3.1 31.47,3.66 31.47,4.61 L31.47,7.7 L30.61,7.7 L30.61,7.07 L30.54,7.07 C30.2499127,7.53166669 29.7347718,7.80259262 29.19,7.78 C28.4448855,7.85574451 27.7787653,7.31480126 27.7,6.57 C27.7,6.57 27.69,6.47 27.69,6.43 Z M30.58,6 L30.58,5.62 L29.48,5.69 C28.86,5.69 28.58,5.94 28.58,6.34 C28.58,6.74 28.93,6.98 29.41,6.98 C29.689815,7.00790547 29.9692516,6.9234824 30.1868072,6.7453119 C30.4043627,6.56714141 30.5422066,6.30982615 30.57,6.03 L30.57,6.03 L30.58,6 Z" id="Shape"></path>
                            <path d="M32.86,3.2 L33.72,3.2 L33.72,3.89 L33.79,3.89 C33.983954,3.39832336 34.4724536,3.08745998 35,3.12 C35.1329498,3.10569874 35.2670502,3.10569874 35.4,3.12 L35.4,4 C35.235509,3.96609952 35.0679467,3.94934328 34.9,3.95 C34.6137821,3.92520562 34.3297584,4.01764961 34.1129679,4.20616309 C33.8961774,4.39467657 33.7651898,4.66311201 33.75,4.95 C33.75,4.95 33.75,5.02 33.75,5.05 L33.75,7.7 L32.86,7.7 L32.86,3.2 Z" id="Shape"></path>
                            <path d="M36.21,8.15 L37.12,8.15 C37.2,8.48 37.57,8.69 38.17,8.69 C38.77,8.69 39.35,8.34 39.35,7.74 L39.35,6.88 L39.28,6.88 C38.9974245,7.3755589 38.4596957,7.66956889 37.89,7.64 C36.74,7.64 36.03,6.75 36.03,5.4 C36.03,4.05 36.75,3.13 37.9,3.13 C38.4804082,3.11035544 39.0236848,3.41474447 39.31,3.92 L39.38,3.92 L39.38,3.2 L40.23,3.2 L40.23,7.74 C40.23,8.74 39.42,9.42 38.15,9.42 C36.88,9.42 36.3,8.92 36.21,8.15 Z M39.37,5.39 C39.37,4.49 38.91,3.92 38.15,3.92 C37.39,3.92 36.96,4.49 36.96,5.39 C36.96,6.29 37.39,6.86 38.15,6.86 C38.91,6.86 39.37,6.29 39.37,5.39 Z" id="Shape"></path>
                            <path d="M45.46,6.49 C45.2061313,7.35798678 44.3563037,7.91037474 43.46,7.79 C42.8554102,7.82215685 42.2687969,7.57870838 41.8646355,7.12791299 C41.4604741,6.67711761 41.2822743,6.06750531 41.38,5.47 C41.2319587,4.33607749 42.0270504,3.29531139 43.16,3.14 L43.45,3.14 C44.7,3.14 45.45,4 45.45,5.41 L45.45,5.72 L42.33,5.72 L42.33,5.72 C42.2782131,6.37423733 42.7658682,6.94689653 43.42,7 L43.53,7 C43.9652126,7.05068894 44.3879216,6.83340863 44.6,6.45 L45.46,6.49 Z M42.33,5 L44.6,5 C44.6402343,4.40484259 44.1945899,3.88789518 43.6,3.84 L43.5,3.84 C43.1898086,3.8345924 42.8905909,3.95474177 42.6702797,4.17317 C42.4499684,4.39159823 42.3272551,4.68977364 42.33,5 C42.33,5 42.33,5 42.33,5 Z" id="Shape"></path>
                            <path d="M46.71,3.2 L47.57,3.2 L47.57,3.89 L47.64,3.89 C47.8350896,3.39462586 48.328884,3.08296875 48.86,3.12 C48.9929498,3.10569874 49.1270502,3.10569874 49.26,3.12 L49.26,4 C49.095509,3.96609952 48.9279467,3.94934328 48.76,3.95 C48.4737821,3.92520562 48.1897584,4.01764961 47.9729679,4.20616309 C47.7561774,4.39467657 47.6251898,4.66311201 47.61,4.95 C47.61,4.95 47.61,5.02 47.61,5.05 L47.61,7.7 L46.72,7.7 L46.71,3.2 Z" id="Shape"></path>
                            <path d="M52.44,5.45 C52.44,4.03 53.17,3.13 54.31,3.13 C54.8844134,3.1028714 55.4225409,3.41092988 55.69,3.92 L55.76,3.92 L55.76,1.44 L56.65,1.44 L56.65,7.7 L55.8,7.7 L55.8,7 L55.73,7 C55.4436848,7.50525553 54.9004082,7.80964456 54.32,7.79 C53.17,7.78 52.44,6.87 52.44,5.45 Z M53.36,5.45 C53.36,6.45 53.81,6.98 54.56,6.98 C55.31,6.98 55.77,6.4 55.77,5.45 C55.77,4.5 55.3,3.92 54.56,3.92 C53.82,3.92 53.36,4.5 53.36,5.45 Z" id="Shape"></path>
                            <path d="M57.85,6.43 C57.85,5.62 58.45,5.15 59.52,5.09 L60.74,5 L60.74,4.61 C60.74,4.13 60.43,3.87 59.82,3.87 C59.21,3.87 58.98,4.05 58.88,4.37 L58,4.37 C58.09,3.6 58.82,3.1 59.84,3.1 C60.86,3.1 61.61,3.66 61.61,4.61 L61.61,7.7 L60.75,7.7 L60.75,7.07 L60.7,7.07 C60.4113907,7.53325974 59.8952469,7.80471312 59.35,7.78 C58.6048855,7.85574451 57.9387653,7.31480126 57.86,6.57 C57.86,6.57 57.85,6.47 57.85,6.43 Z M60.74,6 L60.74,5.62 L59.64,5.69 C59.02,5.69 58.74,5.94 58.74,6.34 C58.74,6.74 59.09,6.98 59.57,6.98 C59.849815,7.00790547 60.1292516,6.9234824 60.3468072,6.7453119 C60.5643627,6.56714141 60.7022066,6.30982615 60.73,6.03 L60.73,6.03 L60.74,6 Z" id="Shape"></path>
                            <path d="M63,3.2 L63.86,3.2 L63.86,3.92 L63.93,3.92 C64.1616644,3.39601297 64.6988309,3.07531655 65.27,3.12 C65.7135669,3.08468937 66.1490241,3.25358774 66.4527741,3.57875596 C66.756524,3.90392418 66.8954058,4.3498631 66.83,4.79 L66.83,7.7 L66,7.7 L66,5 C66,4.28 65.69,3.92 65,3.92 C64.6950425,3.89230722 64.3942067,4.00586192 64.1836108,4.22815757 C63.9730149,4.45045323 63.8758755,4.75698348 63.92,5.06 L63.92,7.7 L63,7.7 L63,3.2 Z" id="Shape"></path>
                            <path d="M69.86,3.11 C70.86,3.11 71.53,3.58 71.62,4.38 L70.77,4.38 C70.69,4.05 70.36,3.84 69.86,3.84 C69.36,3.84 68.99,4.08 68.99,4.43 C68.99,4.78 69.22,4.87 69.71,4.98 L70.46,5.15 C71.32,5.35 71.72,5.72 71.72,6.38 C71.72,7.23 70.93,7.79 69.85,7.79 C68.77,7.79 68.08,7.31 68,6.51 L68.89,6.51 C69.0491445,6.90949952 69.4662209,7.14306226 69.89,7.07 C70.44,7.07 70.84,6.82 70.84,6.46 C70.84,6.1 70.63,6.02 70.18,5.91 L69.39,5.73 C68.53,5.53 68.14,5.14 68.14,4.47 C68.14,3.8 68.85,3.11 69.86,3.11 Z" id="Shape"></path>
                            <polygon id="Shape" points="1.44 11.07 3.3 11.07 3.3 23.49 1.44 23.49"></polygon>
                            <polygon id="Shape" points="5.54 15.61 6.54 11.07 8.35 11.07 7.12 15.61"></polygon>
                            <path d="M15.39,20.13 L10.66,20.13 L9.52,23.49 L7.52,23.49 L12,11.07 L14.08,11.07 L18.56,23.49 L16.56,23.49 L15.39,20.13 Z M11.15,18.58 L14.9,18.58 L13.05,13.13 L13,13.13 L11.15,18.58 Z" id="Shape"></path>
                            <path d="M28.25,19 C28.25,21.81 26.74,23.62 24.47,23.62 C23.2870651,23.6748679 22.1780441,23.0444771 21.62,22 L21.62,22 L21.62,26.48 L19.72,26.48 L19.72,14.48 L21.52,14.48 L21.52,15.99 L21.52,15.99 C22.1122202,14.9671185 23.2186447,14.3524383 24.4,14.39 C26.73,14.34 28.25,16.15 28.25,19 Z M26.34,19 C26.34,17.17 25.39,16 23.95,16 C22.51,16 21.58,17.23 21.58,19 C21.58,20.77 22.58,22 23.96,22 C25.34,22 26.34,20.81 26.34,19 Z" id="Shape"></path>
                            <path d="M38.21,19 C38.21,21.81 36.7,23.62 34.43,23.62 C33.2506026,23.6709407 32.1464641,23.0411152 31.59,22 L31.59,22 L31.59,26.48 L29.69,26.48 L29.69,14.48 L31.49,14.48 L31.49,15.99 L31.49,15.99 C32.0822202,14.9671185 33.1886447,14.3524383 34.37,14.39 C36.7,14.34 38.21,16.15 38.21,19 Z M36.3,19 C36.3,17.17 35.35,16 33.91,16 C32.47,16 31.54,17.23 31.54,19 C31.54,20.77 32.54,22 33.92,22 C35.3,22 36.3,20.81 36.3,19 Z" id="Shape"></path>
                            <path d="M44.8,20 C44.94,21.23 46.13,22 47.8,22 C49.47,22 50.49,21.19 50.49,20.08 C50.49,18.97 49.81,18.54 48.2,18.14 L46.59,17.75 C44.31,17.2 43.25,16.13 43.25,14.4 C43.25,12.26 45.12,10.79 47.77,10.79 C50.42,10.79 52.19,12.26 52.25,14.4 L50.35,14.4 C50.24,13.16 49.21,12.4 47.72,12.4 C46.23,12.4 45.2,13.16 45.2,14.26 C45.2,15.14 45.85,15.65 47.45,16.05 L48.82,16.39 C51.37,16.99 52.43,18.02 52.43,19.83 C52.43,22.15 50.58,23.61 47.64,23.61 C44.89,23.61 43.03,22.19 42.91,19.94 L44.8,20 Z" id="Shape"></path>
                            <path d="M56.44,12.29 L56.44,14.43 L58.16,14.43 L58.16,15.9 L56.44,15.9 L56.44,20.9 C56.44,21.68 56.78,22.04 57.54,22.04 C57.7431931,22.0506815 57.9468069,22.0506815 58.15,22.04 L58.15,23.5 C57.8204383,23.5628187 57.4854822,23.5929647 57.15,23.59 C55.32,23.59 54.6,22.9 54.6,21.15 L54.6,15.9 L53.25,15.9 L53.25,14.43 L54.57,14.43 L54.57,12.29 L56.44,12.29 Z" id="Shape"></path>
                            <path d="M59.15,19 C59.15,16.15 60.83,14.36 63.44,14.36 C66.05,14.36 67.73,16.15 67.73,19 C67.73,21.85 66.07,23.64 63.44,23.64 C60.81,23.64 59.15,21.82 59.15,19 Z M65.85,19 C65.85,17 64.95,15.89 63.45,15.89 C61.95,15.89 61,17 61,19 C61,21 61.89,22.11 63.4,22.11 C64.91,22.11 65.8,20.97 65.8,19 L65.85,19 Z" id="Shape"></path>
                            <path d="M69.28,14.43 L71,14.43 L71,16 L71,16 C71.2458503,15.0055628 72.1563822,14.3205755 73.18,14.36 C73.3952835,14.3592556 73.6099673,14.3827366 73.82,14.43 L73.82,16.17 C73.5510926,16.0887352 73.2707924,16.051587 72.99,16.06 C72.4433716,16.0359974 71.9136531,16.2526047 71.5404563,16.6527333 C71.1672594,17.0528618 70.988028,17.5963657 71.05,18.14 L71.05,23.51 L69.19,23.51 L69.28,14.43 Z" id="Shape"></path>
                            <path d="M82.47,20.83 C82.22,22.47 80.62,23.6 78.57,23.6 C75.94,23.6 74.3,21.84 74.3,19 C74.3,16.16 75.94,14.32 78.49,14.32 C81.04,14.32 82.57,16.04 82.57,18.79 L82.57,19.43 L76.18,19.43 L76.18,19.54 C76.0643826,20.8377556 77.0223069,21.9836836 78.32,22.1 L78.61,22.1 C79.5144874,22.2015466 80.3734705,21.6795808 80.7,20.83 L82.47,20.83 Z M76.19,18.13 L80.72,18.13 C80.7882401,16.929058 79.8708527,15.8997941 78.67,15.83 L78.5,15.83 C77.8909258,15.8246747 77.3048246,16.0622165 76.8713219,16.4900893 C76.4378192,16.9179621 76.1926365,17.5009082 76.19,18.11 C76.19,18.11 76.19,18.12 76.19,18.12 L76.19,18.13 Z" id="Shape"></path>
                        </g>
                    </g>
                </g>
            </g>
        </g>
    </g>
</svg>